<svg width="78" height="79" viewBox="0 0 78 79" fill="none" xmlns="http://www.w3.org/2000/svg">
<g filter="url(#filter0_d_590_9580)">
<circle cx="39" cy="31.8912" r="19" fill="#33D3D4"/>
<path d="M33 25.3912V32.8912H37.382C37.6827 32.8912 37.833 32.8912 37.9538 32.9659C38.0747 33.0406 38.1419 33.1751 38.2764 33.444L38.7236 34.3384C38.8581 34.6074 38.9253 34.7419 39.0462 34.8166C39.167 34.8912 39.3173 34.8912 39.618 34.8912H44.5C44.7357 34.8912 44.8536 34.8912 44.9268 34.818C45 34.7448 45 34.6269 45 34.3912V27.3912C45 27.1555 45 27.0377 44.9268 26.9645C44.8536 26.8912 44.7357 26.8912 44.5 26.8912H39.618C39.3173 26.8912 39.167 26.8912 39.0462 26.8166C38.9253 26.7419 38.8581 26.6074 38.7236 26.3384L38.2764 25.444C38.1419 25.1751 38.0747 25.0406 37.9538 24.9659C37.833 24.8912 37.6827 24.8912 37.382 24.8912H33.5C33.2643 24.8912 33.1464 24.8912 33.0732 24.9645C33 25.0377 33 25.1555 33 25.3912Z" fill="white"/>
<path d="M33 32.8912V25.3912C33 25.1555 33 25.0377 33.0732 24.9645C33.1464 24.8912 33.2643 24.8912 33.5 24.8912H37.382C37.6827 24.8912 37.833 24.8912 37.9538 24.9659C38.0747 25.0406 38.1419 25.1751 38.2764 25.444L38.7236 26.3384C38.8581 26.6074 38.9253 26.7419 39.0462 26.8166C39.167 26.8912 39.3173 26.8912 39.618 26.8912H44.5C44.7357 26.8912 44.8536 26.8912 44.9268 26.9645C45 27.0377 45 27.1555 45 27.3912V34.3912C45 34.6269 45 34.7448 44.9268 34.818C44.8536 34.8912 44.7357 34.8912 44.5 34.8912H39.618C39.3173 34.8912 39.167 34.8912 39.0462 34.8166C38.9253 34.7419 38.8581 34.6074 38.7236 34.3384L38.2764 33.444C38.1419 33.1751 38.0747 33.0406 37.9538 32.9659C37.833 32.8912 37.6827 32.8912 37.382 32.8912H33ZM33 32.8912V38.8912" stroke="white" stroke-width="2" stroke-linecap="round"/>
</g>
<defs>
<filter id="filter0_d_590_9580" x="0" y="0.891235" width="78" height="78" filterUnits="userSpaceOnUse" color-interpolation-filters="sRGB">
<feFlood flood-opacity="0" result="BackgroundImageFix"/>
<feColorMatrix in="SourceAlpha" type="matrix" values="0 0 0 0 0 0 0 0 0 0 0 0 0 0 0 0 0 0 127 0" result="hardAlpha"/>
<feOffset dy="8"/>
<feGaussianBlur stdDeviation="10"/>
<feComposite in2="hardAlpha" operator="out"/>
<feColorMatrix type="matrix" values="0 0 0 0 0.2 0 0 0 0 0.827451 0 0 0 0 0.831373 0 0 0 0.3 0"/>
<feBlend mode="normal" in2="BackgroundImageFix" result="effect1_dropShadow_590_9580"/>
<feBlend mode="normal" in="SourceGraphic" in2="effect1_dropShadow_590_9580" result="shape"/>
</filter>
</defs>
</svg>
