<svg width="694" height="716" viewBox="0 0 694 716" fill="none" xmlns="http://www.w3.org/2000/svg">
<g clip-path="url(#clip0_590_9355)">
<path style="mix-blend-mode:multiply" opacity="0.5" d="M710.091 704.122C710.091 697.63 651.404 696.447 578.526 696.447C505.649 696.447 449.344 698.019 449.344 704.511C449.344 711.003 505.26 715.872 578.138 715.872C651.015 715.872 710.091 710.614 710.091 704.122Z" fill="url(#paint0_linear_590_9355)"/>
<path d="M146.938 443.467C150.79 436.688 90.5652 382.742 67.2356 396.587C59.5999 401.118 55.63 413.071 58.9242 420.408C63.1306 429.791 77.4223 427.559 115.584 436.282C140.046 441.878 145.806 445.445 146.938 443.467Z" fill="#E2D2F5"/>
<path d="M280.09 400.493C287.405 364.72 251.253 329.674 227.214 306.361C192.397 272.6 166.23 247.241 129.385 251.552C95.0415 255.559 57.1837 284.671 57.6229 313.546C58.4 365.396 182.059 377.501 184.914 429.216C187.802 481.32 64.3633 507.507 69.7016 555.858C73.8235 593.27 151.735 613.642 186.806 618.984C210.456 622.585 274.363 632.34 290.682 604.242C312.694 566.339 225.17 499.054 251.405 441.692C260.815 421.135 275.799 421.608 280.107 400.493H280.09Z" fill="#E2D2F5"/>
<path style="mix-blend-mode:color-dodge" d="M211.368 479.342C405.674 454.845 457.486 422.437 460.408 394.001C465.172 347.662 338.236 331.483 321.985 247.427C305.261 160.886 414.256 45.7399 530.853 12.4184C566.92 2.12276 598.46 1.15912 619.222 1.91989" stroke="url(#paint1_linear_590_9355)" stroke-miterlimit="10"/>
<path d="M336.226 183.54C336.226 179.736 333.135 176.642 329.334 176.642C325.533 176.642 322.441 179.736 322.441 183.54C322.441 187.344 325.533 190.437 329.334 190.437C333.135 190.437 336.226 187.344 336.226 183.54Z" fill="url(#paint2_linear_590_9355)"/>
<path d="M447.434 240.529C447.434 237.993 445.373 235.931 442.839 235.931C440.305 235.931 438.244 237.993 438.244 240.529C438.244 243.065 440.305 245.128 442.839 245.128C445.373 245.128 447.434 243.065 447.434 240.529Z" fill="url(#paint3_linear_590_9355)"/>
<path d="M690.883 370.857C690.883 368.321 688.822 366.258 686.288 366.258C683.754 366.258 681.693 368.321 681.693 370.857C681.693 373.393 683.754 375.455 686.288 375.455C688.822 375.455 690.883 373.393 690.883 370.857Z" fill="url(#paint4_linear_590_9355)"/>
<path d="M584.895 494.168C584.895 491.632 582.834 489.57 580.3 489.57C577.766 489.57 575.705 491.632 575.705 494.168C575.705 496.704 577.766 498.767 580.3 498.767C582.834 498.767 584.895 496.704 584.895 494.168Z" fill="url(#paint5_linear_590_9355)"/>
<path d="M279.685 467.423C347.967 495.538 421.284 487.101 466.727 444.33C491.357 421.152 520.616 375.793 510.396 331.77C499.415 284.468 453.128 283.031 443.65 246.835C426.994 183.218 542.544 82.8314 653.752 41.9361C788.813 -7.73335 914.921 31.2516 967.679 51.4203" stroke="url(#paint6_linear_590_9355)" stroke-miterlimit="10"/>
<path d="M280.664 470.077C403.647 506.966 479.835 489.282 527.441 464.718C588.679 433.121 590.284 396.486 657.62 376.909C721.696 358.279 800.182 368.203 861.555 406.173C876.928 415.691 888.635 425.344 896.575 432.563" stroke="url(#paint7_linear_590_9355)" stroke-miterlimit="10"/>
<path d="M281.796 470.754C320.921 506.509 382.243 550.397 455.239 547.033C551.429 542.587 588.78 459.765 682.656 449.74C730.818 444.6 803.409 457.601 900.596 550.752" stroke="url(#paint8_linear_590_9355)" stroke-miterlimit="10"/>
<g opacity="0.8">
<path d="M412.095 469.435C412.314 470.094 412.5 470.737 412.703 471.396C412.686 471.43 412.669 471.447 412.652 471.48C414.628 479.426 410.574 492.241 405.506 499.494C403.597 502.198 401.266 504.599 399.475 507.389C397.228 510.888 395.928 514.878 394.644 518.817C391.721 527.878 388.849 536.957 385.386 545.833C384.018 549.315 382.937 552.662 382.075 556.077C382.126 556.517 382.177 556.957 382.21 557.379C384.575 564.125 387.042 570.836 389.238 577.632C390.184 580.557 391.4 583.397 392.059 586.407C392.633 588.976 393.36 591.495 394.289 593.947C395.708 597.7 398.158 600.641 401.502 602.856C403.496 604.175 405.607 605.324 407.702 606.474C408.057 606.677 408.395 606.896 408.716 607.133C412.078 609.737 415.186 612.645 418.108 615.738C423.531 621.503 428.954 627.268 434.343 633.05C436.556 635.434 438.752 637.851 440.897 640.286C444.479 644.36 447.824 648.637 451.152 652.931C453.466 655.89 455.949 658.713 457.858 661.959C458.889 663.717 459.767 665.577 460.375 667.504C461.592 671.392 461.845 675.433 461.473 679.457C461.051 684.055 461.102 688.67 460.798 693.269C460.713 694.503 460.494 695.669 460.19 696.87C459.75 698.476 458.771 699.304 457.149 699.507C455.696 699.676 454.243 700.065 453.078 700.91C451.523 702.043 449.935 703.006 448.026 703.395C447.368 703.53 447.165 703.987 447.266 704.612C447.317 704.984 447.486 705.289 447.655 705.61C448.347 706.878 450.172 707.757 451.794 707.757C452.469 707.757 453.094 707.605 453.601 707.284C453.99 707.03 454.429 706.929 454.885 706.929C454.885 706.929 454.902 706.929 454.919 706.929C455.274 706.929 455.628 706.878 456 706.827C456.355 706.776 456.71 706.726 457.081 706.726C457.419 706.726 457.757 706.776 458.095 706.895C458.146 706.912 458.213 706.929 458.281 706.929C458.399 706.929 458.534 706.895 458.635 706.861C459.919 706.506 461.237 706.641 462.538 706.59C463.18 706.557 463.822 706.557 464.396 706.252C466.896 704.917 469.532 703.818 471.288 701.383C472.403 699.845 473.941 698.662 474.904 697.005C476.289 694.621 477.623 692.204 479.042 689.837C480.259 687.808 481.712 685.999 483.502 684.427C486.29 681.959 488.79 679.237 490.682 675.991C491.07 675.331 491.172 674.689 491.087 673.928C490.868 671.916 489.82 670.361 488.503 668.975C486.509 666.879 483.975 665.543 481.374 664.343C480.749 664.055 480.191 663.683 479.617 663.328C477.894 662.263 476.627 660.725 475.36 659.186C472.893 656.177 470.782 652.897 468.281 649.922C467.065 648.468 466.001 646.879 464.937 645.307C458.45 635.704 452.503 625.78 446.962 615.603C443.11 608.536 438.431 602.061 432.603 596.482C430.711 594.674 428.65 593.034 426.673 591.309C424.562 589.467 422.366 587.742 419.899 586.356C417.973 585.274 416.048 584.175 414.257 582.839C413.547 582.315 413.159 581.673 413.091 580.811C413.007 579.594 412.872 578.376 412.804 577.159C412.652 573.541 412.618 569.923 412.568 566.305C412.466 558.022 412.382 549.755 412.027 541.488C411.807 536.247 411.571 531.006 411.419 525.765C411.368 524.227 411.182 522.705 411.013 521.167C410.574 517.076 410 513.001 409.729 508.893C409.577 506.746 409.713 504.531 408.935 502.452C408.75 501.962 409.003 501.573 409.206 501.167C409.865 499.882 410.507 498.581 411.199 497.313C413.564 493.035 414.848 488.471 414.696 483.551C414.561 478.699 413.564 473.983 412.061 469.384" fill="url(#paint9_linear_590_9355)"/>
<path d="M375.74 352.226C375.554 352.632 375.267 352.937 374.828 353.19C372.699 354.407 370.79 355.878 369.287 357.89C368.172 359.395 367.361 361.051 366.635 362.759C364.945 366.766 363.121 370.705 360.654 374.306C359.049 376.655 357.259 378.887 355.468 381.102C351.819 385.616 348.711 390.501 345.636 395.404C342.798 399.918 339.893 404.398 337.054 408.929C336.142 410.383 334.723 411.194 333.304 411.972C327.189 415.302 321.783 419.563 316.597 424.178C311.495 428.726 306.157 432.969 300.616 436.959C298.741 438.311 296.849 439.613 294.956 440.915C294.703 441.101 294.416 441.253 294.162 441.439C293.385 442.014 292.625 442.335 291.781 442.335C291.24 442.335 290.682 442.2 290.057 441.895C288.284 441.05 286.408 440.661 284.516 440.661C283.452 440.661 282.371 440.779 281.307 441.016C279.195 441.489 277.1 442.081 275.073 442.842C273.789 443.332 272.607 444.178 271.441 444.938C270.377 445.648 270.529 446.511 271.728 447.035C272.015 447.153 272.319 447.254 272.708 447.39C272.336 447.964 271.813 448.184 271.255 448.353C270.107 448.691 269.076 449.215 268.181 449.993V451.346C268.806 452.073 269.549 452.259 270.326 452.259C270.9 452.259 271.492 452.157 272.083 452.089C271.069 452.63 269.904 453.036 269.988 454.439C270.073 455.893 271.255 456.096 272.387 456.164C271.982 458.007 272.607 458.97 274.026 458.97C274.33 458.97 274.668 458.919 275.022 458.835C275.479 458.733 275.918 458.514 276.543 458.514C276.627 458.514 276.712 458.514 276.796 458.514C276.07 458.869 275.512 459.173 275.141 459.697C274.499 460.627 274.853 461.743 275.918 462.098C276.154 462.182 276.391 462.216 276.644 462.216C276.898 462.216 277.134 462.182 277.387 462.098C279.33 461.506 281.29 460.948 283.165 460.137C285.074 459.308 286.898 458.311 288.807 457.482C291.155 456.468 293.25 455.082 295.142 453.357C295.446 453.087 295.734 452.766 296.122 452.664C297.626 452.258 298.724 451.261 299.822 450.23C300.447 449.638 301.156 449.148 301.849 448.641C307.677 444.363 314.046 441.033 320.465 437.821C325.922 435.082 331.294 432.208 336.176 428.489C339.115 426.24 342.021 423.941 344.893 421.574C346.886 419.934 348.88 418.278 350.451 416.215C352.478 413.544 354.657 411.008 356.82 408.455C357.614 407.526 358.458 406.646 359.269 405.734C359.387 405.598 359.506 405.514 359.624 405.463C355.992 403.13 353.694 398.836 353.863 394.525C354.15 387.103 360.671 381.693 364.405 375.286C368.645 368 375.909 352.649 375.74 352.193M375.892 351.702C375.858 351.838 375.824 351.956 375.791 352.074C375.841 351.956 375.875 351.838 375.909 351.719" fill="url(#paint10_linear_590_9355)"/>
<path d="M364.675 476.231C364.523 476.873 364.354 477.516 364.168 478.158C364.337 477.516 364.506 476.873 364.658 476.231M408.344 399.783C408.344 399.783 408.361 399.884 408.378 399.935L408.344 399.783ZM405.337 318.499C405.27 318.634 405.219 318.787 405.151 318.922L405.033 319.192C400.134 322.202 396.502 322.827 394.323 322.827C394.205 322.827 394.103 322.827 394.002 322.827C393.613 323.791 393.208 324.535 392.988 324.822C392.633 325.262 391.552 326.191 390.488 326.732C389.846 328.677 389.137 330.824 388.697 332.159C387.785 335.016 379.761 340.189 379.507 340.342C379.49 340.832 379.288 341.271 379.102 341.711C378.494 343.131 377.852 344.517 377.294 345.954C376.855 347.087 376.551 348.27 376.315 349.454C376.179 350.164 376.044 350.857 375.926 351.55V351.618C375.926 351.618 375.892 351.702 375.892 351.753C375.858 351.888 375.825 352.007 375.774 352.108C375.757 352.159 375.74 352.193 375.723 352.226C375.892 352.683 368.628 368.033 364.388 375.32C360.655 381.727 354.134 387.154 353.847 394.559C353.678 398.87 355.992 403.164 359.607 405.497C359.692 405.463 359.776 405.446 359.861 405.446C360.029 405.446 360.198 405.497 360.418 405.598C361.533 406.139 362.124 406.934 362.259 408.202C362.547 410.721 362.935 413.223 363.341 415.725C363.999 419.85 363.999 424.009 364.118 428.168C364.185 430.518 364.354 432.851 364.608 435.2C364.929 438.294 365.334 441.405 365.249 444.533C365.199 446.747 365.114 448.962 365.064 451.176C364.962 455.2 364.641 459.207 364.692 463.247C364.743 466.324 364.557 469.401 364.929 472.461C364.929 472.495 364.929 472.512 364.929 472.546C367.716 470.365 370.605 468.302 373.764 466.713C379.288 463.94 386.991 462.351 394.086 462.351C400.185 462.351 405.844 463.518 409.307 466.087C410.963 467.322 412.027 469.198 412.584 471.48C412.601 471.447 412.618 471.43 412.635 471.396C412.449 470.737 412.246 470.077 412.027 469.435C412.01 469.367 411.993 469.316 411.959 469.249C409.628 462.199 407.162 455.217 404.864 448.15C403.226 443.129 401.621 438.074 401.198 432.749C400.945 429.486 401.012 426.24 401.638 423.028C402.803 417.077 404.459 411.245 406.047 405.395C406.604 403.316 407.263 401.27 407.888 399.157C408.141 399.326 408.209 399.529 408.26 399.715C408.26 399.546 408.293 399.377 408.31 399.208C408.462 396.773 407.973 394.254 407.263 391.921C406.148 388.32 404.391 384.956 402.769 381.541C401.536 378.955 400.371 376.25 400.303 373.393C400.185 368.811 402.938 364.568 406.368 361.542C407.28 360.73 408.26 359.986 409.375 359.53C410.338 359.141 411.368 359.006 412.399 358.989C414.392 360.46 416.064 362.218 417.433 364.179C415.828 361.88 413.834 359.868 411.385 358.262C409.104 356.757 407.026 355.033 405.084 353.139C404.374 352.446 403.715 351.685 403.209 350.823C402.296 349.268 401.621 347.662 401.165 345.988C401.097 345.718 401.046 345.43 400.979 345.16C400.911 344.872 400.844 344.585 400.793 344.298C400.489 342.624 400.421 340.883 400.59 339.108C400.877 335.997 401.215 332.903 401.384 329.775C401.435 328.778 401.671 327.814 401.925 326.851C402.668 324.078 403.952 321.525 405.067 318.905C405.134 318.77 405.185 318.618 405.253 318.482" fill="url(#paint11_linear_590_9355)"/>
<path d="M384.575 280.613H384.305C383.967 280.782 383.596 280.85 383.241 280.85C383.106 280.85 382.987 280.85 382.852 280.833C382.565 280.816 382.261 280.799 381.974 280.799C379.609 280.799 377.396 281.577 375.2 282.371C371.956 283.572 368.983 285.279 366.381 287.595C365.334 288.525 364.405 289.607 363.628 290.757C361.415 294.036 359.557 297.485 358.763 301.424C358.188 304.281 358.121 307.172 358.611 310.063C358.932 312.024 359.405 313.968 359.962 315.879L360.046 316.132C361.009 318.77 360.84 321.272 359.303 323.656C359.033 324.078 358.83 324.535 358.611 324.974C358.121 325.989 358.205 326.614 359.033 327.392C359.759 328.068 360.519 328.71 361.263 329.37C361.939 329.978 362.479 330.688 362.901 331.517C363.594 332.886 364.405 334.205 365.3 335.456C366.517 337.146 367.665 338.871 368.645 340.714C369.338 342.032 369.845 342.878 371.297 342.878C371.77 342.878 372.345 342.793 373.071 342.607C375.048 342.083 376.906 341.255 378.747 340.392C378.933 340.308 379.102 340.173 379.339 340.173C379.406 340.173 379.474 340.173 379.541 340.206V340.392C379.795 340.223 387.819 335.05 388.731 332.21C389.154 330.874 389.863 328.727 390.522 326.783C390.015 327.037 389.525 327.206 389.103 327.206C388.849 327.206 388.63 327.138 388.461 327.003C387.38 326.107 386.755 316.521 386.755 316.521C386.755 316.521 386.603 312.65 388.833 312.278C389.001 312.244 389.187 312.227 389.373 312.227C391.535 312.227 394.222 314.273 394.863 316.995C395.303 318.854 394.695 321.221 394.019 322.895C394.12 322.895 394.238 322.895 394.34 322.895C396.519 322.895 400.151 322.269 405.05 319.26L405.168 318.99C405.236 318.854 405.287 318.702 405.354 318.567C407.348 313.766 408.446 308.812 407.685 303.538C406.993 298.686 405.776 294.036 402.634 290.131C401.452 288.66 400.32 287.105 398.816 285.922C397.093 284.586 395.184 283.521 393.225 282.608C391.637 281.864 389.931 281.425 388.174 281.12C386.974 280.918 385.724 281.087 384.559 280.681" fill="url(#paint12_linear_590_9355)"/>
<path d="M412.483 359.006C411.436 359.023 410.422 359.158 409.459 359.547C408.327 360.003 407.347 360.747 406.452 361.559C403.023 364.585 400.269 368.828 400.387 373.41C400.455 376.267 401.621 378.972 402.854 381.558C404.476 384.973 406.249 388.337 407.347 391.938C408.057 394.254 408.547 396.773 408.395 399.225C408.395 399.411 408.361 399.563 408.344 399.732V399.8L408.395 399.952C411.334 409.69 414.781 419.275 417.652 429.047C418.058 430.45 418.413 431.87 418.396 433.307C418.362 436.722 418.852 440.069 419.19 443.434C419.899 450.382 421.284 457.195 423.193 463.907C423.92 466.426 424.748 468.945 425.102 471.531C425.778 476.417 426.454 481.303 426.623 486.239C426.69 488.133 426.927 490.026 427.045 491.92C427.113 493.272 427.417 494.658 426.808 495.943C425.322 499.088 425.373 502.351 426.116 505.63C426.825 508.775 427.383 511.919 427.704 515.115C427.89 516.923 428.582 518.614 429.174 520.322C429.376 520.879 429.731 521.234 430.356 521.251C430.373 521.251 430.39 521.251 430.424 521.251C431.032 521.251 431.336 520.863 431.606 520.372C431.995 519.662 432.079 518.918 432.029 518.141C431.978 517.363 431.724 516.636 431.505 515.892C431.15 514.709 431.218 513.542 431.403 512.105C431.91 512.866 432.062 513.492 432.181 514.1C432.4 515.25 432.552 516.416 432.772 517.583C433.228 520.034 432.958 522.435 432.164 524.785C431.995 525.292 431.843 525.833 431.758 526.357C431.674 526.999 432.164 527.794 432.721 528.014C432.856 528.064 432.975 528.081 433.093 528.081C433.583 528.081 433.853 527.642 434.14 527.27C434.242 527.118 434.309 526.949 434.41 526.796C435.086 525.816 435.627 524.649 437.096 524.599C437.299 524.599 437.519 524.43 437.688 524.294C438.043 523.973 438.448 523.872 438.887 523.872C438.989 523.872 439.09 523.872 439.191 523.872C439.31 523.872 439.411 523.872 439.529 523.872C440.205 523.872 440.881 523.686 441.185 523.01C441.658 521.978 442.452 521.556 443.465 521.319C444.09 521.167 444.665 520.879 444.952 520.237C445.763 518.36 446.455 516.467 446.101 514.337C445.847 512.782 445.729 511.192 445.594 509.62C445.492 508.572 445.239 507.575 444.834 506.611C443.415 503.23 442.097 499.815 440.576 496.484C439.58 494.303 438.887 492.156 439.141 489.722C439.343 487.862 438.634 486.07 438.532 484.211C438.38 481.404 438.363 478.598 438.178 475.808C437.738 469.08 437.705 462.351 437.232 455.623C436.911 450.923 436.539 446.24 435.441 441.642C434.799 438.954 434.461 436.249 434.41 433.459C434.326 428.979 433.904 424.516 432.772 420.154C431.724 416.131 430.626 412.107 429.748 408.05C428.295 401.287 426.251 394.66 425.068 387.83C424.275 383.283 423.041 378.836 421.926 374.356C421.487 372.615 420.913 370.874 420.22 369.2C419.477 367.391 418.581 365.7 417.5 364.162C416.115 362.184 414.46 360.443 412.466 358.972" fill="url(#paint13_linear_590_9355)"/>
<path d="M394.137 462.368C387.025 462.368 379.321 463.94 373.814 466.73C370.655 468.319 367.766 470.365 364.979 472.562C365.114 473.797 364.979 475.014 364.675 476.231C364.523 476.873 364.354 477.516 364.185 478.158C363.56 480.441 362.833 482.689 362.141 484.954C360.908 488.894 359.691 492.816 359.016 496.89C357.597 505.411 356.144 513.931 354.708 522.435C354.1 526.002 353.356 529.552 352.866 533.136C351.87 540.355 351.566 547.625 351.447 554.911C351.447 555.452 351.431 555.993 351.397 556.534C351.16 561.098 350.924 565.646 350.687 570.211C350.586 572.206 350.789 574.201 350.535 576.178C350.197 578.833 349.674 581.453 349.133 584.057C348.373 587.725 348.626 591.36 349.724 594.91C350.518 597.48 350.958 600.083 350.958 602.788C350.958 606.406 350.974 610.024 350.738 613.642C350.434 617.919 350.366 622.23 350.062 626.507C349.944 628.266 349.91 630.024 349.792 631.799C349.555 635.366 349.268 638.916 349.065 642.483C348.93 645.019 348.592 647.521 348.322 650.04C347.798 654.943 346.954 659.795 346.295 664.681C345.687 669.313 344.96 673.911 342.832 678.138C341.869 680.048 340.72 681.857 339.2 683.328C336.446 685.999 333.574 688.552 330.365 690.699C327.814 692.406 325.567 694.553 322.83 695.99C319.587 697.681 316.343 699.372 312.559 699.608C311.63 699.659 310.667 699.659 309.755 700.031C308.234 700.656 306.68 701.18 304.991 701.18C304.957 701.18 304.94 701.18 304.907 701.18H304.873C304.062 701.18 303.758 701.552 303.792 702.381C303.842 703.514 304.231 704.629 305.126 705.238C306.224 705.982 307.187 706.895 308.555 707.317C309.637 707.655 310.616 708.366 311.816 708.45C311.985 708.45 312.154 708.585 312.289 708.704C312.897 709.194 313.556 709.397 314.215 709.397C314.722 709.397 315.228 709.278 315.752 709.076C316.039 708.974 316.293 708.906 316.546 708.906C316.884 708.906 317.205 709.008 317.56 709.194C318.303 709.617 319.097 710.022 319.958 710.09C320.972 710.158 322.002 710.225 323.033 710.225C323.911 710.225 324.773 710.174 325.651 710.056C329.013 709.6 332.324 708.94 335.635 708.163C337.646 707.672 339.69 707.469 341.734 707.469C342.781 707.469 343.845 707.52 344.91 707.622C346.075 707.723 347.224 707.774 348.39 707.774C351.194 707.774 353.998 707.47 356.769 706.929C357.411 706.793 357.901 706.455 358.374 705.999C359.894 704.494 360.35 702.601 360.502 700.572C360.688 698.053 360.181 695.602 359.404 693.235C358.559 690.682 358.323 688.078 358.695 685.458C359.455 680.133 360.283 674.807 361.262 669.516C362.242 664.224 363.746 659.051 365.03 653.81C366.668 647.166 368.949 640.725 370.858 634.166C371.702 631.258 372.716 628.401 373.29 625.408C373.932 621.993 374.422 618.545 374.693 615.062C375.098 609.669 374.693 604.31 374.439 598.934C374.321 596.449 373.527 594.048 373.105 591.597C372.48 587.911 372.057 584.26 372.969 580.557C374 576.348 375.03 572.121 376.585 568.047C378.037 564.243 379.507 560.456 380.977 556.652C381.095 556.331 381.129 555.942 381.501 555.756C381.838 555.925 381.838 556.28 381.923 556.568C381.974 556.399 382.007 556.213 382.058 556.044C382.936 552.646 384.018 549.298 385.369 545.799C388.832 536.94 391.704 527.845 394.627 518.783C395.894 514.827 397.211 510.837 399.458 507.355C401.249 504.565 403.58 502.182 405.489 499.46C410.574 492.224 414.611 479.409 412.635 471.447C412.077 469.164 411.013 467.288 409.357 466.054C405.911 463.484 400.235 462.318 394.137 462.318" fill="url(#paint14_linear_590_9355)"/>
<path d="M389.373 312.176C389.187 312.176 389.019 312.176 388.833 312.227C386.586 312.616 386.755 316.471 386.755 316.471C386.755 316.471 387.38 326.056 388.461 326.952C388.63 327.104 388.85 327.155 389.103 327.155C389.525 327.155 390.015 326.986 390.522 326.732C391.586 326.191 392.667 325.262 393.022 324.822C393.242 324.535 393.647 323.808 394.036 322.827C394.695 321.153 395.32 318.787 394.88 316.927C394.239 314.222 391.569 312.16 389.39 312.16" fill="url(#paint15_linear_590_9355)"/>
</g>
<path opacity="0.7" d="M0.000291685 699.963C0.000291685 706.455 59.076 711.713 131.953 711.713C204.831 711.713 263.907 706.455 263.907 699.963C263.907 693.471 204.713 696.126 131.835 696.126C58.9577 696.126 -0.0166016 693.471 -0.0166016 699.963H0.000291685Z" fill="url(#paint16_linear_590_9355)"/>
<path d="M234.985 304.484C232.839 308.187 229.174 310.249 228.836 310.435C225.913 312.041 223.751 312.143 220.372 314.408C220.372 314.408 218.734 315.625 217.162 317.417C212.179 323.165 217.534 350.401 218.294 355.354C222.619 383.215 192.853 420.442 160.401 427.086C142.359 430.788 117.019 426.393 110.11 411.262C106.022 402.319 109.113 392.124 119.266 372.683C138.085 336.639 164.033 281.949 211.909 274.916C215.879 274.341 219.088 274.206 220.761 274.172C223.109 275.727 225.474 277.3 227.822 278.855C229.309 279.836 231.708 282.338 233.633 285.82C234.208 286.851 239.462 296.691 234.968 304.467L234.985 304.484Z" fill="#1C2065"/>
<path d="M216.403 356.605C215.862 355.625 215.136 354.796 214.173 354.306C213.058 353.731 212.517 352.801 212.196 351.702C211.639 349.792 211.065 347.882 210.625 345.937C210.119 343.706 210.338 341.44 210.625 339.192C210.659 338.888 210.811 338.583 210.913 338.296C211.098 337.67 211.538 337.434 212.163 337.518C212.974 337.637 213.768 337.772 214.578 337.873C216.639 338.127 218.65 338.736 220.728 338.871C222.282 338.972 223.025 338.583 223.566 337.113C224.63 334.171 226.116 331.415 227.299 328.524C228.363 325.904 229.478 323.385 231.438 321.289C232.367 320.308 232.249 319.733 231.438 318.634C230.762 317.722 230.12 316.792 229.444 315.896C228.431 314.543 228.245 313.005 228.482 311.382C228.853 308.863 229.073 306.344 228.938 303.808C228.752 300.173 228.127 296.64 226.454 293.326C225.745 291.94 224.85 290.706 223.954 289.455C222.248 287.037 220.187 284.924 217.704 283.301C214.156 280.985 210.203 279.785 206.047 279.159C204.983 279.007 203.868 279.125 202.838 278.72H202.027C201.672 278.956 201.25 278.939 200.844 278.973C196.215 279.48 191.958 280.951 188.326 283.961C187.009 285.059 185.539 286.04 184.559 287.46C182.583 290.334 180.809 293.309 179.964 296.775C179.626 298.195 179.44 299.615 179.322 301.052C179.069 304.028 179.086 307.003 179.711 309.962C180.454 313.461 181.907 316.64 183.714 319.7C185.269 322.303 186.924 324.839 188.326 327.527C188.715 328.271 188.918 329.015 188.951 329.843C189.053 331.973 188.799 334.086 188.681 336.217C188.478 339.615 188.09 342.996 187.009 346.225C186.299 348.389 185.775 350.587 185.353 352.801C188.782 354.035 192.279 355.117 195.793 356.098C203.294 358.194 210.98 359.868 218.734 360.443C217.923 359.175 217.146 357.89 216.42 356.554L216.403 356.605Z" fill="#E9BA89"/>
<path d="M216.403 356.605C215.862 355.625 215.136 354.796 214.173 354.306C213.058 353.731 212.517 352.801 212.196 351.702C211.639 349.792 211.065 347.882 210.625 345.937C210.119 343.706 210.338 341.44 210.625 339.192C210.659 338.888 210.811 338.583 210.913 338.296C211.098 337.67 211.538 337.434 212.163 337.518C212.974 337.637 213.768 337.772 214.578 337.873C216.639 338.127 218.65 338.736 220.728 338.871C222.282 338.972 223.025 338.583 223.566 337.113C224.63 334.171 226.116 331.415 227.299 328.524C228.363 325.904 229.478 323.385 231.438 321.289C232.367 320.308 232.249 319.733 231.438 318.634C230.762 317.722 230.12 316.792 229.444 315.896C228.431 314.543 228.245 313.005 228.482 311.382C228.853 308.863 229.073 306.344 228.938 303.808C228.752 300.173 228.127 296.64 226.454 293.326C225.745 291.94 224.85 290.706 223.954 289.455C222.248 287.037 220.187 284.924 217.704 283.301C214.156 280.985 210.203 279.785 206.047 279.159C204.983 279.007 203.868 279.125 202.838 278.72H202.027C201.672 278.956 201.25 278.939 200.844 278.973C196.215 279.48 191.958 280.951 188.326 283.961C187.009 285.059 185.539 286.04 184.559 287.46C182.583 290.334 180.809 293.309 179.964 296.775C179.626 298.195 179.44 299.615 179.322 301.052C179.069 304.028 179.086 307.003 179.711 309.962C180.454 313.461 181.907 316.64 183.714 319.7C185.269 322.303 186.924 324.839 188.326 327.527C188.715 328.271 188.918 329.015 188.951 329.843C189.053 331.973 188.799 334.086 188.681 336.217C188.478 339.615 188.09 342.996 187.009 346.225C186.299 348.389 185.775 350.587 185.353 352.801C188.782 354.035 192.279 355.117 195.793 356.098C203.294 358.194 210.98 359.868 218.734 360.443C217.923 359.175 217.146 357.89 216.42 356.554L216.403 356.605Z" fill="#9B786E"/>
<path d="M263.907 698.678C264.245 694.858 224.258 686.1 229.191 661.773C223.346 660.454 215.339 658.476 210.017 656.109C209.696 681.942 202.348 700.048 211.555 701.823C214.258 702.313 216.91 702.55 219.63 702.33C221.843 702.144 224.039 701.705 226.269 702.009C233.685 703.006 263.147 707.672 263.89 698.678H263.907Z" fill="#47789A"/>
<path d="M263.907 698.678C264.245 694.858 224.258 686.1 229.191 661.773C223.346 660.454 215.339 658.476 210.017 656.109C209.696 681.942 202.348 700.048 211.555 701.823C214.258 702.313 216.91 702.55 219.63 702.33C221.843 702.144 224.039 701.705 226.269 702.009C233.685 703.006 263.147 707.672 263.89 698.678H263.907Z" fill="url(#paint17_linear_590_9355)"/>
<path d="M230.93 664.715C230.795 661.587 231.995 658.476 231.589 655.349C231.234 652.559 229.275 651.224 226.91 650.902C226.96 645.881 227.112 640.86 227.4 635.839C228.008 625.662 228.92 615.518 229.883 605.392C230.339 600.608 231.336 596.009 233.329 591.614C235.137 587.607 235.846 583.397 235.187 578.968C234.782 576.179 234.393 573.355 234.258 570.515C233.887 562.603 233.904 554.657 233.312 546.762C232.569 536.534 231.336 526.323 229.883 516.163C228.734 508.2 226.775 500.373 224.849 492.545C224.308 490.331 223.531 488.167 223.464 485.884C222.365 484.921 221.234 483.974 220.085 483.078C213.446 477.955 208.175 470.652 200.725 466.544C197.11 464.549 193.36 463.602 189.643 461.861C185.927 460.137 184.187 458.277 181.737 455.623C179.203 463.011 176.889 470.466 175.352 477.972C175.385 478.175 175.402 478.378 175.436 478.581C175.808 480.542 176.213 482.435 176.568 484.312C182.954 491.953 184.221 501.827 186.467 511.328C189.795 525.326 195.657 538.225 200.134 551.817C200.168 551.902 200.185 551.986 200.202 552.054C202.246 557.261 204.205 562.519 205.962 567.827C205.827 568.3 205.759 568.808 205.709 569.281C205.624 570.245 205.692 571.191 205.658 572.155C205.624 573.372 204.273 574.353 204.611 575.638C205.05 577.345 207.01 576.855 208.175 577.582C207.668 578.157 207.347 578.917 207.55 579.678C207.702 580.287 208.293 580.861 208.935 580.997C208.868 581.605 208.75 582.214 208.564 582.839C208.243 583.888 207.939 584.936 207.635 585.984C206.587 586.254 205.658 587.1 205.523 588.283C205.388 589.45 205.371 590.261 204.425 591.022C203.732 591.58 202.786 592.222 202.415 593.068C201.958 594.133 202.11 595.553 202.195 596.668C202.313 598.122 202.617 599.542 202.921 600.963C203.141 601.994 203.361 603.025 203.529 604.056C203.513 604.225 203.479 604.378 203.445 604.547C202.634 610.481 202.364 616.415 203.04 622.365C204.036 631.511 205.861 640.556 207.364 649.618C207.55 650.75 207.736 651.866 207.939 652.982C206.993 652.897 206.097 652.999 205.472 653.591C203.935 655.011 204.729 658.493 204.915 660.268C205.151 662.652 204.746 665.036 204.949 667.42C205.033 668.383 205.219 669.465 205.928 670.192C206.79 671.088 208.243 671.274 209.425 671.359C210.963 671.477 212.517 671.359 214.054 671.359C216.115 671.392 218.159 671.731 220.22 671.731C223.227 671.731 226.302 671.173 229.173 670.277C230.001 670.023 231.049 669.753 231.42 668.873C231.978 667.555 230.964 666.05 230.913 664.715H230.93Z" fill="#1C2065"/>
<path d="M230.93 664.715C230.795 661.587 231.995 658.476 231.589 655.349C231.234 652.559 229.275 651.224 226.91 650.902C226.96 645.881 227.112 640.86 227.4 635.839C228.008 625.662 228.92 615.518 229.883 605.392C230.339 600.608 231.336 596.009 233.329 591.614C235.137 587.607 235.846 583.397 235.187 578.968C234.782 576.179 234.393 573.355 234.258 570.515C233.887 562.603 233.904 554.657 233.312 546.762C232.569 536.534 231.336 526.323 229.883 516.163C228.734 508.2 226.775 500.373 224.849 492.545C224.308 490.331 223.531 488.167 223.464 485.884C222.365 484.921 221.234 483.974 220.085 483.078C213.446 477.955 208.175 470.652 200.725 466.544C197.11 464.549 193.36 463.602 189.643 461.861C185.927 460.137 184.187 458.277 181.737 455.623C179.203 463.011 176.889 470.466 175.352 477.972C175.385 478.175 175.402 478.378 175.436 478.581C175.808 480.542 176.213 482.435 176.568 484.312C182.954 491.953 184.221 501.827 186.467 511.328C189.795 525.326 195.657 538.225 200.134 551.817C200.168 551.902 200.185 551.986 200.202 552.054C202.246 557.261 204.205 562.519 205.962 567.827C205.827 568.3 205.759 568.808 205.709 569.281C205.624 570.245 205.692 571.191 205.658 572.155C205.624 573.372 204.273 574.353 204.611 575.638C205.05 577.345 207.01 576.855 208.175 577.582C207.668 578.157 207.347 578.917 207.55 579.678C207.702 580.287 208.293 580.861 208.935 580.997C208.868 581.605 208.75 582.214 208.564 582.839C208.243 583.888 207.939 584.936 207.635 585.984C206.587 586.254 205.658 587.1 205.523 588.283C205.388 589.45 205.371 590.261 204.425 591.022C203.732 591.58 202.786 592.222 202.415 593.068C201.958 594.133 202.11 595.553 202.195 596.668C202.313 598.122 202.617 599.542 202.921 600.963C203.141 601.994 203.361 603.025 203.529 604.056C203.513 604.225 203.479 604.378 203.445 604.547C202.634 610.481 202.364 616.415 203.04 622.365C204.036 631.511 205.861 640.556 207.364 649.618C207.55 650.75 207.736 651.866 207.939 652.982C206.993 652.897 206.097 652.999 205.472 653.591C203.935 655.011 204.729 658.493 204.915 660.268C205.151 662.652 204.746 665.036 204.949 667.42C205.033 668.383 205.219 669.465 205.928 670.192C206.79 671.088 208.243 671.274 209.425 671.359C210.963 671.477 212.517 671.359 214.054 671.359C216.115 671.392 218.159 671.731 220.22 671.731C223.227 671.731 226.302 671.173 229.173 670.277C230.001 670.023 231.049 669.753 231.42 668.873C231.978 667.555 230.964 666.05 230.913 664.715H230.93Z" fill="url(#paint18_linear_590_9355)"/>
<path d="M140.991 659.288C142.241 657.834 141.836 654.503 143.643 653.117C138.305 650.277 133.304 647.285 128.405 644.106C125.263 650.142 108.927 677.867 113.489 681.468C120.347 686.912 127.899 689.6 134.048 694.503C141.413 700.369 162.259 706.827 163.104 692.711C163.155 691.899 128.794 673.438 140.991 659.271V659.288Z" fill="#47789A"/>
<path d="M140.991 659.288C142.241 657.834 141.836 654.503 143.643 653.117C138.305 650.277 133.304 647.285 128.405 644.106C125.263 650.142 108.927 677.867 113.489 681.468C120.347 686.912 127.899 689.6 134.048 694.503C141.413 700.369 162.259 706.827 163.104 692.711C163.155 691.899 128.794 673.438 140.991 659.271V659.288Z" fill="url(#paint19_linear_590_9355)"/>
<path d="M217.652 483.822C209.831 479.325 202.904 473.272 194.542 469.739C190.488 468.032 185.521 467.423 181.568 466.206C176.855 464.769 173.949 462.791 170.03 460.221C169.608 459.951 169.236 459.731 168.78 459.477C167.919 462.03 166.888 464.279 166.297 466.984C164.895 473.458 164.827 479.409 166.989 485.8C168.375 489.891 170.926 493.526 173.223 497.127C173.561 497.668 173.848 498.141 173.797 498.767C173.493 501.59 173.139 504.481 172.649 507.236C171.922 511.226 170.909 515.165 170.284 519.121C169.287 525.41 168.358 531.581 167.851 537.904C167.023 547.98 166.246 557.886 166.702 568.03C166.804 570.38 166.635 572.983 167.277 575.316C167.412 575.807 167.108 576.128 166.854 576.398C166.584 576.669 166.483 576.77 166.246 577.024C164.844 576.348 163.813 575.063 162.124 575.435C161.094 575.671 160.384 576.635 160.131 577.632C159.877 578.613 160.131 579.712 158.948 580.067C158.391 580.236 157.833 579.881 157.242 580.135C155.975 580.692 155.772 581.977 155.265 583.127C154.539 584.784 152.833 584.767 151.954 586.44C151.076 588.114 151.059 590.582 151.448 592.527C151.245 592.814 150.991 593.068 150.772 593.338C146.363 598.866 142.629 604.885 140.129 611.393C137.122 619.238 134.436 626.727 131.683 634.571C130.263 634.081 128.828 633.878 127.341 633.946C126.834 633.963 126.327 633.828 125.854 633.895C123.337 634.318 123.168 636.837 122.78 638.866C122.087 642.433 120.246 645.273 121.09 648.958C121.8 652.069 124.03 654.233 126.8 655.907C130.348 658.054 134.453 659.237 138.474 660.37C141.008 661.097 144.116 662.5 146.599 661.114C148.103 660.268 148.559 658.747 149.353 657.259C150.147 655.771 150.856 653.777 151.498 652.187C152.123 650.598 152.9 648.975 152.579 647.318C152.258 645.679 151.177 644.884 150.045 643.836C149.758 643.565 149.404 643.396 149.099 643.16C150.62 640.658 152.056 638.24 153.694 635.789C157.816 629.601 162.124 623.464 166.483 617.395C168.881 614.048 171.821 610.481 174.338 607.37C176.855 604.259 179.338 601.926 182.075 599.221C185.656 595.654 188.005 592.07 189.795 587.252C190.809 584.53 191.366 581.301 192.329 578.41C194.863 570.836 197.836 563.347 200.843 555.908C202.212 552.544 203.563 549.129 204.915 545.731C205.033 545.444 205.219 544.97 205.472 544.987C205.692 544.987 205.506 544.987 205.523 544.987C212.855 538.698 209.054 528.521 210.895 520.034C212.061 514.641 214.172 509.552 216.047 504.295C217.568 500.051 219.206 495.808 220 491.277C220.304 489.502 220.676 487.643 221.149 485.884C219.984 485.14 218.919 484.549 217.686 483.839L217.652 483.822Z" fill="#2E278B"/>
<path d="M217.652 483.822C209.831 479.325 202.904 473.272 194.542 469.739C190.488 468.032 185.521 467.423 181.568 466.206C176.855 464.769 173.949 462.791 170.03 460.221C169.608 459.951 169.236 459.731 168.78 459.477C167.919 462.03 166.888 464.279 166.297 466.984C164.895 473.458 164.827 479.409 166.989 485.8C168.375 489.891 170.926 493.526 173.223 497.127C173.561 497.668 173.848 498.141 173.797 498.767C173.493 501.59 173.139 504.481 172.649 507.236C171.922 511.226 170.909 515.165 170.284 519.121C169.287 525.41 168.358 531.581 167.851 537.904C167.023 547.98 166.246 557.886 166.702 568.03C166.804 570.38 166.635 572.983 167.277 575.316C167.412 575.807 167.108 576.128 166.854 576.398C166.584 576.669 166.483 576.77 166.246 577.024C164.844 576.348 163.813 575.063 162.124 575.435C161.094 575.671 160.384 576.635 160.131 577.632C159.877 578.613 160.131 579.712 158.948 580.067C158.391 580.236 157.833 579.881 157.242 580.135C155.975 580.692 155.772 581.977 155.265 583.127C154.539 584.784 152.833 584.767 151.954 586.44C151.076 588.114 151.059 590.582 151.448 592.527C151.245 592.814 150.991 593.068 150.772 593.338C146.363 598.866 142.629 604.885 140.129 611.393C137.122 619.238 134.436 626.727 131.683 634.571C130.263 634.081 128.828 633.878 127.341 633.946C126.834 633.963 126.327 633.828 125.854 633.895C123.337 634.318 123.168 636.837 122.78 638.866C122.087 642.433 120.246 645.273 121.09 648.958C121.8 652.069 124.03 654.233 126.8 655.907C130.348 658.054 134.453 659.237 138.474 660.37C141.008 661.097 144.116 662.5 146.599 661.114C148.103 660.268 148.559 658.747 149.353 657.259C150.147 655.771 150.856 653.777 151.498 652.187C152.123 650.598 152.9 648.975 152.579 647.318C152.258 645.679 151.177 644.884 150.045 643.836C149.758 643.565 149.404 643.396 149.099 643.16C150.62 640.658 152.056 638.24 153.694 635.789C157.816 629.601 162.124 623.464 166.483 617.395C168.881 614.048 171.821 610.481 174.338 607.37C176.855 604.259 179.338 601.926 182.075 599.221C185.656 595.654 188.005 592.07 189.795 587.252C190.809 584.53 191.366 581.301 192.329 578.41C194.863 570.836 197.836 563.347 200.843 555.908C202.212 552.544 203.563 549.129 204.915 545.731C205.033 545.444 205.219 544.97 205.472 544.987C205.692 544.987 205.506 544.987 205.523 544.987C212.855 538.698 209.054 528.521 210.895 520.034C212.061 514.641 214.172 509.552 216.047 504.295C217.568 500.051 219.206 495.808 220 491.277C220.304 489.502 220.676 487.643 221.149 485.884C219.984 485.14 218.919 484.549 217.686 483.839L217.652 483.822Z" fill="url(#paint20_linear_590_9355)"/>
<path d="M190.438 376.825C190.472 371.787 190.049 366.799 189.019 361.863C188.326 358.499 187.397 354.813 184.88 352.328C185.066 352.142 185.252 351.939 185.471 351.77C185.657 351.635 185.471 351.314 185.269 351.449C185.015 351.618 184.796 351.821 184.576 352.024C184.525 351.99 184.492 351.939 184.458 351.905C183.698 351.229 182.583 352.379 183.36 353.055C183.427 353.122 183.495 353.19 183.562 353.258C182.498 354.881 181.958 356.892 181.214 358.651C179.609 362.539 176.619 365.886 174.474 369.47C170.301 376.436 167.565 384.787 165.098 395.336C161.905 408.979 161.905 419.732 161.956 423.096C162.125 435.234 164.27 442.538 165.352 445.817C168.561 455.454 172.176 458.767 174.187 460.289C177.143 462.503 183.005 465.614 186.147 463.467C186.924 462.943 187.532 462.098 187.921 460.847C188.833 457.939 188.478 454.676 188.225 451.701C187.87 447.677 187.972 443.941 188.63 439.917C190.252 430.163 189.83 420.678 189.644 410.839C189.424 399.461 190.337 388.168 190.404 376.825H190.438Z" fill="#3E658F"/>
<path d="M228.076 478.463C228.431 461.54 227.823 454.676 228.195 436.79C228.296 431.667 228.448 427.846 228.566 425.192C228.853 418.447 229.242 412.834 229.546 408.861C235.729 403.789 237.604 398.853 238.297 396.08C240.408 387.627 234.462 378.008 222.586 358.769C221.927 357.704 220.474 355.405 217.856 353.173C216.099 351.685 214.427 350.756 213.244 350.181C212.518 348.355 211.791 346.546 211.048 344.72C202.736 341.998 194.425 339.293 186.13 336.572C185.877 340.612 185.624 344.67 185.37 348.71C182.904 350.992 179.305 354.914 176.721 360.646C173.748 367.256 173.562 373.054 173.393 381.017C173.308 385.21 173.545 386.528 174.744 402.065C175.64 413.831 176.096 419.765 175.978 421.828C175.437 432.124 172.903 441.202 171.957 444.499C171.078 447.609 169.457 452.732 168.764 454.93C167.463 459.038 166.348 462.453 165.571 464.803C167.463 465.31 170.352 466.155 173.798 467.44C179.812 469.672 183.765 471.819 187.313 473.678C197.027 478.75 203.936 482.368 211.825 484.921C215.423 486.087 220.829 487.541 227.789 488.319C227.874 486.341 227.992 482.824 228.093 478.463H228.076Z" fill="#47789A"/>
<path d="M228.076 478.463C228.431 461.54 227.823 454.676 228.195 436.79C228.296 431.667 228.448 427.846 228.566 425.192C228.853 418.447 229.242 412.834 229.546 408.861C235.729 403.789 237.604 398.853 238.297 396.08C240.408 387.627 234.462 378.008 222.586 358.769C221.927 357.704 220.474 355.405 217.856 353.173C216.099 351.685 214.427 350.756 213.244 350.181C212.518 348.355 211.791 346.546 211.048 344.72C202.736 341.998 194.425 339.293 186.13 336.572C185.877 340.612 185.624 344.67 185.37 348.71C182.904 350.992 179.305 354.914 176.721 360.646C173.748 367.256 173.562 373.054 173.393 381.017C173.308 385.21 173.545 386.528 174.744 402.065C175.64 413.831 176.096 419.765 175.978 421.828C175.437 432.124 172.903 441.202 171.957 444.499C171.078 447.609 169.457 452.732 168.764 454.93C167.463 459.038 166.348 462.453 165.571 464.803C167.463 465.31 170.352 466.155 173.798 467.44C179.812 469.672 183.765 471.819 187.313 473.678C197.027 478.75 203.936 482.368 211.825 484.921C215.423 486.087 220.829 487.541 227.789 488.319C227.874 486.341 227.992 482.824 228.093 478.463H228.076Z" fill="url(#paint21_linear_590_9355)"/>
<path d="M287.034 451.396C285.648 450.991 284.246 450.636 282.861 450.247C282.608 450.179 282.27 450.213 282.202 449.824C282.81 449.723 283.368 449.993 283.925 450.145C284.905 450.416 285.902 450.45 286.882 450.264C288.098 450.027 288.503 448.624 287.659 447.745C287.304 447.373 286.915 447.102 286.392 446.984C285.598 446.798 284.804 446.612 284.027 446.392C283.672 446.291 283.216 446.291 283.047 445.834C284.297 444.651 284.246 444.279 282.709 443.501C281.932 443.112 281.206 442.69 280.547 442.132C279.989 441.659 279.33 441.388 278.621 441.185C276.965 440.695 275.225 440.61 273.604 440.069C269.786 438.801 266.187 439.68 262.623 440.982C261.812 441.27 261.086 441.405 260.275 441.202C258.602 440.796 256.93 440.391 255.258 440.019C248.044 438.446 241.033 436.232 234.175 433.493C230.796 432.14 227.434 430.737 224.022 429.469C221.64 431.312 219.427 433.425 218.143 436.13C217.028 438.463 216.724 441.05 216.927 443.62C218.954 444.093 220.998 444.516 223.042 444.938C232.063 446.815 241.152 448.336 250.088 450.636C251.271 450.94 252.453 451.21 253.534 451.819C254.244 452.208 255.021 452.495 255.849 452.563C257.724 452.715 259.481 453.171 260.934 454.456C261.103 454.608 261.339 454.659 261.542 454.761C264.87 456.4 268.367 457.651 271.83 458.97C273.012 459.427 274.195 459.883 275.479 459.984C277.134 460.137 278.773 460.61 280.462 460.289C282.168 459.968 282.489 459.579 282.354 457.854C283.199 457.77 284.06 457.753 284.905 457.618C286.121 457.432 286.645 456.536 286.274 455.335C286.223 455.166 286.037 455.048 286.121 454.828C286.426 454.591 286.797 454.727 287.152 454.659C287.963 454.49 288.335 454.135 288.487 453.34C288.672 452.411 288.166 451.684 287.067 451.362L287.034 451.396Z" fill="#9B786E"/>
<path d="M242.401 432.546C238.752 431.109 236.235 429.452 234.225 428.117C230.711 425.784 228.904 423.89 227.028 422.251C224.072 419.664 219.426 416.384 212.196 413.713C213.666 409.74 215.372 404.043 216.065 397.01C216.977 387.644 215.625 380.848 213.75 371.803C211.132 359.175 209.696 352.784 204.408 349.691C204.003 349.454 198.681 346.445 193.985 348.609C190.15 350.384 188.63 354.712 187.566 358.651C184.677 369.454 184.609 379.682 185.64 394.525C185.944 398.853 186.974 412.749 190.421 422.504C192.583 428.59 195.387 432.208 196.553 433.628C196.874 434 198.09 435.471 199.948 437.162C203.547 440.441 206.993 442.335 209.426 443.569C214.189 445.986 220.879 448.827 233.971 452.614C238.33 453.881 241.996 454.845 244.564 455.488C245.949 452.14 246.878 449.063 247.537 446.341C248.888 440.661 249.75 436.891 247.773 434.676C246.777 433.561 246.135 434.017 242.384 432.529L242.401 432.546Z" fill="#6C93AE"/>
<path d="M242.401 432.546C238.752 431.109 236.235 429.452 234.225 428.117C230.711 425.784 228.904 423.89 227.028 422.251C224.072 419.664 219.426 416.384 212.196 413.713C213.666 409.74 215.372 404.043 216.065 397.01C216.977 387.644 215.625 380.848 213.75 371.803C211.132 359.175 209.696 352.784 204.408 349.691C204.003 349.454 198.681 346.445 193.985 348.609C190.15 350.384 188.63 354.712 187.566 358.651C184.677 369.454 184.609 379.682 185.64 394.525C185.944 398.853 186.974 412.749 190.421 422.504C192.583 428.59 195.387 432.208 196.553 433.628C196.874 434 198.09 435.471 199.948 437.162C203.547 440.441 206.993 442.335 209.426 443.569C214.189 445.986 220.879 448.827 233.971 452.614C238.33 453.881 241.996 454.845 244.564 455.488C245.949 452.14 246.878 449.063 247.537 446.341C248.888 440.661 249.75 436.891 247.773 434.676C246.777 433.561 246.135 434.017 242.384 432.529L242.401 432.546Z" fill="url(#paint22_linear_590_9355)"/>
<path d="M233.752 285.972C230.846 292.853 225.407 303.25 215.22 312.329C203.108 323.115 195.168 322.32 186.079 332.768C178.528 341.441 176.568 350.536 173.173 366.275C167.193 393.883 173.426 401.254 165.486 412.141C158.155 422.183 143.12 429.25 129.031 425.429C109.857 420.239 100.211 397.027 104.62 383.266C108.032 372.615 117.915 373.765 122.121 361.305C126.311 348.896 117.983 343.334 122.324 329.657C125.753 318.871 134.099 312.396 137.765 309.556C151.583 298.855 157.884 305.566 168.257 295.609C175.369 288.762 177.345 282.371 187.785 274.747C189.593 273.428 191.772 272.312 194.627 271.467C206.554 267.883 217.518 272.617 218.835 273.208C227.349 277.029 231.961 283.217 233.752 285.955V285.972Z" fill="#2E278B"/>
<path d="M233.752 285.972C230.846 292.853 225.407 303.25 215.22 312.329C203.108 323.115 195.168 322.32 186.079 332.768C178.528 341.441 176.568 350.536 173.173 366.275C167.193 393.883 173.426 401.254 165.486 412.141C158.155 422.183 143.12 429.25 129.031 425.429C109.857 420.239 100.211 397.027 104.62 383.266C108.032 372.615 117.915 373.765 122.121 361.305C126.311 348.896 117.983 343.334 122.324 329.657C125.753 318.871 134.099 312.396 137.765 309.556C151.583 298.855 157.884 305.566 168.257 295.609C175.369 288.762 177.345 282.371 187.785 274.747C189.593 273.428 191.772 272.312 194.627 271.467C206.554 267.883 217.518 272.617 218.835 273.208C227.349 277.029 231.961 283.217 233.752 285.955V285.972Z" fill="url(#paint23_linear_590_9355)"/>
<path d="M212.095 308.508C211.757 308.406 211.385 308.373 211.014 308.423C209.831 308.339 208.649 308.542 207.635 309.235C206.436 310.046 205.625 311.348 205.219 312.717C204.476 315.22 204.645 318.82 206.74 320.663C207.686 321.492 208.987 321.694 210.169 321.323C211.352 320.951 212.247 320.038 212.889 319.006C214.274 316.792 214.764 313.732 214.156 311.179C213.886 310.063 213.277 308.88 212.112 308.508H212.095Z" fill="#9B786E"/>
<path d="M206.824 475.555C202.854 487.372 198.884 499.206 195.708 511.26C194.121 517.278 192.735 523.348 191.637 529.468C190.539 535.588 189.88 541.674 189.154 547.794C188.427 553.914 187.549 560.287 185.944 566.373C184.458 571.952 182.38 577.379 179.727 582.518C174.288 593.084 166.112 601.673 158.864 610.971C152.124 619.61 146.363 628.773 141.042 638.341C140.653 639.051 141.735 639.677 142.123 638.984C146.921 630.362 152.039 621.993 158.02 614.132C165.03 604.919 173.24 596.499 179.035 586.423C181.839 581.538 184.137 576.348 185.894 571.005C187.769 565.224 188.901 559.256 189.728 553.237C190.573 547.05 191.147 540.811 192.076 534.624C193.006 528.436 194.256 522.367 195.725 516.332C199.07 502.638 203.564 489.265 208.057 475.91C208.311 475.149 207.095 474.811 206.841 475.572L206.824 475.555Z" fill="url(#paint24_linear_590_9355)"/>
<path d="M125.821 633.878C123.304 634.301 123.135 636.82 122.746 638.849C122.054 642.416 120.229 645.256 121.057 648.941C121.766 652.052 123.996 654.216 126.767 655.89C130.314 658.037 134.42 659.22 138.44 660.353C140.974 661.08 144.082 662.483 146.566 661.097C148.069 660.251 148.525 658.73 149.319 657.242C150.113 655.754 150.823 653.76 151.465 652.17C152.09 650.581 152.867 648.958 152.546 647.302C152.225 645.645 151.144 644.867 150.012 643.819C149.725 643.548 149.37 643.379 149.066 643.143L131.649 634.554C130.23 634.064 128.794 633.861 127.307 633.929C126.801 633.946 126.294 633.811 125.821 633.878Z" fill="#4730A2"/>
<path d="M204.966 667.403C205.051 668.366 205.237 669.448 205.946 670.175C206.808 671.071 208.261 671.257 209.443 671.342C210.98 671.46 212.535 671.342 214.072 671.342C216.133 671.375 218.177 671.714 220.238 671.714C223.245 671.714 226.319 671.156 229.191 670.243C230.019 669.989 231.066 669.719 231.438 668.84C231.996 667.521 230.982 666.016 230.931 664.681C230.796 661.553 231.996 658.442 231.59 655.315C231.235 652.525 229.276 651.19 226.911 650.869C226.911 650.869 222.299 651.646 218.802 651.748C215.305 651.849 207.973 652.931 207.973 652.931C207.027 652.847 206.132 652.948 205.507 653.54C203.97 654.96 204.764 658.442 204.949 660.218C205.186 662.601 204.781 664.985 204.983 667.369L204.966 667.403Z" fill="#4730A2"/>
<path d="M204.966 667.403C205.051 668.366 205.237 669.448 205.946 670.175C206.808 671.071 208.261 671.257 209.443 671.342C210.98 671.46 212.535 671.342 214.072 671.342C216.133 671.375 218.177 671.714 220.238 671.714C223.245 671.714 226.319 671.156 229.191 670.243C230.019 669.989 231.066 669.719 231.438 668.84C231.996 667.521 230.982 666.016 230.931 664.681C230.796 661.553 231.996 658.442 231.59 655.315C231.235 652.525 229.276 651.19 226.911 650.869C226.911 650.869 222.299 651.646 218.802 651.748C215.305 651.849 207.973 652.931 207.973 652.931C207.027 652.847 206.132 652.948 205.507 653.54C203.97 654.96 204.764 658.442 204.949 660.218C205.186 662.601 204.781 664.985 204.983 667.369L204.966 667.403Z" fill="url(#paint25_linear_590_9355)"/>
<path style="mix-blend-mode:overlay" opacity="0.5" d="M275.478 539.932C326.671 539.932 368.172 498.401 368.172 447.17C368.172 395.938 326.671 354.407 275.478 354.407C224.285 354.407 182.785 395.938 182.785 447.17C182.785 498.401 224.285 539.932 275.478 539.932Z" fill="url(#paint26_radial_590_9355)"/>
<path d="M273.891 481.083C283.071 481.083 290.514 467.845 290.514 451.515C290.514 435.184 283.071 421.946 273.891 421.946C264.71 421.946 257.268 435.184 257.268 451.515C257.268 467.845 264.71 481.083 273.891 481.083Z" stroke="url(#paint27_linear_590_9355)" stroke-width="0.75" stroke-miterlimit="10"/>
<path d="M273.891 495.216C287.457 495.216 298.454 475.65 298.454 451.515C298.454 427.379 287.457 407.813 273.891 407.813C260.325 407.813 249.328 427.379 249.328 451.515C249.328 475.65 260.325 495.216 273.891 495.216Z" stroke="url(#paint28_linear_590_9355)" stroke-width="0.75" stroke-miterlimit="10"/>
<path d="M273.891 517.836C289.695 517.836 302.508 488.143 302.508 451.515C302.508 414.886 289.695 385.193 273.891 385.193C258.086 385.193 245.273 414.886 245.273 451.515C245.273 488.143 258.086 517.836 273.891 517.836Z" stroke="url(#paint29_linear_590_9355)" stroke-width="0.75" stroke-miterlimit="10"/>
</g>
<defs>
<linearGradient id="paint0_linear_590_9355" x1="498.672" y1="704.68" x2="638.024" y2="706.959" gradientUnits="userSpaceOnUse">
<stop stop-color="#141A67" stop-opacity="0.8"/>
<stop offset="1" stop-color="#141A67" stop-opacity="0"/>
</linearGradient>
<linearGradient id="paint1_linear_590_9355" x1="211.267" y1="240.529" x2="619.256" y2="240.529" gradientUnits="userSpaceOnUse">
<stop stop-color="#D395F0"/>
<stop offset="1" stop-color="#47789A"/>
</linearGradient>
<linearGradient id="paint2_linear_590_9355" x1="465.054" y1="73.6685" x2="225.553" y2="267.269" gradientUnits="userSpaceOnUse">
<stop stop-color="#D395F0"/>
<stop offset="1" stop-color="#47789A"/>
</linearGradient>
<linearGradient id="paint3_linear_590_9355" x1="533.353" y1="167.242" x2="373.6" y2="296.387" gradientUnits="userSpaceOnUse">
<stop stop-color="#D395F0"/>
<stop offset="1" stop-color="#47789A"/>
</linearGradient>
<linearGradient id="paint4_linear_590_9355" x1="776.802" y1="297.57" x2="617.05" y2="426.715" gradientUnits="userSpaceOnUse">
<stop stop-color="#D395F0"/>
<stop offset="1" stop-color="#47789A"/>
</linearGradient>
<linearGradient id="paint5_linear_590_9355" x1="670.831" y1="420.881" x2="511.062" y2="550.027" gradientUnits="userSpaceOnUse">
<stop stop-color="#D395F0"/>
<stop offset="1" stop-color="#47789A"/>
</linearGradient>
<linearGradient id="paint6_linear_590_9355" x1="279.364" y1="250.757" x2="968" y2="250.757" gradientUnits="userSpaceOnUse">
<stop stop-color="#D395F0"/>
<stop offset="1" stop-color="#47789A"/>
</linearGradient>
<linearGradient id="paint7_linear_590_9355" x1="280.411" y1="429.486" x2="897.132" y2="429.486" gradientUnits="userSpaceOnUse">
<stop stop-color="#D395F0"/>
<stop offset="1" stop-color="#47789A"/>
</linearGradient>
<linearGradient id="paint8_linear_590_9355" x1="281.238" y1="499.646" x2="901.17" y2="499.646" gradientUnits="userSpaceOnUse">
<stop stop-color="#D395F0"/>
<stop offset="1" stop-color="#47789A"/>
</linearGradient>
<linearGradient id="paint9_linear_590_9355" x1="484.599" y1="725.147" x2="391.556" y2="494.566" gradientUnits="userSpaceOnUse">
<stop stop-color="#A24CFF"/>
<stop offset="0.06" stop-color="#8A48FF"/>
<stop offset="0.16" stop-color="#6B44FF"/>
<stop offset="0.27" stop-color="#5141FF"/>
<stop offset="0.39" stop-color="#3E3FFF"/>
<stop offset="0.52" stop-color="#303DFF"/>
<stop offset="0.69" stop-color="#283CFF"/>
<stop offset="1" stop-color="#263CFF"/>
</linearGradient>
<linearGradient id="paint10_linear_590_9355" x1="413.926" y1="286.793" x2="234.112" y2="516.359" gradientUnits="userSpaceOnUse">
<stop stop-color="#A24CFF"/>
<stop offset="0.06" stop-color="#8A48FF"/>
<stop offset="0.16" stop-color="#6B44FF"/>
<stop offset="0.27" stop-color="#5141FF"/>
<stop offset="0.39" stop-color="#3E3FFF"/>
<stop offset="0.52" stop-color="#303DFF"/>
<stop offset="0.69" stop-color="#283CFF"/>
<stop offset="1" stop-color="#263CFF"/>
</linearGradient>
<linearGradient id="paint11_linear_590_9355" x1="372.154" y1="334.095" x2="461.156" y2="559.409" gradientUnits="userSpaceOnUse">
<stop stop-color="#A24CFF"/>
<stop offset="0.05" stop-color="#914AFF"/>
<stop offset="0.15" stop-color="#7146FF"/>
<stop offset="0.27" stop-color="#5742FF"/>
<stop offset="0.4" stop-color="#4240FF"/>
<stop offset="0.55" stop-color="#343EFF"/>
<stop offset="0.72" stop-color="#2B3DFF"/>
<stop offset="1" stop-color="#293DFF"/>
</linearGradient>
<linearGradient id="paint12_linear_590_9355" x1="342.941" y1="312.318" x2="448.486" y2="268.676" gradientUnits="userSpaceOnUse">
<stop stop-color="#A24CFF"/>
<stop offset="0.06" stop-color="#8A48FF"/>
<stop offset="0.16" stop-color="#6B44FF"/>
<stop offset="0.27" stop-color="#5141FF"/>
<stop offset="0.39" stop-color="#3E3FFF"/>
<stop offset="0.52" stop-color="#303DFF"/>
<stop offset="0.69" stop-color="#283CFF"/>
<stop offset="1" stop-color="#263CFF"/>
</linearGradient>
<linearGradient id="paint13_linear_590_9355" x1="394.71" y1="363.433" x2="438.452" y2="528.633" gradientUnits="userSpaceOnUse">
<stop stop-color="#A24CFF"/>
<stop offset="0.06" stop-color="#8A48FF"/>
<stop offset="0.16" stop-color="#6B44FF"/>
<stop offset="0.27" stop-color="#5141FF"/>
<stop offset="0.39" stop-color="#3E3FFF"/>
<stop offset="0.52" stop-color="#303DFF"/>
<stop offset="0.69" stop-color="#283CFF"/>
<stop offset="1" stop-color="#263CFF"/>
</linearGradient>
<linearGradient id="paint14_linear_590_9355" x1="290.535" y1="371.603" x2="379.537" y2="596.918" gradientUnits="userSpaceOnUse">
<stop stop-color="#A24CFF"/>
<stop offset="0.06" stop-color="#8A48FF"/>
<stop offset="0.16" stop-color="#6B44FF"/>
<stop offset="0.27" stop-color="#5141FF"/>
<stop offset="0.39" stop-color="#3E3FFF"/>
<stop offset="0.52" stop-color="#303DFF"/>
<stop offset="0.69" stop-color="#283CFF"/>
<stop offset="1" stop-color="#263CFF"/>
</linearGradient>
<linearGradient id="paint15_linear_590_9355" x1="340.335" y1="327.369" x2="432.338" y2="309.831" gradientUnits="userSpaceOnUse">
<stop stop-color="#A24CFF"/>
<stop offset="0.06" stop-color="#8A48FF"/>
<stop offset="0.16" stop-color="#6B44FF"/>
<stop offset="0.27" stop-color="#5141FF"/>
<stop offset="0.39" stop-color="#3E3FFF"/>
<stop offset="0.52" stop-color="#303DFF"/>
<stop offset="0.69" stop-color="#283CFF"/>
<stop offset="1" stop-color="#263CFF"/>
</linearGradient>
<linearGradient id="paint16_linear_590_9355" x1="213.903" y1="704.325" x2="72.8608" y2="702.012" gradientUnits="userSpaceOnUse">
<stop stop-color="#141A67"/>
<stop offset="0.22" stop-color="#141A67" stop-opacity="0.5"/>
<stop offset="1" stop-color="#141A67" stop-opacity="0"/>
</linearGradient>
<linearGradient id="paint17_linear_590_9355" x1="247.841" y1="670.547" x2="223.418" y2="687.841" gradientUnits="userSpaceOnUse">
<stop stop-color="#D395F0"/>
<stop offset="1" stop-color="#D498F0" stop-opacity="0"/>
</linearGradient>
<linearGradient id="paint18_linear_590_9355" x1="240.864" y1="554.488" x2="225.405" y2="558.202" gradientUnits="userSpaceOnUse">
<stop stop-color="#D395F0"/>
<stop offset="1" stop-color="#D498F0" stop-opacity="0"/>
</linearGradient>
<linearGradient id="paint19_linear_590_9355" x1="111.58" y1="657.783" x2="135.273" y2="671.783" gradientUnits="userSpaceOnUse">
<stop stop-color="#77D2C4"/>
<stop offset="1" stop-color="white" stop-opacity="0"/>
</linearGradient>
<linearGradient id="paint20_linear_590_9355" x1="136.48" y1="556.804" x2="167.059" y2="562.679" gradientUnits="userSpaceOnUse">
<stop stop-color="#00007D"/>
<stop offset="1" stop-color="white" stop-opacity="0"/>
</linearGradient>
<linearGradient id="paint21_linear_590_9355" x1="242.013" y1="410.129" x2="220.846" y2="411.53" gradientUnits="userSpaceOnUse">
<stop stop-color="#D395F0"/>
<stop offset="1" stop-color="#D498F0" stop-opacity="0"/>
</linearGradient>
<linearGradient id="paint22_linear_590_9355" x1="233.11" y1="399.225" x2="203.866" y2="404.981" gradientUnits="userSpaceOnUse">
<stop stop-color="#D395F0"/>
<stop offset="1" stop-color="#D498F0" stop-opacity="0"/>
</linearGradient>
<linearGradient id="paint23_linear_590_9355" x1="253.466" y1="350.671" x2="195.168" y2="349.034" gradientUnits="userSpaceOnUse">
<stop stop-color="#D395F0"/>
<stop offset="1" stop-color="#D498F0" stop-opacity="0"/>
</linearGradient>
<linearGradient id="paint24_linear_590_9355" x1="127.274" y1="566.238" x2="221.814" y2="548.208" gradientUnits="userSpaceOnUse">
<stop stop-color="#D395F0"/>
<stop offset="1" stop-color="#47789A"/>
</linearGradient>
<linearGradient id="paint25_linear_590_9355" x1="237.283" y1="657.175" x2="219.358" y2="661.344" gradientUnits="userSpaceOnUse">
<stop stop-color="#D395F0"/>
<stop offset="1" stop-color="#D498F0" stop-opacity="0"/>
</linearGradient>
<radialGradient id="paint26_radial_590_9355" cx="0" cy="0" r="1" gradientUnits="userSpaceOnUse" gradientTransform="translate(275.478 447.17) scale(92.6933 92.7625)">
<stop stop-color="#E8B8B7" stop-opacity="0.8"/>
<stop offset="1" stop-color="white" stop-opacity="0"/>
</radialGradient>
<linearGradient id="paint27_linear_590_9355" x1="256.643" y1="451.515" x2="291.155" y2="451.515" gradientUnits="userSpaceOnUse">
<stop stop-color="#D395F0"/>
<stop offset="1" stop-color="#47789A"/>
</linearGradient>
<linearGradient id="paint28_linear_590_9355" x1="248.686" y1="451.515" x2="299.096" y2="451.515" gradientUnits="userSpaceOnUse">
<stop stop-color="#D395F0"/>
<stop offset="1" stop-color="#47789A"/>
</linearGradient>
<linearGradient id="paint29_linear_590_9355" x1="244.631" y1="451.515" x2="303.15" y2="451.515" gradientUnits="userSpaceOnUse">
<stop stop-color="#D395F0"/>
<stop offset="1" stop-color="#47789A"/>
</linearGradient>
<clipPath id="clip0_590_9355">
<rect width="968" height="715" fill="white" transform="translate(0 0.871704)"/>
</clipPath>
</defs>
</svg>
