<svg width="79" height="79" viewBox="0 0 79 79" fill="none" xmlns="http://www.w3.org/2000/svg">
<g filter="url(#filter0_d_583_7528)">
<circle cx="39.1084" cy="31.5" r="19" fill="#00D4C6"/>
<path fill-rule="evenodd" clip-rule="evenodd" d="M35.6251 24.2961C32.9518 25.5911 31.1084 28.3303 31.1084 31.5C31.1084 31.6969 31.1155 31.8921 31.1295 32.0854L37.2713 30.4398L35.6251 24.2961ZM38.5232 23.5211L40.2985 30.1463L40.3101 30.1896C40.3601 30.3754 40.4306 30.6373 40.4616 30.8775C40.5006 31.1802 40.5098 31.659 40.2281 32.1469C39.9464 32.6348 39.5272 32.8662 39.2455 32.9838C39.022 33.0771 38.7599 33.147 38.5741 33.1965L38.5307 33.2081L31.9047 34.9836C33.1997 37.6567 35.9388 39.5 39.1084 39.5C43.5267 39.5 47.1084 35.9183 47.1084 31.5C47.1084 27.0817 43.5267 23.5 39.1084 23.5C38.9116 23.5 38.7165 23.5071 38.5232 23.5211Z" fill="white"/>
<path d="M37.0378 23.7726C36.7869 22.836 36.6614 22.3677 36.2292 22.1729C35.7971 21.978 35.4156 22.1678 34.6528 22.5475C34.0787 22.8332 33.532 23.1742 33.0208 23.5665C31.9789 24.3659 31.1048 25.3627 30.4481 26.5C29.7915 27.6373 29.3654 28.8928 29.1939 30.1947C29.1098 30.8336 29.0879 31.4775 29.1275 32.1176C29.1801 32.9681 29.2064 33.3933 29.5913 33.6701C29.9761 33.947 30.4444 33.8215 31.381 33.5706L37.1765 32.0176C38.0872 31.7736 38.5426 31.6516 38.7497 31.2929C38.9568 30.9342 38.8348 30.4788 38.5908 29.5681L37.0378 23.7726Z" fill="white"/>
</g>
<defs>
<filter id="filter0_d_583_7528" x="0.108398" y="0.5" width="78" height="78" filterUnits="userSpaceOnUse" color-interpolation-filters="sRGB">
<feFlood flood-opacity="0" result="BackgroundImageFix"/>
<feColorMatrix in="SourceAlpha" type="matrix" values="0 0 0 0 0 0 0 0 0 0 0 0 0 0 0 0 0 0 127 0" result="hardAlpha"/>
<feOffset dy="8"/>
<feGaussianBlur stdDeviation="10"/>
<feComposite in2="hardAlpha" operator="out"/>
<feColorMatrix type="matrix" values="0 0 0 0 0.2 0 0 0 0 0.827451 0 0 0 0 0.831373 0 0 0 0.3 0"/>
<feBlend mode="normal" in2="BackgroundImageFix" result="effect1_dropShadow_583_7528"/>
<feBlend mode="normal" in="SourceGraphic" in2="effect1_dropShadow_583_7528" result="shape"/>
</filter>
</defs>
</svg>
