<svg width="79" height="79" viewBox="0 0 79 79" fill="none" xmlns="http://www.w3.org/2000/svg">
<g filter="url(#filter0_d_590_9504)">
<circle cx="39.0723" cy="31.1742" r="19" fill="#33D3D4"/>
<path d="M51.795 38.0707L52.7534 37.7856L52.7534 37.7856L51.795 38.0707ZM42.7578 34.9251L42.0604 34.2085L41.3226 34.9265L42.0618 35.6431L42.7578 34.9251ZM44.3822 38.183L45.3662 38.0045L45.3662 38.0045L44.3822 38.183ZM50.9123 38.1742H43.4892V40.1742H50.9123V38.1742ZM50.8365 38.3559C50.8322 38.3415 50.8285 38.3131 50.8358 38.2786C50.8427 38.246 50.8566 38.2212 50.8699 38.205C50.8958 38.1733 50.9179 38.1742 50.9123 38.1742V40.1742C52.0796 40.1742 53.1441 39.0987 52.7534 37.7856L50.8365 38.3559ZM46.3784 34.5075C47.8425 34.5075 48.8144 35.0922 49.4958 35.8429C50.2034 36.6226 50.613 37.6046 50.8365 38.3559L52.7534 37.7856C52.4865 36.8883 51.9658 35.5886 50.9768 34.4988C49.9615 33.3801 48.4704 32.5075 46.3784 32.5075V34.5075ZM43.4552 35.6418C44.119 34.9958 45.0396 34.5075 46.3784 34.5075V32.5075C44.4797 32.5075 43.0687 33.2272 42.0604 34.2085L43.4552 35.6418ZM42.0618 35.6431C42.8938 36.4497 43.2517 37.5533 43.3983 38.3615L45.3662 38.0045C45.1856 37.0093 44.7158 35.4305 43.4539 34.2071L42.0618 35.6431ZM43.3983 38.3615C43.3948 38.3422 43.3946 38.3112 43.4051 38.2766C43.4151 38.2435 43.4313 38.2189 43.446 38.2029C43.4743 38.1724 43.495 38.1742 43.4892 38.1742V40.1742C44.5562 40.1742 45.5947 39.2645 45.3662 38.0045L43.3983 38.3615Z" fill="white"/>
<path d="M34.8882 34.9249L35.5842 35.643L36.3235 34.9263L35.5856 34.2083L34.8882 34.9249ZM25.8511 38.0707L24.8927 37.7855L25.8511 38.0707ZM33.2636 38.183L32.2797 38.0045V38.0045L33.2636 38.183ZM31.2677 34.5075C32.6065 34.5075 33.5271 34.9957 34.1908 35.6416L35.5856 34.2083C34.5773 33.2271 33.1663 32.5075 31.2677 32.5075V34.5075ZM26.8096 38.3559C27.0332 37.6045 27.4428 36.6226 28.1504 35.8429C28.8317 35.0922 29.8037 34.5075 31.2677 34.5075V32.5075C29.1758 32.5075 27.6847 33.3801 26.6694 34.4988C25.6803 35.5886 25.1597 36.8882 24.8927 37.7855L26.8096 38.3559ZM26.7338 38.1741C26.7282 38.1741 26.7503 38.1733 26.7762 38.205C26.7895 38.2212 26.8034 38.246 26.8103 38.2785C26.8176 38.313 26.8139 38.3415 26.8096 38.3559L24.8927 37.7855C24.502 39.0987 25.5665 40.1741 26.7338 40.1741V38.1741ZM34.1567 38.1741H26.7338V40.1741H34.1567V38.1741ZM34.1567 38.1741C34.1508 38.1741 34.1716 38.1724 34.1998 38.2029C34.2146 38.2188 34.2307 38.2435 34.2408 38.2765C34.2513 38.3112 34.2511 38.3422 34.2476 38.3615L32.2797 38.0045C32.0511 39.2644 33.0897 40.1741 34.1567 40.1741V38.1741ZM34.2476 38.3615C34.3942 37.5533 34.7521 36.4496 35.5842 35.643L34.1922 34.2069C32.9301 35.4303 32.4603 37.0092 32.2797 38.0045L34.2476 38.3615Z" fill="white"/>
<path d="M38.8229 33.5074C42.9809 33.5074 44.0879 36.5584 44.3826 38.183C44.4812 38.7264 44.0419 39.1741 43.4896 39.1741H34.1562C33.604 39.1741 33.1646 38.7264 33.2632 38.183C33.5579 36.5584 34.6649 33.5074 38.8229 33.5074Z" stroke="white" stroke-width="2" stroke-linecap="round"/>
<circle cx="38.8227" cy="25.9519" r="3.77778" fill="white"/>
<circle cx="46.3784" cy="25.9519" r="3.77778" fill="white"/>
<circle cx="31.267" cy="25.9519" r="3.77778" fill="white"/>
</g>
<defs>
<filter id="filter0_d_590_9504" x="0.0722656" y="0.174194" width="78" height="78" filterUnits="userSpaceOnUse" color-interpolation-filters="sRGB">
<feFlood flood-opacity="0" result="BackgroundImageFix"/>
<feColorMatrix in="SourceAlpha" type="matrix" values="0 0 0 0 0 0 0 0 0 0 0 0 0 0 0 0 0 0 127 0" result="hardAlpha"/>
<feOffset dy="8"/>
<feGaussianBlur stdDeviation="10"/>
<feComposite in2="hardAlpha" operator="out"/>
<feColorMatrix type="matrix" values="0 0 0 0 0.2 0 0 0 0 0.827451 0 0 0 0 0.831373 0 0 0 0.3 0"/>
<feBlend mode="normal" in2="BackgroundImageFix" result="effect1_dropShadow_590_9504"/>
<feBlend mode="normal" in="SourceGraphic" in2="effect1_dropShadow_590_9504" result="shape"/>
</filter>
</defs>
</svg>
