<svg width="79" height="79" viewBox="0 0 79 79" fill="none" xmlns="http://www.w3.org/2000/svg">
<g filter="url(#filter0_d_583_7520)">
<circle cx="39.0352" cy="31.5002" r="19" fill="#00D4C6"/>
<path d="M34.8852 40.5002H31.0352C30.4829 40.5002 30.0352 40.0525 30.0352 39.5002V31.5002C30.0352 30.948 30.4829 30.5002 31.0352 30.5002H34.8852C34.968 30.5002 35.0352 30.5674 35.0352 30.6502V40.3502C35.0352 40.4331 34.968 40.5002 34.8852 40.5002Z" stroke="white" stroke-width="2" stroke-linecap="round"/>
<path d="M35.0352 30.5002L37.5244 26.8998C37.6399 26.7326 37.7018 26.5343 37.7018 26.3311V22.5002C37.7018 21.948 38.1495 21.5002 38.7018 21.5002H41.0352C42.1397 21.5002 43.0352 22.3957 43.0352 23.5002V30.5002" stroke="white" stroke-width="2" stroke-linecap="round"/>
<path d="M40.1261 30.5002H46.7904C47.9861 30.5002 48.9146 31.5424 48.7772 32.7301L47.9672 39.7301C47.8505 40.739 46.9961 41.5002 45.9805 41.5002H40.5285C40.2703 41.5002 40.0221 41.4004 39.8358 41.2215L39.1436 40.5567C38.9573 40.3779 38.7091 40.278 38.4509 40.278H35.0352" stroke="white" stroke-width="2" stroke-linecap="round"/>
</g>
<defs>
<filter id="filter0_d_583_7520" x="0.0351562" y="0.500244" width="78" height="78" filterUnits="userSpaceOnUse" color-interpolation-filters="sRGB">
<feFlood flood-opacity="0" result="BackgroundImageFix"/>
<feColorMatrix in="SourceAlpha" type="matrix" values="0 0 0 0 0 0 0 0 0 0 0 0 0 0 0 0 0 0 127 0" result="hardAlpha"/>
<feOffset dy="8"/>
<feGaussianBlur stdDeviation="10"/>
<feComposite in2="hardAlpha" operator="out"/>
<feColorMatrix type="matrix" values="0 0 0 0 0.2 0 0 0 0 0.827451 0 0 0 0 0.831373 0 0 0 0.3 0"/>
<feBlend mode="normal" in2="BackgroundImageFix" result="effect1_dropShadow_583_7520"/>
<feBlend mode="normal" in="SourceGraphic" in2="effect1_dropShadow_583_7520" result="shape"/>
</filter>
</defs>
</svg>
