<svg width="79" height="79" viewBox="0 0 79 79" fill="none" xmlns="http://www.w3.org/2000/svg">
<g filter="url(#filter0_d_590_9517)">
<circle cx="39.1084" cy="31.1742" r="19" fill="#33D3D4"/>
<path d="M42.1084 24.1742V30.8714C42.1084 31.0688 42.1668 31.2619 42.2763 31.4261L47.0719 38.6195C47.515 39.284 47.0386 40.1742 46.2399 40.1742H31.9769C31.1782 40.1742 30.7018 39.284 31.1449 38.6195L35.9404 31.4261C36.05 31.2619 36.1084 31.0688 36.1084 30.8714V24.1742" stroke="white" stroke-width="2" stroke-linejoin="round"/>
<path d="M44.0084 37.3742L41.9084 34.5742C41.7195 34.3224 41.4232 34.1742 41.1084 34.1742H37.1084C36.7936 34.1742 36.4973 34.3224 36.3084 34.5742L34.2084 37.3742C33.9612 37.7038 34.1964 38.1742 34.6084 38.1742H43.6084C44.0204 38.1742 44.2556 37.7038 44.0084 37.3742Z" fill="white"/>
<path d="M34.1084 24.1742H44.1084" stroke="white" stroke-width="2" stroke-linecap="round" stroke-linejoin="round"/>
</g>
<defs>
<filter id="filter0_d_590_9517" x="0.108398" y="0.174194" width="78" height="78" filterUnits="userSpaceOnUse" color-interpolation-filters="sRGB">
<feFlood flood-opacity="0" result="BackgroundImageFix"/>
<feColorMatrix in="SourceAlpha" type="matrix" values="0 0 0 0 0 0 0 0 0 0 0 0 0 0 0 0 0 0 127 0" result="hardAlpha"/>
<feOffset dy="8"/>
<feGaussianBlur stdDeviation="10"/>
<feComposite in2="hardAlpha" operator="out"/>
<feColorMatrix type="matrix" values="0 0 0 0 0.2 0 0 0 0 0.827451 0 0 0 0 0.831373 0 0 0 0.3 0"/>
<feBlend mode="normal" in2="BackgroundImageFix" result="effect1_dropShadow_590_9517"/>
<feBlend mode="normal" in="SourceGraphic" in2="effect1_dropShadow_590_9517" result="shape"/>
</filter>
</defs>
</svg>
