<svg width="79" height="79" viewBox="0 0 79 79" fill="none" xmlns="http://www.w3.org/2000/svg">
<g filter="url(#filter0_d_587_7565)">
<ellipse cx="39.6154" cy="31.1742" rx="18.7912" ry="19" fill="#33D3D4"/>
<path d="M35.701 28.008C35.701 26.7547 34.0524 26.4225 33.615 27.5952C32.557 30.4318 31.7861 32.9693 31.7861 34.3412C31.7861 38.7135 35.2916 42.2579 39.6158 42.2579C43.94 42.2579 47.4455 38.7135 47.4455 34.3412C47.4455 32.8673 46.5557 30.0479 45.376 26.9578C43.8479 22.9548 43.0838 20.9533 42.1406 20.8455C41.8388 20.811 41.5096 20.873 41.2403 21.0151C40.3988 21.4591 40.3988 23.642 40.3988 28.008C40.3988 29.3197 39.3471 30.383 38.0499 30.383C36.7526 30.383 35.701 29.3197 35.701 28.008Z" fill="white"/>
</g>
<defs>
<filter id="filter0_d_587_7565" x="0.824219" y="0.174194" width="77.582" height="78" filterUnits="userSpaceOnUse" color-interpolation-filters="sRGB">
<feFlood flood-opacity="0" result="BackgroundImageFix"/>
<feColorMatrix in="SourceAlpha" type="matrix" values="0 0 0 0 0 0 0 0 0 0 0 0 0 0 0 0 0 0 127 0" result="hardAlpha"/>
<feOffset dy="8"/>
<feGaussianBlur stdDeviation="10"/>
<feComposite in2="hardAlpha" operator="out"/>
<feColorMatrix type="matrix" values="0 0 0 0 0.2 0 0 0 0 0.827451 0 0 0 0 0.831373 0 0 0 0.3 0"/>
<feBlend mode="normal" in2="BackgroundImageFix" result="effect1_dropShadow_587_7565"/>
<feBlend mode="normal" in="SourceGraphic" in2="effect1_dropShadow_587_7565" result="shape"/>
</filter>
</defs>
</svg>
