<svg width="79" height="79" viewBox="0 0 79 79" fill="none" xmlns="http://www.w3.org/2000/svg">
<g filter="url(#filter0_d_590_9606)">
<circle cx="39.5117" cy="31.8912" r="19" fill="#33D3D4"/>
<path d="M34.5117 30.8912C34.5117 29.0056 34.5117 28.0628 35.0975 27.477C35.6833 26.8912 36.6261 26.8912 38.5117 26.8912H40.5117C42.3973 26.8912 43.3401 26.8912 43.9259 27.477C44.5117 28.0628 44.5117 29.0056 44.5117 30.8912V32.8912C44.5117 34.7769 44.5117 35.7197 43.9259 36.3054C43.3401 36.8912 42.3973 36.8912 40.5117 36.8912H38.5117C36.6261 36.8912 35.6833 36.8912 35.0975 36.3054C34.5117 35.7197 34.5117 34.7769 34.5117 32.8912V30.8912Z" stroke="white" stroke-width="2"/>
<rect x="37.5117" y="29.8912" width="4" height="4" rx="1" fill="white"/>
<path d="M37.5117 26.8912V23.8912" stroke="white" stroke-width="2" stroke-linecap="round"/>
<path d="M41.5117 26.8912V23.8912" stroke="white" stroke-width="2" stroke-linecap="round"/>
<path d="M44.5117 29.8912L47.5117 29.8912" stroke="white" stroke-width="2" stroke-linecap="round"/>
<path d="M44.5117 33.8912L47.5117 33.8912" stroke="white" stroke-width="2" stroke-linecap="round"/>
<path d="M37.5117 39.8912V36.8912" stroke="white" stroke-width="2" stroke-linecap="round"/>
<path d="M41.5117 39.8912V36.8912" stroke="white" stroke-width="2" stroke-linecap="round"/>
<path d="M31.5117 29.8912L34.5117 29.8912" stroke="white" stroke-width="2" stroke-linecap="round"/>
<path d="M31.5117 33.8912L34.5117 33.8912" stroke="white" stroke-width="2" stroke-linecap="round"/>
</g>
<defs>
<filter id="filter0_d_590_9606" x="0.511719" y="0.891235" width="78" height="78" filterUnits="userSpaceOnUse" color-interpolation-filters="sRGB">
<feFlood flood-opacity="0" result="BackgroundImageFix"/>
<feColorMatrix in="SourceAlpha" type="matrix" values="0 0 0 0 0 0 0 0 0 0 0 0 0 0 0 0 0 0 127 0" result="hardAlpha"/>
<feOffset dy="8"/>
<feGaussianBlur stdDeviation="10"/>
<feComposite in2="hardAlpha" operator="out"/>
<feColorMatrix type="matrix" values="0 0 0 0 0.2 0 0 0 0 0.827451 0 0 0 0 0.831373 0 0 0 0.3 0"/>
<feBlend mode="normal" in2="BackgroundImageFix" result="effect1_dropShadow_590_9606"/>
<feBlend mode="normal" in="SourceGraphic" in2="effect1_dropShadow_590_9606" result="shape"/>
</filter>
</defs>
</svg>
