<svg width="79" height="79" viewBox="0 0 79 79" fill="none" xmlns="http://www.w3.org/2000/svg">
<g filter="url(#filter0_d_590_9593)">
<circle cx="39.2559" cy="31.8912" r="19" fill="#33D3D4"/>
<circle cx="36.2559" cy="28.8912" r="3" stroke="white" stroke-width="2" stroke-linecap="round"/>
<path d="M39.5238 28.8912C39.789 28.4319 40.2259 28.0967 40.7382 27.9594C41.2506 27.8221 41.7965 27.894 42.2559 28.1592C42.7152 28.4244 43.0504 28.8612 43.1877 29.3736C43.325 29.886 43.2531 30.4319 42.9879 30.8912C42.7227 31.3506 42.2859 31.6858 41.7735 31.8231C41.2611 31.9604 40.7152 31.8885 40.2559 31.6233C39.7965 31.3581 39.4613 30.9212 39.324 30.4089C39.1867 29.8965 39.2586 29.3506 39.5238 28.8912L39.5238 28.8912Z" stroke="white" stroke-width="2"/>
<path d="M41.1379 38.8912L40.1576 39.0887L40.3192 39.8912H41.1379V38.8912ZM44.9765 37.7954L45.919 37.4611L44.9765 37.7954ZM39.0371 35.6018L38.4323 34.8054L37.2757 35.6839L38.509 36.4509L39.0371 35.6018ZM44.1235 37.8912H41.1379V39.8912H44.1235V37.8912ZM44.034 38.1297C44.027 38.1098 44.0205 38.0722 44.0288 38.0266C44.0367 37.9834 44.0545 37.9506 44.0714 37.9295C44.1037 37.8894 44.1303 37.8912 44.1235 37.8912V39.8912C45.2695 39.8912 46.3976 38.8107 45.919 37.4611L44.034 38.1297ZM41.2563 35.8912C42.8979 35.8912 43.659 37.0723 44.034 38.1297L45.919 37.4611C45.4539 36.15 44.2048 33.8912 41.2563 33.8912V35.8912ZM39.642 36.3981C40.0264 36.1061 40.5383 35.8912 41.2563 35.8912V33.8912C40.0944 33.8912 39.1591 34.2534 38.4323 34.8054L39.642 36.3981ZM38.509 36.4509C39.5481 37.0972 39.9834 38.2236 40.1576 39.0887L42.1182 38.6938C41.9003 37.6116 41.2937 35.8276 39.5652 34.7526L38.509 36.4509Z" fill="white"/>
<path d="M36.2559 34.8912C39.8274 34.8912 40.8478 37.4424 41.1393 38.9001C41.2476 39.4417 40.8081 39.8912 40.2559 39.8912H32.2559C31.7036 39.8912 31.2641 39.4417 31.3725 38.9001C31.664 37.4424 32.6843 34.8912 36.2559 34.8912Z" stroke="white" stroke-width="2" stroke-linecap="round"/>
<path d="M46.2559 22.8912V26.8912" stroke="white" stroke-width="2" stroke-linecap="round"/>
<path d="M48.2559 24.8912L44.2559 24.8912" stroke="white" stroke-width="2" stroke-linecap="round"/>
</g>
<defs>
<filter id="filter0_d_590_9593" x="0.255859" y="0.891235" width="78" height="78" filterUnits="userSpaceOnUse" color-interpolation-filters="sRGB">
<feFlood flood-opacity="0" result="BackgroundImageFix"/>
<feColorMatrix in="SourceAlpha" type="matrix" values="0 0 0 0 0 0 0 0 0 0 0 0 0 0 0 0 0 0 127 0" result="hardAlpha"/>
<feOffset dy="8"/>
<feGaussianBlur stdDeviation="10"/>
<feComposite in2="hardAlpha" operator="out"/>
<feColorMatrix type="matrix" values="0 0 0 0 0.2 0 0 0 0 0.827451 0 0 0 0 0.831373 0 0 0 0.3 0"/>
<feBlend mode="normal" in2="BackgroundImageFix" result="effect1_dropShadow_590_9593"/>
<feBlend mode="normal" in="SourceGraphic" in2="effect1_dropShadow_590_9593" result="shape"/>
</filter>
</defs>
</svg>
