<svg width="78" height="79" viewBox="0 0 78 79" fill="none" xmlns="http://www.w3.org/2000/svg">
<g filter="url(#filter0_d_583_7524)">
<circle cx="39" cy="31.5" r="19" fill="#00D4C6"/>
<path fill-rule="evenodd" clip-rule="evenodd" d="M53.2154 36.8341C53.2541 37.385 52.8028 37.8333 52.2505 37.8333H46.3258C45.7735 37.8333 45.3339 37.3828 45.2469 36.8374C45.0643 35.692 44.5694 34.6151 43.8125 33.7279L49.4239 28.1166C51.6515 30.506 52.9872 33.5853 53.2154 36.8341ZM48.7167 27.4095C46.2053 25.0683 42.9318 23.7125 39.5005 23.5921V31.5278C40.8292 31.6331 42.0913 32.1558 43.1054 33.0209L48.7167 27.4095ZM34.8956 33.0209C35.9096 32.1558 37.1717 31.6331 38.5005 31.5278V23.5921C35.0691 23.7125 31.7957 25.0683 29.2842 27.4095L34.8956 33.0209ZM28.5771 28.1166C26.3494 30.506 25.0138 33.5853 24.7855 36.8341C24.7468 37.385 25.1982 37.8333 25.7505 37.8333H31.6751C32.2274 37.8333 32.6671 37.3828 32.754 36.8374C32.9366 35.6921 33.4315 34.6151 34.1884 33.7279L28.5771 28.1166Z" fill="white"/>
</g>
<defs>
<filter id="filter0_d_583_7524" x="0" y="0.5" width="78" height="78" filterUnits="userSpaceOnUse" color-interpolation-filters="sRGB">
<feFlood flood-opacity="0" result="BackgroundImageFix"/>
<feColorMatrix in="SourceAlpha" type="matrix" values="0 0 0 0 0 0 0 0 0 0 0 0 0 0 0 0 0 0 127 0" result="hardAlpha"/>
<feOffset dy="8"/>
<feGaussianBlur stdDeviation="10"/>
<feComposite in2="hardAlpha" operator="out"/>
<feColorMatrix type="matrix" values="0 0 0 0 0.2 0 0 0 0 0.827451 0 0 0 0 0.831373 0 0 0 0.3 0"/>
<feBlend mode="normal" in2="BackgroundImageFix" result="effect1_dropShadow_583_7524"/>
<feBlend mode="normal" in="SourceGraphic" in2="effect1_dropShadow_583_7524" result="shape"/>
</filter>
</defs>
</svg>
