<svg fill="none" height="37" viewBox="0 0 40 37" width="40" xmlns="http://www.w3.org/2000/svg"><path d="m25.5248.175592-16.2417.000001c-1.49785 0-2.77914.902317-3.32053 2.201657l-5.450002 12.72265c-.162419.4151-.252648.8482-.252648 1.3174l.000001 3.6093c0 1.9851 1.624169 3.6093 3.609269 3.6093h11.38721l-1.7144 8.2471-.0541.5775c0 .7399.3068 1.4257.794 1.9129l1.913 1.8949 11.8925-11.8925c.6497-.6497 1.0467-1.552 1.0467-2.5446v-18.04634c0-1.9851-1.6242-3.609268-3.6093-3.609268zm0 21.655608-7.8321 7.8321 2.4182-9.6367h-16.24171v-3.6093l5.41391-12.63243 16.2417-.00001zm14.4371 0h-7.2185v-21.655609h7.2185z" fill="#fc2038"/></svg>