<svg fill="none" height="37" viewBox="0 0 40 37" width="40" xmlns="http://www.w3.org/2000/svg"><path d="m14.6969 36.3366h16.2417c1.4978 0 2.7791-.9023 3.3205-2.2016l5.45-12.7227c.1624-.4151.2527-.8482.2527-1.3174v-3.6093c0-1.9851-1.6242-3.6093-3.6093-3.6093h-11.3873l1.7144-8.24714.0542-.57748c0-.7399-.3068-1.42566-.7941-1.91292l-1.9129-1.894864-11.8925 11.892504c-.6497.6497-1.0467 1.552-1.0467 2.5446v18.0463c0 1.9851 1.6242 3.6093 3.6093 3.6093zm0-21.6556 7.8321-7.83214-2.4182 9.63674h16.2417v3.6093l-5.4139 12.6324h-16.2417zm-14.437134 0h7.218544v21.6556h-7.218544z" fill="#a5cd26"/></svg>