<svg fill="none" height="167" viewBox="0 0 446 167" width="446" xmlns="http://www.w3.org/2000/svg"><path d="m313.988 58.2613v.0015c-1.236 3.1357-4.369 5.2833-7.744 5.2833h-32.791c-.17 0-.327.0288-.475.0948-.146.0648-.265.1578-.371.2633-.001.0009-.002.0018-.003.0027l-15.54 14.9095v-14.0601c0-.3374-.114-.6458-.339-.8709-.224-.2251-.533-.3393-.87-.3393h-7.468c-4.613 0-8.32-3.7134-8.32-8.3377v-35.4389c0-4.6243 3.707-8.3377 8.32-8.3377h35.538c.338 0 .646-.1142.87-.3393.225-.2251.339-.5335.339-.8709 0-.33736-.114-.6458-.339-.87085-.224-.22511-.532-.33931-.87-.33931h-35.538c-5.946 0-10.737 4.80226-10.737 10.75806v35.4389c0 5.9558 4.791 10.7581 10.737 10.7581h6.26v15.6491c0 .2331.059.4528.187.6455.119.1785.285.3163.481.4209.11.0856.234.1154.311.1282.093.0156.182.0156.225.0156h.004c.17 0 .327-.0288.475-.0948.146-.0648.265-.1577.371-.2632.001-.0009.002-.0019.003-.0028l17.233-16.4985h32.307c4.437 0 8.428-2.7551 10.026-6.8448.251-.6312-.125-1.3371-.711-1.5716-.631-.2533-1.337.1253-1.571.7112zm.239-40.0461h-11.839v-8.68173c0-3.41857-1.051-6.04223-3.063-7.50827v-.00068c-1.633-1.181655-3.546-1.422515-5.047-1.367229-.753.027747-1.412.130323-1.894.231698-.241.050722-.44.101403-.585.142811-.073.02068-.133.03934-.18.05488-.038.01254-.088.02989-.125.04829-.427.21427-.794.66226-.794 1.17309v9.46184c0 3.759-2.158 6.2898-4.404 7.9092-2.223 1.6029-4.489 2.2792-4.681 2.3298-.334.0704-.578.3006-.721.5585-.05.0889-.089.1849-.117.2849-.816-1.2377-2.217-2.0566-3.805-2.0566h-4.807c-2.512 0-4.556 2.0498-4.556 4.5649v21.6762c0 2.5151 2.044 4.5648 4.556 4.5648h4.807c1.411 0 2.669-.6657 3.515-1.7223 1.365 1.841 3.491 3.0986 6.014 3.0986h23.091c2.507 0 4.588-.6616 6.113-1.9185 1.527-1.258 2.465-3.0851 2.732-5.3511l3.002-19.0821c.271-1.364.086-2.6313-.358-3.8776l-.004-.0109-.004-.0105c-1.171-2.707-3.871-4.512-6.846-4.512zm-32.699 7.1454c0-.3786-.046-.7467-.133-1.0988.239.1175.532.1634.819.0619.005-.0009.009-.0018.013-.0027.008-.0019.017-.004.025-.0061.031-.0076.07-.0182.116-.0314.092-.0266.218-.0659.374-.1185.311-.1054.743-.2653 1.255-.4855 1.023-.4401 2.372-1.124 3.718-2.0999 2.69-1.9504 5.402-5.0967 5.402-9.8097v-8.48972c1.166-.22216 3.222-.33199 4.769.77478l.001.00113c1.324.93657 2.084 2.77393 2.084 5.5634v9.89191c0 .3374.114.6458.338.8709.225.2251.533.3393.871.3393h13.047c2.001 0 3.767 1.2017 4.572 3.058l.007.0155.008.0148c.38.6852.467 1.5443.305 2.4344l-.001.0081-3.004 19.0957-.002.0072v.0072c-.246 2.1355-1.199 3.3926-2.39 4.1291-1.21.7476-2.703.98-4.044.98h-23.177c-2.725 0-4.973-2.2511-4.973-4.9831zm-4.556-2.1445c1.18 0 2.14.9608 2.14 2.1445v21.5902c0 1.1836-.96 2.1445-2.14 2.1445h-4.807c-1.179 0-2.139-.9609-2.139-2.1445v-21.5902c0-1.1837.96-2.1445 2.139-2.1445z" fill="#30d5c8"/><path d="m313.988 58.2613v.0015c-1.236 3.1357-4.369 5.2833-7.744 5.2833h-32.791c-.17 0-.327.0288-.475.0948-.146.0648-.265.1578-.371.2633-.001.0009-.002.0018-.003.0027l-15.54 14.9095v-14.0601c0-.3374-.114-.6458-.339-.8709-.224-.2251-.533-.3393-.87-.3393h-7.468c-4.613 0-8.32-3.7134-8.32-8.3377v-35.4389c0-4.6243 3.707-8.3377 8.32-8.3377h35.538c.338 0 .646-.1142.87-.3393.225-.2251.339-.5335.339-.8709 0-.33736-.114-.6458-.339-.87085-.224-.22511-.532-.33931-.87-.33931h-35.538c-5.946 0-10.737 4.80226-10.737 10.75806v35.4389c0 5.9558 4.791 10.7581 10.737 10.7581h6.26v15.6491c0 .2331.059.4528.187.6455.119.1785.285.3163.481.4209.11.0856.234.1154.311.1282.093.0156.182.0156.225.0156h.004c.17 0 .327-.0288.475-.0948.146-.0648.265-.1577.371-.2632.001-.0009.002-.0019.003-.0028l17.233-16.4985h32.307c4.437 0 8.428-2.7551 10.026-6.8448.251-.6312-.125-1.3371-.711-1.5716-.631-.2533-1.337.1253-1.571.7112zm.239-40.0461h-11.839v-8.68173c0-3.41857-1.051-6.04223-3.063-7.50827v-.00068c-1.633-1.181655-3.546-1.422515-5.047-1.367229-.753.027747-1.412.130323-1.894.231698-.241.050722-.44.101403-.585.142811-.073.02068-.133.03934-.18.05488-.038.01254-.088.02989-.125.04829-.427.21427-.794.66226-.794 1.17309v9.46184c0 3.759-2.158 6.2898-4.404 7.9092-2.223 1.6029-4.489 2.2792-4.681 2.3298-.334.0704-.578.3006-.721.5585-.05.0889-.089.1849-.117.2849-.816-1.2377-2.217-2.0566-3.805-2.0566h-4.807c-2.512 0-4.556 2.0498-4.556 4.5649v21.6762c0 2.5151 2.044 4.5648 4.556 4.5648h4.807c1.411 0 2.669-.6657 3.515-1.7223 1.365 1.841 3.491 3.0986 6.014 3.0986h23.091c2.507 0 4.588-.6616 6.113-1.9185 1.527-1.258 2.465-3.0851 2.732-5.3511l3.002-19.0821c.271-1.364.086-2.6313-.358-3.8776l-.004-.0109-.004-.0105c-1.171-2.707-3.871-4.512-6.846-4.512zm-32.699 7.1454c0-.3786-.046-.7467-.133-1.0988.239.1175.532.1634.819.0619.005-.0009.009-.0018.013-.0027.008-.0019.017-.004.025-.0061.031-.0076.07-.0182.116-.0314.092-.0266.218-.0659.374-.1185.311-.1054.743-.2653 1.255-.4855 1.023-.4401 2.372-1.124 3.718-2.0999 2.69-1.9504 5.402-5.0967 5.402-9.8097v-8.48972c1.166-.22216 3.222-.33199 4.769.77478l.001.00113c1.324.93657 2.084 2.77393 2.084 5.5634v9.89191c0 .3374.114.6458.338.8709.225.2251.533.3393.871.3393h13.047c2.001 0 3.767 1.2017 4.572 3.058l.007.0155.008.0148c.38.6852.467 1.5443.305 2.4344l-.001.0081-3.004 19.0957-.002.0072v.0072c-.246 2.1355-1.199 3.3926-2.39 4.1291-1.21.7476-2.703.98-4.044.98h-23.177c-2.725 0-4.973-2.2511-4.973-4.9831zm-4.556-2.1445c1.18 0 2.14.9608 2.14 2.1445v21.5902c0 1.1836-.96 2.1445-2.14 2.1445h-4.807c-1.179 0-2.139-.9609-2.139-2.1445v-21.5902c0-1.1837.96-2.1445 2.139-2.1445z" stroke="#30d5c8" stroke-width=".7"/><path d="m313.988 58.2613v.0015c-1.236 3.1357-4.369 5.2833-7.744 5.2833h-32.791c-.17 0-.327.0288-.475.0948-.146.0648-.265.1578-.371.2633-.001.0009-.002.0018-.003.0027l-15.54 14.9095v-14.0601c0-.3374-.114-.6458-.339-.8709-.224-.2251-.533-.3393-.87-.3393h-7.468c-4.613 0-8.32-3.7134-8.32-8.3377v-35.4389c0-4.6243 3.707-8.3377 8.32-8.3377h35.538c.338 0 .646-.1142.87-.3393.225-.2251.339-.5335.339-.8709 0-.33736-.114-.6458-.339-.87085-.224-.22511-.532-.33931-.87-.33931h-35.538c-5.946 0-10.737 4.80226-10.737 10.75806v35.4389c0 5.9558 4.791 10.7581 10.737 10.7581h6.26v15.6491c0 .2331.059.4528.187.6455.119.1785.285.3163.481.4209.11.0856.234.1154.311.1282.093.0156.182.0156.225.0156h.004c.17 0 .327-.0288.475-.0948.146-.0648.265-.1577.371-.2632.001-.0009.002-.0019.003-.0028l17.233-16.4985h32.307c4.437 0 8.428-2.7551 10.026-6.8448.251-.6312-.125-1.3371-.711-1.5716-.631-.2533-1.337.1253-1.571.7112zm.239-40.0461h-11.839v-8.68173c0-3.41857-1.051-6.04223-3.063-7.50827v-.00068c-1.633-1.181655-3.546-1.422515-5.047-1.367229-.753.027747-1.412.130323-1.894.231698-.241.050722-.44.101403-.585.142811-.073.02068-.133.03934-.18.05488-.038.01254-.088.02989-.125.04829-.427.21427-.794.66226-.794 1.17309v9.46184c0 3.759-2.158 6.2898-4.404 7.9092-2.223 1.6029-4.489 2.2792-4.681 2.3298-.334.0704-.578.3006-.721.5585-.05.0889-.089.1849-.117.2849-.816-1.2377-2.217-2.0566-3.805-2.0566h-4.807c-2.512 0-4.556 2.0498-4.556 4.5649v21.6762c0 2.5151 2.044 4.5648 4.556 4.5648h4.807c1.411 0 2.669-.6657 3.515-1.7223 1.365 1.841 3.491 3.0986 6.014 3.0986h23.091c2.507 0 4.588-.6616 6.113-1.9185 1.527-1.258 2.465-3.0851 2.732-5.3511l3.002-19.0821c.271-1.364.086-2.6313-.358-3.8776l-.004-.0109-.004-.0105c-1.171-2.707-3.871-4.512-6.846-4.512zm-32.699 7.1454c0-.3786-.046-.7467-.133-1.0988.239.1175.532.1634.819.0619.005-.0009.009-.0018.013-.0027.008-.0019.017-.004.025-.0061.031-.0076.07-.0182.116-.0314.092-.0266.218-.0659.374-.1185.311-.1054.743-.2653 1.255-.4855 1.023-.4401 2.372-1.124 3.718-2.0999 2.69-1.9504 5.402-5.0967 5.402-9.8097v-8.48972c1.166-.22216 3.222-.33199 4.769.77478l.001.00113c1.324.93657 2.084 2.77393 2.084 5.5634v9.89191c0 .3374.114.6458.338.8709.225.2251.533.3393.871.3393h13.047c2.001 0 3.767 1.2017 4.572 3.058l.007.0155.008.0148c.38.6852.467 1.5443.305 2.4344l-.001.0081-3.004 19.0957-.002.0072v.0072c-.246 2.1355-1.199 3.3926-2.39 4.1291-1.21.7476-2.703.98-4.044.98h-23.177c-2.725 0-4.973-2.2511-4.973-4.9831zm-4.556-2.1445c1.18 0 2.14.9608 2.14 2.1445v21.5902c0 1.1836-.96 2.1445-2.14 2.1445h-4.807c-1.179 0-2.139-.9609-2.139-2.1445v-21.5902c0-1.1837.96-2.1445 2.139-2.1445z" stroke="#30d5c8" stroke-width=".7"/><path d="m8.1 143h29.6c15.1 0 23.8-7.3 23.8-19.8 0-8.5-3.9-14.3-11.6-16.8 6.9-2.9 10.5-8.7001 10.5-16.8001 0-12.2-8.8-19.7-23.2-19.7h-29.1zm28-61.8001c7.2 0 11.2 3.4 11.2 9.7 0 6.5-3.9 10.2001-10.9 10.2001h-15.5v-19.9001zm1.1 30.7001c7.1 0 11.2 3.5 11.2 9.7 0 6.6-4 10.1-11.2 10.1h-16.3v-19.8zm67.737-18.3001v25.9001c0 9.4-3.7 13.9-11.4003 13.9-6.8 0-10.5-3.8-10.5-13.2v-26.6001h-12.2v30.9001c0 12.1 6.7 19.8 18.1 19.8 6.6 0 13.0003-3.2 16.0003-7.9l.9 6.6h11.3v-49.4001zm20.501 72.3001c2.7.7 5.7 1.1 9.1 1.1 8.1 0 13.3-3.8 17-13l24.2-60.4001h-12.6l-13.4 36.0001-12.7-36.0001h-12.9l19.9 51.5001-1.4 3.7c-2.1 5.8-5.1 6.9-9.9 6.9h-7.3zm77.083-21.6c12.9 0 21.9-6.5 24-17.3h-11.3c-1.4 4.7-5.8 7.3-12.5 7.3-8.1 0-12.7-4.4-13.6-13.1l37.2-.1v-3.7c0-15.4-9.4-25.3001-24.2-25.3001-14.5 0-24.6 10.7001-24.6 26.2001 0 15.3 10.3 26 25 26zm-.3-42.2c7.3 0 12 4.5 12 11.3h-24.8c1.2-7.4 5.6-11.3 12.8-11.3zm64.864-8.7001c-2-.5-3.7-.7-5.4-.7-6.6 0-11.3 3.3-13.4 8.2001l-.7-7.2001h-11.5v49.3001h12.2v-24c0-9.6 5.5-14.3 14.3-14.3h4.5zm46.73 49.6001v-10.2h-25l25-29.1v-10.1001h-39.9v10.2001h24.6l-24.6 29.2v10zm24.665 1.3c7.7 0 14.4-3.5 16.5-8.6l.9 7.3h10.7v-30c0-13.7001-8.2-20.9001-21.5-20.9001-13.4 0-22.2 7-22.2 17.7001h10.4c0-5.2 4-8.2 11.2-8.2 6.2 0 10.2 2.7 10.2 9.4v1.1l-14.8 1.1c-11.7.9-18.3 6.6-18.3 15.7 0 9.3 6.4 15.4 16.9 15.4zm4-9.2c-5.5 0-8.5-2.2-8.5-6.7 0-4 2.9-6.5 10.5-7.2l10.3-.8v2.6c0 7.6-4.8 12.1-12.3 12.1zm36.086 30.8h12.2v-29.5c3.1 5 9.5 7.9 16.9 7.9 14.7 0 23.1-11.2 23.1-26.6 0-15.5-9.2-25.6001-23.1-25.6001-7.5 0-14 3.3-17 9.0001l-.8-7.5001h-11.3zm12.3-47.6c0-8.9 5.5-15.1 13.9-15.1 8.6 0 13.7 6.3 13.7 15.1s-5.1 15-13.7 15c-8.4 0-13.9-6.1-13.9-15z" fill="#fff"/></svg>