<svg fill="none" height="286" viewBox="0 0 234 286" width="234" xmlns="http://www.w3.org/2000/svg" xmlns:xlink="http://www.w3.org/1999/xlink"><filter id="a" color-interpolation-filters="sRGB" filterUnits="userSpaceOnUse" height="298.087" width="62.8707" x="85.538" y="-6.08655"><feFlood flood-opacity="0" result="BackgroundImageFix"/><feColorMatrix in="SourceAlpha" result="hardAlpha" type="matrix" values="0 0 0 0 0 0 0 0 0 0 0 0 0 0 0 0 0 0 127 0"/><feOffset/><feGaussianBlur stdDeviation="3"/><feColorMatrix type="matrix" values="0 0 0 0 0.560784 0 0 0 0 0.956863 0 0 0 0 1 0 0 0 0.5 0"/><feBlend in2="BackgroundImageFix" mode="normal" result="effect1_dropShadow_509_31765"/><feBlend in="SourceGraphic" in2="effect1_dropShadow_509_31765" mode="normal" result="shape"/></filter><linearGradient id="b" gradientUnits="userSpaceOnUse" x1="54.7413" x2="-71.3456" y1="201.141" y2="309.547"><stop offset=".0613933" stop-color="#77d2c4" stop-opacity="0"/><stop offset=".526042" stop-color="#77d2c4"/><stop offset="1" stop-color="#77d2c4" stop-opacity="0"/></linearGradient><linearGradient id="c"><stop offset="0" stop-color="#00007d"/><stop offset=".1" stop-color="#060a80"/><stop offset=".27" stop-color="#16278a"/><stop offset=".5" stop-color="#31569a"/><stop offset=".77" stop-color="#5597b0"/><stop offset="1" stop-color="#77d2c4"/></linearGradient><linearGradient id="d" gradientUnits="userSpaceOnUse" x1="87.0494" x2="93.4068" xlink:href="#c" y1="66.4488" y2="66.4488"/><linearGradient id="e" gradientUnits="userSpaceOnUse" x1="80.5551" x2="86.3194" xlink:href="#c" y1="62.3287" y2="62.3287"/><linearGradient id="f" gradientUnits="userSpaceOnUse" x1="69.4753" x2="76.8821" xlink:href="#c" y1="65.1769" y2="65.1769"/><linearGradient id="g" gradientUnits="userSpaceOnUse" x1="75.019" x2="79.2928" xlink:href="#c" y1="58.4216" y2="58.4216"/><linearGradient id="h" gradientUnits="userSpaceOnUse" x1="61.9316" x2="68.2966" xlink:href="#c" y1="63.0902" y2="63.0902"/><linearGradient id="i" gradientUnits="userSpaceOnUse" x1="22.038" x2="48.4563" xlink:href="#c" y1="171.533" y2="171.533"/><linearGradient id="j" gradientUnits="userSpaceOnUse" x1=".813688" x2="52.9506" xlink:href="#c" y1="193.467" y2="193.467"/><linearGradient id="k" gradientUnits="userSpaceOnUse" x1="9.04943" x2="56.4791" xlink:href="#c" y1="210.801" y2="210.801"/><linearGradient id="l" gradientUnits="userSpaceOnUse" x1="18.365" x2="63.7186" xlink:href="#c" y1="227.259" y2="227.259"/><linearGradient id="m" gradientUnits="userSpaceOnUse" x1="46.2281" x2="71.9088" xlink:href="#c" y1="233.351" y2="233.351"/><linearGradient id="n" gradientUnits="userSpaceOnUse" x1="3.0114" x2="18.8365" xlink:href="#c" y1="204.563" y2="204.563"/><linearGradient id="o" gradientUnits="userSpaceOnUse" x1="50.3498" x2="56.6616" xlink:href="#c" y1="59.7849" y2="59.7849"/><linearGradient id="p" gradientUnits="userSpaceOnUse" x1="30.3346" x2="63.9011" xlink:href="#c" y1="84.3919" y2="84.3919"/><linearGradient id="q" gradientUnits="userSpaceOnUse" x1="20.654" x2="53.9924" xlink:href="#c" y1="98.1767" y2="98.1767"/><linearGradient id="r" gradientUnits="userSpaceOnUse" x1="12.73" x2="45.8783" xlink:href="#c" y1="118.709" y2="118.709"/><linearGradient id="s" gradientUnits="userSpaceOnUse" x1="3.31559" x2="41.0951" xlink:href="#c" y1="147.817" y2="147.817"/><linearGradient id="t" gradientUnits="userSpaceOnUse" x1="31.924" x2="40.73" xlink:href="#c" y1="243.793" y2="243.793"/><linearGradient id="u" gradientUnits="userSpaceOnUse" x1="62.1445" x2="73.5513" xlink:href="#c" y1="249.116" y2="249.116"/><linearGradient id="v" gradientUnits="userSpaceOnUse" x1="91.8859" x2="95.0875" xlink:href="#c" y1="236.474" y2="236.474"/><linearGradient id="w" gradientUnits="userSpaceOnUse" x1="45.5209" x2="65.1483" xlink:href="#c" y1="71.5819" y2="71.5819"/><linearGradient id="x" gradientUnits="userSpaceOnUse" x1="24.1597" x2="43.3536" xlink:href="#c" y1="88.6187" y2="88.6187"/><linearGradient id="y" gradientUnits="userSpaceOnUse" x1="13.9848" x2="31.3916" xlink:href="#c" y1="106.044" y2="106.044"/><linearGradient id="z" gradientUnits="userSpaceOnUse" x1="5.05704" x2="46.4639" xlink:href="#c" y1="130.209" y2="130.209"/><linearGradient id="A" gradientUnits="userSpaceOnUse" x1="0" x2="40.6616" xlink:href="#c" y1="163.757" y2="163.757"/><linearGradient id="B" gradientUnits="userSpaceOnUse" x1="14.7148" x2="46.4106" xlink:href="#c" y1="178.243" y2="178.243"/><linearGradient id="C" gradientUnits="userSpaceOnUse" x1="78.1369" x2="87.9011" xlink:href="#c" y1="244.851" y2="244.851"/><linearGradient id="D" gradientUnits="userSpaceOnUse" x1="21.8251" x2="40.9658" xlink:href="#c" y1="218.47" y2="218.47"/><linearGradient id="E" gradientUnits="userSpaceOnUse" x1="140.593" x2="146.951" xlink:href="#c" y1="0" y2="0"/><linearGradient id="F" gradientUnits="userSpaceOnUse" x1="147.681" x2="153.445" xlink:href="#c" y1="62.3286" y2="62.3286"/><linearGradient id="G" gradientUnits="userSpaceOnUse" x1="157.118" x2="164.525" xlink:href="#c" y1="65.177" y2="65.177"/><linearGradient id="H" gradientUnits="userSpaceOnUse" x1="154.707" x2="158.981" xlink:href="#c" y1="58.4216" y2="58.4216"/><linearGradient id="I" gradientUnits="userSpaceOnUse" x1="165.703" x2="172.076" xlink:href="#c" y1="63.0902" y2="63.0902"/><linearGradient id="J" gradientUnits="userSpaceOnUse" x1="185.544" x2="211.97" xlink:href="#c" y1="171.533" y2="171.533"/><linearGradient id="K" gradientUnits="userSpaceOnUse" x1="181.049" x2="233.186" xlink:href="#c" y1="193.467" y2="193.467"/><linearGradient id="L" gradientUnits="userSpaceOnUse" x1="177.521" x2="224.951" xlink:href="#c" y1="210.801" y2="210.801"/><linearGradient id="M" gradientUnits="userSpaceOnUse" x1="170.281" x2="215.643" xlink:href="#c" y1="227.259" y2="227.259"/><linearGradient id="N" gradientUnits="userSpaceOnUse" x1="162.099" x2="187.772" xlink:href="#c" y1="233.351" y2="233.351"/><linearGradient id="O" gradientUnits="userSpaceOnUse" x1="215.171" x2="230.989" xlink:href="#c" y1="204.563" y2="204.563"/><linearGradient id="P" gradientUnits="userSpaceOnUse" x1="177.338" x2="183.658" xlink:href="#c" y1="59.7849" y2="59.7849"/><linearGradient id="Q" gradientUnits="userSpaceOnUse" x1="170.106" x2="203.665" xlink:href="#c" y1="84.3918" y2="84.3918"/><linearGradient id="R" gradientUnits="userSpaceOnUse" x1="180.008" x2="213.354" xlink:href="#c" y1="98.1767" y2="98.1767"/><linearGradient id="S" gradientUnits="userSpaceOnUse" x1="188.129" x2="221.27" xlink:href="#c" y1="118.709" y2="118.709"/><linearGradient id="T" gradientUnits="userSpaceOnUse" x1="192.913" x2="230.692" xlink:href="#c" y1="147.817" y2="147.817"/><linearGradient id="U" gradientUnits="userSpaceOnUse" x1="193.278" x2="202.084" xlink:href="#c" y1="243.793" y2="243.793"/><linearGradient id="V" gradientUnits="userSpaceOnUse" x1="160.456" x2="171.856" xlink:href="#c" y1="249.116" y2="249.116"/><linearGradient id="W" gradientUnits="userSpaceOnUse" x1="138.913" x2="142.114" xlink:href="#c" y1="236.474" y2="236.474"/><linearGradient id="X" gradientUnits="userSpaceOnUse" x1="168.852" x2="188.479" xlink:href="#c" y1="71.5819" y2="71.5819"/><linearGradient id="Y" gradientUnits="userSpaceOnUse" x1="190.654" x2="209.84" xlink:href="#c" y1="88.6187" y2="88.6187"/><linearGradient id="Z" gradientUnits="userSpaceOnUse" x1="202.616" x2="220.015" xlink:href="#c" y1="106.044" y2="106.044"/><linearGradient id="aa" gradientUnits="userSpaceOnUse" x1="187.544" x2="228.943" xlink:href="#c" y1="130.209" y2="130.209"/><linearGradient id="ab" gradientUnits="userSpaceOnUse" x1="193.338" x2="234" xlink:href="#c" y1="163.757" y2="163.757"/><linearGradient id="ac" gradientUnits="userSpaceOnUse" x1="187.597" x2="219.285" xlink:href="#c" y1="178.243" y2="178.243"/><linearGradient id="ad" gradientUnits="userSpaceOnUse" x1="146.106" x2="155.871" xlink:href="#c" y1="244.851" y2="244.851"/><linearGradient id="ae" gradientUnits="userSpaceOnUse" x1="193.042" x2="212.175" xlink:href="#c" y1="218.47" y2="218.47"/><linearGradient id="af"><stop offset="0" stop-color="#77d2c4"/><stop offset="1" stop-color="#d9d9d9" stop-opacity="0"/></linearGradient><radialGradient id="ag" cx="0" cy="0" gradientTransform="matrix(0 3.42715 -3.42205 0 117.49 146.606)" gradientUnits="userSpaceOnUse" r="1" xlink:href="#af"/><radialGradient id="ah" cx="0" cy="0" gradientTransform="matrix(0 2.66557 -2.66159 0 117.49 162.6)" gradientUnits="userSpaceOnUse" r="1" xlink:href="#af"/><clipPath id="ai"><path d="m0 0h234v286h-234z"/></clipPath><g clip-path="url(#ai)"><path clip-rule="evenodd" d="m106.201 136.45c3.754-1.577 6.382-5.217 6.382-9.455 0-3.815-2.13-7.145-5.293-8.922 2.209-2.101 3.581-5.036 3.581-8.283 0-5.029-3.292-9.309-7.89-10.9031v-7.5757c.312-1.1273.479-2.3151.479-3.5419 0-7.3082-5.9209-13.2327-13.2248-13.2327-2.6702 0-5.1555.7918-7.2343 2.1536-1.8312-.7801-3.8577-1.2135-5.9895-1.2135-8.1736 0-14.7996 6.3708-14.7996 14.2296 0 1.8929.3844 3.6994 1.0822 5.3514-6.713.4492-12.0931 5.5503-12.6769 11.9733-5.0084 1.884-8.5721 6.721-8.5721 12.39 0 3.347 1.2418 6.404 3.2895 8.734-2.7516 2.569-4.472 6.229-4.472 10.291 0 3.194 1.0639 6.14 2.8565 8.502-2.3189 2.509-3.736 5.864-3.736 9.551 0 5.707 3.3956 10.62 8.2756 12.828-2.0128 2.49-3.2184 5.66-3.2184 9.112 0 8.008 6.488 14.5 14.4914 14.5.2135 0 .426-.005.6374-.014-2.5194 2.712-4.0625 6.361-4.0625 10.374 0 8.375 6.7191 15.163 15.0076 15.163 3.8486 0 7.3588-1.463 10.0151-3.87-.1322.686-.2014 1.394-.2014 2.118 0 6.082 4.8799 11.013 10.8995 11.013 5.9293 0 10.7527-4.784 10.8967-10.74h.257v-14.801c5.063-.162 9.118-4.36 9.118-9.515 0-2.601-1.033-4.958-2.706-6.676 3.115-.71 5.436-3.435 5.436-6.689 0-3.794-3.154-6.869-7.045-6.869-.544 0-1.074.06-1.583.174zm21.491 0c-3.753-1.577-6.381-5.217-6.381-9.455 0-3.815 2.129-7.145 5.293-8.922-2.21-2.101-3.582-5.036-3.582-8.283 0-5.029 3.293-9.309 7.891-10.9031v-7.5756c-.313-1.1274-.48-2.3152-.48-3.542 0-7.3082 5.921-13.2327 13.225-13.2327 2.671 0 5.156.7918 7.235 2.1536 1.831-.7801 3.857-1.2135 5.989-1.2135 8.174 0 14.8 6.3708 14.8 14.2296 0 1.8929-.385 3.6994-1.082 5.3514 6.713.4492 12.093 5.5503 12.676 11.9733 5.009 1.884 8.573 6.721 8.573 12.39 0 3.347-1.242 6.404-3.29 8.734 2.752 2.569 4.472 6.229 4.472 10.291 0 3.194-1.064 6.14-2.856 8.502 2.318 2.509 3.736 5.864 3.736 9.551 0 5.707-3.396 10.62-8.276 12.828 2.013 2.49 3.218 5.66 3.218 9.112 0 8.008-6.488 14.5-14.491 14.5-.214 0-.426-.005-.637-.014.136.147.27.297.401.449h4.514v12.502h-1.069c-1.211 7.147-7.372 12.586-14.791 12.586-3.849 0-7.359-1.463-10.016-3.87.133.686.202 1.394.202 2.118 0 6.082-4.88 11.013-10.9 11.013-5.929 0-10.752-4.784-10.896-10.74h-.257v-11.107h-1.344v-3.834c-4.418-.787-7.774-4.685-7.774-9.375 0-2.601 1.032-4.958 2.706-6.676-3.116-.71-5.436-3.435-5.436-6.689 0-3.794 3.154-6.869 7.045-6.869.544 0 1.074.06 1.582.174z" fill="url(#b)" fill-rule="evenodd" opacity=".6"/><g filter="url(#a)" stroke="#77d2c4" stroke-miterlimit="10"><path d="m119.065 140.864v-39.603l6.448-6.4582v-18.1258l7.628-7.6388v-8.5755l8.768-8.7811v-38.765l-12.624-12.649998"/><path d="m125.894 68.4441v-5.2397l-5.978-5.9861v-14.5921l9.772-9.7788v-11.5762"/><path d="m120.335 66.4031v14.3483l2.585 2.5894v5.5444l-2.228 2.2391"/><path d="m127.452 70.0511c0 .8454-.684 1.5384-1.536 1.5384-.851 0-1.536-.6854-1.536-1.5384s.685-1.5384 1.536-1.5384c.852 0 1.536.6854 1.536 1.5384z"/><path d="m126.684 70.0511c0 .4265-.342.7692-.768.7692-.425 0-.768-.3427-.768-.7692s.343-.7692.768-.7692c.426 0 .768.3427.768.7692z"/><path d="m121.125 92.2591c0 .8454-.684 1.5384-1.536 1.5384-.851 0-1.536-.6854-1.536-1.5384s.685-1.5384 1.536-1.5384c.852 0 1.536.6854 1.536 1.5384z"/><path d="m120.357 92.2591c0 .4265-.342.7692-.768.7692s-.768-.3427-.768-.7692.342-.7692.768-.7692.768.3427.768.7692z"/><path d="m121.871 64.6895c0 .8454-.685 1.5384-1.536 1.5384-.852 0-1.537-.6854-1.537-1.5384 0-.8529.685-1.5384 1.537-1.5384.851 0 1.536.6855 1.536 1.5384z"/><path d="m120.335 65.4587c.424 0 .768-.3444.768-.7692s-.344-.7692-.768-.7692c-.425 0-.768.3444-.768.7692s.343.7692.768.7692z"/><path d="m126.35 56.1369c0 .8454-.685 1.5384-1.536 1.5384-.852 0-1.536-.6854-1.536-1.5384s.684-1.5384 1.536-1.5384c.851 0 1.536.6854 1.536 1.5384z"/><path d="m124.814 56.9061c.424 0 .768-.3444.768-.7692s-.344-.7692-.768-.7692-.768.3444-.768.7692.344.7692.768.7692z"/><path d="m132.099 56.5634c.848 0 1.536-.6888 1.536-1.5384 0-.8497-.688-1.5384-1.536-1.5384-.849 0-1.536.6887-1.536 1.5384 0 .8496.687 1.5384 1.536 1.5384z"/><path d="m132.099 55.7942c.424 0 .768-.3444.768-.7693 0-.4248-.344-.7692-.768-.7692s-.768.3444-.768.7692c0 .4249.344.7693.768.7693z"/><path d="m129.802 40.9584c.849 0 1.536-.6888 1.536-1.5384s-.687-1.5384-1.536-1.5384c-.848 0-1.536.6888-1.536 1.5384s.688 1.5384 1.536 1.5384z"/><path d="m129.802 40.1892c.424 0 .768-.3444.768-.7692 0-.4249-.344-.7692-.768-.7692s-.768.3443-.768.7692c0 .4248.344.7692.768.7692z"/><path d="m124.456 48.78c.849 0 1.536-.6888 1.536-1.5385 0-.8496-.687-1.5384-1.536-1.5384-.848 0-1.536.6888-1.536 1.5384 0 .8497.688 1.5385 1.536 1.5385z"/><path d="m124.456 48.0107c.424 0 .768-.3444.768-.7692s-.344-.7692-.768-.7692-.768.3444-.768.7692.344.7692.768.7692z"/><path d="m117.065 37.1504c.848 0 1.536-.6887 1.536-1.5384 0-.8496-.688-1.5384-1.536-1.5384-.849 0-1.536.6888-1.536 1.5384 0 .8497.687 1.5384 1.536 1.5384z"/><path d="m117.833 35.612c0 .4265-.342.7692-.768.7692s-.768-.3427-.768-.7692.342-.7692.768-.7692.768.3427.768.7692z"/><path d="m118.601 85.5952c0 .8453-.685 1.5384-1.536 1.5384-.852 0-1.536-.6854-1.536-1.5384s.684-1.5384 1.536-1.5384c.851 0 1.536.6854 1.536 1.5384z"/><path d="m117.833 85.5951c0 .4265-.342.7692-.768.7692s-.768-.3427-.768-.7692.342-.7692.768-.7692.768.3427.768.7692z"/><path d="m118.601 255.872c0 .845-.685 1.538-1.536 1.538-.852 0-1.536-.685-1.536-1.538s.684-1.539 1.536-1.539c.851 0 1.536.686 1.536 1.539z"/><path d="m117.833 255.872c0 .426-.342.769-.768.769s-.768-.343-.768-.769c0-.427.342-.77.768-.77s.768.343.768.77z"/><path d="m117.065 208.775c.848 0 1.536-.689 1.536-1.539 0-.849-.688-1.538-1.536-1.538-.849 0-1.536.689-1.536 1.538 0 .85.687 1.539 1.536 1.539z"/><path d="m117.833 207.236c0 .427-.342.77-.768.77s-.768-.343-.768-.77c0-.426.342-.769.768-.769s.768.343.768.769z"/><path d="m137.894 27.9047c0 .8454-.685 1.5385-1.537 1.5385-.851 0-1.536-.6855-1.536-1.5385 0-.8529.685-1.5384 1.536-1.5384.852 0 1.537.6855 1.537 1.5384z"/><path d="m137.125 27.9047c0 .4265-.342.7692-.768.7692-.425 0-.768-.3427-.768-.7692s.343-.7692.768-.7692c.426 0 .768.3427.768.7692z"/><path d="m129.688 21.0047c.849 0 1.536-.6888 1.536-1.5384 0-.8497-.687-1.5384-1.536-1.5384-.848 0-1.536.6887-1.536 1.5384 0 .8496.688 1.5384 1.536 1.5384z"/><path d="m130.449 19.4662c0 .4265-.343.7692-.768.7692-.426 0-.768-.3427-.768-.7692s.342-.7692.768-.7692c.425 0 .768.3427.768.7692z"/><path d="m124.738 33.7765c.848 0 1.536-.6887 1.536-1.5384 0-.8496-.688-1.5384-1.536-1.5384-.849 0-1.536.6888-1.536 1.5384 0 .8497.687 1.5384 1.536 1.5384z"/><path d="m124.738 33.0073c.424 0 .768-.3444.768-.7692s-.344-.7692-.768-.7692c-.425 0-.768.3444-.768.7692s.343.7692.768.7692z"/><path d="m125.977 55.025 3.825-3.8308v-10.0607"/><path d="m133.194 53.6845 3.118-3.1225v-21.058"/><path d="m123.559 31.0805-2.608-2.6046v-10.8146l5.559-5.5596v-11.439102"/><path d="m114.882 140.864v-39.603l-6.449-6.4581v-18.1259l-7.627-7.6387v-8.5755l-8.768-8.7812v-38.7649l11.665-11.68281"/><path d="m108.046 68.4441v-5.2397l5.977-5.9861v-14.5921l-9.764-9.7788v-11.5762"/><path d="m113.612 66.4031v14.3483l-2.593 2.5894v5.5444l2.228 2.2391"/><path d="m108.03 71.5895c.849 0 1.537-.6887 1.537-1.5384 0-.8496-.688-1.5384-1.537-1.5384-.848 0-1.536.6888-1.536 1.5384 0 .8497.688 1.5384 1.536 1.5384z"/><path d="m108.03 70.8203c.425 0 .768-.3444.768-.7692 0-.4249-.343-.7692-.768-.7692-.424 0-.768.3443-.768.7692 0 .4248.344.7692.768.7692z"/><path d="m114.357 93.7975c.849 0 1.537-.6887 1.537-1.5384 0-.8496-.688-1.5384-1.537-1.5384-.848 0-1.536.6888-1.536 1.5384 0 .8497.688 1.5384 1.536 1.5384z"/><path d="m114.357 93.0283c.425 0 .768-.3444.768-.7692s-.343-.7692-.768-.7692c-.424 0-.768.3444-.768.7692s.344.7692.768.7692z"/><path d="m112.076 64.6895c0 .8454.684 1.5384 1.536 1.5384s1.536-.6854 1.536-1.5384c0-.8529-.684-1.5384-1.536-1.5384s-1.536.6855-1.536 1.5384z"/><path d="m113.612 65.4587c.424 0 .768-.3444.768-.7692s-.344-.7692-.768-.7692-.768.3444-.768.7692.344.7692.768.7692z"/><path d="m107.597 56.1369c0 .8454.684 1.5384 1.536 1.5384s1.536-.6854 1.536-1.5384-.684-1.5384-1.536-1.5384-1.536.6854-1.536 1.5384z"/><path d="m108.365 56.1369c0 .4265.342.7692.768.7692s.768-.3427.768-.7692-.342-.7692-.768-.7692-.768.3427-.768.7692z"/><path d="m101.848 56.5634c.848 0 1.536-.6888 1.536-1.5384 0-.8497-.688-1.5384-1.536-1.5384s-1.536.6887-1.536 1.5384c0 .8496.688 1.5384 1.536 1.5384z"/><path d="m101.848 55.7942c.424 0 .768-.3444.768-.7693 0-.4248-.344-.7692-.768-.7692s-.768.3444-.768.7692c0 .4249.344.7693.768.7693z"/><path d="m104.144 40.9584c.849 0 1.537-.6888 1.537-1.5384s-.688-1.5384-1.537-1.5384c-.848 0-1.536.6888-1.536 1.5384s.688 1.5384 1.536 1.5384z"/><path d="m104.144 40.1892c.425 0 .769-.3444.769-.7692 0-.4249-.344-.7692-.769-.7692-.424 0-.768.3443-.768.7692 0 .4248.344.7692.768.7692z"/><path d="m109.483 48.78c.848 0 1.536-.6888 1.536-1.5385 0-.8496-.688-1.5384-1.536-1.5384s-1.536.6888-1.536 1.5384c0 .8497.688 1.5385 1.536 1.5385z"/><path d="m109.483 48.0107c.424 0 .768-.3444.768-.7692s-.344-.7692-.768-.7692-.768.3444-.768.7692.344.7692.768.7692z"/><path d="m97.5818 29.4432c.8483 0 1.5361-.6888 1.5361-1.5385 0-.8496-.6878-1.5384-1.5361-1.5384-.8484 0-1.5362.6888-1.5362 1.5384 0 .8497.6878 1.5385 1.5362 1.5385z"/><path d="m97.5818 28.6739c.4241 0 .768-.3444.768-.7692s-.3439-.7692-.768-.7692c-.4242 0-.7681.3444-.7681.7692s.3439.7692.7681.7692z"/><path d="m104.259 21.0047c.848 0 1.536-.6888 1.536-1.5384 0-.8497-.688-1.5384-1.536-1.5384-.849 0-1.537.6887-1.537 1.5384 0 .8496.688 1.5384 1.537 1.5384z"/><path d="m104.259 20.2354c.424 0 .768-.3444.768-.7692s-.344-.7692-.768-.7692c-.425 0-.769.3444-.769.7692s.344.7692.769.7692z"/><path d="m109.202 33.7765c.848 0 1.536-.6887 1.536-1.5384 0-.8496-.688-1.5384-1.536-1.5384-.849 0-1.537.6888-1.537 1.5384 0 .8497.688 1.5384 1.537 1.5384z"/><path d="m108.433 32.2381c0 .4265.343.7692.769.7692.425 0 .768-.3427.768-.7692s-.343-.7692-.768-.7692c-.426 0-.769.3427-.769.7692z"/><path d="m107.97 55.025-3.826-3.8308v-10.0607"/><path d="m100.745 53.6845-3.1176-3.1225v-21.058"/><path d="m110.388 31.0806 2.601-2.6046v-10.8146l-5.552-5.5596v-10.86791"/><path d="m117.065 33.9822v-33.776512"/><path d="m117.065 83.8359v-46.3427"/><path d="m117.118 257.57v28.43"/><path d="m119.027 186.879v13.549l6.372 6.382v18.141l6.814 6.816v15.773"/><path d="m133.749 249.192c0 .846-.684 1.539-1.536 1.539s-1.536-.686-1.536-1.539c0-.852.684-1.538 1.536-1.538s1.536.686 1.536 1.538z"/><path d="m132.213 249.962c.424 0 .768-.345.768-.769 0-.425-.344-.77-.768-.77s-.768.345-.768.77c0 .424.344.769.768.769z"/><path d="m125.643 243.351c0 .845-.685 1.538-1.537 1.538-.851 0-1.536-.685-1.536-1.538s.685-1.538 1.536-1.538c.852 0 1.537.685 1.537 1.538z"/><path d="m124.875 243.351c0 .426-.343.769-.769.769-.425 0-.768-.343-.768-.769s.343-.769.768-.769c.426 0 .769.343.769.769z"/><path d="m122.798 213.002c.849 0 1.537-.689 1.537-1.539 0-.849-.688-1.538-1.537-1.538-.848 0-1.536.689-1.536 1.538 0 .85.688 1.539 1.536 1.539z"/><path d="m122.798 212.233c.425 0 .769-.345.769-.77s-.344-.769-.769-.769c-.424 0-.768.344-.768.769s.344.77.768.77z"/><path d="m121.544 212.507-1.734 1.736v15.795l4.296 4.303v7.243"/><path d="m119.81 235.956v13.998l4.403 4.417v30.989"/><path d="m101.916 247.54v-15.773l6.814-6.816v-18.141l6.373-6.382v-13.549l1.962-1.965 1.954 1.965"/><path d="m101.916 250.731c.849 0 1.536-.689 1.536-1.539 0-.849-.687-1.538-1.536-1.538-.848 0-1.536.689-1.536 1.538 0 .85.688 1.539 1.536 1.539z"/><path d="m101.916 249.962c.425 0 .768-.345.768-.77 0-.424-.343-.769-.768-.769-.424 0-.768.345-.768.769 0 .425.344.77.768.77z"/><path d="m108.487 243.351c0 .845.684 1.538 1.536 1.538s1.536-.685 1.536-1.538-.684-1.538-1.536-1.538-1.536.685-1.536 1.538z"/><path d="m110.023 244.12c.424 0 .768-.344.768-.769s-.344-.769-.768-.769-.768.344-.768.769.344.769.768.769z"/><path d="m109.795 211.463c0 .846.684 1.539 1.536 1.539s1.536-.686 1.536-1.539-.684-1.538-1.536-1.538-1.536.685-1.536 1.538z"/><path d="m110.563 211.463c0 .427.342.769.768.769s.768-.342.768-.769c0-.426-.342-.769-.768-.769s-.768.343-.768.769z"/><path d="m112.586 212.507 1.733 1.736v15.795l-4.296 4.303v7.243"/><path d="m114.319 235.956v13.998l-4.403 4.417v30.989"/><path d="m117.065 184.914v-16.313"/><path d="m117.065 208.775v45.558"/></g><g opacity=".3" stroke-miterlimit="10"><path d="m92.4335 67.4693v6.7705c0 .1676.1368.297.2965.297s.2966-.137.2966-.297v-7.0218l-4.3802-4.3868v-2.6732c.365-.1218.6236-.4645.6236-.8682 0-.5103-.4107-.9215-.9202-.9215s-.9201.4112-.9201.9215c0 .4037.2585.7464.6235.8682v2.9245z" stroke="url(#d)"/><path d="m81.2319 76.5323c.1673 0 .2966-.1371.2966-.297v-3.6937l3.4829-3.4881v-18.5219c.5323-.1371.9202-.6092.9202-1.1804 0-.6779-.5476-1.2262-1.2244-1.2262s-1.2243.5483-1.2243 1.2262c0 .5712.3954 1.051.9201 1.1804v18.2706l-3.4828 3.4881v3.9374c0 .1675.1368.297.2965.297zm2.8594-27.1811c0-.3428.2813-.6245.6235-.6245s.6236.2817.6236.6245c0 .3427-.2814.6245-.6236.6245s-.6235-.2818-.6235-.6245z" stroke="url(#e)"/><path d="m71.3764 57.1193c.5323-.1371.9202-.6093.9202-1.1805 0-.6778-.5476-1.2262-1.2244-1.2262s-1.2243.5484-1.2243 1.2262c0 .5712.3954 1.051.9202 1.1805v7.5854l5.1254 5.1331v5.4987c0 .1676.1369.297.2966.297s.2966-.1371.2966-.297v-5.75l-5.1255-5.1331v-7.3417zm-.9201-1.1805c0-.3427.2813-.6245.6235-.6245.3423 0 .6236.2818.6236.6245s-.2813.6245-.6236.6245c-.3422 0-.6235-.2818-.6235-.6245z" stroke="url(#f)"/><path d="m78.289 53.9206c.365-.1219.6235-.4646.6235-.8682 0-.5103-.4106-.9215-.9201-.9215s-.9202.4112-.9202.9215c0 .4036.2586.7463.6236.8682v8.0729l-.9582.9596c-.1216-.061-.2585-.099-.403-.099-.5095 0-.9202.4112-.9202.9215 0 .5102.4107.9215.9202.9215s.9201-.4113.9201-.9215c0-.1447-.038-.2818-.0988-.4037l1.1331-1.1347v-8.3242z" stroke="url(#g)"/><path d="m67.3156 78.3753c0 .1676.1369.297.2966.297s.2965-.1371.2965-.297v-5.0341l-5.0114-5.0189v-15.8106l3.2396-3.2444c.114.0533.2433.0838.3802.0838.5095 0 .9202-.4113.9202-.9215 0-.5103-.4107-.9215-.9202-.9215s-.9201.4112-.9201.9215c0 .1523.0456.297.1064.4265l-3.4068 3.4119v16.3056l5.0114 5.0189v4.7828z" stroke="url(#h)"/><path d="m48.076 168.746c0-.168-.1368-.297-.2965-.297h-7.232l-5.5665 5.574h-6.9962l-3.2852-3.29c.0989-.175.1597-.373.1597-.594 0-.677-.5475-1.226-1.2243-1.226s-1.2244.549-1.2244 1.226c0 .678.5476 1.227 1.2244 1.227.2433 0 .4639-.077.654-.191l3.4448 3.45h7.4905l5.5666-5.575h6.981c.1673 0 .2965-.137.2965-.297zm-25.0646 1.393c0-.342.2814-.624.6236-.624s.6236.282.6236.624c0 .343-.2814.625-.6236.625s-.6236-.282-.6236-.625z" stroke="url(#i)"/><path d="m19.7034 191.989 4.5095 4.517h12.4259l5.4753-5.484h10.1597c.1673 0 .2965-.137.2965-.297s-.1368-.297-.2965-.297h-10.4031l-5.4753 5.483h-11.9315l-4.5095-4.516h-16.34223c-.11407-.556-.60837-.975-1.19392-.975-.67681 0-1.22433.549-1.22433 1.227 0 .677.54752 1.226 1.22433 1.226.55513 0 1.01141-.373 1.1635-.876h16.12925zm-17.29275.274c-.34221 0-.62358-.281-.62358-.624s.28137-.625.62358-.625c.3422 0 .62357.282.62357.625s-.28137.624-.62357.624z" stroke="url(#j)"/><path d="m22.038 208.463h8.9506l6.9201-6.931h7.8936l4.7528 4.76h5.2548c.1673 0 .2966-.137.2966-.297s-.1369-.297-.2966-.297h-5.0038l-4.7529-4.76h-8.3878l-6.9202 6.93h-8.9505l-10.5095 10.526c-.1825-.115-.3955-.183-.6312-.183-.67681 0-1.22434.548-1.22434 1.226s.54753 1.226 1.22434 1.226c.6768 0 1.2243-.548 1.2243-1.226 0-.228-.0684-.434-.1749-.617l10.3346-10.35zm-11.384 11.599c-.3422 0-.6236-.282-.6236-.625s.2814-.624.6236-.624.6236.281.6236.624-.2814.625-.6236.625z" stroke="url(#k)"/><path d="m33.711 223.527h14.1673l6.5476-6.557h8.6159c.1673 0 .2966-.138.2966-.297 0-.16-.1369-.298-.2966-.298h-8.8593l-6.5475 6.558h-14.1673l-13.4221 13.442c-.114-.053-.2433-.084-.3726-.084-.5095 0-.9201.411-.9201.922 0 .51.4106.921.9201.921s.9202-.411.9202-.921c0-.16-.0457-.305-.1141-.434z" stroke="url(#l)"/><path d="m55.1711 233.694h9.8403l6.4259-6.435.0836-.092v-8.75c0-.168-.1369-.297-.2966-.297s-.2965.137-.2965.297v8.499l-6.1673 6.176h-9.8403l-7.6046 7.616-.0837.092v5.978c-.365.122-.6235.465-.6235.868 0 .511.4106.922.9201.922s.9202-.411.9202-.922c0-.403-.2586-.746-.6236-.868v-5.735l7.346-7.357z" stroke="url(#m)"/><path d="m16.6312 202.484c.0912.411.4563.716.8973.716.5095 0 .9202-.411.9202-.922 0-.51-.4107-.921-.9202-.921-.3726 0-.6844.221-.8365.533h-7.88592l-4.11407 4.12c-.11407-.053-.24334-.084-.38023-.084-.5095 0-.92015.412-.92015.922s.41065.922.92015.922c.50951 0 .92016-.412.92016-.922 0-.152-.04563-.297-.10647-.426l3.93156-3.938z" stroke="url(#n)"/><path d="m51.9468 50.4935c.2205 0 .4258-.0609.6083-.1675l3.1255 3.1301v13.1603l-2.6464 2.6503c-.1825-.1142-.403-.1827-.6312-.1827-.6768 0-1.2243.5483-1.2243 1.2261s.5475 1.2262 1.2243 1.2262c.6769 0 1.2244-.5484 1.2244-1.2262 0-.2208-.0685-.4341-.1673-.6093l2.8289-2.8331v-13.6553l-3.2928-3.2977c.1141-.1828.1825-.4036.1825-.6397 0-.6778-.5475-1.2262-1.2243-1.2262s-1.2244.5484-1.2244 1.2262.5476 1.2261 1.2244 1.2261zm.4486 20.4411c-.3422 0-.6235-.2818-.6235-.6245s.2813-.6245.6235-.6245.6236.2818.6236.6245-.2814.6245-.6236.6245zm-.4486-22.2917c.3422 0 .6235.2818.6235.6245s-.2813.6245-.6235.6245-.6236-.2818-.6236-.6245.2814-.6245.6236-.6245z" stroke="url(#o)"/><path d="m31.9392 76.5399c.5703 0 1.0494-.396 1.1787-.9215h7.1026l7.0114 7.0219v5.8337h9.6654l6.1141 6.1232c.0608.061.1369.0838.2129.0838.0761 0 .1521-.0305.213-.0838.114-.1142.114-.3046 0-.4265l-6.289-6.2983h-9.3156v-5.4835l-7.2776-7.2884-.0912-.0838h-7.346c-.1369-.5331-.6084-.9215-1.1787-.9215-.6768 0-1.2244.5484-1.2244 1.2262s.5476 1.2261 1.2244 1.2261zm0-1.8506c.3422 0 .6235.2817.6235.6245 0 .3427-.2813.6245-.6235.6245s-.6236-.2818-.6236-.6245c0-.3428.2814-.6245.6236-.6245z" stroke="url(#p)"/><path d="m22.2509 101.002c.5476 0 1.0038-.365 1.1559-.86h13.9392l4.1825-4.1891h7.2091l4.3575 4.3641c.0608.061.1368.084.2129.084.076 0 .1521-.031.2129-.084.1141-.114.1141-.305 0-.4267l-4.5323-4.5391h-7.7034l-4.1825 4.1887h-13.6578c-.1065-.5635-.6008-.99-1.194-.99-.6768 0-1.2243.5483-1.2243 1.2261 0 .678.5475 1.226 1.2243 1.226zm0-1.8505c.3423 0 .6236.2818.6236.6245 0 .343-.2813.625-.6236.625-.3422 0-.6235-.282-.6235-.625 0-.3427.2813-.6245.6235-.6245z" stroke="url(#q)"/><path d="m14.3346 126.668c.6768 0 1.2243-.549 1.2243-1.226 0-.252-.076-.48-.2053-.671l8.5019-8.514h10.2129l4.905-4.912h6.2205c.1673 0 .2966-.138.2966-.297 0-.16-.1369-.298-.2966-.298h-6.4715l-4.9049 4.913h-10.2129l-8.6997 8.712c-.1749-.091-.365-.152-.5779-.152-.6768 0-1.2243.548-1.2243 1.226s.5475 1.226 1.2243 1.226zm0-1.851c.3422 0 .6236.282.6236.625 0 .342-.2814.624-.6236.624s-.6236-.282-.6236-.624c0-.343.2814-.625.6236-.625z" stroke="url(#r)"/><path d="m4.91255 155.639c.6768 0 1.22433-.549 1.22433-1.227 0-.251-.07604-.487-.20532-.677l5.77944-5.788h14.213l7.3536-7.365h7.1406c.1674 0 .2966-.137.2966-.297s-.1369-.297-.2966-.297h-7.384l-7.3536 7.364h-14.2205l-5.97721 5.987c-.1673-.092-.35742-.145-.56274-.145-.67681 0-1.22433.548-1.22433 1.226s.54752 1.226 1.22433 1.226zm0-1.851c.3422 0 .62357.282.62357.624 0 .343-.28137.625-.62357.625-.34221 0-.62358-.282-.62358-.625 0-.342.28137-.624.62358-.624z" stroke="url(#s)"/><path d="m39.1255 232.605c-.6768 0-1.2244.548-1.2244 1.226 0 .213.0609.419.1597.594l-4.8441 4.852v13.312c-.5323.137-.9201.609-.9201 1.181 0 .677.5475 1.226 1.2243 1.226s1.2243-.549 1.2243-1.226c0-.572-.3954-1.051-.9201-1.181v-13.069l4.654-4.661c.1901.122.4106.191.654.191.6768 0 1.2243-.549 1.2243-1.226 0-.678-.5475-1.227-1.2243-1.227zm-4.981 21.157c0 .343-.2814.625-.6236.625s-.6236-.282-.6236-.625.2814-.624.6236-.624.6236.281.6236.624zm4.981-19.314c-.3422 0-.6236-.282-.6236-.624 0-.343.2814-.625.6236-.625s.6236.282.6236.625c0 .342-.2814.624-.6236.624z" stroke="url(#t)"/><path d="m71.9468 238.667c-.6768 0-1.2244.549-1.2244 1.226 0 .198.0533.389.1369.556l-7.3308 7.342-.0836.091v9.277c-.5324.137-.9202.609-.9202 1.18 0 .678.5475 1.226 1.2244 1.226.6768 0 1.2243-.548 1.2243-1.226 0-.571-.3955-1.051-.9202-1.18v-9.025l7.2168-7.228c.1977.137.4334.214.692.214.6768 0 1.2243-.549 1.2243-1.227 0-.677-.5475-1.226-1.2243-1.226zm-7.5818 19.665c0 .342-.2814.624-.6236.624s-.6235-.282-.6235-.624c0-.343.2813-.625.6235-.625s.6236.282.6236.625zm7.5818-17.814c-.3422 0-.6236-.282-.6236-.625 0-.342.2814-.624.6236-.624s.6235.282.6235.624c0 .343-.2813.625-.6235.625z" stroke="url(#u)"/><path d="m93.8175 242.445v-14.036c0-.168-.1369-.297-.2966-.297s-.2966.137-.2966.297v14.013c-.5475.122-.9581.609-.9581 1.188 0 .678.5475 1.226 1.2243 1.226s1.2243-.548 1.2243-1.226c0-.556-.3802-1.028-.8897-1.173zm-.3346 1.797c-.3422 0-.6236-.282-.6236-.624 0-.343.2814-.625.6236-.625s.6236.282.6236.625c0 .342-.2814.624-.6236.624z" stroke="url(#v)"/><path d="m46.5247 63.3568v7.6539l6.0304 6.0395h7.2472l4.4563 4.4629c.0608.0609.1368.0837.2129.0837.076 0 .1521-.0304.2129-.0837.1141-.1143.1141-.3047 0-.4265l-4.6312-4.6381h-7.2471l-5.6806-5.6891v-7.4026c.365-.1219.6236-.4646.6236-.8683 0-.5102-.4107-.9215-.9202-.9215s-.9202.4113-.9202.9215c0 .4037.2586.7464.6236.8683z" stroke="url(#w)"/><path d="m25.4677 87.4077c.403 0 .7452-.2589.8669-.6245h4.2586l4.2585 4.2649h6.3346c.1217.3656.4639.6246.8669.6246.5095 0 .9202-.4113.9202-.9216 0-.5102-.4107-.9215-.9202-.9215-.403 0-.7452.2589-.8669.6245h-6.0912l-4.2586-4.2649h-4.5019c-.1217-.3656-.4639-.6245-.8669-.6245-.5095 0-.9202.4113-.9202.9215 0 .5103.4107.9215.9202.9215z" stroke="url(#x)"/><path d="m15.2852 105.138c.1445 0 .2813-.038.403-.099l3.1179 3.122h10.403c.1217.366.4639.625.8669.625.5096 0 .9202-.412.9202-.922s-.4106-.921-.9202-.921c-.403 0-.7452.259-.8669.624h-10.1597l-2.9429-2.947c.0608-.122.0988-.259.0988-.404 0-.51-.4106-.921-.9201-.921s-.9202.411-.9202.921.4107.922.9202.922z" stroke="url(#y)"/><path d="m6.35742 137.277c.40304 0 .74524-.259.86692-.625h9.26996l12.8897-12.909h4.4031l3.9391 3.945h8.0457c.1673 0 .2965-.137.2965-.297s-.1368-.297-.2965-.297h-7.7947l-3.9392-3.945h-4.8973l-12.8897 12.909h-9.01906c-.12167-.365-.46388-.624-.86692-.624-.5095 0-.92015.411-.92015.921s.41065.922.92015.922z" stroke="url(#z)"/><path d="m2.1749 170.398h7.51331l7.25479-7.265h10l6.0304-6.04h7.0114c.1673 0 .2966-.137.2966-.297s-.1369-.297-.2966-.297h-7.2624l-6.0304 6.04h-10l-7.25474 7.265h-7.26236c-.12167-.365-.46387-.624-.86692-.624-.509501 0-.920147.411-.920147.921 0 .511.410646.922.920147.922.40305 0 .74525-.259.86692-.625z" stroke="url(#A)"/><path d="m16.0228 173.643c-.5095 0-.9201.411-.9201.921s.4106.922.9201.922c.1445 0 .2814-.038.4031-.099l4.0532 4.059h13.0494l3.3764 3.381h8.8213c.1673 0 .2966-.137.2966-.297s-.1369-.297-.2966-.297h-8.5703l-3.3764-3.381h-13.0495l-3.8783-3.884c.0608-.122.0989-.259.0989-.404 0-.51-.4107-.921-.9202-.921z" stroke="url(#B)"/><path d="m86.5932 261.203c-.1445 0-.2814.038-.4031.099l-7.0798-7.091v-11.721l6.3118-6.321.0836-.091v-9.132c0-.167-.1369-.297-.2966-.297s-.2965.137-.2965.297v8.888l-6.3118 6.321-.0837.092v12.216l7.2548 7.265c-.0609.122-.0989.259-.0989.404 0 .51.4107.921.9202.921s.9201-.411.9201-.921-.4106-.922-.9201-.922z" stroke="url(#C)"/><path d="m38.1825 215.82c.1369.533.6084.921 1.1787.921.6768 0 1.2244-.548 1.2244-1.226s-.5476-1.226-1.2244-1.226c-.5703 0-1.0494.396-1.1787.921h-8.9506l-5.1559 5.164c-.1901-.114-.403-.191-.6387-.191-.6768 0-1.2244.549-1.2244 1.227 0 .677.5476 1.226 1.2244 1.226s1.2243-.549 1.2243-1.226c0-.221-.0608-.427-.1673-.602l4.9962-5.004h8.7072zm1.1787-.922c.3422 0 .6236.282.6236.624 0 .343-.2814.625-.6236.625s-.6236-.282-.6236-.625c0-.342.2814-.624.6236-.624zm-15.9315 7.151c-.3422 0-.6236-.281-.6236-.624s.2814-.625.6236-.625.6235.282.6235.625-.2813.624-.6235.624z" stroke="url(#D)"/></g><g opacity=".3" stroke-miterlimit="10"><path d="m141.567 67.4693v6.7705c0 .1676-.137.297-.297.297s-.297-.137-.297-.297v-7.0218l4.381-4.3868v-2.6732c-.365-.1218-.624-.4645-.624-.8682 0-.5103.411-.9215.92-.9215.51 0 .92.4112.92.9215 0 .4037-.258.7464-.623.8682v2.9245z" stroke="url(#E)"/><path d="m153.065 76.2352v-3.9374l-3.483-3.4881v-18.2705c.532-.1371.92-.6093.92-1.1805 0-.6778-.548-1.2261-1.224-1.2261-.677 0-1.225.5483-1.225 1.2261 0 .5712.396 1.051.92 1.1805v18.5219l3.483 3.4881v3.6937c0 .1675.137.297.297.297s.296-.1371.296-.297zm-3.787-26.2596c-.343 0-.624-.2818-.624-.6245s.281-.6245.624-.6245c.342 0 .623.2818.623.6245s-.281.6245-.623.6245z" stroke="url(#F)"/><path d="m162.624 64.4611-5.126 5.1331v5.75c0 .1676.137.297.297.297.159 0 .296-.1371.296-.297v-5.4987l5.126-5.1331v-7.5854c.532-.1371.92-.6093.92-1.1805 0-.6778-.548-1.2262-1.224-1.2262-.677 0-1.225.5484-1.225 1.2262 0 .5712.396 1.051.92 1.1805v7.3417zm.296-7.8977c-.342 0-.623-.2818-.623-.6245s.281-.6245.623-.6245.624.2818.624.6245-.282.6245-.624.6245z" stroke="url(#G)"/><path d="m155.719 53.9206c-.365-.1219-.624-.4646-.624-.8682 0-.5103.411-.9215.92-.9215.51 0 .92.4112.92.9215 0 .4036-.258.7463-.623.8682v8.0729l.958.9596c.122-.061.259-.099.403-.099.51 0 .92.4112.92.9215 0 .5102-.41.9215-.92.9215-.509 0-.92-.4113-.92-.9215 0-.1447.038-.2818.099-.4037l-1.133-1.1347v-8.3242z" stroke="url(#H)"/><path d="m166.684 78.3753c0 .1676-.136.297-.296.297s-.297-.1371-.297-.297v-5.0341l5.012-5.0189v-15.8106l-3.24-3.2444c-.114.0533-.243.0838-.38.0838-.51 0-.92-.4113-.92-.9215 0-.5103.41-.9215.92-.9215.509 0 .92.4112.92.9215 0 .1523-.038.297-.106.4265l3.406 3.4119v16.3056l-5.011 5.0189v4.7828z" stroke="url(#I)"/><path d="m186.228 169.05h6.981l5.567 5.575h7.49l3.445-3.45c.19.122.411.191.654.191.677 0 1.224-.549 1.224-1.227 0-.677-.547-1.226-1.224-1.226s-1.224.549-1.224 1.226c0 .214.061.419.159.594l-3.285 3.29h-6.996l-5.567-5.574h-7.231c-.168 0-.297.137-.297.297s.137.297.297.297zm24.137 1.721c-.342 0-.624-.281-.624-.624s.282-.625.624-.625.624.282.624.625-.282.624-.624.624z" stroke="url(#J)"/><path d="m230.426 191.989c.152.503.616.876 1.163.876.677 0 1.225-.548 1.225-1.226s-.548-1.226-1.225-1.226c-.585 0-1.079.419-1.194.975h-16.342l-4.509 4.516h-11.932l-5.475-5.484h-10.403c-.167 0-.297.138-.297.297 0 .16.137.297.297.297h10.16l5.475 5.484h12.426l4.509-4.516h16.129zm.54-.35c0-.343.281-.625.623-.625.343 0 .624.282.624.625s-.281.624-.624.624c-.342 0-.623-.281-.623-.624z" stroke="url(#K)"/><path d="m222.304 218.813c-.106.182-.175.388-.175.616 0 .678.548 1.227 1.225 1.227.676 0 1.224-.549 1.224-1.227 0-.677-.548-1.226-1.224-1.226-.229 0-.441.069-.632.183l-10.509-10.525h-8.951l-6.92-6.931h-8.388l-4.752 4.76h-5.004c-.168 0-.297.137-.297.297s.137.297.297.297h5.254l4.753-4.76h7.894l6.92 6.931h8.951l10.334 10.35zm.426.616c0-.342.281-.624.624-.624.342 0 .623.282.623.624 0 .343-.281.625-.623.625-.343 0-.624-.282-.624-.625z" stroke="url(#L)"/><path d="m200.289 223.527h-14.167l-6.548-6.557h-8.616c-.167 0-.296-.138-.296-.297 0-.16.136-.298.296-.298h8.86l6.547 6.558h14.167l13.422 13.442c.114-.053.244-.084.373-.084.51 0 .92.411.92.922 0 .51-.41.921-.92.921s-.92-.411-.92-.921c0-.16.045-.305.114-.434z" stroke="url(#M)"/><path d="m178.829 233.694h-9.84l-6.426-6.435-.084-.092v-8.75c0-.168.137-.297.297-.297.159 0 .296.137.296.297v8.499l6.168 6.176h9.84l7.604 7.616.084.092v5.978c.365.122.624.465.624.868 0 .511-.411.922-.92.922-.51 0-.921-.411-.921-.922 0-.403.259-.746.624-.868v-5.735l-7.346-7.357z" stroke="url(#N)"/><path d="m217.369 202.484c-.091.411-.456.716-.898.716-.509 0-.92-.411-.92-.922 0-.51.411-.921.92-.921.373 0 .685.221.837.533h7.886l4.114 4.12c.114-.053.243-.084.38-.084.51 0 .92.412.92.922s-.41.922-.92.922c-.509 0-.92-.412-.92-.922 0-.152.046-.297.107-.426l-3.932-3.938z" stroke="url(#O)"/><path d="m183.278 49.2673c0-.6778-.548-1.2262-1.225-1.2262s-1.224.5484-1.224 1.2262c0 .2361.068.4493.182.6397l-3.292 3.2977v13.6553l2.829 2.8331c-.107.1828-.168.3885-.168.6093 0 .6778.548 1.2262 1.225 1.2262.676 0 1.224-.5484 1.224-1.2262s-.548-1.2261-1.224-1.2261c-.236 0-.449.0685-.632.1827l-2.646-2.6503v-13.1603l3.125-3.1301c.183.1066.388.1675.609.1675.677 0 1.224-.5483 1.224-1.2261zm-2.297 21.0351c0-.3427.281-.6245.624-.6245.342 0 .623.2818.623.6245s-.281.6245-.623.6245c-.343 0-.624-.2818-.624-.6245zm1.703-21.0351c0 .3427-.281.6245-.623.6245s-.624-.2818-.624-.6245.282-.6245.624-.6245.623.2818.623.6245z" stroke="url(#P)"/><path d="m203.285 75.3137c0-.6778-.547-1.2262-1.224-1.2262-.571 0-1.05.3961-1.179.9215h-7.346l-.091.0838-7.278 7.2884v5.4835h-9.315l-6.289 6.2983c-.114.1143-.114.3047 0 .4265.061.061.137.0838.213.0838s.152-.0305.213-.0838l6.114-6.1231h9.665v-5.8338l7.011-7.0219h7.103c.137.5331.608.9215 1.179.9215.677 0 1.224-.5483 1.224-1.2261zm-.593 0c0 .3427-.281.6245-.624.6245-.342 0-.623-.2818-.623-.6245s.281-.6245.623-.6245c.343 0 .624.2818.624.6245z" stroke="url(#Q)"/><path d="m212.973 99.776c0-.6778-.547-1.2261-1.224-1.2261-.593 0-1.087.4265-1.194.99h-13.658l-4.182-4.1887h-7.704l-4.532 4.5391c-.114.1147-.114.3047 0 .4267.061.061.137.084.213.084s.152-.031.213-.084l4.357-4.3641h7.209l4.183 4.1891h13.939c.16.495.616.86 1.156.86.677 0 1.224-.548 1.224-1.226zm-.593 0c0 .343-.281.625-.623.625-.343 0-.624-.282-.624-.625 0-.3427.281-.6245.624-.6245.342 0 .623.2818.623.6245z" stroke="url(#R)"/><path d="m220.89 125.442c0-.678-.548-1.227-1.225-1.227-.205 0-.403.061-.578.153l-8.699-8.713h-10.213l-4.905-4.912h-6.472c-.167 0-.296.137-.296.297s.137.297.296.297h6.221l4.905 4.912h10.213l8.502 8.515c-.129.19-.206.426-.206.67 0 .678.548 1.226 1.225 1.226s1.224-.548 1.224-1.226zm-.593 0c0 .342-.282.624-.624.624s-.624-.282-.624-.624c0-.343.282-.625.624-.625s.624.282.624.625z" stroke="url(#S)"/><path d="m230.312 154.412c0-.677-.548-1.226-1.225-1.226-.205 0-.395.054-.562.145l-5.977-5.986h-14.213l-7.354-7.365h-7.384c-.167 0-.297.137-.297.297s.137.297.297.297h7.141l7.353 7.365h14.213l5.78 5.788c-.13.198-.206.427-.206.678 0 .678.548 1.226 1.225 1.226.676 0 1.224-.548 1.224-1.226zm-.593 0c0 .343-.282.625-.624.625s-.624-.282-.624-.625c0-.342.282-.624.624-.624s.624.282.624.624z" stroke="url(#T)"/><path d="m193.658 233.824c0 .677.547 1.226 1.224 1.226.243 0 .464-.076.654-.191l4.654 4.661v13.069c-.532.137-.92.609-.92 1.181 0 .677.547 1.226 1.224 1.226s1.225-.549 1.225-1.226c0-.572-.396-1.051-.921-1.181v-13.313l-4.844-4.851c.099-.175.16-.373.16-.594 0-.678-.547-1.226-1.224-1.226s-1.225.548-1.225 1.226zm6.821 19.313c.342 0 .624.282.624.625s-.282.624-.624.624-.623-.281-.623-.624.281-.625.623-.625zm-6.228-19.313c0-.343.281-.625.624-.625.342 0 .623.282.623.625 0 .342-.281.624-.623.624-.343 0-.624-.282-.624-.624z" stroke="url(#U)"/><path d="m160.837 239.893c0 .678.547 1.227 1.224 1.227.258 0 .494-.084.692-.214l7.217 7.228v9.025c-.533.137-.921.609-.921 1.18 0 .678.548 1.226 1.225 1.226s1.224-.548 1.224-1.226c0-.571-.395-1.051-.92-1.18v-9.277l-.084-.091-7.33-7.342c.083-.167.136-.35.136-.556 0-.677-.547-1.226-1.224-1.226s-1.224.549-1.224 1.226zm9.422 17.814c.342 0 .623.282.623.625 0 .342-.281.624-.623.624-.343 0-.624-.282-.624-.624 0-.343.281-.625.624-.625zm-8.829-17.814c0-.342.281-.624.623-.624s.624.282.624.624c0 .343-.282.625-.624.625s-.623-.282-.623-.625z" stroke="url(#V)"/><path d="m139.293 243.618c0 .677.547 1.226 1.224 1.226s1.224-.549 1.224-1.226c0-.587-.41-1.067-.958-1.189v-14.013c0-.167-.137-.297-.296-.297-.16 0-.297.137-.297.297v14.036c-.509.145-.89.61-.89 1.173zm.593 0c0-.343.281-.625.624-.625.342 0 .623.282.623.625 0 .342-.281.624-.623.624-.343 0-.624-.282-.624-.624z" stroke="url(#W)"/><path d="m187.475 63.3568v7.6539l-6.03 6.0395h-7.247l-4.457 4.4629c-.06.0609-.136.0837-.212.0837-.077 0-.153-.0304-.213-.0837-.114-.1143-.114-.3047 0-.4265l4.631-4.6381h7.247l5.681-5.6891v-7.4026c-.365-.1219-.624-.4646-.624-.8683 0-.5102.411-.9215.92-.9215.51 0 .92.4113.92.9215 0 .4037-.258.7464-.623.8683z" stroke="url(#X)"/><path d="m208.54 87.4077c-.403 0-.745-.2589-.867-.6245h-4.259l-4.258 4.2649h-6.335c-.121.3656-.464.6246-.867.6246-.509 0-.92-.4113-.92-.9216 0-.5102.411-.9215.92-.9215.403 0 .746.2589.867.6245h6.092l4.258-4.2649h4.502c.122-.3656.464-.6245.867-.6245.509 0 .92.4113.92.9215 0 .5103-.411.9215-.92.9215z" stroke="url(#Y)"/><path d="m218.715 105.138c-.145 0-.282-.038-.403-.099l-3.118 3.122h-10.403c-.122.366-.464.625-.867.625-.51 0-.92-.412-.92-.922s.41-.921.92-.921c.403 0 .745.259.867.624h10.16l2.943-2.947c-.061-.122-.099-.259-.099-.404 0-.51.41-.921.92-.921.509 0 .92.411.92.921s-.411.922-.92.922z" stroke="url(#Z)"/><path d="m227.643 137.277c-.403 0-.746-.259-.867-.625h-9.27l-12.89-12.909h-4.403l-3.939 3.945h-8.046c-.167 0-.296-.137-.296-.297s.136-.297.296-.297h7.795l3.939-3.945h4.897l12.89 12.909h9.019c.122-.365.464-.624.867-.624.509 0 .92.411.92.921s-.411.922-.92.922z" stroke="url(#aa)"/><path d="m231.833 170.398h-7.514l-7.254-7.265h-10l-6.031-6.04h-7.011c-.167 0-.297-.137-.297-.297s.137-.297.297-.297h7.262l6.031 6.04h10l7.254 7.265h7.27c.122-.365.464-.624.867-.624.51 0 .92.411.92.921 0 .511-.41.922-.92.922-.403 0-.745-.259-.867-.625z" stroke="url(#ab)"/><path d="m217.985 173.643c.509 0 .92.411.92.921s-.411.922-.92.922c-.145 0-.282-.038-.403-.099l-4.053 4.059h-13.05l-3.376 3.381h-8.822c-.167 0-.296-.137-.296-.297s.137-.297.296-.297h8.571l3.376-3.381h13.05l3.878-3.884c-.061-.122-.099-.259-.099-.404 0-.51.411-.921.92-.921z" stroke="url(#ac)"/><path d="m147.407 261.203c.144 0 .281.038.403.099l7.08-7.091v-11.721l-6.312-6.321-.084-.091v-9.132c0-.167.137-.297.297-.297s.296.137.296.297v8.888l6.312 6.321.084.092v12.216l-7.255 7.265c.061.122.099.259.099.404 0 .51-.411.921-.92.921-.51 0-.92-.411-.92-.921s.41-.922.92-.922z" stroke="url(#ad)"/><path d="m204.525 215.82 4.996 5.003c-.099.175-.167.381-.167.602 0 .678.547 1.226 1.224 1.226s1.224-.548 1.224-1.226-.547-1.226-1.224-1.226c-.236 0-.456.068-.639.19l-5.156-5.164h-8.95c-.137-.533-.609-.921-1.179-.921-.677 0-1.224.548-1.224 1.226s.547 1.226 1.224 1.226c.57 0 1.049-.396 1.179-.921h8.707zm-9.263-.298c0 .343-.281.625-.623.625s-.624-.282-.624-.625c0-.342.282-.624.624-.624s.623.282.623.624zm14.685 5.903c0-.343.281-.625.623-.625.343 0 .624.282.624.625s-.281.624-.624.624c-.342 0-.623-.281-.623-.624z" stroke="url(#ae)"/></g><ellipse cx="117.49" cy="146.606" fill="url(#ag)" rx="3.42205" ry="3.42715"/><ellipse cx="117.49" cy="162.6" fill="url(#ah)" rx="2.66159" ry="2.66557"/><g stroke="#000080"><path d="m102.875 202.187v15.034c-.122 4.364-2.8978 8.377-6.8598 10.205-3.9544 1.836-9.0342 1.051-12.1141-2.033-3.0798-3.085-3.7034-8.256-1.4448-11.988" stroke-linecap="round" stroke-miterlimit="10" stroke-width="1.67"/><path d="m102.875 98.4203v-12.6805c-.122-4.3639-2.8978-8.3698-6.8598-10.2053-3.9544-1.8354-9.0342-1.051-12.1141 2.0335-3.0798 3.0844-3.8327 8.3165-1.5741 12.0483" stroke-linecap="round" stroke-miterlimit="10" stroke-width="1.67"/><path d="m86.6236 201.41c.327 5.438-2.251 10.982-6.6768 14.143-4.4259 3.161-10.5628 3.793-15.4905 1.5-4.9278-2.292-8.4335-7.448-8.6464-12.893-.1293-3.313.9277-6.695 3.0722-9.216s5.3917-4.12 8.7073-4.089" stroke-linecap="round" stroke-miterlimit="10" stroke-width="1.67"/><path d="m60.7452 164.039c-5.3308-.541-10.8593 2.224-13.6349 6.816-2.7757 4.593-2.6616 10.777.2813 15.262 2.943 4.486 8.5704 7.281 13.8784 6.55" stroke-linecap="round" stroke-miterlimit="10" stroke-width="1.67"/><path d="m45.7795 127.391c-2.4563-2.239-3.8555-5.582-3.7263-8.903.1293-3.32 1.7871-6.55 4.4031-8.591 1.2167-.952 2.6388-1.637 4.1293-2.025" stroke-linecap="round" stroke-miterlimit="10" stroke-width="1.67"/><path d="m61.8783 120.286c-3.8707-.305-7.5133-2.613-9.4981-5.948-1.9848-3.336-2.2813-7.616-.8213-11.219 1.4601-3.602 4.6388-6.4428 8.3575-7.5547 3.5057-1.0434 7.4372-.5559 10.5703 1.3252 3.1407 1.8811 5.4297 5.1175 6.1673 8.6975" stroke-linecap="round" stroke-miterlimit="10" stroke-width="1.67"/><path d="m63.2243 94.3914c-1.384-3.6175-1.1863-7.8063.54-11.2715 1.7262-3.4652 4.9429-6.1537 8.654-7.2351 3.711-1.0739 7.8707-.5255 11.1711 1.4851" stroke-linecap="round" stroke-miterlimit="10" stroke-width="1.67"/><path d="m48.9582 151.168c-3.9012-1.774-7.0114-5.308-8.1065-9.459-1.095-4.151-.1065-8.842 2.7148-12.071 2.8213-3.237 7.4297-4.851 11.6122-3.93" stroke-linecap="round" stroke-miterlimit="10" stroke-width="1.67"/><path d="m48.2738 168.746c-3.962-1.562-7.0495-5.172-7.9848-9.33-.9354-4.158.3118-8.743 3.2167-11.858" stroke-linecap="round" stroke-miterlimit="10" stroke-width="1.67"/><path d="m95.0951 99.3419c3.7642-1.6375 8.4029-1.0586 11.6579 1.4551 3.255 2.513 4.988 6.854 4.365 10.921-.624 4.067-3.574 7.692-7.43 9.108" stroke-linecap="round" stroke-miterlimit="10" stroke-width="1.67"/><path d="m98.076 200.093c2.517 2.086 6.259 2.559 9.217 1.165s4.981-4.585 4.973-7.86c0-3.275-2.023-6.466-4.988-7.852" stroke-linecap="round" stroke-miterlimit="10" stroke-width="1.67"/><path d="m107.673 118.26c3.734 2.285 5.703 7.136 4.608 11.386-.73 2.825-2.775 5.232-5.353 6.58v4.638" stroke-linecap="round" stroke-miterlimit="10" stroke-width="1.67"/><path d="m108.525 186.148c2.22.221 4.418-1.386 5.452-3.366s.966-4.433.114-6.497c-.699-1.698-1.977-3.229-3.688-3.907-1.711-.677-3.863-.335-5.057 1.067v-4.836" stroke-linecap="round" stroke-miterlimit="10" stroke-width="1.67"/><path d="m64.0456 107.186c.7453 3.001 2.8365 5.644 5.5894 7.045 2.7528 1.401 6.1141 1.546 8.981.373 2.8593-1.165 5.1711-3.625 6.1597-6.557" stroke-linecap="round" stroke-miterlimit="10" stroke-width="1.67"/><path d="m53.5665 141.389c2.7757 1.706 4.7757 4.623 5.3537 7.829.5855 3.207-.2586 6.649-2.2586 9.216" stroke-linecap="round" stroke-miterlimit="10" stroke-width="1.67"/><path d="m60.0837 179.994c4.2129-.434 8.2205-2.635 10.8517-5.963 2.6311-3.328 3.8555-7.738 3.3079-11.942" stroke-linecap="round" stroke-miterlimit="10" stroke-width="1.67"/><path d="m75.2395 208.181c-.8212-3.747.3194-7.875 2.9506-10.67 2.6312-2.788 6.6844-4.166 10.4639-3.557" stroke-linecap="round" stroke-miterlimit="10" stroke-width="1.67"/><path d="m71.019 173.94c2.5704 1.325 4.7453 3.396 6.1977 5.902 1.4449 2.506 2.1597 5.43 2.0228 8.324" stroke-linecap="round" stroke-miterlimit="10" stroke-width="1.67"/><path d="m56.616 144.146c2.6235-.304 5.095-1.744 6.654-3.876 1.5589-2.133 2.1901-4.928 1.6958-7.525" stroke-linecap="round" stroke-miterlimit="10" stroke-width="1.67"/><path d="m73.8403 115.579c-.3118 3.29.8061 6.687 3.019 9.139 2.2053 2.452 5.4677 3.922 8.7605 3.96" stroke-linecap="round" stroke-miterlimit="10" stroke-width="1.67"/><path d="m95.2624 176.049c-3.3537-2.384-5.4981-6.397-5.6046-10.51-.1065-4.112 1.8251-8.24 5.0494-10.791h8.2738" stroke-linecap="round" stroke-miterlimit="10" stroke-width="1.67"/><path d="m89.7567 161.823c-3.9924-.587-7.5134-3.648-8.654-7.517-1.1407-3.877.1444-8.355 3.1787-11.028" stroke-linecap="round" stroke-miterlimit="10" stroke-width="1.67"/><path d="m69.3688 149.957c2.5247-.83 4.7073-2.665 5.9544-5.011s1.5513-5.187.8289-7.746" stroke-linecap="round" stroke-miterlimit="10" stroke-width="1.67"/><path d="m97.5057 114.558c-1.7414 2.323-2.2509 5.522-1.308 8.271.9354 2.75 3.2852 4.966 6.0833 5.743" stroke-linecap="round" stroke-miterlimit="10" stroke-width="1.67"/><path d="m81.8707 97.6206c3.1331-.4265 6.0609-2.2238 7.8784-4.8209 1.8174-2.597 2.479-5.9708 1.8022-9.0629" stroke-linecap="round" stroke-miterlimit="10" stroke-width="1.67"/><path d="m92.8897 136.546c-.3954 3.084.616 6.321 2.6921 8.636h7.3992" stroke-linecap="round" stroke-miterlimit="10" stroke-width="1.67"/><path d="m101.247 193.292c-.608-2.575-2.1595-4.913-4.2964-6.466-2.1369-1.554-4.8365-2.308-7.4677-2.087" stroke-linecap="round" stroke-miterlimit="10" stroke-width="1.67"/><path d="m63.0418 203.474c1.2852-2.117 3.3841-3.724 5.7643-4.41 2.3802-.677 5.0114-.426 7.2167.693" stroke-linecap="round" stroke-miterlimit="10" stroke-width="1.67"/><path d="m78.692 107.262c0 .929-.7528 1.683-1.6806 1.683s-1.6806-.754-1.6806-1.683.7528-1.683 1.6806-1.683 1.6806.754 1.6806 1.683z" stroke-linecap="round" stroke-miterlimit="10" stroke-width="1.67"/><path d="m88.981 128.678c0 .929-.7529 1.683-1.6806 1.683-.9278 0-1.6806-.754-1.6806-1.683s.7528-1.683 1.6806-1.683c.9277 0 1.6806.754 1.6806 1.683z" stroke-linecap="round" stroke-miterlimit="10" stroke-width="1.67"/><path d="m94.692 134.436c.1977.906-.3802 1.805-1.2928 1.995-.9049.198-1.8022-.38-1.9924-1.294-.1977-.907.3803-1.805 1.2928-1.996.905-.198 1.8023.381 1.9924 1.295z" stroke-linecap="round" stroke-miterlimit="10" stroke-width="1.67"/><path d="m100.091 112.685c.221.906-.3267 1.812-1.2317 2.041-.9049.221-1.8099-.328-2.038-1.234-.2205-.906.327-1.812 1.2319-2.041.905-.221 1.8099.328 2.0378 1.234z" stroke-linecap="round" stroke-miterlimit="10" stroke-width="1.67"/><path d="m103.567 121.154c.22.906-.327 1.812-1.232 2.041-.905.221-1.81-.328-2.038-1.234-.221-.906.327-1.813 1.232-2.041.904-.221 1.809.327 2.038 1.234z" stroke-linecap="round" stroke-miterlimit="10" stroke-width="1.67"/><path d="m65.1863 105.579c0 .929-.7528 1.683-1.6806 1.683-.9277 0-1.6806-.754-1.6806-1.683s.7529-1.683 1.6806-1.683c.9278 0 1.6806.754 1.6806 1.683z" stroke-linecap="round" stroke-miterlimit="10" stroke-width="1.67"/><path d="m63.7567 122.258c.9281 0 1.6806-.753 1.6806-1.683s-.7525-1.683-1.6806-1.683c-.9282 0-1.6807.753-1.6807 1.683s.7525 1.683 1.6807 1.683z" stroke-linecap="round" stroke-miterlimit="10" stroke-width="1.67"/><path d="m58.5779 126.058c0 .93-.7528 1.683-1.6806 1.683-.9277 0-1.6806-.753-1.6806-1.683 0-.929.7529-1.683 1.6806-1.683.9278 0 1.6806.754 1.6806 1.683z" stroke-linecap="round" stroke-miterlimit="10" stroke-width="1.67"/><path d="m52.2738 152.09c0 .929-.7529 1.683-1.6806 1.683-.9278 0-1.6807-.754-1.6807-1.683 0-.93.7529-1.684 1.6807-1.684.9277 0 1.6806.754 1.6806 1.684z" stroke-linecap="round" stroke-miterlimit="10" stroke-width="1.67"/><path d="m64.2586 164.321c0 .929-.7529 1.683-1.6806 1.683-.9278 0-1.6807-.754-1.6807-1.683s.7529-1.683 1.6807-1.683c.9277 0 1.6806.754 1.6806 1.683z" stroke-linecap="round" stroke-miterlimit="10" stroke-width="1.67"/><path d="m75.7034 160.406c0 .929-.7528 1.683-1.6806 1.683-.9277 0-1.6806-.754-1.6806-1.683s.7529-1.683 1.6806-1.683c.9278 0 1.6806.754 1.6806 1.683z" stroke-linecap="round" stroke-miterlimit="10" stroke-width="1.67"/><path d="m80.9278 189.849c0 .929-.7529 1.683-1.6806 1.683-.9278 0-1.6807-.754-1.6807-1.683s.7529-1.683 1.6807-1.683c.9277 0 1.6806.754 1.6806 1.683z" stroke-linecap="round" stroke-miterlimit="10" stroke-width="1.67"/><path d="m70.9734 190.855c0 .929-.7529 1.683-1.6806 1.683-.9278 0-1.6806-.754-1.6806-1.683 0-.93.7528-1.684 1.6806-1.684.9277 0 1.6806.754 1.6806 1.684z" stroke-linecap="round" stroke-miterlimit="10" stroke-width="1.67"/><path d="m77.6198 209.864c0 .929-.7529 1.683-1.6806 1.683-.9278 0-1.6806-.754-1.6806-1.683s.7528-1.683 1.6806-1.683c.9277 0 1.6806.754 1.6806 1.683z" stroke-linecap="round" stroke-miterlimit="10" stroke-width="1.67"/><path d="m88.1977 199.491c0 .929-.7528 1.683-1.6806 1.683-.9277 0-1.6806-.754-1.6806-1.683s.7529-1.683 1.6806-1.683c.9278 0 1.6806.754 1.6806 1.683z" stroke-linecap="round" stroke-miterlimit="10" stroke-width="1.67"/><path d="m90.4259 195.988c.9281 0 1.6806-.754 1.6806-1.683 0-.93-.7525-1.684-1.6806-1.684-.9282 0-1.6807.754-1.6807 1.684 0 .929.7525 1.683 1.6807 1.683z" stroke-linecap="round" stroke-miterlimit="10" stroke-width="1.67"/><path d="m89.4829 184.701c0 .929-.7529 1.683-1.6806 1.683-.9278 0-1.6806-.754-1.6806-1.683s.7528-1.683 1.6806-1.683c.9277 0 1.6806.754 1.6806 1.683z" stroke-linecap="round" stroke-miterlimit="10" stroke-width="1.67"/><path d="m96.654 178.669c.9282 0 1.6806-.753 1.6806-1.683s-.7524-1.683-1.6806-1.683-1.6806.753-1.6806 1.683.7524 1.683 1.6806 1.683z" stroke-linecap="round" stroke-miterlimit="10" stroke-width="1.67"/><path d="m97.9924 162.401c-.0837.93-.8973 1.615-1.8175 1.531-.9278-.084-1.6122-.898-1.5285-1.82.0836-.929.8973-1.615 1.8175-1.531.9277.084 1.6121.899 1.5285 1.82z" stroke-linecap="round" stroke-miterlimit="10" stroke-width="1.67"/><path d="m89.1711 150.566c-.0836.93-.8973 1.615-1.8175 1.531-.9277-.084-1.6122-.898-1.5285-1.82.0836-.929.8973-1.615 1.8175-1.531.9277.084 1.6122.899 1.5285 1.82z" stroke-linecap="round" stroke-miterlimit="10" stroke-width="1.67"/><path d="m107.567 184.488c0 .929-.753 1.683-1.681 1.683s-1.681-.754-1.681-1.683c0-.93.753-1.684 1.681-1.684s1.681.754 1.681 1.684z" stroke-linecap="round" stroke-miterlimit="10" stroke-width="1.67"/><path d="m98.4107 198.745c0 .929-.7529 1.683-1.6807 1.683-.9277 0-1.6806-.754-1.6806-1.683 0-.93.7529-1.683 1.6806-1.683.9278 0 1.6807.753 1.6807 1.683z" stroke-linecap="round" stroke-miterlimit="10" stroke-width="1.67"/><path d="m91.0798 220.313c.2358.899-.3041 1.82-1.2015 2.056-.8973.236-1.8175-.304-2.0532-1.203s.3042-1.82 1.2015-2.056c.8974-.237 1.8175.304 2.0532 1.203z" stroke-linecap="round" stroke-miterlimit="10" stroke-width="1.67"/><path d="m53.711 140.285c0 .929-.7528 1.683-1.6806 1.683-.9277 0-1.6806-.754-1.6806-1.683s.7529-1.683 1.6806-1.683c.9278 0 1.6806.754 1.6806 1.683z" stroke-linecap="round" stroke-miterlimit="10" stroke-width="1.67"/><path d="m69.3232 150.711c0 .929-.7529 1.683-1.6806 1.683-.9278 0-1.6806-.754-1.6806-1.683s.7528-1.683 1.6806-1.683c.9277 0 1.6806.754 1.6806 1.683z" stroke-linecap="round" stroke-miterlimit="10" stroke-width="1.67"/><path d="m77.2015 135.411c0 .929-.7528 1.683-1.6806 1.683-.9277 0-1.6806-.754-1.6806-1.683s.7529-1.683 1.6806-1.683c.9278 0 1.6806.754 1.6806 1.683z" stroke-linecap="round" stroke-miterlimit="10" stroke-width="1.67"/><path d="m84.7681 109.555c.9281 0 1.6806-.754 1.6806-1.683 0-.93-.7525-1.684-1.6806-1.684-.9282 0-1.6806.754-1.6806 1.684 0 .929.7524 1.683 1.6806 1.683z" stroke-linecap="round" stroke-miterlimit="10" stroke-width="1.67"/><path d="m103.909 128.16c.22.907-.327 1.813-1.232 2.042-.905.22-1.81-.328-2.038-1.234-.221-.907.327-1.813 1.232-2.041.905-.221 1.81.327 2.038 1.233z" stroke-linecap="round" stroke-miterlimit="10" stroke-width="1.67"/><path d="m102.586 137.711c.22.906-.327 1.812-1.232 2.041-.905.221-1.8103-.328-2.0384-1.234-.2205-.906.327-1.813 1.2324-2.041.904-.221 1.809.327 2.038 1.234z" stroke-linecap="round" stroke-miterlimit="10" stroke-width="1.67"/><path d="m66.7605 132.555c.2205.906-.327 1.812-1.232 2.041-.9049.221-1.8099-.328-2.038-1.234-.2205-.906.327-1.813 1.2319-2.041.905-.221 1.8099.327 2.0381 1.234z" stroke-linecap="round" stroke-miterlimit="10" stroke-width="1.67"/><path d="m58.2433 158.076c.2206.906-.3269 1.812-1.2319 2.041-.9049.221-1.8099-.328-2.038-1.234-.2205-.906.327-1.813 1.2319-2.041.905-.221 1.8099.327 2.038 1.234z" stroke-linecap="round" stroke-miterlimit="10" stroke-width="1.67"/><path d="m61.4525 179.591c.2205.906-.327 1.812-1.232 2.041-.9049.221-1.8098-.328-2.038-1.234-.2205-.906.327-1.813 1.2319-2.041.905-.221 1.8099.327 2.0381 1.234z" stroke-linecap="round" stroke-miterlimit="10" stroke-width="1.67"/><path d="m64.6768 203.466c.2205.907-.327 1.813-1.2319 2.042-.905.22-1.8099-.328-2.0381-1.234-.2205-.907.327-1.813 1.232-2.041.9049-.221 1.8099.327 2.038 1.233z" stroke-linecap="round" stroke-miterlimit="10" stroke-width="1.67"/><path d="m96.2433 206.437c.4411.815.1369 1.843-.6768 2.284-.8136.442-1.8403.137-2.2813-.677-.4411-.815-.1369-1.843.6768-2.285s1.8403-.137 2.2813.678z" stroke-linecap="round" stroke-miterlimit="10" stroke-width="1.67"/><path d="m102.821 192.85c.221.883-.319 1.782-1.209 2.003-.882.221-1.7793-.32-1.9998-1.211-.2206-.883.3194-1.782 1.2088-2.003.882-.221 1.78.32 2 1.211z" stroke-linecap="round" stroke-miterlimit="10" stroke-width="1.67"/><path d="m85.8327 142.372c.403.837.0608 1.843-.7757 2.254-.8365.404-1.8403.061-2.2509-.777-.4031-.838-.0609-1.843.7757-2.254.8365-.404 1.8403-.061 2.2509.777z" stroke-linecap="round" stroke-miterlimit="10" stroke-width="1.67"/><path d="m100.57 170.01c.403.837.061 1.843-.7753 2.254-.8365.404-1.8403.061-2.251-.777-.403-.838-.0608-1.843.7757-2.254.8365-.404 1.8406-.061 2.2506.777z" stroke-linecap="round" stroke-miterlimit="10" stroke-width="1.67"/><path d="m81.6882 97.9938c0 .9291-.7528 1.6831-1.6806 1.6831s-1.6806-.754-1.6806-1.6831c0-.9292.7528-1.6831 1.6806-1.6831s1.6806.7539 1.6806 1.6831z" stroke-linecap="round" stroke-miterlimit="10" stroke-width="1.67"/><path d="m93.1255 83.4551c0 .9291-.7529 1.6831-1.6806 1.6831-.9278 0-1.6806-.754-1.6806-1.6831 0-.9292.7528-1.6831 1.6806-1.6831.9277 0 1.6806.7539 1.6806 1.6831z" stroke-linecap="round" stroke-miterlimit="10" stroke-width="1.67"/><path d="m84.7224 91.2308c0 .9292-.7528 1.6832-1.6806 1.6832-.9277 0-1.6806-.754-1.6806-1.6832 0-.9291.7529-1.6831 1.6806-1.6831.9278 0 1.6806.754 1.6806 1.6831z" stroke-linecap="round" stroke-miterlimit="10" stroke-width="1.67"/><path d="m95.1711 100.103c0 .93-.7528 1.684-1.6806 1.684s-1.6806-.754-1.6806-1.684c0-.9287.7528-1.6827 1.6806-1.6827s1.6806.754 1.6806 1.6827z" stroke-linecap="round" stroke-miterlimit="10" stroke-width="1.67"/><path d="m91.019 220.001c2.1825-1.097 3.8859-3.115 4.6084-5.453.7224-2.339.4486-4.966-.7301-7.106" stroke-linecap="round" stroke-miterlimit="10" stroke-width="1.67"/><path d="m102.981 162.257h-4.6464" stroke-linecap="round" stroke-miterlimit="10" stroke-width="1.67"/><path d="m103.148 150.422h-13.9693" stroke-linecap="round" stroke-miterlimit="10" stroke-width="1.67"/><path d="m103.407 166.392-4.3424 4.357" stroke-linecap="round" stroke-miterlimit="10" stroke-width="1.67"/><path d="m104.38 141.542-3.422-3.428" stroke-linecap="round" stroke-miterlimit="10" stroke-width="1.67"/><path d="m131.384 202.187v15.034c.122 4.364 2.897 8.377 6.859 10.205 3.955 1.836 9.035 1.051 12.114-2.033 3.08-3.085 3.704-8.256 1.445-11.988" stroke-linecap="round" stroke-miterlimit="10" stroke-width="1.67"/><path d="m131.384 98.4203v-12.6805c.122-4.3639 2.897-8.3698 6.859-10.2053 3.955-1.8354 9.035-1.051 12.114 2.0335 3.08 3.0844 3.833 8.3165 1.575 12.0483" stroke-linecap="round" stroke-miterlimit="10" stroke-width="1.67"/><path d="m147.627 201.41c-.327 5.438 2.251 10.982 6.677 14.143s10.563 3.793 15.491 1.5c4.927-2.292 8.433-7.448 8.646-12.893.129-3.313-.928-6.695-3.072-9.216-2.145-2.521-5.392-4.12-8.707-4.089" stroke-linecap="round" stroke-miterlimit="10" stroke-width="1.67"/><path d="m173.506 164.039c5.331-.541 10.859 2.224 13.635 6.816 2.775 4.593 2.661 10.777-.282 15.262-2.943 4.486-8.57 7.281-13.878 6.55" stroke-linecap="round" stroke-miterlimit="10" stroke-width="1.67"/><path d="m188.471 127.391c2.457-2.239 3.856-5.582 3.727-8.903-.13-3.32-1.787-6.55-4.403-8.591-1.217-.952-2.639-1.637-4.13-2.025" stroke-linecap="round" stroke-linejoin="round" stroke-width="1.67"/><path d="m172.38 120.286c3.871-.305 7.514-2.613 9.498-5.948 1.985-3.336 2.282-7.616.822-11.219-1.46-3.602-4.639-6.4428-8.358-7.5547-3.505-1.0434-7.437-.5559-10.57 1.3252-3.141 1.8811-5.43 5.1175-6.167 8.6975" stroke-linecap="round" stroke-linejoin="round" stroke-width="1.67"/><path d="m171.034 94.3914c1.384-3.6175 1.187-7.8063-.54-11.2715-1.726-3.4652-4.943-6.1537-8.654-7.2351-3.711-1.0739-7.87-.5255-11.171 1.4851" stroke-linecap="round" stroke-miterlimit="10" stroke-width="1.67"/><path d="m185.293 151.168c3.901-1.774 7.011-5.308 8.106-9.459 1.103-4.151.107-8.842-2.715-12.071-2.821-3.237-7.429-4.851-11.612-3.93" stroke-linecap="round" stroke-linejoin="round" stroke-width="1.67"/><path d="m185.977 168.746c3.962-1.562 7.05-5.172 7.985-9.33s-.312-8.743-3.217-11.858" stroke-linecap="round" stroke-linejoin="round" stroke-width="1.67"/><path d="m139.156 99.3419c-3.764-1.6375-8.403-1.0586-11.658 1.4551-3.255 2.513-4.988 6.854-4.365 10.921.624 4.067 3.574 7.692 7.43 9.108" stroke-linecap="round" stroke-miterlimit="10" stroke-width="1.67"/><path d="m136.175 200.093c-2.517 2.086-6.259 2.559-9.217 1.165s-4.981-4.585-4.973-7.86c0-3.275 2.023-6.466 4.988-7.852" stroke-linecap="round" stroke-miterlimit="10" stroke-width="1.67"/><path d="m126.586 118.26c-3.734 2.285-5.704 7.136-4.609 11.386.73 2.825 2.776 5.232 5.354 6.58v4.638" stroke-linecap="round" stroke-linejoin="round" stroke-width="1.67"/><path d="m125.726 186.148c-2.22.221-4.418-1.386-5.452-3.366s-.966-4.433-.114-6.497c.699-1.698 1.977-3.229 3.688-3.907 1.711-.677 3.863-.335 5.057 1.067v-4.836" stroke-linecap="round" stroke-linejoin="round" stroke-width="1.67"/><path d="m170.205 107.186c-.745 3.001-2.836 5.644-5.589 7.045s-6.114 1.546-8.981.373c-2.859-1.165-5.171-3.625-6.16-6.557" stroke-linecap="round" stroke-miterlimit="10" stroke-width="1.67"/><path d="m180.692 141.389c-2.776 1.706-4.776 4.623-5.354 7.829-.585 3.207.259 6.649 2.259 9.216" stroke-linecap="round" stroke-miterlimit="10" stroke-width="1.67"/><path d="m174.167 179.994c-4.213-.434-8.22-2.635-10.851-5.963-2.632-3.328-3.856-7.738-3.308-11.942" stroke-linecap="round" stroke-miterlimit="10" stroke-width="1.67"/><path d="m159.011 208.181c.822-3.747-.319-7.875-2.95-10.67s-6.685-4.166-10.464-3.557" stroke-linecap="round" stroke-miterlimit="10" stroke-width="1.67"/><path d="m163.24 173.94c-2.571 1.325-4.746 3.396-6.198 5.902-1.445 2.506-2.16 5.43-2.023 8.324" stroke-linecap="round" stroke-miterlimit="10" stroke-width="1.67"/><path d="m177.643 144.146c-2.624-.304-5.095-1.744-6.654-3.876-1.559-2.133-2.191-4.928-1.696-7.525" stroke-linecap="round" stroke-miterlimit="10" stroke-width="1.67"/><path d="m160.418 115.579c.312 3.29-.806 6.687-3.019 9.139-2.205 2.452-5.467 3.922-8.76 3.96" stroke-linecap="round" stroke-miterlimit="10" stroke-width="1.67"/><path d="m138.996 176.049c3.354-2.384 5.498-6.397 5.605-10.51.106-4.112-1.825-8.24-5.05-10.791h-8.273" stroke-linecap="round" stroke-miterlimit="10" stroke-width="1.67"/><path d="m144.494 161.823c3.993-.587 7.514-3.648 8.654-7.517 1.141-3.877-.144-8.355-3.178-11.028" stroke-linecap="round" stroke-miterlimit="10" stroke-width="1.67"/><path d="m164.882 149.957c-2.525-.83-4.707-2.665-5.954-5.011s-1.552-5.187-.829-7.746" stroke-linecap="round" stroke-miterlimit="10" stroke-width="1.67"/><path d="m136.745 114.558c1.742 2.323 2.251 5.522 1.308 8.271-.935 2.75-3.285 4.966-6.083 5.743" stroke-linecap="round" stroke-miterlimit="10" stroke-width="1.67"/><path d="m152.38 97.6206c-3.133-.4265-6.061-2.2238-7.878-4.8209-1.81-2.597-2.479-5.9708-1.802-9.0629" stroke-linecap="round" stroke-miterlimit="10" stroke-width="1.67"/><path d="m141.369 136.546c.395 3.084-.616 6.321-2.692 8.636h-7.399" stroke-linecap="round" stroke-miterlimit="10" stroke-width="1.67"/><path d="m133.004 193.292c.608-2.575 2.16-4.913 4.296-6.466 2.137-1.554 4.837-2.308 7.468-2.087" stroke-linecap="round" stroke-miterlimit="10" stroke-width="1.67"/><path d="m171.209 203.474c-1.285-2.117-3.384-3.724-5.764-4.41-2.38-.677-5.012-.426-7.217.693" stroke-linecap="round" stroke-miterlimit="10" stroke-width="1.67"/><path d="m155.567 107.262c0 .929.752 1.683 1.68 1.683s1.681-.754 1.681-1.683-.753-1.683-1.681-1.683-1.68.754-1.68 1.683z" stroke-linecap="round" stroke-linejoin="round" stroke-width="1.67"/><path d="m145.278 128.678c0 .929.752 1.683 1.68 1.683s1.681-.754 1.681-1.683-.753-1.683-1.681-1.683-1.68.754-1.68 1.683z" stroke-linecap="round" stroke-linejoin="round" stroke-width="1.67"/><path d="m139.567 134.436c-.198.906.38 1.805 1.292 1.995.905.198 1.803-.38 1.993-1.294.197-.907-.381-1.805-1.293-1.996-.905-.198-1.802.381-1.992 1.295z" stroke-linecap="round" stroke-linejoin="round" stroke-width="1.67"/><path d="m134.16 112.685c-.221.906.327 1.812 1.232 2.041.905.221 1.81-.328 2.038-1.234.22-.906-.327-1.812-1.232-2.041-.905-.221-1.81.328-2.038 1.234z" stroke-linecap="round" stroke-linejoin="round" stroke-width="1.67"/><path d="m130.692 121.154c-.221.906.327 1.812 1.232 2.041.905.221 1.81-.328 2.038-1.234.221-.906-.327-1.813-1.232-2.041-.905-.221-1.81.327-2.038 1.234z" stroke-linecap="round" stroke-linejoin="round" stroke-width="1.67"/><path d="m170.745 107.262c.928 0 1.681-.753 1.681-1.683 0-.929-.753-1.683-1.681-1.683s-1.68.754-1.68 1.683c0 .93.752 1.683 1.68 1.683z" stroke-linecap="round" stroke-linejoin="round" stroke-width="1.67"/><path d="m170.494 122.258c.928 0 1.681-.753 1.681-1.683s-.753-1.683-1.681-1.683-1.68.753-1.68 1.683.752 1.683 1.68 1.683z" stroke-linecap="round" stroke-linejoin="round" stroke-width="1.67"/><path d="m175.673 126.058c0 .93.753 1.683 1.681 1.683.927 0 1.68-.753 1.68-1.683 0-.929-.753-1.683-1.68-1.683-.928 0-1.681.754-1.681 1.683z" stroke-linecap="round" stroke-linejoin="round" stroke-width="1.67"/><path d="m181.985 152.09c0 .929.753 1.683 1.68 1.683.928 0 1.681-.754 1.681-1.683 0-.93-.753-1.684-1.681-1.684-.927 0-1.68.754-1.68 1.684z" stroke-linecap="round" stroke-linejoin="round" stroke-width="1.67"/><path d="m169.992 164.321c0 .929.753 1.683 1.681 1.683s1.681-.754 1.681-1.683-.753-1.683-1.681-1.683-1.681.754-1.681 1.683z" stroke-linecap="round" stroke-linejoin="round" stroke-width="1.67"/><path d="m158.555 160.406c0 .929.753 1.683 1.681 1.683s1.68-.754 1.68-1.683-.752-1.683-1.68-1.683-1.681.754-1.681 1.683z" stroke-linecap="round" stroke-linejoin="round" stroke-width="1.67"/><path d="m153.323 189.849c0 .929.753 1.683 1.681 1.683s1.68-.754 1.68-1.683-.752-1.683-1.68-1.683-1.681.754-1.681 1.683z" stroke-linecap="round" stroke-linejoin="round" stroke-width="1.67"/><path d="m163.278 190.855c0 .929.752 1.683 1.68 1.683s1.681-.754 1.681-1.683c0-.93-.753-1.684-1.681-1.684s-1.68.754-1.68 1.684z" stroke-linecap="round" stroke-linejoin="round" stroke-width="1.67"/><path d="m156.631 209.864c0 .929.753 1.683 1.681 1.683s1.68-.754 1.68-1.683-.752-1.683-1.68-1.683-1.681.754-1.681 1.683z" stroke-linecap="round" stroke-linejoin="round" stroke-width="1.67"/><path d="m146.061 199.491c0 .929.753 1.683 1.68 1.683.928 0 1.681-.754 1.681-1.683s-.753-1.683-1.681-1.683c-.927 0-1.68.754-1.68 1.683z" stroke-linecap="round" stroke-linejoin="round" stroke-width="1.67"/><path d="m143.825 195.988c.928 0 1.681-.754 1.681-1.683 0-.93-.753-1.684-1.681-1.684s-1.681.754-1.681 1.684c0 .929.753 1.683 1.681 1.683z" stroke-linecap="round" stroke-linejoin="round" stroke-width="1.67"/><path d="m144.776 184.701c0 .929.753 1.683 1.68 1.683.928 0 1.681-.754 1.681-1.683s-.753-1.683-1.681-1.683c-.927 0-1.68.754-1.68 1.683z" stroke-linecap="round" stroke-linejoin="round" stroke-width="1.67"/><path d="m137.605 178.669c.928 0 1.68-.753 1.68-1.683s-.752-1.683-1.68-1.683c-.929 0-1.681.753-1.681 1.683s.752 1.683 1.681 1.683z" stroke-linecap="round" stroke-linejoin="round" stroke-width="1.67"/><path d="m136.266 162.401c.084.93.898 1.615 1.818 1.531.927-.084 1.612-.898 1.528-1.82-.083-.929-.897-1.615-1.817-1.531-.928.084-1.612.899-1.529 1.82z" stroke-linecap="round" stroke-linejoin="round" stroke-width="1.67"/><path d="m145.08 150.566c.084.93.897 1.615 1.817 1.531.928-.084 1.613-.898 1.529-1.82-.084-.929-.897-1.615-1.818-1.531-.927.084-1.612.899-1.528 1.82z" stroke-linecap="round" stroke-linejoin="round" stroke-width="1.67"/><path d="m126.684 184.488c0 .929.753 1.683 1.681 1.683s1.681-.754 1.681-1.683c0-.93-.753-1.684-1.681-1.684s-1.681.754-1.681 1.684z" stroke-linecap="round" stroke-linejoin="round" stroke-width="1.67"/><path d="m135.848 198.745c0 .929.753 1.683 1.681 1.683.927 0 1.68-.754 1.68-1.683 0-.93-.753-1.683-1.68-1.683-.928 0-1.681.753-1.681 1.683z" stroke-linecap="round" stroke-linejoin="round" stroke-width="1.67"/><path d="m143.171 220.313c-.236.899.304 1.82 1.202 2.056.897.236 1.817-.304 2.053-1.203s-.304-1.82-1.202-2.056c-.897-.237-1.817.304-2.053 1.203z" stroke-linecap="round" stroke-linejoin="round" stroke-width="1.67"/><path d="m180.54 140.285c0 .929.753 1.683 1.681 1.683.927 0 1.68-.754 1.68-1.683s-.753-1.683-1.68-1.683c-.928 0-1.681.754-1.681 1.683z" stroke-linecap="round" stroke-linejoin="round" stroke-width="1.67"/><path d="m164.928 150.711c0 .929.753 1.683 1.68 1.683.928 0 1.681-.754 1.681-1.683s-.753-1.683-1.681-1.683c-.927 0-1.68.754-1.68 1.683z" stroke-linecap="round" stroke-linejoin="round" stroke-width="1.67"/><path d="m157.057 135.411c0 .929.753 1.683 1.681 1.683.927 0 1.68-.754 1.68-1.683s-.753-1.683-1.68-1.683c-.928 0-1.681.754-1.681 1.683z" stroke-linecap="round" stroke-linejoin="round" stroke-width="1.67"/><path d="m149.483 109.555c.928 0 1.68-.754 1.68-1.683 0-.93-.752-1.684-1.68-1.684s-1.681.754-1.681 1.684c0 .929.753 1.683 1.681 1.683z" stroke-miterlimit="10"/><path d="m130.342 128.16c-.22.907.327 1.813 1.232 2.042.905.22 1.81-.328 2.038-1.234.221-.907-.327-1.813-1.232-2.041-.905-.221-1.81.327-2.038 1.233z" stroke-miterlimit="10"/><path d="m131.665 137.711c-.22.906.327 1.812 1.232 2.041.905.221 1.81-.328 2.038-1.234.221-.906-.327-1.813-1.232-2.041-.905-.221-1.809.327-2.038 1.234z" stroke-miterlimit="10"/><path d="m167.49 132.555c-.22.906.327 1.812 1.232 2.041.905.221 1.81-.328 2.038-1.234.221-.906-.327-1.813-1.231-2.041-.905-.221-1.81.327-2.039 1.234z" stroke-miterlimit="10"/><path d="m176.008 158.076c-.221.906.327 1.812 1.232 2.041.905.221 1.809-.328 2.038-1.234.22-.906-.327-1.813-1.232-2.041-.905-.221-1.81.327-2.038 1.234z" stroke-miterlimit="10"/><path d="m172.806 179.591c-.22.906.327 1.812 1.232 2.041.905.221 1.81-.328 2.038-1.234.221-.906-.327-1.813-1.232-2.041-.905-.221-1.81.327-2.038 1.234z" stroke-miterlimit="10"/><path d="m169.582 203.466c-.221.907.327 1.813 1.232 2.042.905.22 1.81-.328 2.038-1.234.22-.907-.327-1.813-1.232-2.041-.905-.221-1.81.327-2.038 1.233z" stroke-miterlimit="10"/><path d="m138.015 206.437c-.441.815-.137 1.843.677 2.284.814.442 1.84.137 2.281-.677.441-.815.137-1.843-.676-2.285-.814-.442-1.841-.137-2.282.678z" stroke-miterlimit="10"/><path d="m131.43 192.85c-.221.883.319 1.782 1.209 2.003.882.221 1.779-.32 2-1.211.22-.883-.32-1.782-1.209-2.003-.882-.221-1.78.32-2 1.211z" stroke-miterlimit="10"/><path d="m148.426 142.372c-.403.837-.061 1.843.776 2.254.836.404 1.84.061 2.25-.777.404-.838.061-1.843-.775-2.254-.837-.404-1.84-.061-2.251.777z" stroke-miterlimit="10"/><path d="m133.681 170.01c-.403.837-.061 1.843.775 2.254.837.404 1.841.061 2.251-.777.403-.838.061-1.843-.775-2.254-.837-.404-1.841-.061-2.251.777z" stroke-miterlimit="10"/><path d="m152.57 97.9938c0 .9291.753 1.6831 1.681 1.6831s1.681-.754 1.681-1.6831c0-.9292-.753-1.6831-1.681-1.6831s-1.681.7539-1.681 1.6831z" stroke-linecap="round" stroke-linejoin="round" stroke-width="1.67"/><path d="m141.125 83.4551c0 .9291.753 1.6831 1.681 1.6831s1.681-.754 1.681-1.6831c0-.9292-.753-1.6831-1.681-1.6831s-1.681.7539-1.681 1.6831z" stroke-miterlimit="10"/><path d="m149.536 91.2308c0 .9292.753 1.6832 1.681 1.6832.927 0 1.68-.754 1.68-1.6832 0-.9291-.753-1.6831-1.68-1.6831-.928 0-1.681.754-1.681 1.6831z" stroke-linecap="round" stroke-linejoin="round" stroke-width="1.67"/><path d="m139.08 100.103c0 .93.753 1.684 1.68 1.684.928 0 1.681-.754 1.681-1.684 0-.9287-.753-1.6827-1.681-1.6827-.927 0-1.68.754-1.68 1.6827z" stroke-linecap="round" stroke-linejoin="round" stroke-width="1.67"/><path d="m143.232 220.001c-2.183-1.097-3.886-3.115-4.608-5.453-.723-2.339-.449-4.966.73-7.106" stroke-linecap="round" stroke-miterlimit="10" stroke-width="1.67"/><path d="m131.278 162.257h4.646" stroke-linecap="round" stroke-linejoin="round" stroke-width="1.67"/><path d="m131.11 150.422h13.962" stroke-linecap="round" stroke-linejoin="round" stroke-width="1.67"/><path d="m130.844 166.392 4.35 4.357" stroke-linecap="round" stroke-linejoin="round" stroke-width="1.67"/><path d="m129.878 141.542 3.422-3.428" stroke-linecap="round" stroke-linejoin="round" stroke-width="1.67"/></g><rect fill="#fff" height="27.222" rx="4" width="27.0358" x="103.602" y="141.226"/><path d="m127.498 168.845h-20.859c-2.015 0-3.658-1.645-3.658-3.664v-20.89c0-2.018 1.643-3.663 3.658-3.663h20.859c2.015 0 3.658 1.645 3.658 3.663v20.89c0 2.019-1.643 3.664-3.658 3.664zm-20.859-27.357c-1.544 0-2.806 1.257-2.806 2.811v20.89c0 1.546 1.254 2.81 2.806 2.81h20.859c1.544 0 2.806-1.256 2.806-2.81v-20.89c0-1.546-1.255-2.811-2.806-2.811z" fill="#000080"/><path d="m126.798 142.882h-19.467c-1.171 0-2.114.944-2.114 2.117v19.497c0 1.173.943 2.117 2.114 2.117h19.467c1.172 0 2.115-.944 2.115-2.117v-19.497c0-1.173-.943-2.117-2.115-2.117zm-8.897 17.973-.973-2.688h-5.247l-.974 2.688h-3.582l5.476-13.822h3.46l5.498 13.822h-3.65zm8.152 0h-3.513v-13.822h3.513z" fill="#77d2c4"/><path d="m112.707 155.281h3.187l-1.597-4.425z" fill="#77d2c4"/></g></svg>