<svg width="281" height="217" viewBox="0 0 281 217" fill="none" xmlns="http://www.w3.org/2000/svg">
<g clip-path="url(#clip0_507_33114)">
<path d="M253.597 162.701H181.372C177.808 162.701 175.168 159.748 175.483 156.104L179.376 110.624C179.69 106.979 182.833 104.027 186.398 104.027H258.622C262.187 104.027 264.827 106.979 264.512 110.624L260.619 156.104C260.304 159.748 257.162 162.701 253.597 162.701Z" fill="url(#paint0_linear_507_33114)"/>
<path d="M211.035 129.695C210.466 136.347 204.73 141.738 198.231 141.738C191.731 141.738 186.914 136.347 187.483 129.695C188.053 123.044 193.788 117.652 200.288 117.652L200.817 111.494C190.987 111.494 182.324 119.639 181.459 129.689C180.602 139.738 187.872 147.883 197.701 147.883C207.531 147.883 216.195 139.738 217.059 129.689H211.035V129.695Z" fill="#0000DD"/>
<path d="M219.163 127.024C220.021 116.974 212.751 108.829 202.921 108.829L202.392 114.988C208.898 114.988 213.709 120.379 213.139 127.031H219.163V127.024Z" fill="#407BFF"/>
<path d="M219.163 127.024C220.021 116.974 212.751 108.829 202.921 108.829L202.392 114.988C208.898 114.988 213.709 120.379 213.139 127.031H219.163V127.024Z" fill="white"/>
<path d="M204.415 129.695C204.154 132.723 201.547 135.176 198.586 135.176C195.624 135.176 193.433 132.723 193.694 129.695C193.956 126.668 196.562 124.215 199.524 124.215L199.765 121.413C195.289 121.413 191.349 125.119 190.954 129.695C190.565 134.272 193.869 137.978 198.345 137.978C202.821 137.978 206.76 134.272 207.156 129.695H204.415Z" fill="#407BFF"/>
<path opacity="0.7" d="M204.415 129.695C204.154 132.723 201.547 135.176 198.586 135.176C195.624 135.176 193.433 132.723 193.694 129.695C193.956 126.668 196.562 124.215 199.524 124.215L199.765 121.413C195.289 121.413 191.349 125.119 190.954 129.695C190.565 134.272 193.869 137.978 198.345 137.978C202.821 137.978 206.76 134.272 207.156 129.695H204.415Z" fill="white"/>
<path d="M208.121 128.483C208.509 123.907 205.206 120.201 200.73 120.201L200.489 123.003C203.45 123.003 205.641 125.455 205.38 128.483H208.121Z" fill="#407BFF"/>
<path d="M242.836 111.501L242.307 117.659C248.813 117.659 253.624 123.051 253.054 129.702C252.485 136.354 246.749 141.745 240.249 141.745C233.75 141.745 228.932 136.354 229.502 129.702C229.783 126.38 231.365 123.366 233.683 121.187L229.797 116.837C226.292 120.132 223.914 124.681 223.485 129.702C222.627 139.752 229.897 147.897 239.727 147.897C249.556 147.897 258.22 139.752 259.085 129.702C259.949 119.653 252.672 111.508 242.843 111.508L242.836 111.501Z" fill="#407BFF"/>
<path d="M242.836 111.501L242.307 117.659C248.813 117.659 253.624 123.051 253.054 129.702C252.485 136.354 246.749 141.745 240.249 141.745C233.75 141.745 228.932 136.354 229.502 129.702C229.783 126.38 231.365 123.366 233.683 121.187L229.797 116.837C226.292 120.132 223.914 124.681 223.485 129.702C222.627 139.752 229.897 147.897 239.727 147.897C249.556 147.897 258.22 139.752 259.085 129.702C259.949 119.653 252.672 111.508 242.843 111.508L242.836 111.501Z" fill="white"/>
<path d="M228.638 113.453L232.524 117.803C234.842 115.625 237.904 114.275 241.154 114.275L241.683 108.117C236.765 108.117 232.142 110.151 228.644 113.446L228.638 113.453Z" fill="#407BFF"/>
<path opacity="0.3" d="M228.638 113.453L232.524 117.803C234.842 115.625 237.904 114.275 241.154 114.275L241.683 108.117C236.765 108.117 232.142 110.151 228.644 113.446L228.638 113.453Z" fill="black"/>
<path d="M242.039 120.845L241.784 123.784C244.893 123.784 247.191 126.359 246.916 129.538C246.642 132.716 243.908 135.292 240.799 135.292C237.69 135.292 235.392 132.716 235.666 129.538C235.8 127.949 236.558 126.51 237.663 125.469L235.807 123.386C234.132 124.962 232.993 127.133 232.792 129.531C232.383 134.333 235.854 138.224 240.551 138.224C245.248 138.224 249.389 134.333 249.798 129.531C250.206 124.729 246.736 120.838 242.039 120.838V120.845Z" fill="#77D2C4"/>
<path d="M235.251 121.783L237.107 123.866C238.213 122.824 239.673 122.181 241.228 122.181L241.482 119.242C239.137 119.242 236.926 120.214 235.251 121.79V121.783Z" fill="#77D2C4"/>
<path opacity="0.3" d="M235.251 121.783L237.107 123.866C238.213 122.824 239.673 122.181 241.228 122.181L241.482 119.242C239.137 119.242 236.926 120.214 235.251 121.79V121.783Z" fill="#77D2C4"/>
<path d="M189.487 155.864C188.441 155.864 187.664 154.994 187.751 153.925C187.845 152.857 188.77 151.987 189.815 151.987C190.86 151.987 191.637 152.857 191.55 153.925C191.457 154.994 190.532 155.864 189.487 155.864Z" fill="white"/>
<path d="M208.911 154.905H194.753C194.217 154.905 193.829 154.46 193.875 153.918C193.922 153.37 194.391 152.932 194.927 152.932H209.086C209.622 152.932 210.01 153.377 209.963 153.918C209.916 154.466 209.447 154.905 208.911 154.905Z" fill="white"/>
<path d="M205.025 158.789H194.425C193.889 158.789 193.5 158.344 193.547 157.803C193.594 157.255 194.063 156.816 194.599 156.816H205.199C205.735 156.816 206.124 157.261 206.077 157.803C206.03 158.351 205.561 158.789 205.025 158.789Z" fill="white"/>
<path d="M230.547 155.864C229.502 155.864 228.725 154.994 228.812 153.925C228.906 152.857 229.83 151.987 230.876 151.987C231.921 151.987 232.698 152.857 232.611 153.925C232.517 154.994 231.592 155.864 230.547 155.864Z" fill="white"/>
<path d="M249.972 154.905H235.814C235.278 154.905 234.889 154.46 234.936 153.918C234.983 153.37 235.452 152.932 235.988 152.932H250.146C250.682 152.932 251.071 153.377 251.024 153.918C250.977 154.466 250.508 154.905 249.972 154.905Z" fill="white"/>
<path d="M246.079 158.789H235.479C234.943 158.789 234.554 158.344 234.601 157.803C234.648 157.255 235.117 156.816 235.653 156.816H246.253C246.789 156.816 247.178 157.261 247.131 157.803C247.084 158.351 246.615 158.789 246.079 158.789Z" fill="white"/>
<path d="M160.353 187.506H52.1467C48.5821 187.506 45.9421 184.553 46.257 180.909L52.274 110.624C52.589 106.979 55.7315 104.027 59.2961 104.027H167.509C171.074 104.027 173.714 106.979 173.399 110.624L167.382 180.909C167.067 184.553 163.924 187.506 160.36 187.506H160.353Z" fill="#E4F4FF"/>
<path d="M56.6696 166.489H53.9224L57.5942 123.544H60.3414L56.6696 166.489Z" fill="#00007D"/>
<path d="M60.5625 166.489H57.8153L60.5156 134.902H63.2628L60.5625 166.489Z" fill="#77D2C4"/>
<path d="M66.7404 166.489H63.9932L65.7621 145.849H68.5093L66.7404 166.489Z" fill="#00007D"/>
<path d="M70.6334 166.489H67.8862L69.9968 141.869H72.744L70.6334 166.489Z" fill="#77D2C4"/>
<path d="M76.8179 166.489H74.0707L77.2066 129.791H79.9538L76.8179 166.489Z" fill="#00007D"/>
<path d="M80.7109 166.489H77.9637L80.664 134.902H83.4112L80.7109 166.489Z" fill="#77D2C4"/>
<path d="M86.8888 166.489H84.1416L86.8486 134.902H89.5958L86.8888 166.489Z" fill="#00007D"/>
<path d="M90.7817 166.489H88.0345L91.4183 126.942H94.1655L90.7817 166.489Z" fill="#77D2C4"/>
<path d="M96.9663 166.489H94.2191L96.055 145.02H98.8022L96.9663 166.489Z" fill="#00007D"/>
<path d="M100.853 166.489H98.1054L100.812 134.902H103.56L100.853 166.489Z" fill="#77D2C4"/>
<path d="M107.037 166.489H104.29L107.432 129.791H110.18L107.037 166.489Z" fill="#00007D"/>
<path d="M110.93 166.489H108.183L111.989 121.968H114.736L110.93 166.489Z" fill="#77D2C4"/>
<path d="M117.108 166.489H114.361L115.366 154.802H118.113L117.108 166.489Z" fill="#00007D"/>
<path d="M121.001 166.489H118.254L120.11 144.849H122.857L121.001 166.489Z" fill="#77D2C4"/>
<path d="M127.186 166.489H124.438L126.201 145.849H128.948L127.186 166.489Z" fill="#00007D"/>
<path d="M131.079 166.489H128.331L131.795 125.948H134.543L131.079 166.489Z" fill="#77D2C4"/>
<path d="M137.256 166.489H134.509L136.787 139.875H139.534L137.256 166.489Z" fill="#00007D"/>
<path d="M141.149 166.489H138.402L142.811 115.001H145.558L141.149 166.489Z" fill="#77D2C4"/>
<path d="M147.334 166.489H144.587L147.542 131.915H150.289L147.334 166.489Z" fill="#00007D"/>
<path d="M151.22 166.489H148.473L151.18 134.902H153.927L151.22 166.489Z" fill="#77D2C4"/>
<path d="M157.405 166.489H154.658L158.383 122.962H161.13L157.405 166.489Z" fill="#00007D"/>
<path d="M161.298 166.489H158.55L160.742 140.868H163.489L161.298 166.489Z" fill="#77D2C4"/>
<path d="M55.6176 178.217C54.1234 178.217 53.0245 176.984 53.1518 175.456C53.2791 173.929 54.5991 172.695 56.0866 172.695C57.5808 172.695 58.6797 173.929 58.5524 175.456C58.4251 176.984 57.1051 178.217 55.6176 178.217Z" fill="#00007D"/>
<path d="M83.2571 176.86H63.1087C62.3516 176.86 61.7887 176.23 61.8557 175.456C61.9227 174.682 62.5928 174.052 63.3499 174.052H83.4983C84.2555 174.052 84.8183 174.682 84.7513 175.456C84.6843 176.23 84.0142 176.86 83.2571 176.86Z" fill="#263238"/>
<path d="M77.7158 182.382H62.633C61.8758 182.382 61.313 181.752 61.38 180.978C61.447 180.203 62.117 179.573 62.8742 179.573H77.957C78.7142 179.573 79.277 180.203 79.21 180.978C79.143 181.752 78.4729 182.382 77.7158 182.382Z" fill="#263238"/>
<path d="M83.2571 176.86H63.1087C62.3516 176.86 61.7887 176.23 61.8557 175.456C61.9227 174.682 62.5928 174.052 63.3499 174.052H83.4983C84.2555 174.052 84.8183 174.682 84.7513 175.456C84.6843 176.23 84.0142 176.86 83.2571 176.86Z" fill="#77D2C4"/>
<path d="M77.7158 182.382H62.633C61.8758 182.382 61.313 181.752 61.38 180.978C61.447 180.203 62.117 179.573 62.8742 179.573H77.957C78.7142 179.573 79.277 180.203 79.21 180.978C79.143 181.752 78.4729 182.382 77.7158 182.382Z" fill="#77D2C4"/>
<path d="M95.4587 178.217C93.9645 178.217 92.8656 176.984 92.9929 175.456C93.1202 173.929 94.4402 172.695 95.9277 172.695C97.4219 172.695 98.5208 173.929 98.3935 175.456C98.2662 176.984 96.9462 178.217 95.4587 178.217Z" fill="#407BFF"/>
<path d="M95.4587 178.217C93.9645 178.217 92.8656 176.984 92.9929 175.456C93.1202 173.929 94.4402 172.695 95.9277 172.695C97.4219 172.695 98.5208 173.929 98.3935 175.456C98.2662 176.984 96.9462 178.217 95.4587 178.217Z" fill="#00007D"/>
<path d="M123.091 176.86H102.943C102.186 176.86 101.623 176.23 101.69 175.456C101.757 174.682 102.427 174.052 103.184 174.052H123.333C124.09 174.052 124.653 174.682 124.586 175.456C124.519 176.23 123.849 176.86 123.091 176.86Z" fill="#263238"/>
<path d="M117.557 182.382H102.474C101.717 182.382 101.154 181.752 101.221 180.978C101.288 180.203 101.958 179.573 102.715 179.573H117.798C118.555 179.573 119.118 180.203 119.051 180.978C118.984 181.752 118.314 182.382 117.557 182.382Z" fill="#263238"/>
<path d="M123.091 176.86H102.943C102.186 176.86 101.623 176.23 101.69 175.456C101.757 174.682 102.427 174.052 103.184 174.052H123.333C124.09 174.052 124.653 174.682 124.586 175.456C124.519 176.23 123.849 176.86 123.091 176.86Z" fill="#77D2C4"/>
<path d="M117.557 182.382H102.474C101.717 182.382 101.154 181.752 101.221 180.978C101.288 180.203 101.958 179.573 102.715 179.573H117.798C118.555 179.573 119.118 180.203 119.051 180.978C118.984 181.752 118.314 182.382 117.557 182.382Z" fill="#77D2C4"/>
<path d="M135.293 178.217C133.799 178.217 132.7 176.984 132.827 175.456C132.955 173.929 134.275 172.695 135.762 172.695C137.256 172.695 138.355 173.929 138.228 175.456C138.101 176.984 136.781 178.217 135.293 178.217Z" fill="#77D2C4"/>
<path d="M162.926 176.86H142.778C142.02 176.86 141.458 176.23 141.525 175.456C141.592 174.682 142.262 174.052 143.019 174.052H163.167C163.924 174.052 164.487 174.682 164.42 175.456C164.353 176.23 163.683 176.86 162.926 176.86Z" fill="#263238"/>
<path d="M157.391 182.382H142.308C141.551 182.382 140.988 181.752 141.055 180.978C141.122 180.203 141.793 179.573 142.55 179.573H157.633C158.39 179.573 158.953 180.203 158.885 180.978C158.818 181.752 158.148 182.382 157.391 182.382Z" fill="#263238"/>
<path d="M162.926 176.86H142.778C142.02 176.86 141.458 176.23 141.525 175.456C141.592 174.682 142.262 174.052 143.019 174.052H163.167C163.924 174.052 164.487 174.682 164.42 175.456C164.353 176.23 163.683 176.86 162.926 176.86Z" fill="#77D2C4"/>
<path d="M157.391 182.382H142.308C141.551 182.382 140.988 181.752 141.055 180.978C141.122 180.203 141.793 179.573 142.55 179.573H157.633C158.39 179.573 158.953 180.203 158.885 180.978C158.818 181.752 158.148 182.382 157.391 182.382Z" fill="#77D2C4"/>
<path d="M270.087 97.4162H207.169C203.605 97.4162 200.965 94.4637 201.279 90.8193L204.623 51.7583C204.938 48.1139 208.08 45.1614 211.645 45.1614H274.563C278.127 45.1614 280.767 48.1139 280.452 51.7583L277.109 90.8193C276.794 94.4637 273.651 97.4162 270.087 97.4162Z" fill="url(#paint1_linear_507_33114)"/>
<path d="M234.367 68.7678C233.804 75.3442 228.135 80.6738 221.703 80.6738C215.27 80.6738 210.513 75.3442 211.076 68.7678C211.638 62.1914 217.307 56.8618 223.74 56.8618C230.172 56.8618 234.929 62.1914 234.367 68.7678Z" fill="#407BFF"/>
<path opacity="0.7" d="M234.367 68.7678C233.804 75.3442 228.135 80.6738 221.703 80.6738C215.27 80.6738 210.513 75.3442 211.076 68.7678C211.638 62.1914 217.307 56.8618 223.74 56.8618C230.172 56.8618 234.929 62.1914 234.367 68.7678Z" fill="white"/>
<path d="M226.245 66.6579C226.024 69.2679 225.046 71.3778 222.493 71.3778C219.94 71.3778 219.331 69.2611 219.552 66.6579C219.773 64.0479 220.751 61.938 223.304 61.938C225.857 61.938 226.467 64.0548 226.245 66.6579Z" fill="#263238"/>
<path d="M222.373 72.8439C217.026 72.8439 214.131 74.0564 212.764 75.8443C214.634 78.7695 217.863 80.6739 221.703 80.6739C225.542 80.6739 229.093 78.7695 231.465 75.8443C230.406 74.0564 227.713 72.8439 222.373 72.8439Z" fill="#263238"/>
<path d="M261.812 55.4781H242.903C242.018 55.4781 241.362 54.7451 241.442 53.8409C241.523 52.9366 242.3 52.2036 243.184 52.2036H262.093C262.978 52.2036 263.634 52.9366 263.554 53.8409C263.473 54.7451 262.696 55.4781 261.812 55.4781Z" fill="white"/>
<path d="M266.85 67.5554H241.864C240.98 67.5554 240.323 66.8224 240.404 65.9181C240.484 65.0139 241.261 64.2809 242.146 64.2809H267.132C268.016 64.2809 268.673 65.0139 268.593 65.9181C268.512 66.8224 267.735 67.5554 266.85 67.5554Z" fill="white"/>
<path d="M271.4 73.5974H241.355C240.471 73.5974 239.814 72.8644 239.894 71.9601C239.975 71.0559 240.752 70.3229 241.636 70.3229H271.681C272.566 70.3229 273.223 71.0559 273.142 71.9601C273.062 72.8644 272.285 73.5974 271.4 73.5974Z" fill="white"/>
<path d="M268.861 79.6395H240.839C239.955 79.6395 239.298 78.9065 239.378 78.0022C239.459 77.098 240.236 76.365 241.121 76.365H269.142C270.027 76.365 270.683 77.098 270.603 78.0022C270.522 78.9065 269.745 79.6395 268.861 79.6395Z" fill="white"/>
<path d="M265.303 85.6815H240.316C239.432 85.6815 238.775 84.9485 238.856 84.0442C238.936 83.14 239.713 82.407 240.598 82.407H265.584C266.468 82.407 267.125 83.14 267.045 84.0442C266.964 84.9485 266.187 85.6815 265.303 85.6815Z" fill="white"/>
<path d="M267.822 91.7168H239.801C238.916 91.7168 238.259 90.9838 238.34 90.0795C238.42 89.1753 239.198 88.4423 240.082 88.4423H268.103C268.988 88.4423 269.645 89.1753 269.564 90.0795C269.484 90.9838 268.706 91.7168 267.822 91.7168Z" fill="white"/>
<path d="M188.281 97.4165H80.0676C76.503 97.4165 73.863 94.464 74.1779 90.8195L80.1949 20.5344C80.5099 16.89 83.6524 13.9375 87.217 13.9375H195.43C198.995 13.9375 201.635 16.89 201.32 20.5344L195.303 90.8195C194.988 94.464 191.845 97.4165 188.281 97.4165Z" fill="#C6D7FF"/>
<mask id="mask0_507_33114" style="mask-type:alpha" maskUnits="userSpaceOnUse" x="74" y="13" width="128" height="85">
<path opacity="0.7" d="M188.281 97.4165H80.0676C76.503 97.4165 73.863 94.464 74.1779 90.8195L80.1949 20.5344C80.5099 16.89 83.6524 13.9375 87.217 13.9375H195.43C198.995 13.9375 201.635 16.89 201.32 20.5344L195.303 90.8195C194.988 94.464 191.845 97.4165 188.281 97.4165Z" fill="white"/>
</mask>
<g mask="url(#mask0_507_33114)">
<path fill-rule="evenodd" clip-rule="evenodd" d="M167.005 72.8669C163.596 81.8141 159.725 88.5798 154.73 89.2091C153.427 89.0414 152.279 88.438 151.26 87.4737C148.389 83.754 145.882 74.835 144.403 66.6849L144.306 67.8209C143.621 63.7596 143.043 59.4362 142.469 55.1496L142.469 55.1493L142.469 55.1493L142.467 55.1351L142.467 55.132C139.954 36.3357 137.582 18.5883 126.694 18.5883C115.806 18.5883 110.392 36.3376 104.663 55.1351C99.5506 71.9118 94.2639 89.257 85.8079 89.257C81.8546 89.257 78.176 77.3167 76.2463 66.6849L75.3551 77.0633C77.4591 84.7357 80.749 92.3671 85.5398 92.3671C96.4281 92.3671 101.842 74.6177 107.571 55.8202C112.684 39.0436 117.97 21.6983 126.426 21.6983C134.88 21.6983 137.199 39.0338 139.443 55.8061L139.445 55.8202L139.446 55.8233C141.458 70.8797 143.381 85.263 149.662 90.3907C150.869 91.6328 152.211 92.3671 153.697 92.3671C153.954 92.3671 154.209 92.3572 154.46 92.3375C154.708 92.3572 154.961 92.3671 155.218 92.3671C161.952 92.3671 166.139 84.3835 169.765 73.9774C171.868 68.4841 173.78 62.2128 175.728 55.8202C180.84 39.0436 186.127 21.6983 194.583 21.6983C203.037 21.6983 205.356 39.0338 207.6 55.8061L207.602 55.8202L207.603 55.8233L207.603 55.8236C209.615 70.8799 211.538 85.2631 217.819 90.3907C219.026 91.6328 220.368 92.3671 221.854 92.3671C222.111 92.3671 222.366 92.3572 222.617 92.3375C222.865 92.3572 223.118 92.3671 223.375 92.3671C230.109 92.3671 234.296 84.3835 237.922 73.9776C240.025 68.4842 241.937 62.2128 243.885 55.8202C248.997 39.0436 254.284 21.6983 262.74 21.6983C271.194 21.6983 273.513 39.0339 275.757 55.8062L275.759 55.8202L275.76 55.8233V55.8235C277.772 70.8799 279.695 85.2633 285.976 90.3909C287.183 91.6328 288.525 92.3671 290.011 92.3671C290.268 92.3671 290.522 92.3571 290.774 92.3375C291.022 92.3571 291.275 92.3671 291.532 92.3671C298.266 92.3671 302.453 84.3837 306.078 73.9779C308.182 68.4845 310.094 62.213 312.042 55.8202C317.154 39.0436 322.441 21.6983 330.897 21.6983C339.351 21.6983 341.67 39.0339 343.914 55.8062L343.916 55.8202L343.917 55.8233C346.429 74.6196 348.801 92.3671 359.689 92.3671C368.788 92.3671 373.237 77.7894 377.934 62.3555C389.962 22.8942 386.662 23.5199 375.033 61.6773C370.899 75.2411 366.624 89.257 359.957 89.257C351.503 89.257 349.184 71.9215 346.94 55.1493L346.938 55.1351L346.938 55.132C344.425 36.3357 342.053 18.5883 331.165 18.5883C323.463 18.5883 318.5 27.4694 314.227 39.3205C312.446 44.1143 309.953 51.5823 306.876 61.6773C305.718 65.478 304.548 69.3142 303.318 72.8675C299.91 81.8144 296.039 88.5798 291.043 89.2091C289.741 89.0414 288.593 88.438 287.574 87.4738C284.703 83.7541 282.196 74.835 280.717 66.6849L280.62 67.8211C279.935 63.7596 279.356 59.4361 278.783 55.1494V55.1493L278.781 55.1351L278.781 55.132V55.1319C276.268 36.3356 273.896 18.5883 263.008 18.5883C255.306 18.5883 250.343 27.4702 246.07 39.322C244.289 44.1158 241.796 51.5833 238.719 61.6773C237.561 65.4778 236.391 69.3139 235.161 72.8671C231.753 81.8142 227.882 88.5798 222.887 89.2091C221.584 89.0414 220.436 88.438 219.417 87.4737C216.546 83.754 214.039 74.835 212.56 66.6849L212.463 67.821C211.778 63.7596 211.2 59.4361 210.626 55.1494L210.626 55.1492L210.624 55.1351L210.624 55.132C208.111 36.3357 205.739 18.5883 194.851 18.5883C187.149 18.5883 182.186 27.4704 177.913 39.3224C176.132 44.1162 173.639 51.5836 170.562 61.6773C169.404 65.4777 168.235 69.3137 167.005 72.8669Z" fill="#77D2C4"/>
<path d="M159.796 89.3908C159.582 91.8638 157.451 93.8641 155.032 93.8641C152.613 93.8641 150.824 91.8569 151.039 89.3908C151.253 86.9178 153.384 84.9175 155.803 84.9175C158.221 84.9175 160.01 86.9246 159.796 89.3908Z" fill="#00007D"/>
<path d="M157.592 89.3908C157.484 90.617 156.426 91.6172 155.226 91.6172C154.027 91.6172 153.136 90.6239 153.243 89.3908C153.35 88.1646 154.409 87.1644 155.608 87.1644C156.808 87.1644 157.699 88.1577 157.592 89.3908Z" fill="white"/>
<path d="M164.627 70.4426H149.451C147.836 70.4426 146.415 71.7785 146.275 73.4294L146.033 76.2586C145.893 77.9096 147.085 79.2454 148.7 79.2454H153.719L155.226 81.5745C155.608 82.1637 156.466 82.1637 156.948 81.5745L158.858 79.2454H163.877C165.492 79.2454 166.912 77.9096 167.053 76.2586L167.294 73.4294C167.435 71.7785 166.242 70.4426 164.627 70.4426Z" fill="#00007D"/>
<path d="M163.441 74.1966H149.638C149.216 74.1966 148.908 73.8473 148.948 73.4225C148.982 72.991 149.357 72.6484 149.772 72.6484H163.575C163.997 72.6484 164.306 72.9978 164.265 73.4225C164.232 73.8541 163.857 74.1966 163.441 74.1966Z" fill="white"/>
<path d="M155.716 77.0053H149.397C148.975 77.0053 148.667 76.656 148.707 76.2313C148.74 75.7997 149.116 75.4572 149.531 75.4572H155.85C156.272 75.4572 156.58 75.8065 156.54 76.2313C156.506 76.6628 156.131 77.0053 155.716 77.0053Z" fill="white"/>
<path d="M91.8933 89.8977C91.6789 92.3707 89.5481 94.3711 87.1292 94.3711C84.7104 94.3711 82.9213 92.3639 83.1357 89.8977C83.3502 87.4247 85.4809 85.4244 87.8998 85.4244C90.3187 85.4244 92.1077 87.4316 91.8933 89.8977Z" fill="#00007D"/>
<path d="M89.6888 89.8978C89.5816 91.124 88.5229 92.1241 87.3235 92.1241C86.1242 92.1241 85.233 91.1308 85.3402 89.8978C85.4474 88.6715 86.5061 87.6714 87.7055 87.6714C88.9049 87.6714 89.796 88.6647 89.6888 89.8978Z" fill="white"/>
<path d="M96.7243 70.9564H81.5477C79.9329 70.9564 78.5124 72.2922 78.3717 73.9432L78.1305 76.7724C77.9898 78.4234 79.1825 79.7592 80.7973 79.7592H85.8159L87.3236 82.0883C87.7055 82.6775 88.5631 82.6775 89.0456 82.0883L90.9552 79.7592H95.9739C97.5887 79.7592 99.0092 78.4234 99.1499 76.7724L99.3911 73.9432C99.5318 72.2922 98.3392 70.9564 96.7243 70.9564Z" fill="#00007D"/>
<path d="M95.5383 74.7104H81.7353C81.3132 74.7104 81.005 74.3611 81.0452 73.9363C81.0787 73.5048 81.4539 73.1622 81.8693 73.1622H95.6723C96.0945 73.1622 96.4027 73.5116 96.3625 73.9363C96.329 74.3679 95.9538 74.7104 95.5383 74.7104Z" fill="white"/>
<path d="M87.8127 77.5191H81.4941C81.072 77.5191 80.7638 77.1698 80.804 76.745C80.8375 76.3135 81.2127 75.9709 81.6281 75.9709H87.9467C88.3688 75.9709 88.677 76.3203 88.6368 76.745C88.6033 77.1766 88.2281 77.5191 87.8127 77.5191Z" fill="white"/>
<path d="M113.982 42.0446C113.768 44.5176 111.637 46.5179 109.218 46.5179C106.799 46.5179 105.01 44.5107 105.225 42.0446C105.439 39.5716 107.57 37.5713 109.989 37.5713C112.408 37.5713 114.197 39.5785 113.982 42.0446Z" fill="#263238"/>
<path d="M111.037 43.5793C111.943 42.6922 112.032 41.2842 111.236 40.4344C110.44 39.5846 109.06 39.6148 108.154 40.5018C107.248 41.3889 107.159 42.7969 107.955 43.6468C108.751 44.4966 110.131 44.4664 111.037 43.5793Z" fill="#77D2C4"/>
<path d="M118.813 23.1033H103.637C102.022 23.1033 100.601 24.4391 100.461 26.09L100.219 28.9193C100.079 30.5702 101.271 31.906 102.886 31.906H107.905L109.412 34.2352C109.794 34.8243 110.652 34.8243 111.134 34.2352L113.044 31.906H118.063C119.678 31.906 121.098 30.5702 121.239 28.9193L121.48 26.09C121.621 24.4391 120.428 23.1033 118.813 23.1033Z" fill="#77D2C4"/>
<path d="M117.627 26.8573H103.824C103.402 26.8573 103.094 26.5079 103.134 26.0832C103.168 25.6516 103.543 25.3091 103.958 25.3091H117.761C118.183 25.3091 118.492 25.6585 118.451 26.0832C118.418 26.5148 118.043 26.8573 117.627 26.8573Z" fill="#263238"/>
<path d="M109.902 29.666H103.583C103.161 29.666 102.853 29.3166 102.893 28.8919C102.926 28.4603 103.302 28.1178 103.717 28.1178H110.036C110.458 28.1178 110.766 28.4672 110.726 28.8919C110.692 29.3235 110.317 29.666 109.902 29.666Z" fill="#263238"/>
<path d="M182.148 42.0446C181.934 44.5176 179.803 46.5179 177.384 46.5179C174.965 46.5179 173.176 44.5107 173.391 42.0446C173.605 39.5716 175.736 37.5713 178.155 37.5713C180.574 37.5713 182.363 39.5785 182.148 42.0446Z" fill="#263238"/>
<path d="M179.944 42.0446C179.837 43.2708 178.778 44.271 177.579 44.271C176.379 44.271 175.488 43.2777 175.595 42.0446C175.702 40.8184 176.761 39.8182 177.96 39.8182C179.16 39.8182 180.051 40.8115 179.944 42.0446Z" fill="#77D2C4"/>
<path d="M186.973 23.1033H171.796C170.181 23.1033 168.761 24.4391 168.62 26.09L168.379 28.9193C168.238 30.5702 169.431 31.906 171.046 31.906H176.064L177.572 34.2352C177.954 34.8243 178.811 34.8243 179.294 34.2352L181.204 31.906H186.222C187.837 31.906 189.258 30.5702 189.398 28.9193L189.639 26.09C189.78 24.4391 188.588 23.1033 186.973 23.1033Z" fill="#77D2C4"/>
<path d="M185.787 26.8573H171.984C171.562 26.8573 171.253 26.5079 171.294 26.0832C171.327 25.6516 171.702 25.3091 172.118 25.3091H185.921C186.343 25.3091 186.651 25.6585 186.611 26.0832C186.577 26.5148 186.202 26.8573 185.787 26.8573Z" fill="#263238"/>
<path d="M178.068 29.666H171.749C171.327 29.666 171.019 29.3166 171.059 28.8919C171.093 28.4603 171.468 28.1178 171.883 28.1178H178.202C178.624 28.1178 178.932 28.4672 178.892 28.8919C178.858 29.3235 178.483 29.666 178.068 29.666Z" fill="#263238"/>
</g>
<path d="M28.2796 49.4018L26.3699 52.8065L24.5005 56.2796C23.2676 58.6019 22.0883 60.9448 21.0162 63.2944C20.4802 64.4727 19.971 65.651 19.5086 66.8293L19.4215 67.0416C19.4215 67.0416 19.4014 67.0759 19.3947 67.0896C19.3679 67.1238 19.3545 67.1512 19.3411 67.1855C19.3076 67.2471 19.2808 67.3019 19.254 67.3773C19.2071 67.528 19.2205 67.7883 19.3344 68.1377C19.5421 68.8433 20.1653 69.7544 20.9291 70.6107C21.6796 71.467 22.6445 72.3438 23.5155 73.1179L21.961 76.502C21.1704 76.2691 20.5137 76.0362 19.8169 75.7279C19.1267 75.4334 18.4634 75.0703 17.7933 74.6661C16.48 73.8372 15.1533 72.8097 14.0611 71.1245C13.5318 70.2819 13.0695 69.2406 12.8953 68.0349C12.8149 67.4321 12.788 66.8087 12.8618 66.1922C12.8953 65.8839 12.9422 65.5756 13.0159 65.2879L13.1231 64.8495L13.2035 64.5823C13.6323 63.1985 14.0678 61.8285 14.5838 60.5063C15.5889 57.8484 16.7279 55.2795 17.9608 52.7791C18.5773 51.5255 19.2205 50.2924 19.8973 49.073C20.574 47.8468 21.2374 46.6617 22.0146 45.4218L28.2863 49.3881L28.2796 49.4018Z" fill="#FFC3BD"/>
<path d="M21.8404 72.7411L25.318 71.8163L25.519 77.5638C25.519 77.5638 22.7986 77.9748 21.1302 76.2759L21.8404 72.7479V72.7411Z" fill="#FFC3BD"/>
<path d="M30.2562 70.8436L29.4723 75.8924L25.5257 77.557L25.3247 71.8164L30.2562 70.8436Z" fill="#FFC3BD"/>
<path d="M44.6489 22.329C44.7293 22.7195 44.9973 23.0003 45.2452 22.9455C45.4998 22.8907 45.6338 22.5345 45.5601 22.1372C45.4797 21.7467 45.2117 21.4658 44.9638 21.5206C44.7092 21.5754 44.5751 21.9317 44.6489 22.329Z" fill="#263238"/>
<path d="M44.9638 23.0072C44.9638 23.0072 46.2905 25.0966 47.4698 25.9871C46.9203 26.7749 45.7009 26.7201 45.7009 26.7201L44.9638 23.0072Z" fill="#ED847E"/>
<path d="M42.8062 20.4383C42.7526 20.4383 42.6923 20.4178 42.6521 20.3767C42.5583 20.2876 42.5516 20.1369 42.6387 20.041C43.5031 19.0819 44.5551 19.2532 44.602 19.26C44.7293 19.2806 44.8097 19.4039 44.7896 19.5341C44.7695 19.6642 44.6489 19.7464 44.5216 19.7259C44.4881 19.7259 43.6639 19.5957 42.9737 20.363C42.9268 20.4109 42.8665 20.4383 42.8062 20.4383Z" fill="#263238"/>
<path d="M33.6936 27.8573C34.3904 31.4949 35.0873 38.1672 32.5947 40.5922C32.5947 40.5922 33.5663 44.2846 40.1796 44.2846C47.4564 44.2846 43.6572 40.5922 43.6572 40.5922C39.6905 39.6263 39.791 36.6121 40.4812 33.7829L33.6869 27.8505L33.6936 27.8573Z" fill="#FFC3BD"/>
<path d="M31.1608 41.2704C30.6315 40.2565 30.0418 39.0988 31.2546 38.7426C32.588 38.3452 41.1512 37.6054 43.6639 38.3521C42.8933 39.7564 44.1999 41.4827 44.1999 41.4827L31.1608 41.2704Z" fill="#000080"/>
<path d="M9.61202 210.948C10.1012 211.058 10.5903 211.085 10.8248 210.88C10.9253 210.79 11.0258 210.626 10.9387 210.331C10.8918 210.174 10.7913 210.057 10.6439 209.982C9.98725 209.66 8.47964 210.29 8.41263 210.318C8.37243 210.338 8.34563 210.379 8.33893 210.421C8.33893 210.468 8.36573 210.51 8.40593 210.53C8.63375 210.647 9.12959 210.832 9.61872 210.941L9.61202 210.948ZM10.4027 210.153C10.4496 210.167 10.4965 210.181 10.5367 210.201C10.6305 210.249 10.6841 210.311 10.7109 210.4C10.7712 210.612 10.6975 210.681 10.6707 210.701C10.4094 210.927 9.43781 210.722 8.75436 210.441C9.21669 210.277 9.96715 210.057 10.4027 210.153Z" fill="#407BFF"/>
<path d="M8.42604 210.551C8.42604 210.551 8.46625 210.551 8.47965 210.551C9.02909 210.386 10.2084 209.53 10.2218 208.968C10.2218 208.865 10.1883 208.68 9.92695 208.585C9.75944 208.523 9.58523 208.537 9.41772 208.626C8.76777 208.968 8.35904 210.345 8.33894 210.4C8.32554 210.441 8.33894 210.489 8.36574 210.516C8.37914 210.53 8.39924 210.544 8.42604 210.551ZM9.80634 208.79C9.80634 208.79 9.83985 208.797 9.85995 208.804C10.0007 208.852 10.0007 208.927 10.0007 208.955C9.99396 209.29 9.2167 209.962 8.64716 210.229C8.78787 209.831 9.11619 209.044 9.53162 208.831C9.62543 208.783 9.71924 208.77 9.81304 208.79H9.80634Z" fill="#407BFF"/>
<path d="M45.54 211.784C46.1632 211.784 46.7662 211.695 46.9672 211.407C47.0409 211.304 47.0945 211.133 46.9605 210.893C46.8868 210.756 46.7595 210.66 46.592 210.619C45.7812 210.393 44.0793 211.386 44.0123 211.427C43.9721 211.455 43.9453 211.503 43.9587 211.551C43.9654 211.599 44.0056 211.64 44.0525 211.647C44.3607 211.708 44.9638 211.784 45.5467 211.784H45.54ZM46.3106 210.818C46.391 210.818 46.4647 210.825 46.5317 210.845C46.6389 210.873 46.7126 210.927 46.7595 211.01C46.8399 211.153 46.8131 211.229 46.7796 211.27C46.5518 211.592 45.3256 211.599 44.4211 211.469C44.87 211.229 45.741 210.818 46.3106 210.818Z" fill="#407BFF"/>
<path d="M44.0726 211.647C44.0726 211.647 44.1061 211.647 44.1195 211.633C44.7092 211.366 45.8684 210.29 45.7812 209.722C45.7611 209.592 45.6673 209.427 45.3524 209.393C45.1179 209.366 44.9035 209.434 44.7159 209.592C44.0994 210.112 43.9654 211.455 43.9587 211.51C43.9587 211.551 43.9721 211.592 44.0056 211.619C44.0257 211.633 44.0525 211.64 44.0726 211.64V211.647ZM45.2586 209.633C45.2586 209.633 45.3055 209.633 45.3256 209.633C45.5333 209.653 45.5467 209.736 45.5534 209.763C45.607 210.099 44.8164 210.948 44.22 211.311C44.2803 210.921 44.4545 210.119 44.8633 209.777C44.9839 209.674 45.1179 209.626 45.2653 209.626L45.2586 209.633Z" fill="#407BFF"/>
<path d="M38.7189 211.53H43.5902L44.0726 200.008H39.2081L38.7189 211.53Z" fill="#FFC3BD"/>
<path d="M3.00534 209.228L7.76269 210.283L12.5334 199.549L7.77609 198.494L3.00534 209.228Z" fill="#FFC3BD"/>
<path d="M8.21832 209.79L2.87803 208.605C2.68371 208.564 2.4827 208.66 2.40229 208.845L0.546257 212.962C0.351943 213.387 0.606561 213.887 1.06219 213.983C2.93163 214.359 3.863 214.449 6.21487 214.969C7.66218 215.291 10.9253 216.099 12.9221 216.545C14.8719 216.976 15.609 215.024 14.825 214.661C11.334 213.03 9.87334 211.592 8.92857 210.256C8.76105 210.016 8.50644 209.852 8.21832 209.783V209.79Z" fill="#263238"/>
<path d="M43.5567 210.955H38.2432C38.0422 210.955 37.8747 211.099 37.8278 211.297L36.8696 215.723C36.7691 216.182 37.1108 216.613 37.5665 216.606C39.4828 216.572 42.2568 216.456 44.6623 216.456C47.4765 216.456 49.9155 216.613 53.2188 216.613C55.2155 216.613 55.7717 214.551 54.9341 214.359C51.1282 213.51 48.0192 213.414 44.7293 211.345C44.3742 211.119 43.9788 210.955 43.5567 210.955Z" fill="#263238"/>
<path d="M23.884 41.7225C19.321 42.7911 15.562 54.6971 15.562 54.6971L24.7216 61.8352C24.7216 61.8352 28.0853 58.595 29.5795 52.642C31.1474 46.4013 28.5476 40.6333 23.884 41.7293V41.7225Z" fill="#000080"/>
<path opacity="0.2" d="M27.7971 50.4773C25.318 52.9846 24.5139 57.5469 24.3196 61.5133L24.7216 61.8284C24.7216 61.8284 28.0853 58.5813 29.5862 52.6283C29.68 52.2584 29.7604 51.8816 29.8274 51.5186L27.7971 50.4705V50.4773Z" fill="black"/>
<path d="M51.1484 41.976C51.1484 41.976 54.8805 45.7163 53.4734 65.5893C53.0982 70.8436 51.1349 77.235 50.1098 84.9759H27.3951C27.2142 80.8931 27.7368 60.9653 23.8841 41.7157C23.8841 41.7157 28.3466 40.7977 32.5947 40.5922C35.9181 40.4278 40.7358 40.3182 43.6572 40.5922C47.51 40.9553 51.1417 41.976 51.1417 41.976H51.1484Z" fill="#CFCFCF"/>
<path opacity="0.2" d="M53.7816 58.6224C53.3528 55.7315 52.8972 53.2106 52.4348 51.039L52.2941 50.95L45.1648 54.0052C45.5065 58.5333 50.1969 63.1094 53.46 65.7742C53.46 65.7126 53.4734 65.6509 53.4801 65.5893C53.661 62.9998 53.7615 60.6912 53.7883 58.6155L53.7816 58.6224Z" fill="black"/>
<path opacity="0.2" d="M44.0726 200.015L43.8247 205.954H38.9535L39.2014 200.015H44.0726Z" fill="black"/>
<path opacity="0.2" d="M7.77608 198.501L12.5334 199.549L10.0743 205.084L5.3103 204.029L7.77608 198.501Z" fill="black"/>
<path d="M31.6566 24.1581C32.9096 28.926 33.3987 31.7826 36.2799 33.7692C40.6085 36.7491 46.0024 33.3308 46.1699 28.2752C46.324 23.7265 44.2535 16.6912 39.2483 15.7321C34.3167 14.7868 30.4103 19.3971 31.6566 24.165V24.1581Z" fill="#FFC3BD"/>
<path d="M42.2032 84.976C42.2032 84.976 36.682 122.996 33.6467 137.238C30.3299 152.836 12.5267 204.44 12.5267 204.44L3.8161 202.515C3.8161 202.515 16.2656 160.461 19.053 138.649C20.2926 128.935 20.4735 112.432 22.0682 100.28C23.2274 91.4839 27.3951 84.9691 27.3951 84.9691H42.2032V84.976Z" fill="#CFCFCF"/>
<path d="M14.6106 201.474C14.6508 201.481 12.9891 204.694 12.9891 204.694L3.18625 202.522L4.01041 199.508L14.6106 201.467V201.474Z" fill="#000080"/>
<path opacity="0.2" d="M38.7123 98.526C32.3267 99.807 33.0034 124.153 33.774 136.676C35.6166 127.825 38.3102 110.795 40.1529 98.7041C39.7307 98.4849 39.255 98.4164 38.7123 98.526Z" fill="black"/>
<path d="M50.1098 84.976C50.1098 84.976 52.1065 122.174 51.5772 137.347C51.0277 153.131 45.6338 204.796 45.6338 204.796H37.3922C37.3922 204.796 37.0907 154.049 36.7222 138.546C36.3202 121.653 34.3301 84.9691 34.3301 84.9691H50.1165L50.1098 84.976Z" fill="#CFCFCF"/>
<path d="M47.2219 201.447C47.2621 201.447 46.7595 204.947 46.7595 204.947H36.7289L36.4609 201.823L47.2219 201.447Z" fill="#000080"/>
<path d="M52.8546 45.3407C53.9279 46.238 55.1402 47.2406 56.3237 48.1519C57.5282 49.0634 58.7265 49.977 59.9548 50.8302C62.3989 52.5408 64.9244 54.1308 67.4639 55.2985C68.095 55.6007 68.7329 55.8575 69.3624 56.0881L69.8315 56.2568C69.7934 56.2478 69.6578 56.2423 69.5836 56.2525C69.4075 56.2748 69.3414 56.3328 69.3922 56.3375C69.5043 56.358 69.9364 56.1212 70.3547 55.7522C70.7794 55.381 71.241 54.904 71.6797 54.377C73.4517 52.2344 75.1182 49.5147 76.6631 46.9001L80.0743 48.2399C79.2738 51.5584 78.2164 54.6668 76.4087 57.8077C75.9447 58.588 75.4339 59.3765 74.758 60.155C74.08 60.9269 73.2893 61.7434 71.9594 62.4144C71.2936 62.7359 70.446 62.9951 69.4839 63.0042C69.0155 63.0154 68.4971 62.9351 68.0762 62.8297L67.4165 62.6594C66.5454 62.4224 65.6959 62.1421 64.8805 61.8362C61.6042 60.5886 58.6766 58.9301 55.8838 57.119C54.4992 56.1952 53.1423 55.2477 51.8411 54.2314C50.523 53.2063 49.2788 52.2143 47.9749 51.0117L52.8503 45.3493L52.8546 45.3407Z" fill="#FFC3BD"/>
<path d="M44.6658 51.1937C45.199 58.031 58.3924 60.5223 58.3924 60.5223L62.9143 49.3673C62.9143 49.3673 57.9635 45.326 52.5482 42.6411C45.8561 39.3279 44.2569 45.9931 44.6594 51.1958L44.6658 51.1937Z" fill="#000080"/>
<path d="M76.3433 48.4464L76.2733 42.2262L81.5366 43.0315C81.5366 43.0315 82.1813 47.3762 79.111 49.1784L76.3433 48.4464Z" fill="#FFC3BD"/>
<path d="M77.5941 40.0601L82.0435 39.8533L81.5365 43.0313L76.2732 42.226L77.5941 40.0601Z" fill="#FFC3BD"/>
<path d="M36.5681 31.1935C36.5681 31.1935 40.5549 30.5153 41.6002 26.0009C41.6002 26.0009 40.5616 23.1443 42.5784 21.2056C44.602 19.2601 43.5902 17.1296 41.6002 16.7391C39.6101 16.3487 36.5681 18.7943 36.5681 18.7943L34.1425 23.2333L35.1342 27.7135L36.5748 31.1866L36.5681 31.1935Z" fill="#263238"/>
<path opacity="0.3" d="M36.5681 31.1935C36.5681 31.1935 40.5549 30.5153 41.6002 26.0009C41.6002 26.0009 40.5616 23.1443 42.5784 21.2056C44.602 19.2601 43.5902 17.1296 41.6002 16.7391C39.6101 16.3487 36.5681 18.7943 36.5681 18.7943L34.1425 23.2333L35.1342 27.7135L36.5748 31.1866L36.5681 31.1935Z" fill="white"/>
<path d="M39.5967 24.3568C39.9116 25.6104 40.7157 26.6859 41.5599 27.323C42.8263 28.2889 43.7711 27.3367 43.684 25.8707C43.6036 24.5486 42.8464 22.4592 41.4527 22.0688C40.0791 21.6851 39.2416 22.9182 39.6034 24.35L39.5967 24.3568Z" fill="#FFC3BD"/>
<path d="M37.2515 29.8645C36.0656 26.9736 33.8812 19.4861 41.6002 16.7391C41.6002 16.7391 41.044 9.51878 44.7963 12.4576C44.7963 12.4576 41.2115 7.77193 40.709 12.5672C40.709 12.5672 39.8245 10.93 41.1512 9.8613C41.1512 9.8613 34.0889 7.43626 34.2497 12.9097C34.2497 12.9097 33.5328 11.019 34.7456 9.51193C34.7456 9.51193 33.2111 9.41603 32.5947 11.8959C31.985 14.3757 26.0215 13.8688 26.5442 19.5135C26.5442 19.5135 21.2709 26.3228 33.9683 32.1457C33.9683 32.1457 32.2999 33.2006 33.2513 34.8858C33.2513 34.8858 33.6936 33.0431 35.5161 32.1457C35.5161 32.1457 34.6852 34.0775 36.4542 34.6392C36.4542 34.6392 35.8176 32.9677 36.9835 31.6661C37.419 31.1866 37.4995 30.4673 37.2515 29.8645Z" fill="#263238"/>
<path opacity="0.1" d="M41.8146 32.8307C40.1327 32.906 40.2333 34.5912 40.2534 34.8447C41.7074 34.7145 43.0743 34.0501 44.1262 33.0019C43.5165 33.1253 42.8665 32.7827 41.8146 32.8307Z" fill="black"/>
<path d="M40.9569 16.0129C40.9569 16.0129 41.8213 12.7453 43.4629 13.3892C45.0978 14.0332 43.9386 16.6843 44.7963 17.931C44.7963 17.931 43.5701 17.4926 43.3289 15.9513C43.0877 14.4099 41.6002 16.7391 41.6002 16.7391L40.9569 16.0129Z" fill="#263238"/>
<path d="M41.6001 29.1109L43.1748 27.2613L42.5717 26.7201H40.6219L40.0188 27.2613L41.6001 29.1109Z" fill="#407BFF"/>
<path opacity="0.2" d="M41.379 26.7201H40.6219L40.0188 27.2613L41.6001 29.1109L40.776 27.2613L41.379 26.7201Z" fill="white"/>
</g>
<defs>
<linearGradient id="paint0_linear_507_33114" x1="175.456" y1="133.36" x2="264.532" y2="133.36" gradientUnits="userSpaceOnUse">
<stop stop-color="#00007D"/>
<stop offset="0.21" stop-color="#1C328D"/>
<stop offset="0.6" stop-color="#4C87AA"/>
<stop offset="0.87" stop-color="#6BBDBC"/>
<stop offset="1" stop-color="#77D2C4"/>
</linearGradient>
<linearGradient id="paint1_linear_507_33114" x1="201.259" y1="71.282" x2="280.479" y2="71.282" gradientUnits="userSpaceOnUse">
<stop stop-color="#00007D"/>
<stop offset="0.21" stop-color="#1C328D"/>
<stop offset="0.6" stop-color="#4C87AA"/>
<stop offset="0.87" stop-color="#6BBDBC"/>
<stop offset="1" stop-color="#77D2C4"/>
</linearGradient>
<clipPath id="clip0_507_33114">
<rect width="280" height="216" fill="white" transform="translate(0.479248 0.613281)"/>
</clipPath>
</defs>
</svg>
