<svg fill="none" height="217" viewBox="0 0 281 217" width="281" xmlns="http://www.w3.org/2000/svg" xmlns:xlink="http://www.w3.org/1999/xlink"><linearGradient id="a"><stop offset="0" stop-color="#00007d"/><stop offset=".21" stop-color="#1c328d"/><stop offset=".6" stop-color="#4c87aa"/><stop offset=".87" stop-color="#6bbdbc"/><stop offset="1" stop-color="#77d2c4"/></linearGradient><linearGradient id="b" gradientUnits="userSpaceOnUse" x1="175.456" x2="264.532" xlink:href="#a" y1="133.36" y2="133.36"/><linearGradient id="c" gradientUnits="userSpaceOnUse" x1="201.259" x2="280.479" xlink:href="#a" y1="71.282" y2="71.282"/><clipPath id="d"><path d="m.479248.613281h280v216h-280z"/></clipPath><mask id="e" height="85" maskUnits="userSpaceOnUse" width="128" x="74" y="13"><path d="m188.281 97.4165h-108.2134c-3.5646 0-6.2046-2.9525-5.8897-6.597l6.017-70.2851c.315-3.6444 3.4575-6.5969 7.0221-6.5969h108.213c3.565 0 6.205 2.9525 5.89 6.5969l-6.017 70.2851c-.315 3.6445-3.458 6.597-7.022 6.597z" fill="#fff" opacity=".7"/></mask><g clip-path="url(#d)"><path d="m253.597 162.701h-72.225c-3.564 0-6.204-2.953-5.889-6.597l3.893-45.48c.314-3.645 3.457-6.597 7.022-6.597h72.224c3.565 0 6.205 2.952 5.89 6.597l-3.893 45.48c-.315 3.644-3.457 6.597-7.022 6.597z" fill="url(#b)"/><path d="m211.035 129.695c-.569 6.652-6.305 12.043-12.804 12.043-6.5 0-11.317-5.391-10.748-12.043.57-6.651 6.305-12.043 12.805-12.043l.529-6.158c-9.83 0-18.493 8.145-19.358 18.195-.857 10.049 6.413 18.194 16.242 18.194 9.83 0 18.494-8.145 19.358-18.194h-6.024z" fill="#00d"/><path d="m219.163 127.024c.858-10.05-6.412-18.195-16.242-18.195l-.529 6.159c6.506 0 11.317 5.391 10.747 12.043h6.024z" fill="#407bff"/><path d="m219.163 127.024c.858-10.05-6.412-18.195-16.242-18.195l-.529 6.159c6.506 0 11.317 5.391 10.747 12.043h6.024z" fill="#fff"/><path d="m204.415 129.695c-.261 3.028-2.868 5.481-5.829 5.481-2.962 0-5.153-2.453-4.892-5.481.262-3.027 2.868-5.48 5.83-5.48l.241-2.802c-4.476 0-8.416 3.706-8.811 8.282-.389 4.577 2.915 8.283 7.391 8.283s8.415-3.706 8.811-8.283z" fill="#407bff"/><path d="m204.415 129.695c-.261 3.028-2.868 5.481-5.829 5.481-2.962 0-5.153-2.453-4.892-5.481.262-3.027 2.868-5.48 5.83-5.48l.241-2.802c-4.476 0-8.416 3.706-8.811 8.282-.389 4.577 2.915 8.283 7.391 8.283s8.415-3.706 8.811-8.283z" fill="#fff" opacity=".7"/><path d="m208.121 128.483c.388-4.576-2.915-8.282-7.391-8.282l-.241 2.802c2.961 0 5.152 2.452 4.891 5.48z" fill="#407bff"/><path d="m242.836 111.501-.529 6.158c6.506 0 11.317 5.392 10.747 12.043-.569 6.652-6.305 12.043-12.805 12.043-6.499 0-11.317-5.391-10.747-12.043.281-3.322 1.863-6.336 4.181-8.515l-3.886-4.35c-3.505 3.295-5.883 7.844-6.312 12.865-.858 10.05 6.412 18.195 16.242 18.195 9.829 0 18.493-8.145 19.358-18.195.864-10.049-6.413-18.194-16.242-18.194z" fill="#407bff"/><path d="m242.836 111.501-.529 6.158c6.506 0 11.317 5.392 10.747 12.043-.569 6.652-6.305 12.043-12.805 12.043-6.499 0-11.317-5.391-10.747-12.043.281-3.322 1.863-6.336 4.181-8.515l-3.886-4.35c-3.505 3.295-5.883 7.844-6.312 12.865-.858 10.05 6.412 18.195 16.242 18.195 9.829 0 18.493-8.145 19.358-18.195.864-10.049-6.413-18.194-16.242-18.194z" fill="#fff"/><path d="m228.638 113.453 3.886 4.35c2.318-2.178 5.38-3.528 8.63-3.528l.529-6.158c-4.918 0-9.541 2.034-13.039 5.329z" fill="#407bff"/><path d="m228.638 113.453 3.886 4.35c2.318-2.178 5.38-3.528 8.63-3.528l.529-6.158c-4.918 0-9.541 2.034-13.039 5.329z" fill="#000" opacity=".3"/><path d="m242.039 120.845-.255 2.939c3.109 0 5.407 2.575 5.132 5.754-.274 3.178-3.008 5.754-6.117 5.754s-5.407-2.576-5.133-5.754c.134-1.589.892-3.028 1.997-4.069l-1.856-2.083c-1.675 1.576-2.814 3.747-3.015 6.145-.409 4.802 3.062 8.693 7.759 8.693s8.838-3.891 9.247-8.693c.408-4.802-3.062-8.693-7.759-8.693z" fill="#77d2c4"/><path d="m235.251 121.783 1.856 2.083c1.106-1.042 2.566-1.685 4.121-1.685l.254-2.939c-2.345 0-4.556.972-6.231 2.548z" fill="#77d2c4"/><path d="m235.251 121.783 1.856 2.083c1.106-1.042 2.566-1.685 4.121-1.685l.254-2.939c-2.345 0-4.556.972-6.231 2.548z" fill="#77d2c4" opacity=".3"/><g fill="#fff"><path d="m189.487 155.864c-1.046 0-1.823-.87-1.736-1.939.094-1.068 1.019-1.938 2.064-1.938s1.822.87 1.735 1.938c-.093 1.069-1.018 1.939-2.063 1.939z"/><path d="m208.911 154.905h-14.158c-.536 0-.924-.445-.878-.987.047-.548.516-.986 1.052-.986h14.159c.536 0 .924.445.877.986-.047.548-.516.987-1.052.987z"/><path d="m205.025 158.789h-10.6c-.536 0-.925-.445-.878-.986.047-.548.516-.987 1.052-.987h10.6c.536 0 .925.445.878.987-.047.548-.516.986-1.052.986z"/><path d="m230.547 155.864c-1.045 0-1.822-.87-1.735-1.939.094-1.068 1.018-1.938 2.064-1.938 1.045 0 1.822.87 1.735 1.938-.094 1.069-1.019 1.939-2.064 1.939z"/><path d="m249.972 154.905h-14.158c-.536 0-.925-.445-.878-.987.047-.548.516-.986 1.052-.986h14.158c.536 0 .925.445.878.986-.047.548-.516.987-1.052.987z"/><path d="m246.079 158.789h-10.6c-.536 0-.925-.445-.878-.986.047-.548.516-.987 1.052-.987h10.6c.536 0 .925.445.878.987-.047.548-.516.986-1.052.986z"/></g><path d="m160.353 187.506h-108.2063c-3.5646 0-6.2046-2.953-5.8897-6.597l6.017-70.285c.315-3.645 3.4575-6.597 7.0221-6.597h108.2129c3.565 0 6.205 2.952 5.89 6.597l-6.017 70.285c-.315 3.644-3.458 6.597-7.022 6.597z" fill="#e4f4ff"/><path d="m56.6696 166.489h-2.7472l3.6718-42.945h2.7472z" fill="#00007d"/><path d="m60.5625 166.489h-2.7472l2.7003-31.587h2.7472z" fill="#77d2c4"/><path d="m66.7404 166.489h-2.7472l1.7689-20.64h2.7472z" fill="#00007d"/><path d="m70.6334 166.489h-2.7472l2.1106-24.62h2.7472z" fill="#77d2c4"/><path d="m76.8179 166.489h-2.7472l3.1359-36.698h2.7472z" fill="#00007d"/><path d="m80.7109 166.489h-2.7472l2.7003-31.587h2.7472z" fill="#77d2c4"/><path d="m86.8888 166.489h-2.7472l2.707-31.587h2.7472z" fill="#00007d"/><path d="m90.7817 166.489h-2.7472l3.3838-39.547h2.7472z" fill="#77d2c4"/><path d="m96.9663 166.489h-2.7472l1.8359-21.469h2.7472z" fill="#00007d"/><path d="m100.853 166.489h-2.7476l2.7066-31.587h2.748z" fill="#77d2c4"/><path d="m107.037 166.489h-2.747l3.142-36.698h2.748z" fill="#00007d"/><path d="m110.93 166.489h-2.747l3.806-44.521h2.747z" fill="#77d2c4"/><path d="m117.108 166.489h-2.747l1.005-11.687h2.747z" fill="#00007d"/><path d="m121.001 166.489h-2.747l1.856-21.64h2.747z" fill="#77d2c4"/><path d="m127.186 166.489h-2.748l1.763-20.64h2.747z" fill="#00007d"/><path d="m131.079 166.489h-2.748l3.464-40.541h2.748z" fill="#77d2c4"/><path d="m137.256 166.489h-2.747l2.278-26.614h2.747z" fill="#00007d"/><path d="m141.149 166.489h-2.747l4.409-51.488h2.747z" fill="#77d2c4"/><path d="m147.334 166.489h-2.747l2.955-34.574h2.747z" fill="#00007d"/><path d="m151.22 166.489h-2.747l2.707-31.587h2.747z" fill="#77d2c4"/><path d="m157.405 166.489h-2.747l3.725-43.527h2.747z" fill="#00007d"/><path d="m161.298 166.489h-2.748l2.192-25.621h2.747z" fill="#77d2c4"/><path d="m55.6176 178.217c-1.4942 0-2.5931-1.233-2.4658-2.761.1273-1.527 1.4473-2.761 2.9348-2.761 1.4942 0 2.5931 1.234 2.4658 2.761-.1273 1.528-1.4473 2.761-2.9348 2.761z" fill="#00007d"/><path d="m83.2571 176.86h-20.1484c-.7571 0-1.32-.63-1.253-1.404s.7371-1.404 1.4942-1.404h20.1484c.7572 0 1.32.63 1.253 1.404s-.7371 1.404-1.4942 1.404z" fill="#263238"/><path d="m77.7158 182.382h-15.0828c-.7572 0-1.32-.63-1.253-1.404.067-.775.737-1.405 1.4942-1.405h15.0828c.7572 0 1.32.63 1.253 1.405-.067.774-.7371 1.404-1.4942 1.404z" fill="#263238"/><path d="m83.2571 176.86h-20.1484c-.7571 0-1.32-.63-1.253-1.404s.7371-1.404 1.4942-1.404h20.1484c.7572 0 1.32.63 1.253 1.404s-.7371 1.404-1.4942 1.404z" fill="#77d2c4"/><path d="m77.7158 182.382h-15.0828c-.7572 0-1.32-.63-1.253-1.404.067-.775.737-1.405 1.4942-1.405h15.0828c.7572 0 1.32.63 1.253 1.405-.067.774-.7371 1.404-1.4942 1.404z" fill="#77d2c4"/><path d="m95.4587 178.217c-1.4942 0-2.5931-1.233-2.4658-2.761.1273-1.527 1.4473-2.761 2.9348-2.761 1.4942 0 2.5931 1.234 2.4658 2.761-.1273 1.528-1.4473 2.761-2.9348 2.761z" fill="#407bff"/><path d="m95.4587 178.217c-1.4942 0-2.5931-1.233-2.4658-2.761.1273-1.527 1.4473-2.761 2.9348-2.761 1.4942 0 2.5931 1.234 2.4658 2.761-.1273 1.528-1.4473 2.761-2.9348 2.761z" fill="#00007d"/><path d="m123.091 176.86h-20.148c-.757 0-1.32-.63-1.253-1.404s.737-1.404 1.494-1.404h20.149c.757 0 1.32.63 1.253 1.404s-.737 1.404-1.495 1.404z" fill="#263238"/><path d="m117.557 182.382h-15.083c-.757 0-1.32-.63-1.253-1.404.067-.775.737-1.405 1.494-1.405h15.083c.757 0 1.32.63 1.253 1.405-.067.774-.737 1.404-1.494 1.404z" fill="#263238"/><path d="m123.091 176.86h-20.148c-.757 0-1.32-.63-1.253-1.404s.737-1.404 1.494-1.404h20.149c.757 0 1.32.63 1.253 1.404s-.737 1.404-1.495 1.404z" fill="#77d2c4"/><path d="m117.557 182.382h-15.083c-.757 0-1.32-.63-1.253-1.404.067-.775.737-1.405 1.494-1.405h15.083c.757 0 1.32.63 1.253 1.405-.067.774-.737 1.404-1.494 1.404z" fill="#77d2c4"/><path d="m135.293 178.217c-1.494 0-2.593-1.233-2.466-2.761.128-1.527 1.448-2.761 2.935-2.761 1.494 0 2.593 1.234 2.466 2.761-.127 1.528-1.447 2.761-2.935 2.761z" fill="#77d2c4"/><path d="m162.926 176.86h-20.148c-.758 0-1.32-.63-1.253-1.404s.737-1.404 1.494-1.404h20.148c.757 0 1.32.63 1.253 1.404s-.737 1.404-1.494 1.404z" fill="#263238"/><path d="m157.391 182.382h-15.083c-.757 0-1.32-.63-1.253-1.404.067-.775.738-1.405 1.495-1.405h15.083c.757 0 1.32.63 1.252 1.405-.067.774-.737 1.404-1.494 1.404z" fill="#263238"/><path d="m162.926 176.86h-20.148c-.758 0-1.32-.63-1.253-1.404s.737-1.404 1.494-1.404h20.148c.757 0 1.32.63 1.253 1.404s-.737 1.404-1.494 1.404z" fill="#77d2c4"/><path d="m157.391 182.382h-15.083c-.757 0-1.32-.63-1.253-1.404.067-.775.738-1.405 1.495-1.405h15.083c.757 0 1.32.63 1.252 1.405-.067.774-.737 1.404-1.494 1.404z" fill="#77d2c4"/><path d="m270.087 97.4162h-62.918c-3.564 0-6.204-2.9525-5.89-6.5969l3.344-39.061c.315-3.6444 3.457-6.5969 7.022-6.5969h62.918c3.564 0 6.204 2.9525 5.889 6.5969l-3.343 39.061c-.315 3.6444-3.458 6.5969-7.022 6.5969z" fill="url(#c)"/><path d="m234.367 68.7678c-.563 6.5764-6.232 11.906-12.664 11.906-6.433 0-11.19-5.3296-10.627-11.906.562-6.5764 6.231-11.906 12.664-11.906 6.432 0 11.189 5.3296 10.627 11.906z" fill="#407bff"/><path d="m234.367 68.7678c-.563 6.5764-6.232 11.906-12.664 11.906-6.433 0-11.19-5.3296-10.627-11.906.562-6.5764 6.231-11.906 12.664-11.906 6.432 0 11.189 5.3296 10.627 11.906z" fill="#fff" opacity=".7"/><path d="m226.245 66.6579c-.221 2.61-1.199 4.7199-3.752 4.7199s-3.162-2.1167-2.941-4.7199c.221-2.61 1.199-4.7199 3.752-4.7199s3.163 2.1168 2.941 4.7199z" fill="#263238"/><path d="m222.373 72.8439c-5.347 0-8.242 1.2125-9.609 3.0004 1.87 2.9252 5.099 4.8296 8.939 4.8296 3.839 0 7.39-1.9044 9.762-4.8296-1.059-1.7879-3.752-3.0004-9.092-3.0004z" fill="#263238"/><path d="m261.812 55.4781h-18.909c-.885 0-1.541-.733-1.461-1.6372.081-.9043.858-1.6373 1.742-1.6373h18.909c.885 0 1.541.733 1.461 1.6373-.081.9042-.858 1.6372-1.742 1.6372z" fill="#fff"/><path d="m266.85 67.5554h-24.986c-.884 0-1.541-.733-1.46-1.6373.08-.9042.857-1.6372 1.742-1.6372h24.986c.884 0 1.541.733 1.461 1.6372-.081.9043-.858 1.6373-1.743 1.6373z" fill="#fff"/><path d="m271.4 73.5974h-30.045c-.884 0-1.541-.733-1.461-1.6373.081-.9042.858-1.6372 1.742-1.6372h30.045c.885 0 1.542.733 1.461 1.6372-.08.9043-.857 1.6373-1.742 1.6373z" fill="#fff"/><path d="m268.861 79.6395h-28.022c-.884 0-1.541-.733-1.461-1.6373.081-.9042.858-1.6372 1.743-1.6372h28.021c.885 0 1.541.733 1.461 1.6372-.081.9043-.858 1.6373-1.742 1.6373z" fill="#fff"/><path d="m265.303 85.6815h-24.987c-.884 0-1.541-.733-1.46-1.6373.08-.9042.857-1.6372 1.742-1.6372h24.986c.884 0 1.541.733 1.461 1.6372-.081.9043-.858 1.6373-1.742 1.6373z" fill="#fff"/><path d="m267.822 91.7168h-28.021c-.885 0-1.542-.733-1.461-1.6373.08-.9042.858-1.6372 1.742-1.6372h28.021c.885 0 1.542.733 1.461 1.6372-.08.9043-.858 1.6373-1.742 1.6373z" fill="#fff"/><path d="m188.281 97.4165h-108.2134c-3.5646 0-6.2046-2.9525-5.8897-6.597l6.017-70.2851c.315-3.6444 3.4575-6.5969 7.0221-6.5969h108.213c3.565 0 6.205 2.9525 5.89 6.5969l-6.017 70.2851c-.315 3.6445-3.458 6.597-7.022 6.597z" fill="#c6d7ff"/><g mask="url(#e)"><path clip-rule="evenodd" d="m167.005 72.8669c-3.409 8.9472-7.28 15.7129-12.275 16.3422-1.303-.1677-2.451-.7711-3.47-1.7354-2.871-3.7197-5.378-12.6387-6.857-20.7888l-.097 1.136c-.685-4.0613-1.263-8.3847-1.837-12.6713v-.0003l-.002-.0142v-.0031c-2.513-18.7963-4.885-36.5437-15.773-36.5437s-16.302 17.7493-22.031 36.5468c-5.1124 16.7767-10.3991 34.1219-18.8551 34.1219-3.9533 0-7.6319-11.9403-9.5616-22.5721l-.8912 10.3784c2.104 7.6724 5.3939 15.3038 10.1847 15.3038 10.8883 0 16.3022-17.7494 22.0312-36.5469 5.113-16.7766 10.399-34.1219 18.855-34.1219 8.454 0 10.773 17.3355 13.017 34.1078l.002.0141.001.0031c2.012 15.0564 3.935 29.4397 10.216 34.5674 1.207 1.2421 2.549 1.9764 4.035 1.9764.257 0 .512-.0099.763-.0296.248.0197.501.0296.758.0296 6.734 0 10.921-7.9836 14.547-18.3897 2.103-5.4933 4.015-11.7646 5.963-18.1572 5.112-16.7766 10.399-34.1219 18.855-34.1219 8.454 0 10.773 17.3355 13.017 34.1078l.002.0141.001.0031v.0003c2.012 15.0563 3.935 29.4395 10.216 34.5671 1.207 1.2421 2.549 1.9764 4.035 1.9764.257 0 .512-.0099.763-.0296.248.0197.501.0296.758.0296 6.734 0 10.921-7.9836 14.547-18.3895 2.103-5.4934 4.015-11.7648 5.963-18.1574 5.112-16.7766 10.399-34.1219 18.855-34.1219 8.454 0 10.773 17.3356 13.017 34.1079l.002.014.001.0031v.0002c2.012 15.0564 3.935 29.4398 10.216 34.5674 1.207 1.2419 2.549 1.9762 4.035 1.9762.257 0 .511-.01.763-.0296.248.0196.501.0296.758.0296 6.734 0 10.921-7.9834 14.546-18.3892 2.104-5.4934 4.016-11.7649 5.964-18.1577 5.112-16.7766 10.399-34.1219 18.855-34.1219 8.454 0 10.773 17.3356 13.017 34.1079l.002.014.001.0031c2.512 18.7963 4.884 36.5438 15.772 36.5438 9.099 0 13.548-14.5777 18.245-30.0116 12.028-39.4613 8.728-38.8356-2.901-.6782-4.134 13.5638-8.409 27.5797-15.076 27.5797-8.454 0-10.773-17.3355-13.017-34.1077l-.002-.0142v-.0031c-2.513-18.7963-4.885-36.5437-15.773-36.5437-7.702 0-12.665 8.8811-16.938 20.7322-1.781 4.7938-4.274 12.2618-7.351 22.3568-1.158 3.8007-2.328 7.6369-3.558 11.1902-3.408 8.9469-7.279 15.7123-12.275 16.3416-1.302-.1677-2.45-.7711-3.469-1.7353-2.871-3.7197-5.378-12.6388-6.857-20.7889l-.097 1.1362c-.685-4.0615-1.264-8.385-1.837-12.6717v-.0001l-.002-.0142v-.0031-.0001c-2.513-18.7963-4.885-36.5436-15.773-36.5436-7.702 0-12.665 8.8819-16.938 20.7337-1.781 4.7938-4.274 12.2613-7.351 22.3553-1.158 3.8005-2.328 7.6366-3.558 11.1898-3.408 8.9471-7.279 15.7127-12.274 16.342-1.303-.1677-2.451-.7711-3.47-1.7354-2.871-3.7197-5.378-12.6387-6.857-20.7888l-.097 1.1361c-.685-4.0614-1.263-8.3849-1.837-12.6716v-.0002l-.002-.0141v-.0031c-2.513-18.7963-4.885-36.5437-15.773-36.5437-7.702 0-12.665 8.8821-16.938 20.7341-1.781 4.7938-4.274 12.2612-7.351 22.3549-1.158 3.8004-2.327 7.6364-3.557 11.1896z" fill="#77d2c4" fill-rule="evenodd"/><path d="m159.796 89.3908c-.214 2.473-2.345 4.4733-4.764 4.4733s-4.208-2.0072-3.993-4.4733c.214-2.473 2.345-4.4733 4.764-4.4733 2.418 0 4.207 2.0071 3.993 4.4733z" fill="#00007d"/><path d="m157.592 89.3908c-.108 1.2262-1.166 2.2264-2.366 2.2264-1.199 0-2.09-.9933-1.983-2.2264.107-1.2262 1.166-2.2264 2.365-2.2264 1.2 0 2.091.9933 1.984 2.2264z" fill="#fff"/><path d="m164.627 70.4426h-15.176c-1.615 0-3.036 1.3359-3.176 2.9868l-.242 2.8292c-.14 1.651 1.052 2.9868 2.667 2.9868h5.019l1.507 2.3291c.382.5892 1.24.5892 1.722 0l1.91-2.3291h5.019c1.615 0 3.035-1.3358 3.176-2.9868l.241-2.8292c.141-1.6509-1.052-2.9868-2.667-2.9868z" fill="#00007d"/><path d="m163.441 74.1966h-13.803c-.422 0-.73-.3493-.69-.7741.034-.4315.409-.7741.824-.7741h13.803c.422 0 .731.3494.69.7741-.033.4316-.408.7741-.824.7741z" fill="#fff"/><path d="m155.716 77.0053h-6.319c-.422 0-.73-.3493-.69-.774.033-.4316.409-.7741.824-.7741h6.319c.422 0 .73.3493.69.7741-.034.4315-.409.774-.824.774z" fill="#fff"/><path d="m91.8933 89.8977c-.2144 2.473-2.3452 4.4734-4.7641 4.4734-2.4188 0-4.2079-2.0072-3.9935-4.4734.2145-2.473 2.3452-4.4733 4.7641-4.4733s4.2079 2.0072 3.9935 4.4733z" fill="#00007d"/><path d="m89.6888 89.8978c-.1072 1.2262-1.1659 2.2263-2.3653 2.2263-1.1993 0-2.0905-.9933-1.9833-2.2263.1072-1.2263 1.1659-2.2264 2.3653-2.2264s2.0905.9933 1.9833 2.2264z" fill="#fff"/><path d="m96.7243 70.9564h-15.1766c-1.6148 0-3.0353 1.3358-3.176 2.9868l-.2412 2.8292c-.1407 1.651 1.052 2.9868 2.6668 2.9868h5.0186l1.5077 2.3291c.3819.5892 1.2395.5892 1.722 0l1.9096-2.3291h5.0187c1.6148 0 3.0353-1.3358 3.176-2.9868l.2412-2.8292c.1407-1.651-1.0519-2.9868-2.6668-2.9868z" fill="#00007d"/><path d="m95.5383 74.7104h-13.803c-.4221 0-.7303-.3493-.6901-.7741.0335-.4315.4087-.7741.8241-.7741h13.803c.4222 0 .7304.3494.6902.7741-.0335.4316-.4087.7741-.8242.7741z" fill="#fff"/><path d="m87.8127 77.5191h-6.3186c-.4221 0-.7303-.3493-.6901-.7741.0335-.4315.4087-.7741.8241-.7741h6.3186c.4221 0 .7303.3494.6901.7741-.0335.4316-.4087.7741-.8241.7741z" fill="#fff"/><path d="m113.982 42.0446c-.214 2.473-2.345 4.4733-4.764 4.4733s-4.208-2.0072-3.993-4.4733c.214-2.473 2.345-4.4733 4.764-4.4733s4.208 2.0072 3.993 4.4733z" fill="#263238"/><path d="m111.037 43.5793c.906-.8871.995-2.2951.199-3.1449s-2.176-.8196-3.082.0674c-.906.8871-.995 2.2951-.199 3.145.796.8498 2.176.8196 3.082-.0675z" fill="#77d2c4"/><path d="m118.813 23.1033h-15.176c-1.615 0-3.036 1.3358-3.176 2.9867l-.242 2.8293c-.14 1.6509 1.052 2.9867 2.667 2.9867h5.019l1.507 2.3292c.382.5891 1.24.5891 1.722 0l1.91-2.3292h5.019c1.615 0 3.035-1.3358 3.176-2.9867l.241-2.8293c.141-1.6509-1.052-2.9867-2.667-2.9867z" fill="#77d2c4"/><g fill="#263238"><path d="m117.627 26.8573h-13.803c-.422 0-.73-.3494-.69-.7741.034-.4316.409-.7741.824-.7741h13.803c.422 0 .731.3494.69.7741-.033.4316-.408.7741-.824.7741z"/><path d="m109.902 29.666h-6.319c-.422 0-.73-.3494-.69-.7741.033-.4316.409-.7741.824-.7741h6.319c.422 0 .73.3494.69.7741-.034.4316-.409.7741-.824.7741z"/><path d="m182.148 42.0446c-.214 2.473-2.345 4.4733-4.764 4.4733s-4.208-2.0072-3.993-4.4733c.214-2.473 2.345-4.4733 4.764-4.4733s4.208 2.0072 3.993 4.4733z"/></g><path d="m179.944 42.0446c-.107 1.2262-1.166 2.2264-2.365 2.2264-1.2 0-2.091-.9933-1.984-2.2264.107-1.2262 1.166-2.2264 2.365-2.2264 1.2 0 2.091.9933 1.984 2.2264z" fill="#77d2c4"/><path d="m186.973 23.1033h-15.177c-1.615 0-3.035 1.3358-3.176 2.9867l-.241 2.8293c-.141 1.6509 1.052 2.9867 2.667 2.9867h5.018l1.508 2.3292c.382.5891 1.239.5891 1.722 0l1.91-2.3292h5.018c1.615 0 3.036-1.3358 3.176-2.9867l.241-2.8293c.141-1.6509-1.051-2.9867-2.666-2.9867z" fill="#77d2c4"/><path d="m185.787 26.8573h-13.803c-.422 0-.731-.3494-.69-.7741.033-.4316.408-.7741.824-.7741h13.803c.422 0 .73.3494.69.7741-.034.4316-.409.7741-.824.7741z" fill="#263238"/><path d="m178.068 29.666h-6.319c-.422 0-.73-.3494-.69-.7741.034-.4316.409-.7741.824-.7741h6.319c.422 0 .73.3494.69.7741-.034.4316-.409.7741-.824.7741z" fill="#263238"/></g><path d="m28.2796 49.4018-1.9097 3.4047-1.8694 3.4731c-1.2329 2.3223-2.4122 4.6652-3.4843 7.0148-.536 1.1783-1.0452 2.3566-1.5076 3.5349l-.0871.2123s-.0201.0343-.0268.048c-.0268.0342-.0402.0616-.0536.0959-.0335.0616-.0603.1164-.0871.1918-.0469.1507-.0335.411.0804.7604.2077.7056.8309 1.6167 1.5947 2.473.7505.8563 1.7154 1.7331 2.5864 2.5072l-1.5545 3.3841c-.7906-.2329-1.4473-.4658-2.1441-.7741-.6902-.2945-1.3535-.6576-2.0236-1.0618-1.3133-.8289-2.64-1.8564-3.7322-3.5416-.5293-.8426-.9916-1.8839-1.1658-3.0896-.0804-.6028-.1073-1.2262-.0335-1.8427.0335-.3083.0804-.6166.1541-.9043l.1072-.4384.0804-.2672c.4288-1.3838.8643-2.7538 1.3803-4.076 1.0051-2.6579 2.1441-5.2268 3.377-7.7272.6165-1.2536 1.2597-2.4867 1.9365-3.7061.6767-1.2262 1.3401-2.4113 2.1173-3.6512l6.2717 3.9663z" fill="#ffc3bd"/><path d="m21.8404 72.7411 3.4776-.9248.201 5.7475s-2.7204.411-4.3888-1.2879l.7102-3.528z" fill="#ffc3bd"/><path d="m30.2562 70.8436-.7839 5.0488-3.9466 1.6646-.201-5.7406z" fill="#ffc3bd"/><path d="m44.6489 22.329c.0804.3905.3484.6713.5963.6165.2546-.0548.3886-.411.3149-.8083-.0804-.3905-.3484-.6714-.5963-.6166-.2546.0548-.3887.4111-.3149.8084z" fill="#263238"/><path d="m44.9638 23.0072s1.3267 2.0894 2.506 2.9799c-.5495.7878-1.7689.733-1.7689.733z" fill="#ed847e"/><path d="m42.8062 20.4383c-.0536 0-.1139-.0205-.1541-.0616-.0938-.0891-.1005-.2398-.0134-.3357.8644-.9591 1.9164-.7878 1.9633-.781.1273.0206.2077.1439.1876.2741-.0201.1301-.1407.2123-.268.1918-.0335 0-.8577-.1302-1.5479.6371-.0469.0479-.1072.0753-.1675.0753z" fill="#263238"/><path d="m33.6936 27.8573c.6968 3.6376 1.3937 10.3099-1.0989 12.7349 0 0 .9716 3.6924 7.5849 3.6924 7.2768 0 3.4776-3.6924 3.4776-3.6924-3.9667-.9659-3.8662-3.9801-3.176-6.8093l-6.7943-5.9324z" fill="#ffc3bd"/><path d="m31.1608 41.2704c-.5293-1.0139-1.119-2.1716.0938-2.5278 1.3334-.3974 9.8966-1.1372 12.4093-.3905-.7706 1.4043.536 3.1306.536 3.1306z" fill="#000080"/><path d="m9.61202 210.948c.48918.11.97828.137 1.21278-.068.1005-.09.201-.254.1139-.549-.0469-.157-.1474-.274-.2948-.349-.65665-.322-2.16426.308-2.23127.336-.0402.02-.067.061-.0737.103 0 .047.0268.089.067.109.22782.117.72366.302 1.21279.411zm.79068-.795c.0469.014.0938.028.134.048.0938.048.1474.11.1742.199.0603.212-.0134.281-.0402.301-.2613.226-1.23289.021-1.91634-.26.46233-.164 1.21279-.384 1.64834-.288z" fill="#407bff"/><path d="m8.42604 210.551h.05361c.54944-.165 1.72875-1.021 1.74215-1.583 0-.103-.0335-.288-.29485-.383-.16751-.062-.34172-.048-.50923.041-.64995.342-1.05868 1.719-1.07878 1.774-.0134.041 0 .089.0268.116.0134.014.0335.028.0603.035zm1.3803-1.761s.03351.007.05361.014c.14075.048.14075.123.14075.151-.00674.335-.784 1.007-1.35354 1.274.14071-.398.46903-1.185.88446-1.398.09381-.048.18762-.061.28142-.041z" fill="#407bff"/><path d="m45.54 211.784c.6232 0 1.2262-.089 1.4272-.377.0737-.103.1273-.274-.0067-.514-.0737-.137-.201-.233-.3685-.274-.8108-.226-2.5127.767-2.5797.808-.0402.028-.067.076-.0536.124.0067.048.0469.089.0938.096.3082.061.9113.137 1.4942.137zm.7706-.966c.0804 0 .1541.007.2211.027.1072.028.1809.082.2278.165.0804.143.0536.219.0201.26-.2278.322-1.454.329-2.3585.199.4489-.24 1.3199-.651 1.8895-.651z" fill="#407bff"/><path d="m44.0726 211.647s.0335 0 .0469-.014c.5897-.267 1.7489-1.343 1.6617-1.911-.0201-.13-.1139-.295-.4288-.329-.2345-.027-.4489.041-.6365.199-.6165.52-.7505 1.863-.7572 1.918 0 .041.0134.082.0469.109.0201.014.0469.021.067.021zm1.186-2.014h.067c.2077.02.2211.103.2278.13.0536.336-.737 1.185-1.3334 1.548.0603-.39.2345-1.192.6433-1.534.1206-.103.2546-.151.402-.151z" fill="#407bff"/><path d="m38.7189 211.53h4.8713l.4824-11.522h-4.8645z" fill="#ffc3bd"/><path d="m3.00534 209.228 4.75735 1.055 4.77071-10.734-4.75731-1.055z" fill="#ffc3bd"/><path d="m8.21832 209.79-5.34029-1.185c-.19432-.041-.39533.055-.47574.24l-1.856033 4.117c-.194314.425.060304.925.515933 1.021 1.86944.376 2.80081.466 5.15268.986 1.44731.322 4.71043 1.13 6.70723 1.576 1.9498.431 2.6869-1.521 1.9029-1.884-3.491-1.631-4.95166-3.069-5.89643-4.405-.16752-.24-.42213-.404-.71025-.473z" fill="#263238"/><path d="m43.5567 210.955h-5.3135c-.201 0-.3685.144-.4154.342l-.9582 4.426c-.1005.459.2412.89.6969.883 1.9163-.034 4.6903-.15 7.0958-.15 2.8142 0 5.2532.157 8.5565.157 1.9967 0 2.5529-2.062 1.7153-2.254-3.8059-.849-6.9149-.945-10.2048-3.014-.3551-.226-.7505-.39-1.1726-.39z" fill="#263238"/><path d="m23.884 41.7225c-4.563 1.0686-8.322 12.9746-8.322 12.9746l9.1596 7.1381s3.3637-3.2402 4.8579-9.1932c1.5679-6.2407-1.0319-12.0087-5.6955-10.9127z" fill="#000080"/><path d="m27.7971 50.4773c-2.4791 2.5073-3.2832 7.0696-3.4775 11.036l.402.3151s3.3637-3.2471 4.8646-9.2001c.0938-.3699.1742-.7467.2412-1.1097l-2.0303-1.0481z" fill="#000" opacity=".2"/><path d="m51.1484 41.976s3.7321 3.7403 2.325 23.6133c-.3752 5.2543-2.3385 11.6457-3.3636 19.3866h-22.7147c-.1809-4.0828.3417-24.0106-3.511-43.2602 0 0 4.4625-.918 8.7106-1.1235 3.3234-.1644 8.1411-.274 11.0625 0 3.8528.3631 7.4845 1.3838 7.4845 1.3838z" fill="#cfcfcf"/><path d="m53.7816 58.6224c-.4288-2.8909-.8844-5.4118-1.3468-7.5834l-.1407-.089-7.1293 3.0552c.3417 4.5281 5.0321 9.1042 8.2952 11.769 0-.0616.0134-.1233.0201-.1849.1809-2.5895.2814-4.8981.3082-6.9738z" fill="#000" opacity=".2"/><path d="m44.0726 200.015-.2479 5.939h-4.8712l.2479-5.939z" fill="#000" opacity=".2"/><path d="m7.77608 198.501 4.75732 1.048-2.4591 5.535-4.764-1.055z" fill="#000" opacity=".2"/><path d="m31.6566 24.1581c1.253 4.7679 1.7421 7.6245 4.6233 9.6111 4.3286 2.9799 9.7225-.4384 9.89-5.494.1541-4.5487-1.9164-11.584-6.9216-12.5431-4.9316-.9453-8.838 3.665-7.5917 8.4329z" fill="#ffc3bd"/><path d="m42.2032 84.976s-5.5212 38.02-8.5565 52.262c-3.3168 15.598-21.12 67.202-21.12 67.202l-8.7106-1.925s12.4495-42.054 15.2369-63.866c1.2396-9.714 1.4205-26.217 3.0152-38.369 1.1592-8.7961 5.3269-15.3109 5.3269-15.3109h14.8081z" fill="#cfcfcf"/><path d="m14.6106 201.474c.0402.007-1.6215 3.22-1.6215 3.22l-9.80285-2.172.82416-3.014 10.60019 1.959z" fill="#000080"/><path d="m38.7123 98.526c-6.3856 1.281-5.7089 25.627-4.9383 38.15 1.8426-8.851 4.5362-25.881 6.3789-37.9719-.4222-.2192-.8979-.2877-1.4406-.1781z" fill="#000" opacity=".2"/><path d="m50.1098 84.976s1.9967 37.198 1.4674 52.371c-.5495 15.784-5.9434 67.449-5.9434 67.449h-8.2416s-.3015-50.747-.67-66.25c-.402-16.893-2.3921-53.5769-2.3921-53.5769h15.7864z" fill="#cfcfcf"/><path d="m47.2219 201.447c.0402 0-.4624 3.5-.4624 3.5h-10.0306l-.268-3.124z" fill="#000080"/><path d="m52.8546 45.3407c1.0733.8973 2.2856 1.8999 3.4691 2.8112 1.2045.9115 2.4028 1.8251 3.6311 2.6783 2.4441 1.7106 4.9696 3.3006 7.5091 4.4683.6311.3022 1.269.559 1.8985.7896l.4691.1687c-.0381-.009-.1737-.0145-.2479-.0043-.1761.0223-.2422.0803-.1914.085.1121.0205.5442-.2163.9625-.5853.4247-.3712.8863-.8482 1.325-1.3752 1.772-2.1426 3.4385-4.8623 4.9834-7.4769l3.4112 1.3398c-.8005 3.3185-1.8579 6.4269-3.6656 9.5678-.464.7803-.9748 1.5688-1.6507 2.3473-.678.7719-1.4687 1.5884-2.7986 2.2594-.6658.3215-1.5134.5807-2.4755.5898-.4684.0112-.9868-.0691-1.4077-.1745l-.6597-.1703c-.8711-.237-1.7206-.5173-2.536-.8232-3.2763-1.2476-6.2039-2.9061-8.9967-4.7172-1.3846-.9238-2.7415-1.8713-4.0427-2.8876-1.3181-1.0251-2.5623-2.0171-3.8662-3.2197l4.8754-5.6624z" fill="#ffc3bd"/><path d="m44.6658 51.1937c.5332 6.8373 13.7266 9.3286 13.7266 9.3286l4.5219-11.155s-4.9508-4.0413-10.3661-6.7262c-6.6921-3.3132-8.2913 3.352-7.8888 8.5547z" fill="#000080"/><path d="m76.3433 48.4464-.07-6.2202 5.2633.8053s.6447 4.3447-2.4256 6.1469z" fill="#ffc3bd"/><path d="m77.5941 40.0601 4.4494-.2068-.507 3.178-5.2633-.8053z" fill="#ffc3bd"/><path d="m36.5681 31.1935s3.9868-.6782 5.0321-5.1926c0 0-1.0386-2.8566.9782-4.7953 2.0236-1.9455 1.0118-4.076-.9782-4.4665-1.9901-.3904-5.0321 2.0552-5.0321 2.0552l-2.4256 4.439.9917 4.4802 1.4406 3.4731z" fill="#263238"/><path d="m36.5681 31.1935s3.9868-.6782 5.0321-5.1926c0 0-1.0386-2.8566.9782-4.7953 2.0236-1.9455 1.0118-4.076-.9782-4.4665-1.9901-.3904-5.0321 2.0552-5.0321 2.0552l-2.4256 4.439.9917 4.4802 1.4406 3.4731z" fill="#fff" opacity=".3"/><path d="m39.5967 24.3568c.3149 1.2536 1.119 2.3291 1.9632 2.9662 1.2664.9659 2.2112.0137 2.1241-1.4523-.0804-1.3221-.8376-3.4115-2.2313-3.8019-1.3736-.3837-2.2111.8494-1.8493 2.2812z" fill="#ffc3bd"/><path d="m37.2515 29.8645c-1.1859-2.8909-3.3703-10.3784 4.3487-13.1254 0 0-.5562-7.22032 3.1961-4.2815 0 0-3.5848-4.68567-4.0873.1096 0 0-.8845-1.6372.4422-2.7059 0 0-7.0623-2.42504-6.9015 3.0484 0 0-.7169-1.8907.4959-3.39777 0 0-1.5345-.0959-2.1509 2.38397-.6097 2.4798-6.5732 1.9729-6.0505 7.6176 0 0-5.2733 6.8093 7.4241 12.6322 0 0-1.6684 1.0549-.717 2.7401 0 0 .4423-1.8427 2.2648-2.7401 0 0-.8309 1.9318.9381 2.4935 0 0-.6366-1.6715.5293-2.9731.4355-.4795.516-1.1988.268-1.8016z" fill="#263238"/><path d="m41.8146 32.8307c-1.6819.0753-1.5813 1.7605-1.5612 2.014 1.454-.1302 2.8209-.7946 3.8728-1.8428-.6097.1234-1.2597-.2192-2.3116-.1712z" fill="#000" opacity=".1"/><path d="m40.9569 16.0129s.8644-3.2676 2.506-2.6237c1.6349.644.4757 3.2951 1.3334 4.5418 0 0-1.2262-.4384-1.4674-1.9797-.2412-1.5414-1.7287.7878-1.7287.7878z" fill="#263238"/><path d="m41.6001 29.1109 1.5747-1.8496-.6031-.5412h-1.9498l-.6031.5412z" fill="#407bff"/><path d="m41.379 26.7201h-.7571l-.6031.5412 1.5813 1.8496-.8241-1.8496z" fill="#fff" opacity=".2"/></g></svg>