<svg width="310" height="324" viewBox="0 0 310 324" fill="none" xmlns="http://www.w3.org/2000/svg">
<g filter="url(#filter0_d_622_15156)">
<rect x="20" y="27" width="270" height="263" rx="10" fill="white"/>
</g>
<path d="M116.747 108.44H119.187C119.547 108.44 119.893 108.413 120.227 108.36C120.56 108.307 120.853 108.207 121.107 108.06C121.36 107.9 121.56 107.68 121.707 107.4C121.867 107.12 121.947 106.753 121.947 106.3C121.947 105.847 121.867 105.48 121.707 105.2C121.56 104.92 121.36 104.707 121.107 104.56C120.853 104.4 120.56 104.293 120.227 104.24C119.893 104.187 119.547 104.16 119.187 104.16H116.747V108.44ZM113.607 101.72H120.047C120.94 101.72 121.7 101.853 122.327 102.12C122.953 102.373 123.46 102.713 123.847 103.14C124.247 103.567 124.533 104.053 124.707 104.6C124.893 105.147 124.987 105.713 124.987 106.3C124.987 106.873 124.893 107.44 124.707 108C124.533 108.547 124.247 109.033 123.847 109.46C123.46 109.887 122.953 110.233 122.327 110.5C121.7 110.753 120.94 110.88 120.047 110.88H116.747V116H113.607V101.72ZM126.646 105.66H129.346V107.58H129.386C129.52 107.26 129.7 106.967 129.926 106.7C130.153 106.42 130.413 106.187 130.706 106C131 105.8 131.313 105.647 131.646 105.54C131.98 105.433 132.326 105.38 132.686 105.38C132.873 105.38 133.08 105.413 133.306 105.48V108.12C133.173 108.093 133.013 108.073 132.826 108.06C132.64 108.033 132.46 108.02 132.286 108.02C131.766 108.02 131.326 108.107 130.966 108.28C130.606 108.453 130.313 108.693 130.086 109C129.873 109.293 129.72 109.64 129.626 110.04C129.533 110.44 129.486 110.873 129.486 111.34V116H126.646V105.66ZM136.588 110.84C136.588 111.253 136.628 111.66 136.708 112.06C136.788 112.447 136.922 112.8 137.108 113.12C137.308 113.427 137.568 113.673 137.888 113.86C138.208 114.047 138.608 114.14 139.088 114.14C139.568 114.14 139.968 114.047 140.288 113.86C140.622 113.673 140.882 113.427 141.068 113.12C141.268 112.8 141.408 112.447 141.488 112.06C141.568 111.66 141.608 111.253 141.608 110.84C141.608 110.427 141.568 110.02 141.488 109.62C141.408 109.22 141.268 108.867 141.068 108.56C140.882 108.253 140.622 108.007 140.288 107.82C139.968 107.62 139.568 107.52 139.088 107.52C138.608 107.52 138.208 107.62 137.888 107.82C137.568 108.007 137.308 108.253 137.108 108.56C136.922 108.867 136.788 109.22 136.708 109.62C136.628 110.02 136.588 110.427 136.588 110.84ZM133.748 110.84C133.748 110.013 133.875 109.267 134.128 108.6C134.382 107.92 134.742 107.347 135.208 106.88C135.675 106.4 136.235 106.033 136.888 105.78C137.542 105.513 138.275 105.38 139.088 105.38C139.902 105.38 140.635 105.513 141.288 105.78C141.955 106.033 142.522 106.4 142.988 106.88C143.455 107.347 143.815 107.92 144.068 108.6C144.322 109.267 144.448 110.013 144.448 110.84C144.448 111.667 144.322 112.413 144.068 113.08C143.815 113.747 143.455 114.32 142.988 114.8C142.522 115.267 141.955 115.627 141.288 115.88C140.635 116.133 139.902 116.26 139.088 116.26C138.275 116.26 137.542 116.133 136.888 115.88C136.235 115.627 135.675 115.267 135.208 114.8C134.742 114.32 134.382 113.747 134.128 113.08C133.875 112.413 133.748 111.667 133.748 110.84ZM153.875 110.84C153.875 110.4 153.828 109.98 153.735 109.58C153.642 109.18 153.495 108.827 153.295 108.52C153.095 108.213 152.842 107.973 152.535 107.8C152.242 107.613 151.882 107.52 151.455 107.52C151.042 107.52 150.682 107.613 150.375 107.8C150.068 107.973 149.815 108.213 149.615 108.52C149.415 108.827 149.268 109.18 149.175 109.58C149.082 109.98 149.035 110.4 149.035 110.84C149.035 111.267 149.082 111.68 149.175 112.08C149.268 112.48 149.415 112.833 149.615 113.14C149.815 113.447 150.068 113.693 150.375 113.88C150.682 114.053 151.042 114.14 151.455 114.14C151.882 114.14 152.242 114.053 152.535 113.88C152.842 113.693 153.095 113.447 153.295 113.14C153.495 112.833 153.642 112.48 153.735 112.08C153.828 111.68 153.875 111.267 153.875 110.84ZM146.295 101.72H149.135V106.92H149.175C149.522 106.387 149.988 106 150.575 105.76C151.175 105.507 151.795 105.38 152.435 105.38C152.955 105.38 153.468 105.487 153.975 105.7C154.482 105.913 154.935 106.24 155.335 106.68C155.748 107.12 156.082 107.687 156.335 108.38C156.588 109.06 156.715 109.873 156.715 110.82C156.715 111.767 156.588 112.587 156.335 113.28C156.082 113.96 155.748 114.52 155.335 114.96C154.935 115.4 154.482 115.727 153.975 115.94C153.468 116.153 152.955 116.26 152.435 116.26C151.675 116.26 150.995 116.14 150.395 115.9C149.795 115.66 149.342 115.253 149.035 114.68H148.995V116H146.295V101.72ZM158.601 101.72H161.441V116H158.601V101.72ZM170.638 109.72C170.504 109 170.264 108.453 169.918 108.08C169.584 107.707 169.071 107.52 168.378 107.52C167.924 107.52 167.544 107.6 167.238 107.76C166.944 107.907 166.704 108.093 166.518 108.32C166.344 108.547 166.218 108.787 166.138 109.04C166.071 109.293 166.031 109.52 166.018 109.72H170.638ZM166.018 111.52C166.058 112.44 166.291 113.107 166.718 113.52C167.144 113.933 167.758 114.14 168.558 114.14C169.131 114.14 169.624 114 170.038 113.72C170.451 113.427 170.704 113.12 170.798 112.8H173.298C172.898 114.04 172.284 114.927 171.458 115.46C170.631 115.993 169.631 116.26 168.458 116.26C167.644 116.26 166.911 116.133 166.258 115.88C165.604 115.613 165.051 115.24 164.598 114.76C164.144 114.28 163.791 113.707 163.538 113.04C163.298 112.373 163.178 111.64 163.178 110.84C163.178 110.067 163.304 109.347 163.558 108.68C163.811 108.013 164.171 107.44 164.638 106.96C165.104 106.467 165.658 106.08 166.298 105.8C166.951 105.52 167.671 105.38 168.458 105.38C169.338 105.38 170.104 105.553 170.758 105.9C171.411 106.233 171.944 106.687 172.358 107.26C172.784 107.833 173.091 108.487 173.278 109.22C173.464 109.953 173.531 110.72 173.478 111.52H166.018ZM175.242 105.66H177.922V107.06H177.962C178.335 106.527 178.782 106.113 179.302 105.82C179.835 105.527 180.442 105.38 181.122 105.38C181.775 105.38 182.369 105.507 182.902 105.76C183.449 106.013 183.862 106.46 184.142 107.1C184.449 106.647 184.862 106.247 185.382 105.9C185.915 105.553 186.542 105.38 187.262 105.38C187.809 105.38 188.315 105.447 188.782 105.58C189.249 105.713 189.649 105.927 189.982 106.22C190.315 106.513 190.575 106.9 190.762 107.38C190.949 107.847 191.042 108.413 191.042 109.08V116H188.202V110.14C188.202 109.793 188.189 109.467 188.162 109.16C188.135 108.853 188.062 108.587 187.942 108.36C187.822 108.133 187.642 107.953 187.402 107.82C187.175 107.687 186.862 107.62 186.462 107.62C186.062 107.62 185.735 107.7 185.482 107.86C185.242 108.007 185.049 108.207 184.902 108.46C184.769 108.7 184.675 108.98 184.622 109.3C184.582 109.607 184.562 109.92 184.562 110.24V116H181.722V110.2C181.722 109.893 181.715 109.593 181.702 109.3C181.689 108.993 181.629 108.713 181.522 108.46C181.429 108.207 181.262 108.007 181.022 107.86C180.795 107.7 180.455 107.62 180.002 107.62C179.869 107.62 179.689 107.653 179.462 107.72C179.249 107.773 179.035 107.887 178.822 108.06C178.622 108.22 178.449 108.46 178.302 108.78C178.155 109.087 178.082 109.493 178.082 110V116H175.242V105.66ZM196.567 108.92H193.427V105.84H196.567V108.92ZM193.427 112.92H196.567V116H193.427V112.92Z" fill="#000080"/>
<path d="M75.9914 160.5H81.0714C81.4847 160.5 81.8781 160.44 82.2514 160.32C82.6247 160.187 82.9514 160 83.2314 159.76C83.5114 159.52 83.7314 159.233 83.8914 158.9C84.0647 158.553 84.1514 158.16 84.1514 157.72C84.1514 156.84 83.8981 156.147 83.3914 155.64C82.8847 155.133 82.1114 154.88 81.0714 154.88H75.9914V160.5ZM74.6314 153.72H81.1714C81.7581 153.72 82.3114 153.793 82.8314 153.94C83.3647 154.087 83.8247 154.313 84.2114 154.62C84.6114 154.913 84.9247 155.3 85.1514 155.78C85.3914 156.247 85.5114 156.8 85.5114 157.44C85.5114 158.347 85.2781 159.133 84.8114 159.8C84.3447 160.467 83.6514 160.893 82.7314 161.08V161.12C83.1981 161.187 83.5847 161.313 83.8914 161.5C84.1981 161.673 84.4447 161.9 84.6314 162.18C84.8314 162.46 84.9714 162.787 85.0514 163.16C85.1447 163.52 85.2047 163.913 85.2314 164.34C85.2447 164.58 85.2581 164.873 85.2714 165.22C85.2847 165.567 85.3114 165.92 85.3514 166.28C85.3914 166.627 85.4514 166.96 85.5314 167.28C85.6247 167.587 85.7447 167.827 85.8914 168H84.3914C84.3114 167.867 84.2447 167.707 84.1914 167.52C84.1514 167.32 84.1181 167.12 84.0914 166.92C84.0781 166.707 84.0647 166.5 84.0514 166.3C84.0381 166.1 84.0247 165.927 84.0114 165.78C83.9847 165.273 83.9381 164.773 83.8714 164.28C83.8181 163.773 83.6914 163.327 83.4914 162.94C83.3047 162.54 83.0247 162.22 82.6514 161.98C82.2914 161.74 81.7914 161.633 81.1514 161.66H75.9914V168H74.6314V153.72ZM95.1513 162.12C95.1379 161.64 95.0513 161.18 94.8913 160.74C94.7446 160.3 94.5313 159.913 94.2513 159.58C93.9713 159.233 93.6313 158.96 93.2313 158.76C92.8313 158.547 92.3779 158.44 91.8713 158.44C91.3513 158.44 90.8913 158.547 90.4913 158.76C90.0913 158.96 89.7513 159.233 89.4712 159.58C89.1913 159.913 88.9646 160.307 88.7913 160.76C88.6313 161.2 88.5246 161.653 88.4713 162.12H95.1513ZM88.4713 163.18C88.4713 163.633 88.5313 164.107 88.6513 164.6C88.7846 165.08 88.9913 165.513 89.2713 165.9C89.5513 166.287 89.9046 166.607 90.3313 166.86C90.7579 167.113 91.2713 167.24 91.8713 167.24C92.7913 167.24 93.5113 167 94.0313 166.52C94.5513 166.04 94.9113 165.4 95.1113 164.6H96.3713C96.1046 165.773 95.6113 166.68 94.8913 167.32C94.1846 167.96 93.1779 168.28 91.8713 168.28C91.0579 168.28 90.3513 168.14 89.7513 167.86C89.1646 167.567 88.6846 167.173 88.3113 166.68C87.9379 166.173 87.6579 165.593 87.4713 164.94C87.2979 164.273 87.2113 163.573 87.2113 162.84C87.2113 162.16 87.2979 161.493 87.4713 160.84C87.6579 160.187 87.9379 159.607 88.3113 159.1C88.6846 158.58 89.1646 158.167 89.7513 157.86C90.3513 157.54 91.0579 157.38 91.8713 157.38C92.6979 157.38 93.4046 157.547 93.9913 157.88C94.5779 158.213 95.0513 158.653 95.4113 159.2C95.7846 159.733 96.0513 160.353 96.2113 161.06C96.3713 161.753 96.4379 162.46 96.4113 163.18H88.4713ZM104.282 160.7C104.269 160.313 104.189 159.98 104.042 159.7C103.896 159.407 103.696 159.167 103.442 158.98C103.202 158.793 102.922 158.66 102.602 158.58C102.282 158.487 101.942 158.44 101.582 158.44C101.302 158.44 101.016 158.473 100.722 158.54C100.442 158.593 100.182 158.693 99.9423 158.84C99.7023 158.973 99.509 159.153 99.3623 159.38C99.2157 159.607 99.1423 159.887 99.1423 160.22C99.1423 160.5 99.209 160.74 99.3423 160.94C99.489 161.127 99.669 161.287 99.8823 161.42C100.096 161.553 100.329 161.667 100.582 161.76C100.836 161.84 101.069 161.907 101.282 161.96L102.962 162.34C103.322 162.393 103.676 162.493 104.022 162.64C104.382 162.773 104.696 162.953 104.962 163.18C105.242 163.407 105.469 163.687 105.642 164.02C105.816 164.353 105.902 164.747 105.902 165.2C105.902 165.76 105.776 166.24 105.522 166.64C105.269 167.027 104.942 167.347 104.542 167.6C104.156 167.84 103.716 168.013 103.222 168.12C102.729 168.227 102.242 168.28 101.762 168.28C100.549 168.28 99.5623 167.993 98.8023 167.42C98.0557 166.847 97.629 165.927 97.5223 164.66H98.7823C98.8357 165.513 99.1423 166.16 99.7023 166.6C100.276 167.027 100.982 167.24 101.822 167.24C102.129 167.24 102.442 167.207 102.762 167.14C103.096 167.073 103.402 166.96 103.682 166.8C103.962 166.64 104.189 166.44 104.362 166.2C104.549 165.947 104.642 165.64 104.642 165.28C104.642 164.973 104.576 164.72 104.442 164.52C104.322 164.307 104.156 164.133 103.942 164C103.729 163.853 103.482 163.733 103.202 163.64C102.936 163.547 102.662 163.467 102.382 163.4L100.762 163.04C100.349 162.933 99.969 162.813 99.6223 162.68C99.2757 162.533 98.969 162.36 98.7023 162.16C98.449 161.947 98.249 161.693 98.1023 161.4C97.9557 161.093 97.8823 160.72 97.8823 160.28C97.8823 159.76 97.9957 159.313 98.2223 158.94C98.4623 158.567 98.769 158.267 99.1423 158.04C99.5157 157.813 99.929 157.647 100.382 157.54C100.849 157.433 101.309 157.38 101.762 157.38C102.282 157.38 102.762 157.447 103.202 157.58C103.656 157.713 104.049 157.92 104.382 158.2C104.729 158.48 105.002 158.827 105.202 159.24C105.402 159.653 105.516 160.14 105.542 160.7H104.282ZM115.151 162.12C115.138 161.64 115.051 161.18 114.891 160.74C114.745 160.3 114.531 159.913 114.251 159.58C113.971 159.233 113.631 158.96 113.231 158.76C112.831 158.547 112.378 158.44 111.871 158.44C111.351 158.44 110.891 158.547 110.491 158.76C110.091 158.96 109.751 159.233 109.471 159.58C109.191 159.913 108.965 160.307 108.791 160.76C108.631 161.2 108.525 161.653 108.471 162.12H115.151ZM108.471 163.18C108.471 163.633 108.531 164.107 108.651 164.6C108.785 165.08 108.991 165.513 109.271 165.9C109.551 166.287 109.905 166.607 110.331 166.86C110.758 167.113 111.271 167.24 111.871 167.24C112.791 167.24 113.511 167 114.031 166.52C114.551 166.04 114.911 165.4 115.111 164.6H116.371C116.105 165.773 115.611 166.68 114.891 167.32C114.185 167.96 113.178 168.28 111.871 168.28C111.058 168.28 110.351 168.14 109.751 167.86C109.165 167.567 108.685 167.173 108.311 166.68C107.938 166.173 107.658 165.593 107.471 164.94C107.298 164.273 107.211 163.573 107.211 162.84C107.211 162.16 107.298 161.493 107.471 160.84C107.658 160.187 107.938 159.607 108.311 159.1C108.685 158.58 109.165 158.167 109.751 157.86C110.351 157.54 111.058 157.38 111.871 157.38C112.698 157.38 113.405 157.547 113.991 157.88C114.578 158.213 115.051 158.653 115.411 159.2C115.785 159.733 116.051 160.353 116.211 161.06C116.371 161.753 116.438 162.46 116.411 163.18H108.471ZM117.982 160.84C118.022 160.24 118.149 159.72 118.362 159.28C118.576 158.84 118.862 158.48 119.222 158.2C119.596 157.92 120.029 157.713 120.522 157.58C121.016 157.447 121.562 157.38 122.162 157.38C122.616 157.38 123.069 157.427 123.522 157.52C123.976 157.6 124.382 157.76 124.742 158C125.102 158.24 125.396 158.58 125.622 159.02C125.849 159.447 125.962 160.007 125.962 160.7V166.18C125.962 166.687 126.209 166.94 126.702 166.94C126.849 166.94 126.982 166.913 127.102 166.86V167.92C126.956 167.947 126.822 167.967 126.702 167.98C126.596 167.993 126.456 168 126.282 168C125.962 168 125.702 167.96 125.502 167.88C125.316 167.787 125.169 167.66 125.062 167.5C124.956 167.34 124.882 167.153 124.842 166.94C124.816 166.713 124.802 166.467 124.802 166.2H124.762C124.536 166.533 124.302 166.833 124.062 167.1C123.836 167.353 123.576 167.567 123.282 167.74C123.002 167.913 122.676 168.047 122.302 168.14C121.942 168.233 121.509 168.28 121.002 168.28C120.522 168.28 120.069 168.22 119.642 168.1C119.229 167.993 118.862 167.82 118.542 167.58C118.236 167.327 117.989 167.013 117.802 166.64C117.629 166.253 117.542 165.8 117.542 165.28C117.542 164.56 117.702 164 118.022 163.6C118.342 163.187 118.762 162.873 119.282 162.66C119.816 162.447 120.409 162.3 121.062 162.22C121.729 162.127 122.402 162.04 123.082 161.96C123.349 161.933 123.582 161.9 123.782 161.86C123.982 161.82 124.149 161.753 124.282 161.66C124.416 161.553 124.516 161.413 124.582 161.24C124.662 161.067 124.702 160.84 124.702 160.56C124.702 160.133 124.629 159.787 124.482 159.52C124.349 159.24 124.156 159.02 123.902 158.86C123.662 158.7 123.376 158.593 123.042 158.54C122.722 158.473 122.376 158.44 122.002 158.44C121.202 158.44 120.549 158.633 120.042 159.02C119.536 159.393 119.269 160 119.242 160.84H117.982ZM124.702 162.36H124.662C124.582 162.507 124.429 162.613 124.202 162.68C123.976 162.747 123.776 162.793 123.602 162.82C123.069 162.913 122.516 163 121.942 163.08C121.382 163.147 120.869 163.253 120.402 163.4C119.936 163.547 119.549 163.76 119.242 164.04C118.949 164.307 118.802 164.693 118.802 165.2C118.802 165.52 118.862 165.807 118.982 166.06C119.116 166.3 119.289 166.513 119.502 166.7C119.716 166.873 119.962 167.007 120.242 167.1C120.522 167.193 120.809 167.24 121.102 167.24C121.582 167.24 122.042 167.167 122.482 167.02C122.922 166.873 123.302 166.66 123.622 166.38C123.956 166.1 124.216 165.76 124.402 165.36C124.602 164.96 124.702 164.507 124.702 164V162.36ZM128.473 157.68H129.633V160.1H129.673C129.993 159.26 130.487 158.613 131.153 158.16C131.833 157.707 132.64 157.5 133.573 157.54V158.8C133 158.773 132.48 158.853 132.013 159.04C131.547 159.213 131.14 159.467 130.793 159.8C130.46 160.133 130.2 160.533 130.013 161C129.827 161.453 129.733 161.953 129.733 162.5V168H128.473V157.68ZM141.71 160.92C141.537 160.147 141.217 159.54 140.75 159.1C140.284 158.66 139.63 158.44 138.79 158.44C138.19 158.44 137.664 158.567 137.21 158.82C136.757 159.073 136.377 159.407 136.07 159.82C135.777 160.233 135.55 160.707 135.39 161.24C135.244 161.76 135.17 162.293 135.17 162.84C135.17 163.387 135.244 163.927 135.39 164.46C135.55 164.98 135.777 165.447 136.07 165.86C136.377 166.273 136.757 166.607 137.21 166.86C137.664 167.113 138.19 167.24 138.79 167.24C139.177 167.24 139.544 167.167 139.89 167.02C140.237 166.873 140.544 166.673 140.81 166.42C141.077 166.153 141.297 165.84 141.47 165.48C141.644 165.12 141.75 164.727 141.79 164.3H143.05C142.877 165.553 142.417 166.533 141.67 167.24C140.924 167.933 139.964 168.28 138.79 168.28C138.004 168.28 137.304 168.14 136.69 167.86C136.09 167.567 135.584 167.173 135.17 166.68C134.757 166.187 134.444 165.613 134.23 164.96C134.017 164.293 133.91 163.587 133.91 162.84C133.91 162.093 134.017 161.393 134.23 160.74C134.444 160.073 134.757 159.493 135.17 159C135.584 158.507 136.09 158.113 136.69 157.82C137.304 157.527 138.004 157.38 138.79 157.38C139.897 157.38 140.83 157.673 141.59 158.26C142.364 158.847 142.824 159.733 142.97 160.92H141.71ZM144.782 153.72H146.042V159.46H146.082C146.322 158.833 146.748 158.333 147.362 157.96C147.975 157.573 148.648 157.38 149.382 157.38C150.102 157.38 150.702 157.473 151.182 157.66C151.675 157.847 152.068 158.113 152.362 158.46C152.655 158.793 152.862 159.207 152.982 159.7C153.102 160.193 153.162 160.747 153.162 161.36V168H151.902V161.56C151.902 161.12 151.862 160.713 151.782 160.34C151.702 159.953 151.562 159.62 151.362 159.34C151.162 159.06 150.888 158.84 150.542 158.68C150.208 158.52 149.788 158.44 149.282 158.44C148.775 158.44 148.322 158.533 147.922 158.72C147.535 158.893 147.202 159.14 146.922 159.46C146.655 159.767 146.442 160.14 146.282 160.58C146.135 161.007 146.055 161.473 146.042 161.98V168H144.782V153.72ZM155.564 153.72H156.824V155.74H155.564V153.72ZM155.564 157.68H156.824V168H155.564V157.68ZM159.215 157.68H160.475V159.46H160.515C160.755 158.833 161.182 158.333 161.795 157.96C162.408 157.573 163.082 157.38 163.815 157.38C164.535 157.38 165.135 157.473 165.615 157.66C166.108 157.847 166.502 158.113 166.795 158.46C167.088 158.793 167.295 159.207 167.415 159.7C167.535 160.193 167.595 160.747 167.595 161.36V168H166.335V161.56C166.335 161.12 166.295 160.713 166.215 160.34C166.135 159.953 165.995 159.62 165.795 159.34C165.595 159.06 165.322 158.84 164.975 158.68C164.642 158.52 164.222 158.44 163.715 158.44C163.208 158.44 162.755 158.533 162.355 158.72C161.968 158.893 161.635 159.14 161.355 159.46C161.088 159.767 160.875 160.14 160.715 160.58C160.568 161.007 160.488 161.473 160.475 161.98V168H159.215V157.68ZM178.697 167.16C178.697 167.92 178.611 168.607 178.437 169.22C178.277 169.833 178.017 170.353 177.657 170.78C177.297 171.207 176.824 171.533 176.237 171.76C175.664 171.987 174.957 172.1 174.117 172.1C173.597 172.1 173.091 172.04 172.597 171.92C172.104 171.8 171.657 171.613 171.257 171.36C170.871 171.107 170.544 170.78 170.277 170.38C170.024 169.993 169.877 169.527 169.837 168.98H171.097C171.164 169.367 171.291 169.687 171.477 169.94C171.677 170.207 171.911 170.42 172.177 170.58C172.457 170.74 172.764 170.853 173.097 170.92C173.431 171 173.771 171.04 174.117 171.04C175.291 171.04 176.137 170.707 176.657 170.04C177.177 169.373 177.437 168.413 177.437 167.16V165.76H177.397C177.104 166.4 176.671 166.913 176.097 167.3C175.537 167.687 174.877 167.88 174.117 167.88C173.291 167.88 172.584 167.747 171.997 167.48C171.411 167.2 170.924 166.82 170.537 166.34C170.164 165.86 169.891 165.3 169.717 164.66C169.544 164.007 169.457 163.313 169.457 162.58C169.457 161.873 169.557 161.207 169.757 160.58C169.971 159.94 170.271 159.387 170.657 158.92C171.057 158.44 171.544 158.067 172.117 157.8C172.704 157.52 173.371 157.38 174.117 157.38C174.504 157.38 174.864 157.433 175.197 157.54C175.544 157.647 175.857 157.8 176.137 158C176.417 158.187 176.664 158.407 176.877 158.66C177.104 158.913 177.277 159.18 177.397 159.46H177.437V157.68H178.697V167.16ZM174.117 166.82C174.664 166.82 175.144 166.707 175.557 166.48C175.971 166.24 176.317 165.933 176.597 165.56C176.877 165.173 177.084 164.733 177.217 164.24C177.364 163.747 177.437 163.24 177.437 162.72C177.437 162.213 177.377 161.707 177.257 161.2C177.137 160.693 176.944 160.233 176.677 159.82C176.411 159.407 176.064 159.073 175.637 158.82C175.224 158.567 174.717 158.44 174.117 158.44C173.517 158.44 173.004 158.567 172.577 158.82C172.151 159.06 171.797 159.38 171.517 159.78C171.237 160.18 171.031 160.64 170.897 161.16C170.777 161.667 170.717 162.187 170.717 162.72C170.717 163.24 170.784 163.747 170.917 164.24C171.051 164.733 171.257 165.173 171.537 165.56C171.817 165.933 172.171 166.24 172.597 166.48C173.024 166.707 173.531 166.82 174.117 166.82ZM191.017 158.44C190.417 158.44 189.89 158.567 189.437 158.82C188.984 159.073 188.604 159.407 188.297 159.82C188.004 160.233 187.777 160.707 187.617 161.24C187.47 161.76 187.397 162.293 187.397 162.84C187.397 163.387 187.47 163.927 187.617 164.46C187.777 164.98 188.004 165.447 188.297 165.86C188.604 166.273 188.984 166.607 189.437 166.86C189.89 167.113 190.417 167.24 191.017 167.24C191.617 167.24 192.144 167.113 192.597 166.86C193.05 166.607 193.424 166.273 193.717 165.86C194.024 165.447 194.25 164.98 194.397 164.46C194.557 163.927 194.637 163.387 194.637 162.84C194.637 162.293 194.557 161.76 194.397 161.24C194.25 160.707 194.024 160.233 193.717 159.82C193.424 159.407 193.05 159.073 192.597 158.82C192.144 158.567 191.617 158.44 191.017 158.44ZM191.017 157.38C191.804 157.38 192.497 157.527 193.097 157.82C193.71 158.113 194.224 158.507 194.637 159C195.05 159.493 195.364 160.073 195.577 160.74C195.79 161.393 195.897 162.093 195.897 162.84C195.897 163.587 195.79 164.293 195.577 164.96C195.364 165.613 195.05 166.187 194.637 166.68C194.224 167.173 193.71 167.567 193.097 167.86C192.497 168.14 191.804 168.28 191.017 168.28C190.23 168.28 189.53 168.14 188.917 167.86C188.317 167.567 187.81 167.173 187.397 166.68C186.984 166.187 186.67 165.613 186.457 164.96C186.244 164.293 186.137 163.587 186.137 162.84C186.137 162.093 186.244 161.393 186.457 160.74C186.67 160.073 186.984 159.493 187.397 159C187.81 158.507 188.317 158.113 188.917 157.82C189.53 157.527 190.23 157.38 191.017 157.38ZM197.75 157.68H199.01V159.46H199.05C199.29 158.833 199.717 158.333 200.33 157.96C200.944 157.573 201.617 157.38 202.35 157.38C203.07 157.38 203.67 157.473 204.15 157.66C204.644 157.847 205.037 158.113 205.33 158.46C205.624 158.793 205.83 159.207 205.95 159.7C206.07 160.193 206.13 160.747 206.13 161.36V168H204.87V161.56C204.87 161.12 204.83 160.713 204.75 160.34C204.67 159.953 204.53 159.62 204.33 159.34C204.13 159.06 203.857 158.84 203.51 158.68C203.177 158.52 202.757 158.44 202.25 158.44C201.744 158.44 201.29 158.533 200.89 158.72C200.504 158.893 200.17 159.14 199.89 159.46C199.624 159.767 199.41 160.14 199.25 160.58C199.104 161.007 199.024 161.473 199.01 161.98V168H197.75V157.68ZM208.533 153.72H209.793V168H208.533V153.72ZM212.224 153.72H213.484V155.74H212.224V153.72ZM212.224 157.68H213.484V168H212.224V157.68ZM215.875 157.68H217.135V159.46H217.175C217.415 158.833 217.842 158.333 218.455 157.96C219.069 157.573 219.742 157.38 220.475 157.38C221.195 157.38 221.795 157.473 222.275 157.66C222.769 157.847 223.162 158.113 223.455 158.46C223.749 158.793 223.955 159.207 224.075 159.7C224.195 160.193 224.255 160.747 224.255 161.36V168H222.995V161.56C222.995 161.12 222.955 160.713 222.875 160.34C222.795 159.953 222.655 159.62 222.455 159.34C222.255 159.06 221.982 158.84 221.635 158.68C221.302 158.52 220.882 158.44 220.375 158.44C219.869 158.44 219.415 158.533 219.015 158.72C218.629 158.893 218.295 159.14 218.015 159.46C217.749 159.767 217.535 160.14 217.375 160.58C217.229 161.007 217.149 161.473 217.135 161.98V168H215.875V157.68ZM234.058 162.12C234.044 161.64 233.958 161.18 233.798 160.74C233.651 160.3 233.438 159.913 233.158 159.58C232.878 159.233 232.538 158.96 232.138 158.76C231.738 158.547 231.284 158.44 230.778 158.44C230.258 158.44 229.798 158.547 229.398 158.76C228.998 158.96 228.658 159.233 228.377 159.58C228.098 159.913 227.871 160.307 227.698 160.76C227.538 161.2 227.431 161.653 227.378 162.12H234.058ZM227.378 163.18C227.378 163.633 227.438 164.107 227.558 164.6C227.691 165.08 227.898 165.513 228.178 165.9C228.458 166.287 228.811 166.607 229.238 166.86C229.664 167.113 230.178 167.24 230.778 167.24C231.698 167.24 232.418 167 232.938 166.52C233.458 166.04 233.818 165.4 234.018 164.6H235.278C235.011 165.773 234.518 166.68 233.798 167.32C233.091 167.96 232.084 168.28 230.778 168.28C229.964 168.28 229.258 168.14 228.658 167.86C228.071 167.567 227.591 167.173 227.218 166.68C226.844 166.173 226.564 165.593 226.378 164.94C226.204 164.273 226.118 163.573 226.118 162.84C226.118 162.16 226.204 161.493 226.378 160.84C226.564 160.187 226.844 159.607 227.218 159.1C227.591 158.58 228.071 158.167 228.658 157.86C229.258 157.54 229.964 157.38 230.778 157.38C231.604 157.38 232.311 157.547 232.898 157.88C233.484 158.213 233.958 158.653 234.318 159.2C234.691 159.733 234.958 160.353 235.118 161.06C235.278 161.753 235.344 162.46 235.318 163.18H227.378ZM51.2176 181.68H52.3776V184.1H52.4176C52.7376 183.26 53.2309 182.613 53.8976 182.16C54.5776 181.707 55.3842 181.5 56.3176 181.54V182.8C55.7442 182.773 55.2242 182.853 54.7576 183.04C54.2909 183.213 53.8842 183.467 53.5376 183.8C53.2042 184.133 52.9442 184.533 52.7576 185C52.5709 185.453 52.4776 185.953 52.4776 186.5V192H51.2176V181.68ZM64.5946 186.12C64.5813 185.64 64.4946 185.18 64.3346 184.74C64.1879 184.3 63.9746 183.913 63.6946 183.58C63.4146 183.233 63.0746 182.96 62.6746 182.76C62.2746 182.547 61.8213 182.44 61.3146 182.44C60.7946 182.44 60.3346 182.547 59.9346 182.76C59.5346 182.96 59.1946 183.233 58.9146 183.58C58.6346 183.913 58.4079 184.307 58.2346 184.76C58.0746 185.2 57.9679 185.653 57.9146 186.12H64.5946ZM57.9146 187.18C57.9146 187.633 57.9746 188.107 58.0946 188.6C58.2279 189.08 58.4346 189.513 58.7146 189.9C58.9946 190.287 59.3479 190.607 59.7746 190.86C60.2013 191.113 60.7146 191.24 61.3146 191.24C62.2346 191.24 62.9546 191 63.4746 190.52C63.9946 190.04 64.3546 189.4 64.5546 188.6H65.8146C65.5479 189.773 65.0546 190.68 64.3346 191.32C63.6279 191.96 62.6213 192.28 61.3146 192.28C60.5013 192.28 59.7946 192.14 59.1946 191.86C58.6079 191.567 58.1279 191.173 57.7546 190.68C57.3813 190.173 57.1013 189.593 56.9146 188.94C56.7413 188.273 56.6546 187.573 56.6546 186.84C56.6546 186.16 56.7413 185.493 56.9146 184.84C57.1013 184.187 57.3813 183.607 57.7546 183.1C58.1279 182.58 58.6079 182.167 59.1946 181.86C59.7946 181.54 60.5013 181.38 61.3146 181.38C62.1413 181.38 62.8479 181.547 63.4346 181.88C64.0213 182.213 64.4946 182.653 64.8546 183.2C65.2279 183.733 65.4946 184.353 65.6546 185.06C65.8146 185.753 65.8813 186.46 65.8546 187.18H57.9146ZM66.3857 181.68H67.7857L71.0257 190.74H71.0657L74.2657 181.68H75.5657L71.7057 192H70.3657L66.3857 181.68ZM76.8235 177.72H78.0835V179.74H76.8235V177.72ZM76.8235 181.68H78.0835V192H76.8235V181.68ZM87.9149 186.12C87.9016 185.64 87.8149 185.18 87.6549 184.74C87.5083 184.3 87.2949 183.913 87.0149 183.58C86.7349 183.233 86.3949 182.96 85.9949 182.76C85.5949 182.547 85.1416 182.44 84.6349 182.44C84.1149 182.44 83.6549 182.547 83.2549 182.76C82.8549 182.96 82.5149 183.233 82.2349 183.58C81.9549 183.913 81.7283 184.307 81.5549 184.76C81.3949 185.2 81.2883 185.653 81.2349 186.12H87.9149ZM81.2349 187.18C81.2349 187.633 81.2949 188.107 81.4149 188.6C81.5483 189.08 81.7549 189.513 82.0349 189.9C82.3149 190.287 82.6683 190.607 83.0949 190.86C83.5216 191.113 84.0349 191.24 84.6349 191.24C85.5549 191.24 86.2749 191 86.7949 190.52C87.3149 190.04 87.6749 189.4 87.8749 188.6H89.1349C88.8683 189.773 88.3749 190.68 87.6549 191.32C86.9483 191.96 85.9416 192.28 84.6349 192.28C83.8216 192.28 83.1149 192.14 82.5149 191.86C81.9283 191.567 81.4483 191.173 81.0749 190.68C80.7016 190.173 80.4216 189.593 80.2349 188.94C80.0616 188.273 79.9749 187.573 79.9749 186.84C79.9749 186.16 80.0616 185.493 80.2349 184.84C80.4216 184.187 80.7016 183.607 81.0749 183.1C81.4483 182.58 81.9283 182.167 82.5149 181.86C83.1149 181.54 83.8216 181.38 84.6349 181.38C85.4616 181.38 86.1683 181.547 86.7549 181.88C87.3416 182.213 87.8149 182.653 88.1749 183.2C88.5483 183.733 88.8149 184.353 88.9749 185.06C89.1349 185.753 89.2016 186.46 89.1749 187.18H81.2349ZM89.826 181.68H91.166L93.806 190.52H93.846L96.366 181.68H97.786L100.306 190.52H100.346L102.986 181.68H104.326L101.006 192H99.626L97.086 183.32H97.046L94.526 192H93.146L89.826 181.68ZM111.87 184.7C111.857 184.313 111.777 183.98 111.63 183.7C111.484 183.407 111.284 183.167 111.03 182.98C110.79 182.793 110.51 182.66 110.19 182.58C109.87 182.487 109.53 182.44 109.17 182.44C108.89 182.44 108.604 182.473 108.31 182.54C108.03 182.593 107.77 182.693 107.53 182.84C107.29 182.973 107.097 183.153 106.95 183.38C106.804 183.607 106.73 183.887 106.73 184.22C106.73 184.5 106.797 184.74 106.93 184.94C107.077 185.127 107.257 185.287 107.47 185.42C107.684 185.553 107.917 185.667 108.17 185.76C108.424 185.84 108.657 185.907 108.87 185.96L110.55 186.34C110.91 186.393 111.264 186.493 111.61 186.64C111.97 186.773 112.284 186.953 112.55 187.18C112.83 187.407 113.057 187.687 113.23 188.02C113.404 188.353 113.49 188.747 113.49 189.2C113.49 189.76 113.364 190.24 113.11 190.64C112.857 191.027 112.53 191.347 112.13 191.6C111.744 191.84 111.304 192.013 110.81 192.12C110.317 192.227 109.83 192.28 109.35 192.28C108.137 192.28 107.15 191.993 106.39 191.42C105.644 190.847 105.217 189.927 105.11 188.66H106.37C106.424 189.513 106.73 190.16 107.29 190.6C107.864 191.027 108.57 191.24 109.41 191.24C109.717 191.24 110.03 191.207 110.35 191.14C110.684 191.073 110.99 190.96 111.27 190.8C111.55 190.64 111.777 190.44 111.95 190.2C112.137 189.947 112.23 189.64 112.23 189.28C112.23 188.973 112.164 188.72 112.03 188.52C111.91 188.307 111.744 188.133 111.53 188C111.317 187.853 111.07 187.733 110.79 187.64C110.524 187.547 110.25 187.467 109.97 187.4L108.35 187.04C107.937 186.933 107.557 186.813 107.21 186.68C106.864 186.533 106.557 186.36 106.29 186.16C106.037 185.947 105.837 185.693 105.69 185.4C105.544 185.093 105.47 184.72 105.47 184.28C105.47 183.76 105.584 183.313 105.81 182.94C106.05 182.567 106.357 182.267 106.73 182.04C107.104 181.813 107.517 181.647 107.97 181.54C108.437 181.433 108.897 181.38 109.35 181.38C109.87 181.38 110.35 181.447 110.79 181.58C111.244 181.713 111.637 181.92 111.97 182.2C112.317 182.48 112.59 182.827 112.79 183.24C112.99 183.653 113.104 184.14 113.13 184.7H111.87ZM128.166 184.92C127.992 184.147 127.672 183.54 127.206 183.1C126.739 182.66 126.086 182.44 125.246 182.44C124.646 182.44 124.119 182.567 123.666 182.82C123.212 183.073 122.832 183.407 122.526 183.82C122.232 184.233 122.006 184.707 121.846 185.24C121.699 185.76 121.626 186.293 121.626 186.84C121.626 187.387 121.699 187.927 121.846 188.46C122.006 188.98 122.232 189.447 122.526 189.86C122.832 190.273 123.212 190.607 123.666 190.86C124.119 191.113 124.646 191.24 125.246 191.24C125.632 191.24 125.999 191.167 126.346 191.02C126.692 190.873 126.999 190.673 127.266 190.42C127.532 190.153 127.752 189.84 127.926 189.48C128.099 189.12 128.206 188.727 128.246 188.3H129.506C129.332 189.553 128.872 190.533 128.126 191.24C127.379 191.933 126.419 192.28 125.246 192.28C124.459 192.28 123.759 192.14 123.146 191.86C122.546 191.567 122.039 191.173 121.626 190.68C121.212 190.187 120.899 189.613 120.686 188.96C120.472 188.293 120.366 187.587 120.366 186.84C120.366 186.093 120.472 185.393 120.686 184.74C120.899 184.073 121.212 183.493 121.626 183C122.039 182.507 122.546 182.113 123.146 181.82C123.759 181.527 124.459 181.38 125.246 181.38C126.352 181.38 127.286 181.673 128.046 182.26C128.819 182.847 129.279 183.733 129.426 184.92H128.166ZM131.137 184.84C131.177 184.24 131.303 183.72 131.517 183.28C131.73 182.84 132.017 182.48 132.377 182.2C132.75 181.92 133.183 181.713 133.677 181.58C134.17 181.447 134.717 181.38 135.317 181.38C135.77 181.38 136.223 181.427 136.677 181.52C137.13 181.6 137.537 181.76 137.897 182C138.257 182.24 138.55 182.58 138.777 183.02C139.003 183.447 139.117 184.007 139.117 184.7V190.18C139.117 190.687 139.363 190.94 139.857 190.94C140.003 190.94 140.137 190.913 140.257 190.86V191.92C140.11 191.947 139.977 191.967 139.857 191.98C139.75 191.993 139.61 192 139.437 192C139.117 192 138.857 191.96 138.657 191.88C138.47 191.787 138.323 191.66 138.217 191.5C138.11 191.34 138.037 191.153 137.997 190.94C137.97 190.713 137.957 190.467 137.957 190.2H137.917C137.69 190.533 137.457 190.833 137.217 191.1C136.99 191.353 136.73 191.567 136.437 191.74C136.157 191.913 135.83 192.047 135.457 192.14C135.097 192.233 134.663 192.28 134.157 192.28C133.677 192.28 133.223 192.22 132.797 192.1C132.383 191.993 132.017 191.82 131.697 191.58C131.39 191.327 131.143 191.013 130.957 190.64C130.783 190.253 130.697 189.8 130.697 189.28C130.697 188.56 130.857 188 131.177 187.6C131.497 187.187 131.917 186.873 132.437 186.66C132.97 186.447 133.563 186.3 134.217 186.22C134.883 186.127 135.557 186.04 136.237 185.96C136.503 185.933 136.737 185.9 136.937 185.86C137.137 185.82 137.303 185.753 137.437 185.66C137.57 185.553 137.67 185.413 137.737 185.24C137.817 185.067 137.857 184.84 137.857 184.56C137.857 184.133 137.783 183.787 137.637 183.52C137.503 183.24 137.31 183.02 137.057 182.86C136.817 182.7 136.53 182.593 136.197 182.54C135.877 182.473 135.53 182.44 135.157 182.44C134.357 182.44 133.703 182.633 133.197 183.02C132.69 183.393 132.423 184 132.397 184.84H131.137ZM137.857 186.36H137.817C137.737 186.507 137.583 186.613 137.357 186.68C137.13 186.747 136.93 186.793 136.757 186.82C136.223 186.913 135.67 187 135.097 187.08C134.537 187.147 134.023 187.253 133.557 187.4C133.09 187.547 132.703 187.76 132.397 188.04C132.103 188.307 131.957 188.693 131.957 189.2C131.957 189.52 132.017 189.807 132.137 190.06C132.27 190.3 132.443 190.513 132.657 190.7C132.87 190.873 133.117 191.007 133.397 191.1C133.677 191.193 133.963 191.24 134.257 191.24C134.737 191.24 135.197 191.167 135.637 191.02C136.077 190.873 136.457 190.66 136.777 190.38C137.11 190.1 137.37 189.76 137.557 189.36C137.757 188.96 137.857 188.507 137.857 188V186.36ZM141.608 181.68H142.868V183.46H142.908C143.148 182.833 143.574 182.333 144.188 181.96C144.801 181.573 145.474 181.38 146.208 181.38C146.928 181.38 147.528 181.473 148.008 181.66C148.501 181.847 148.894 182.113 149.188 182.46C149.481 182.793 149.688 183.207 149.808 183.7C149.928 184.193 149.988 184.747 149.988 185.36V192H148.728V185.56C148.728 185.12 148.688 184.713 148.608 184.34C148.528 183.953 148.388 183.62 148.188 183.34C147.988 183.06 147.714 182.84 147.368 182.68C147.034 182.52 146.614 182.44 146.108 182.44C145.601 182.44 145.148 182.533 144.748 182.72C144.361 182.893 144.028 183.14 143.748 183.46C143.481 183.767 143.268 184.14 143.108 184.58C142.961 185.007 142.881 185.473 142.868 185.98V192H141.608V181.68ZM157.936 177.72H159.196V183.64H159.236C159.37 183.267 159.556 182.94 159.796 182.66C160.05 182.38 160.336 182.147 160.656 181.96C160.976 181.76 161.323 181.613 161.696 181.52C162.07 181.427 162.443 181.38 162.816 181.38C163.603 181.38 164.283 181.527 164.856 181.82C165.443 182.113 165.93 182.513 166.316 183.02C166.703 183.513 166.99 184.093 167.176 184.76C167.363 185.413 167.456 186.107 167.456 186.84C167.456 187.573 167.363 188.273 167.176 188.94C166.99 189.593 166.703 190.173 166.316 190.68C165.93 191.173 165.443 191.567 164.856 191.86C164.283 192.14 163.603 192.28 162.816 192.28C161.976 192.28 161.223 192.087 160.556 191.7C159.903 191.313 159.43 190.76 159.136 190.04H159.096V192H157.936V177.72ZM166.196 186.84C166.196 186.307 166.13 185.78 165.996 185.26C165.876 184.727 165.676 184.253 165.396 183.84C165.13 183.427 164.783 183.093 164.356 182.84C163.93 182.573 163.416 182.44 162.816 182.44C162.15 182.44 161.583 182.573 161.116 182.84C160.663 183.093 160.29 183.427 159.996 183.84C159.716 184.253 159.51 184.727 159.376 185.26C159.256 185.78 159.196 186.307 159.196 186.84C159.196 187.373 159.256 187.907 159.376 188.44C159.51 188.96 159.716 189.427 159.996 189.84C160.29 190.253 160.663 190.593 161.116 190.86C161.583 191.113 162.15 191.24 162.816 191.24C163.416 191.24 163.93 191.113 164.356 190.86C164.783 190.593 165.13 190.253 165.396 189.84C165.676 189.427 165.876 188.96 165.996 188.44C166.13 187.907 166.196 187.373 166.196 186.84ZM176.841 186.12C176.827 185.64 176.741 185.18 176.581 184.74C176.434 184.3 176.221 183.913 175.941 183.58C175.661 183.233 175.321 182.96 174.921 182.76C174.521 182.547 174.067 182.44 173.561 182.44C173.041 182.44 172.581 182.547 172.181 182.76C171.781 182.96 171.441 183.233 171.161 183.58C170.881 183.913 170.654 184.307 170.481 184.76C170.321 185.2 170.214 185.653 170.161 186.12H176.841ZM170.161 187.18C170.161 187.633 170.221 188.107 170.341 188.6C170.474 189.08 170.681 189.513 170.961 189.9C171.241 190.287 171.594 190.607 172.021 190.86C172.447 191.113 172.961 191.24 173.561 191.24C174.481 191.24 175.201 191 175.721 190.52C176.241 190.04 176.601 189.4 176.801 188.6H178.061C177.794 189.773 177.301 190.68 176.581 191.32C175.874 191.96 174.867 192.28 173.561 192.28C172.747 192.28 172.041 192.14 171.441 191.86C170.854 191.567 170.374 191.173 170.001 190.68C169.627 190.173 169.347 189.593 169.161 188.94C168.987 188.273 168.901 187.573 168.901 186.84C168.901 186.16 168.987 185.493 169.161 184.84C169.347 184.187 169.627 183.607 170.001 183.1C170.374 182.58 170.854 182.167 171.441 181.86C172.041 181.54 172.747 181.38 173.561 181.38C174.387 181.38 175.094 181.547 175.681 181.88C176.267 182.213 176.741 182.653 177.101 183.2C177.474 183.733 177.741 184.353 177.901 185.06C178.061 185.753 178.127 186.46 178.101 187.18H170.161ZM185.378 177.72H186.638V192H185.378V177.72ZM193.41 182.44C192.81 182.44 192.283 182.567 191.83 182.82C191.376 183.073 190.996 183.407 190.69 183.82C190.396 184.233 190.17 184.707 190.01 185.24C189.863 185.76 189.79 186.293 189.79 186.84C189.79 187.387 189.863 187.927 190.01 188.46C190.17 188.98 190.396 189.447 190.69 189.86C190.996 190.273 191.376 190.607 191.83 190.86C192.283 191.113 192.81 191.24 193.41 191.24C194.01 191.24 194.536 191.113 194.99 190.86C195.443 190.607 195.816 190.273 196.11 189.86C196.416 189.447 196.643 188.98 196.79 188.46C196.95 187.927 197.03 187.387 197.03 186.84C197.03 186.293 196.95 185.76 196.79 185.24C196.643 184.707 196.416 184.233 196.11 183.82C195.816 183.407 195.443 183.073 194.99 182.82C194.536 182.567 194.01 182.44 193.41 182.44ZM193.41 181.38C194.196 181.38 194.89 181.527 195.49 181.82C196.103 182.113 196.616 182.507 197.03 183C197.443 183.493 197.756 184.073 197.97 184.74C198.183 185.393 198.29 186.093 198.29 186.84C198.29 187.587 198.183 188.293 197.97 188.96C197.756 189.613 197.443 190.187 197.03 190.68C196.616 191.173 196.103 191.567 195.49 191.86C194.89 192.14 194.196 192.28 193.41 192.28C192.623 192.28 191.923 192.14 191.31 191.86C190.71 191.567 190.203 191.173 189.79 190.68C189.376 190.187 189.063 189.613 188.85 188.96C188.636 188.293 188.53 187.587 188.53 186.84C188.53 186.093 188.636 185.393 188.85 184.74C189.063 184.073 189.376 183.493 189.79 183C190.203 182.507 190.71 182.113 191.31 181.82C191.923 181.527 192.623 181.38 193.41 181.38ZM200.143 181.68H201.403V183.46H201.443C201.683 182.833 202.11 182.333 202.723 181.96C203.336 181.573 204.01 181.38 204.743 181.38C205.463 181.38 206.063 181.473 206.543 181.66C207.036 181.847 207.43 182.113 207.723 182.46C208.016 182.793 208.223 183.207 208.343 183.7C208.463 184.193 208.523 184.747 208.523 185.36V192H207.263V185.56C207.263 185.12 207.223 184.713 207.143 184.34C207.063 183.953 206.923 183.62 206.723 183.34C206.523 183.06 206.25 182.84 205.903 182.68C205.57 182.52 205.15 182.44 204.643 182.44C204.136 182.44 203.683 182.533 203.283 182.72C202.896 182.893 202.563 183.14 202.283 183.46C202.016 183.767 201.803 184.14 201.643 184.58C201.496 185.007 201.416 185.473 201.403 185.98V192H200.143V181.68ZM219.625 191.16C219.625 191.92 219.538 192.607 219.365 193.22C219.205 193.833 218.945 194.353 218.585 194.78C218.225 195.207 217.752 195.533 217.165 195.76C216.592 195.987 215.885 196.1 215.045 196.1C214.525 196.1 214.018 196.04 213.525 195.92C213.032 195.8 212.585 195.613 212.185 195.36C211.798 195.107 211.472 194.78 211.205 194.38C210.952 193.993 210.805 193.527 210.765 192.98H212.025C212.092 193.367 212.218 193.687 212.405 193.94C212.605 194.207 212.838 194.42 213.105 194.58C213.385 194.74 213.692 194.853 214.025 194.92C214.358 195 214.698 195.04 215.045 195.04C216.218 195.04 217.065 194.707 217.585 194.04C218.105 193.373 218.365 192.413 218.365 191.16V189.76H218.325C218.032 190.4 217.598 190.913 217.025 191.3C216.465 191.687 215.805 191.88 215.045 191.88C214.218 191.88 213.512 191.747 212.925 191.48C212.338 191.2 211.852 190.82 211.465 190.34C211.092 189.86 210.818 189.3 210.645 188.66C210.472 188.007 210.385 187.313 210.385 186.58C210.385 185.873 210.485 185.207 210.685 184.58C210.898 183.94 211.198 183.387 211.585 182.92C211.985 182.44 212.472 182.067 213.045 181.8C213.632 181.52 214.298 181.38 215.045 181.38C215.432 181.38 215.792 181.433 216.125 181.54C216.472 181.647 216.785 181.8 217.065 182C217.345 182.187 217.592 182.407 217.805 182.66C218.032 182.913 218.205 183.18 218.325 183.46H218.365V181.68H219.625V191.16ZM215.045 190.82C215.592 190.82 216.072 190.707 216.485 190.48C216.898 190.24 217.245 189.933 217.525 189.56C217.805 189.173 218.012 188.733 218.145 188.24C218.292 187.747 218.365 187.24 218.365 186.72C218.365 186.213 218.305 185.707 218.185 185.2C218.065 184.693 217.872 184.233 217.605 183.82C217.338 183.407 216.992 183.073 216.565 182.82C216.152 182.567 215.645 182.44 215.045 182.44C214.445 182.44 213.932 182.567 213.505 182.82C213.078 183.06 212.725 183.38 212.445 183.78C212.165 184.18 211.958 184.64 211.825 185.16C211.705 185.667 211.645 186.187 211.645 186.72C211.645 187.24 211.712 187.747 211.845 188.24C211.978 188.733 212.185 189.173 212.465 189.56C212.745 189.933 213.098 190.24 213.525 190.48C213.952 190.707 214.458 190.82 215.045 190.82ZM227.465 184.84C227.505 184.24 227.631 183.72 227.845 183.28C228.058 182.84 228.345 182.48 228.705 182.2C229.078 181.92 229.511 181.713 230.005 181.58C230.498 181.447 231.045 181.38 231.645 181.38C232.098 181.38 232.551 181.427 233.005 181.52C233.458 181.6 233.865 181.76 234.225 182C234.585 182.24 234.878 182.58 235.105 183.02C235.331 183.447 235.445 184.007 235.445 184.7V190.18C235.445 190.687 235.691 190.94 236.185 190.94C236.331 190.94 236.465 190.913 236.585 190.86V191.92C236.438 191.947 236.305 191.967 236.185 191.98C236.078 191.993 235.938 192 235.765 192C235.445 192 235.185 191.96 234.985 191.88C234.798 191.787 234.651 191.66 234.545 191.5C234.438 191.34 234.365 191.153 234.325 190.94C234.298 190.713 234.285 190.467 234.285 190.2H234.245C234.018 190.533 233.785 190.833 233.545 191.1C233.318 191.353 233.058 191.567 232.765 191.74C232.485 191.913 232.158 192.047 231.785 192.14C231.425 192.233 230.991 192.28 230.485 192.28C230.005 192.28 229.551 192.22 229.125 192.1C228.711 191.993 228.345 191.82 228.025 191.58C227.718 191.327 227.471 191.013 227.285 190.64C227.111 190.253 227.025 189.8 227.025 189.28C227.025 188.56 227.185 188 227.505 187.6C227.825 187.187 228.245 186.873 228.765 186.66C229.298 186.447 229.891 186.3 230.545 186.22C231.211 186.127 231.885 186.04 232.565 185.96C232.831 185.933 233.065 185.9 233.265 185.86C233.465 185.82 233.631 185.753 233.765 185.66C233.898 185.553 233.998 185.413 234.065 185.24C234.145 185.067 234.185 184.84 234.185 184.56C234.185 184.133 234.111 183.787 233.965 183.52C233.831 183.24 233.638 183.02 233.385 182.86C233.145 182.7 232.858 182.593 232.525 182.54C232.205 182.473 231.858 182.44 231.485 182.44C230.685 182.44 230.031 182.633 229.525 183.02C229.018 183.393 228.751 184 228.725 184.84H227.465ZM234.185 186.36H234.145C234.065 186.507 233.911 186.613 233.685 186.68C233.458 186.747 233.258 186.793 233.085 186.82C232.551 186.913 231.998 187 231.425 187.08C230.865 187.147 230.351 187.253 229.885 187.4C229.418 187.547 229.031 187.76 228.725 188.04C228.431 188.307 228.285 188.693 228.285 189.2C228.285 189.52 228.345 189.807 228.465 190.06C228.598 190.3 228.771 190.513 228.985 190.7C229.198 190.873 229.445 191.007 229.725 191.1C230.005 191.193 230.291 191.24 230.585 191.24C231.065 191.24 231.525 191.167 231.965 191.02C232.405 190.873 232.785 190.66 233.105 190.38C233.438 190.1 233.698 189.76 233.885 189.36C234.085 188.96 234.185 188.507 234.185 188V186.36ZM237.936 181.68H239.196V183.46H239.236C239.476 182.833 239.903 182.333 240.516 181.96C241.129 181.573 241.803 181.38 242.536 181.38C243.256 181.38 243.856 181.473 244.336 181.66C244.829 181.847 245.223 182.113 245.516 182.46C245.809 182.793 246.016 183.207 246.136 183.7C246.256 184.193 246.316 184.747 246.316 185.36V192H245.056V185.56C245.056 185.12 245.016 184.713 244.936 184.34C244.856 183.953 244.716 183.62 244.516 183.34C244.316 183.06 244.043 182.84 243.696 182.68C243.363 182.52 242.943 182.44 242.436 182.44C241.929 182.44 241.476 182.533 241.076 182.72C240.689 182.893 240.356 183.14 240.076 183.46C239.809 183.767 239.596 184.14 239.436 184.58C239.289 185.007 239.209 185.473 239.196 185.98V192H237.936V181.68ZM257.778 192H256.618V190.04H256.578C256.445 190.373 256.245 190.68 255.978 190.96C255.725 191.24 255.431 191.48 255.098 191.68C254.765 191.867 254.405 192.013 254.018 192.12C253.645 192.227 253.271 192.28 252.898 192.28C252.111 192.28 251.425 192.14 250.838 191.86C250.265 191.567 249.785 191.173 249.398 190.68C249.011 190.173 248.725 189.593 248.538 188.94C248.351 188.273 248.258 187.573 248.258 186.84C248.258 186.107 248.351 185.413 248.538 184.76C248.725 184.093 249.011 183.513 249.398 183.02C249.785 182.513 250.265 182.113 250.838 181.82C251.425 181.527 252.111 181.38 252.898 181.38C253.285 181.38 253.658 181.427 254.018 181.52C254.391 181.613 254.738 181.76 255.058 181.96C255.378 182.147 255.658 182.38 255.898 182.66C256.151 182.94 256.345 183.267 256.478 183.64H256.518V177.72H257.778V192ZM249.518 186.84C249.518 187.373 249.578 187.907 249.698 188.44C249.831 188.96 250.031 189.427 250.298 189.84C250.578 190.253 250.931 190.593 251.358 190.86C251.785 191.113 252.298 191.24 252.898 191.24C253.565 191.24 254.125 191.113 254.578 190.86C255.045 190.593 255.418 190.253 255.698 189.84C255.991 189.427 256.198 188.96 256.318 188.44C256.451 187.907 256.518 187.373 256.518 186.84C256.518 186.307 256.451 185.78 256.318 185.26C256.198 184.727 255.991 184.253 255.698 183.84C255.418 183.427 255.045 183.093 254.578 182.84C254.125 182.573 253.565 182.44 252.898 182.44C252.298 182.44 251.785 182.573 251.358 182.84C250.931 183.093 250.578 183.427 250.298 183.84C250.031 184.253 249.831 184.727 249.698 185.26C249.578 185.78 249.518 186.307 249.518 186.84ZM121.32 208.92C121.147 208.147 120.827 207.54 120.36 207.1C119.893 206.66 119.24 206.44 118.4 206.44C117.8 206.44 117.273 206.567 116.82 206.82C116.367 207.073 115.987 207.407 115.68 207.82C115.387 208.233 115.16 208.707 115 209.24C114.853 209.76 114.78 210.293 114.78 210.84C114.78 211.387 114.853 211.927 115 212.46C115.16 212.98 115.387 213.447 115.68 213.86C115.987 214.273 116.367 214.607 116.82 214.86C117.273 215.113 117.8 215.24 118.4 215.24C118.787 215.24 119.153 215.167 119.5 215.02C119.847 214.873 120.153 214.673 120.42 214.42C120.687 214.153 120.907 213.84 121.08 213.48C121.253 213.12 121.36 212.727 121.4 212.3H122.66C122.487 213.553 122.027 214.533 121.28 215.24C120.533 215.933 119.573 216.28 118.4 216.28C117.613 216.28 116.913 216.14 116.3 215.86C115.7 215.567 115.193 215.173 114.78 214.68C114.367 214.187 114.053 213.613 113.84 212.96C113.627 212.293 113.52 211.587 113.52 210.84C113.52 210.093 113.627 209.393 113.84 208.74C114.053 208.073 114.367 207.493 114.78 207C115.193 206.507 115.7 206.113 116.3 205.82C116.913 205.527 117.613 205.38 118.4 205.38C119.507 205.38 120.44 205.673 121.2 206.26C121.973 206.847 122.433 207.733 122.58 208.92H121.32ZM128.771 206.44C128.171 206.44 127.644 206.567 127.191 206.82C126.738 207.073 126.358 207.407 126.051 207.82C125.758 208.233 125.531 208.707 125.371 209.24C125.224 209.76 125.151 210.293 125.151 210.84C125.151 211.387 125.224 211.927 125.371 212.46C125.531 212.98 125.758 213.447 126.051 213.86C126.358 214.273 126.738 214.607 127.191 214.86C127.644 215.113 128.171 215.24 128.771 215.24C129.371 215.24 129.898 215.113 130.351 214.86C130.804 214.607 131.178 214.273 131.471 213.86C131.778 213.447 132.004 212.98 132.151 212.46C132.311 211.927 132.391 211.387 132.391 210.84C132.391 210.293 132.311 209.76 132.151 209.24C132.004 208.707 131.778 208.233 131.471 207.82C131.178 207.407 130.804 207.073 130.351 206.82C129.898 206.567 129.371 206.44 128.771 206.44ZM128.771 205.38C129.558 205.38 130.251 205.527 130.851 205.82C131.464 206.113 131.978 206.507 132.391 207C132.804 207.493 133.118 208.073 133.331 208.74C133.544 209.393 133.651 210.093 133.651 210.84C133.651 211.587 133.544 212.293 133.331 212.96C133.118 213.613 132.804 214.187 132.391 214.68C131.978 215.173 131.464 215.567 130.851 215.86C130.251 216.14 129.558 216.28 128.771 216.28C127.984 216.28 127.284 216.14 126.671 215.86C126.071 215.567 125.564 215.173 125.151 214.68C124.738 214.187 124.424 213.613 124.211 212.96C123.998 212.293 123.891 211.587 123.891 210.84C123.891 210.093 123.998 209.393 124.211 208.74C124.424 208.073 124.738 207.493 125.151 207C125.564 206.507 126.071 206.113 126.671 205.82C127.284 205.527 127.984 205.38 128.771 205.38ZM135.504 205.68H136.764V207.46H136.804C137.044 206.833 137.471 206.333 138.084 205.96C138.698 205.573 139.371 205.38 140.104 205.38C140.824 205.38 141.424 205.473 141.904 205.66C142.398 205.847 142.791 206.113 143.084 206.46C143.378 206.793 143.584 207.207 143.704 207.7C143.824 208.193 143.884 208.747 143.884 209.36V216H142.624V209.56C142.624 209.12 142.584 208.713 142.504 208.34C142.424 207.953 142.284 207.62 142.084 207.34C141.884 207.06 141.611 206.84 141.264 206.68C140.931 206.52 140.511 206.44 140.004 206.44C139.498 206.44 139.044 206.533 138.644 206.72C138.258 206.893 137.924 207.14 137.644 207.46C137.378 207.767 137.164 208.14 137.004 208.58C136.858 209.007 136.778 209.473 136.764 209.98V216H135.504V205.68ZM150.246 206.74H148.206V216H146.946V206.74H145.186V205.68H146.946V204.74C146.946 204.3 146.98 203.893 147.046 203.52C147.113 203.147 147.24 202.827 147.426 202.56C147.613 202.293 147.866 202.087 148.186 201.94C148.52 201.793 148.94 201.72 149.446 201.72C149.633 201.72 149.806 201.727 149.966 201.74C150.126 201.753 150.306 201.773 150.506 201.8V202.88C150.333 202.853 150.173 202.833 150.026 202.82C149.88 202.793 149.733 202.78 149.586 202.78C149.24 202.78 148.973 202.833 148.786 202.94C148.6 203.047 148.46 203.193 148.366 203.38C148.286 203.553 148.24 203.76 148.226 204C148.213 204.24 148.206 204.5 148.206 204.78V205.68H150.246V206.74ZM159.802 216H158.642V214.14H158.602C158.269 214.833 157.782 215.367 157.142 215.74C156.516 216.1 155.816 216.28 155.042 216.28C154.389 216.28 153.829 216.187 153.362 216C152.909 215.827 152.536 215.573 152.242 215.24C151.962 214.907 151.756 214.5 151.622 214.02C151.489 213.54 151.422 212.993 151.422 212.38V205.68H152.682V212.4C152.709 213.333 152.922 214.04 153.322 214.52C153.736 215 154.442 215.24 155.442 215.24C155.989 215.24 156.456 215.127 156.842 214.9C157.229 214.66 157.549 214.347 157.802 213.96C158.056 213.573 158.242 213.133 158.362 212.64C158.482 212.133 158.542 211.62 158.542 211.1V205.68H159.802V216ZM168.364 208.7C168.351 208.313 168.271 207.98 168.124 207.7C167.978 207.407 167.778 207.167 167.524 206.98C167.284 206.793 167.004 206.66 166.684 206.58C166.364 206.487 166.024 206.44 165.664 206.44C165.384 206.44 165.098 206.473 164.804 206.54C164.524 206.593 164.264 206.693 164.024 206.84C163.784 206.973 163.591 207.153 163.444 207.38C163.298 207.607 163.224 207.887 163.224 208.22C163.224 208.5 163.291 208.74 163.424 208.94C163.571 209.127 163.751 209.287 163.964 209.42C164.178 209.553 164.411 209.667 164.664 209.76C164.918 209.84 165.151 209.907 165.364 209.96L167.044 210.34C167.404 210.393 167.758 210.493 168.104 210.64C168.464 210.773 168.778 210.953 169.044 211.18C169.324 211.407 169.551 211.687 169.724 212.02C169.898 212.353 169.984 212.747 169.984 213.2C169.984 213.76 169.858 214.24 169.604 214.64C169.351 215.027 169.024 215.347 168.624 215.6C168.238 215.84 167.798 216.013 167.304 216.12C166.811 216.227 166.324 216.28 165.844 216.28C164.631 216.28 163.644 215.993 162.884 215.42C162.138 214.847 161.711 213.927 161.604 212.66H162.864C162.918 213.513 163.224 214.16 163.784 214.6C164.358 215.027 165.064 215.24 165.904 215.24C166.211 215.24 166.524 215.207 166.844 215.14C167.178 215.073 167.484 214.96 167.764 214.8C168.044 214.64 168.271 214.44 168.444 214.2C168.631 213.947 168.724 213.64 168.724 213.28C168.724 212.973 168.658 212.72 168.524 212.52C168.404 212.307 168.238 212.133 168.024 212C167.811 211.853 167.564 211.733 167.284 211.64C167.018 211.547 166.744 211.467 166.464 211.4L164.844 211.04C164.431 210.933 164.051 210.813 163.704 210.68C163.358 210.533 163.051 210.36 162.784 210.16C162.531 209.947 162.331 209.693 162.184 209.4C162.038 209.093 161.964 208.72 161.964 208.28C161.964 207.76 162.078 207.313 162.304 206.94C162.544 206.567 162.851 206.267 163.224 206.04C163.598 205.813 164.011 205.647 164.464 205.54C164.931 205.433 165.391 205.38 165.844 205.38C166.364 205.38 166.844 205.447 167.284 205.58C167.738 205.713 168.131 205.92 168.464 206.2C168.811 206.48 169.084 206.827 169.284 207.24C169.484 207.653 169.598 208.14 169.624 208.7H168.364ZM171.833 201.72H173.093V203.74H171.833V201.72ZM171.833 205.68H173.093V216H171.833V205.68ZM175.485 205.68H176.745V207.46H176.785C177.025 206.833 177.451 206.333 178.065 205.96C178.678 205.573 179.351 205.38 180.085 205.38C180.805 205.38 181.405 205.473 181.885 205.66C182.378 205.847 182.771 206.113 183.065 206.46C183.358 206.793 183.565 207.207 183.685 207.7C183.805 208.193 183.865 208.747 183.865 209.36V216H182.605V209.56C182.605 209.12 182.565 208.713 182.485 208.34C182.405 207.953 182.265 207.62 182.065 207.34C181.865 207.06 181.591 206.84 181.245 206.68C180.911 206.52 180.491 206.44 179.985 206.44C179.478 206.44 179.025 206.533 178.625 206.72C178.238 206.893 177.905 207.14 177.625 207.46C177.358 207.767 177.145 208.14 176.985 208.58C176.838 209.007 176.758 209.473 176.745 209.98V216H175.485V205.68ZM194.967 215.16C194.967 215.92 194.88 216.607 194.707 217.22C194.547 217.833 194.287 218.353 193.927 218.78C193.567 219.207 193.094 219.533 192.507 219.76C191.934 219.987 191.227 220.1 190.387 220.1C189.867 220.1 189.36 220.04 188.867 219.92C188.374 219.8 187.927 219.613 187.527 219.36C187.14 219.107 186.814 218.78 186.547 218.38C186.294 217.993 186.147 217.527 186.107 216.98H187.367C187.434 217.367 187.56 217.687 187.747 217.94C187.947 218.207 188.18 218.42 188.447 218.58C188.727 218.74 189.034 218.853 189.367 218.92C189.7 219 190.04 219.04 190.387 219.04C191.56 219.04 192.407 218.707 192.927 218.04C193.447 217.373 193.707 216.413 193.707 215.16V213.76H193.667C193.374 214.4 192.94 214.913 192.367 215.3C191.807 215.687 191.147 215.88 190.387 215.88C189.56 215.88 188.854 215.747 188.267 215.48C187.68 215.2 187.194 214.82 186.807 214.34C186.434 213.86 186.16 213.3 185.987 212.66C185.814 212.007 185.727 211.313 185.727 210.58C185.727 209.873 185.827 209.207 186.027 208.58C186.24 207.94 186.54 207.387 186.927 206.92C187.327 206.44 187.814 206.067 188.387 205.8C188.974 205.52 189.64 205.38 190.387 205.38C190.774 205.38 191.134 205.433 191.467 205.54C191.814 205.647 192.127 205.8 192.407 206C192.687 206.187 192.934 206.407 193.147 206.66C193.374 206.913 193.547 207.18 193.667 207.46H193.707V205.68H194.967V215.16ZM190.387 214.82C190.934 214.82 191.414 214.707 191.827 214.48C192.24 214.24 192.587 213.933 192.867 213.56C193.147 213.173 193.354 212.733 193.487 212.24C193.634 211.747 193.707 211.24 193.707 210.72C193.707 210.213 193.647 209.707 193.527 209.2C193.407 208.693 193.214 208.233 192.947 207.82C192.68 207.407 192.334 207.073 191.907 206.82C191.494 206.567 190.987 206.44 190.387 206.44C189.787 206.44 189.274 206.567 188.847 206.82C188.42 207.06 188.067 207.38 187.787 207.78C187.507 208.18 187.3 208.64 187.167 209.16C187.047 209.667 186.987 210.187 186.987 210.72C186.987 211.24 187.054 211.747 187.187 212.24C187.32 212.733 187.527 213.173 187.807 213.56C188.087 213.933 188.44 214.24 188.867 214.48C189.294 214.707 189.8 214.82 190.387 214.82Z" fill="black"/>
<g clip-path="url(#clip0_622_15156)">
<path d="M60.8002 15.2369C59.9989 12.5957 58.5899 10.1708 56.5731 7.95411C54.5522 5.73738 51.7959 3.90699 48.3042 2.45955C44.8125 1.01211 40.3762 0.288391 34.9953 0.288391C30.7023 0.288391 26.3278 0.86247 21.8709 2.01063C17.4099 3.16287 13.5402 4.80144 10.2584 6.93111L14.5308 18.561L12.2409 20.4002L15.5618 21.3681C18.8395 19.6669 21.8263 18.4317 24.5209 17.6624C27.2113 16.8972 30.0705 16.5143 33.1019 16.5143C36.1333 16.5143 38.4218 17.238 39.9783 18.6854C41.5348 20.137 42.3113 21.8796 42.3113 23.9263C42.3113 26.3967 41.5101 28.589 39.9165 30.5064C38.3148 32.4239 36.5483 34.3617 34.6132 36.3207C33.27 37.681 31.9639 39.0863 30.7023 40.5338C29.4415 41.9853 28.324 43.5368 27.3588 45.2005C26.3895 46.8602 25.613 48.6484 25.0257 50.5658C24.4344 52.4833 24.1429 54.6334 24.1429 57.0167C24.1429 57.786 24.1593 58.7009 24.2046 59.7661C24.2122 59.9626 24.2225 60.1538 24.2341 60.3429H21.095L24.5209 62.6399H41.1781C41.0917 62.1284 41.0505 61.5332 41.0505 60.8516V59.3171C41.0505 57.8697 41.3462 56.4433 41.9334 55.0374C42.5206 53.6315 43.2601 52.2922 44.1436 51.0114C45.0265 49.7347 46.013 48.5198 47.1092 47.3724C48.2019 46.2201 49.2536 45.1345 50.264 44.1115C51.6072 42.7512 52.9957 41.3044 54.4253 39.7692C55.8549 38.2347 57.1198 36.6206 58.2126 34.9154C59.3054 33.2102 60.2088 31.3594 60.9236 29.3549C61.6385 27.3544 62 25.1622 62 22.7747C62 20.3873 61.5973 17.8794 60.8002 15.2382V15.2369Z" fill="#E49B31"/>
<path d="M29.5753 15.7021C26.5795 15.7021 23.754 16.0722 21.0951 16.8129C18.432 17.5577 15.4809 18.7528 12.241 20.3995L7 6.42846C10.2434 4.36749 14.0678 2.78129 18.4766 1.66646C22.8807 0.555714 27.2045 0 31.4467 0C36.7645 0 41.1493 0.700594 44.5998 2.1011C48.0504 3.50161 50.7744 5.27282 52.7721 7.41813C54.7655 9.56344 56.1574 11.9101 56.9491 14.4662C57.7366 17.0224 58.1344 19.4534 58.1344 21.7599C58.1344 24.0664 57.777 26.192 57.0712 28.1278C56.3646 30.0677 55.4714 31.8593 54.3917 33.5095C53.3119 35.1596 52.0614 36.7213 50.6489 38.2068C49.2365 39.6924 47.8638 41.0929 46.5364 42.409C45.5376 43.3994 44.4983 44.4496 43.4186 45.5651C42.3347 46.6759 41.3606 47.8512 40.4873 49.0871C39.6147 50.3271 38.8835 51.6229 38.3031 52.9832C37.7228 54.3436 37.4306 55.7244 37.4306 57.1249V58.6104C37.4306 59.2709 37.471 59.8463 37.5561 60.3415H21.0944C20.9236 59.5164 20.8227 58.5907 20.7816 57.5602C20.737 56.5297 20.7205 55.6441 20.7205 54.8993C20.7205 52.5928 21.0086 50.5121 21.5931 48.6559C22.1734 46.8003 22.9411 45.0693 23.8987 43.4633C24.8529 41.8533 25.9567 40.3521 27.2031 38.9469C28.4496 37.5464 29.7406 36.1853 31.068 34.8692C32.9798 32.9735 34.7257 31.0975 36.309 29.242C37.884 27.3864 38.6756 25.2649 38.6756 22.874C38.6756 20.8933 37.9087 19.2071 36.37 17.8026C34.8313 16.4021 32.5662 15.7015 29.5746 15.7015L29.5753 15.7021Z" fill="#FBC343"/>
<path d="M42.3176 78.6712C42.3176 81.649 41.3455 83.9467 39.4007 85.5676C37.4566 87.1919 35.2587 88.0006 32.8049 88.0006C30.3511 88.0006 28.1505 87.1919 26.2064 85.5676C24.265 83.9467 23.293 81.649 23.293 78.6712C23.293 75.6933 24.265 73.399 26.2064 71.7748C29.1994 69.2703 33.6274 68.7125 37.1315 70.4702C40.2411 72.0298 42.3176 75.1975 42.3176 78.6712Z" fill="#E49B31"/>
<path d="M39.0591 78.6712C39.0591 81.6491 38.0871 83.9467 36.1423 85.5676C34.1982 87.1919 32.0003 88.0007 29.5465 88.0007C27.0927 88.0007 24.892 87.1919 22.9479 85.5676C21.0066 83.9467 20.0345 81.6491 20.0345 78.6712C20.0345 75.6933 21.0066 73.3991 22.9479 71.7748C24.892 70.1539 27.09 69.3417 29.5465 69.3417C32.003 69.3417 34.1975 70.1539 36.1423 71.7748C38.0864 73.3991 39.0591 75.6967 39.0591 78.6712Z" fill="#FBC343"/>
</g>
<defs>
<filter id="filter0_d_622_15156" x="0" y="21" width="310" height="303" filterUnits="userSpaceOnUse" color-interpolation-filters="sRGB">
<feFlood flood-opacity="0" result="BackgroundImageFix"/>
<feColorMatrix in="SourceAlpha" type="matrix" values="0 0 0 0 0 0 0 0 0 0 0 0 0 0 0 0 0 0 127 0" result="hardAlpha"/>
<feOffset dy="14"/>
<feGaussianBlur stdDeviation="10"/>
<feComposite in2="hardAlpha" operator="out"/>
<feColorMatrix type="matrix" values="0 0 0 0 0 0 0 0 0 0 0 0 0 0 0 0 0 0 0.18 0"/>
<feBlend mode="normal" in2="BackgroundImageFix" result="effect1_dropShadow_622_15156"/>
<feBlend mode="normal" in="SourceGraphic" in2="effect1_dropShadow_622_15156" result="shape"/>
</filter>
<clipPath id="clip0_622_15156">
<rect width="55" height="88" fill="white" transform="translate(7)"/>
</clipPath>
</defs>
</svg>
