<svg fill="none" height="324" viewBox="0 0 310 324" width="310" xmlns="http://www.w3.org/2000/svg" xmlns:xlink="http://www.w3.org/1999/xlink"><filter id="a" color-interpolation-filters="sRGB" filterUnits="userSpaceOnUse" height="303" width="310" x="0" y="21"><feFlood flood-opacity="0" result="BackgroundImageFix"/><feColorMatrix in="SourceAlpha" result="hardAlpha" type="matrix" values="0 0 0 0 0 0 0 0 0 0 0 0 0 0 0 0 0 0 127 0"/><feOffset dy="14"/><feGaussianBlur stdDeviation="10"/><feComposite in2="hardAlpha" operator="out"/><feColorMatrix type="matrix" values="0 0 0 0 0 0 0 0 0 0 0 0 0 0 0 0 0 0 0.18 0"/><feBlend in2="BackgroundImageFix" mode="normal" result="effect1_dropShadow_622_15156"/><feBlend in="SourceGraphic" in2="effect1_dropShadow_622_15156" mode="normal" result="shape"/></filter><clipPath id="b"><path d="m7 0h55v88h-55z"/></clipPath><g filter="url(#a)"><rect fill="#fff" height="263" rx="10" width="270" x="20" y="27"/></g><path d="m116.747 108.44h2.44c.36 0 .706-.027 1.04-.08.333-.053.626-.153.88-.3.253-.16.453-.38.6-.66.16-.28.24-.647.24-1.1s-.08-.82-.24-1.1c-.147-.28-.347-.493-.6-.64-.254-.16-.547-.267-.88-.32-.334-.053-.68-.08-1.04-.08h-2.44zm-3.14-6.72h6.44c.893 0 1.653.133 2.28.4.626.253 1.133.593 1.52 1.02.4.427.686.913.86 1.46.186.547.28 1.113.28 1.7 0 .573-.094 1.14-.28 1.7-.174.547-.46 1.033-.86 1.46-.387.427-.894.773-1.52 1.04-.627.253-1.387.38-2.28.38h-3.3v5.12h-3.14zm13.039 3.94h2.7v1.92h.04c.134-.32.314-.613.54-.88.227-.28.487-.513.78-.7.294-.2.607-.353.94-.46.334-.107.68-.16 1.04-.16.187 0 .394.033.62.1v2.64c-.133-.027-.293-.047-.48-.06-.186-.027-.366-.04-.54-.04-.52 0-.96.087-1.32.26s-.653.413-.88.72c-.213.293-.366.64-.46 1.04-.093.4-.14.833-.14 1.3v4.66h-2.84zm9.942 5.18c0 .413.04.82.12 1.22.08.387.214.74.4 1.06.2.307.46.553.78.74s.72.28 1.2.28.88-.093 1.2-.28c.334-.187.594-.433.78-.74.2-.32.34-.673.42-1.06.08-.4.12-.807.12-1.22s-.04-.82-.12-1.22-.22-.753-.42-1.06c-.186-.307-.446-.553-.78-.74-.32-.2-.72-.3-1.2-.3s-.88.1-1.2.3c-.32.187-.58.433-.78.74-.186.307-.32.66-.4 1.06s-.12.807-.12 1.22zm-2.84 0c0-.827.127-1.573.38-2.24.254-.68.614-1.253 1.08-1.72.467-.48 1.027-.847 1.68-1.1.654-.267 1.387-.4 2.2-.4.814 0 1.547.133 2.2.4.667.253 1.234.62 1.7 1.1.467.467.827 1.04 1.08 1.72.254.667.38 1.413.38 2.24s-.126 1.573-.38 2.24c-.253.667-.613 1.24-1.08 1.72-.466.467-1.033.827-1.7 1.08-.653.253-1.386.38-2.2.38-.813 0-1.546-.127-2.2-.38-.653-.253-1.213-.613-1.68-1.08-.466-.48-.826-1.053-1.08-1.72-.253-.667-.38-1.413-.38-2.24zm20.127 0c0-.44-.047-.86-.14-1.26s-.24-.753-.44-1.06-.453-.547-.76-.72c-.293-.187-.653-.28-1.08-.28-.413 0-.773.093-1.08.28-.307.173-.56.413-.76.72s-.347.66-.44 1.06-.14.82-.14 1.26c0 .427.047.84.14 1.24s.24.753.44 1.06.453.553.76.74c.307.173.667.26 1.08.26.427 0 .787-.087 1.08-.26.307-.187.56-.433.76-.74s.347-.66.44-1.06.14-.813.14-1.24zm-7.58-9.12h2.84v5.2h.04c.347-.533.813-.92 1.4-1.16.6-.253 1.22-.38 1.86-.38.52 0 1.033.107 1.54.32s.96.54 1.36.98c.413.44.747 1.007 1 1.7.253.68.38 1.493.38 2.44s-.127 1.767-.38 2.46c-.253.68-.587 1.24-1 1.68-.4.44-.853.767-1.36.98s-1.02.32-1.54.32c-.76 0-1.44-.12-2.04-.36s-1.053-.647-1.36-1.22h-.04v1.32h-2.7zm12.306 0h2.84v14.28h-2.84zm12.037 8c-.134-.72-.374-1.267-.72-1.64-.334-.373-.847-.56-1.54-.56-.454 0-.834.08-1.14.24-.294.147-.534.333-.72.56-.174.227-.3.467-.38.72-.067.253-.107.48-.12.68zm-4.62 1.8c.04.92.273 1.587.7 2 .426.413 1.04.62 1.84.62.573 0 1.066-.14 1.48-.42.413-.293.666-.6.76-.92h2.5c-.4 1.24-1.014 2.127-1.84 2.66-.827.533-1.827.8-3 .8-.814 0-1.547-.127-2.2-.38-.654-.267-1.207-.64-1.66-1.12-.454-.48-.807-1.053-1.06-1.72-.24-.667-.36-1.4-.36-2.2 0-.773.126-1.493.38-2.16.253-.667.613-1.24 1.08-1.72.466-.493 1.02-.88 1.66-1.16.653-.28 1.373-.42 2.16-.42.88 0 1.646.173 2.3.52.653.333 1.186.787 1.6 1.36.426.573.733 1.227.92 1.96.186.733.253 1.5.2 2.3zm9.224-5.86h2.68v1.4h.04c.373-.533.82-.947 1.34-1.24.533-.293 1.14-.44 1.82-.44.653 0 1.247.127 1.78.38.547.253.96.7 1.24 1.34.307-.453.72-.853 1.24-1.2.533-.347 1.16-.52 1.88-.52.547 0 1.053.067 1.52.2s.867.347 1.2.64.593.68.78 1.16c.187.467.28 1.033.28 1.7v6.92h-2.84v-5.86c0-.347-.013-.673-.04-.98s-.1-.573-.22-.8-.3-.407-.54-.54c-.227-.133-.54-.2-.94-.2s-.727.08-.98.24c-.24.147-.433.347-.58.6-.133.24-.227.52-.28.84-.04.307-.06.62-.06.94v5.76h-2.84v-5.8c0-.307-.007-.607-.02-.9-.013-.307-.073-.587-.18-.84-.093-.253-.26-.453-.5-.6-.227-.16-.567-.24-1.02-.24-.133 0-.313.033-.54.1-.213.053-.427.167-.64.34-.2.16-.373.4-.52.72-.147.307-.22.713-.22 1.22v6h-2.84zm21.325 3.26h-3.14v-3.08h3.14zm-3.14 4h3.14v3.08h-3.14z" fill="#000080"/><path d="m75.9914 160.5h5.08c.4133 0 .8067-.06 1.18-.18.3733-.133.7-.32.98-.56s.5-.527.66-.86c.1733-.347.26-.74.26-1.18 0-.88-.2533-1.573-.76-2.08s-1.28-.76-2.32-.76h-5.08zm-1.36-6.78h6.54c.5867 0 1.14.073 1.66.22.5333.147.9933.373 1.38.68.4.293.7133.68.94 1.16.24.467.36 1.02.36 1.66 0 .907-.2333 1.693-.7 2.36s-1.16 1.093-2.08 1.28v.04c.4667.067.8533.193 1.16.38.3067.173.5533.4.74.68.2.28.34.607.42.98.0933.36.1533.753.18 1.18.0133.24.0267.533.04.88s.04.7.08 1.06c.04.347.1.68.18 1 .0933.307.2133.547.36.72h-1.5c-.08-.133-.1467-.293-.2-.48-.04-.2-.0733-.4-.1-.6-.0133-.213-.0267-.42-.04-.62s-.0267-.373-.04-.52c-.0267-.507-.0733-1.007-.14-1.5-.0533-.507-.18-.953-.38-1.34-.1867-.4-.4667-.72-.84-.96-.36-.24-.86-.347-1.5-.32h-5.16v6.34h-1.36zm20.5199 8.4c-.0134-.48-.1-.94-.26-1.38-.1467-.44-.36-.827-.64-1.16-.28-.347-.62-.62-1.02-.82-.4-.213-.8534-.32-1.36-.32-.52 0-.98.107-1.38.32-.4.2-.74.473-1.0201.82-.2799.333-.5066.727-.6799 1.18-.16.44-.2667.893-.32 1.36zm-6.68 1.06c0 .453.06.927.18 1.42.1333.48.34.913.62 1.3s.6333.707 1.06.96c.4266.253.94.38 1.54.38.92 0 1.64-.24 2.16-.72s.88-1.12 1.08-1.92h1.26c-.2667 1.173-.76 2.08-1.48 2.72-.7067.64-1.7134.96-3.02.96-.8134 0-1.52-.14-2.12-.42-.5867-.293-1.0667-.687-1.44-1.18-.3734-.507-.6534-1.087-.84-1.74-.1734-.667-.26-1.367-.26-2.1 0-.68.0866-1.347.26-2 .1866-.653.4666-1.233.84-1.74.3733-.52.8533-.933 1.44-1.24.6-.32 1.3066-.48 2.12-.48.8266 0 1.5333.167 2.12.5.5866.333 1.06.773 1.42 1.32.3733.533.64 1.153.8 1.86.16.693.2266 1.4.2 2.12zm15.8107-2.48c-.013-.387-.093-.72-.24-1-.146-.293-.346-.533-.6-.72-.24-.187-.52-.32-.84-.4-.32-.093-.66-.14-1.02-.14-.28 0-.566.033-.86.1-.28.053-.54.153-.7797.3-.24.133-.4333.313-.58.54-.1466.227-.22.507-.22.84 0 .28.0667.52.2.72.1467.187.3267.347.54.48.2137.133.4467.247.6997.34.254.08.487.147.7.2l1.68.38c.36.053.714.153 1.06.3.36.133.674.313.94.54.28.227.507.507.68.84.174.333.26.727.26 1.18 0 .56-.126 1.04-.38 1.44-.253.387-.58.707-.98.96-.386.24-.826.413-1.32.52-.493.107-.98.16-1.46.16-1.213 0-2.1997-.287-2.9597-.86-.7466-.573-1.1733-1.493-1.28-2.76h1.26c.0534.853.36 1.5.92 1.94.5737.427 1.2797.64 2.1197.64.307 0 .62-.033.94-.1.334-.067.64-.18.92-.34s.507-.36.68-.6c.187-.253.28-.56.28-.92 0-.307-.066-.56-.2-.76-.12-.213-.286-.387-.5-.52-.213-.147-.46-.267-.74-.36-.266-.093-.54-.173-.82-.24l-1.62-.36c-.413-.107-.793-.227-1.1397-.36-.3466-.147-.6533-.32-.92-.52-.2533-.213-.4533-.467-.6-.76-.1466-.307-.22-.68-.22-1.12 0-.52.1134-.967.34-1.34.24-.373.5467-.673.92-.9.3734-.227.7867-.393 1.2397-.5.467-.107.927-.16 1.38-.16.52 0 1 .067 1.44.2.454.133.847.34 1.18.62.347.28.62.627.82 1.04s.314.9.34 1.46zm10.869 1.42c-.013-.48-.1-.94-.26-1.38-.146-.44-.36-.827-.64-1.16-.28-.347-.62-.62-1.02-.82-.4-.213-.853-.32-1.36-.32-.52 0-.98.107-1.38.32-.4.2-.74.473-1.02.82-.28.333-.506.727-.68 1.18-.16.44-.266.893-.32 1.36zm-6.68 1.06c0 .453.06.927.18 1.42.134.48.34.913.62 1.3s.634.707 1.06.96c.427.253.94.38 1.54.38.92 0 1.64-.24 2.16-.72s.88-1.12 1.08-1.92h1.26c-.266 1.173-.76 2.08-1.48 2.72-.706.64-1.713.96-3.02.96-.813 0-1.52-.14-2.12-.42-.586-.293-1.066-.687-1.44-1.18-.373-.507-.653-1.087-.84-1.74-.173-.667-.26-1.367-.26-2.1 0-.68.087-1.347.26-2 .187-.653.467-1.233.84-1.74.374-.52.854-.933 1.44-1.24.6-.32 1.307-.48 2.12-.48.827 0 1.534.167 2.12.5.587.333 1.06.773 1.42 1.32.374.533.64 1.153.8 1.86.16.693.227 1.4.2 2.12zm9.511-2.34c.04-.6.167-1.12.38-1.56.214-.44.5-.8.86-1.08.374-.28.807-.487 1.3-.62.494-.133 1.04-.2 1.64-.2.454 0 .907.047 1.36.14.454.08.86.24 1.22.48s.654.58.88 1.02c.227.427.34.987.34 1.68v5.48c0 .507.247.76.74.76.147 0 .28-.027.4-.08v1.06c-.146.027-.28.047-.4.06-.106.013-.246.02-.42.02-.32 0-.58-.04-.78-.12-.186-.093-.333-.22-.44-.38-.106-.16-.18-.347-.22-.56-.026-.227-.04-.473-.04-.74h-.04c-.226.333-.46.633-.7.9-.226.253-.486.467-.78.64-.28.173-.606.307-.98.4-.36.093-.793.14-1.3.14-.48 0-.933-.06-1.36-.18-.413-.107-.78-.28-1.1-.52-.306-.253-.553-.567-.74-.94-.173-.387-.26-.84-.26-1.36 0-.72.16-1.28.48-1.68.32-.413.74-.727 1.26-.94.534-.213 1.127-.36 1.78-.44.667-.093 1.34-.18 2.02-.26.267-.027.5-.06.7-.1s.367-.107.5-.2c.134-.107.234-.247.3-.42.08-.173.12-.4.12-.68 0-.427-.073-.773-.22-1.04-.133-.28-.326-.5-.58-.66-.24-.16-.526-.267-.86-.32-.32-.067-.666-.1-1.04-.1-.8 0-1.453.193-1.96.58-.506.373-.773.98-.8 1.82zm6.72 1.52h-.04c-.08.147-.233.253-.46.32-.226.067-.426.113-.6.14-.533.093-1.086.18-1.66.26-.56.067-1.073.173-1.54.32-.466.147-.853.36-1.16.64-.293.267-.44.653-.44 1.16 0 .32.06.607.18.86.134.24.307.453.52.64.214.173.46.307.74.4s.567.14.86.14c.48 0 .94-.073 1.38-.22s.82-.36 1.14-.64c.334-.28.594-.62.78-1.02.2-.4.3-.853.3-1.36zm3.771-4.68h1.16v2.42h.04c.32-.84.814-1.487 1.48-1.94.68-.453 1.487-.66 2.42-.62v1.26c-.573-.027-1.093.053-1.56.24-.466.173-.873.427-1.22.76-.333.333-.593.733-.78 1.2-.186.453-.28.953-.28 1.5v5.5h-1.26zm13.237 3.24c-.173-.773-.493-1.38-.96-1.82-.466-.44-1.12-.66-1.96-.66-.6 0-1.126.127-1.58.38-.453.253-.833.587-1.14 1-.293.413-.52.887-.68 1.42-.146.52-.22 1.053-.22 1.6s.074 1.087.22 1.62c.16.52.387.987.68 1.4.307.413.687.747 1.14 1 .454.253.98.38 1.58.38.387 0 .754-.073 1.1-.22.347-.147.654-.347.92-.6.267-.267.487-.58.66-.94.174-.36.28-.753.32-1.18h1.26c-.173 1.253-.633 2.233-1.38 2.94-.746.693-1.706 1.04-2.88 1.04-.786 0-1.486-.14-2.1-.42-.6-.293-1.106-.687-1.52-1.18-.413-.493-.726-1.067-.94-1.72-.213-.667-.32-1.373-.32-2.12s.107-1.447.32-2.1c.214-.667.527-1.247.94-1.74.414-.493.92-.887 1.52-1.18.614-.293 1.314-.44 2.1-.44 1.107 0 2.04.293 2.8.88.774.587 1.234 1.473 1.38 2.66zm3.072-7.2h1.26v5.74h.04c.24-.627.666-1.127 1.28-1.5.613-.387 1.286-.58 2.02-.58.72 0 1.32.093 1.8.28.493.187.886.453 1.18.8.293.333.5.747.62 1.24s.18 1.047.18 1.66v6.64h-1.26v-6.44c0-.44-.04-.847-.12-1.22-.08-.387-.22-.72-.42-1s-.474-.5-.82-.66c-.334-.16-.754-.24-1.26-.24-.507 0-.96.093-1.36.28-.387.173-.72.42-1 .74-.267.307-.48.68-.64 1.12-.147.427-.227.893-.24 1.4v6.02h-1.26zm10.782 0h1.26v2.02h-1.26zm0 3.96h1.26v10.32h-1.26zm3.651 0h1.26v1.78h.04c.24-.627.667-1.127 1.28-1.5.613-.387 1.287-.58 2.02-.58.72 0 1.32.093 1.8.28.493.187.887.453 1.18.8.293.333.5.747.62 1.24s.18 1.047.18 1.66v6.64h-1.26v-6.44c0-.44-.04-.847-.12-1.22-.08-.387-.22-.72-.42-1s-.473-.5-.82-.66c-.333-.16-.753-.24-1.26-.24s-.96.093-1.36.28c-.387.173-.72.42-1 .74-.267.307-.48.68-.64 1.12-.147.427-.227.893-.24 1.4v6.02h-1.26zm19.482 9.48c0 .76-.086 1.447-.26 2.06-.16.613-.42 1.133-.78 1.56s-.833.753-1.42.98c-.573.227-1.28.34-2.12.34-.52 0-1.026-.06-1.52-.18-.493-.12-.94-.307-1.34-.56-.386-.253-.713-.58-.98-.98-.253-.387-.4-.853-.44-1.4h1.26c.067.387.194.707.38.96.2.267.434.48.7.64.28.16.587.273.92.34.334.08.674.12 1.02.12 1.174 0 2.02-.333 2.54-1s.78-1.627.78-2.88v-1.4h-.04c-.293.64-.726 1.153-1.3 1.54-.56.387-1.22.58-1.98.58-.826 0-1.533-.133-2.12-.4-.586-.28-1.073-.66-1.46-1.14-.373-.48-.646-1.04-.82-1.68-.173-.653-.26-1.347-.26-2.08 0-.707.1-1.373.3-2 .214-.64.514-1.193.9-1.66.4-.48.887-.853 1.46-1.12.587-.28 1.254-.42 2-.42.387 0 .747.053 1.08.16.347.107.66.26.94.46.28.187.527.407.74.66.227.253.4.52.52.8h.04v-1.78h1.26zm-4.58-.34c.547 0 1.027-.113 1.44-.34.414-.24.76-.547 1.04-.92.28-.387.487-.827.62-1.32.147-.493.22-1 .22-1.52 0-.507-.06-1.013-.18-1.52s-.313-.967-.58-1.38c-.266-.413-.613-.747-1.04-1-.413-.253-.92-.38-1.52-.38s-1.113.127-1.54.38c-.426.24-.78.56-1.06.96s-.486.86-.62 1.38c-.12.507-.18 1.027-.18 1.56 0 .52.067 1.027.2 1.52.134.493.34.933.62 1.32.28.373.634.68 1.06.92.427.227.934.34 1.52.34zm16.9-8.38c-.6 0-1.127.127-1.58.38s-.833.587-1.14 1c-.293.413-.52.887-.68 1.42-.147.52-.22 1.053-.22 1.6s.073 1.087.22 1.62c.16.52.387.987.68 1.4.307.413.687.747 1.14 1s.98.38 1.58.38 1.127-.127 1.58-.38.827-.587 1.12-1c.307-.413.533-.88.68-1.4.16-.533.24-1.073.24-1.62s-.08-1.08-.24-1.6c-.147-.533-.373-1.007-.68-1.42-.293-.413-.667-.747-1.12-1s-.98-.38-1.58-.38zm0-1.06c.787 0 1.48.147 2.08.44.613.293 1.127.687 1.54 1.18s.727 1.073.94 1.74c.213.653.32 1.353.32 2.1s-.107 1.453-.32 2.12c-.213.653-.527 1.227-.94 1.72s-.927.887-1.54 1.18c-.6.28-1.293.42-2.08.42s-1.487-.14-2.1-.42c-.6-.293-1.107-.687-1.52-1.18s-.727-1.067-.94-1.72c-.213-.667-.32-1.373-.32-2.12s.107-1.447.32-2.1c.213-.667.527-1.247.94-1.74s.92-.887 1.52-1.18c.613-.293 1.313-.44 2.1-.44zm6.733.3h1.26v1.78h.04c.24-.627.667-1.127 1.28-1.5.614-.387 1.287-.58 2.02-.58.72 0 1.32.093 1.8.28.494.187.887.453 1.18.8.294.333.5.747.62 1.24s.18 1.047.18 1.66v6.64h-1.26v-6.44c0-.44-.04-.847-.12-1.22-.08-.387-.22-.72-.42-1s-.473-.5-.82-.66c-.333-.16-.753-.24-1.26-.24-.506 0-.96.093-1.36.28-.386.173-.72.42-1 .74-.266.307-.48.68-.64 1.12-.146.427-.226.893-.24 1.4v6.02h-1.26zm10.783-3.96h1.26v14.28h-1.26zm3.691 0h1.26v2.02h-1.26zm0 3.96h1.26v10.32h-1.26zm3.651 0h1.26v1.78h.04c.24-.627.667-1.127 1.28-1.5.614-.387 1.287-.58 2.02-.58.72 0 1.32.093 1.8.28.494.187.887.453 1.18.8.294.333.5.747.62 1.24s.18 1.047.18 1.66v6.64h-1.26v-6.44c0-.44-.04-.847-.12-1.22-.08-.387-.22-.72-.42-1s-.473-.5-.82-.66c-.333-.16-.753-.24-1.26-.24-.506 0-.96.093-1.36.28-.386.173-.72.42-1 .74-.266.307-.48.68-.64 1.12-.146.427-.226.893-.24 1.4v6.02h-1.26zm18.183 4.44c-.014-.48-.1-.94-.26-1.38-.147-.44-.36-.827-.64-1.16-.28-.347-.62-.62-1.02-.82-.4-.213-.854-.32-1.36-.32-.52 0-.98.107-1.38.32-.4.2-.74.473-1.021.82-.279.333-.506.727-.679 1.18-.16.44-.267.893-.32 1.36zm-6.68 1.06c0 .453.06.927.18 1.42.133.48.34.913.62 1.3s.633.707 1.06.96c.426.253.94.38 1.54.38.92 0 1.64-.24 2.16-.72s.88-1.12 1.08-1.92h1.26c-.267 1.173-.76 2.08-1.48 2.72-.707.64-1.714.96-3.02.96-.814 0-1.52-.14-2.12-.42-.587-.293-1.067-.687-1.44-1.18-.374-.507-.654-1.087-.84-1.74-.174-.667-.26-1.367-.26-2.1 0-.68.086-1.347.26-2 .186-.653.466-1.233.84-1.74.373-.52.853-.933 1.44-1.24.6-.32 1.306-.48 2.12-.48.826 0 1.533.167 2.12.5.586.333 1.06.773 1.42 1.32.373.533.64 1.153.8 1.86.16.693.226 1.4.2 2.12zm-176.1604 18.5h1.16v2.42h.04c.32-.84.8133-1.487 1.48-1.94.68-.453 1.4866-.66 2.42-.62v1.26c-.5734-.027-1.0934.053-1.56.24-.4667.173-.8734.427-1.22.76-.3334.333-.5934.733-.78 1.2-.1867.453-.28.953-.28 1.5v5.5h-1.26zm13.377 4.44c-.0133-.48-.1-.94-.26-1.38-.1467-.44-.36-.827-.64-1.16-.28-.347-.62-.62-1.02-.82-.4-.213-.8533-.32-1.36-.32-.52 0-.98.107-1.38.32-.4.2-.74.473-1.02.82-.28.333-.5067.727-.68 1.18-.16.44-.2667.893-.32 1.36zm-6.68 1.06c0 .453.06.927.18 1.42.1333.48.34.913.62 1.3s.6333.707 1.06.96.94.38 1.54.38c.92 0 1.64-.24 2.16-.72s.88-1.12 1.08-1.92h1.26c-.2667 1.173-.76 2.08-1.48 2.72-.7067.64-1.7133.96-3.02.96-.8133 0-1.52-.14-2.12-.42-.5867-.293-1.0667-.687-1.44-1.18-.3733-.507-.6533-1.087-.84-1.74-.1733-.667-.26-1.367-.26-2.1 0-.68.0867-1.347.26-2 .1867-.653.4667-1.233.84-1.74.3733-.52.8533-.933 1.44-1.24.6-.32 1.3067-.48 2.12-.48.8267 0 1.5333.167 2.12.5s1.06.773 1.42 1.32c.3733.533.64 1.153.8 1.86.16.693.2267 1.4.2 2.12zm8.4711-5.5h1.4l3.24 9.06h.04l3.2-9.06h1.3l-3.86 10.32h-1.34zm10.4378-3.96h1.26v2.02h-1.26zm0 3.96h1.26v10.32h-1.26zm11.0914 4.44c-.0133-.48-.1-.94-.26-1.38-.1466-.44-.36-.827-.64-1.16-.28-.347-.62-.62-1.02-.82-.4-.213-.8533-.32-1.36-.32-.52 0-.98.107-1.38.32-.4.2-.74.473-1.02.82-.28.333-.5066.727-.68 1.18-.16.44-.2666.893-.32 1.36zm-6.68 1.06c0 .453.06.927.18 1.42.1334.48.34.913.62 1.3s.6334.707 1.06.96c.4267.253.94.38 1.54.38.92 0 1.64-.24 2.16-.72s.88-1.12 1.08-1.92h1.26c-.2666 1.173-.76 2.08-1.48 2.72-.7066.64-1.7133.96-3.02.96-.8133 0-1.52-.14-2.12-.42-.5866-.293-1.0666-.687-1.44-1.18-.3733-.507-.6533-1.087-.84-1.74-.1733-.667-.26-1.367-.26-2.1 0-.68.0867-1.347.26-2 .1867-.653.4667-1.233.84-1.74.3734-.52.8534-.933 1.44-1.24.6-.32 1.3067-.48 2.12-.48.8267 0 1.5334.167 2.12.5.5867.333 1.06.773 1.42 1.32.3734.533.64 1.153.8 1.86.16.693.2267 1.4.2 2.12zm8.5911-5.5h1.34l2.64 8.84h.04l2.52-8.84h1.42l2.52 8.84h.04l2.64-8.84h1.34l-3.32 10.32h-1.38l-2.54-8.68h-.04l-2.52 8.68h-1.38zm22.044 3.02c-.013-.387-.093-.72-.24-1-.146-.293-.346-.533-.6-.72-.24-.187-.52-.32-.84-.4-.32-.093-.66-.14-1.02-.14-.28 0-.566.033-.86.1-.28.053-.54.153-.78.3-.24.133-.433.313-.58.54-.146.227-.22.507-.22.84 0 .28.067.52.2.72.147.187.327.347.54.48.214.133.447.247.7.34.254.08.487.147.7.2l1.68.38c.36.053.714.153 1.06.3.36.133.674.313.94.54.28.227.507.507.68.84.174.333.26.727.26 1.18 0 .56-.126 1.04-.38 1.44-.253.387-.58.707-.98.96-.386.24-.826.413-1.32.52-.493.107-.98.16-1.46.16-1.213 0-2.2-.287-2.96-.86-.746-.573-1.173-1.493-1.28-2.76h1.26c.054.853.36 1.5.92 1.94.574.427 1.28.64 2.12.64.307 0 .62-.033.94-.1.334-.067.64-.18.92-.34s.507-.36.68-.6c.187-.253.28-.56.28-.92 0-.307-.066-.56-.2-.76-.12-.213-.286-.387-.5-.52-.213-.147-.46-.267-.74-.36-.266-.093-.54-.173-.82-.24l-1.62-.36c-.413-.107-.793-.227-1.14-.36-.346-.147-.653-.32-.92-.52-.253-.213-.453-.467-.6-.76-.146-.307-.22-.68-.22-1.12 0-.52.114-.967.34-1.34.24-.373.547-.673.92-.9.374-.227.787-.393 1.24-.5.467-.107.927-.16 1.38-.16.52 0 1 .067 1.44.2.454.133.847.34 1.18.62.347.28.62.627.82 1.04s.314.9.34 1.46zm16.296.22c-.174-.773-.494-1.38-.96-1.82-.467-.44-1.12-.66-1.96-.66-.6 0-1.127.127-1.58.38-.454.253-.834.587-1.14 1-.294.413-.52.887-.68 1.42-.147.52-.22 1.053-.22 1.6s.073 1.087.22 1.62c.16.52.386.987.68 1.4.306.413.686.747 1.14 1 .453.253.98.38 1.58.38.386 0 .753-.073 1.1-.22.346-.147.653-.347.92-.6.266-.267.486-.58.66-.94.173-.36.28-.753.32-1.18h1.26c-.174 1.253-.634 2.233-1.38 2.94-.747.693-1.707 1.04-2.88 1.04-.787 0-1.487-.14-2.1-.42-.6-.293-1.107-.687-1.52-1.18-.414-.493-.727-1.067-.94-1.72-.214-.667-.32-1.373-.32-2.12s.106-1.447.32-2.1c.213-.667.526-1.247.94-1.74.413-.493.92-.887 1.52-1.18.613-.293 1.313-.44 2.1-.44 1.106 0 2.04.293 2.8.88.773.587 1.233 1.473 1.38 2.66zm2.971-.08c.04-.6.166-1.12.38-1.56.213-.44.5-.8.86-1.08.373-.28.806-.487 1.3-.62.493-.133 1.04-.2 1.64-.2.453 0 .906.047 1.36.14.453.08.86.24 1.22.48s.653.58.88 1.02c.226.427.34.987.34 1.68v5.48c0 .507.246.76.74.76.146 0 .28-.027.4-.08v1.06c-.147.027-.28.047-.4.06-.107.013-.247.02-.42.02-.32 0-.58-.04-.78-.12-.187-.093-.334-.22-.44-.38-.107-.16-.18-.347-.22-.56-.027-.227-.04-.473-.04-.74h-.04c-.227.333-.46.633-.7.9-.227.253-.487.467-.78.64-.28.173-.607.307-.98.4-.36.093-.794.14-1.3.14-.48 0-.934-.06-1.36-.18-.414-.107-.78-.28-1.1-.52-.307-.253-.554-.567-.74-.94-.174-.387-.26-.84-.26-1.36 0-.72.16-1.28.48-1.68.32-.413.74-.727 1.26-.94.533-.213 1.126-.36 1.78-.44.666-.093 1.34-.18 2.02-.26.266-.027.5-.06.7-.1s.366-.107.5-.2c.133-.107.233-.247.3-.42.08-.173.12-.4.12-.68 0-.427-.074-.773-.22-1.04-.134-.28-.327-.5-.58-.66-.24-.16-.527-.267-.86-.32-.32-.067-.667-.1-1.04-.1-.8 0-1.454.193-1.96.58-.507.373-.774.98-.8 1.82zm6.72 1.52h-.04c-.08.147-.234.253-.46.32-.227.067-.427.113-.6.14-.534.093-1.087.18-1.66.26-.56.067-1.074.173-1.54.32-.467.147-.854.36-1.16.64-.294.267-.44.653-.44 1.16 0 .32.06.607.18.86.133.24.306.453.52.64.213.173.46.307.74.4s.566.14.86.14c.48 0 .94-.073 1.38-.22s.82-.36 1.14-.64c.333-.28.593-.62.78-1.02.2-.4.3-.853.3-1.36zm3.751-4.68h1.26v1.78h.04c.24-.627.666-1.127 1.28-1.5.613-.387 1.286-.58 2.02-.58.72 0 1.32.093 1.8.28.493.187.886.453 1.18.8.293.333.5.747.62 1.24s.18 1.047.18 1.66v6.64h-1.26v-6.44c0-.44-.04-.847-.12-1.22-.08-.387-.22-.72-.42-1s-.474-.5-.82-.66c-.334-.16-.754-.24-1.26-.24-.507 0-.96.093-1.36.28-.387.173-.72.42-1 .74-.267.307-.48.68-.64 1.12-.147.427-.227.893-.24 1.4v6.02h-1.26zm16.328-3.96h1.26v5.92h.04c.134-.373.32-.7.56-.98.254-.28.54-.513.86-.7.32-.2.667-.347 1.04-.44.374-.093.747-.14 1.12-.14.787 0 1.467.147 2.04.44.587.293 1.074.693 1.46 1.2.387.493.674 1.073.86 1.74.187.653.28 1.347.28 2.08s-.093 1.433-.28 2.1c-.186.653-.473 1.233-.86 1.74-.386.493-.873.887-1.46 1.18-.573.28-1.253.42-2.04.42-.84 0-1.593-.193-2.26-.58-.653-.387-1.126-.94-1.42-1.66h-.04v1.96h-1.16zm8.26 9.12c0-.533-.066-1.06-.2-1.58-.12-.533-.32-1.007-.6-1.42-.266-.413-.613-.747-1.04-1-.426-.267-.94-.4-1.54-.4-.666 0-1.233.133-1.7.4-.453.253-.826.587-1.12 1-.28.413-.486.887-.62 1.42-.12.52-.18 1.047-.18 1.58s.06 1.067.18 1.6c.134.52.34.987.62 1.4.294.413.667.753 1.12 1.02.467.253 1.034.38 1.7.38.6 0 1.114-.127 1.54-.38.427-.267.774-.607 1.04-1.02.28-.413.48-.88.6-1.4.134-.533.2-1.067.2-1.6zm10.645-.72c-.014-.48-.1-.94-.26-1.38-.147-.44-.36-.827-.64-1.16-.28-.347-.62-.62-1.02-.82-.4-.213-.854-.32-1.36-.32-.52 0-.98.107-1.38.32-.4.2-.74.473-1.02.82-.28.333-.507.727-.68 1.18-.16.44-.267.893-.32 1.36zm-6.68 1.06c0 .453.06.927.18 1.42.133.48.34.913.62 1.3s.633.707 1.06.96c.426.253.94.38 1.54.38.92 0 1.64-.24 2.16-.72s.88-1.12 1.08-1.92h1.26c-.267 1.173-.76 2.08-1.48 2.72-.707.64-1.714.96-3.02.96-.814 0-1.52-.14-2.12-.42-.587-.293-1.067-.687-1.44-1.18-.374-.507-.654-1.087-.84-1.74-.174-.667-.26-1.367-.26-2.1 0-.68.086-1.347.26-2 .186-.653.466-1.233.84-1.74.373-.52.853-.933 1.44-1.24.6-.32 1.306-.48 2.12-.48.826 0 1.533.167 2.12.5.586.333 1.06.773 1.42 1.32.373.533.64 1.153.8 1.86.16.693.226 1.4.2 2.12zm15.217-9.46h1.26v14.28h-1.26zm8.032 4.72c-.6 0-1.127.127-1.58.38-.454.253-.834.587-1.14 1-.294.413-.52.887-.68 1.42-.147.52-.22 1.053-.22 1.6s.073 1.087.22 1.62c.16.52.386.987.68 1.4.306.413.686.747 1.14 1 .453.253.98.38 1.58.38s1.126-.127 1.58-.38c.453-.253.826-.587 1.12-1 .306-.413.533-.88.68-1.4.16-.533.24-1.073.24-1.62s-.08-1.08-.24-1.6c-.147-.533-.374-1.007-.68-1.42-.294-.413-.667-.747-1.12-1-.454-.253-.98-.38-1.58-.38zm0-1.06c.786 0 1.48.147 2.08.44.613.293 1.126.687 1.54 1.18.413.493.726 1.073.94 1.74.213.653.32 1.353.32 2.1s-.107 1.453-.32 2.12c-.214.653-.527 1.227-.94 1.72-.414.493-.927.887-1.54 1.18-.6.28-1.294.42-2.08.42-.787 0-1.487-.14-2.1-.42-.6-.293-1.107-.687-1.52-1.18-.414-.493-.727-1.067-.94-1.72-.214-.667-.32-1.373-.32-2.12s.106-1.447.32-2.1c.213-.667.526-1.247.94-1.74.413-.493.92-.887 1.52-1.18.613-.293 1.313-.44 2.1-.44zm6.733.3h1.26v1.78h.04c.24-.627.667-1.127 1.28-1.5.613-.387 1.287-.58 2.02-.58.72 0 1.32.093 1.8.28.493.187.887.453 1.18.8.293.333.5.747.62 1.24s.18 1.047.18 1.66v6.64h-1.26v-6.44c0-.44-.04-.847-.12-1.22-.08-.387-.22-.72-.42-1s-.473-.5-.82-.66c-.333-.16-.753-.24-1.26-.24s-.96.093-1.36.28c-.387.173-.72.42-1 .74-.267.307-.48.68-.64 1.12-.147.427-.227.893-.24 1.4v6.02h-1.26zm19.482 9.48c0 .76-.087 1.447-.26 2.06-.16.613-.42 1.133-.78 1.56s-.833.753-1.42.98c-.573.227-1.28.34-2.12.34-.52 0-1.027-.06-1.52-.18s-.94-.307-1.34-.56c-.387-.253-.713-.58-.98-.98-.253-.387-.4-.853-.44-1.4h1.26c.067.387.193.707.38.96.2.267.433.48.7.64.28.16.587.273.92.34.333.08.673.12 1.02.12 1.173 0 2.02-.333 2.54-1s.78-1.627.78-2.88v-1.4h-.04c-.293.64-.727 1.153-1.3 1.54-.56.387-1.22.58-1.98.58-.827 0-1.533-.133-2.12-.4-.587-.28-1.073-.66-1.46-1.14-.373-.48-.647-1.04-.82-1.68-.173-.653-.26-1.347-.26-2.08 0-.707.1-1.373.3-2 .213-.64.513-1.193.9-1.66.4-.48.887-.853 1.46-1.12.587-.28 1.253-.42 2-.42.387 0 .747.053 1.08.16.347.107.66.26.94.46.28.187.527.407.74.66.227.253.4.52.52.8h.04v-1.78h1.26zm-4.58-.34c.547 0 1.027-.113 1.44-.34.413-.24.76-.547 1.04-.92.28-.387.487-.827.62-1.32.147-.493.22-1 .22-1.52 0-.507-.06-1.013-.18-1.52s-.313-.967-.58-1.38-.613-.747-1.04-1c-.413-.253-.92-.38-1.52-.38s-1.113.127-1.54.38c-.427.24-.78.56-1.06.96s-.487.86-.62 1.38c-.12.507-.18 1.027-.18 1.56 0 .52.067 1.027.2 1.52s.34.933.62 1.32c.28.373.633.68 1.06.92.427.227.933.34 1.52.34zm12.42-5.98c.04-.6.166-1.12.38-1.56.213-.44.5-.8.86-1.08.373-.28.806-.487 1.3-.62.493-.133 1.04-.2 1.64-.2.453 0 .906.047 1.36.14.453.08.86.24 1.22.48s.653.58.88 1.02c.226.427.34.987.34 1.68v5.48c0 .507.246.76.74.76.146 0 .28-.027.4-.08v1.06c-.147.027-.28.047-.4.06-.107.013-.247.02-.42.02-.32 0-.58-.04-.78-.12-.187-.093-.334-.22-.44-.38-.107-.16-.18-.347-.22-.56-.027-.227-.04-.473-.04-.74h-.04c-.227.333-.46.633-.7.9-.227.253-.487.467-.78.64-.28.173-.607.307-.98.4-.36.093-.794.14-1.3.14-.48 0-.934-.06-1.36-.18-.414-.107-.78-.28-1.1-.52-.307-.253-.554-.567-.74-.94-.174-.387-.26-.84-.26-1.36 0-.72.16-1.28.48-1.68.32-.413.74-.727 1.26-.94.533-.213 1.126-.36 1.78-.44.666-.093 1.34-.18 2.02-.26.266-.027.5-.06.7-.1s.366-.107.5-.2c.133-.107.233-.247.3-.42.08-.173.12-.4.12-.68 0-.427-.074-.773-.22-1.04-.134-.28-.327-.5-.58-.66-.24-.16-.527-.267-.86-.32-.32-.067-.667-.1-1.04-.1-.8 0-1.454.193-1.96.58-.507.373-.774.98-.8 1.82zm6.72 1.52h-.04c-.08.147-.234.253-.46.32-.227.067-.427.113-.6.14-.534.093-1.087.18-1.66.26-.56.067-1.074.173-1.54.32-.467.147-.854.36-1.16.64-.294.267-.44.653-.44 1.16 0 .32.06.607.18.86.133.24.306.453.52.64.213.173.46.307.74.4s.566.14.86.14c.48 0 .94-.073 1.38-.22s.82-.36 1.14-.64c.333-.28.593-.62.78-1.02.2-.4.3-.853.3-1.36zm3.751-4.68h1.26v1.78h.04c.24-.627.667-1.127 1.28-1.5.613-.387 1.287-.58 2.02-.58.72 0 1.32.093 1.8.28.493.187.887.453 1.18.8.293.333.5.747.62 1.24s.18 1.047.18 1.66v6.64h-1.26v-6.44c0-.44-.04-.847-.12-1.22-.08-.387-.22-.72-.42-1s-.473-.5-.82-.66c-.333-.16-.753-.24-1.26-.24s-.96.093-1.36.28c-.387.173-.72.42-1 .74-.267.307-.48.68-.64 1.12-.147.427-.227.893-.24 1.4v6.02h-1.26zm19.842 10.32h-1.16v-1.96h-.04c-.133.333-.333.64-.6.92-.253.28-.547.52-.88.72-.333.187-.693.333-1.08.44-.373.107-.747.16-1.12.16-.787 0-1.473-.14-2.06-.42-.573-.293-1.053-.687-1.44-1.18-.387-.507-.673-1.087-.86-1.74-.187-.667-.28-1.367-.28-2.1s.093-1.427.28-2.08c.187-.667.473-1.247.86-1.74.387-.507.867-.907 1.44-1.2.587-.293 1.273-.44 2.06-.44.387 0 .76.047 1.12.14.373.093.72.24 1.04.44.32.187.6.42.84.7.253.28.447.607.58.98h.04v-5.92h1.26zm-8.26-5.16c0 .533.06 1.067.18 1.6.133.52.333.987.6 1.4.28.413.633.753 1.06 1.02.427.253.94.38 1.54.38.667 0 1.227-.127 1.68-.38.467-.267.84-.607 1.12-1.02.293-.413.5-.88.62-1.4.133-.533.2-1.067.2-1.6s-.067-1.06-.2-1.58c-.12-.533-.327-1.007-.62-1.42-.28-.413-.653-.747-1.12-1-.453-.267-1.013-.4-1.68-.4-.6 0-1.113.133-1.54.4-.427.253-.78.587-1.06 1-.267.413-.467.887-.6 1.42-.12.52-.18 1.047-.18 1.58zm-128.198 22.08c-.173-.773-.493-1.38-.96-1.82s-1.12-.66-1.96-.66c-.6 0-1.127.127-1.58.38s-.833.587-1.14 1c-.293.413-.52.887-.68 1.42-.147.52-.22 1.053-.22 1.6s.073 1.087.22 1.62c.16.52.387.987.68 1.4.307.413.687.747 1.14 1s.98.38 1.58.38c.387 0 .753-.073 1.1-.22s.653-.347.92-.6c.267-.267.487-.58.66-.94s.28-.753.32-1.18h1.26c-.173 1.253-.633 2.233-1.38 2.94-.747.693-1.707 1.04-2.88 1.04-.787 0-1.487-.14-2.1-.42-.6-.293-1.107-.687-1.52-1.18s-.727-1.067-.94-1.72c-.213-.667-.32-1.373-.32-2.12s.107-1.447.32-2.1c.213-.667.527-1.247.94-1.74s.92-.887 1.52-1.18c.613-.293 1.313-.44 2.1-.44 1.107 0 2.04.293 2.8.88.773.587 1.233 1.473 1.38 2.66zm7.451-2.48c-.6 0-1.127.127-1.58.38s-.833.587-1.14 1c-.293.413-.52.887-.68 1.42-.147.52-.22 1.053-.22 1.6s.073 1.087.22 1.62c.16.52.387.987.68 1.4.307.413.687.747 1.14 1s.98.38 1.58.38 1.127-.127 1.58-.38.827-.587 1.12-1c.307-.413.533-.88.68-1.4.16-.533.24-1.073.24-1.62s-.08-1.08-.24-1.6c-.147-.533-.373-1.007-.68-1.42-.293-.413-.667-.747-1.12-1s-.98-.38-1.58-.38zm0-1.06c.787 0 1.48.147 2.08.44.613.293 1.127.687 1.54 1.18s.727 1.073.94 1.74c.213.653.32 1.353.32 2.1s-.107 1.453-.32 2.12c-.213.653-.527 1.227-.94 1.72s-.927.887-1.54 1.18c-.6.28-1.293.42-2.08.42s-1.487-.14-2.1-.42c-.6-.293-1.107-.687-1.52-1.18s-.727-1.067-.94-1.72c-.213-.667-.32-1.373-.32-2.12s.107-1.447.32-2.1c.213-.667.527-1.247.94-1.74s.92-.887 1.52-1.18c.613-.293 1.313-.44 2.1-.44zm6.733.3h1.26v1.78h.04c.24-.627.667-1.127 1.28-1.5.614-.387 1.287-.58 2.02-.58.72 0 1.32.093 1.8.28.494.187.887.453 1.18.8.294.333.5.747.62 1.24s.18 1.047.18 1.66v6.64h-1.26v-6.44c0-.44-.04-.847-.12-1.22-.08-.387-.22-.72-.42-1s-.473-.5-.82-.66c-.333-.16-.753-.24-1.26-.24-.506 0-.96.093-1.36.28-.386.173-.72.42-1 .74-.266.307-.48.68-.64 1.12-.146.427-.226.893-.24 1.4v6.02h-1.26zm14.742 1.06h-2.04v9.26h-1.26v-9.26h-1.76v-1.06h1.76v-.94c0-.44.034-.847.1-1.22.067-.373.194-.693.38-.96.187-.267.44-.473.76-.62.334-.147.754-.22 1.26-.22.187 0 .36.007.52.02s.34.033.54.06v1.08c-.173-.027-.333-.047-.48-.06-.146-.027-.293-.04-.44-.04-.346 0-.613.053-.8.16-.186.107-.326.253-.42.44-.08.173-.126.38-.14.62-.013.24-.02.5-.02.78v.9h2.04zm9.556 9.26h-1.16v-1.86h-.04c-.333.693-.82 1.227-1.46 1.6-.626.36-1.326.54-2.1.54-.653 0-1.213-.093-1.68-.28-.453-.173-.826-.427-1.12-.76-.28-.333-.486-.74-.62-1.22-.133-.48-.2-1.027-.2-1.64v-6.7h1.26v6.72c.027.933.24 1.64.64 2.12.414.48 1.12.72 2.12.72.547 0 1.014-.113 1.4-.34.387-.24.707-.553.96-.94.254-.387.44-.827.56-1.32.12-.507.18-1.02.18-1.54v-5.42h1.26zm8.562-7.3c-.013-.387-.093-.72-.24-1-.146-.293-.346-.533-.6-.72-.24-.187-.52-.32-.84-.4-.32-.093-.66-.14-1.02-.14-.28 0-.566.033-.86.1-.28.053-.54.153-.78.3-.24.133-.433.313-.58.54-.146.227-.22.507-.22.84 0 .28.067.52.2.72.147.187.327.347.54.48.214.133.447.247.7.34.254.08.487.147.7.2l1.68.38c.36.053.714.153 1.06.3.36.133.674.313.94.54.28.227.507.507.68.84.174.333.26.727.26 1.18 0 .56-.126 1.04-.38 1.44-.253.387-.58.707-.98.96-.386.24-.826.413-1.32.52-.493.107-.98.16-1.46.16-1.213 0-2.2-.287-2.96-.86-.746-.573-1.173-1.493-1.28-2.76h1.26c.054.853.36 1.5.92 1.94.574.427 1.28.64 2.12.64.307 0 .62-.033.94-.1.334-.067.64-.18.92-.34s.507-.36.68-.6c.187-.253.28-.56.28-.92 0-.307-.066-.56-.2-.76-.12-.213-.286-.387-.5-.52-.213-.147-.46-.267-.74-.36-.266-.093-.54-.173-.82-.24l-1.62-.36c-.413-.107-.793-.227-1.14-.36-.346-.147-.653-.32-.92-.52-.253-.213-.453-.467-.6-.76-.146-.307-.22-.68-.22-1.12 0-.52.114-.967.34-1.34.24-.373.547-.673.92-.9.374-.227.787-.393 1.24-.5.467-.107.927-.16 1.38-.16.52 0 1 .067 1.44.2.454.133.847.34 1.18.62.347.28.62.627.82 1.04s.314.9.34 1.46zm3.469-6.98h1.26v2.02h-1.26zm0 3.96h1.26v10.32h-1.26zm3.652 0h1.26v1.78h.04c.24-.627.666-1.127 1.28-1.5.613-.387 1.286-.58 2.02-.58.72 0 1.32.093 1.8.28.493.187.886.453 1.18.8.293.333.5.747.62 1.24s.18 1.047.18 1.66v6.64h-1.26v-6.44c0-.44-.04-.847-.12-1.22-.08-.387-.22-.72-.42-1s-.474-.5-.82-.66c-.334-.16-.754-.24-1.26-.24-.507 0-.96.093-1.36.28-.387.173-.72.42-1 .74-.267.307-.48.68-.64 1.12-.147.427-.227.893-.24 1.4v6.02h-1.26zm19.482 9.48c0 .76-.087 1.447-.26 2.06-.16.613-.42 1.133-.78 1.56s-.833.753-1.42.98c-.573.227-1.28.34-2.12.34-.52 0-1.027-.06-1.52-.18s-.94-.307-1.34-.56c-.387-.253-.713-.58-.98-.98-.253-.387-.4-.853-.44-1.4h1.26c.067.387.193.707.38.96.2.267.433.48.7.64.28.16.587.273.92.34.333.08.673.12 1.02.12 1.173 0 2.02-.333 2.54-1s.78-1.627.78-2.88v-1.4h-.04c-.293.64-.727 1.153-1.3 1.54-.56.387-1.22.58-1.98.58-.827 0-1.533-.133-2.12-.4-.587-.28-1.073-.66-1.46-1.14-.373-.48-.647-1.04-.82-1.68-.173-.653-.26-1.347-.26-2.08 0-.707.1-1.373.3-2 .213-.64.513-1.193.9-1.66.4-.48.887-.853 1.46-1.12.587-.28 1.253-.42 2-.42.387 0 .747.053 1.08.16.347.107.66.26.94.46.28.187.527.407.74.66.227.253.4.52.52.8h.04v-1.78h1.26zm-4.58-.34c.547 0 1.027-.113 1.44-.34.413-.24.76-.547 1.04-.92.28-.387.487-.827.62-1.32.147-.493.22-1 .22-1.52 0-.507-.06-1.013-.18-1.52s-.313-.967-.58-1.38-.613-.747-1.04-1c-.413-.253-.92-.38-1.52-.38s-1.113.127-1.54.38c-.427.24-.78.56-1.06.96s-.487.86-.62 1.38c-.12.507-.18 1.027-.18 1.56 0 .52.067 1.027.2 1.52s.34.933.62 1.32c.28.373.633.68 1.06.92.427.227.933.34 1.52.34z" fill="#000"/><g clip-path="url(#b)"><path d="m60.8002 15.2369c-.8013-2.6412-2.2103-5.0661-4.2271-7.28279-2.0209-2.21673-4.7772-4.04712-8.2689-5.49456s-7.928-2.171159-13.3089-2.171159c-4.293 0-8.6675.574079-13.1244 1.722239-4.461 1.15224-8.3307 2.79081-11.6125 4.92048l4.2724 11.62989-2.2899 1.8392 3.3209.9679c3.2777-1.7012 6.2645-2.9364 8.9591-3.7057 2.6904-.7652 5.5496-1.1481 8.581-1.1481s5.3199.7237 6.8764 2.1711c1.5565 1.4516 2.333 3.1942 2.333 5.2409 0 2.4704-.8012 4.6627-2.3948 6.5801-1.6017 1.9175-3.3682 3.8553-5.3033 5.8143-1.3432 1.3603-2.6493 2.7656-3.9109 4.2131-1.2608 1.4515-2.3783 3.003-3.3435 4.6667-.9693 1.6597-1.7458 3.4479-2.3331 5.3653-.5913 1.9175-.8828 4.0676-.8828 6.4509 0 .7693.0164 1.6842.0617 2.7494.0076.1965.0179.3877.0295.5768h-3.1391l3.4259 2.297h16.6572c-.0864-.5115-.1276-1.1067-.1276-1.7883v-1.5345c0-1.4474.2957-2.8738.8829-4.2797s1.3267-2.7452 2.2102-4.026c.8829-1.2767 1.8694-2.4916 2.9656-3.639 1.0927-1.1523 2.1444-2.2379 3.1548-3.2609 1.3432-1.3603 2.7317-2.8071 4.1613-4.3423 1.4296-1.5345 2.6945-3.1486 3.7873-4.8538s1.9962-3.556 2.711-5.5605c.7149-2.0005 1.0764-4.1927 1.0764-6.5802 0-2.3874-.4027-4.8953-1.1998-7.5365z" fill="#e49b31"/><path d="m29.5753 15.7021c-2.9958 0-5.8213.3701-8.4802 1.1108-2.6631.7448-5.6142 1.9399-8.8541 3.5866l-5.241-13.97104c3.2434-2.06097 7.0678-3.64717 11.4766-4.762 4.4041-1.110746 8.7279-1.66646 12.9701-1.66646 5.3178 0 9.7026.700594 13.1531 2.1011 3.4506 1.40051 6.1746 3.17172 8.1723 5.31703 1.9934 2.14531 3.3853 4.49197 4.177 7.04807.7875 2.5562 1.1853 4.9872 1.1853 7.2937s-.3574 4.4321-1.0632 6.3679c-.7066 1.9399-1.5998 3.7315-2.6795 5.3817-1.0798 1.6501-2.3303 3.2118-3.7428 4.6973-1.4124 1.4856-2.7851 2.8861-4.1125 4.2022-.9988.9904-2.0381 2.0406-3.1178 3.1561-1.0839 1.1108-2.058 2.2861-2.9313 3.522-.8726 1.24-1.6038 2.5358-2.1842 3.8961-.5803 1.3604-.8725 2.7412-.8725 4.1417v1.4855c0 .6605.0404 1.2359.1255 1.7311h-16.4617c-.1708-.8251-.2717-1.7508-.3128-2.7813-.0446-1.0305-.0611-1.9161-.0611-2.6609 0-2.3065.2881-4.3872.8726-6.2434.5803-1.8556 1.348-3.5866 2.3056-5.1926.9542-1.61 2.058-3.1112 3.3044-4.5164 1.2465-1.4005 2.5375-2.7616 3.8649-4.0777 1.9118-1.8957 3.6577-3.7717 5.241-5.6272 1.575-1.8556 2.3666-3.9771 2.3666-6.368 0-1.9807-.7669-3.6669-2.3056-5.0714-1.5387-1.4005-3.8038-2.1011-6.7954-2.1011z" fill="#fbc343"/><path d="m42.3176 78.6712c0 2.9778-.9721 5.2755-2.9169 6.8964-1.9441 1.6243-4.142 2.433-6.5958 2.433s-4.6544-.8087-6.5985-2.433c-1.9414-1.6209-2.9134-3.9186-2.9134-6.8964 0-2.9779.972-5.2722 2.9134-6.8964 2.993-2.5045 7.421-3.0623 10.9251-1.3046 3.1096 1.5596 5.1861 4.7273 5.1861 8.201z" fill="#e49b31"/><path d="m39.0591 78.6712c0 2.9779-.972 5.2755-2.9168 6.8964-1.9441 1.6243-4.142 2.4331-6.5958 2.4331s-4.6545-.8088-6.5986-2.4331c-1.9413-1.6209-2.9134-3.9185-2.9134-6.8964s.9721-5.2721 2.9134-6.8964c1.9441-1.6209 4.1421-2.4331 6.5986-2.4331s4.651.8122 6.5958 2.4331c1.9441 1.6243 2.9168 3.9219 2.9168 6.8964z" fill="#fbc343"/></g></svg>