<svg fill="none" height="324" viewBox="0 0 315 324" width="315" xmlns="http://www.w3.org/2000/svg" xmlns:xlink="http://www.w3.org/1999/xlink"><filter id="a" color-interpolation-filters="sRGB" filterUnits="userSpaceOnUse" height="309" width="310" x="5" y="15"><feFlood flood-opacity="0" result="BackgroundImageFix"/><feColorMatrix in="SourceAlpha" result="hardAlpha" type="matrix" values="0 0 0 0 0 0 0 0 0 0 0 0 0 0 0 0 0 0 127 0"/><feOffset dy="14"/><feGaussianBlur stdDeviation="10"/><feComposite in2="hardAlpha" operator="out"/><feColorMatrix type="matrix" values="0 0 0 0 0 0 0 0 0 0 0 0 0 0 0 0 0 0 0.18 0"/><feBlend in2="BackgroundImageFix" mode="normal" result="effect1_dropShadow_622_15157"/><feBlend in="SourceGraphic" in2="effect1_dropShadow_622_15157" mode="normal" result="shape"/></filter><clipPath id="b"><path d="m0 0h80v91h-80z" transform="matrix(-1 0 0 1 80 0)"/></clipPath><g filter="url(#a)"><rect fill="#fff" height="269" rx="10" width="270" x="25" y="21"/></g><g clip-path="url(#b)"><path d="m13.5004 42.4584c0-14.4292 11.7752-26.1256 26.3016-26.1256 14.5263 0 26.3508 11.7888 26.3016 26.2167-.0252 7.1644-2.9544 13.6489-7.6778 18.3539-3.6775 3.6621-6.3688 8.1862-7.7271 13.179l-2.1211 7.7914h-17.2402l-2.0082-7.3782c-1.3889-5.1011-4.1705-9.7044-7.9636-13.41-4.8523-4.7393-7.8626-11.3348-7.8626-18.6286z" fill="#f4d242"/><path d="m35.8189 91h8.4062c2.3816 0 4.419-1.7466 4.5546-3.9631l.7097-8.5558-19.0385-.1215.8121 8.6773c.1355 2.2165 2.173 3.9631 4.5546 3.9631z" fill="#59595b"/><path d="m32.1627 82.0903c5.3175.2258 10.6549-.0449 15.9724.1888.4718.0211.4372.705-.0266.7208-5.3215.1756-10.6575-.1518-15.9803.0158-.5968.0185-.5702-.9505.0345-.9254z" fill="#808183"/><path d="m32.1627 84.3848c5.3175.2257 10.6549-.0449 15.9724.1887.4718.0212.4372.705-.0266.7208-5.3215.1756-10.6575-.1518-15.9803.0159-.5968.0185-.5702-.9505.0345-.9254z" fill="#808183"/><g fill="#f4d242"><path d="m37.6569 3.04821c0 1.68318.901 7.73599 2.0134 7.73599s2.0135-6.05281 2.0135-7.73599-.9011-3.04821-2.0135-3.04821-2.0134 1.36503-2.0134 3.04821z"/><path d="m12.5767 12.3447c1.2851 1.097 5.3201 5.7201 4.5958 6.5584-.7244.837-5.9329-2.4277-7.21936-3.5248-1.28518-1.097-1.73971-2.6653-1.01538-3.5036.72432-.837 2.35374-.6271 3.63894.47z"/><path d="m2.80162 39.3534c1.68123.2126 7.83998.0871 7.97948-1.0086.1396-1.0957-5.79056-2.7459-7.47179-2.9584-1.68123-.2126-3.15779.5043-3.2986679 1.6-.1395491 1.0957 1.1097479 2.1558 2.7909779 2.367z"/><path d="m64.4609 10.3341c-1.3343 1.0376-5.5753 5.4746-4.8908 6.3432.6858.87 6.0378-2.1571 7.3721-3.196 1.3344-1.0377 1.8607-2.5849 1.1749-3.4535-.6858-.86998-2.3232-.73269-3.6575.3049z"/><path d="m77.1984 35.026c-1.6812.2126-7.84.0871-7.9795-1.0086-.1396-1.0957 5.7906-2.7459 7.4718-2.9584 1.6812-.2126 3.1578.5043 3.2987 1.6.1395 1.0957-1.1098 2.1558-2.791 2.367z"/></g><path d="m28.4493 55.7601c.8453-.6139 1.5018-1.4178 1.9802-2.3221-.9542-1.1697-1.3742-2.7433-1.5483-4.2047-.1063-.8937-.1369-1.7901-.1515-2.6891-.0146-.8673.101-1.6026.84-2.1426.6592-.4805 1.539-.0475 2.044.4198.5835.5386.8666 1.4205 1.0912 2.1558.4545 1.4839.4465 3.0733.1608 4.5862-.0997.528-.2486 1.0455-.4399 1.5472.3734.2904.7961.5201 1.2639.668 1.4367.4568 2.5278-.3657 3.1923-1.5829.109-.1993.2127-.4119.311-.6323-.113-.301-.2206-.602-.3216-.899-.4891-1.4456-.7589-2.9598-.8812-4.478-.101-1.258-.1369-2.7617 1.0819-3.5062.392-.2403.8319-.0581 1.0778.2811 1.7809 2.4542 1.6813 5.7083.7137 8.4912.311.7393.6765 1.4574 1.0832 2.1505.4465.7644 1.2984 1.9419 2.3324 1.7928.9623-.1387 1.7318-1.34 2.2102-2.0819.3509-.5439.626-1.1248.8426-1.7294-.1222-.3195-.2365-.6429-.3402-.9703-.4107-1.2858-.6406-2.6244-.7482-3.967-.0891-1.1208-.1263-2.6944 1.1084-3.2317.3588-.1558.8891-.14 1.0791.2812 1.0832 2.3947 1.2905 5.0218.6074 7.5591-.0226.0858-.0505.1716-.0757.2574.7482 1.8918 1.8859 3.6436 3.2681 5.1341.6206.6693-.3615 1.6554-1.0075 1.0006-1.232-1.2488-2.2567-2.668-3.0567-4.2086-.2379.4436-.5051.87-.7988 1.2739-.8054 1.109-1.8154 2.1466-3.2654 2.2245-1.3543.0726-2.4548-1.0588-3.1884-2.041-.3522-.4712-.6605-.9861-.9343-1.5208-.6632 1.0496-1.6201 1.8826-2.9225 2.0634-1.1988.1664-2.3604-.2033-3.3426-.8568-.5754.973-1.3197 1.8496-2.1862 2.5704-.9902.8224-2.1212-.6337-1.0792-1.3901zm9.0587-10.8964c-.0558.6257.0904 1.398.1249 1.7782.0638.6931.1861 1.3795.3469 2.0581.1648-1.3347.0545-2.7023-.4718-3.835zm-6.1441 3.9366c-.0492-.6495-.222-1.2897-.4399-1.9023-.0984-.2772-.2247-.5386-.3828-.7868-.012-.0198-.0678-.0898-.1236-.1518-.008.0422-.0253.103-.0306.1888-.0837 1.5855.0479 3.295.5449 4.8066.0612.1875.1356.3696.2193.5452.21-.8871.2818-1.8073.214-2.6997z" fill="#fff"/><path d="m26.9542 51.9172c2.7963 8.478 5.7401 16.915 8.9032 25.2662.3788.9993-1.1722 1.6119-1.5483.6139-3.1512-8.3631-6.079-16.8028-8.7039-25.3441-.2711-.8806 1.0566-1.4218 1.349-.5347z" fill="#fff"/><path d="m52.3906 51.3812c-2.2315 8.643-4.3167 17.3269-6.1707 26.057-.222 1.0455-1.8607.734-1.6374-.3103 1.8699-8.7353 3.9711-17.414 6.382-26.0173.2485-.8871 1.66-.635 1.4261.2706z" fill="#fff"/></g><path d="m73.4884 126.72h1.52l8.32 12.08h.04v-12.08h1.36v14.28h-1.52l-8.32-12.08h-.04v12.08h-1.36zm14.102 0h1.36v13.12h8v1.16h-9.36zm12.1022 7h4.6804c.946 0 1.713-.24 2.3-.72.586-.48.88-1.213.88-2.2s-.294-1.72-.88-2.2c-.587-.48-1.354-.72-2.3-.72h-4.6804zm-1.36-7h6.3404c.64 0 1.22.093 1.74.28.52.173.966.44 1.34.8.373.347.66.773.86 1.28s.3 1.08.3 1.72-.1 1.213-.3 1.72-.487.94-.86 1.3c-.374.347-.82.613-1.34.8-.52.173-1.1.26-1.74.26h-4.9804v6.12h-1.36zm12.3574 9.36v-1.16h5v1.16zm7.403-5.4h1.16v1.96h.04c.293-.72.766-1.273 1.42-1.66.666-.4 1.42-.6 2.26-.6.786 0 1.466.147 2.04.44.586.293 1.073.693 1.46 1.2.386.493.673 1.073.86 1.74.186.653.28 1.347.28 2.08s-.094 1.433-.28 2.1c-.187.653-.474 1.233-.86 1.74-.387.493-.874.887-1.46 1.18-.574.28-1.254.42-2.04.42-.374 0-.747-.047-1.12-.14-.374-.093-.72-.233-1.04-.42s-.607-.42-.86-.7c-.24-.28-.427-.607-.56-.98h-.04v5.76h-1.26zm8.26 5.16c0-.533-.067-1.06-.2-1.58-.12-.533-.32-1.007-.6-1.42-.267-.413-.614-.747-1.04-1-.427-.267-.94-.4-1.54-.4-.694 0-1.274.12-1.74.36-.467.24-.84.56-1.12.96s-.48.867-.6 1.4c-.107.533-.16 1.093-.16 1.68 0 .533.06 1.067.18 1.6.133.52.34.987.62 1.4.293.413.666.753 1.12 1.02.466.253 1.033.38 1.7.38.6 0 1.113-.127 1.54-.38.426-.267.773-.607 1.04-1.02.28-.413.48-.88.6-1.4.133-.533.2-1.067.2-1.6zm7.584-4.4c-.6 0-1.127.127-1.58.38s-.833.587-1.14 1c-.293.413-.52.887-.68 1.42-.147.52-.22 1.053-.22 1.6s.073 1.087.22 1.62c.16.52.387.987.68 1.4.307.413.687.747 1.14 1s.98.38 1.58.38 1.127-.127 1.58-.38.827-.587 1.12-1c.307-.413.533-.88.68-1.4.16-.533.24-1.073.24-1.62s-.08-1.08-.24-1.6c-.147-.533-.373-1.007-.68-1.42-.293-.413-.667-.747-1.12-1s-.98-.38-1.58-.38zm0-1.06c.787 0 1.48.147 2.08.44.613.293 1.127.687 1.54 1.18s.727 1.073.94 1.74c.213.653.32 1.353.32 2.1s-.107 1.453-.32 2.12c-.213.653-.527 1.227-.94 1.72s-.927.887-1.54 1.18c-.6.28-1.293.42-2.08.42s-1.487-.14-2.1-.42c-.6-.293-1.107-.687-1.52-1.18s-.727-1.067-.94-1.72c-.213-.667-.32-1.373-.32-2.12s.107-1.447.32-2.1c.213-.667.527-1.247.94-1.74s.92-.887 1.52-1.18c.613-.293 1.313-.44 2.1-.44zm5.713.3h1.34l2.64 8.84h.04l2.52-8.84h1.42l2.52 8.84h.04l2.64-8.84h1.34l-3.32 10.32h-1.38l-2.54-8.68h-.04l-2.52 8.68h-1.38zm23.284 4.44c-.013-.48-.1-.94-.26-1.38-.146-.44-.36-.827-.64-1.16-.28-.347-.62-.62-1.02-.82-.4-.213-.853-.32-1.36-.32-.52 0-.98.107-1.38.32-.4.2-.74.473-1.02.82-.28.333-.506.727-.68 1.18-.16.44-.266.893-.32 1.36zm-6.68 1.06c0 .453.06.927.18 1.42.134.48.34.913.62 1.3s.634.707 1.06.96c.427.253.94.38 1.54.38.92 0 1.64-.24 2.16-.72s.88-1.12 1.08-1.92h1.26c-.266 1.173-.76 2.08-1.48 2.72-.706.64-1.713.96-3.02.96-.813 0-1.52-.14-2.12-.42-.586-.293-1.066-.687-1.44-1.18-.373-.507-.653-1.087-.84-1.74-.173-.667-.26-1.367-.26-2.1 0-.68.087-1.347.26-2 .187-.653.467-1.233.84-1.74.374-.52.854-.933 1.44-1.24.6-.32 1.307-.48 2.12-.48.827 0 1.534.167 2.12.5.587.333 1.06.773 1.42 1.32.374.533.64 1.153.8 1.86.16.693.227 1.4.2 2.12zm9.632-5.5h1.16v2.42h.04c.32-.84.813-1.487 1.48-1.94.68-.453 1.486-.66 2.42-.62v1.26c-.574-.027-1.094.053-1.56.24-.467.173-.874.427-1.22.76-.334.333-.594.733-.78 1.2-.187.453-.28.953-.28 1.5v5.5h-1.26zm13.377 4.44c-.014-.48-.1-.94-.26-1.38-.147-.44-.36-.827-.64-1.16-.28-.347-.62-.62-1.02-.82-.4-.213-.854-.32-1.36-.32-.52 0-.98.107-1.38.32-.4.2-.74.473-1.02.82-.28.333-.507.727-.68 1.18-.16.44-.267.893-.32 1.36zm-6.68 1.06c0 .453.06.927.18 1.42.133.48.34.913.62 1.3s.633.707 1.06.96c.426.253.94.38 1.54.38.92 0 1.64-.24 2.16-.72s.88-1.12 1.08-1.92h1.26c-.267 1.173-.76 2.08-1.48 2.72-.707.64-1.714.96-3.02.96-.814 0-1.52-.14-2.12-.42-.587-.293-1.067-.687-1.44-1.18-.374-.507-.654-1.087-.84-1.74-.174-.667-.26-1.367-.26-2.1 0-.68.086-1.347.26-2 .186-.653.466-1.233.84-1.74.373-.52.853-.933 1.44-1.24.6-.32 1.306-.48 2.12-.48.826 0 1.533.167 2.12.5.586.333 1.06.773 1.42 1.32.373.533.64 1.153.8 1.86.16.693.226 1.4.2 2.12zm18.711 4.82h-1.16v-1.96h-.04c-.134.333-.334.64-.6.92-.254.28-.547.52-.88.72-.334.187-.694.333-1.08.44-.374.107-.747.16-1.12.16-.787 0-1.474-.14-2.06-.42-.574-.293-1.054-.687-1.44-1.18-.387-.507-.674-1.087-.86-1.74-.187-.667-.28-1.367-.28-2.1s.093-1.427.28-2.08c.186-.667.473-1.247.86-1.74.386-.507.866-.907 1.44-1.2.586-.293 1.273-.44 2.06-.44.386 0 .76.047 1.12.14.373.093.72.24 1.04.44.32.187.6.42.84.7.253.28.446.607.58.98h.04v-5.92h1.26zm-8.26-5.16c0 .533.06 1.067.18 1.6.133.52.333.987.6 1.4.28.413.633.753 1.06 1.02.426.253.94.38 1.54.38.666 0 1.226-.127 1.68-.38.466-.267.84-.607 1.12-1.02.293-.413.5-.88.62-1.4.133-.533.2-1.067.2-1.6s-.067-1.06-.2-1.58c-.12-.533-.327-1.007-.62-1.42-.28-.413-.654-.747-1.12-1-.454-.267-1.014-.4-1.68-.4-.6 0-1.114.133-1.54.4-.427.253-.78.587-1.06 1-.267.413-.467.887-.6 1.42-.12.52-.18 1.047-.18 1.58zm22.41-2.14c-.013-.387-.093-.72-.24-1-.146-.293-.346-.533-.6-.72-.24-.187-.52-.32-.84-.4-.32-.093-.66-.14-1.02-.14-.28 0-.566.033-.86.1-.28.053-.54.153-.78.3-.24.133-.433.313-.58.54-.146.227-.22.507-.22.84 0 .28.067.52.2.72.147.187.327.347.54.48.214.133.447.247.7.34.254.08.487.147.7.2l1.68.38c.36.053.714.153 1.06.3.36.133.674.313.94.54.28.227.507.507.68.84.174.333.26.727.26 1.18 0 .56-.126 1.04-.38 1.44-.253.387-.58.707-.98.96-.386.24-.826.413-1.32.52-.493.107-.98.16-1.46.16-1.213 0-2.2-.287-2.96-.86-.746-.573-1.173-1.493-1.28-2.76h1.26c.054.853.36 1.5.92 1.94.574.427 1.28.64 2.12.64.307 0 .62-.033.94-.1.334-.067.64-.18.92-.34s.507-.36.68-.6c.187-.253.28-.56.28-.92 0-.307-.066-.56-.2-.76-.12-.213-.286-.387-.5-.52-.213-.147-.46-.267-.74-.36-.266-.093-.54-.173-.82-.24l-1.62-.36c-.413-.107-.793-.227-1.14-.36-.346-.147-.653-.32-.92-.52-.253-.213-.453-.467-.6-.76-.146-.307-.22-.68-.22-1.12 0-.52.114-.967.34-1.34.24-.373.547-.673.92-.9.374-.227.787-.393 1.24-.5.467-.107.927-.16 1.38-.16.52 0 1 .067 1.44.2.454.133.847.34 1.18.62.347.28.62.627.82 1.04s.314.9.34 1.46zm7.809-2.26c-.6 0-1.126.127-1.58.38-.453.253-.833.587-1.14 1-.293.413-.52.887-.68 1.42-.146.52-.22 1.053-.22 1.6s.074 1.087.22 1.62c.16.52.387.987.68 1.4.307.413.687.747 1.14 1 .454.253.98.38 1.58.38s1.127-.127 1.58-.38c.454-.253.827-.587 1.12-1 .307-.413.534-.88.68-1.4.16-.533.24-1.073.24-1.62s-.08-1.08-.24-1.6c-.146-.533-.373-1.007-.68-1.42-.293-.413-.666-.747-1.12-1-.453-.253-.98-.38-1.58-.38zm0-1.06c.787 0 1.48.147 2.08.44.614.293 1.127.687 1.54 1.18.414.493.727 1.073.94 1.74.214.653.32 1.353.32 2.1s-.106 1.453-.32 2.12c-.213.653-.526 1.227-.94 1.72-.413.493-.926.887-1.54 1.18-.6.28-1.293.42-2.08.42-.786 0-1.486-.14-2.1-.42-.6-.293-1.106-.687-1.52-1.18-.413-.493-.726-1.067-.94-1.72-.213-.667-.32-1.373-.32-2.12s.107-1.447.32-2.1c.214-.667.527-1.247.94-1.74.414-.493.92-.887 1.52-1.18.614-.293 1.314-.44 2.1-.44zm14.034 3.54c-.174-.773-.494-1.38-.96-1.82-.467-.44-1.12-.66-1.96-.66-.6 0-1.127.127-1.58.38-.454.253-.834.587-1.14 1-.294.413-.52.887-.68 1.42-.147.52-.22 1.053-.22 1.6s.073 1.087.22 1.62c.16.52.386.987.68 1.4.306.413.686.747 1.14 1 .453.253.98.38 1.58.38.386 0 .753-.073 1.1-.22.346-.147.653-.347.92-.6.266-.267.486-.58.66-.94.173-.36.28-.753.32-1.18h1.26c-.174 1.253-.634 2.233-1.38 2.94-.747.693-1.707 1.04-2.88 1.04-.787 0-1.487-.14-2.1-.42-.6-.293-1.107-.687-1.52-1.18-.414-.493-.727-1.067-.94-1.72-.214-.667-.32-1.373-.32-2.12s.106-1.447.32-2.1c.213-.667.526-1.247.94-1.74.413-.493.92-.887 1.52-1.18.613-.293 1.313-.44 2.1-.44 1.106 0 2.04.293 2.8.88.773.587 1.233 1.473 1.38 2.66zm3.111-7.2h1.26v2.02h-1.26zm0 3.96h1.26v10.32h-1.26zm3.551 3.16c.04-.6.167-1.12.38-1.56s.5-.8.86-1.08c.373-.28.807-.487 1.3-.62s1.04-.2 1.64-.2c.453 0 .907.047 1.36.14.453.08.86.24 1.22.48s.653.58.88 1.02c.227.427.34.987.34 1.68v5.48c0 .507.247.76.74.76.147 0 .28-.027.4-.08v1.06c-.147.027-.28.047-.4.06-.107.013-.247.02-.42.02-.32 0-.58-.04-.78-.12-.187-.093-.333-.22-.44-.38s-.18-.347-.22-.56c-.027-.227-.04-.473-.04-.74h-.04c-.227.333-.46.633-.7.9-.227.253-.487.467-.78.64-.28.173-.607.307-.98.4-.36.093-.793.14-1.3.14-.48 0-.933-.06-1.36-.18-.413-.107-.78-.28-1.1-.52-.307-.253-.553-.567-.74-.94-.173-.387-.26-.84-.26-1.36 0-.72.16-1.28.48-1.68.32-.413.74-.727 1.26-.94.533-.213 1.127-.36 1.78-.44.667-.093 1.34-.18 2.02-.26.267-.027.5-.06.7-.1s.367-.107.5-.2c.133-.107.233-.247.3-.42.08-.173.12-.4.12-.68 0-.427-.073-.773-.22-1.04-.133-.28-.327-.5-.58-.66-.24-.16-.527-.267-.86-.32-.32-.067-.667-.1-1.04-.1-.8 0-1.453.193-1.96.58-.507.373-.773.98-.8 1.82zm6.72 1.52h-.04c-.08.147-.233.253-.46.32s-.427.113-.6.14c-.533.093-1.087.18-1.66.26-.56.067-1.073.173-1.54.32s-.853.36-1.16.64c-.293.267-.44.653-.44 1.16 0 .32.06.607.18.86.133.24.307.453.52.64.213.173.46.307.74.4s.567.14.86.14c.48 0 .94-.073 1.38-.22s.82-.36 1.14-.64c.333-.28.593-.62.78-1.02.2-.4.3-.853.3-1.36zm3.791-8.64h1.26v14.28h-1.26zm-169.4452 30.98c-.0134-.387-.0934-.72-.24-1-.1467-.293-.3467-.533-.6-.72-.24-.187-.52-.32-.84-.4-.32-.093-.66-.14-1.02-.14-.28 0-.5667.033-.86.1-.28.053-.54.153-.78.3-.24.133-.4334.313-.58.54-.1467.227-.22.507-.22.84 0 .28.0666.52.2.72.1466.187.3266.347.54.48.2133.133.4466.247.7.34.2533.08.4866.147.7.2l1.68.38c.36.053.7133.153 1.06.3.36.133.6733.313.94.54.28.227.5066.507.68.84.1733.333.26.727.26 1.18 0 .56-.1267 1.04-.38 1.44-.2534.387-.58.707-.98.96-.3867.24-.8267.413-1.32.52-.4934.107-.98.16-1.46.16-1.2134 0-2.2-.287-2.96-.86-.7467-.573-1.1734-1.493-1.28-2.76h1.26c.0533.853.36 1.5.92 1.94.5733.427 1.28.64 2.12.64.3066 0 .62-.033.94-.1.3333-.067.64-.18.92-.34s.5066-.36.68-.6c.1866-.253.28-.56.28-.92 0-.307-.0667-.56-.2-.76-.12-.213-.2867-.387-.5-.52-.2134-.147-.46-.267-.74-.36-.2667-.093-.54-.173-.82-.24l-1.62-.36c-.4134-.107-.7934-.227-1.14-.36-.3467-.147-.6534-.32-.92-.52-.2534-.213-.4534-.467-.6-.76-.1467-.307-.22-.68-.22-1.12 0-.52.1133-.967.34-1.34.24-.373.5466-.673.92-.9.3733-.227.7866-.393 1.24-.5.4666-.107.9266-.16 1.38-.16.52 0 1 .067 1.44.2.4533.133.8466.34 1.18.62.3466.28.62.627.82 1.04s.3133.9.34 1.46zm10.8689 1.42c-.0134-.48-.1-.94-.26-1.38-.1467-.44-.36-.827-.64-1.16-.28-.347-.62-.62-1.02-.82-.4-.213-.8534-.32-1.36-.32-.52 0-.98.107-1.38.32-.4.2-.74.473-1.02.82-.28.333-.5067.727-.68 1.18-.16.44-.2667.893-.32 1.36zm-6.68 1.06c0 .453.06.927.18 1.42.1333.48.34.913.62 1.3s.6333.707 1.06.96c.4266.253.94.38 1.54.38.92 0 1.64-.24 2.16-.72s.88-1.12 1.08-1.92h1.26c-.2667 1.173-.76 2.08-1.48 2.72-.7067.64-1.7134.96-3.02.96-.8134 0-1.52-.14-2.12-.42-.5867-.293-1.0667-.687-1.44-1.18-.3734-.507-.6534-1.087-.84-1.74-.1734-.667-.26-1.367-.26-2.1 0-.68.0866-1.347.26-2 .1866-.653.4666-1.233.84-1.74.3733-.52.8533-.933 1.44-1.24.6-.32 1.3066-.48 2.12-.48.8266 0 1.5333.167 2.12.5.5866.333 1.06.773 1.42 1.32.3733.533.64 1.153.8 1.86.16.693.2266 1.4.2 2.12zm9.6111-5.5h1.26v1.78h.04c.24-.627.6666-1.127 1.28-1.5.6133-.387 1.2866-.58 2.02-.58.72 0 1.32.093 1.8.28.4933.187.8866.453 1.18.8.2933.333.5.747.62 1.24s.18 1.047.18 1.66v6.64h-1.26v-6.44c0-.44-.04-.847-.12-1.22-.08-.387-.22-.72-.42-1s-.4734-.5-.82-.66c-.3334-.16-.7534-.24-1.26-.24-.5067 0-.96.093-1.36.28-.3867.173-.72.42-1 .74-.2667.307-.48.68-.64 1.12-.1467.427-.2267.893-.24 1.4v6.02h-1.26zm12.7622 0h2.1v1.06h-2.1v6.96c0 .413.053.74.16.98.12.227.407.353.86.38.36 0 .72-.02 1.08-.06v1.06c-.187 0-.373.007-.56.02s-.373.02-.56.02c-.84 0-1.427-.16-1.76-.48-.333-.333-.493-.94-.48-1.82v-7.06h-1.8v-1.06h1.8v-3.1h1.26zm3.938-3.96h1.26v2.02h-1.26zm0 3.96h1.26v10.32h-1.26zm3.671 0h1.16v1.74h.06c.334-.64.767-1.14 1.3-1.5.547-.36 1.24-.54 2.08-.54.68 0 1.294.167 1.84.5.56.333.934.84 1.12 1.52.307-.68.76-1.187 1.36-1.52s1.24-.5 1.92-.5c2.28 0 3.42 1.207 3.42 3.62v7h-1.26v-6.94c0-.853-.18-1.5-.54-1.94-.36-.453-.993-.68-1.9-.68-.546 0-1 .107-1.36.32-.36.2-.646.473-.86.82-.213.347-.366.747-.46 1.2-.08.44-.12.9-.12 1.38v5.84h-1.26v-7c0-.347-.04-.673-.12-.98-.066-.32-.186-.593-.36-.82-.16-.24-.38-.427-.66-.56s-.62-.2-1.02-.2c-.533 0-1 .1-1.4.3-.386.187-.706.453-.96.8-.24.333-.42.733-.54 1.2-.12.453-.18.953-.18 1.5v5.76h-1.26zm24.08 4.44c-.013-.48-.1-.94-.26-1.38-.146-.44-.36-.827-.64-1.16-.28-.347-.62-.62-1.02-.82-.4-.213-.853-.32-1.36-.32-.52 0-.98.107-1.38.32-.4.2-.74.473-1.02.82-.28.333-.506.727-.68 1.18-.16.44-.266.893-.32 1.36zm-6.68 1.06c0 .453.06.927.18 1.42.134.48.34.913.62 1.3s.634.707 1.06.96c.427.253.94.38 1.54.38.92 0 1.64-.24 2.16-.72s.88-1.12 1.08-1.92h1.26c-.266 1.173-.76 2.08-1.48 2.72-.706.64-1.713.96-3.02.96-.813 0-1.52-.14-2.12-.42-.586-.293-1.066-.687-1.44-1.18-.373-.507-.653-1.087-.84-1.74-.173-.667-.26-1.367-.26-2.1 0-.68.087-1.347.26-2 .187-.653.467-1.233.84-1.74.374-.52.854-.933 1.44-1.24.6-.32 1.307-.48 2.12-.48.827 0 1.534.167 2.12.5.587.333 1.06.773 1.42 1.32.374.533.64 1.153.8 1.86.16.693.227 1.4.2 2.12zm9.612-5.5h1.26v1.78h.04c.24-.627.666-1.127 1.28-1.5.613-.387 1.286-.58 2.02-.58.72 0 1.32.093 1.8.28.493.187.886.453 1.18.8.293.333.5.747.62 1.24s.18 1.047.18 1.66v6.64h-1.26v-6.44c0-.44-.04-.847-.12-1.22-.08-.387-.22-.72-.42-1s-.474-.5-.82-.66c-.334-.16-.754-.24-1.26-.24-.507 0-.96.093-1.36.28-.387.173-.72.42-1 .74-.267.307-.48.68-.64 1.12-.147.427-.227.893-.24 1.4v6.02h-1.26zm12.762 0h2.1v1.06h-2.1v6.96c0 .413.053.74.16.98.12.227.406.353.86.38.36 0 .72-.02 1.08-.06v1.06c-.187 0-.374.007-.56.02-.187.013-.374.02-.56.02-.84 0-1.427-.16-1.76-.48-.334-.333-.494-.94-.48-1.82v-7.06h-1.8v-1.06h1.8v-3.1h1.26zm15.664 3.02c-.013-.387-.093-.72-.24-1-.147-.293-.347-.533-.6-.72-.24-.187-.52-.32-.84-.4-.32-.093-.66-.14-1.02-.14-.28 0-.567.033-.86.1-.28.053-.54.153-.78.3-.24.133-.433.313-.58.54s-.22.507-.22.84c0 .28.067.52.2.72.147.187.327.347.54.48s.447.247.7.34c.253.08.487.147.7.2l1.68.38c.36.053.713.153 1.06.3.36.133.673.313.94.54.28.227.507.507.68.84s.26.727.26 1.18c0 .56-.127 1.04-.38 1.44-.253.387-.58.707-.98.96-.387.24-.827.413-1.32.52s-.98.16-1.46.16c-1.213 0-2.2-.287-2.96-.86-.747-.573-1.173-1.493-1.28-2.76h1.26c.053.853.36 1.5.92 1.94.573.427 1.28.64 2.12.64.307 0 .62-.033.94-.1.333-.067.64-.18.92-.34s.507-.36.68-.6c.187-.253.28-.56.28-.92 0-.307-.067-.56-.2-.76-.12-.213-.287-.387-.5-.52-.213-.147-.46-.267-.74-.36-.267-.093-.54-.173-.82-.24l-1.62-.36c-.413-.107-.793-.227-1.14-.36-.347-.147-.653-.32-.92-.52-.253-.213-.453-.467-.6-.76-.147-.307-.22-.68-.22-1.12 0-.52.113-.967.34-1.34.24-.373.547-.673.92-.9s.787-.393 1.24-.5c.467-.107.927-.16 1.38-.16.52 0 1 .067 1.44.2.453.133.847.34 1.18.62.347.28.62.627.82 1.04s.313.9.34 1.46zm10.729.22c-.173-.773-.493-1.38-.96-1.82s-1.12-.66-1.96-.66c-.6 0-1.127.127-1.58.38s-.833.587-1.14 1c-.293.413-.52.887-.68 1.42-.147.52-.22 1.053-.22 1.6s.073 1.087.22 1.62c.16.52.387.987.68 1.4.307.413.687.747 1.14 1s.98.38 1.58.38c.387 0 .753-.073 1.1-.22s.653-.347.92-.6c.267-.267.487-.58.66-.94s.28-.753.32-1.18h1.26c-.173 1.253-.633 2.233-1.38 2.94-.747.693-1.707 1.04-2.88 1.04-.787 0-1.487-.14-2.1-.42-.6-.293-1.107-.687-1.52-1.18s-.727-1.067-.94-1.72c-.213-.667-.32-1.373-.32-2.12s.107-1.447.32-2.1c.213-.667.527-1.247.94-1.74s.92-.887 1.52-1.18c.613-.293 1.313-.44 2.1-.44 1.107 0 2.04.293 2.8.88.773.587 1.233 1.473 1.38 2.66zm7.451-2.48c-.6 0-1.127.127-1.58.38s-.833.587-1.14 1c-.293.413-.52.887-.68 1.42-.147.52-.22 1.053-.22 1.6s.073 1.087.22 1.62c.16.52.387.987.68 1.4.307.413.687.747 1.14 1s.98.38 1.58.38 1.127-.127 1.58-.38.827-.587 1.12-1c.307-.413.533-.88.68-1.4.16-.533.24-1.073.24-1.62s-.08-1.08-.24-1.6c-.147-.533-.373-1.007-.68-1.42-.293-.413-.667-.747-1.12-1s-.98-.38-1.58-.38zm0-1.06c.787 0 1.48.147 2.08.44.613.293 1.127.687 1.54 1.18s.727 1.073.94 1.74c.213.653.32 1.353.32 2.1s-.107 1.453-.32 2.12c-.213.653-.527 1.227-.94 1.72s-.927.887-1.54 1.18c-.6.28-1.293.42-2.08.42s-1.487-.14-2.1-.42c-.6-.293-1.107-.687-1.52-1.18s-.727-1.067-.94-1.72c-.213-.667-.32-1.373-.32-2.12s.107-1.447.32-2.1c.213-.667.527-1.247.94-1.74s.92-.887 1.52-1.18c.613-.293 1.313-.44 2.1-.44zm6.753.3h1.16v2.42h.04c.32-.84.814-1.487 1.48-1.94.68-.453 1.487-.66 2.42-.62v1.26c-.573-.027-1.093.053-1.56.24-.466.173-.873.427-1.22.76-.333.333-.593.733-.78 1.2-.186.453-.28.953-.28 1.5v5.5h-1.26zm13.377 4.44c-.013-.48-.1-.94-.26-1.38-.146-.44-.36-.827-.64-1.16-.28-.347-.62-.62-1.02-.82-.4-.213-.853-.32-1.36-.32-.52 0-.98.107-1.38.32-.4.2-.74.473-1.02.82-.28.333-.506.727-.68 1.18-.16.44-.266.893-.32 1.36zm-6.68 1.06c0 .453.06.927.18 1.42.134.48.34.913.62 1.3s.634.707 1.06.96c.427.253.94.38 1.54.38.92 0 1.64-.24 2.16-.72s.88-1.12 1.08-1.92h1.26c-.266 1.173-.76 2.08-1.48 2.72-.706.64-1.713.96-3.02.96-.813 0-1.52-.14-2.12-.42-.586-.293-1.066-.687-1.44-1.18-.373-.507-.653-1.087-.84-1.74-.173-.667-.26-1.367-.26-2.1 0-.68.087-1.347.26-2 .187-.653.467-1.233.84-1.74.374-.52.854-.933 1.44-1.24.6-.32 1.307-.48 2.12-.48.827 0 1.534.167 2.12.5.587.333 1.06.773 1.42 1.32.374.533.64 1.153.8 1.86.16.693.227 1.4.2 2.12zm15.812-2.48c-.014-.387-.094-.72-.24-1-.147-.293-.347-.533-.6-.72-.24-.187-.52-.32-.84-.4-.32-.093-.66-.14-1.02-.14-.28 0-.567.033-.86.1-.28.053-.54.153-.78.3-.24.133-.434.313-.58.54-.147.227-.22.507-.22.84 0 .28.066.52.2.72.146.187.326.347.54.48.213.133.446.247.7.34.253.08.486.147.7.2l1.68.38c.36.053.713.153 1.06.3.36.133.673.313.94.54.28.227.506.507.68.84.173.333.26.727.26 1.18 0 .56-.127 1.04-.38 1.44-.254.387-.58.707-.98.96-.387.24-.827.413-1.32.52-.494.107-.98.16-1.46.16-1.214 0-2.2-.287-2.96-.86-.747-.573-1.174-1.493-1.28-2.76h1.26c.053.853.36 1.5.92 1.94.573.427 1.28.64 2.12.64.306 0 .62-.033.94-.1.333-.067.64-.18.92-.34s.506-.36.68-.6c.186-.253.28-.56.28-.92 0-.307-.067-.56-.2-.76-.12-.213-.287-.387-.5-.52-.214-.147-.46-.267-.74-.36-.267-.093-.54-.173-.82-.24l-1.62-.36c-.414-.107-.794-.227-1.14-.36-.347-.147-.654-.32-.92-.52-.254-.213-.454-.467-.6-.76-.147-.307-.22-.68-.22-1.12 0-.52.113-.967.34-1.34.24-.373.546-.673.92-.9.373-.227.786-.393 1.24-.5.466-.107.926-.16 1.38-.16.52 0 1 .067 1.44.2.453.133.846.34 1.18.62.346.28.62.627.82 1.04s.313.9.34 1.46zm16.295.22c-.173-.773-.493-1.38-.96-1.82s-1.12-.66-1.96-.66c-.6 0-1.127.127-1.58.38s-.833.587-1.14 1c-.293.413-.52.887-.68 1.42-.147.52-.22 1.053-.22 1.6s.073 1.087.22 1.62c.16.52.387.987.68 1.4.307.413.687.747 1.14 1s.98.38 1.58.38c.387 0 .753-.073 1.1-.22s.653-.347.92-.6c.267-.267.487-.58.66-.94s.28-.753.32-1.18h1.26c-.173 1.253-.633 2.233-1.38 2.94-.747.693-1.707 1.04-2.88 1.04-.787 0-1.487-.14-2.1-.42-.6-.293-1.107-.687-1.52-1.18s-.727-1.067-.94-1.72c-.213-.667-.32-1.373-.32-2.12s.107-1.447.32-2.1c.213-.667.527-1.247.94-1.74s.92-.887 1.52-1.18c.613-.293 1.313-.44 2.1-.44 1.107 0 2.04.293 2.8.88.773.587 1.233 1.473 1.38 2.66zm2.971-.08c.04-.6.167-1.12.38-1.56s.5-.8.86-1.08c.373-.28.807-.487 1.3-.62s1.04-.2 1.64-.2c.453 0 .907.047 1.36.14.453.08.86.24 1.22.48s.653.58.88 1.02c.227.427.34.987.34 1.68v5.48c0 .507.247.76.74.76.147 0 .28-.027.4-.08v1.06c-.147.027-.28.047-.4.06-.107.013-.247.02-.42.02-.32 0-.58-.04-.78-.12-.187-.093-.333-.22-.44-.38s-.18-.347-.22-.56c-.027-.227-.04-.473-.04-.74h-.04c-.227.333-.46.633-.7.9-.227.253-.487.467-.78.64-.28.173-.607.307-.98.4-.36.093-.793.14-1.3.14-.48 0-.933-.06-1.36-.18-.413-.107-.78-.28-1.1-.52-.307-.253-.553-.567-.74-.94-.173-.387-.26-.84-.26-1.36 0-.72.16-1.28.48-1.68.32-.413.74-.727 1.26-.94.533-.213 1.127-.36 1.78-.44.667-.093 1.34-.18 2.02-.26.267-.027.5-.06.7-.1s.367-.107.5-.2c.133-.107.233-.247.3-.42.08-.173.12-.4.12-.68 0-.427-.073-.773-.22-1.04-.133-.28-.327-.5-.58-.66-.24-.16-.527-.267-.86-.32-.32-.067-.667-.1-1.04-.1-.8 0-1.453.193-1.96.58-.507.373-.773.98-.8 1.82zm6.72 1.52h-.04c-.08.147-.233.253-.46.32s-.427.113-.6.14c-.533.093-1.087.18-1.66.26-.56.067-1.073.173-1.54.32s-.853.36-1.16.64c-.293.267-.44.653-.44 1.16 0 .32.06.607.18.86.133.24.307.453.52.64.213.173.46.307.74.4s.567.14.86.14c.48 0 .94-.073 1.38-.22s.82-.36 1.14-.64c.333-.28.593-.62.78-1.02.2-.4.3-.853.3-1.36zm3.751-4.68h1.26v1.78h.04c.24-.627.667-1.127 1.28-1.5.613-.387 1.287-.58 2.02-.58.72 0 1.32.093 1.8.28.493.187.887.453 1.18.8.293.333.5.747.62 1.24s.18 1.047.18 1.66v6.64h-1.26v-6.44c0-.44-.04-.847-.12-1.22-.08-.387-.22-.72-.42-1s-.473-.5-.82-.66c-.333-.16-.753-.24-1.26-.24s-.96.093-1.36.28c-.387.173-.72.42-1 .74-.267.307-.48.68-.64 1.12-.147.427-.227.893-.24 1.4v6.02h-1.26zm-162.4214 24h1.16v1.96h.04c.2934-.72.7667-1.273 1.42-1.66.6667-.4 1.42-.6 2.26-.6.7867 0 1.4667.147 2.04.44.5867.293 1.0734.693 1.46 1.2.3867.493.6734 1.073.86 1.74.1867.653.28 1.347.28 2.08s-.0933 1.433-.28 2.1c-.1866.653-.4733 1.233-.86 1.74-.3866.493-.8733.887-1.46 1.18-.5733.28-1.2533.42-2.04.42-.3733 0-.7466-.047-1.12-.14-.3733-.093-.72-.233-1.04-.42s-.6066-.42-.86-.7c-.24-.28-.4266-.607-.56-.98h-.04v5.76h-1.26zm8.26 5.16c0-.533-.0666-1.06-.2-1.58-.12-.533-.32-1.007-.6-1.42-.2666-.413-.6133-.747-1.04-1-.4266-.267-.94-.4-1.54-.4-.6933 0-1.2733.12-1.74.36-.4666.24-.84.56-1.12.96s-.48.867-.6 1.4c-.1066.533-.16 1.093-.16 1.68 0 .533.06 1.067.18 1.6.1334.52.34.987.62 1.4.2934.413.6667.753 1.12 1.02.4667.253 1.0334.38 1.7.38.6 0 1.1134-.127 1.54-.38.4267-.267.7734-.607 1.04-1.02.28-.413.48-.88.6-1.4.1334-.533.2-1.067.2-1.6zm3.2244-5.16h1.16v2.42h.04c.32-.84.8133-1.487 1.48-1.94.68-.453 1.4867-.66 2.42-.62v1.26c-.5733-.027-1.0933.053-1.56.24-.4667.173-.8733.427-1.22.76-.3333.333-.5933.733-.78 1.2-.1867.453-.28.953-.28 1.5v5.5h-1.26zm10.317.76c-.6 0-1.127.127-1.58.38-.4533.253-.8333.587-1.14 1-.2933.413-.52.887-.68 1.42-.1466.52-.22 1.053-.22 1.6s.0734 1.087.22 1.62c.16.52.3867.987.68 1.4.3067.413.6867.747 1.14 1 .453.253.98.38 1.58.38s1.127-.127 1.58-.38.827-.587 1.12-1c.307-.413.533-.88.68-1.4.16-.533.24-1.073.24-1.62s-.08-1.08-.24-1.6c-.147-.533-.373-1.007-.68-1.42-.293-.413-.667-.747-1.12-1s-.98-.38-1.58-.38zm0-1.06c.787 0 1.48.147 2.08.44.613.293 1.127.687 1.54 1.18s.727 1.073.94 1.74c.213.653.32 1.353.32 2.1s-.107 1.453-.32 2.12c-.213.653-.527 1.227-.94 1.72s-.927.887-1.54 1.18c-.6.28-1.293.42-2.08.42s-1.4866-.14-2.1-.42c-.6-.293-1.1066-.687-1.52-1.18-.4133-.493-.7266-1.067-.94-1.72-.2133-.667-.32-1.373-.32-2.12s.1067-1.447.32-2.1c.2134-.667.5267-1.247.94-1.74.4134-.493.92-.887 1.52-1.18.6134-.293 1.313-.44 2.1-.44zm5.593.3h1.4l3.24 9.06h.04l3.2-9.06h1.3l-3.86 10.32h-1.34zm10.438-3.96h1.26v2.02h-1.26zm0 3.96h1.26v10.32h-1.26zm12.752 10.32h-1.16v-1.96h-.04c-.134.333-.334.64-.6.92-.254.28-.547.52-.88.72-.334.187-.694.333-1.08.44-.374.107-.747.16-1.12.16-.787 0-1.474-.14-2.06-.42-.574-.293-1.054-.687-1.44-1.18-.387-.507-.674-1.087-.86-1.74-.187-.667-.28-1.367-.28-2.1s.093-1.427.28-2.08c.186-.667.473-1.247.86-1.74.386-.507.866-.907 1.44-1.2.586-.293 1.273-.44 2.06-.44.386 0 .76.047 1.12.14.373.093.72.24 1.04.44.32.187.6.42.84.7.253.28.446.607.58.98h.04v-5.92h1.26zm-8.26-5.16c0 .533.06 1.067.18 1.6.133.52.333.987.6 1.4.28.413.633.753 1.06 1.02.426.253.94.38 1.54.38.666 0 1.226-.127 1.68-.38.466-.267.84-.607 1.12-1.02.293-.413.5-.88.62-1.4.133-.533.2-1.067.2-1.6s-.067-1.06-.2-1.58c-.12-.533-.327-1.007-.62-1.42-.28-.413-.654-.747-1.12-1-.454-.267-1.014-.4-1.68-.4-.6 0-1.114.133-1.54.4-.427.253-.78.587-1.06 1-.267.413-.467.887-.6 1.42-.12.52-.18 1.047-.18 1.58zm18.084-.72c-.013-.48-.1-.94-.26-1.38-.147-.44-.36-.827-.64-1.16-.28-.347-.62-.62-1.02-.82-.4-.213-.853-.32-1.36-.32-.52 0-.98.107-1.38.32-.4.2-.74.473-1.02.82-.28.333-.507.727-.68 1.18-.16.44-.267.893-.32 1.36zm-6.68 1.06c0 .453.06.927.18 1.42.133.48.34.913.62 1.3s.633.707 1.06.96.94.38 1.54.38c.92 0 1.64-.24 2.16-.72s.88-1.12 1.08-1.92h1.26c-.267 1.173-.76 2.08-1.48 2.72-.707.64-1.713.96-3.02.96-.813 0-1.52-.14-2.12-.42-.587-.293-1.067-.687-1.44-1.18-.373-.507-.653-1.087-.84-1.74-.173-.667-.26-1.367-.26-2.1 0-.68.087-1.347.26-2 .187-.653.467-1.233.84-1.74.373-.52.853-.933 1.44-1.24.6-.32 1.307-.48 2.12-.48.827 0 1.533.167 2.12.5s1.06.773 1.42 1.32c.373.533.64 1.153.8 1.86.16.693.227 1.4.2 2.12zm15.077-2.34c.04-.6.167-1.12.38-1.56.214-.44.5-.8.86-1.08.374-.28.807-.487 1.3-.62.494-.133 1.04-.2 1.64-.2.454 0 .907.047 1.36.14.454.08.86.24 1.22.48s.654.58.88 1.02c.227.427.34.987.34 1.68v5.48c0 .507.247.76.74.76.147 0 .28-.027.4-.08v1.06c-.146.027-.28.047-.4.06-.106.013-.246.02-.42.02-.32 0-.58-.04-.78-.12-.186-.093-.333-.22-.44-.38-.106-.16-.18-.347-.22-.56-.026-.227-.04-.473-.04-.74h-.04c-.226.333-.46.633-.7.9-.226.253-.486.467-.78.64-.28.173-.606.307-.98.4-.36.093-.793.14-1.3.14-.48 0-.933-.06-1.36-.18-.413-.107-.78-.28-1.1-.52-.306-.253-.553-.567-.74-.94-.173-.387-.26-.84-.26-1.36 0-.72.16-1.28.48-1.68.32-.413.74-.727 1.26-.94.534-.213 1.127-.36 1.78-.44.667-.093 1.34-.18 2.02-.26.267-.027.5-.06.7-.1s.367-.107.5-.2c.134-.107.234-.247.3-.42.08-.173.12-.4.12-.68 0-.427-.073-.773-.22-1.04-.133-.28-.326-.5-.58-.66-.24-.16-.526-.267-.86-.32-.32-.067-.666-.1-1.04-.1-.8 0-1.453.193-1.96.58-.506.373-.773.98-.8 1.82zm6.72 1.52h-.04c-.08.147-.233.253-.46.32-.226.067-.426.113-.6.14-.533.093-1.086.18-1.66.26-.56.067-1.073.173-1.54.32-.466.147-.853.36-1.16.64-.293.267-.44.653-.44 1.16 0 .32.06.607.18.86.134.24.307.453.52.64.214.173.46.307.74.4s.567.14.86.14c.48 0 .94-.073 1.38-.22s.82-.36 1.14-.64c.334-.28.594-.62.78-1.02.2-.4.3-.853.3-1.36zm13.698-3.92c-.6 0-1.127.127-1.58.38s-.833.587-1.14 1c-.293.413-.52.887-.68 1.42-.147.52-.22 1.053-.22 1.6s.073 1.087.22 1.62c.16.52.387.987.68 1.4.307.413.687.747 1.14 1s.98.38 1.58.38 1.127-.127 1.58-.38.827-.587 1.12-1c.307-.413.533-.88.68-1.4.16-.533.24-1.073.24-1.62s-.08-1.08-.24-1.6c-.147-.533-.373-1.007-.68-1.42-.293-.413-.667-.747-1.12-1s-.98-.38-1.58-.38zm0-1.06c.787 0 1.48.147 2.08.44.613.293 1.127.687 1.54 1.18s.727 1.073.94 1.74c.213.653.32 1.353.32 2.1s-.107 1.453-.32 2.12c-.213.653-.527 1.227-.94 1.72s-.927.887-1.54 1.18c-.6.28-1.293.42-2.08.42s-1.487-.14-2.1-.42c-.6-.293-1.107-.687-1.52-1.18s-.727-1.067-.94-1.72c-.213-.667-.32-1.373-.32-2.12s.107-1.447.32-2.1c.213-.667.527-1.247.94-1.74s.92-.887 1.52-1.18c.613-.293 1.313-.44 2.1-.44zm6.733.3h1.26v1.78h.04c.24-.627.667-1.127 1.28-1.5.614-.387 1.287-.58 2.02-.58.72 0 1.32.093 1.8.28.494.187.887.453 1.18.8.294.333.5.747.62 1.24s.18 1.047.18 1.66v6.64h-1.26v-6.44c0-.44-.04-.847-.12-1.22-.08-.387-.22-.72-.42-1s-.473-.5-.82-.66c-.333-.16-.753-.24-1.26-.24-.506 0-.96.093-1.36.28-.386.173-.72.42-1 .74-.266.307-.48.68-.64 1.12-.146.427-.226.893-.24 1.4v6.02h-1.26zm18.182 4.44c-.013-.48-.1-.94-.26-1.38-.146-.44-.36-.827-.64-1.16-.28-.347-.62-.62-1.02-.82-.4-.213-.853-.32-1.36-.32-.52 0-.98.107-1.38.32-.4.2-.74.473-1.02.82-.28.333-.506.727-.68 1.18-.16.44-.266.893-.32 1.36zm-6.68 1.06c0 .453.06.927.18 1.42.134.48.34.913.62 1.3s.634.707 1.06.96c.427.253.94.38 1.54.38.92 0 1.64-.24 2.16-.72s.88-1.12 1.08-1.92h1.26c-.266 1.173-.76 2.08-1.48 2.72-.706.64-1.713.96-3.02.96-.813 0-1.52-.14-2.12-.42-.586-.293-1.066-.687-1.44-1.18-.373-.507-.653-1.087-.84-1.74-.173-.667-.26-1.367-.26-2.1 0-.68.087-1.347.26-2 .187-.653.467-1.233.84-1.74.374-.52.854-.933 1.44-1.24.6-.32 1.307-.48 2.12-.48.827 0 1.534.167 2.12.5.587.333 1.06.773 1.42 1.32.374.533.64 1.153.8 1.86.16.693.227 1.4.2 2.12zm9.631-.1v-1.16h5v1.16zm13.583-2.38c-.014-.387-.094-.72-.24-1-.147-.293-.347-.533-.6-.72-.24-.187-.52-.32-.84-.4-.32-.093-.66-.14-1.02-.14-.28 0-.567.033-.86.1-.28.053-.54.153-.78.3-.24.133-.434.313-.58.54-.147.227-.22.507-.22.84 0 .28.066.52.2.72.146.187.326.347.54.48.213.133.446.247.7.34.253.08.486.147.7.2l1.68.38c.36.053.713.153 1.06.3.36.133.673.313.94.54.28.227.506.507.68.84.173.333.26.727.26 1.18 0 .56-.127 1.04-.38 1.44-.254.387-.58.707-.98.96-.387.24-.827.413-1.32.52-.494.107-.98.16-1.46.16-1.214 0-2.2-.287-2.96-.86-.747-.573-1.174-1.493-1.28-2.76h1.26c.053.853.36 1.5.92 1.94.573.427 1.28.64 2.12.64.306 0 .62-.033.94-.1.333-.067.64-.18.92-.34s.506-.36.68-.6c.186-.253.28-.56.28-.92 0-.307-.067-.56-.2-.76-.12-.213-.287-.387-.5-.52-.214-.147-.46-.267-.74-.36-.267-.093-.54-.173-.82-.24l-1.62-.36c-.414-.107-.794-.227-1.14-.36-.347-.147-.654-.32-.92-.52-.254-.213-.454-.467-.6-.76-.147-.307-.22-.68-.22-1.12 0-.52.113-.967.34-1.34.24-.373.546-.673.92-.9.373-.227.786-.393 1.24-.5.466-.107.926-.16 1.38-.16.52 0 1 .067 1.44.2.453.133.846.34 1.18.62.346.28.62.627.82 1.04s.313.9.34 1.46zm5.449-3.02h2.1v1.06h-2.1v6.96c0 .413.053.74.16.98.12.227.406.353.86.38.36 0 .72-.02 1.08-.06v1.06c-.187 0-.374.007-.56.02-.187.013-.374.02-.56.02-.84 0-1.427-.16-1.76-.48-.334-.333-.494-.94-.48-1.82v-7.06h-1.8v-1.06h1.8v-3.1h1.26zm8.278.76c-.6 0-1.127.127-1.58.38-.454.253-.834.587-1.14 1-.294.413-.52.887-.68 1.42-.147.52-.22 1.053-.22 1.6s.073 1.087.22 1.62c.16.52.386.987.68 1.4.306.413.686.747 1.14 1 .453.253.98.38 1.58.38s1.126-.127 1.58-.38c.453-.253.826-.587 1.12-1 .306-.413.533-.88.68-1.4.16-.533.24-1.073.24-1.62s-.08-1.08-.24-1.6c-.147-.533-.374-1.007-.68-1.42-.294-.413-.667-.747-1.12-1-.454-.253-.98-.38-1.58-.38zm0-1.06c.786 0 1.48.147 2.08.44.613.293 1.126.687 1.54 1.18.413.493.726 1.073.94 1.74.213.653.32 1.353.32 2.1s-.107 1.453-.32 2.12c-.214.653-.527 1.227-.94 1.72-.414.493-.927.887-1.54 1.18-.6.28-1.294.42-2.08.42-.787 0-1.487-.14-2.1-.42-.6-.293-1.107-.687-1.52-1.18-.414-.493-.727-1.067-.94-1.72-.214-.667-.32-1.373-.32-2.12s.106-1.447.32-2.1c.213-.667.526-1.247.94-1.74.413-.493.92-.887 1.52-1.18.613-.293 1.313-.44 2.1-.44zm6.753.3h1.16v1.96h.04c.293-.72.767-1.273 1.42-1.66.667-.4 1.42-.6 2.26-.6.787 0 1.467.147 2.04.44.587.293 1.073.693 1.46 1.2.387.493.673 1.073.86 1.74.187.653.28 1.347.28 2.08s-.093 1.433-.28 2.1c-.187.653-.473 1.233-.86 1.74-.387.493-.873.887-1.46 1.18-.573.28-1.253.42-2.04.42-.373 0-.747-.047-1.12-.14s-.72-.233-1.04-.42-.607-.42-.86-.7c-.24-.28-.427-.607-.56-.98h-.04v5.76h-1.26zm8.26 5.16c0-.533-.067-1.06-.2-1.58-.12-.533-.32-1.007-.6-1.42-.267-.413-.613-.747-1.04-1-.427-.267-.94-.4-1.54-.4-.693 0-1.273.12-1.74.36s-.84.56-1.12.96-.48.867-.6 1.4c-.107.533-.16 1.093-.16 1.68 0 .533.06 1.067.18 1.6.133.52.34.987.62 1.4.293.413.667.753 1.12 1.02.467.253 1.033.38 1.7.38.6 0 1.113-.127 1.54-.38.427-.267.773-.607 1.04-1.02.28-.413.48-.88.6-1.4.133-.533.2-1.067.2-1.6zm-183.7695 21.86c-.0133-.387-.0933-.72-.24-1-.1466-.293-.3466-.533-.6-.72-.24-.187-.52-.32-.84-.4-.32-.093-.66-.14-1.02-.14-.28 0-.5666.033-.86.1-.28.053-.54.153-.78.3-.24.133-.4333.313-.58.54-.1466.227-.22.507-.22.84 0 .28.0667.52.2.72.1467.187.3267.347.54.48.2134.133.4467.247.7.34.2534.08.4867.147.7.2l1.68.38c.36.053.7134.153 1.06.3.36.133.6734.313.94.54.28.227.5067.507.68.84.1734.333.26.727.26 1.18 0 .56-.1266 1.04-.38 1.44-.2533.387-.58.707-.98.96-.3866.24-.8266.413-1.32.52-.4933.107-.98.16-1.46.16-1.2133 0-2.2-.287-2.96-.86-.7466-.573-1.1733-1.493-1.28-2.76h1.26c.0534.853.36 1.5.92 1.94.5734.427 1.28.64 2.12.64.3067 0 .62-.033.94-.1.3334-.067.64-.18.92-.34s.5067-.36.68-.6c.1867-.253.28-.56.28-.92 0-.307-.0666-.56-.2-.76-.12-.213-.2866-.387-.5-.52-.2133-.147-.46-.267-.74-.36-.2666-.093-.54-.173-.82-.24l-1.62-.36c-.4133-.107-.7933-.227-1.14-.36-.3466-.147-.6533-.32-.92-.52-.2533-.213-.4533-.467-.6-.76-.1466-.307-.22-.68-.22-1.12 0-.52.1134-.967.34-1.34.24-.373.5467-.673.92-.9.3734-.227.7867-.393 1.24-.5.4667-.107.9267-.16 1.38-.16.52 0 1 .067 1.44.2.4534.133.8467.34 1.18.62.3467.28.62.627.82 1.04s.3134.9.34 1.46zm7.8089-2.26c-.6 0-1.1266.127-1.58.38-.4533.253-.8333.587-1.14 1-.2933.413-.52.887-.68 1.42-.1466.52-.22 1.053-.22 1.6s.0734 1.087.22 1.62c.16.52.3867.987.68 1.4.3067.413.6867.747 1.14 1 .4534.253.98.38 1.58.38s1.1267-.127 1.58-.38c.4534-.253.8267-.587 1.12-1 .3067-.413.5334-.88.68-1.4.16-.533.24-1.073.24-1.62s-.08-1.08-.24-1.6c-.1466-.533-.3733-1.007-.68-1.42-.2933-.413-.6666-.747-1.12-1-.4533-.253-.98-.38-1.58-.38zm0-1.06c.7867 0 1.48.147 2.08.44.6134.293 1.1267.687 1.54 1.18.4134.493.7267 1.073.94 1.74.2134.653.32 1.353.32 2.1s-.1066 1.453-.32 2.12c-.2133.653-.5266 1.227-.94 1.72-.4133.493-.9266.887-1.54 1.18-.6.28-1.2933.42-2.08.42-.7866 0-1.4866-.14-2.1-.42-.6-.293-1.1066-.687-1.52-1.18-.4133-.493-.7266-1.067-.94-1.72-.2133-.667-.32-1.373-.32-2.12s.1067-1.447.32-2.1c.2134-.667.5267-1.247.94-1.74.4134-.493.92-.887 1.52-1.18.6134-.293 1.3134-.44 2.1-.44zm6.7733-3.66h1.26v14.28h-1.26zm12.0314 14.28h-1.16v-1.86h-.04c-.3333.693-.82 1.227-1.46 1.6-.6266.36-1.3266.54-2.1.54-.6533 0-1.2133-.093-1.68-.28-.4533-.173-.8266-.427-1.12-.76-.28-.333-.4866-.74-.62-1.22-.1333-.48-.2-1.027-.2-1.64v-6.7h1.26v6.72c.0267.933.24 1.64.64 2.12.4134.48 1.12.72 2.12.72.5467 0 1.0134-.113 1.4-.34.3867-.24.7067-.553.96-.94.2534-.387.44-.827.56-1.32.12-.507.18-1.02.18-1.54v-5.42h1.26zm4.3822-10.32h2.1v1.06h-2.1v6.96c0 .413.0533.74.16.98.12.227.4067.353.86.38.36 0 .72-.02 1.08-.06v1.06c-.1867 0-.3733.007-.56.02s-.3733.02-.56.02c-.84 0-1.4267-.16-1.76-.48-.3333-.333-.4933-.94-.48-1.82v-7.06h-1.8v-1.06h1.8v-3.1h1.26zm3.938-3.96h1.26v2.02h-1.26zm0 3.96h1.26v10.32h-1.26zm8.0314.76c-.6 0-1.1267.127-1.58.38s-.8333.587-1.14 1c-.2933.413-.52.887-.68 1.42-.1467.52-.22 1.053-.22 1.6s.0733 1.087.22 1.62c.16.52.3867.987.68 1.4.3067.413.6867.747 1.14 1s.98.38 1.58.38 1.1267-.127 1.58-.38.8263-.587 1.1203-1c.306-.413.533-.88.68-1.4.16-.533.24-1.073.24-1.62s-.08-1.08-.24-1.6c-.147-.533-.374-1.007-.68-1.42-.294-.413-.667-.747-1.1203-1s-.98-.38-1.58-.38zm0-1.06c.7867 0 1.48.147 2.0803.44.613.293 1.126.687 1.54 1.18.413.493.726 1.073.94 1.74.213.653.32 1.353.32 2.1s-.107 1.453-.32 2.12c-.214.653-.527 1.227-.94 1.72-.414.493-.927.887-1.54 1.18-.6003.28-1.2936.42-2.0803.42s-1.4867-.14-2.1-.42c-.6-.293-1.1067-.687-1.52-1.18s-.7267-1.067-.94-1.72c-.2133-.667-.32-1.373-.32-2.12s.1067-1.447.32-2.1c.2133-.667.5267-1.247.94-1.74s.92-.887 1.52-1.18c.6133-.293 1.3133-.44 2.1-.44zm6.7333.3h1.26v1.78h.04c.24-.627.667-1.127 1.28-1.5.613-.387 1.287-.58 2.02-.58.72 0 1.32.093 1.8.28.493.187.887.453 1.18.8.293.333.5.747.62 1.24s.18 1.047.18 1.66v6.64h-1.26v-6.44c0-.44-.04-.847-.12-1.22-.08-.387-.22-.72-.42-1s-.473-.5-.82-.66c-.333-.16-.753-.24-1.26-.24s-.96.093-1.36.28c-.387.173-.72.42-1 .74-.267.307-.48.68-.64 1.12-.147.427-.227.893-.24 1.4v6.02h-1.26zm20.309 1.06h-2.04v9.26h-1.26v-9.26h-1.76v-1.06h1.76v-.94c0-.44.033-.847.1-1.22.066-.373.193-.693.38-.96.186-.267.44-.473.76-.62.333-.147.753-.22 1.26-.22.186 0 .36.007.52.02s.34.033.54.06v1.08c-.174-.027-.334-.047-.48-.06-.147-.027-.294-.04-.44-.04-.347 0-.614.053-.8.16-.187.107-.327.253-.42.44-.08.173-.127.38-.14.62-.014.24-.02.5-.02.78v.9h2.04zm5.555-.3c-.6 0-1.126.127-1.58.38-.453.253-.833.587-1.14 1-.293.413-.52.887-.68 1.42-.146.52-.22 1.053-.22 1.6s.074 1.087.22 1.62c.16.52.387.987.68 1.4.307.413.687.747 1.14 1 .454.253.98.38 1.58.38s1.127-.127 1.58-.38c.454-.253.827-.587 1.12-1 .307-.413.534-.88.68-1.4.16-.533.24-1.073.24-1.62s-.08-1.08-.24-1.6c-.146-.533-.373-1.007-.68-1.42-.293-.413-.666-.747-1.12-1-.453-.253-.98-.38-1.58-.38zm0-1.06c.787 0 1.48.147 2.08.44.614.293 1.127.687 1.54 1.18.414.493.727 1.073.94 1.74.214.653.32 1.353.32 2.1s-.106 1.453-.32 2.12c-.213.653-.526 1.227-.94 1.72-.413.493-.926.887-1.54 1.18-.6.28-1.293.42-2.08.42-.786 0-1.486-.14-2.1-.42-.6-.293-1.106-.687-1.52-1.18-.413-.493-.726-1.067-.94-1.72-.213-.667-.32-1.373-.32-2.12s.107-1.447.32-2.1c.214-.667.527-1.247.94-1.74.414-.493.92-.887 1.52-1.18.614-.293 1.314-.44 2.1-.44zm6.754.3h1.16v2.42h.04c.32-.84.813-1.487 1.48-1.94.68-.453 1.486-.66 2.42-.62v1.26c-.574-.027-1.094.053-1.56.24-.467.173-.874.427-1.22.76-.334.333-.594.733-.78 1.2-.187.453-.28.953-.28 1.5v5.5h-1.26zm20.235 10.32h-1.16v-1.86h-.04c-.334.693-.82 1.227-1.46 1.6-.627.36-1.327.54-2.1.54-.654 0-1.214-.093-1.68-.28-.454-.173-.827-.427-1.12-.76-.28-.333-.487-.74-.62-1.22-.134-.48-.2-1.027-.2-1.64v-6.7h1.26v6.72c.026.933.24 1.64.64 2.12.413.48 1.12.72 2.12.72.546 0 1.013-.113 1.4-.34.386-.24.706-.553.96-.94.253-.387.44-.827.56-1.32.12-.507.18-1.02.18-1.54v-5.42h1.26zm2.362-10.32h1.26v1.78h.04c.24-.627.666-1.127 1.28-1.5.613-.387 1.286-.58 2.02-.58.72 0 1.32.093 1.8.28.493.187.886.453 1.18.8.293.333.5.747.62 1.24s.18 1.047.18 1.66v6.64h-1.26v-6.44c0-.44-.04-.847-.12-1.22-.08-.387-.22-.72-.42-1s-.474-.5-.82-.66c-.334-.16-.754-.24-1.26-.24-.507 0-.96.093-1.36.28-.387.173-.72.42-1 .74-.267.307-.48.68-.64 1.12-.147.427-.227.893-.24 1.4v6.02h-1.26zm19.842 10.32h-1.16v-1.96h-.04c-.133.333-.333.64-.6.92-.253.28-.547.52-.88.72-.333.187-.693.333-1.08.44-.373.107-.747.16-1.12.16-.787 0-1.473-.14-2.06-.42-.573-.293-1.053-.687-1.44-1.18-.387-.507-.673-1.087-.86-1.74-.187-.667-.28-1.367-.28-2.1s.093-1.427.28-2.08c.187-.667.473-1.247.86-1.74.387-.507.867-.907 1.44-1.2.587-.293 1.273-.44 2.06-.44.387 0 .76.047 1.12.14.373.093.72.24 1.04.44.32.187.6.42.84.7.253.28.447.607.58.98h.04v-5.92h1.26zm-8.26-5.16c0 .533.06 1.067.18 1.6.133.52.333.987.6 1.4.28.413.633.753 1.06 1.02.427.253.94.38 1.54.38.667 0 1.227-.127 1.68-.38.467-.267.84-.607 1.12-1.02.293-.413.5-.88.62-1.4.133-.533.2-1.067.2-1.6s-.067-1.06-.2-1.58c-.12-.533-.327-1.007-.62-1.42-.28-.413-.653-.747-1.12-1-.453-.267-1.013-.4-1.68-.4-.6 0-1.113.133-1.54.4-.427.253-.78.587-1.06 1-.267.413-.467.887-.6 1.42-.12.52-.18 1.047-.18 1.58zm18.084-.72c-.013-.48-.1-.94-.26-1.38-.146-.44-.36-.827-.64-1.16-.28-.347-.62-.62-1.02-.82-.4-.213-.853-.32-1.36-.32-.52 0-.98.107-1.38.32-.4.2-.74.473-1.02.82-.28.333-.506.727-.68 1.18-.16.44-.266.893-.32 1.36zm-6.68 1.06c0 .453.06.927.18 1.42.134.48.34.913.62 1.3s.634.707 1.06.96c.427.253.94.38 1.54.38.92 0 1.64-.24 2.16-.72s.88-1.12 1.08-1.92h1.26c-.266 1.173-.76 2.08-1.48 2.72-.706.64-1.713.96-3.02.96-.813 0-1.52-.14-2.12-.42-.586-.293-1.066-.687-1.44-1.18-.373-.507-.653-1.087-.84-1.74-.173-.667-.26-1.367-.26-2.1 0-.68.087-1.347.26-2 .187-.653.467-1.233.84-1.74.374-.52.854-.933 1.44-1.24.6-.32 1.307-.48 2.12-.48.827 0 1.534.167 2.12.5.587.333 1.06.773 1.42 1.32.374.533.64 1.153.8 1.86.16.693.227 1.4.2 2.12zm9.631-5.5h1.16v2.42h.04c.32-.84.814-1.487 1.48-1.94.68-.453 1.487-.66 2.42-.62v1.26c-.573-.027-1.093.053-1.56.24-.466.173-.873.427-1.22.76-.333.333-.593.733-.78 1.2-.186.453-.28.953-.28 1.5v5.5h-1.26zm12.489 3.02c-.013-.387-.093-.72-.24-1-.147-.293-.347-.533-.6-.72-.24-.187-.52-.32-.84-.4-.32-.093-.66-.14-1.02-.14-.28 0-.567.033-.86.1-.28.053-.54.153-.78.3-.24.133-.433.313-.58.54s-.22.507-.22.84c0 .28.067.52.2.72.147.187.327.347.54.48s.447.247.7.34c.253.08.487.147.7.2l1.68.38c.36.053.713.153 1.06.3.36.133.673.313.94.54.28.227.507.507.68.84s.26.727.26 1.18c0 .56-.127 1.04-.38 1.44-.253.387-.58.707-.98.96-.387.24-.827.413-1.32.52s-.98.16-1.46.16c-1.213 0-2.2-.287-2.96-.86-.747-.573-1.173-1.493-1.28-2.76h1.26c.053.853.36 1.5.92 1.94.573.427 1.28.64 2.12.64.307 0 .62-.033.94-.1.333-.067.64-.18.92-.34s.507-.36.68-.6c.187-.253.28-.56.28-.92 0-.307-.067-.56-.2-.76-.12-.213-.287-.387-.5-.52-.213-.147-.46-.267-.74-.36-.267-.093-.54-.173-.82-.24l-1.62-.36c-.413-.107-.793-.227-1.14-.36-.347-.147-.653-.32-.92-.52-.253-.213-.453-.467-.6-.76-.147-.307-.22-.68-.22-1.12 0-.52.113-.967.34-1.34.24-.373.547-.673.92-.9s.787-.393 1.24-.5c.467-.107.927-.16 1.38-.16.52 0 1 .067 1.44.2.453.133.847.34 1.18.62.347.28.62.627.82 1.04s.313.9.34 1.46zm5.449-3.02h2.1v1.06h-2.1v6.96c0 .413.053.74.16.98.12.227.407.353.86.38.36 0 .72-.02 1.08-.06v1.06c-.187 0-.373.007-.56.02s-.373.02-.56.02c-.84 0-1.427-.16-1.76-.48-.333-.333-.493-.94-.48-1.82v-7.06h-1.8v-1.06h1.8v-3.1h1.26zm3.798 3.16c.04-.6.167-1.12.38-1.56s.5-.8.86-1.08c.373-.28.807-.487 1.3-.62s1.04-.2 1.64-.2c.453 0 .907.047 1.36.14.453.08.86.24 1.22.48s.653.58.88 1.02c.227.427.34.987.34 1.68v5.48c0 .507.247.76.74.76.147 0 .28-.027.4-.08v1.06c-.147.027-.28.047-.4.06-.107.013-.247.02-.42.02-.32 0-.58-.04-.78-.12-.187-.093-.333-.22-.44-.38s-.18-.347-.22-.56c-.027-.227-.04-.473-.04-.74h-.04c-.227.333-.46.633-.7.9-.227.253-.487.467-.78.64-.28.173-.607.307-.98.4-.36.093-.793.14-1.3.14-.48 0-.933-.06-1.36-.18-.413-.107-.78-.28-1.1-.52-.307-.253-.553-.567-.74-.94-.173-.387-.26-.84-.26-1.36 0-.72.16-1.28.48-1.68.32-.413.74-.727 1.26-.94.533-.213 1.127-.36 1.78-.44.667-.093 1.34-.18 2.02-.26.267-.027.5-.06.7-.1s.367-.107.5-.2c.133-.107.233-.247.3-.42.08-.173.12-.4.12-.68 0-.427-.073-.773-.22-1.04-.133-.28-.327-.5-.58-.66-.24-.16-.527-.267-.86-.32-.32-.067-.667-.1-1.04-.1-.8 0-1.453.193-1.96.58-.507.373-.773.98-.8 1.82zm6.72 1.52h-.04c-.08.147-.233.253-.46.32s-.427.113-.6.14c-.533.093-1.087.18-1.66.26-.56.067-1.073.173-1.54.32s-.853.36-1.16.64c-.293.267-.44.653-.44 1.16 0 .32.06.607.18.86.133.24.307.453.52.64.213.173.46.307.74.4s.567.14.86.14c.48 0 .94-.073 1.38-.22s.82-.36 1.14-.64c.333-.28.593-.62.78-1.02.2-.4.3-.853.3-1.36zm3.751-4.68h1.26v1.78h.04c.24-.627.667-1.127 1.28-1.5.613-.387 1.287-.58 2.02-.58.72 0 1.32.093 1.8.28.493.187.887.453 1.18.8.293.333.5.747.62 1.24s.18 1.047.18 1.66v6.64h-1.26v-6.44c0-.44-.04-.847-.12-1.22-.08-.387-.22-.72-.42-1s-.473-.5-.82-.66c-.333-.16-.753-.24-1.26-.24s-.96.093-1.36.28c-.387.173-.72.42-1 .74-.267.307-.48.68-.64 1.12-.147.427-.227.893-.24 1.4v6.02h-1.26zm19.842 10.32h-1.16v-1.96h-.04c-.133.333-.333.64-.6.92-.253.28-.546.52-.88.72-.333.187-.693.333-1.08.44-.373.107-.746.16-1.12.16-.786 0-1.473-.14-2.06-.42-.573-.293-1.053-.687-1.44-1.18-.386-.507-.673-1.087-.86-1.74-.186-.667-.28-1.367-.28-2.1s.094-1.427.28-2.08c.187-.667.474-1.247.86-1.74.387-.507.867-.907 1.44-1.2.587-.293 1.274-.44 2.06-.44.387 0 .76.047 1.12.14.374.093.72.24 1.04.44.32.187.6.42.84.7.254.28.447.607.58.98h.04v-5.92h1.26zm-8.26-5.16c0 .533.06 1.067.18 1.6.134.52.334.987.6 1.4.28.413.634.753 1.06 1.02.427.253.94.38 1.54.38.667 0 1.227-.127 1.68-.38.467-.267.84-.607 1.12-1.02.294-.413.5-.88.62-1.4.134-.533.2-1.067.2-1.6s-.066-1.06-.2-1.58c-.12-.533-.326-1.007-.62-1.42-.28-.413-.653-.747-1.12-1-.453-.267-1.013-.4-1.68-.4-.6 0-1.113.133-1.54.4-.426.253-.78.587-1.06 1-.266.413-.466.887-.6 1.42-.12.52-.18 1.047-.18 1.58zm10.685-9.12h1.26v2.02h-1.26zm0 3.96h1.26v10.32h-1.26zm3.651 0h1.26v1.78h.04c.24-.627.667-1.127 1.28-1.5.613-.387 1.287-.58 2.02-.58.72 0 1.32.093 1.8.28.493.187.887.453 1.18.8.293.333.5.747.62 1.24s.18 1.047.18 1.66v6.64h-1.26v-6.44c0-.44-.04-.847-.12-1.22-.08-.387-.22-.72-.42-1s-.473-.5-.82-.66c-.333-.16-.753-.24-1.26-.24s-.96.093-1.36.28c-.387.173-.72.42-1 .74-.267.307-.48.68-.64 1.12-.147.427-.227.893-.24 1.4v6.02h-1.26zm19.482 9.48c0 .76-.086 1.447-.26 2.06-.16.613-.42 1.133-.78 1.56s-.833.753-1.42.98c-.573.227-1.28.34-2.12.34-.52 0-1.026-.06-1.52-.18-.493-.12-.94-.307-1.34-.56-.386-.253-.713-.58-.98-.98-.253-.387-.4-.853-.44-1.4h1.26c.067.387.194.707.38.96.2.267.434.48.7.64.28.16.587.273.92.34.334.08.674.12 1.02.12 1.174 0 2.02-.333 2.54-1s.78-1.627.78-2.88v-1.4h-.04c-.293.64-.726 1.153-1.3 1.54-.56.387-1.22.58-1.98.58-.826 0-1.533-.133-2.12-.4-.586-.28-1.073-.66-1.46-1.14-.373-.48-.646-1.04-.82-1.68-.173-.653-.26-1.347-.26-2.08 0-.707.1-1.373.3-2 .214-.64.514-1.193.9-1.66.4-.48.887-.853 1.46-1.12.587-.28 1.254-.42 2-.42.387 0 .747.053 1.08.16.347.107.66.26.94.46.28.187.527.407.74.66.227.253.4.52.52.8h.04v-1.78h1.26zm-4.58-.34c.547 0 1.027-.113 1.44-.34.414-.24.76-.547 1.04-.92.28-.387.487-.827.62-1.32.147-.493.22-1 .22-1.52 0-.507-.06-1.013-.18-1.52s-.313-.967-.58-1.38c-.266-.413-.613-.747-1.04-1-.413-.253-.92-.38-1.52-.38s-1.113.127-1.54.38c-.426.24-.78.56-1.06.96s-.486.86-.62 1.38c-.12.507-.18 1.027-.18 1.56 0 .52.067 1.027.2 1.52.134.493.34.933.62 1.32.28.373.634.68 1.06.92.427.227.934.34 1.52.34zm-167.4699 14.86h1.16v1.96h.04c.2933-.72.7669-1.273 1.4199-1.66.667-.4 1.42-.6 2.26-.6.787 0 1.467.147 2.04.44.587.293 1.073.693 1.46 1.2.387.493.673 1.073.86 1.74.187.653.28 1.347.28 2.08s-.093 1.433-.28 2.1c-.187.653-.473 1.233-.86 1.74-.387.493-.873.887-1.46 1.18-.573.28-1.253.42-2.04.42-.373 0-.747-.047-1.12-.14s-.72-.233-1.04-.42-.607-.42-.8599-.7c-.24-.28-.4267-.607-.56-.98h-.04v5.76h-1.26zm8.2599 5.16c0-.533-.067-1.06-.2-1.58-.12-.533-.32-1.007-.6-1.42-.267-.413-.613-.747-1.04-1-.427-.267-.94-.4-1.54-.4-.693 0-1.273.12-1.74.36s-.84.56-1.12.96c-.2799.4-.4799.867-.5999 1.4-.1067.533-.16 1.093-.16 1.68 0 .533.06 1.067.18 1.6.1333.52.34.987.6199 1.4.293.413.667.753 1.12 1.02.467.253 1.033.38 1.7.38.6 0 1.113-.127 1.54-.38.427-.267.773-.607 1.04-1.02.28-.413.48-.88.6-1.4.133-.533.2-1.067.2-1.6zm11.584 5.16h-1.16v-1.86h-.04c-.333.693-.82 1.227-1.46 1.6-.626.36-1.326.54-2.1.54-.653 0-1.213-.093-1.68-.28-.453-.173-.826-.427-1.12-.76-.28-.333-.486-.74-.62-1.22-.133-.48-.2-1.027-.2-1.64v-6.7h1.26v6.72c.027.933.24 1.64.64 2.12.414.48 1.12.72 2.12.72.547 0 1.014-.113 1.4-.34.387-.24.707-.553.96-.94.254-.387.44-.827.56-1.32.12-.507.18-1.02.18-1.54v-5.42h1.26zm2.383-14.28h1.26v5.92h.04c.133-.373.32-.7.56-.98.253-.28.54-.513.86-.7.32-.2.666-.347 1.04-.44.373-.093.746-.14 1.12-.14.786 0 1.466.147 2.04.44.586.293 1.073.693 1.46 1.2.386.493.673 1.073.86 1.74.186.653.28 1.347.28 2.08s-.094 1.433-.28 2.1c-.187.653-.474 1.233-.86 1.74-.387.493-.874.887-1.46 1.18-.574.28-1.254.42-2.04.42-.84 0-1.594-.193-2.26-.58-.654-.387-1.127-.94-1.42-1.66h-.04v1.96h-1.16zm8.26 9.12c0-.533-.067-1.06-.2-1.58-.12-.533-.32-1.007-.6-1.42-.267-.413-.614-.747-1.04-1-.427-.267-.94-.4-1.54-.4-.667 0-1.234.133-1.7.4-.454.253-.827.587-1.12 1-.28.413-.487.887-.62 1.42-.12.52-.18 1.047-.18 1.58s.06 1.067.18 1.6c.133.52.34.987.62 1.4.293.413.666.753 1.12 1.02.466.253 1.033.38 1.7.38.6 0 1.113-.127 1.54-.38.426-.267.773-.607 1.04-1.02.28-.413.48-.88.6-1.4.133-.533.2-1.067.2-1.6zm3.244-9.12h1.26v14.28h-1.26zm3.691 0h1.26v2.02h-1.26zm0 3.96h1.26v10.32h-1.26zm10.952 3.24c-.173-.773-.493-1.38-.96-1.82s-1.12-.66-1.96-.66c-.6 0-1.127.127-1.58.38s-.833.587-1.14 1c-.293.413-.52.887-.68 1.42-.147.52-.22 1.053-.22 1.6s.073 1.087.22 1.62c.16.52.387.987.68 1.4.307.413.687.747 1.14 1s.98.38 1.58.38c.387 0 .753-.073 1.1-.22s.653-.347.92-.6c.267-.267.487-.58.66-.94s.28-.753.32-1.18h1.26c-.173 1.253-.633 2.233-1.38 2.94-.747.693-1.707 1.04-2.88 1.04-.787 0-1.487-.14-2.1-.42-.6-.293-1.107-.687-1.52-1.18s-.727-1.067-.94-1.72c-.213-.667-.32-1.373-.32-2.12s.107-1.447.32-2.1c.213-.667.527-1.247.94-1.74s.92-.887 1.52-1.18c.613-.293 1.313-.44 2.1-.44 1.107 0 2.04.293 2.8.88.773.587 1.233 1.473 1.38 2.66zm13.017-2.48c-.6 0-1.126.127-1.58.38-.453.253-.833.587-1.14 1-.293.413-.52.887-.68 1.42-.146.52-.22 1.053-.22 1.6s.074 1.087.22 1.62c.16.52.387.987.68 1.4.307.413.687.747 1.14 1 .454.253.98.38 1.58.38s1.127-.127 1.58-.38c.454-.253.827-.587 1.12-1 .307-.413.534-.88.68-1.4.16-.533.24-1.073.24-1.62s-.08-1.08-.24-1.6c-.146-.533-.373-1.007-.68-1.42-.293-.413-.666-.747-1.12-1-.453-.253-.98-.38-1.58-.38zm0-1.06c.787 0 1.48.147 2.08.44.614.293 1.127.687 1.54 1.18.414.493.727 1.073.94 1.74.214.653.32 1.353.32 2.1s-.106 1.453-.32 2.12c-.213.653-.526 1.227-.94 1.72-.413.493-.926.887-1.54 1.18-.6.28-1.293.42-2.08.42-.786 0-1.486-.14-2.1-.42-.6-.293-1.106-.687-1.52-1.18-.413-.493-.726-1.067-.94-1.72-.213-.667-.32-1.373-.32-2.12s.107-1.447.32-2.1c.214-.667.527-1.247.94-1.74.414-.493.92-.887 1.52-1.18.614-.293 1.314-.44 2.1-.44zm6.754.3h1.16v1.96h.04c.293-.72.766-1.273 1.42-1.66.666-.4 1.42-.6 2.26-.6.786 0 1.466.147 2.04.44.586.293 1.073.693 1.46 1.2.386.493.673 1.073.86 1.74.186.653.28 1.347.28 2.08s-.094 1.433-.28 2.1c-.187.653-.474 1.233-.86 1.74-.387.493-.874.887-1.46 1.18-.574.28-1.254.42-2.04.42-.374 0-.747-.047-1.12-.14-.374-.093-.72-.233-1.04-.42s-.607-.42-.86-.7c-.24-.28-.427-.607-.56-.98h-.04v5.76h-1.26zm8.26 5.16c0-.533-.067-1.06-.2-1.58-.12-.533-.32-1.007-.6-1.42-.267-.413-.614-.747-1.04-1-.427-.267-.94-.4-1.54-.4-.694 0-1.274.12-1.74.36-.467.24-.84.56-1.12.96s-.48.867-.6 1.4c-.107.533-.16 1.093-.16 1.68 0 .533.06 1.067.18 1.6.133.52.34.987.62 1.4.293.413.666.753 1.12 1.02.466.253 1.033.38 1.7.38.6 0 1.113-.127 1.54-.38.426-.267.773-.607 1.04-1.02.28-.413.48-.88.6-1.4.133-.533.2-1.067.2-1.6zm3.244-9.12h1.26v2.02h-1.26zm0 3.96h1.26v10.32h-1.26zm3.651 0h1.26v1.78h.04c.24-.627.667-1.127 1.28-1.5.614-.387 1.287-.58 2.02-.58.72 0 1.32.093 1.8.28.494.187.887.453 1.18.8.294.333.5.747.62 1.24s.18 1.047.18 1.66v6.64h-1.26v-6.44c0-.44-.04-.847-.12-1.22-.08-.387-.22-.72-.42-1s-.473-.5-.82-.66c-.333-.16-.753-.24-1.26-.24-.506 0-.96.093-1.36.28-.386.173-.72.42-1 .74-.266.307-.48.68-.64 1.12-.146.427-.226.893-.24 1.4v6.02h-1.26zm10.783-3.96h1.26v2.02h-1.26zm0 3.96h1.26v10.32h-1.26zm8.031.76c-.6 0-1.127.127-1.58.38s-.833.587-1.14 1c-.293.413-.52.887-.68 1.42-.147.52-.22 1.053-.22 1.6s.073 1.087.22 1.62c.16.52.387.987.68 1.4.307.413.687.747 1.14 1s.98.38 1.58.38 1.127-.127 1.58-.38.827-.587 1.12-1c.307-.413.533-.88.68-1.4.16-.533.24-1.073.24-1.62s-.08-1.08-.24-1.6c-.147-.533-.373-1.007-.68-1.42-.293-.413-.667-.747-1.12-1s-.98-.38-1.58-.38zm0-1.06c.787 0 1.48.147 2.08.44.613.293 1.127.687 1.54 1.18s.727 1.073.94 1.74c.213.653.32 1.353.32 2.1s-.107 1.453-.32 2.12c-.213.653-.527 1.227-.94 1.72s-.927.887-1.54 1.18c-.6.28-1.293.42-2.08.42s-1.487-.14-2.1-.42c-.6-.293-1.107-.687-1.52-1.18s-.727-1.067-.94-1.72c-.213-.667-.32-1.373-.32-2.12s.107-1.447.32-2.1c.213-.667.527-1.247.94-1.74s.92-.887 1.52-1.18c.613-.293 1.313-.44 2.1-.44zm6.733.3h1.26v1.78h.04c.24-.627.667-1.127 1.28-1.5.614-.387 1.287-.58 2.02-.58.72 0 1.32.093 1.8.28.494.187.887.453 1.18.8.294.333.5.747.62 1.24s.18 1.047.18 1.66v6.64h-1.26v-6.44c0-.44-.04-.847-.12-1.22-.08-.387-.22-.72-.42-1s-.473-.5-.82-.66c-.333-.16-.753-.24-1.26-.24-.506 0-.96.093-1.36.28-.386.173-.72.42-1 .74-.266.307-.48.68-.64 1.12-.146.427-.226.893-.24 1.4v6.02h-1.26zm11.502 10.32v-2.12h1.68v2.12z" fill="#000"/><path d="m120.989 103.26c0 .48.086.887.26 1.22.173.333.4.607.68.82.293.2.633.353 1.02.46.386.093.786.14 1.2.14.28 0 .58-.02.9-.06.32-.053.62-.147.9-.28s.513-.313.7-.54c.186-.24.28-.54.28-.9 0-.387-.127-.7-.38-.94-.24-.24-.56-.44-.96-.6s-.854-.3-1.36-.42c-.507-.12-1.02-.253-1.54-.4-.534-.133-1.054-.293-1.56-.48-.507-.2-.96-.453-1.36-.76s-.727-.6867-.98-1.14c-.24-.4667-.36-1.0267-.36-1.68 0-.7333.153-1.3667.46-1.9.32-.5467.733-1 1.24-1.36.506-.36 1.08-.6267 1.72-.8s1.28-.26 1.92-.26c.746 0 1.46.0867 2.14.26.693.16 1.306.4267 1.84.8.533.3733.953.8533 1.26 1.44.32.5733.48 1.2733.48 2.1h-3.04c-.027-.4267-.12-.78-.28-1.06-.147-.28-.347-.5-.6-.66-.254-.16-.547-.2733-.88-.34-.32-.0667-.674-.1-1.06-.1-.254 0-.507.0267-.76.08-.254.0533-.487.1467-.7.28-.2.1333-.367.3-.5.5-.134.2-.2.4533-.2.76 0 .28.053.5067.16.68.106.1733.313.3333.62.48.32.1467.753.2933 1.3.44.56.1467 1.286.3333 2.18.56.266.0533.633.1533 1.1.3.48.133.953.353 1.42.66.466.307.866.72 1.2 1.24.346.507.52 1.16.52 1.96 0 .653-.127 1.26-.38 1.82-.254.56-.634 1.047-1.14 1.46-.494.4-1.114.713-1.86.94-.734.227-1.587.34-2.56.34-.787 0-1.554-.1-2.3-.3-.734-.187-1.387-.487-1.96-.9-.56-.413-1.007-.94-1.34-1.58-.334-.64-.494-1.4-.48-2.28zm13.068-.42c0 .413.04.82.12 1.22.08.387.213.74.4 1.06.2.307.46.553.78.74s.72.28 1.2.28.88-.093 1.2-.28c.333-.187.593-.433.78-.74.2-.32.34-.673.42-1.06.08-.4.12-.807.12-1.22s-.04-.82-.12-1.22-.22-.753-.42-1.06c-.187-.307-.447-.553-.78-.74-.32-.2-.72-.3-1.2-.3s-.88.1-1.2.3c-.32.187-.58.433-.78.74-.187.307-.32.66-.4 1.06s-.12.807-.12 1.22zm-2.84 0c0-.827.127-1.573.38-2.24.253-.68.613-1.2533 1.08-1.72.467-.48 1.027-.8467 1.68-1.1.653-.2667 1.387-.4 2.2-.4s1.547.1333 2.2.4c.667.2533 1.233.62 1.7 1.1.467.4667.827 1.04 1.08 1.72.253.667.38 1.413.38 2.24s-.127 1.573-.38 2.24-.613 1.24-1.08 1.72c-.467.467-1.033.827-1.7 1.08-.653.253-1.387.38-2.2.38s-1.547-.127-2.2-.38-1.213-.613-1.68-1.08c-.467-.48-.827-1.053-1.08-1.72s-.38-1.413-.38-2.24zm12.627-9.12h2.84v14.28h-2.84zm14.776 14.28h-2.7v-1.44h-.06c-.36.6-.827 1.033-1.4 1.3s-1.16.4-1.76.4c-.76 0-1.387-.1-1.88-.3-.48-.2-.86-.48-1.14-.84-.28-.373-.48-.82-.6-1.34-.107-.533-.16-1.12-.16-1.76v-6.36h2.84v5.84c0 .853.133 1.493.4 1.92.267.413.74.62 1.42.62.773 0 1.333-.227 1.68-.68.347-.467.52-1.227.52-2.28v-5.42h2.84zm5.755-10.34h2.08v1.9h-2.08v5.12c0 .48.08.8.24.96s.48.24.96.24c.16 0 .314-.007.46-.02.147-.013.287-.033.42-.06v2.2c-.24.04-.506.067-.8.08-.293.013-.58.02-.86.02-.44 0-.86-.033-1.26-.1-.386-.053-.733-.167-1.04-.34-.293-.173-.526-.42-.7-.74-.173-.32-.26-.74-.26-1.26v-6.1h-1.72v-1.9h1.72v-3.1h2.84zm6.352-1.6h-2.84v-2.34h2.84zm-2.84 1.6h2.84v10.34h-2.84zm7.596 5.18c0 .413.04.82.12 1.22.08.387.213.74.4 1.06.2.307.46.553.78.74s.72.28 1.2.28.88-.093 1.2-.28c.333-.187.593-.433.78-.74.2-.32.34-.673.42-1.06.08-.4.12-.807.12-1.22s-.04-.82-.12-1.22-.22-.753-.42-1.06c-.187-.307-.447-.553-.78-.74-.32-.2-.72-.3-1.2-.3s-.88.1-1.2.3c-.32.187-.58.433-.78.74-.187.307-.32.66-.4 1.06s-.12.807-.12 1.22zm-2.84 0c0-.827.126-1.573.38-2.24.253-.68.613-1.2533 1.08-1.72.466-.48 1.026-.8467 1.68-1.1.653-.2667 1.386-.4 2.2-.4.813 0 1.546.1333 2.2.4.666.2533 1.233.62 1.7 1.1.466.4667.826 1.04 1.08 1.72.253.667.38 1.413.38 2.24s-.127 1.573-.38 2.24c-.254.667-.614 1.24-1.08 1.72-.467.467-1.034.827-1.7 1.08-.654.253-1.387.38-2.2.38-.814 0-1.547-.127-2.2-.38-.654-.253-1.214-.613-1.68-1.08-.467-.48-.827-1.053-1.08-1.72-.254-.667-.38-1.413-.38-2.24zm12.546-5.18h2.7v1.44h.06c.36-.6.827-1.0333 1.4-1.3.574-.28 1.16-.42 1.76-.42.76 0 1.38.1067 1.86.32.494.2.88.4867 1.16.86.28.36.474.8067.58 1.34.12.52.18 1.1.18 1.74v6.36h-2.84v-5.84c0-.853-.133-1.487-.4-1.9-.266-.4267-.74-.64-1.42-.64-.773 0-1.333.2333-1.68.7-.346.453-.52 1.207-.52 2.26v5.42h-2.84zm15.136 3.26h-3.14v-3.08h3.14zm-3.14 4h3.14v3.08h-3.14z" fill="#000080"/></svg>