<svg width="559" height="314" viewBox="0 0 559 314" fill="none" xmlns="http://www.w3.org/2000/svg">
<path d="M447.984 297.023C441.508 297.023 436.254 301.132 436.254 306.208C436.254 308.346 437.191 310.317 438.762 311.88H405.802C401.655 300.169 399.399 287.573 399.399 274.445C399.399 261.316 401.655 248.716 405.808 237.005H438.782C437.2 235.445 436.257 233.467 436.257 231.318C436.257 226.239 441.51 222.126 447.987 222.126C454.463 222.126 459.721 226.241 459.721 231.318C459.721 233.467 458.778 235.442 457.195 237.005H474.463V265.092C472.926 263.614 471.006 262.74 468.93 262.74C463.845 262.74 459.721 267.98 459.721 274.44C459.721 280.9 463.845 286.147 468.93 286.147C471.006 286.147 472.926 285.274 474.463 283.796V311.88H457.211C458.783 310.319 459.721 308.349 459.721 306.208C459.721 301.132 454.468 297.023 447.987 297.023H447.984Z" fill="#FBC343"/>
<path d="M266.565 312.44C259.492 312.44 253.718 306.792 253.536 299.779L232.195 288.639H335.598L314.255 299.779C314.073 306.79 308.297 312.44 301.225 312.44H266.565Z" fill="#102048"/>
<path d="M333.315 289.199L313.698 299.437C313.698 306.309 308.113 311.878 301.225 311.878H266.565C259.676 311.878 254.092 306.307 254.092 299.437L234.476 289.199H333.312M337.878 288.079H229.91L233.955 290.191L252.986 300.124C253.345 307.283 259.299 312.997 266.563 312.997H301.223C308.488 312.997 314.441 307.283 314.8 300.124L333.831 290.191L337.876 288.079H337.878Z" fill="white"/>
<path d="M283.717 225.794C345.902 225.794 396.312 175.512 396.312 113.486C396.312 51.4604 345.902 1.17859 283.717 1.17859C221.532 1.17859 171.121 51.4604 171.121 113.486C171.121 175.512 221.532 225.794 283.717 225.794Z" fill="white"/>
<path d="M283.717 225.794C345.902 225.794 396.312 175.512 396.312 113.486C396.312 51.4604 345.902 1.17859 283.717 1.17859C221.532 1.17859 171.121 51.4604 171.121 113.486C171.121 175.512 221.532 225.794 283.717 225.794Z" fill="white"/>
<path d="M333.315 191.679H234.478V245.373H333.315V191.679Z" fill="#FBC343"/>
<path d="M333.315 245.373H234.478V274.557H333.315V245.373Z" fill="#708CD5"/>
<path d="M357.234 60.9856C350.751 60.9856 345.498 65.099 345.498 70.1775C345.498 72.3272 346.441 74.3044 348.023 75.8651H321.427V50.4098C319.872 51.937 317.925 52.8506 315.804 52.8506C310.715 52.8506 306.595 47.6108 306.595 41.1462C306.595 34.6816 310.715 29.4464 315.804 29.4464C317.925 29.4464 319.872 30.3577 321.427 31.8871V7.38568C353.418 18.6646 378.775 43.9564 390.083 75.8651H366.439C368.021 74.3022 368.964 72.3272 368.964 70.1775C368.964 65.1013 363.711 60.9856 357.234 60.9856Z" fill="#FBD682"/>
<path d="M321.427 197.349C319.872 198.878 317.925 199.79 315.804 199.79C310.715 199.79 306.595 194.55 306.595 188.09C306.595 181.63 310.715 176.385 315.804 176.385C317.925 176.385 319.872 177.299 321.427 178.826V150.74H348.008C346.436 149.177 345.498 147.208 345.498 145.068C345.498 139.992 350.751 135.883 357.234 135.883C363.718 135.883 368.964 139.992 368.964 145.068C368.964 147.206 368.028 149.177 366.457 150.74H390.089C378.781 182.653 353.425 207.947 321.427 219.226V197.349Z" fill="#FBC343"/>
<path d="M357.234 135.883C350.751 135.883 345.498 139.992 345.498 145.068C345.498 147.206 346.436 149.177 348.008 150.74H321.428V122.006C323.06 123.869 325.217 125.007 327.59 125.007C332.675 125.007 336.799 119.767 336.799 113.307C336.799 106.847 332.675 101.6 327.59 101.6C325.217 101.6 323.062 102.738 321.428 104.601V75.8651H348.023C346.441 74.3022 345.498 72.3272 345.498 70.1775C345.498 65.1013 350.751 60.9856 357.234 60.9856C363.718 60.9856 368.964 65.099 368.964 70.1775C368.964 72.3272 368.021 74.3044 366.439 75.8651H390.083C394.236 87.5762 396.492 100.176 396.492 113.305C396.492 126.433 394.236 139.029 390.087 150.738H366.454C368.026 149.175 368.962 147.206 368.962 145.066C368.962 139.989 363.709 135.88 357.232 135.88L357.234 135.883Z" fill="#FBC343"/>
<path d="M246.368 219.226V197.438C244.83 198.916 242.91 199.79 240.834 199.79C235.749 199.79 231.625 194.55 231.625 188.09C231.625 181.63 235.749 176.385 240.834 176.385C242.91 176.385 244.83 177.259 246.368 178.736V150.742H274.672C273.1 149.179 272.162 147.211 272.162 145.07C272.162 139.994 277.415 135.885 283.899 135.885C290.382 135.885 295.629 139.994 295.629 145.07C295.629 147.208 294.692 149.179 293.121 150.742H321.43V178.828C319.874 177.299 317.928 176.388 315.806 176.388C310.717 176.388 306.597 181.627 306.597 188.092C306.597 194.556 310.717 199.792 315.806 199.792C317.928 199.792 319.874 198.88 321.43 197.351V219.228C309.689 223.366 297.061 225.614 283.899 225.614C270.737 225.614 258.111 223.364 246.368 219.228V219.226Z" fill="#FBC343"/>
<path d="M283.896 90.991C277.413 90.991 272.16 86.8775 272.16 81.8057C272.16 79.5374 273.208 77.4617 274.95 75.8651H246.365V50.4994C244.828 51.9772 242.908 52.8505 240.832 52.8505C235.747 52.8505 231.623 47.6108 231.623 41.1462C231.623 34.6816 235.747 29.4463 240.832 29.4463C242.908 29.4463 244.828 30.3196 246.365 31.7975V7.38565C258.106 3.2476 270.734 0.997192 283.896 0.997192C297.059 0.997192 309.684 3.2476 321.428 7.38565V31.8871C319.872 30.3599 317.925 29.4463 315.804 29.4463C310.715 29.4463 306.595 34.6861 306.595 41.1462C306.595 47.6063 310.715 52.8505 315.804 52.8505C317.925 52.8505 319.872 51.9392 321.428 50.4098V75.8651H292.838C294.578 77.4617 295.626 79.5374 295.626 81.8057C295.626 86.8775 290.373 90.991 283.896 90.991Z" fill="#FBC343"/>
<path d="M219.888 60.9856C213.412 60.9856 208.159 65.099 208.159 70.1775C208.159 72.3272 209.101 74.3044 210.684 75.8651H177.71C189.018 43.9564 214.375 18.6646 246.365 7.38568V31.7975C244.828 30.3196 242.908 29.4464 240.832 29.4464C235.747 29.4464 231.623 34.6861 231.623 41.1462C231.623 47.6063 235.747 52.8506 240.832 52.8506C242.908 52.8506 244.828 51.9773 246.365 50.4994V75.8651H229.097C230.68 74.3022 231.623 72.3272 231.623 70.1775C231.623 65.1013 226.37 60.9856 219.886 60.9856H219.888Z" fill="#FBD682"/>
<path d="M357.234 60.9856C350.751 60.9856 345.498 65.099 345.498 70.1775C345.498 72.3272 346.441 74.3044 348.023 75.8651H321.427V50.4098C319.872 51.937 317.925 52.8506 315.804 52.8506C310.715 52.8506 306.595 47.6108 306.595 41.1462C306.595 34.6816 310.715 29.4464 315.804 29.4464C317.925 29.4464 319.872 30.3577 321.427 31.8871V7.38568C353.418 18.6646 378.775 43.9564 390.083 75.8651H366.439C368.021 74.3022 368.964 72.3272 368.964 70.1775C368.964 65.1013 363.711 60.9856 357.234 60.9856Z" fill="#FBC343"/>
<path d="M357.234 135.883C350.751 135.883 345.498 139.992 345.498 145.068C345.498 147.206 346.436 149.177 348.008 150.74H321.428V122.006C323.06 123.869 325.217 125.007 327.59 125.007C332.675 125.007 336.799 119.767 336.799 113.307C336.799 106.847 332.675 101.6 327.59 101.6C325.217 101.6 323.062 102.738 321.428 104.601V75.8651H348.023C346.441 74.3022 345.498 72.3272 345.498 70.1775C345.498 65.1013 350.751 60.9856 357.234 60.9856C363.718 60.9856 368.964 65.099 368.964 70.1775C368.964 72.3272 368.021 74.3044 366.439 75.8651H390.083C394.236 87.5762 396.492 100.176 396.492 113.305C396.492 126.433 394.236 139.029 390.087 150.738H366.454C368.026 149.175 368.962 147.206 368.962 145.066C368.962 139.989 363.709 135.88 357.232 135.88L357.234 135.883Z" fill="#FBC343"/>
<path d="M283.896 90.991C277.413 90.991 272.16 86.8775 272.16 81.8057C272.16 79.5374 273.208 77.4617 274.95 75.8651H246.365V50.4994C244.828 51.9772 242.908 52.8505 240.832 52.8505C235.747 52.8505 231.623 47.6108 231.623 41.1462C231.623 34.6816 235.747 29.4463 240.832 29.4463C242.908 29.4463 244.828 30.3196 246.365 31.7975V7.38565C258.106 3.2476 270.734 0.997192 283.896 0.997192C297.059 0.997192 309.684 3.2476 321.428 7.38565V31.8871C319.872 30.3599 317.925 29.4463 315.804 29.4463C310.715 29.4463 306.595 34.6861 306.595 41.1462C306.595 47.6063 310.715 52.8505 315.804 52.8505C317.925 52.8505 319.872 51.9392 321.428 50.4098V75.8651H292.838C294.578 77.4617 295.626 79.5374 295.626 81.8057C295.626 86.8775 290.373 90.991 283.896 90.991Z" fill="#FBC343"/>
<path d="M219.888 60.9856C213.412 60.9856 208.159 65.099 208.159 70.1775C208.159 72.3272 209.101 74.3044 210.684 75.8651H177.71C189.018 43.9564 214.375 18.6646 246.365 7.38568V31.7975C244.828 30.3196 242.908 29.4464 240.832 29.4464C235.747 29.4464 231.623 34.6861 231.623 41.1462C231.623 47.6063 235.747 52.8506 240.832 52.8506C242.908 52.8506 244.828 51.9773 246.365 50.4994V75.8651H229.097C230.68 74.3022 231.623 72.3272 231.623 70.1775C231.623 65.1013 226.37 60.9856 219.886 60.9856H219.888Z" fill="#FBC343"/>
<path d="M390.083 76.4249H365.072L366.041 75.4666C367.584 73.9439 368.401 72.1145 368.401 70.1775C368.401 65.417 363.39 61.5454 357.232 61.5454C351.074 61.5454 346.057 65.417 346.057 70.1775C346.057 72.1145 346.872 73.9439 348.416 75.4666L349.386 76.4249H320.862V51.6414C319.342 52.8035 317.611 53.4126 315.799 53.4126C310.412 53.4126 306.029 47.9109 306.029 41.1485C306.029 34.386 310.412 28.8888 315.799 28.8888C317.613 28.8888 319.342 29.4979 320.862 30.66V7.38568H321.984V33.2261L321.028 32.2879C319.51 30.7966 317.703 30.0084 315.797 30.0084C311.029 30.0084 307.15 35.0063 307.15 41.1485C307.15 47.2906 311.029 52.293 315.797 52.293C317.701 52.293 319.51 51.5048 321.028 50.0135L321.984 49.0753V75.3076H346.771C345.579 73.7782 344.932 71.9958 344.932 70.1798C344.932 64.8034 350.448 60.428 357.23 60.428C364.012 60.428 369.521 64.8034 369.521 70.1798C369.521 71.9958 368.877 73.7782 367.682 75.3076H390.078V76.4272L390.083 76.4249Z" fill="#FDF6E6"/>
<path d="M321.989 219.224H320.866V198.576C319.346 199.738 317.616 200.347 315.804 200.347C310.416 200.347 306.034 194.848 306.034 188.087C306.034 181.327 310.416 175.821 315.804 175.821C317.618 175.821 319.346 176.43 320.866 177.592V150.178H346.764C345.579 148.651 344.937 146.875 344.937 145.068C344.937 139.694 350.452 135.323 357.234 135.323C364.016 135.323 369.526 139.696 369.526 145.068C369.526 146.875 368.883 148.653 367.698 150.178H390.089V151.297H365.096L366.059 150.341C367.593 148.816 368.403 146.993 368.403 145.068C368.403 140.312 363.392 136.442 357.234 136.442C351.077 136.442 346.059 140.312 346.059 145.068C346.059 146.993 346.869 148.818 348.403 150.341L349.366 151.297H321.989V180.161L321.032 179.222C319.515 177.731 317.708 176.943 315.802 176.943C311.033 176.943 307.154 181.943 307.154 188.09C307.154 194.236 311.033 199.23 315.802 199.23C317.705 199.23 319.515 198.442 321.032 196.95L321.989 196.012V219.226V219.224Z" fill="#FDF6E6"/>
<path d="M246.929 75.8651H245.806V51.7108C244.311 52.8259 242.614 53.4104 240.834 53.4104C235.446 53.4104 231.062 47.9086 231.062 41.1462C231.062 34.3838 235.446 28.8866 240.834 28.8866C242.612 28.8866 244.311 29.471 245.806 30.5861V7.38568H246.929V33.1164L245.979 32.2028C244.486 30.7675 242.706 30.0084 240.836 30.0084C236.068 30.0084 232.186 35.0063 232.186 41.1485C232.186 47.2906 236.066 52.293 240.836 52.293C242.708 52.293 244.486 51.5339 245.979 50.0986L246.929 49.185V75.8674V75.8651Z" fill="#FDF6E6"/>
<path d="M333.876 273.997H233.917V289.759H333.876V273.997Z" fill="#102048"/>
<path d="M333.314 274.557V289.199H234.478V274.557H333.314ZM334.437 273.437H233.356V290.318H334.437V273.437Z" fill="white"/>
<path d="M263.836 165.541H241.101V163.861H262.152V140.863H263.836V165.541Z" fill="#FDF6E6"/>
<path d="M148.778 310.158C117.368 297.341 93.2734 270.851 83.5325 238.427L116.455 240.024C114.962 238.387 114.12 236.374 114.225 234.238C114.472 229.166 119.919 225.317 126.389 225.63C132.863 225.944 137.91 230.303 137.663 235.375C137.559 237.511 136.527 239.435 134.881 240.917L152.113 241.752L150.751 269.716C149.287 268.166 147.413 267.199 145.338 267.1C140.26 266.854 135.885 271.888 135.568 278.345C135.254 284.799 139.12 290.231 144.198 290.478C146.272 290.578 148.232 289.799 149.839 288.397L148.778 310.16V310.158Z" fill="#FBC343"/>
<path d="M87.6498 263.47V311.846H187.952V263.47H87.6498ZM149.177 277.835C149.177 279.848 147.525 281.496 145.507 281.496H130.091C128.072 281.496 126.42 279.848 126.42 277.835C126.42 275.822 128.072 274.174 130.091 274.174H145.507C147.525 274.174 149.177 275.822 149.177 277.835Z" fill="#E5ECFF" stroke="#708CD5" stroke-width="3.75" stroke-miterlimit="10"/>
<path opacity="0.2" d="M187.95 311.848C187.95 311.848 116.994 306.868 87.6475 263.473V311.848H187.95Z" fill="#1F3C88"/>
<path d="M362.955 170.917C363.76 168.714 362.598 167.393 362.564 166.197C362.53 165.001 362.896 163.938 362.247 163.781C361.599 163.624 360.833 164.609 360.411 169.809L362.952 170.917H362.955Z" fill="#F9B384"/>
<path d="M363.659 173.018L362.818 176.403H357.535L354.305 169.204C353.84 168.335 352.578 164.849 352.691 164.115C352.902 162.744 354.576 166.141 354.655 166.197C354.356 165.167 353.344 161.925 353.813 161.195C354.374 160.319 356.076 164.11 356.514 165.252C356.296 164.195 355.064 160.198 355.665 159.618C356.386 158.922 358.056 163.335 358.314 164.717C358.247 163.68 357.748 160.142 358.442 160.227C359.401 160.344 361.076 166.551 361.076 166.551C361.076 166.551 362.793 169.137 363.657 173.022L363.659 173.018Z" fill="#F9B384"/>
<path d="M355.396 168.286C355.995 167.729 356.664 167.234 357.414 166.869C357.791 166.692 358.193 166.555 358.608 166.484C359.024 166.416 359.455 166.421 359.859 166.524L359.841 166.631C359.035 166.571 358.251 166.772 357.533 167.117C356.806 167.451 356.141 167.919 355.463 168.369L355.396 168.284V168.286Z" fill="#E28B6D"/>
<path d="M360.409 167.876C360.054 167.888 359.72 168.031 359.585 168.331C359.443 168.622 359.416 168.978 359.446 169.323C359.468 169.672 359.54 170.021 359.639 170.362C359.735 170.702 359.859 171.04 360.029 171.349L359.942 171.414C359.693 171.128 359.535 170.783 359.405 170.436C359.282 170.084 359.194 169.719 359.167 169.341C359.152 168.967 359.167 168.564 359.378 168.212C359.423 168.123 359.509 168.053 359.574 167.977C359.657 167.919 359.744 167.861 359.836 167.82C359.935 167.8 360.029 167.764 360.126 167.76L360.413 167.764L360.407 167.874L360.409 167.876Z" fill="#E28B6D"/>
<path d="M382.537 305.63L383.045 299.125H374.265L373.048 301.868C372.534 303.026 371.833 304.074 370.996 304.992C373.598 306.358 377.652 307.849 382.537 305.63Z" fill="#F9B384"/>
<path d="M370.998 304.992C369.777 306.333 368.255 307.39 366.526 308.051L362.6 309.549C361.545 310.218 362.018 311.848 363.269 311.848H379.163C380.793 311.848 382.149 310.597 382.275 308.976L382.535 305.63C377.65 307.847 373.598 306.356 370.994 304.992H370.998Z" fill="#102048"/>
<path d="M404.042 305.63L403.534 299.125H412.314L413.531 301.868C414.045 303.026 414.745 304.074 415.583 304.992C412.981 306.358 408.927 307.849 404.042 305.63Z" fill="#F9B384"/>
<path d="M415.583 304.992C416.804 306.333 418.326 307.39 420.055 308.051L423.981 309.549C425.036 310.218 424.563 311.848 423.312 311.848H407.418C405.788 311.848 404.432 310.597 404.307 308.976L404.046 305.63C408.931 307.847 412.983 306.356 415.587 304.992H415.583Z" fill="#102048"/>
<path d="M414.519 300.375H399.41L391.203 236.992L386.937 265.792L386.051 300.373H371.862C370.749 273.533 372.159 244.688 376.801 213.272L377.116 208.278L377.475 202.584L406.015 204.673L406.356 208.552L407.018 215.952L414.517 300.37L414.519 300.375Z" fill="#1F3C88"/>
<path opacity="0.6" d="M407.021 215.957C404.333 220.007 385.595 219.866 376.7 214.909L377.118 208.283L406.358 208.556L407.021 215.957Z" fill="#102048"/>
<path d="M376.011 204.257C376.011 204.257 373.187 211.55 375.609 212.949C378.032 214.349 405.997 214.629 408.21 212.949C410.424 211.27 405.068 207.071 405.577 204.272C406.087 201.473 376.009 204.257 376.009 204.257H376.011Z" fill="#708CD5"/>
<path d="M373.62 174.276C372.639 176.446 368.991 183.022 368.991 183.022L363.659 173.015C362.465 173.98 361.06 174.881 356.882 174.939C356.882 174.939 362.887 197.087 368.289 199.364C377.147 203.099 379.233 186.381 379.233 186.381L373.62 174.276Z" fill="#708CD5"/>
<path d="M373.62 174.276L375.064 170.897C375.636 169.556 376.644 168.414 377.971 167.802C378.099 167.744 378.227 167.69 378.359 167.639C380.867 166.692 385.516 165.203 389.827 165.25C391.369 165.25 397.114 165.18 406.444 167.561L409.05 200.797L378.182 200.168L373.623 174.278L373.62 174.276Z" fill="#708CD5"/>
<path opacity="0.3" d="M401.17 174.276C401.895 186.766 400.885 200.19 393.594 201.057L402.017 203.422L411.064 198.594L407.485 178.931L401.173 174.278L401.17 174.276Z" fill="#1F3C88"/>
<path d="M402.537 166.656C404.399 167.064 407.506 167.489 409.048 168.539C410.59 169.589 414.941 192.051 416.063 197.228C417.186 202.405 417.466 207.725 394.456 208.563L392.211 202.266L405.68 197.089L400.515 174.276L402.535 166.656H402.537Z" fill="#708CD5"/>
<path d="M377.733 175.989C377.895 178.237 377.969 180.488 378.043 182.738L378.11 186.115C378.119 187.241 378.126 188.367 378.101 189.494L377.937 189.498C377.852 188.374 377.796 187.25 377.744 186.124L377.628 182.747C377.58 180.496 377.531 178.244 377.569 175.991L377.733 175.987V175.989Z" fill="#1F3C88"/>
<path d="M403.4 199.187V200.484L396.974 206.272L396.472 203.885L403.4 199.187Z" fill="#102048"/>
<path d="M396.041 205.432L403.4 199.187L389.544 197.461L396.041 205.432Z" fill="white"/>
<path d="M396.974 206.272H370.334L365.873 185.123H392.514L396.974 206.272Z" fill="#102048"/>
<path d="M382.914 197.183H379.935L379.374 194.214H382.353L382.914 197.183Z" fill="white"/>
<path d="M380.517 143.67C377.529 136.106 390.015 133.307 391.234 139.638C391.234 139.638 394.801 137.788 398.344 139.75C405.169 143.525 400.762 154.157 398.344 154.157L386.015 152.551L380.517 143.67Z" fill="#6F3428"/>
<path d="M396.128 158.004V165.747C396.128 167.874 394.085 169.601 391.553 169.601C389.021 169.601 386.984 167.874 386.984 165.747V158.004H396.128Z" fill="#F9B384"/>
<path d="M394.157 160.91C392.983 162.46 390.464 164.247 386.984 164.285V160.205L394.157 160.91Z" fill="#3C1C16"/>
<path d="M396.128 145.486V158.743C396.128 158.743 393.52 163.165 388.181 162.8C385.532 162.614 384.196 160.964 383.5 158.317C383.226 157.314 383.051 156.161 382.928 154.896C382.726 152.773 382.67 150.316 382.598 147.663V145.486H396.128Z" fill="#F9B384"/>
<path d="M382.706 142.273C381.058 140.84 377.72 141.931 376.739 143.946C375.353 146.792 377.158 149.667 379.5 150.453C382.896 151.595 384.275 148.033 384.275 148.033C384.275 148.033 385.373 149.58 387.815 149.244C389.575 149.002 390.181 147.276 390.181 147.276C390.181 147.276 390.725 151.68 396.523 151.573C397.767 151.149 398.344 146.337 398.344 146.337L394.521 142.372L382.706 142.273Z" fill="#6F3428"/>
<path d="M394.456 208.565C391.607 209.145 388.621 209.49 385.727 209.049C383.927 208.773 382.16 208.157 380.705 207.04C379.507 206.12 378.467 204.803 377.812 203.442C377.654 203.112 377.542 202.627 377.816 202.329C378.117 202.004 378.66 202.564 378.95 202.779C380.357 203.833 381.406 205.392 381.406 205.392C381.406 205.392 379.221 201.816 379.769 201.24C380.189 200.797 380.829 200.905 383.027 204.543C383.027 204.543 383.442 205.439 383.839 204.973C384.053 204.722 382.584 201.906 383.653 201.661C384.472 201.476 385.242 204.136 385.804 205.186C386.504 206.001 387.721 205.186 387.721 205.186L393.647 206.299L394.456 208.567V208.565Z" fill="#F9B384"/>
<path d="M387.566 205.349C387.467 204.736 387.308 204.14 387.081 203.585C387.029 203.457 386.973 203.327 386.949 203.186C386.861 202.667 387.323 202.51 387.633 202.618C388.313 202.853 388.92 203.755 389.319 204.458C389.669 205.074 389.876 205.851 389.773 206.601C389.741 206.83 387.829 206.834 387.703 206.556C387.674 206.491 387.669 206.413 387.667 206.339C387.651 206.008 387.615 205.676 387.564 205.352L387.566 205.349Z" fill="#F9B384"/>
<path d="M389.91 226.407C390.269 228.709 390.619 231.013 390.94 233.319L391.885 240.243L392.758 247.176L393.163 250.646L393.528 254.122L393.311 254.151L392.772 250.698L392.271 247.241L391.333 240.317L390.469 233.384C390.188 231.071 389.932 228.756 389.69 226.441L389.907 226.411L389.91 226.407Z" fill="#708CD5"/>
<path d="M386.286 171.325C387.759 172.666 389.741 173.412 391.703 173.282C392.682 173.228 393.645 172.957 394.521 172.509C395.403 172.068 396.191 171.45 396.916 170.758L397.037 170.868C396.384 171.647 395.596 172.33 394.691 172.832C393.787 173.331 392.765 173.636 391.728 173.696C390.691 173.748 389.64 173.58 388.684 173.183C387.728 172.794 386.854 172.2 386.17 171.437L386.286 171.322V171.325Z" fill="#1F3C88"/>
<path d="M395.482 152.231C396.088 150.737 397.255 150.321 398.391 150.852C400.194 151.694 399.597 156.353 395.482 156.456V152.231Z" fill="#F9B384"/>
<path d="M396.389 153.075C396.303 152.634 396.438 152.173 396.757 151.81C396.923 151.638 397.186 151.503 397.448 151.523C397.711 151.548 397.92 151.687 398.063 151.855L397.964 151.987C397.774 151.922 397.599 151.868 397.448 151.891C397.3 151.904 397.17 151.98 397.055 152.101C396.93 152.213 396.842 152.377 396.754 152.54C396.671 152.708 396.604 152.887 396.552 153.077H396.389V153.075Z" fill="#6F3428"/>
<path d="M385.783 153.008C385.783 153.532 385.494 153.955 385.135 153.955C384.775 153.955 384.486 153.532 384.486 153.008C384.486 152.484 384.775 152.061 385.135 152.061C385.494 152.061 385.783 152.484 385.783 153.008Z" fill="#3C1C16"/>
<path d="M391.281 153.008C391.281 153.532 390.992 153.955 390.633 153.955C390.273 153.955 389.984 153.532 389.984 153.008C389.984 152.484 390.273 152.061 390.633 152.061C390.992 152.061 391.281 152.484 391.281 153.008Z" fill="#3C1C16"/>
<path d="M387.636 153.375C387.703 153.568 387.743 153.772 387.775 153.975C387.79 154.078 387.795 154.181 387.799 154.284C387.802 154.383 387.813 154.517 387.739 154.658C387.579 154.936 387.319 154.979 387.18 155.066C387.041 155.14 386.931 155.261 386.865 155.402C386.72 155.673 386.798 156.038 387.036 156.239C387.274 156.452 387.674 156.483 388.055 156.45L388.091 156.609C387.712 156.747 387.229 156.808 386.812 156.528C386.41 156.246 386.262 155.661 386.488 155.216C386.598 154.999 386.778 154.82 386.996 154.714C387.202 154.62 387.373 154.562 387.424 154.484C387.481 154.419 387.478 154.168 387.485 153.991C387.494 153.798 387.481 153.604 387.469 153.409L387.631 153.375H387.636Z" fill="#E28B6D"/>
<path d="M386.149 158.613C386.475 158.718 386.823 158.772 387.166 158.796C387.512 158.817 387.856 158.823 388.194 158.774C388.533 158.738 388.868 158.662 389.185 158.541C389.503 158.425 389.804 158.261 390.098 158.066L390.21 158.185C389.977 158.476 389.667 158.707 389.328 158.879C388.987 159.045 388.614 159.148 388.239 159.19C387.865 159.222 387.485 159.222 387.117 159.15C386.751 159.083 386.387 158.973 386.066 158.758L386.145 158.613H386.149Z" fill="#3C1C16"/>
<path d="M383.588 151.624C383.738 151.371 383.925 151.129 384.178 150.948C384.425 150.762 384.751 150.655 385.07 150.668C385.391 150.684 385.687 150.802 385.945 150.955C386.203 151.114 386.425 151.313 386.625 151.53L386.553 151.613C386.311 151.456 386.08 151.291 385.828 151.17C385.581 151.046 385.321 150.957 385.058 150.946C384.526 150.903 384.059 151.27 383.675 151.689L383.588 151.624Z" fill="#3C1C16"/>
<path d="M389.097 151.624C389.268 151.344 389.51 151.098 389.811 150.937C390.107 150.771 390.46 150.699 390.801 150.717C391.492 150.762 392.096 151.14 392.532 151.615L392.46 151.698C391.941 151.344 391.389 151.024 390.785 150.995C390.186 150.943 389.604 151.228 389.187 151.689L389.099 151.624H389.097Z" fill="#3C1C16"/>
<path opacity="0.4" d="M392.565 158.069C393.531 158.069 394.314 157.288 394.314 156.324C394.314 155.361 393.531 154.58 392.565 154.58C391.6 154.58 390.817 155.361 390.817 156.324C390.817 157.288 391.6 158.069 392.565 158.069Z" fill="#EE6F57"/>
<path opacity="0.4" d="M385.11 156.588C385.11 157.507 384.398 158.252 383.5 158.319C383.226 157.316 383.051 156.163 382.928 154.898C383.067 154.86 383.208 154.842 383.361 154.842C384.326 154.842 385.112 155.626 385.112 156.588H385.11Z" fill="#EE6F57"/>
<path d="M158.067 179.885C156.947 181.287 153.371 193.2 153.371 193.2C153.371 193.2 157.113 195.537 162.88 194.917C162.665 194.913 158.065 179.885 158.065 179.885H158.067Z" fill="#EE6F57"/>
<path d="M169.478 306.515L169.916 300.899H162.337L161.286 303.266C160.844 304.264 160.238 305.169 159.515 305.962C161.762 307.14 165.262 308.427 169.478 306.513V306.515Z" fill="#F9B384"/>
<path d="M159.515 305.962C158.46 307.119 157.147 308.033 155.656 308.602L152.266 309.896C151.355 310.474 151.765 311.88 152.845 311.88H166.566C167.974 311.88 169.144 310.801 169.254 309.401L169.48 306.513C165.264 308.427 161.765 307.14 159.517 305.962H159.515Z" fill="#102048"/>
<path d="M191.964 306.515L191.526 300.899H199.105L200.155 303.266C200.598 304.264 201.204 305.169 201.927 305.962C199.679 307.14 196.18 308.427 191.964 306.513V306.515Z" fill="#F9B384"/>
<path d="M201.927 305.962C202.982 307.119 204.295 308.033 205.786 308.602L209.176 309.896C210.087 310.474 209.676 311.88 208.596 311.88H194.875C193.468 311.88 192.298 310.801 192.188 309.401L191.961 306.513C196.177 308.427 199.677 307.14 201.924 305.962H201.927Z" fill="#102048"/>
<path d="M202.389 303.091H187.034L175.87 236.217L172.379 303.091H158.343L159.174 234.437C157.742 228.051 158.209 223.118 160.2 217.945C160.698 216.628 161.307 215.296 162 213.919C162.465 213.001 162.972 212.054 163.522 211.086H188.082L188.52 213.919L188.767 215.48L202.389 303.089V303.091Z" fill="#708CD5"/>
<path d="M188.006 167.76L180.739 176.842L188.767 180.326L194.063 169.598L191.699 167.451L188.006 167.76Z" fill="#F9B384"/>
<path d="M176.471 178.273H168.133L168.695 166.963H177.032L176.471 178.273Z" fill="#F9B384"/>
<path d="M180.564 158.055C182.371 160.377 183.352 161.569 183.26 162.088C183.168 162.608 182.524 163.707 180.288 163.342C180.38 162.946 180.564 158.055 180.564 158.055Z" fill="#E28B6D"/>
<path d="M181.04 164.699C180.73 166.649 179.87 168.06 177.951 168.25C173.05 168.741 168.392 166.701 168.392 166.701L167.491 156.027L171.822 152.93L180.564 154.235C180.656 156.161 181.004 158.541 181.138 160.792C181.221 162.191 181.226 163.544 181.04 164.699Z" fill="#F9B384"/>
<path d="M177.01 155.662C179.134 157.659 181.686 157.825 183.267 156.477C186.609 153.624 184.423 146.738 177.01 149.307C177.01 149.307 168.841 145.599 164.102 150.489C159.362 155.377 162.961 160.628 157.111 168.329C157.111 168.329 168.297 175.696 181.45 168.723C179.347 164.965 175.21 167.935 175.091 161.622C175.05 161.531 174.437 156.273 177.01 155.664V155.662Z" fill="#102048"/>
<path opacity="0.3" d="M189.795 213.921C189.705 214.425 189.353 214.951 188.767 215.482C185.04 218.868 172.019 222.184 160.2 217.945C160.698 216.629 161.307 215.296 162 213.919H189.793L189.795 213.921Z" fill="#1F3C88"/>
<path d="M188.785 215.601C187.067 216.355 169.007 220.173 160.424 215.224C159.773 214.66 158.083 214.127 160.469 211.089C162.853 208.043 159.095 191.843 158.067 179.885C161.217 176.844 165.487 174.679 169.512 173.895C172.92 173.228 176.588 173.515 179.58 173.895C182.571 174.276 187.528 176.273 187.528 176.273L187.146 189.87C187.146 189.87 187.027 190.515 186.881 191.583C186.881 191.583 186.88 191.583 186.877 191.583C186.623 193.43 186.266 196.554 186.255 199.767C186.228 203.663 186.704 207.705 188.459 209.788C191.524 213.433 190.498 214.837 188.785 215.598V215.601Z" fill="#EE6F57"/>
<path d="M196.519 184.744L194.449 196.35C194.431 196.344 194.42 196.339 194.408 196.328L191.806 194.691L191.732 194.64C191.692 194.61 191.652 194.584 191.611 194.559L181.543 188.226L177.297 173.647C181.444 174.263 185.981 174.572 188.818 177.133C190.866 178.987 194.213 182.393 196.519 184.744Z" fill="#EE6F57"/>
<path d="M209.647 170.107C209.647 170.107 206.356 192.199 205.783 194.411C205.705 194.713 205.615 195.016 205.503 195.322C204.811 197.266 203.431 199.163 200.71 198.972C200.104 198.934 199.367 198.726 198.582 198.424C197.235 197.909 195.737 197.107 194.444 196.348L196.516 184.744C197.403 185.645 198.139 186.39 198.588 186.827L202.178 169.039L209.647 170.109V170.107Z" fill="#F9B384"/>
<path d="M224.576 149.007C218.093 149.007 212.839 153.116 212.839 158.192C212.839 160.33 213.775 162.301 215.349 163.864H187.045V135.78C185.507 137.258 183.588 138.131 181.511 138.131C176.426 138.131 172.302 132.891 172.302 126.424C172.302 119.957 176.429 114.724 181.511 114.724C183.588 114.724 185.507 115.598 187.045 117.076V88.9892H215.63C213.89 90.5858 212.839 92.6615 212.839 94.9298C212.839 100.002 218.093 104.115 224.576 104.115C231.059 104.115 236.306 99.9994 236.306 94.9298C236.306 92.6615 235.257 90.5858 233.518 88.9892H262.107V117.725C263.739 115.86 265.894 114.724 268.269 114.724C273.354 114.724 277.478 119.964 277.478 126.429C277.478 132.893 273.354 138.129 268.269 138.129C265.896 138.129 263.741 136.991 262.107 135.128V163.862H233.798C235.37 162.301 236.306 160.33 236.306 158.19C236.306 153.113 231.053 149.004 224.576 149.004V149.007Z" fill="#FBC343"/>
<path d="M202.187 170.72C201.848 168.517 202.281 166.152 202.773 163.472L210.424 163.544C209.429 165.85 211.263 168.156 209.647 170.107L206.111 173.889L202.189 170.72H202.187Z" fill="#F9B384"/>
<path d="M194.063 169.598C195.951 168.327 198.054 163.577 198.054 163.577C196.59 163.503 191.286 163.38 189.229 163.577C189.229 163.577 189.243 166.428 188.003 167.758C187.265 168.551 194.06 169.596 194.06 169.596L194.063 169.598Z" fill="#F9B384"/>
<path d="M176.316 161.331C176.121 160.194 175.452 159.536 174.343 159.209C173.616 158.996 172.612 159.336 172.354 160.162C171.894 161.629 172.599 165.326 175.968 163.676C176.345 163.51 176.561 162.749 176.316 161.331Z" fill="#F9B384"/>
<path d="M160.606 199.949C160.375 198.578 160.15 197.208 159.946 195.833L159.351 191.708L158.812 187.577C158.642 186.198 158.487 184.818 158.348 183.434L158.512 183.412C158.75 184.783 158.97 186.153 159.176 187.528L159.764 191.652L160.299 195.786C160.471 197.165 160.624 198.545 160.768 199.926L160.604 199.949H160.606Z" fill="#6F3428"/>
<path opacity="0.3" d="M186.877 191.583C186.623 193.43 186.266 196.554 186.255 199.767C183.796 195.334 182.708 188.959 182.708 188.959C182.708 188.959 184.795 190.269 186.877 191.585V191.583Z" fill="#6F3428"/>
<path d="M187.523 176.354C187.04 176.394 186.569 176.455 186.133 176.636C185.702 176.82 185.287 177.046 184.923 177.348C184.555 177.646 184.221 177.987 183.915 178.356C183.608 178.721 183.323 179.117 183.065 179.525L182.914 179.458C183.083 178.979 183.334 178.544 183.624 178.132C183.92 177.725 184.268 177.348 184.663 177.024C185.069 176.715 185.523 176.453 186.017 176.3C186.511 176.139 187.036 176.126 187.534 176.188L187.523 176.352V176.354Z" fill="#6F3428"/>
<path d="M171.577 235.767C172.307 235.904 173.03 236.033 173.766 236.069C174.5 236.107 175.236 236.132 175.971 236.072C176.705 236.031 177.439 235.951 178.166 235.832C178.893 235.718 179.621 235.57 180.337 235.393L180.391 235.548C179.693 235.836 178.968 236.033 178.231 236.192C177.495 236.342 176.745 236.439 175.993 236.486C175.241 236.524 174.482 236.51 173.732 236.421C172.98 236.342 172.244 236.159 171.53 235.922L171.575 235.765L171.577 235.767Z" fill="#1F3C88"/>
<path opacity="0.4" d="M181.04 164.699C180.921 164.726 180.797 164.735 180.667 164.735C179.553 164.735 178.66 163.841 178.66 162.733C178.66 161.625 179.556 160.731 180.667 160.731C180.826 160.731 180.988 160.751 181.138 160.794C181.221 162.193 181.226 163.546 181.04 164.701V164.699Z" fill="#EE6F57"/>
<path d="M174.509 161.065C174.323 160.776 174.109 160.476 173.876 160.413C173.768 160.382 173.649 160.407 173.517 160.483C173.38 160.548 173.256 160.671 173.108 160.776L172.985 160.689C173.059 160.512 173.158 160.344 173.324 160.207C173.481 160.075 173.739 159.977 173.984 160.048C174.217 160.131 174.379 160.295 174.48 160.469C174.583 160.644 174.644 160.832 174.657 161.027L174.511 161.072L174.509 161.065Z" fill="#6F3428"/>
<path d="M165.718 151.376C166.029 149.465 164.728 147.663 162.811 147.353C160.894 147.043 159.089 148.341 158.778 150.253C158.466 152.164 159.768 153.965 161.684 154.276C163.601 154.586 165.407 153.288 165.718 151.376Z" fill="#102048"/>
<path opacity="0.4" d="M205.503 195.322C204.811 197.266 203.431 199.163 200.71 198.972C200.104 198.934 199.367 198.726 198.582 198.424C199.7 195.408 202.046 194.579 205.503 195.322Z" fill="#EE6F57"/>
<path d="M210.819 162.301C210.763 162.587 210.597 162.892 210.52 163.275C209.964 166.15 209.779 166.584 209.779 166.584L207.579 165.465C208.013 163.958 209.106 161.824 209.69 161.101C210.004 160.709 210.211 160.46 210.554 160.778C210.819 161.013 210.969 161.506 210.819 162.301Z" fill="#F9B384"/>
<path d="M210.819 162.301C209.903 162.05 210.37 161.625 210.554 160.778C210.819 161.013 210.969 161.506 210.819 162.301Z" fill="#E28B6D"/>
<path d="M190.641 160.81C190.596 161.096 190.65 161.441 190.59 161.826C190.134 164.719 190.161 165.189 190.161 165.189L192.612 164.88C192.718 163.317 192.415 160.939 192.112 160.062C191.95 159.587 191.84 159.282 191.409 159.466C191.081 159.598 190.772 160.01 190.644 160.81H190.641Z" fill="#F9B384"/>
<path d="M190.641 160.809C191.586 160.883 191.295 160.324 191.407 159.466C191.079 159.598 190.769 160.01 190.641 160.809Z" fill="#E28B6D"/>
<path d="M192.642 163.08C192.642 163.326 192.738 163.559 192.888 163.727C193.039 163.893 193.297 164.032 193.436 164.33C193.555 164.625 193.501 164.925 193.423 165.18C193.335 165.438 193.21 165.682 193.037 165.888L192.945 165.83C193.048 165.595 193.133 165.36 193.187 165.116C193.243 164.876 193.266 164.63 193.18 164.437C193.113 164.242 192.882 164.11 192.704 163.877C192.527 163.642 192.469 163.338 192.532 163.067L192.639 163.08H192.642Z" fill="#E28B6D"/>
<path d="M208.442 163.416C208.376 163.774 208.186 164.115 207.896 164.356C207.602 164.616 207.234 164.681 207.072 164.936C206.884 165.178 206.805 165.512 206.78 165.841C206.753 166.172 206.796 166.511 206.895 166.837L206.794 166.88C206.621 166.564 206.538 166.199 206.536 165.832C206.542 165.469 206.612 165.084 206.852 164.766C207.112 164.43 207.508 164.363 207.748 164.171C208.008 163.978 208.219 163.705 208.334 163.387L208.439 163.414L208.442 163.416Z" fill="#E28B6D"/>
<g opacity="0.3">
<path d="M160.563 211.031C161.039 211.617 161.738 211.993 162.438 212.311C163.15 212.618 163.888 212.882 164.645 213.082C165.397 213.294 166.162 213.469 166.937 213.592C167.709 213.722 168.488 213.812 169.272 213.809L169.296 214.027C168.493 214.179 167.675 214.152 166.872 214.076C166.068 213.989 165.276 213.83 164.497 213.615C163.724 213.382 162.954 213.12 162.234 212.737C161.524 212.356 160.797 211.888 160.379 211.142L160.568 211.031H160.563Z" fill="#6F3428"/>
</g>
</svg>
