<svg fill="none" height="314" viewBox="0 0 559 314" width="559" xmlns="http://www.w3.org/2000/svg"><path d="m447.984 297.023c-6.476 0-11.73 4.109-11.73 9.185 0 2.138.937 4.109 2.508 5.672h-32.96c-4.147-11.711-6.403-24.307-6.403-37.435 0-13.129 2.256-25.729 6.409-37.44h32.974c-1.582-1.56-2.525-3.538-2.525-5.687 0-5.079 5.253-9.192 11.73-9.192 6.476 0 11.734 4.115 11.734 9.192 0 2.149-.943 4.124-2.526 5.687h17.268v28.087c-1.537-1.478-3.457-2.352-5.533-2.352-5.085 0-9.209 5.24-9.209 11.7s4.124 11.707 9.209 11.707c2.076 0 3.996-.873 5.533-2.351v28.084h-17.252c1.572-1.561 2.51-3.531 2.51-5.672 0-5.076-5.253-9.185-11.734-9.185z" fill="#fbc343"/><path d="m266.565 312.44c-7.073 0-12.847-5.648-13.029-12.661l-21.341-11.14h103.403l-21.343 11.14c-.182 7.011-5.958 12.661-13.03 12.661z" fill="#102048"/><path d="m333.315 289.199-19.617 10.238c0 6.872-5.585 12.441-12.473 12.441h-34.66c-6.889 0-12.473-5.571-12.473-12.441l-19.616-10.238h98.836m4.566-1.12h-107.968l4.045 2.112 19.031 9.933c.359 7.159 6.313 12.873 13.577 12.873h34.66c7.265 0 13.218-5.714 13.577-12.873l19.031-9.933 4.045-2.112z" fill="#fff"/><path d="m283.717 225.794c62.185 0 112.595-50.282 112.595-112.308 0-62.0256-50.41-112.30741-112.595-112.30741s-112.596 50.28181-112.596 112.30741c0 62.026 50.411 112.308 112.596 112.308z" fill="#fff"/><path d="m283.717 225.794c62.185 0 112.595-50.282 112.595-112.308 0-62.0256-50.41-112.30741-112.595-112.30741s-112.596 50.28181-112.596 112.30741c0 62.026 50.411 112.308 112.596 112.308z" fill="#fff"/><path d="m333.315 191.679h-98.837v53.694h98.837z" fill="#fbc343"/><path d="m333.315 245.373h-98.837v29.184h98.837z" fill="#708cd5"/><path d="m357.234 60.9856c-6.483 0-11.736 4.1134-11.736 9.1919 0 2.1497.943 4.1269 2.525 5.6876h-26.596v-25.4553c-1.555 1.5272-3.502 2.4408-5.623 2.4408-5.089 0-9.209-5.2398-9.209-11.7044s4.12-11.6998 9.209-11.6998c2.121 0 4.068.9113 5.623 2.4407v-24.50142c31.991 11.27892 57.348 36.57072 68.656 68.47942h-23.644c1.582-1.5629 2.525-3.5379 2.525-5.6876 0-5.0762-5.253-9.1919-11.73-9.1919z" fill="#fbd682"/><g fill="#fbc343"><path d="m321.427 197.349c-1.555 1.529-3.502 2.441-5.623 2.441-5.089 0-9.209-5.24-9.209-11.7s4.12-11.705 9.209-11.705c2.121 0 4.068.914 5.623 2.441v-28.086h26.581c-1.572-1.563-2.51-3.532-2.51-5.672 0-5.076 5.253-9.185 11.736-9.185 6.484 0 11.73 4.109 11.73 9.185 0 2.138-.936 4.109-2.507 5.672h23.632c-11.308 31.913-36.664 57.207-68.662 68.486z"/><path d="m357.234 135.883c-6.483 0-11.736 4.109-11.736 9.185 0 2.138.938 4.109 2.51 5.672h-26.58v-28.734c1.632 1.863 3.789 3.001 6.162 3.001 5.085 0 9.209-5.24 9.209-11.7s-4.124-11.707-9.209-11.707c-2.373 0-4.528 1.138-6.162 3.001v-28.7359h26.595c-1.582-1.5629-2.525-3.5379-2.525-5.6876 0-5.0762 5.253-9.1919 11.736-9.1919 6.484 0 11.73 4.1134 11.73 9.1919 0 2.1497-.943 4.1269-2.525 5.6876h23.644c4.153 11.7111 6.409 24.3109 6.409 37.4399 0 13.128-2.256 25.724-6.405 37.433h-23.633c1.572-1.563 2.508-3.532 2.508-5.672 0-5.077-5.253-9.186-11.73-9.186z"/><path d="m246.368 219.226v-21.788c-1.538 1.478-3.458 2.352-5.534 2.352-5.085 0-9.209-5.24-9.209-11.7s4.124-11.705 9.209-11.705c2.076 0 3.996.874 5.534 2.351v-27.994h28.304c-1.572-1.563-2.51-3.531-2.51-5.672 0-5.076 5.253-9.185 11.737-9.185 6.483 0 11.73 4.109 11.73 9.185 0 2.138-.937 4.109-2.508 5.672h28.309v28.086c-1.556-1.529-3.502-2.44-5.624-2.44-5.089 0-9.209 5.239-9.209 11.704 0 6.464 4.12 11.7 9.209 11.7 2.122 0 4.068-.912 5.624-2.441v21.877c-11.741 4.138-24.369 6.386-37.531 6.386s-25.788-2.25-37.531-6.386z"/><path d="m283.896 90.991c-6.483 0-11.736-4.1135-11.736-9.1853 0-2.2683 1.048-4.344 2.79-5.9406h-28.585v-25.3657c-1.537 1.4778-3.457 2.3511-5.533 2.3511-5.085 0-9.209-5.2397-9.209-11.7043s4.124-11.6999 9.209-11.6999c2.076 0 3.996.8733 5.533 2.3512v-24.41185c11.741-4.13805 24.369-6.388458 37.531-6.388458 13.163 0 25.788 2.250408 37.532 6.388458v24.50145c-1.556-1.5272-3.503-2.4408-5.624-2.4408-5.089 0-9.209 5.2398-9.209 11.6999s4.12 11.7043 9.209 11.7043c2.121 0 4.068-.9113 5.624-2.4407v25.4553h-28.59c1.74 1.5966 2.788 3.6723 2.788 5.9406 0 5.0718-5.253 9.1853-11.73 9.1853z"/></g><path d="m219.888 60.9856c-6.476 0-11.729 4.1134-11.729 9.1919 0 2.1497.942 4.1269 2.525 5.6876h-32.974c11.308-31.9087 36.665-57.2005 68.655-68.47942v24.41182c-1.537-1.4779-3.457-2.3511-5.533-2.3511-5.085 0-9.209 5.2397-9.209 11.6998s4.124 11.7044 9.209 11.7044c2.076 0 3.996-.8733 5.533-2.3512v25.3657h-17.268c1.583-1.5629 2.526-3.5379 2.526-5.6876 0-5.0762-5.253-9.1919-11.737-9.1919z" fill="#fbd682"/><path d="m357.234 60.9856c-6.483 0-11.736 4.1134-11.736 9.1919 0 2.1497.943 4.1269 2.525 5.6876h-26.596v-25.4553c-1.555 1.5272-3.502 2.4408-5.623 2.4408-5.089 0-9.209-5.2398-9.209-11.7044s4.12-11.6998 9.209-11.6998c2.121 0 4.068.9113 5.623 2.4407v-24.50142c31.991 11.27892 57.348 36.57072 68.656 68.47942h-23.644c1.582-1.5629 2.525-3.5379 2.525-5.6876 0-5.0762-5.253-9.1919-11.73-9.1919z" fill="#fbc343"/><path d="m357.234 135.883c-6.483 0-11.736 4.109-11.736 9.185 0 2.138.938 4.109 2.51 5.672h-26.58v-28.734c1.632 1.863 3.789 3.001 6.162 3.001 5.085 0 9.209-5.24 9.209-11.7s-4.124-11.707-9.209-11.707c-2.373 0-4.528 1.138-6.162 3.001v-28.7359h26.595c-1.582-1.5629-2.525-3.5379-2.525-5.6876 0-5.0762 5.253-9.1919 11.736-9.1919 6.484 0 11.73 4.1134 11.73 9.1919 0 2.1497-.943 4.1269-2.525 5.6876h23.644c4.153 11.7111 6.409 24.3109 6.409 37.4399 0 13.128-2.256 25.724-6.405 37.433h-23.633c1.572-1.563 2.508-3.532 2.508-5.672 0-5.077-5.253-9.186-11.73-9.186z" fill="#fbc343"/><path d="m283.896 90.991c-6.483 0-11.736-4.1135-11.736-9.1853 0-2.2683 1.048-4.344 2.79-5.9406h-28.585v-25.3657c-1.537 1.4778-3.457 2.3511-5.533 2.3511-5.085 0-9.209-5.2397-9.209-11.7043s4.124-11.6999 9.209-11.6999c2.076 0 3.996.8733 5.533 2.3512v-24.41185c11.741-4.13805 24.369-6.388458 37.531-6.388458 13.163 0 25.788 2.250408 37.532 6.388458v24.50145c-1.556-1.5272-3.503-2.4408-5.624-2.4408-5.089 0-9.209 5.2398-9.209 11.6999s4.12 11.7043 9.209 11.7043c2.121 0 4.068-.9113 5.624-2.4407v25.4553h-28.59c1.74 1.5966 2.788 3.6723 2.788 5.9406 0 5.0718-5.253 9.1853-11.73 9.1853z" fill="#fbc343"/><path d="m219.888 60.9856c-6.476 0-11.729 4.1134-11.729 9.1919 0 2.1497.942 4.1269 2.525 5.6876h-32.974c11.308-31.9087 36.665-57.2005 68.655-68.47942v24.41182c-1.537-1.4779-3.457-2.3511-5.533-2.3511-5.085 0-9.209 5.2397-9.209 11.6998s4.124 11.7044 9.209 11.7044c2.076 0 3.996-.8733 5.533-2.3512v25.3657h-17.268c1.583-1.5629 2.526-3.5379 2.526-5.6876 0-5.0762-5.253-9.1919-11.737-9.1919z" fill="#fbc343"/><path d="m390.083 76.4249h-25.011l.969-.9583c1.543-1.5227 2.36-3.3521 2.36-5.2891 0-4.7605-5.011-8.6321-11.169-8.6321s-11.175 3.8716-11.175 8.6321c0 1.937.815 3.7664 2.359 5.2891l.97.9583h-28.524v-24.7835c-1.52 1.1621-3.251 1.7712-5.063 1.7712-5.387 0-9.77-5.5017-9.77-12.2641 0-6.7625 4.383-12.2597 9.77-12.2597 1.814 0 3.543.6091 5.063 1.7712v-23.27432h1.122v25.84042l-.956-.9382c-1.518-1.4913-3.325-2.2795-5.231-2.2795-4.768 0-8.647 4.9979-8.647 11.1401 0 6.1421 3.879 11.1445 8.647 11.1445 1.904 0 3.713-.7882 5.231-2.2795l.956-.9382v26.2323h24.787c-1.192-1.5294-1.839-3.3118-1.839-5.1278 0-5.3764 5.516-9.7518 12.298-9.7518s12.291 4.3754 12.291 9.7518c0 1.816-.644 3.5984-1.839 5.1278h22.396v1.1196z" fill="#fdf6e6"/><path d="m321.989 219.224h-1.123v-20.648c-1.52 1.162-3.25 1.771-5.062 1.771-5.388 0-9.77-5.499-9.77-12.26 0-6.76 4.382-12.266 9.77-12.266 1.814 0 3.542.609 5.062 1.771v-27.414h25.898c-1.185-1.527-1.827-3.303-1.827-5.11 0-5.374 5.515-9.745 12.297-9.745s12.292 4.373 12.292 9.745c0 1.807-.643 3.585-1.828 5.11h22.391v1.119h-24.993l.963-.956c1.534-1.525 2.344-3.348 2.344-5.273 0-4.756-5.011-8.626-11.169-8.626-6.157 0-11.175 3.87-11.175 8.626 0 1.925.81 3.75 2.344 5.273l.963.956h-27.377v28.864l-.957-.939c-1.517-1.491-3.324-2.279-5.23-2.279-4.769 0-8.648 5-8.648 11.147 0 6.146 3.879 11.14 8.648 11.14 1.903 0 3.713-.788 5.23-2.28l.957-.938v23.214z" fill="#fdf6e6"/><path d="m246.929 75.8651h-1.123v-24.1543c-1.495 1.1151-3.192 1.6996-4.972 1.6996-5.388 0-9.772-5.5018-9.772-12.2642s4.384-12.2596 9.772-12.2596c1.778 0 3.477.5844 4.972 1.6995v-23.20042h1.123v25.73072l-.95-.9136c-1.493-1.4353-3.273-2.1944-5.143-2.1944-4.768 0-8.65 4.9979-8.65 11.1401 0 6.1421 3.88 11.1445 8.65 11.1445 1.872 0 3.65-.7591 5.143-2.1944l.95-.9136v26.6824z" fill="#fdf6e6"/><path d="m333.876 273.997h-99.959v15.762h99.959z" fill="#102048"/><path d="m333.314 274.557v14.642h-98.836v-14.642zm1.123-1.12h-101.081v16.881h101.081z" fill="#fff"/><path d="m263.836 165.541h-22.735v-1.68h21.051v-22.998h1.684z" fill="#fdf6e6"/><path d="m148.778 310.158c-31.41-12.817-55.5046-39.307-65.2455-71.731l32.9225 1.597c-1.493-1.637-2.335-3.65-2.23-5.786.247-5.072 5.694-8.921 12.164-8.608 6.474.314 11.521 4.673 11.274 9.745-.104 2.136-1.136 4.06-2.782 5.542l17.232.835-1.362 27.964c-1.464-1.55-3.338-2.517-5.413-2.616-5.078-.246-9.453 4.788-9.77 11.245-.314 6.454 3.552 11.886 8.63 12.133 2.074.1 4.034-.679 5.641-2.081l-1.061 21.763z" fill="#fbc343"/><path d="m87.6498 263.47v48.376h100.3022v-48.376zm61.5272 14.365c0 2.013-1.652 3.661-3.67 3.661h-15.416c-2.019 0-3.671-1.648-3.671-3.661s1.652-3.661 3.671-3.661h15.416c2.018 0 3.67 1.648 3.67 3.661z" fill="#e5ecff" stroke="#708cd5" stroke-miterlimit="10" stroke-width="3.75"/><path d="m187.95 311.848s-70.956-4.98-100.3025-48.375v48.375z" fill="#1f3c88" opacity=".2"/><path d="m362.955 170.917c.805-2.203-.357-3.524-.391-4.72s.332-2.259-.317-2.416c-.648-.157-1.414.828-1.836 6.028l2.541 1.108z" fill="#f9b384"/><path d="m363.659 173.018-.841 3.385h-5.283l-3.23-7.199c-.465-.869-1.727-4.355-1.614-5.089.211-1.371 1.885 2.026 1.964 2.082-.299-1.03-1.311-4.272-.842-5.002.561-.876 2.263 2.915 2.701 4.057-.218-1.057-1.45-5.054-.849-5.634.721-.696 2.391 3.717 2.649 5.099-.067-1.037-.566-4.575.128-4.49.959.117 2.634 6.324 2.634 6.324s1.717 2.586 2.581 6.471z" fill="#f9b384"/><path d="m355.396 168.286c.599-.557 1.268-1.052 2.018-1.417.377-.177.779-.314 1.194-.385.416-.068.847-.063 1.251.04l-.018.107c-.806-.06-1.59.141-2.308.486-.727.334-1.392.802-2.07 1.252l-.067-.085z" fill="#e28b6d"/><path d="m360.409 167.876c-.355.012-.689.155-.824.455-.142.291-.169.647-.139.992.022.349.094.698.193 1.039.096.34.22.678.39.987l-.087.065c-.249-.286-.407-.631-.537-.978-.123-.352-.211-.717-.238-1.095-.015-.374 0-.777.211-1.129.045-.089.131-.159.196-.235.083-.058.17-.116.262-.157.099-.02.193-.056.29-.06l.287.004-.006.11z" fill="#e28b6d"/><path d="m382.537 305.63.508-6.505h-8.78l-1.217 2.743c-.514 1.158-1.215 2.206-2.052 3.124 2.602 1.366 6.656 2.857 11.541.638z" fill="#f9b384"/><path d="m370.998 304.992c-1.221 1.341-2.743 2.398-4.472 3.059l-3.926 1.498c-1.055.669-.582 2.299.669 2.299h15.894c1.63 0 2.986-1.251 3.112-2.872l.26-3.346c-4.885 2.217-8.937.726-11.541-.638z" fill="#102048"/><path d="m404.042 305.63-.508-6.505h8.78l1.217 2.743c.514 1.158 1.214 2.206 2.052 3.124-2.602 1.366-6.656 2.857-11.541.638z" fill="#f9b384"/><path d="m415.583 304.992c1.221 1.341 2.743 2.398 4.472 3.059l3.926 1.498c1.055.669.582 2.299-.669 2.299h-15.894c-1.63 0-2.986-1.251-3.111-2.872l-.261-3.346c4.885 2.217 8.937.726 11.541-.638z" fill="#102048"/><path d="m414.519 300.375h-15.109l-8.207-63.383-4.266 28.8-.886 34.581h-14.189c-1.113-26.84.297-55.685 4.939-87.101l.315-4.994.359-5.694 28.54 2.089.341 3.879.662 7.4 7.499 84.418z" fill="#1f3c88"/><path d="m407.021 215.957c-2.688 4.05-21.426 3.909-30.321-1.048l.418-6.626 29.24.273z" fill="#102048" opacity=".6"/><path d="m376.011 204.257s-2.824 7.293-.402 8.692c2.423 1.4 30.388 1.68 32.601 0 2.214-1.679-3.142-5.878-2.633-8.677.51-2.799-29.568-.015-29.568-.015z" fill="#708cd5"/><path d="m373.62 174.276c-.981 2.17-4.629 8.746-4.629 8.746l-5.332-10.007c-1.194.965-2.599 1.866-6.777 1.924 0 0 6.005 22.148 11.407 24.425 8.858 3.735 10.944-12.983 10.944-12.983z" fill="#708cd5"/><path d="m373.62 174.276 1.444-3.379c.572-1.341 1.58-2.483 2.907-3.095.128-.058.256-.112.388-.163 2.508-.947 7.157-2.436 11.468-2.389 1.542 0 7.287-.07 16.617 2.311l2.606 33.236-30.868-.629-4.559-25.89z" fill="#708cd5"/><path d="m401.17 174.276c.725 12.49-.285 25.914-7.576 26.781l8.423 2.365 9.047-4.828-3.579-19.663-6.312-4.653z" fill="#1f3c88" opacity=".3"/><path d="m402.537 166.656c1.862.408 4.969.833 6.511 1.883s5.893 23.512 7.015 28.689c1.123 5.177 1.403 10.497-21.607 11.335l-2.245-6.297 13.469-5.177-5.165-22.813 2.02-7.62z" fill="#708cd5"/><path d="m377.733 175.989c.162 2.248.236 4.499.31 6.749l.067 3.377c.009 1.126.016 2.252-.009 3.379l-.164.004c-.085-1.124-.141-2.248-.193-3.374l-.116-3.377c-.048-2.251-.097-4.503-.059-6.756l.164-.004z" fill="#1f3c88"/><path d="m403.4 199.187v1.297l-6.426 5.788-.502-2.387z" fill="#102048"/><path d="m396.041 205.432 7.359-6.245-13.856-1.726z" fill="#fff"/><path d="m396.974 206.272h-26.64l-4.461-21.149h26.641z" fill="#102048"/><path d="m382.914 197.183h-2.979l-.561-2.969h2.979z" fill="#fff"/><path d="m380.517 143.67c-2.988-7.564 9.498-10.363 10.717-4.032 0 0 3.567-1.85 7.11.112 6.825 3.775 2.418 14.407 0 14.407l-12.329-1.606z" fill="#6f3428"/><path d="m396.128 158.004v7.743c0 2.127-2.043 3.854-4.575 3.854s-4.569-1.727-4.569-3.854v-7.743z" fill="#f9b384"/><path d="m394.157 160.91c-1.174 1.55-3.693 3.337-7.173 3.375v-4.08z" fill="#3c1c16"/><path d="m396.128 145.486v13.257s-2.608 4.422-7.947 4.057c-2.649-.186-3.985-1.836-4.681-4.483-.274-1.003-.449-2.156-.572-3.421-.202-2.123-.258-4.58-.33-7.233v-2.177z" fill="#f9b384"/><path d="m382.706 142.273c-1.648-1.433-4.986-.342-5.967 1.673-1.386 2.846.419 5.721 2.761 6.507 3.396 1.142 4.775-2.42 4.775-2.42s1.098 1.547 3.54 1.211c1.76-.242 2.366-1.968 2.366-1.968s.544 4.404 6.342 4.297c1.244-.424 1.821-5.236 1.821-5.236l-3.823-3.965z" fill="#6f3428"/><path d="m394.456 208.565c-2.849.58-5.835.925-8.729.484-1.8-.276-3.567-.892-5.022-2.009-1.198-.92-2.238-2.237-2.893-3.598-.158-.33-.27-.815.004-1.113.301-.325.844.235 1.134.45 1.407 1.054 2.456 2.613 2.456 2.613s-2.185-3.576-1.637-4.152c.42-.443 1.06-.335 3.258 3.303 0 0 .415.896.812.43.214-.251-1.255-3.067-.186-3.312.819-.185 1.589 2.475 2.151 3.525.7.815 1.917 0 1.917 0l5.926 1.113.809 2.268z" fill="#f9b384"/><path d="m387.566 205.349c-.099-.613-.258-1.209-.485-1.764-.052-.128-.108-.258-.132-.399-.088-.519.374-.676.684-.568.68.235 1.287 1.137 1.686 1.84.35.616.557 1.393.454 2.143-.032.229-1.944.233-2.07-.045-.029-.065-.034-.143-.036-.217-.016-.331-.052-.663-.103-.987z" fill="#f9b384"/><path d="m389.91 226.407c.359 2.302.709 4.606 1.03 6.912l.945 6.924.873 6.933.405 3.47.365 3.476-.217.029-.539-3.453-.501-3.457-.938-6.924-.864-6.933c-.281-2.313-.537-4.628-.779-6.943l.217-.03z" fill="#708cd5"/><path d="m386.286 171.325c1.473 1.341 3.455 2.087 5.417 1.957.979-.054 1.942-.325 2.818-.773.882-.441 1.67-1.059 2.395-1.751l.121.11c-.653.779-1.441 1.462-2.346 1.964-.904.499-1.926.804-2.963.864-1.037.052-2.088-.116-3.044-.513-.956-.389-1.83-.983-2.514-1.746l.116-.115z" fill="#1f3c88"/><path d="m395.482 152.231c.606-1.494 1.773-1.91 2.909-1.379 1.803.842 1.206 5.501-2.909 5.604z" fill="#f9b384"/><path d="m396.389 153.075c-.086-.441.049-.902.368-1.265.166-.172.429-.307.691-.287.263.025.472.164.615.332l-.099.132c-.19-.065-.365-.119-.516-.096-.148.013-.278.089-.393.21-.125.112-.213.276-.301.439-.083.168-.15.347-.202.537h-.163z" fill="#6f3428"/><path d="m385.783 153.008c0 .524-.289.947-.648.947-.36 0-.649-.423-.649-.947s.289-.947.649-.947c.359 0 .648.423.648.947z" fill="#3c1c16"/><path d="m391.281 153.008c0 .524-.289.947-.648.947-.36 0-.649-.423-.649-.947s.289-.947.649-.947c.359 0 .648.423.648.947z" fill="#3c1c16"/><path d="m387.636 153.375c.067.193.107.397.139.6.015.103.02.206.024.309.003.099.014.233-.06.374-.16.278-.42.321-.559.408-.139.074-.249.195-.315.336-.145.271-.067.636.171.837.238.213.638.244 1.019.211l.036.159c-.379.138-.862.199-1.279-.081-.402-.282-.55-.867-.324-1.312.11-.217.29-.396.508-.502.206-.094.377-.152.428-.23.057-.065.054-.316.061-.493.009-.193-.004-.387-.016-.582l.162-.034z" fill="#e28b6d"/><path d="m386.149 158.613c.326.105.674.159 1.017.183.346.021.69.027 1.028-.022.339-.036.674-.112.991-.233.318-.116.619-.28.913-.475l.112.119c-.233.291-.543.522-.882.694-.341.166-.714.269-1.089.311-.374.032-.754.032-1.122-.04-.366-.067-.73-.177-1.051-.392l.079-.145z" fill="#3c1c16"/><path d="m383.588 151.624c.15-.253.337-.495.59-.676.247-.186.573-.293.892-.28.321.016.617.134.875.287.258.159.48.358.68.575l-.072.083c-.242-.157-.473-.322-.725-.443-.247-.124-.507-.213-.77-.224-.532-.043-.999.324-1.383.743z" fill="#3c1c16"/><path d="m389.097 151.624c.171-.28.413-.526.714-.687.296-.166.649-.238.99-.22.691.045 1.295.423 1.731.898l-.072.083c-.519-.354-1.071-.674-1.675-.703-.599-.052-1.181.233-1.598.694l-.088-.065z" fill="#3c1c16"/><path d="m392.565 158.069c.966 0 1.749-.781 1.749-1.745 0-.963-.783-1.744-1.749-1.744-.965 0-1.748.781-1.748 1.744 0 .964.783 1.745 1.748 1.745z" fill="#ee6f57" opacity=".4"/><path d="m385.11 156.588c0 .919-.712 1.664-1.61 1.731-.274-1.003-.449-2.156-.572-3.421.139-.038.28-.056.433-.056.965 0 1.751.784 1.751 1.746z" fill="#ee6f57" opacity=".4"/><path d="m158.067 179.885c-1.12 1.402-4.696 13.315-4.696 13.315s3.742 2.337 9.509 1.717c-.215-.004-4.815-15.032-4.815-15.032z" fill="#ee6f57"/><path d="m169.478 306.515.438-5.616h-7.579l-1.051 2.367c-.442.998-1.048 1.903-1.771 2.696 2.247 1.178 5.747 2.465 9.963.551z" fill="#f9b384"/><path d="m159.515 305.962c-1.055 1.157-2.368 2.071-3.859 2.64l-3.39 1.294c-.911.578-.501 1.984.579 1.984h13.721c1.408 0 2.578-1.079 2.688-2.479l.226-2.888c-4.216 1.914-7.715.627-9.963-.551z" fill="#102048"/><path d="m191.964 306.515-.438-5.616h7.579l1.05 2.367c.443.998 1.049 1.903 1.772 2.696-2.248 1.178-5.747 2.465-9.963.551z" fill="#f9b384"/><path d="m201.927 305.962c1.055 1.157 2.368 2.071 3.859 2.64l3.39 1.294c.911.578.5 1.984-.58 1.984h-13.721c-1.407 0-2.577-1.079-2.687-2.479l-.227-2.888c4.216 1.914 7.716.627 9.963-.551z" fill="#102048"/><path d="m202.389 303.091h-15.355l-11.164-66.874-3.491 66.874h-14.036l.831-68.654c-1.432-6.386-.965-11.319 1.026-16.492.498-1.317 1.107-2.649 1.8-4.026.465-.918.972-1.865 1.522-2.833h24.56l.438 2.833.247 1.561 13.622 87.609z" fill="#708cd5"/><path d="m188.006 167.76-7.267 9.082 8.028 3.484 5.296-10.728-2.364-2.147z" fill="#f9b384"/><path d="m176.471 178.273h-8.338l.562-11.31h8.337z" fill="#f9b384"/><path d="m180.564 158.055c1.807 2.322 2.788 3.514 2.696 4.033-.092.52-.736 1.619-2.972 1.254.092-.396.276-5.287.276-5.287z" fill="#e28b6d"/><path d="m181.04 164.699c-.31 1.95-1.17 3.361-3.089 3.551-4.901.491-9.559-1.549-9.559-1.549l-.901-10.674 4.331-3.097 8.742 1.305c.092 1.926.44 4.306.574 6.557.083 1.399.088 2.752-.098 3.907z" fill="#f9b384"/><path d="m177.01 155.662c2.124 1.997 4.676 2.163 6.257.815 3.342-2.853 1.156-9.739-6.257-7.17 0 0-8.169-3.708-12.908 1.182-4.74 4.888-1.141 10.139-6.991 17.84 0 0 11.186 7.367 24.339.394-2.103-3.758-6.24-.788-6.359-7.101-.041-.091-.654-5.349 1.919-5.958z" fill="#102048"/><path d="m189.795 213.921c-.09.504-.442 1.03-1.028 1.561-3.727 3.386-16.748 6.702-28.567 2.463.498-1.316 1.107-2.649 1.8-4.026h27.793z" fill="#1f3c88" opacity=".3"/><path d="m188.785 215.601c-1.718.754-19.778 4.572-28.361-.377-.651-.564-2.341-1.097.045-4.135 2.384-3.046-1.374-19.246-2.402-31.204 3.15-3.041 7.42-5.206 11.445-5.99 3.408-.667 7.076-.38 10.068 0 2.991.381 7.948 2.378 7.948 2.378l-.382 13.597s-.119.645-.265 1.713c0 0-.001 0-.004 0-.254 1.847-.611 4.971-.622 8.184-.027 3.896.449 7.938 2.204 10.021 3.065 3.645 2.039 5.049.326 5.81z" fill="#ee6f57"/><path d="m196.519 184.744-2.07 11.606c-.018-.006-.029-.011-.041-.022l-2.602-1.637-.074-.051c-.04-.03-.08-.056-.121-.081l-10.068-6.333-4.246-14.579c4.147.616 8.684.925 11.521 3.486 2.048 1.854 5.395 5.26 7.701 7.611z" fill="#ee6f57"/><path d="m209.647 170.107s-3.291 22.092-3.864 24.304c-.078.302-.168.605-.28.911-.692 1.944-2.072 3.841-4.793 3.65-.606-.038-1.343-.246-2.128-.548-1.347-.515-2.845-1.317-4.138-2.076l2.072-11.604c.887.901 1.623 1.646 2.072 2.083l3.59-17.788 7.469 1.07z" fill="#f9b384"/><path d="m224.576 149.007c-6.483 0-11.737 4.109-11.737 9.185 0 2.138.936 4.109 2.51 5.672h-28.304v-28.084c-1.538 1.478-3.457 2.351-5.534 2.351-5.085 0-9.209-5.24-9.209-11.707s4.127-11.7 9.209-11.7c2.077 0 3.996.874 5.534 2.352v-28.0868h28.585c-1.74 1.5966-2.791 3.6723-2.791 5.9406 0 5.0722 5.254 9.1852 11.737 9.1852s11.73-4.1156 11.73-9.1852c0-2.2683-1.049-4.344-2.788-5.9406h28.589v28.7358c1.632-1.865 3.787-3.001 6.162-3.001 5.085 0 9.209 5.24 9.209 11.705 0 6.464-4.124 11.7-9.209 11.7-2.373 0-4.528-1.138-6.162-3.001v28.734h-28.309c1.572-1.561 2.508-3.532 2.508-5.672 0-5.077-5.253-9.186-11.73-9.186z" fill="#fbc343"/><path d="m202.187 170.72c-.339-2.203.094-4.568.586-7.248l7.651.072c-.995 2.306.839 4.612-.777 6.563l-3.536 3.782-3.922-3.169z" fill="#f9b384"/><path d="m194.063 169.598c1.888-1.271 3.991-6.021 3.991-6.021-1.464-.074-6.768-.197-8.825 0 0 0 .014 2.851-1.226 4.181-.738.793 6.057 1.838 6.057 1.838z" fill="#f9b384"/><path d="m176.316 161.331c-.195-1.137-.864-1.795-1.973-2.122-.727-.213-1.731.127-1.989.953-.46 1.467.245 5.164 3.614 3.514.377-.166.593-.927.348-2.345z" fill="#f9b384"/><path d="m160.606 199.949c-.231-1.371-.456-2.741-.66-4.116l-.595-4.125-.539-4.131c-.17-1.379-.325-2.759-.464-4.143l.164-.022c.238 1.371.458 2.741.664 4.116l.588 4.124.535 4.134c.172 1.379.325 2.759.469 4.14l-.164.023z" fill="#6f3428"/><path d="m186.877 191.583c-.254 1.847-.611 4.971-.622 8.184-2.459-4.433-3.547-10.808-3.547-10.808s2.087 1.31 4.169 2.626z" fill="#6f3428" opacity=".3"/><path d="m187.523 176.354c-.483.04-.954.101-1.39.282-.431.184-.846.41-1.21.712-.368.298-.702.639-1.008 1.008-.307.365-.592.761-.85 1.169l-.151-.067c.169-.479.42-.914.71-1.326.296-.407.644-.784 1.039-1.108.406-.309.86-.571 1.354-.724.494-.161 1.019-.174 1.517-.112l-.011.164z" fill="#6f3428"/><path d="m171.577 235.767c.73.137 1.453.266 2.189.302.734.038 1.47.063 2.205.003.734-.041 1.468-.121 2.195-.24.727-.114 1.455-.262 2.171-.439l.054.155c-.698.288-1.423.485-2.16.644-.736.15-1.486.247-2.238.294-.752.038-1.511.024-2.261-.065-.752-.079-1.488-.262-2.202-.499l.045-.157z" fill="#1f3c88"/><path d="m181.04 164.699c-.119.027-.243.036-.373.036-1.114 0-2.007-.894-2.007-2.002s.896-2.002 2.007-2.002c.159 0 .321.02.471.063.083 1.399.088 2.752-.098 3.907z" fill="#ee6f57" opacity=".4"/><path d="m174.509 161.065c-.186-.289-.4-.589-.633-.652-.108-.031-.227-.006-.359.07-.137.065-.261.188-.409.293l-.123-.087c.074-.177.173-.345.339-.482.157-.132.415-.23.66-.159.233.083.395.247.496.421.103.175.164.363.177.558l-.146.045z" fill="#6f3428"/><path d="m165.718 151.376c.311-1.911-.99-3.713-2.907-4.023s-3.722.988-4.033 2.9c-.312 1.911.99 3.712 2.906 4.023 1.917.31 3.723-.988 4.034-2.9z" fill="#102048"/><path d="m205.503 195.322c-.692 1.944-2.072 3.841-4.793 3.65-.606-.038-1.343-.246-2.128-.548 1.118-3.016 3.464-3.845 6.921-3.102z" fill="#ee6f57" opacity=".4"/><path d="m210.819 162.301c-.056.286-.222.591-.299.974-.556 2.875-.741 3.309-.741 3.309l-2.2-1.119c.434-1.507 1.527-3.641 2.111-4.364.314-.392.521-.641.864-.323.265.235.415.728.265 1.523z" fill="#f9b384"/><path d="m210.819 162.301c-.916-.251-.449-.676-.265-1.523.265.235.415.728.265 1.523z" fill="#e28b6d"/><path d="m190.641 160.81c-.045.286.009.631-.051 1.016-.456 2.893-.429 3.363-.429 3.363l2.451-.309c.106-1.563-.197-3.941-.5-4.818-.162-.475-.272-.78-.703-.596-.328.132-.637.544-.765 1.344z" fill="#f9b384"/><path d="m190.641 160.809c.945.074.654-.485.766-1.343-.328.132-.638.544-.766 1.343z" fill="#e28b6d"/><path d="m192.642 163.08c0 .246.096.479.246.647.151.166.409.305.548.603.119.295.065.595-.013.85-.088.258-.213.502-.386.708l-.092-.058c.103-.235.188-.47.242-.714.056-.24.079-.486-.007-.679-.067-.195-.298-.327-.476-.56-.177-.235-.235-.539-.172-.81l.107.013z" fill="#e28b6d"/><path d="m208.442 163.416c-.066.358-.256.699-.546.94-.294.26-.662.325-.824.58-.188.242-.267.576-.292.905-.027.331.016.67.115.996l-.101.043c-.173-.316-.256-.681-.258-1.048.006-.363.076-.748.316-1.066.26-.336.656-.403.896-.595.26-.193.471-.466.586-.784l.105.027z" fill="#e28b6d"/><path d="m160.563 211.031c.476.586 1.175.962 1.875 1.28.712.307 1.45.571 2.207.771.752.212 1.517.387 2.292.51.772.13 1.551.22 2.335.217l.024.218c-.803.152-1.621.125-2.424.049-.804-.087-1.596-.246-2.375-.461-.773-.233-1.543-.495-2.263-.878-.71-.381-1.437-.849-1.855-1.595l.189-.111z" fill="#6f3428" opacity=".3"/></svg>