<svg fill="none" height="309" viewBox="0 0 266 309" width="266" xmlns="http://www.w3.org/2000/svg" xmlns:xlink="http://www.w3.org/1999/xlink"><linearGradient id="a"><stop offset="0" stop-color="#000080"/><stop offset=".04" stop-color="#000c83"/><stop offset=".23" stop-color="#004897"/><stop offset=".42" stop-color="#007aa8"/><stop offset=".59" stop-color="#00a1b5"/><stop offset=".75" stop-color="#00bdbe"/><stop offset=".9" stop-color="#00cec4"/><stop offset="1" stop-color="#00d4c6"/></linearGradient><linearGradient id="b" gradientUnits="userSpaceOnUse" x1="150.826" x2="150.826" xlink:href="#a" y1="281.056" y2="183.296"/><linearGradient id="c" gradientUnits="userSpaceOnUse" x1="82.6408" x2="82.6408" xlink:href="#a" y1="260.439" y2="259.169"/><linearGradient id="d" gradientUnits="userSpaceOnUse" x1="101.045" x2="101.045" xlink:href="#a" y1="279.596" y2="261.236"/><linearGradient id="e" gradientUnits="userSpaceOnUse" x1="76.7955" x2="76.7955" xlink:href="#a" y1="258.736" y2="254.046"/><linearGradient id="f" gradientUnits="userSpaceOnUse" x1="119.125" x2="119.125" xlink:href="#a" y1="281.396" y2="280.016"/><linearGradient id="g" gradientUnits="userSpaceOnUse" x1="150.045" x2="150.045" xlink:href="#a" y1="280.016" y2="246.466"/><linearGradient id="h" gradientUnits="userSpaceOnUse" x1="181.705" x2="181.705" xlink:href="#a" y1="245.726" y2="243.756"/><linearGradient id="i" gradientUnits="userSpaceOnUse" x1="157.845" x2="157.845" xlink:href="#a" y1="242.916" y2="217.946"/><linearGradient id="j" gradientUnits="userSpaceOnUse" x1="134.21" x2="134.21" xlink:href="#a" y1="217.089" y2="215.809"/><linearGradient id="k" gradientUnits="userSpaceOnUse" x1="129.867" x2="129.867" xlink:href="#a" y1="219.641" y2="218.351"/><linearGradient id="l" gradientUnits="userSpaceOnUse" x1="149.505" x2="149.505" xlink:href="#a" y1="240.816" y2="220.366"/><linearGradient id="m" gradientUnits="userSpaceOnUse" x1="169.745" x2="169.745" xlink:href="#a" y1="242.936" y2="241.556"/><linearGradient id="n" gradientUnits="userSpaceOnUse" x1="201.915" x2="201.915" xlink:href="#a" y1="240.756" y2="206.206"/><linearGradient id="o" gradientUnits="userSpaceOnUse" x1="232.675" x2="232.675" xlink:href="#a" y1="205.846" y2="203.886"/><linearGradient id="p" gradientUnits="userSpaceOnUse" x1="213.315" x2="213.315" xlink:href="#a" y1="202.946" y2="184.696"/><linearGradient id="q" gradientUnits="userSpaceOnUse" x1="173.71" x2="173.71" xlink:href="#a" y1="174.947" y2="173.687"/><linearGradient id="r" gradientUnits="userSpaceOnUse" x1="177.625" x2="177.625" xlink:href="#a" y1="238.386" y2="212.116"/><linearGradient id="s" gradientUnits="userSpaceOnUse" x1="149.06" x2="149.06" xlink:href="#a" y1="252.988" y2="220.968"/><linearGradient id="t" gradientUnits="userSpaceOnUse" x1="101.765" x2="101.765" xlink:href="#a" y1="301.426" y2="250.746"/><linearGradient id="u" gradientUnits="userSpaceOnUse" x1="223.805" x2="223.805" xlink:href="#a" y1="214.896" y2="187.856"/><linearGradient id="v" gradientUnits="userSpaceOnUse" x1="176.265" x2="176.265" xlink:href="#a" y1="254.276" y2="251.136"/><linearGradient id="w" gradientUnits="userSpaceOnUse" x1="215.606" x2="215.606" xlink:href="#a" y1="221.046" y2="217.906"/><linearGradient id="x" gradientUnits="userSpaceOnUse" x1="262.825" x2="262.825" xlink:href="#a" y1="215.756" y2="212.626"/><linearGradient id="y" gradientUnits="userSpaceOnUse" x1="125.236" x2="125.236" xlink:href="#a" y1="302.496" y2="299.356"/><linearGradient id="z"><stop offset="0" stop-color="#000080"/><stop offset="1" stop-color="#00d4c6"/></linearGradient><linearGradient id="A" gradientUnits="userSpaceOnUse" x1="36.7511" x2="94.2911" xlink:href="#z" y1="246.888" y2="246.888"/><linearGradient id="B" gradientUnits="userSpaceOnUse" x1=".5811" x2="1.5811" xlink:href="#z" y1="228.228" y2="228.228"/><linearGradient id="C" gradientUnits="userSpaceOnUse" x1="36.7011" x2="94.5011" xlink:href="#z" y1="209.249" y2="209.249"/><linearGradient id="D" gradientUnits="userSpaceOnUse" x1="65.5411" x2="65.5411" xlink:href="#a" y1="175.749" y2="203.039"/><linearGradient id="E" gradientUnits="userSpaceOnUse" x1="98.2255" x2="155.765" xlink:href="#z" y1="210.836" y2="210.836"/><linearGradient id="F" gradientUnits="userSpaceOnUse" x1="98.2255" x2="155.765" xlink:href="#z" y1="192.176" y2="192.176"/><linearGradient id="G" gradientUnits="userSpaceOnUse" x1="98.1755" x2="155.976" xlink:href="#z" y1="173.196" y2="173.196"/><linearGradient id="H" gradientUnits="userSpaceOnUse" x1="127.005" x2="127.005" xlink:href="#a" y1="139.696" y2="166.986"/><linearGradient id="I" gradientUnits="userSpaceOnUse" x1="156.955" x2="214.495" xlink:href="#z" y1="177.746" y2="177.746"/><linearGradient id="J" gradientUnits="userSpaceOnUse" x1="156.955" x2="214.495" xlink:href="#z" y1="159.086" y2="159.086"/><linearGradient id="K" gradientUnits="userSpaceOnUse" x1="156.905" x2="214.705" xlink:href="#z" y1="140.106" y2="140.106"/><linearGradient id="L" gradientUnits="userSpaceOnUse" x1="185.735" x2="185.735" xlink:href="#a" y1="106.596" y2="133.896"/><linearGradient id="M"><stop offset="0" stop-color="#00cec4"/><stop offset="1" stop-color="#00cec4" stop-opacity="0"/></linearGradient><radialGradient id="N" cx="0" cy="0" gradientTransform="matrix(0 11.6185 -11.6185 0 119.447 98.6423)" gradientUnits="userSpaceOnUse" r="1" xlink:href="#M"/><radialGradient id="O" cx="0" cy="0" gradientTransform="matrix(0 11.6185 -11.6185 0 131.605 93.2775)" gradientUnits="userSpaceOnUse" r="1" xlink:href="#M"/><radialGradient id="P" cx="0" cy="0" gradientTransform="matrix(0 11.6185 -11.6185 0 126.055 98.4557)" gradientUnits="userSpaceOnUse" r="1" xlink:href="#M"/><linearGradient id="Q" gradientUnits="userSpaceOnUse" x1="125.585" x2="125.585" xlink:href="#a" y1="60.1356" y2="78.5656"/><linearGradient id="R" gradientUnits="userSpaceOnUse" x1="126.365" x2="126.365" xlink:href="#a" y1="90.6556" y2="72.0756"/><mask id="S" height="25" maskUnits="userSpaceOnUse" width="61" x="35" y="245"><path d="m95.1111 245.428v6.69c-.01 4.36-2.88 8.71-8.6 12.03-11.51 6.69-30.23 6.69-41.82 0-5.83-3.37-8.74-7.79-8.73-12.2v-6.69c-.01 4.41 2.9 8.83 8.73 12.2 11.59 6.69 30.31 6.69 41.82 0 5.72-3.32 8.58-7.67 8.6-12.03z" fill="#fff"/></mask><mask id="T" height="28" maskUnits="userSpaceOnUse" width="59" x="36" y="233"><path d="m94.2911 233.868-.03 9.65c-.01 4.24-2.8 8.461-8.36 11.701-11.19 6.5-29.4 6.5-40.66 0-5.67-3.27-8.5-7.571-8.49-11.861l.03-9.65c-.01 4.29 2.82 8.59 8.49 11.86 11.27 6.5 29.47 6.5 40.66 0 5.56-3.23 8.35-7.46 8.36-11.7z" fill="#fff"/></mask><mask id="U" height="25" maskUnits="userSpaceOnUse" width="61" x="35" y="226"><path d="m95.1111 226.708v6.69c-.01 4.36-2.88 8.71-8.6 12.03-11.51 6.69-30.23 6.69-41.82 0-5.83-3.37-8.74-7.79-8.73-12.2v-6.69c-.01 4.41 2.9 8.83 8.73 12.2 11.59 6.69 30.31 6.69 41.82 0 5.72-3.32 8.58-7.67 8.6-12.03z" fill="#fff"/></mask><mask id="V" height="27" maskUnits="userSpaceOnUse" width="59" x="36" y="215"><path d="m94.2911 215.208-.03 9.65c-.01 4.24-2.8 8.46-8.36 11.7-11.19 6.51-29.4 6.51-40.66 0-5.67-3.27-8.5-7.57-8.49-11.86l.03-9.65c-.01 4.29 2.82 8.59 8.49 11.86 11.27 6.5 29.47 6.5 40.66 0 5.56-3.23 8.35-7.46 8.36-11.7z" fill="#fff"/></mask><mask id="W" height="25" maskUnits="userSpaceOnUse" width="61" x="35" y="207"><path d="m95.1111 208.049v6.69c-.01 4.36-2.88 8.71-8.6 12.03-11.51 6.69-30.23 6.69-41.82 0-5.83-3.37-8.74-7.79-8.73-12.2v-6.69c-.01 4.41 2.9 8.83 8.73 12.2 11.59 6.69 30.31 6.69 41.82 0 5.72-3.32 8.58-7.67 8.6-12.03z" fill="#fff"/></mask><mask id="X" height="28" maskUnits="userSpaceOnUse" width="59" x="36" y="195"><path d="m94.2911 196.139-.03 9.65c-.01 4.24-2.8 8.46-8.36 11.7-11.19 6.5-29.4 6.5-40.66 0-5.67-3.27-8.5-7.57-8.49-11.86l.03-9.65c-.01 4.29 2.82 8.59 8.49 11.86 11.27 6.5 29.47 6.5 40.66 0 5.56-3.23 8.35-7.46 8.36-11.7z" fill="#fff"/></mask><mask id="Y" height="25" maskUnits="userSpaceOnUse" width="61" x="35" y="188"><path d="m95.1111 188.978v6.69c-.01 4.36-2.88 8.71-8.6 12.03-11.51 6.69-30.23 6.69-41.82 0-5.83-3.37-8.74-7.79-8.73-12.2v-6.69c-.01 4.41 2.9 8.83 8.73 12.2 11.59 6.69 30.31 6.69 41.82 0 5.72-3.32 8.58-7.67 8.6-12.03z" fill="#fff"/></mask><mask id="Z" height="25" maskUnits="userSpaceOnUse" width="60" x="97" y="209"><path d="m156.586 209.376v6.69c-.01 4.36-2.88 8.71-8.6 12.03-11.51 6.69-30.23 6.69-41.82 0-5.83-3.37-8.7405-7.79-8.7305-12.2v-6.69c-.01 4.41 2.9005 8.83 8.7305 12.2 11.59 6.69 30.31 6.69 41.82 0 5.72-3.32 8.58-7.67 8.6-12.03z" fill="#fff"/></mask><mask id="aa" height="28" maskUnits="userSpaceOnUse" width="58" x="98" y="197"><path d="m155.765 197.806-.03 9.65c-.01 4.24-2.8 8.46-8.36 11.7-11.19 6.5-29.4 6.5-40.66 0-5.67-3.27-8.4995-7.57-8.4895-11.86l.03-9.65c-.01 4.29 2.8195 8.59 8.4895 11.86 11.27 6.5 29.47 6.5 40.66 0 5.56-3.23 8.35-7.46 8.36-11.7z" fill="#fff"/></mask><mask id="ab" height="25" maskUnits="userSpaceOnUse" width="60" x="97" y="190"><path d="m156.586 190.646v6.69c-.01 4.36-2.88 8.71-8.6 12.03-11.51 6.69-30.23 6.69-41.82 0-5.83-3.37-8.7405-7.79-8.7305-12.2v-6.69c-.01 4.41 2.9005 8.83 8.7305 12.2 11.59 6.69 30.31 6.69 41.82 0 5.72-3.32 8.58-7.67 8.6-12.03z" fill="#fff"/></mask><mask id="ac" height="28" maskUnits="userSpaceOnUse" width="58" x="98" y="178"><path d="m155.765 179.146-.03 9.65c-.01 4.24-2.8 8.46-8.36 11.7-11.19 6.51-29.4 6.51-40.66 0-5.67-3.27-8.4995-7.57-8.4895-11.86l.03-9.65c-.01 4.29 2.8195 8.59 8.4895 11.86 11.27 6.5 29.47 6.5 40.66 0 5.56-3.23 8.35-7.46 8.36-11.7z" fill="#fff"/></mask><mask id="ad" height="25" maskUnits="userSpaceOnUse" width="60" x="97" y="171"><path d="m156.586 171.986v6.69c-.01 4.36-2.88 8.71-8.6 12.03-11.51 6.69-30.23 6.69-41.82 0-5.83-3.37-8.7405-7.79-8.7305-12.2v-6.69c-.01 4.41 2.9005 8.83 8.7305 12.2 11.59 6.69 30.31 6.69 41.82 0 5.72-3.32 8.58-7.67 8.6-12.03z" fill="#fff"/></mask><mask id="ae" height="28" maskUnits="userSpaceOnUse" width="58" x="98" y="159"><path d="m155.765 160.086-.03 9.65c-.01 4.24-2.8 8.46-8.36 11.7-11.19 6.5-29.4 6.5-40.66 0-5.67-3.27-8.4995-7.57-8.4895-11.86l.03-9.65c-.01 4.29 2.8195 8.59 8.4895 11.86 11.27 6.5 29.47 6.5 40.66 0 5.56-3.23 8.35-7.46 8.36-11.7z" fill="#fff"/></mask><mask id="af" height="25" maskUnits="userSpaceOnUse" width="60" x="97" y="152"><path d="m156.586 152.926v6.69c-.01 4.36-2.88 8.71-8.6 12.03-11.51 6.69-30.23 6.69-41.82 0-5.83-3.37-8.7405-7.79-8.7305-12.2v-6.69c-.01 4.41 2.9005 8.83 8.7305 12.2 11.59 6.69 30.31 6.69 41.82 0 5.72-3.32 8.58-7.67 8.6-12.03z" fill="#fff"/></mask><mask id="ag" height="25" maskUnits="userSpaceOnUse" width="60" x="156" y="176"><path d="m215.315 176.286v6.69c-.01 4.36-2.88 8.71-8.6 12.03-11.51 6.69-30.23 6.69-41.82 0-5.83-3.37-8.74-7.79-8.73-12.2v-6.69c-.01 4.41 2.9 8.83 8.73 12.2 11.59 6.69 30.31 6.69 41.82 0 5.72-3.32 8.58-7.67 8.6-12.03z" fill="#fff"/></mask><mask id="ah" height="27" maskUnits="userSpaceOnUse" width="59" x="156" y="164"><path d="m214.495 164.716-.03 9.65c-.01 4.24-2.8 8.46-8.36 11.7-11.19 6.5-29.4 6.5-40.66 0-5.67-3.27-8.5-7.57-8.49-11.86l.03-9.65c-.01 4.29 2.82 8.59 8.49 11.86 11.27 6.5 29.47 6.5 40.66 0 5.56-3.23 8.35-7.46 8.36-11.7z" fill="#fff"/></mask><mask id="ai" height="25" maskUnits="userSpaceOnUse" width="60" x="156" y="157"><path d="m215.315 157.556v6.69c-.01 4.36-2.88 8.71-8.6 12.03-11.51 6.69-30.23 6.69-41.82 0-5.83-3.37-8.74-7.79-8.73-12.2v-6.69c-.01 4.41 2.9 8.83 8.73 12.2 11.59 6.69 30.31 6.69 41.82 0 5.72-3.32 8.58-7.67 8.6-12.03z" fill="#fff"/></mask><mask id="aj" height="28" maskUnits="userSpaceOnUse" width="59" x="156" y="145"><path d="m214.495 146.056-.03 9.65c-.01 4.24-2.8 8.46-8.36 11.7-11.19 6.51-29.4 6.51-40.66 0-5.67-3.27-8.5-7.57-8.49-11.86l.03-9.65c-.01 4.29 2.82 8.59 8.49 11.86 11.27 6.5 29.47 6.5 40.66 0 5.56-3.23 8.35-7.46 8.36-11.7z" fill="#fff"/></mask><mask id="ak" height="25" maskUnits="userSpaceOnUse" width="60" x="156" y="138"><path d="m215.315 138.896v6.69c-.01 4.36-2.88 8.71-8.6 12.03-11.51 6.69-30.23 6.69-41.82 0-5.83-3.37-8.74-7.79-8.73-12.2v-6.69c-.01 4.41 2.9 8.83 8.73 12.2 11.59 6.69 30.31 6.69 41.82 0 5.72-3.32 8.58-7.67 8.6-12.03z" fill="#fff"/></mask><mask id="al" height="28" maskUnits="userSpaceOnUse" width="59" x="156" y="126"><path d="m214.495 126.996-.03 9.65c-.01 4.24-2.8 8.46-8.36 11.7-11.19 6.5-29.4 6.5-40.66 0-5.67-3.27-8.5-7.57-8.49-11.86l.03-9.65c-.01 4.29 2.82 8.59 8.49 11.86 11.27 6.5 29.47 6.5 40.66 0 5.56-3.23 8.35-7.46 8.36-11.7z" fill="#fff"/></mask><mask id="am" height="25" maskUnits="userSpaceOnUse" width="60" x="156" y="119"><path d="m215.315 119.836v6.69c-.01 4.36-2.88 8.71-8.6 12.03-11.51 6.69-30.23 6.69-41.82 0-5.83-3.37-8.74-7.79-8.73-12.2v-6.69c-.01 4.41 2.9 8.83 8.73 12.2 11.59 6.69 30.31 6.69 41.82 0 5.72-3.32 8.58-7.67 8.6-12.03z" fill="#fff"/></mask><mask id="an" height="127" maskUnits="userSpaceOnUse" width="122" x="65" y="62"><path d="m66.8955 188.926h-1.36v-56.4l.34-.19 120.6995-69.4703v57.0503h-1.37v-54.6903l-118.3095 68.0903z" fill="#50cef5"/></mask><mask id="ao" height="10" maskUnits="userSpaceOnUse" width="22" x="137" y="44"><path d="m150.316 45.8657 7.849 4.56c-2.62-1.52-6.249-1.31-10.259 1.01-.86.49-1.69 1.06-2.51 1.7l-7.85-4.56c.81-.64 1.649-1.21 2.509-1.7 4.01-2.31 7.641-2.53 10.261-1.01z" fill="#fff"/></mask><mask id="ap" height="9" maskUnits="userSpaceOnUse" width="24" x="116" y="38"><path d="m131.896 40.3857 7.849 4.56c-3.93-2.29-9.38-1.96-15.39 1.51l-7.85-4.56c6.01-3.47 11.46-3.79 15.391-1.51z" fill="#fff"/></mask><mask id="aq" height="37" maskUnits="userSpaceOnUse" width="30" x="95" y="41"><path d="m103.436 77.3558-7.8505-4.5601c2.33-12.1499 10.8005-25.0499 20.9305-30.8999l7.85 4.56c-10.12 5.84-18.6 18.75-20.93 30.9z" fill="#fff"/></mask><mask id="ar" height="41" maskUnits="userSpaceOnUse" width="26" x="78" y="72"><path d="m90.7655 112.706-7.85-4.56c-2.59-1.5-4.19-4.7-4.21-9.2503-.03-9.15 6.41-20.3 14.38-24.9.86-.49 1.69-.89 2.51-1.2l7.8495 4.56c-.82.3-1.65.7-2.51 1.2-7.9695 4.6-14.3995 15.75-14.3795 24.9003.01 4.55 1.62 7.75 4.21 9.25z" fill="#fff"/></mask><path d="m109.516 281.056-.18-.1-41.3805-25.52.36-.62 41.2005 25.42 122.739-70.5-44.929-25.82.36-.62 46.009 26.44-.539.3z" fill="url(#b)"/><path d="m82.2346 259.166-.3393.589 1.1785.679.3394-.589z" fill="url(#c)"/><path d="m116.295 279.596-2.37-1.37.34-.59 2.37 1.37zm-4.75-2.73-2.37-1.37.34-.59 2.37 1.37zm-4.75-2.73-2.37-1.37.34-.59 2.37 1.37zm-4.75-2.73-2.3695-1.37.3395-.59 2.37 1.37zm-4.7495-2.73-2.37-1.37.34-.59 2.37 1.37zm-4.75-2.73-2.37-1.37.34-.59 2.37 1.37zm-4.75-2.74-2.37-1.37.34-.59 2.37 1.37z" fill="url(#d)"/><path d="m80.1855 258.736-2.37-1.37.34-.59 2.37 1.37zm-4.34-2.44-2.78-1.66.34-.59 2.78 1.66z" fill="url(#e)"/><path d="m119.125 281.396-1.35-.78.34-.59 1.01.58 1.02-.59.34.6z" fill="url(#f)"/><path d="m125.575 277.736-.34-.59 2.31-1.33.34.59zm-3.86 2.28-.34-.59 2.31-1.33.34.59zm8.48-4.95-.34-.59 2.31-1.33.34.59zm4.62-2.67-.34-.59 2.31-1.33.34.59zm4.62-2.67-.34-.59 2.31-1.33.34.59zm4.62-2.67-.34-.59 2.31-1.33.34.59zm4.62-2.67-.34-.59 2.31-1.33.34.59zm4.62-2.67-.34-.59 2.31-1.33.34.59zm4.62-2.67-.34-.59 2.31-1.33.34.59zm4.62-2.67-.34-.59 2.31-1.33.34.59zm4.62-2.67-.34-.59 2.31-1.33.34.59zm4.62-2.67-.34-.59 2.31-1.33.34.59zm4.62-2.67-.34-.59 2.31-1.33.34.59z" fill="url(#g)"/><path d="m181.035 245.726-.35-.59.68-.39-.67-.4.35-.59 1.67 1z" fill="url(#h)"/><path d="m178.266 242.916-2.42-1.43.349-.59 2.42 1.43zm-4.851-2.87-2.42-1.43.351-.59 2.42 1.43zm-4.849-2.87-2.42-1.43.349-.59 2.42 1.43zm-4.851-2.87-2.419-1.43.35-.59 2.42 1.43zm-4.85-2.87-2.42-1.43.351-.59 2.419 1.43zm-4.849-2.87-2.42-1.43.349-.59 2.42 1.43zm-4.851-2.87-2.42-1.43.351-.59 2.42 1.43zm-4.849-2.87-2.42-1.43.349-.59 2.42 1.43zm-4.851-2.87-2.419-1.43.35-.59 2.42 1.43z" fill="url(#i)"/><path d="m133.819 215.797-.346.586 1.17.692.346-.585z" fill="url(#j)"/><path d="m129.436 218.364-.346.586 1.18.696.346-.585z" fill="url(#k)"/><path d="m166.155 240.816-2.24-1.32.35-.59 2.24 1.32zm-4.49-2.65-2.24-1.32.35-.59 2.24 1.32zm-4.49-2.65-2.24-1.32.35-.59 2.24 1.32zm-4.49-2.65-2.24-1.32.35-.59 2.24 1.32zm-4.49-2.65-2.24-1.32.35-.59 2.24 1.32zm-4.49-2.65-2.24-1.32.35-.59 2.24 1.32zm-4.49-2.65-2.24-1.32.35-.59 2.24 1.32zm-4.49-2.65-2.24-1.32.35-.59 2.24 1.32z" fill="url(#l)"/><path d="m169.745 242.936-1.34-.79.34-.59 1 .59 1.01-.59.34.59z" fill="url(#m)"/><path d="m173.435 240.756-.35-.59 2.34-1.38.35.59zm4.68-2.77-.35-.59 2.34-1.38.35.59zm4.68-2.77-.35-.59 2.34-1.38.35.59zm4.68-2.77-.35-.59 2.34-1.38.35.59zm4.68-2.77-.35-.59 2.34-1.38.35.59zm4.68-2.77-.35-.59 2.34-1.38.35.59zm4.68-2.77-.35-.59 2.34-1.38.35.59zm4.68-2.77-.35-.59 2.34-1.38.35.59zm4.68-2.77-.35-.59 2.34-1.38.35.59zm4.68-2.77-.35-.59 2.34-1.38.35.59zm4.68-2.77-.35-.59 2.34-1.38.35.59zm4.68-2.77-.35-.59 2.34-1.38.35.59zm3.52-2.15-.35-.59 2.34-1.38.35.59z" fill="url(#n)"/><path d="m232.005 205.846-.34-.59.66-.4-.67-.38.34-.59 1.7.96z" fill="url(#o)"/><path d="m228.705 202.946-2.39-1.36.34-.59 2.39 1.36zm-4.79-2.72-2.39-1.36.34-.59 2.39 1.36zm-4.79-2.72-2.39-1.36.34-.59 2.39 1.36zm-4.79-2.72-2.39-1.36.34-.59 2.39 1.36zm-4.79-2.72-2.39-1.36.34-.59 2.39 1.36zm-4.79-2.72-2.39-1.36.34-.59 2.39 1.36zm-4.79-2.72-2.39-1.36.34-.59 2.39 1.36z" fill="url(#p)"/><path d="m173.303 173.669-.336.592 1.183.671.336-.592z" fill="url(#q)"/><path d="m183.655 238.386-44.19-25.68.34-.59 43.85 25.48 31.78-18.35.34.59z" fill="url(#r)"/><path d="m122.002 220.969-.34.588 54.447 31.435.34-.588z" fill="url(#s)"/><path d="m125.745 301.426-30.1695-18.68 17.8595-10.1-35.9995-21.32.35-.58 37.0095 21.91-17.8595 10.1 29.1495 18.09z" fill="url(#t)"/><path d="m263.435 214.896-36.56-20.97-16.91 9.85-.17-.1c-9.99-5.94-25.15-14.88-25.95-15.15l.13-.67c.68.1 19.84 11.46 26 15.12l16.9-9.85 36.9 21.16-.34.59z" fill="url(#u)"/><path d="m174.335 251.616c1.06-.62 2.78-.64 3.84-.04 1.07.6 1.08 1.6.02 2.22s-2.78.64-3.84.04c-1.07-.6-1.08-1.6-.02-2.22z" fill="url(#v)"/><path d="m213.676 218.386c1.06-.62 2.78-.64 3.84-.04 1.07.6 1.08 1.6.02 2.22s-2.78.64-3.84.04c-1.07-.6-1.08-1.6-.02-2.22z" fill="url(#w)"/><path d="m260.895 213.096c1.06-.62 2.78-.64 3.84-.04 1.07.6 1.08 1.6.02 2.22s-2.78.64-3.84.04c-1.07-.6-1.08-1.6-.02-2.22z" fill="url(#x)"/><path d="m123.316 299.816c1.06-.61 2.78-.61 3.84 0s1.06 1.61 0 2.22-2.78.61-3.84 0-1.06-1.61 0-2.22z" fill="url(#y)"/><path d="m95.1111 245.428v6.69c-.01 4.36-2.88 8.71-8.6 12.03-11.51 6.69-30.23 6.69-41.82 0-5.83-3.37-8.74-7.79-8.73-12.2v-6.69c-.01 4.41 2.9 8.83 8.73 12.2 11.59 6.69 30.31 6.69 41.82 0 5.72-3.32 8.58-7.67 8.6-12.03z" fill="#d4e2fc"/><g mask="url(#S)"><path d="m95.1111 245.428v6.69c-.01 4.36-2.88 8.71-8.6 12.03-2.27 1.32-4.81 2.38-7.53 3.17v-6.69c2.72-.8 5.26-1.86 7.53-3.17 5.72-3.32 8.58-7.67 8.6-12.03z" fill="#becef9"/><path d="m78.9911 260.628v6.69c-3.98 1.17-8.32 1.78-12.69 1.84v-6.69c4.36-.06 8.71-.67 12.69-1.84z" fill="#cddcfb"/><path d="m66.3011 262.468v6.69c-7.79.1-15.64-1.57-21.61-5.01-.29-.17-.58-.34-.85-.51v-6.69c.28.17.56.34.85.51 5.96 3.44 13.82 5.11 21.61 5.01z" fill="#dae8fd"/><g fill="#cddcfb"><path d="m43.8411 256.948v6.69c-3.09-1.94-5.28-4.19-6.55-6.56v-6.69c1.27 2.38 3.46 4.63 6.55 6.56z"/><path d="m37.2911 250.378v6.69c-.89-1.67-1.33-3.39-1.33-5.12v-6.69c0 1.73.44 3.46 1.33 5.12z"/></g></g><path d="m86.3811 233.228c11.59 6.69 11.65 17.54.13 24.23-11.51 6.69-30.23 6.69-41.82 0s-11.65-17.54-.14-24.23 30.24-6.69 41.83 0z" fill="#e6f1fe"/><path d="m94.2911 233.868-.03 9.65c-.01 4.24-2.8 8.461-8.36 11.701-11.19 6.5-29.4 6.5-40.66 0-5.67-3.27-8.5-7.571-8.49-11.861l.03-9.65c-.01 4.29 2.82 8.59 8.49 11.86 11.27 6.5 29.47 6.5 40.66 0 5.56-3.23 8.35-7.46 8.36-11.7z" fill="#1499fc"/><g mask="url(#T)"><path d="m94.2911 233.868-.03 9.64c-.01 4.24-2.79 8.47-8.35 11.7-2.21 1.28-4.68 2.31-7.32 3.08-3.87 1.14-8.1 1.74-12.34 1.79-7.57.1-15.21-1.52-21.01-4.87-.28-.17-.56-.33-.82-.5-3.01-1.88-5.14-4.07-6.37-6.38-.87-1.62-1.3-3.3-1.3-4.98l.03-9.65c0 1.68.43 3.36 1.29 4.98 1.24 2.31 3.36 4.5 6.37 6.38.27.17.55.34.83.5 5.8 3.35 13.44 4.97 21.01 4.88 4.24-.06 8.46-.65 12.33-1.79 2.64-.78 5.12-1.81 7.32-3.09 5.56-3.23 8.35-7.46 8.36-11.69z" fill="url(#A)"/></g><path d="m85.8111 222.009c11.27 6.5 11.32 17.05.13 23.55s-29.4 6.5-40.66 0c-11.27-6.5-11.33-17.05-.13-23.55 11.19-6.5 29.4-6.5 40.67 0z" fill="#15d9fd"/><path d="m95.1111 226.708v6.69c-.01 4.36-2.88 8.71-8.6 12.03-11.51 6.69-30.23 6.69-41.82 0-5.83-3.37-8.74-7.79-8.73-12.2v-6.69c-.01 4.41 2.9 8.83 8.73 12.2 11.59 6.69 30.31 6.69 41.82 0 5.72-3.32 8.58-7.67 8.6-12.03z" fill="#d4e2fc"/><g mask="url(#U)"><path d="m95.1111 226.708v6.69c-.01 4.36-2.88 8.71-8.6 12.03-2.27 1.32-4.81 2.371-7.53 3.171v-6.691c2.72-.8 5.26-1.86 7.53-3.17 5.72-3.32 8.58-7.67 8.6-12.03z" fill="#becef9"/><path d="m78.9911 241.908v6.69c-3.98 1.17-8.32 1.78-12.69 1.84v-6.69c4.36-.06 8.71-.67 12.69-1.84z" fill="#cddcfb"/><path d="m66.3011 243.749v6.69c-7.79.1-15.64-1.57-21.61-5.01-.29-.17-.58-.34-.85-.51v-6.69c.28.17.56.34.85.51 5.96 3.44 13.82 5.11 21.61 5.01z" fill="#dae8fd"/><g fill="#cddcfb"><path d="m43.8411 238.228v6.69c-3.09-1.94-5.28-4.19-6.55-6.56v-6.69c1.27 2.38 3.46 4.63 6.55 6.56z"/><path d="m37.2911 231.658v6.69c-.89-1.67-1.33-3.39-1.33-5.12v-6.69c0 1.73.44 3.46 1.33 5.12z"/></g></g><path d="m86.3811 214.508c11.59 6.69 11.65 17.54.13 24.23-11.51 6.69-30.23 6.69-41.82 0s-11.65-17.54-.14-24.23 30.24-6.69 41.83 0z" fill="#e6f1fe"/><path d="m94.2911 215.208-.03 9.65c-.01 4.24-2.8 8.46-8.36 11.7-11.19 6.51-29.4 6.51-40.66 0-5.67-3.27-8.5-7.57-8.49-11.86l.03-9.65c-.01 4.29 2.82 8.59 8.49 11.86 11.27 6.5 29.47 6.5 40.66 0 5.56-3.23 8.35-7.46 8.36-11.7z" fill="#1499fc"/><g mask="url(#V)"><path d="m94.2911 215.208-.03 9.64c-.01 4.24-2.79 8.47-8.35 11.7-2.21 1.28-4.68 2.31-7.32 3.08-3.87 1.14-8.1 1.74-12.34 1.79-7.57.1-15.21-1.52-21.01-4.87-.28-.17-.56-.33-.82-.5-3.01-1.88-5.14-4.07-6.37-6.38-.87-1.62-1.3-3.3-1.3-4.98l.03-9.65c0 1.68.43 3.36 1.29 4.98 1.24 2.31 3.36 4.5 6.37 6.38.27.17.55.34.83.5 5.8 3.35 13.44 4.97 21.01 4.88 4.24-.06 8.46-.65 12.33-1.79 2.64-.78 5.12-1.81 7.32-3.09 5.56-3.23 8.35-7.46 8.36-11.69z" fill="url(#B)"/></g><path d="m85.8111 203.348c11.27 6.5 11.32 17.05.13 23.55s-29.4 6.5-40.66 0c-11.27-6.5-11.33-17.05-.13-23.55 11.19-6.51 29.4-6.51 40.67 0z" fill="#15d9fd"/><path d="m95.1111 208.049v6.69c-.01 4.36-2.88 8.71-8.6 12.03-11.51 6.69-30.23 6.69-41.82 0-5.83-3.37-8.74-7.79-8.73-12.2v-6.69c-.01 4.41 2.9 8.83 8.73 12.2 11.59 6.69 30.31 6.69 41.82 0 5.72-3.32 8.58-7.67 8.6-12.03z" fill="#d4e2fc"/><g mask="url(#W)"><path d="m95.1111 208.049v6.69c-.01 4.36-2.88 8.71-8.6 12.03-2.27 1.32-4.81 2.38-7.53 3.17v-6.69c2.72-.8 5.26-1.86 7.53-3.17 5.72-3.32 8.58-7.67 8.6-12.03z" fill="#becef9"/><path d="m78.9911 223.249v6.69c-3.98 1.17-8.32 1.78-12.69 1.84v-6.69c4.36-.06 8.71-.67 12.69-1.84z" fill="#cddcfb"/><path d="m66.3011 225.089v6.69c-7.79.1-15.64-1.57-21.61-5.01-.29-.17-.58-.34-.85-.51v-6.69c.28.17.56.34.85.51 5.96 3.44 13.82 5.11 21.61 5.01z" fill="#dae8fd"/><g fill="#cddcfb"><path d="m43.8411 219.559v6.69c-3.09-1.94-5.28-4.19-6.55-6.56v-6.69c1.27 2.38 3.46 4.63 6.55 6.56z"/><path d="m37.2911 212.999v6.69c-.89-1.67-1.33-3.39-1.33-5.12v-6.69c0 1.73.44 3.46 1.33 5.12z"/></g></g><path d="m86.3811 195.849c11.59 6.69 11.65 17.54.13 24.23-11.51 6.69-30.23 6.69-41.82 0s-11.65-17.54-.14-24.23 30.24-6.69 41.83 0z" fill="#e6f1fe"/><path d="m94.2911 196.139-.03 9.65c-.01 4.24-2.8 8.46-8.36 11.7-11.19 6.5-29.4 6.5-40.66 0-5.67-3.27-8.5-7.57-8.49-11.86l.03-9.65c-.01 4.29 2.82 8.59 8.49 11.86 11.27 6.5 29.47 6.5 40.66 0 5.56-3.23 8.35-7.46 8.36-11.7z" fill="#1499fc"/><g mask="url(#X)"><path d="m78.5911 220.569c-3.87 1.13-8.1 1.73-12.34 1.79-7.97.07-15.77-1.62-21.83-5.38-4.64-2.65-6.37-6.38-6.37-6.38-2-2.99-1.16-10.19-1.25-13.98.1 1.47.52 2.93 1.27 4.34 1.24 2.31 3.36 4.49 6.37 6.38 6.07 3.76 13.87 5.45 21.84 5.37 4.24-.05 8.46-.65 12.33-1.79 7.13-1.71 16.14-8.14 15.68-14.78 1.03 13.02-1.32 20.14-15.7 24.43z" fill="url(#C)"/></g><path d="m85.8111 184.279c11.27 6.51 11.32 17.05.13 23.55-11.19 6.51-29.4 6.51-40.66 0-11.27-6.5-11.33-17.05-.13-23.55 11.19-6.5 29.4-6.5 40.67 0z" fill="#15d9fd"/><path d="m95.1111 188.978v6.69c-.01 4.36-2.88 8.71-8.6 12.03-11.51 6.69-30.23 6.69-41.82 0-5.83-3.37-8.74-7.79-8.73-12.2v-6.69c-.01 4.41 2.9 8.83 8.73 12.2 11.59 6.69 30.31 6.69 41.82 0 5.72-3.32 8.58-7.67 8.6-12.03z" fill="#d4e2fc"/><g mask="url(#Y)"><path d="m95.1111 188.979v6.69c-.01 4.36-2.88 8.71-8.6 12.03-2.27 1.32-4.81 2.37-7.53 3.17v-6.69c2.72-.8 5.26-1.86 7.53-3.17 5.72-3.32 8.58-7.67 8.6-12.03z" fill="#becef9"/><path d="m78.9911 204.178v6.69c-3.98 1.17-8.32 1.78-12.69 1.84v-6.69c4.36-.06 8.71-.67 12.69-1.84z" fill="#cddcfb"/><path d="m66.3011 206.018v6.69c-7.79.1-15.64-1.57-21.61-5.01-.29-.17-.58-.34-.85-.51v-6.69c.28.17.56.34.85.51 5.96 3.44 13.82 5.11 21.61 5.01z" fill="#dae8fd"/><g fill="#cddcfb"><path d="m43.8411 200.498v6.69c-3.09-1.94-5.28-4.19-6.55-6.56v-6.69c1.27 2.38 3.46 4.63 6.55 6.56z"/><path d="m37.2911 193.928v6.69c-.89-1.67-1.33-3.39-1.33-5.12v-6.69c0 1.73.44 3.46 1.33 5.12z"/></g></g><path d="m86.3811 176.788c11.59 6.69 11.65 17.54.13 24.23-11.51 6.69-30.23 6.69-41.82 0s-11.65-17.54-.14-24.23 30.24-6.69 41.83 0z" fill="#e6f1fe"/><path d="m83.7611 179.599c10.13 5.14 10.18 13.46.12 18.6s-26.43 5.14-36.56 0-10.19-13.46-.12-18.6 26.44-5.14 36.57 0z" fill="#dae8fd"/><path d="m84.8911 179.369c-5.16-2.98-12.07-4.62-19.45-4.62s-14.34 1.68-19.38 4.61c-4.52 2.63-7.11 6.08-7.11 9.48 0 .17 0 .33.02.5.24 3.27 2.84 6.56 7.21 9.08 5.16 2.98 12.07 4.61 19.45 4.61s14.34-1.68 19.38-4.61c4.3-2.49 6.86-5.75 7.09-8.99.02-.17.02-.34.02-.5 0-3.43-2.65-6.92-7.24-9.57zm4.94 10.57c0 2.56-2.17 5.29-5.97 7.5-4.71 2.73-11.35 4.3-18.23 4.3s-13.48-1.53-18.3-4.31c-3.87-2.23-6.08-5-6.09-7.59 0-.16 0-.33.03-.49-.02-.16-.03-.34-.03-.5 0-2.56 2.17-5.29 5.97-7.5 4.71-2.73 11.35-4.3 18.23-4.3s13.49 1.53 18.3 4.31c3.87 2.23 6.08 5 6.09 7.59 0 .16 0 .33-.03.49.02.16.03.34.03.5z" fill="#98a4e0"/><path d="m84.8911 180.359c-5.16-2.98-12.07-4.61-19.45-4.61s-14.34 1.68-19.38 4.61c-4.3 2.5-6.86 5.75-7.09 8.99.24 3.27 2.84 6.56 7.21 9.08 5.16 2.98 12.07 4.61 19.45 4.61s14.34-1.68 19.38-4.61c4.3-2.49 6.86-5.75 7.09-8.99-.24-3.27-2.84-6.55-7.21-9.08zm-1.03 17.08c-4.71 2.73-11.35 4.3-18.23 4.3s-13.48-1.53-18.3-4.31c-3.87-2.23-6.08-5-6.09-7.59 0-.16 0-.33.03-.49-.02-.16-.03-.34-.03-.5 0-2.56 2.17-5.29 5.97-7.5 4.71-2.73 11.35-4.3 18.23-4.3s13.49 1.53 18.3 4.31c3.87 2.23 6.08 5 6.09 7.59 0 .16 0 .33-.03.49.02.16.03.34.03.5 0 2.56-2.17 5.29-5.97 7.5z" fill="url(#D)"/><path d="m156.586 209.376v6.69c-.01 4.36-2.88 8.71-8.6 12.03-11.51 6.69-30.23 6.69-41.82 0-5.83-3.37-8.7405-7.79-8.7305-12.2v-6.69c-.01 4.41 2.9005 8.83 8.7305 12.2 11.59 6.69 30.31 6.69 41.82 0 5.72-3.32 8.58-7.67 8.6-12.03z" fill="#d4e2fc"/><g mask="url(#Z)"><path d="m156.585 209.376v6.69c-.01 4.36-2.879 8.71-8.599 12.03-2.27 1.32-4.81 2.38-7.53 3.17v-6.69c2.72-.8 5.26-1.86 7.53-3.17 5.72-3.32 8.579-7.67 8.599-12.03z" fill="#becef9"/><path d="m140.456 224.576v6.69c-3.98 1.17-8.32 1.78-12.69 1.84v-6.69c4.36-.06 8.71-.67 12.69-1.84z" fill="#cddcfb"/><path d="m127.776 226.416v6.69c-7.79.1-15.64-1.57-21.61-5.01-.29-.17-.58-.34-.85-.51v-6.69c.28.17.56.34.85.51 5.96 3.44 13.82 5.11 21.61 5.01z" fill="#dae8fd"/><g fill="#cddcfb"><path d="m105.315 220.886v6.69c-3.09-1.94-5.279-4.19-6.5495-6.56v-6.69c1.2705 2.38 3.4595 4.63 6.5495 6.56z"/><path d="m98.7655 214.326v6.69c-.89-1.67-1.33-3.39-1.33-5.12v-6.69c0 1.73.44 3.46 1.33 5.12z"/></g></g><path d="m147.855 197.176c11.59 6.69 11.651 17.54.131 24.23-11.51 6.69-30.231 6.69-41.821 0-11.5895-6.69-11.6495-17.54-.14-24.23 11.51-6.69 30.24-6.69 41.83 0z" fill="#e6f1fe"/><path d="m155.765 197.806-.03 9.65c-.01 4.24-2.8 8.46-8.36 11.7-11.19 6.5-29.4 6.5-40.66 0-5.67-3.27-8.4995-7.57-8.4895-11.86l.03-9.65c-.01 4.29 2.8195 8.59 8.4895 11.86 11.27 6.5 29.47 6.5 40.66 0 5.56-3.23 8.35-7.46 8.36-11.7z" fill="#1499fc"/><g mask="url(#aa)"><path d="m155.765 197.816-.03 9.64c-.01 4.24-2.79 8.47-8.35 11.7-2.21 1.28-4.68 2.31-7.32 3.08-3.87 1.14-8.1 1.74-12.34 1.79-7.57.1-15.21-1.52-21.01-4.87-.28-.17-.56-.33-.82-.5-3.01-1.88-5.14-4.07-6.3695-6.38-.87-1.62-1.3-3.3-1.3-4.98l.03-9.65c0 1.68.43 3.36 1.29 4.98 1.2395 2.31 3.3595 4.5 6.3695 6.38.27.17.55.34.83.5 5.8 3.35 13.44 4.97 21.01 4.88 4.24-.06 8.46-.65 12.33-1.79 2.64-.78 5.12-1.81 7.32-3.09 5.56-3.23 8.35-7.46 8.36-11.69z" fill="url(#E)"/></g><path d="m147.275 185.946c11.27 6.5 11.32 17.05.13 23.55s-29.4 6.5-40.66 0c-11.2695-6.5-11.3295-17.05-.13-23.55 11.19-6.5 29.4-6.5 40.67 0z" fill="#15d9fd"/><path d="m156.586 190.646v6.69c-.01 4.36-2.88 8.71-8.6 12.03-11.51 6.69-30.23 6.69-41.82 0-5.83-3.37-8.7405-7.79-8.7305-12.2v-6.69c-.01 4.41 2.9005 8.83 8.7305 12.2 11.59 6.69 30.31 6.69 41.82 0 5.72-3.32 8.58-7.67 8.6-12.03z" fill="#d4e2fc"/><g mask="url(#ab)"><path d="m156.585 190.646v6.69c-.01 4.36-2.879 8.71-8.599 12.03-2.27 1.32-4.81 2.37-7.53 3.17v-6.69c2.72-.8 5.26-1.86 7.53-3.17 5.72-3.32 8.579-7.67 8.599-12.03z" fill="#becef9"/><path d="m140.456 205.856v6.69c-3.98 1.17-8.32 1.78-12.69 1.84v-6.69c4.36-.06 8.71-.67 12.69-1.84z" fill="#cddcfb"/><path d="m127.776 207.696v6.69c-7.79.1-15.64-1.57-21.61-5.01-.29-.17-.58-.34-.85-.51v-6.69c.28.17.56.34.85.51 5.96 3.44 13.82 5.11 21.61 5.01z" fill="#dae8fd"/><g fill="#cddcfb"><path d="m105.315 202.166v6.69c-3.09-1.94-5.279-4.19-6.5495-6.56v-6.69c1.2705 2.38 3.4595 4.63 6.5495 6.56z"/><path d="m98.7655 195.606v6.69c-.89-1.67-1.33-3.39-1.33-5.12v-6.69c0 1.73.44 3.46 1.33 5.12z"/></g></g><path d="m147.855 178.456c11.59 6.69 11.651 17.54.131 24.23-11.51 6.69-30.231 6.69-41.821 0-11.5895-6.69-11.6495-17.54-.14-24.23 11.51-6.69 30.24-6.69 41.83 0z" fill="#e6f1fe"/><path d="m155.765 179.146-.03 9.65c-.01 4.24-2.8 8.46-8.36 11.7-11.19 6.51-29.4 6.51-40.66 0-5.67-3.27-8.4995-7.57-8.4895-11.86l.03-9.65c-.01 4.29 2.8195 8.59 8.4895 11.86 11.27 6.5 29.47 6.5 40.66 0 5.56-3.23 8.35-7.46 8.36-11.7z" fill="#1499fc"/><g mask="url(#ac)"><path d="m155.765 179.156-.03 9.64c-.01 4.24-2.79 8.47-8.35 11.7-2.21 1.28-4.68 2.31-7.32 3.08-3.87 1.14-8.1 1.74-12.34 1.79-7.57.1-15.21-1.52-21.01-4.87-.28-.17-.56-.33-.82-.5-3.01-1.88-5.14-4.07-6.3695-6.38-.87-1.62-1.3-3.3-1.3-4.98l.03-9.65c0 1.68.43 3.36 1.29 4.98 1.2395 2.31 3.3595 4.5 6.3695 6.38.27.17.55.34.83.5 5.8 3.35 13.44 4.97 21.01 4.88 4.24-.06 8.46-.65 12.33-1.79 2.64-.78 5.12-1.81 7.32-3.09 5.56-3.23 8.35-7.46 8.36-11.69z" fill="url(#F)"/></g><path d="m147.275 167.286c11.27 6.5 11.32 17.05.13 23.55s-29.4 6.5-40.66 0c-11.2695-6.5-11.3295-17.05-.13-23.55 11.19-6.51 29.4-6.51 40.67 0z" fill="#15d9fd"/><path d="m156.586 171.986v6.69c-.01 4.36-2.88 8.71-8.6 12.03-11.51 6.69-30.23 6.69-41.82 0-5.83-3.37-8.7405-7.79-8.7305-12.2v-6.69c-.01 4.41 2.9005 8.83 8.7305 12.2 11.59 6.69 30.31 6.69 41.82 0 5.72-3.32 8.58-7.67 8.6-12.03z" fill="#d4e2fc"/><g mask="url(#ad)"><path d="m156.585 171.986v6.69c-.01 4.36-2.879 8.71-8.599 12.03-2.27 1.32-4.81 2.38-7.53 3.17v-6.69c2.72-.8 5.26-1.86 7.53-3.17 5.72-3.32 8.579-7.67 8.599-12.03z" fill="#becef9"/><path d="m140.456 187.196v6.69c-3.98 1.17-8.32 1.78-12.69 1.84v-6.69c4.36-.06 8.71-.67 12.69-1.84z" fill="#cddcfb"/><path d="m127.776 189.036v6.69c-7.79.1-15.64-1.57-21.61-5.01-.29-.17-.58-.34-.85-.51v-6.69c.28.17.56.34.85.51 5.96 3.44 13.82 5.11 21.61 5.01z" fill="#dae8fd"/><g fill="#cddcfb"><path d="m105.315 183.506v6.69c-3.09-1.94-5.279-4.19-6.5495-6.56v-6.69c1.2705 2.38 3.4595 4.63 6.5495 6.56z"/><path d="m98.7655 176.946v6.69c-.89-1.67-1.33-3.39-1.33-5.12v-6.69c0 1.73.44 3.46 1.33 5.12z"/></g></g><path d="m147.855 159.796c11.59 6.69 11.651 17.54.131 24.23-11.51 6.69-30.231 6.69-41.821 0-11.5895-6.69-11.6495-17.54-.14-24.23 11.51-6.69 30.24-6.69 41.83 0z" fill="#e6f1fe"/><path d="m155.765 160.086-.03 9.65c-.01 4.24-2.8 8.46-8.36 11.7-11.19 6.5-29.4 6.5-40.66 0-5.67-3.27-8.4995-7.57-8.4895-11.86l.03-9.65c-.01 4.29 2.8195 8.59 8.4895 11.86 11.27 6.5 29.47 6.5 40.66 0 5.56-3.23 8.35-7.46 8.36-11.7z" fill="#1499fc"/><g mask="url(#ae)"><path d="m140.066 184.516c-3.87 1.13-8.101 1.73-12.34 1.79-7.97.07-15.771-1.62-21.831-5.38-4.64-2.65-6.3695-6.38-6.3695-6.38-2-2.99-1.16-10.19-1.25-13.98.1 1.47.52 2.93 1.27 4.34 1.2395 2.31 3.3595 4.49 6.3695 6.38 6.07 3.76 13.87 5.45 21.84 5.37 4.24-.05 8.46-.65 12.33-1.79 7.13-1.71 16.14-8.14 15.68-14.78 1.03 13.02-1.319 20.14-15.699 24.43z" fill="url(#G)"/></g><path d="m147.275 148.226c11.27 6.51 11.32 17.05.13 23.55-11.19 6.51-29.4 6.51-40.66 0-11.2695-6.5-11.3295-17.05-.13-23.55 11.19-6.5 29.4-6.5 40.67 0z" fill="#15d9fd"/><path d="m156.586 152.926v6.69c-.01 4.36-2.88 8.71-8.6 12.03-11.51 6.69-30.23 6.69-41.82 0-5.83-3.37-8.7405-7.79-8.7305-12.2v-6.69c-.01 4.41 2.9005 8.83 8.7305 12.2 11.59 6.69 30.31 6.69 41.82 0 5.72-3.32 8.58-7.67 8.6-12.03z" fill="#d4e2fc"/><g mask="url(#af)"><path d="m156.585 152.926v6.69c-.01 4.36-2.879 8.71-8.599 12.03-2.27 1.32-4.81 2.37-7.53 3.17v-6.69c2.72-.8 5.26-1.86 7.53-3.17 5.72-3.32 8.579-7.67 8.599-12.03z" fill="#becef9"/><path d="m140.456 168.126v6.69c-3.98 1.17-8.32 1.78-12.69 1.84v-6.69c4.36-.06 8.71-.67 12.69-1.84z" fill="#cddcfb"/><path d="m127.776 169.966v6.69c-7.79.1-15.64-1.57-21.61-5.01-.29-.17-.58-.34-.85-.51v-6.69c.28.17.56.34.85.51 5.96 3.44 13.82 5.11 21.61 5.01z" fill="#dae8fd"/><g fill="#cddcfb"><path d="m105.315 164.446v6.69c-3.09-1.94-5.279-4.19-6.5495-6.56v-6.69c1.2705 2.38 3.4595 4.63 6.5495 6.56z"/><path d="m98.7655 157.876v6.69c-.89-1.67-1.33-3.39-1.33-5.12v-6.69c0 1.73.44 3.46 1.33 5.12z"/></g></g><path d="m147.855 140.726c11.59 6.69 11.651 17.54.131 24.23-11.51 6.69-30.231 6.69-41.821 0-11.5895-6.69-11.6495-17.54-.14-24.23 11.51-6.69 30.24-6.69 41.83 0z" fill="#e6f1fe"/><path d="m145.235 143.546c10.13 5.14 10.18 13.46.12 18.6s-26.43 5.14-36.56 0c-10.1295-5.14-10.1895-13.46-.12-18.6 10.07-5.14 26.44-5.14 36.57 0z" fill="#dae8fd"/><path d="m146.365 143.316c-5.16-2.98-12.07-4.62-19.45-4.62s-14.34 1.68-19.38 4.61c-4.52 2.63-7.11 6.08-7.11 9.48 0 .17 0 .33.02.5.24 3.27 2.84 6.56 7.21 9.08 5.16 2.98 12.07 4.61 19.45 4.61s14.34-1.68 19.38-4.61c4.3-2.49 6.86-5.75 7.09-8.99.02-.17.02-.34.02-.5 0-3.43-2.65-6.92-7.24-9.57zm4.94 10.57c0 2.56-2.17 5.29-5.97 7.5-4.71 2.73-11.35 4.3-18.23 4.3s-13.48-1.53-18.3-4.31c-3.87-2.23-6.08-5-6.09-7.59 0-.16 0-.33.03-.49-.02-.16-.03-.34-.03-.5 0-2.56 2.17-5.29 5.97-7.5 4.71-2.73 11.35-4.3 18.23-4.3s13.49 1.53 18.3 4.31c3.87 2.23 6.08 5 6.09 7.59 0 .16 0 .33-.03.49.02.16.03.34.03.5z" fill="#98a4e0"/><path d="m146.365 144.306c-5.16-2.98-12.07-4.61-19.45-4.61s-14.34 1.68-19.38 4.61c-4.3 2.5-6.86 5.75-7.09 8.99.24 3.27 2.84 6.56 7.21 9.08 5.16 2.98 12.07 4.61 19.45 4.61s14.34-1.68 19.38-4.61c4.3-2.49 6.86-5.75 7.09-8.99-.24-3.27-2.84-6.55-7.21-9.08zm-1.03 17.08c-4.71 2.73-11.35 4.3-18.23 4.3s-13.48-1.53-18.3-4.31c-3.87-2.23-6.08-5-6.09-7.59 0-.16 0-.33.03-.49-.02-.16-.03-.34-.03-.5 0-2.56 2.17-5.29 5.97-7.5 4.71-2.73 11.35-4.3 18.23-4.3s13.49 1.53 18.3 4.31c3.87 2.23 6.08 5 6.09 7.59 0 .16 0 .33-.03.49.02.16.03.34.03.5 0 2.56-2.17 5.29-5.97 7.5z" fill="url(#H)"/><path d="m215.315 176.286v6.69c-.01 4.36-2.88 8.71-8.6 12.03-11.51 6.69-30.23 6.69-41.82 0-5.83-3.37-8.74-7.79-8.73-12.2v-6.69c-.01 4.41 2.9 8.83 8.73 12.2 11.59 6.69 30.31 6.69 41.82 0 5.72-3.32 8.58-7.67 8.6-12.03z" fill="#d4e2fc"/><g mask="url(#ag)"><path d="m215.315 176.286v6.69c-.01 4.36-2.88 8.71-8.6 12.03-2.27 1.32-4.81 2.38-7.53 3.17v-6.69c2.72-.8 5.26-1.86 7.53-3.17 5.72-3.32 8.58-7.67 8.6-12.03z" fill="#becef9"/><path d="m199.185 191.486v6.69c-3.98 1.17-8.32 1.78-12.69 1.84v-6.69c4.36-.06 8.71-.67 12.69-1.84z" fill="#cddcfb"/><path d="m186.495 193.326v6.69c-7.79.1-15.64-1.57-21.61-5.01-.29-.17-.58-.34-.85-.51v-6.69c.28.17.56.34.85.51 5.96 3.44 13.82 5.11 21.61 5.01z" fill="#dae8fd"/><g fill="#cddcfb"><path d="m164.045 187.796v6.69c-3.09-1.94-5.28-4.19-6.55-6.56v-6.69c1.27 2.38 3.46 4.63 6.55 6.56z"/><path d="m157.495 181.236v6.69c-.89-1.67-1.33-3.39-1.33-5.12v-6.69c0 1.73.44 3.46 1.33 5.12z"/></g></g><path d="m206.585 164.086c11.59 6.69 11.65 17.54.13 24.23-11.51 6.69-30.23 6.69-41.82 0s-11.65-17.54-.14-24.23 30.24-6.69 41.83 0z" fill="#e6f1fe"/><path d="m214.495 164.716-.03 9.65c-.01 4.24-2.8 8.46-8.36 11.7-11.19 6.5-29.4 6.5-40.66 0-5.67-3.27-8.5-7.57-8.49-11.86l.03-9.65c-.01 4.29 2.82 8.59 8.49 11.86 11.27 6.5 29.47 6.5 40.66 0 5.56-3.23 8.35-7.46 8.36-11.7z" fill="#1499fc"/><g mask="url(#ah)"><path d="m214.495 164.726-.03 9.64c-.01 4.24-2.79 8.47-8.35 11.7-2.21 1.28-4.68 2.31-7.32 3.08-3.87 1.14-8.1 1.74-12.34 1.79-7.57.1-15.21-1.52-21.01-4.87-.28-.17-.56-.33-.82-.5-3.01-1.88-5.14-4.07-6.37-6.38-.87-1.62-1.3-3.3-1.3-4.98l.03-9.65c0 1.68.43 3.36 1.29 4.98 1.24 2.31 3.36 4.5 6.37 6.38.27.17.55.34.83.5 5.8 3.35 13.44 4.97 21.01 4.88 4.24-.06 8.46-.65 12.33-1.79 2.64-.78 5.12-1.81 7.32-3.09 5.56-3.23 8.35-7.46 8.36-11.69z" fill="url(#I)"/></g><path d="m206.005 152.856c11.27 6.5 11.32 17.05.13 23.55s-29.4 6.5-40.66 0c-11.27-6.5-11.33-17.05-.13-23.55 11.19-6.5 29.4-6.5 40.67 0z" fill="#15d9fd"/><path d="m215.315 157.556v6.69c-.01 4.36-2.88 8.71-8.6 12.03-11.51 6.69-30.23 6.69-41.82 0-5.83-3.37-8.74-7.79-8.73-12.2v-6.69c-.01 4.41 2.9 8.83 8.73 12.2 11.59 6.69 30.31 6.69 41.82 0 5.72-3.32 8.58-7.67 8.6-12.03z" fill="#d4e2fc"/><g mask="url(#ai)"><path d="m215.315 157.556v6.69c-.01 4.36-2.88 8.71-8.6 12.03-2.27 1.32-4.81 2.37-7.53 3.17v-6.69c2.72-.8 5.26-1.86 7.53-3.17 5.72-3.32 8.58-7.67 8.6-12.03z" fill="#becef9"/><path d="m199.185 172.766v6.69c-3.98 1.17-8.32 1.78-12.69 1.84v-6.69c4.36-.06 8.71-.67 12.69-1.84z" fill="#cddcfb"/><path d="m186.495 174.606v6.69c-7.79.1-15.64-1.57-21.61-5.01-.29-.17-.58-.34-.85-.51v-6.69c.28.17.56.34.85.51 5.96 3.44 13.82 5.11 21.61 5.01z" fill="#dae8fd"/><g fill="#cddcfb"><path d="m164.045 169.076v6.69c-3.09-1.94-5.28-4.19-6.55-6.56v-6.69c1.27 2.38 3.46 4.63 6.55 6.56z"/><path d="m157.495 162.516v6.69c-.89-1.67-1.33-3.39-1.33-5.12v-6.69c0 1.73.44 3.46 1.33 5.12z"/></g></g><path d="m206.585 145.366c11.59 6.69 11.65 17.54.13 24.23-11.51 6.69-30.23 6.69-41.82 0s-11.65-17.54-.14-24.23 30.24-6.69 41.83 0z" fill="#e6f1fe"/><path d="m214.495 146.056-.03 9.65c-.01 4.24-2.8 8.46-8.36 11.7-11.19 6.51-29.4 6.51-40.66 0-5.67-3.27-8.5-7.57-8.49-11.86l.03-9.65c-.01 4.29 2.82 8.59 8.49 11.86 11.27 6.5 29.47 6.5 40.66 0 5.56-3.23 8.35-7.46 8.36-11.7z" fill="#1499fc"/><g mask="url(#aj)"><path d="m214.495 146.066-.03 9.64c-.01 4.24-2.79 8.47-8.35 11.7-2.21 1.28-4.68 2.31-7.32 3.08-3.87 1.14-8.1 1.74-12.34 1.79-7.57.1-15.21-1.52-21.01-4.87-.28-.17-.56-.33-.82-.5-3.01-1.88-5.14-4.07-6.37-6.38-.87-1.62-1.3-3.3-1.3-4.98l.03-9.65c0 1.68.43 3.36 1.29 4.98 1.24 2.31 3.36 4.5 6.37 6.38.27.17.55.34.83.5 5.8 3.35 13.44 4.97 21.01 4.88 4.24-.06 8.46-.65 12.33-1.79 2.64-.78 5.12-1.81 7.32-3.09 5.56-3.23 8.35-7.46 8.36-11.69z" fill="url(#J)"/></g><path d="m206.005 134.196c11.27 6.5 11.32 17.05.13 23.55s-29.4 6.5-40.66 0c-11.27-6.5-11.33-17.05-.13-23.55 11.19-6.51 29.4-6.51 40.67 0z" fill="#15d9fd"/><path d="m215.315 138.896v6.69c-.01 4.36-2.88 8.71-8.6 12.03-11.51 6.69-30.23 6.69-41.82 0-5.83-3.37-8.74-7.79-8.73-12.2v-6.69c-.01 4.41 2.9 8.83 8.73 12.2 11.59 6.69 30.31 6.69 41.82 0 5.72-3.32 8.58-7.67 8.6-12.03z" fill="#d4e2fc"/><g mask="url(#ak)"><path d="m215.315 138.896v6.69c-.01 4.36-2.88 8.71-8.6 12.03-2.27 1.32-4.81 2.38-7.53 3.17v-6.69c2.72-.8 5.26-1.86 7.53-3.17 5.72-3.32 8.58-7.67 8.6-12.03z" fill="#becef9"/><path d="m199.185 154.106v6.69c-3.98 1.17-8.32 1.78-12.69 1.84v-6.69c4.36-.06 8.71-.67 12.69-1.84z" fill="#cddcfb"/><path d="m186.495 155.946v6.69c-7.79.1-15.64-1.57-21.61-5.01-.29-.17-.58-.34-.85-.51v-6.69c.28.17.56.34.85.51 5.96 3.44 13.82 5.11 21.61 5.01z" fill="#dae8fd"/><g fill="#cddcfb"><path d="m164.045 150.416v6.69c-3.09-1.94-5.28-4.19-6.55-6.56v-6.69c1.27 2.38 3.46 4.63 6.55 6.56z"/><path d="m157.495 143.856v6.69c-.89-1.67-1.33-3.39-1.33-5.12v-6.69c0 1.73.44 3.46 1.33 5.12z"/></g></g><path d="m206.585 126.706c11.59 6.69 11.65 17.54.13 24.23-11.51 6.69-30.23 6.69-41.82 0s-11.65-17.54-.14-24.23 30.24-6.69 41.83 0z" fill="#e6f1fe"/><path d="m214.495 126.996-.03 9.65c-.01 4.24-2.8 8.46-8.36 11.7-11.19 6.5-29.4 6.5-40.66 0-5.67-3.27-8.5-7.57-8.49-11.86l.03-9.65c-.01 4.29 2.82 8.59 8.49 11.86 11.27 6.5 29.47 6.5 40.66 0 5.56-3.23 8.35-7.46 8.36-11.7z" fill="#1499fc"/><g mask="url(#al)"><path d="m198.795 151.426c-3.87 1.13-8.1 1.73-12.34 1.79-7.97.07-15.77-1.62-21.83-5.38-4.64-2.65-6.37-6.38-6.37-6.38-2-2.99-1.16-10.19-1.25-13.98.1 1.47.52 2.93 1.27 4.34 1.24 2.31 3.36 4.49 6.37 6.38 6.07 3.76 13.87 5.45 21.84 5.37 4.24-.05 8.46-.65 12.33-1.79 7.13-1.71 16.14-8.14 15.68-14.78 1.03 13.02-1.32 20.14-15.7 24.43z" fill="url(#K)"/></g><path d="m206.005 115.136c11.27 6.51 11.32 17.05.13 23.55-11.19 6.51-29.4 6.51-40.66 0-11.27-6.5-11.33-17.05-.13-23.55 11.19-6.5 29.4-6.5 40.67 0z" fill="#15d9fd"/><path d="m215.315 119.836v6.69c-.01 4.36-2.88 8.71-8.6 12.03-11.51 6.69-30.23 6.69-41.82 0-5.83-3.37-8.74-7.79-8.73-12.2v-6.69c-.01 4.41 2.9 8.83 8.73 12.2 11.59 6.69 30.31 6.69 41.82 0 5.72-3.32 8.58-7.67 8.6-12.03z" fill="#d4e2fc"/><g mask="url(#am)"><path d="m215.315 119.836v6.69c-.01 4.36-2.88 8.71-8.6 12.03-2.27 1.32-4.81 2.37-7.53 3.17v-6.69c2.72-.8 5.26-1.86 7.53-3.17 5.72-3.32 8.58-7.67 8.6-12.03z" fill="#becef9"/><path d="m199.185 135.036v6.69c-3.98 1.17-8.32 1.78-12.69 1.84v-6.69c4.36-.06 8.71-.67 12.69-1.84z" fill="#cddcfb"/><path d="m186.495 136.876v6.69c-7.79.1-15.64-1.57-21.61-5.01-.29-.17-.58-.34-.85-.51v-6.69c.28.17.56.34.85.51 5.96 3.44 13.82 5.11 21.61 5.01z" fill="#dae8fd"/><g fill="#cddcfb"><path d="m164.045 131.356v6.69c-3.09-1.94-5.28-4.19-6.55-6.56v-6.69c1.27 2.38 3.46 4.63 6.55 6.56z"/><path d="m157.495 124.786v6.69c-.89-1.67-1.33-3.39-1.33-5.12v-6.69c0 1.73.44 3.46 1.33 5.12z"/></g></g><path d="m206.585 107.636c11.59 6.69 11.65 17.54.13 24.23-11.51 6.69-30.23 6.69-41.82 0s-11.65-17.54-.14-24.23 30.24-6.69 41.83 0z" fill="#e6f1fe"/><path d="m203.965 110.456c10.13 5.14 10.18 13.46.12 18.6s-26.43 5.14-36.56 0-10.19-13.46-.12-18.6 26.44-5.14 36.57 0z" fill="#dae8fd"/><path d="m205.095 110.226c-5.16-2.98-12.07-4.62-19.45-4.62s-14.34 1.68-19.38 4.61c-4.52 2.63-7.11 6.08-7.11 9.48 0 .17 0 .33.02.5.24 3.27 2.84 6.56 7.21 9.08 5.16 2.98 12.07 4.61 19.45 4.61s14.34-1.68 19.38-4.61c4.3-2.49 6.86-5.75 7.09-8.99.02-.17.02-.34.02-.5 0-3.43-2.65-6.92-7.24-9.57zm4.94 10.57c0 2.56-2.17 5.29-5.97 7.5-4.71 2.73-11.35 4.3-18.23 4.3s-13.48-1.53-18.3-4.31c-3.87-2.23-6.08-5-6.09-7.59 0-.16 0-.33.03-.49-.02-.16-.03-.34-.03-.5 0-2.56 2.17-5.29 5.97-7.5 4.71-2.73 11.35-4.3 18.23-4.3s13.49 1.53 18.3 4.31c3.87 2.23 6.08 5 6.09 7.59 0 .16 0 .33-.03.49.02.16.03.34.03.5z" fill="#98a4e0"/><path d="m205.095 111.216c-5.16-2.98-12.07-4.61-19.45-4.61s-14.34 1.68-19.38 4.61c-4.3 2.5-6.86 5.75-7.09 8.99.24 3.27 2.84 6.56 7.21 9.08 5.16 2.98 12.07 4.61 19.45 4.61s14.34-1.68 19.38-4.61c4.3-2.49 6.86-5.75 7.09-8.99-.24-3.27-2.84-6.55-7.21-9.08zm-1.03 17.08c-4.71 2.73-11.35 4.3-18.23 4.3s-13.48-1.53-18.3-4.31c-3.87-2.23-6.08-5-6.09-7.59 0-.16 0-.33.03-.49-.02-.16-.03-.34-.03-.5 0-2.56 2.17-5.29 5.97-7.5 4.71-2.73 11.35-4.3 18.23-4.3s13.49 1.53 18.3 4.31c3.87 2.23 6.08 5 6.09 7.59 0 .16 0 .33-.03.49.02.16.03.34.03.5 0 2.56-2.17 5.29-5.97 7.5z" fill="url(#L)"/><path d="m127.845 60.3357h-1.36v93.0403h1.36z" fill="#50cef5"/><path d="m66.8955 188.926h-1.36v-56.4l.34-.19 120.7005-69.4703v57.0503h-1.37v-54.6903l-118.3105 68.0903z" fill="#50cef5"/><g fill="#000c83" mask="url(#an)"><path d="m78.852 50.926h9.97242v67.0926h-9.97242z" transform="matrix(.81263721 -.58276991 .58276991 .81263721 -14.90421 55.49421)"/><path d="m129.391 31.1562h9.97242v67.0926h-9.97242z" transform="matrix(.99973475 .02303107 -.02303107 .99973475 .751882 -2.971749)"/></g><path d="m69.5155 187.586c-1.87-1.08-4.91-1.08-6.79 0-1.87 1.08-1.87 2.84 0 3.92s4.91 1.08 6.79 0c1.87-1.08 1.87-2.84 0-3.92z" fill="#50cef5"/><circle cx="119.447" cy="98.6423" fill="url(#N)" r="11.6185"/><circle cx="131.605" cy="93.2775" fill="url(#O)" r="11.6185"/><circle cx="126.055" cy="98.4557" fill="url(#P)" r="11.6185"/><path d="m132.135 153.196c-.87-3.69-9.08-3.69-9.94 0 .87 3.69 9.08 3.69 9.94 0z" fill="#50cef5"/><path d="m190.865 119.916c-.87-3.69-9.08-3.69-9.94 0 .87 3.69 9.08 3.69 9.94 0z" fill="#50cef5"/><path d="m240.096 29.4257c0 .81-.661 1.47-1.461 1.47s-1.47-.66-1.47-1.47.66-1.47 1.47-1.47 1.461.66 1.461 1.47z" fill="#929394" opacity=".17"/><path d="m240.115 47.9058c0 .82-.669 1.49-1.489 1.49s-1.491-.67-1.491-1.49.671-1.49 1.491-1.49 1.489.67 1.489 1.49z" fill="#a4a7a9" opacity=".33"/><path d="m240.135 66.3857c0 .83-.68 1.51-1.51 1.51s-1.51-.68-1.51-1.51.68-1.51 1.51-1.51 1.51.68 1.51 1.51z" fill="#b7bbbf" opacity=".5"/><path d="m240.165 84.8657c0 .85-.69 1.53-1.53 1.53s-1.53-.69-1.53-1.53.69-1.53 1.53-1.53 1.53.69 1.53 1.53z" fill="#caced4" opacity=".67"/><path d="m240.186 103.346c0 .86-.7 1.55-1.55 1.55s-1.55-.7-1.55-1.55.7-1.55 1.55-1.55 1.55.7 1.55 1.55z" fill="#dce2e9" opacity=".83"/><path d="m240.206 121.826c0 .87-.71 1.58-1.58 1.58s-1.58-.7-1.58-1.58.71-1.58 1.58-1.58 1.58.71 1.58 1.58z" fill="#eff6fe"/><path d="m16.6755 157.806c0 .81-.66 1.47-1.46 1.47s-1.46-.66-1.46-1.47.66-1.46 1.46-1.46 1.46.66 1.46 1.46z" fill="#929394" opacity=".17"/><path d="m16.6955 176.286c0 .82-.67 1.49-1.49 1.49s-1.49-.67-1.49-1.49.67-1.49 1.49-1.49 1.49.67 1.49 1.49z" fill="#a4a7a9" opacity=".33"/><path d="m16.7155 194.766c0 .83-.68 1.51-1.51 1.51s-1.51-.68-1.51-1.51.68-1.51 1.51-1.51 1.51.68 1.51 1.51z" fill="#b7bbbf" opacity=".5"/><path d="m16.7355 213.246c0 .85-.69 1.53-1.53 1.53s-1.53-.69-1.53-1.53.69-1.53 1.53-1.53 1.53.69 1.53 1.53z" fill="#caced4" opacity=".67"/><path d="m16.7655 231.726c0 .86-.7 1.55-1.55 1.55s-1.55-.7-1.55-1.55.7-1.55 1.55-1.55 1.55.7 1.55 1.55z" fill="#dce2e9" opacity=".83"/><path d="m16.7855 250.206c0 .87-.71 1.58-1.58 1.58s-1.58-.71-1.58-1.58.71-1.58 1.58-1.58 1.58.71 1.58 1.58z" fill="#eff6fe"/><path d="m80.8655 260.016c0 .81-.66 1.47-1.46 1.47s-1.47-.66-1.47-1.47.66-1.46 1.47-1.46 1.46.66 1.46 1.46z" fill="#929394" opacity=".17"/><path d="m80.8855 269.456c0 .82-.67 1.49-1.49 1.49s-1.49-.67-1.49-1.49.67-1.49 1.49-1.49 1.49.67 1.49 1.49z" fill="#a4a7a9" opacity=".33"/><path d="m80.9055 278.896c0 .83-.68 1.51-1.51 1.51s-1.51-.68-1.51-1.51.68-1.51 1.51-1.51 1.51.68 1.51 1.51z" fill="#b7bbbf" opacity=".5"/><path d="m80.9255 288.346c0 .85-.69 1.53-1.53 1.53s-1.53-.69-1.53-1.53.69-1.53 1.53-1.53 1.53.69 1.53 1.53z" fill="#caced4" opacity=".67"/><path d="m80.9455 297.786c0 .86-.7 1.55-1.55 1.55s-1.55-.7-1.55-1.55.7-1.55 1.55-1.55 1.55.7 1.55 1.55z" fill="#dce2e9" opacity=".83"/><path d="m80.9755 307.226c0 .87-.71 1.58-1.58 1.58s-1.58-.71-1.58-1.58.71-1.58 1.58-1.58 1.58.7 1.58 1.58z" fill="#eff6fe"/><path d="m56.6955 90.5058c0 .81-.66 1.46-1.47 1.46s-1.46-.66-1.46-1.46.66-1.46 1.46-1.46 1.47.66 1.47 1.46z" fill="#929394" opacity=".17"/><path d="m56.7155 99.9457c0 .8203-.67 1.4903-1.49 1.4903s-1.49-.67-1.49-1.4903c0-.82.67-1.49 1.49-1.49s1.49.67 1.49 1.49z" fill="#a4a7a9" opacity=".33"/><path d="m56.7355 109.386c0 .83-.68 1.51-1.51 1.51s-1.51-.68-1.51-1.51.68-1.51 1.51-1.51 1.51.68 1.51 1.51z" fill="#b7bbbf" opacity=".5"/><path d="m56.7555 118.826c0 .85-.69 1.53-1.53 1.53s-1.53-.69-1.53-1.53.69-1.53 1.53-1.53 1.53.69 1.53 1.53z" fill="#caced4" opacity=".67"/><path d="m56.7755 128.266c0 .86-.7 1.55-1.55 1.55s-1.55-.7-1.55-1.55.7-1.55 1.55-1.55 1.55.7 1.55 1.55z" fill="#dce2e9" opacity=".83"/><path d="m56.8055 137.706c0 .87-.71 1.58-1.58 1.58s-1.58-.71-1.58-1.58.71-1.58 1.58-1.58 1.58.71 1.58 1.58z" fill="#eff6fe"/><g fill="#becef9"><path d="m150.316 45.8657 7.849 4.56c-2.62-1.52-6.249-1.31-10.259 1.01-.86.49-1.69 1.06-2.51 1.7l-7.85-4.56c.81-.64 1.649-1.21 2.509-1.7 4.01-2.31 7.641-2.53 10.261-1.01z"/><g mask="url(#ao)"><path d="m145.396 53.1257-7.85-4.56c.81-.64 1.649-1.21 2.509-1.7 1.53-.88 3-1.46 4.39-1.75l7.851 4.56c-1.38.29-2.86.87-4.39 1.75-.86.49-1.69 1.06-2.51 1.7z"/><path d="m152.296 49.6757-7.851-4.56c2.13-.45 4.041-.22 5.621.61l7.849 4.56c-1.57-.83-3.489-1.05-5.619-.61z"/><path d="m157.915 50.2857-7.85-4.56c.09.05.17.09.26.14l7.85 4.56c-.08-.05-.17-.1-.26-.14z"/></g><path d="m131.896 40.3857 7.849 4.56c-3.93-2.29-9.38-1.96-15.39 1.51l-7.85-4.56c6.01-3.47 11.46-3.79 15.391-1.51z"/><g mask="url(#ap)"><path d="m124.366 46.4557-7.85-4.56c2.29-1.32 4.499-2.19 6.579-2.63l7.85 4.56c-2.08.44-4.279 1.3-6.579 2.63z"/><path d="m130.945 43.8257-7.85-4.56c3.19-.67 6.07-.33 8.43.91l7.85 4.56c-2.36-1.24-5.24-1.58-8.43-.91z"/><path d="m139.376 44.7357-7.85-4.56c.13.07.26.14.38.21l7.85 4.56c-.13-.07-.25-.14-.38-.21z"/></g><path d="m103.436 77.3558-7.8505-4.5601c2.33-12.1499 10.8005-25.0499 20.9305-30.8999l7.85 4.56c-10.12 5.84-18.6 18.75-20.93 30.9z"/><g mask="url(#aq)"><path d="m103.436 77.3557-7.8505-4.56c.63-3.31 1.72-6.67 3.18-9.93l7.8505 4.56c-1.45 3.26-2.54 6.63-3.18 9.93z"/><path d="m106.616 67.4258-7.8505-4.56c1.8805-4.22 4.3695-8.26 7.2695-11.8l7.85 4.56c-2.9 3.54-5.389 7.58-7.269 11.8z"/><path d="m113.886 55.6258-7.85-4.56c3.1-3.78 6.67-6.97 10.48-9.17l7.85 4.56c-3.8 2.2-7.38 5.39-10.48 9.17z"/></g><path d="m90.7655 112.706-7.85-4.56c-2.59-1.5-4.19-4.7-4.21-9.2503-.03-9.15 6.41-20.3 14.38-24.9.86-.49 1.69-.89 2.51-1.2l7.8495 4.56c-.82.3-1.65.7-2.51 1.2-7.9695 4.6-14.3995 15.75-14.3795 24.9003.01 4.55 1.62 7.75 4.21 9.25z"/><g mask="url(#ar)"><path d="m90.7655 112.706-7.85-4.56c-2.59-1.5-4.19-4.7-4.21-9.2503 0-3.51.93-7.31 2.54-10.92l7.85 4.56c-1.61 3.61-2.55 7.41-2.54 10.9203.01 4.55 1.62 7.75 4.21 9.25z"/><path d="m89.0955 92.5357-7.85-4.56c1.25-2.81 2.92-5.51 4.85-7.87l7.85 4.56c-1.94 2.36-3.6 5.06-4.85 7.87z"/><path d="m93.9455 84.6657-7.85-4.56c2.07-2.52 4.45-4.64 6.98-6.11.86-.49 1.69-.89 2.51-1.2l7.8505 4.56c-.82.3-1.65.7-2.51 1.2-2.5405 1.46-4.9205 3.59-6.9805 6.11z"/></g></g><path d="m124.365 46.4557c10.12-5.84 18.65-2.76 21.03 6.67.81-.64 1.65-1.21 2.51-1.7 7.97-4.6 14.44-.91 14.47 8.25.02 8.58-5.63 18.9-12.89 23.96l-48.46 28.0703c-7.9695 4.6-14.4395.91-14.4695-8.25-.03-9.1503 6.41-20.3003 14.3795-24.9003.86-.49 1.69-.89 2.51-1.2 2.33-12.15 10.8-25.05 20.93-30.9z" fill="#eff6fe"/><g opacity=".7"><path d="m116.415 78.3556c-.16.09-.32.16-.49.19-.8.15-1.23-.6-.96-1.67 1.23-4.92 4.18-9.81 7.9-13.08 5.44-4.78 11.02-4.88 13.27-.23.34.7-.02 1.93-.79 2.77-.77.83-1.67.94-2 .25-1.64-3.4-5.73-3.33-9.71.17-2.72 2.39-4.89 5.97-5.79 9.58-.21.86-.81 1.66-1.44 2.03z" fill="url(#Q)"/><path d="m112.945 77.3656 3.89 5.28 3.7-9.79z" fill="#00d4c6"/><path d="m126.085 89.0956c-4.18 2.41-8.18 2.03-10.14-1.25-.38-.64-.09-1.87.66-2.75s1.67-1.06 2.05-.42c1.76 2.94 5.75 2.7 9.49-.59 2.77-2.44 4.95-6.08 5.83-9.74.26-1.07 1.11-2.08 1.91-2.24.8-.17 1.24.57.99 1.64-1.19 5-4.17 9.98-7.96 13.31-.94.82-1.89 1.51-2.82 2.05z" fill="url(#R)"/><path d="m138.875 73.6256-3.31-5.97-4.26 9.71z" fill="#00d4c6"/></g><path d="m211.065 6.24571 3.25-1.88v-3.759997l-3.25 1.879997z" fill="#eff6fe" opacity=".4"/><path d="m150.176 73.4857 3.26-1.88v-3.76l-3.26 1.88z" fill="#eff6fe" opacity=".3"/><path d="m75.4455 114.976 3.25-1.88v-3.75l-3.25 1.88z" fill="#eff6fe"/><path d="m159.105 76.3058 3.26-1.88v-3.76l-3.26 1.88z" fill="#eff6fe" opacity=".7"/><path d="m.5755 214.666 3.25-1.88v-3.76l-3.25 1.88z" fill="#eff6fe"/><path d="m24.3955 167.866 3.26-1.88v-3.76l-3.26 1.88z" fill="#eff6fe" opacity=".5"/></svg>