<svg width="266" height="309" viewBox="0 0 266 309" fill="none" xmlns="http://www.w3.org/2000/svg">
<path d="M109.516 281.056L109.336 280.956L67.9555 255.436L68.3155 254.816L109.516 280.236L232.255 209.736L187.326 183.916L187.686 183.296L233.695 209.736L233.156 210.036L109.516 281.056Z" fill="url(#paint0_linear_698_79)"/>
<path d="M82.2346 259.166L81.8953 259.755L83.0738 260.434L83.4132 259.845L82.2346 259.166Z" fill="url(#paint1_linear_698_79)"/>
<path d="M116.295 279.596L113.925 278.226L114.265 277.636L116.635 279.006L116.295 279.596ZM111.545 276.866L109.175 275.496L109.515 274.906L111.885 276.276L111.545 276.866ZM106.795 274.136L104.425 272.766L104.765 272.176L107.135 273.546L106.795 274.136ZM102.045 271.406L99.6755 270.036L100.015 269.446L102.385 270.816L102.045 271.406ZM97.2955 268.676L94.9255 267.306L95.2655 266.716L97.6355 268.086L97.2955 268.676ZM92.5455 265.946L90.1755 264.576L90.5155 263.986L92.8855 265.356L92.5455 265.946ZM87.7955 263.206L85.4255 261.836L85.7655 261.246L88.1355 262.616L87.7955 263.206Z" fill="url(#paint2_linear_698_79)"/>
<path d="M80.1855 258.736L77.8155 257.366L78.1555 256.776L80.5255 258.146L80.1855 258.736ZM75.8455 256.296L73.0655 254.636L73.4055 254.046L76.1855 255.706L75.8455 256.296Z" fill="url(#paint3_linear_698_79)"/>
<path d="M119.125 281.396L117.775 280.616L118.115 280.026L119.125 280.606L120.145 280.016L120.485 280.616L119.125 281.396Z" fill="url(#paint4_linear_698_79)"/>
<path d="M125.575 277.736L125.235 277.146L127.545 275.816L127.885 276.406L125.575 277.736ZM121.715 280.016L121.375 279.426L123.685 278.096L124.025 278.686L121.715 280.016ZM130.195 275.066L129.855 274.476L132.165 273.146L132.505 273.736L130.195 275.066ZM134.815 272.396L134.475 271.806L136.785 270.476L137.125 271.066L134.815 272.396ZM139.435 269.726L139.095 269.136L141.405 267.806L141.745 268.396L139.435 269.726ZM144.055 267.056L143.715 266.466L146.025 265.136L146.365 265.726L144.055 267.056ZM148.675 264.386L148.335 263.796L150.645 262.466L150.985 263.056L148.675 264.386ZM153.295 261.716L152.955 261.126L155.265 259.796L155.605 260.386L153.295 261.716ZM157.915 259.046L157.575 258.456L159.885 257.126L160.225 257.716L157.915 259.046ZM162.535 256.376L162.195 255.786L164.505 254.456L164.845 255.046L162.535 256.376ZM167.155 253.706L166.815 253.116L169.125 251.786L169.465 252.376L167.155 253.706ZM171.775 251.036L171.435 250.446L173.745 249.116L174.085 249.706L171.775 251.036ZM176.395 248.366L176.055 247.776L178.365 246.446L178.705 247.036L176.395 248.366Z" fill="url(#paint5_linear_698_79)"/>
<path d="M181.035 245.726L180.685 245.136L181.365 244.746L180.695 244.346L181.045 243.756L182.715 244.756L181.035 245.726Z" fill="url(#paint6_linear_698_79)"/>
<path d="M178.266 242.916L175.846 241.486L176.195 240.896L178.615 242.326L178.266 242.916ZM173.415 240.046L170.995 238.616L171.346 238.026L173.766 239.456L173.415 240.046ZM168.566 237.176L166.146 235.746L166.495 235.156L168.915 236.586L168.566 237.176ZM163.715 234.306L161.296 232.876L161.646 232.286L164.066 233.716L163.715 234.306ZM158.865 231.436L156.445 230.006L156.796 229.416L159.215 230.846L158.865 231.436ZM154.016 228.566L151.596 227.136L151.945 226.546L154.365 227.976L154.016 228.566ZM149.165 225.696L146.745 224.266L147.096 223.676L149.516 225.106L149.165 225.696ZM144.316 222.826L141.896 221.396L142.245 220.806L144.665 222.236L144.316 222.826ZM139.465 219.956L137.046 218.526L137.396 217.936L139.816 219.366L139.465 219.956Z" fill="url(#paint7_linear_698_79)"/>
<path d="M133.819 215.797L133.473 216.383L134.643 217.075L134.989 216.49L133.819 215.797Z" fill="url(#paint8_linear_698_79)"/>
<path d="M129.436 218.364L129.09 218.95L130.27 219.646L130.616 219.061L129.436 218.364Z" fill="url(#paint9_linear_698_79)"/>
<path d="M166.155 240.816L163.915 239.496L164.265 238.906L166.505 240.226L166.155 240.816ZM161.665 238.166L159.425 236.846L159.775 236.256L162.015 237.576L161.665 238.166ZM157.175 235.516L154.935 234.196L155.285 233.606L157.525 234.926L157.175 235.516ZM152.685 232.866L150.445 231.546L150.795 230.956L153.035 232.276L152.685 232.866ZM148.195 230.216L145.955 228.896L146.305 228.306L148.545 229.626L148.195 230.216ZM143.705 227.566L141.465 226.246L141.815 225.656L144.055 226.976L143.705 227.566ZM139.215 224.916L136.975 223.596L137.325 223.006L139.565 224.326L139.215 224.916ZM134.725 222.266L132.485 220.946L132.835 220.356L135.075 221.676L134.725 222.266Z" fill="url(#paint10_linear_698_79)"/>
<path d="M169.745 242.936L168.405 242.146L168.745 241.556L169.745 242.146L170.755 241.556L171.095 242.146L169.745 242.936Z" fill="url(#paint11_linear_698_79)"/>
<path d="M173.435 240.756L173.085 240.166L175.425 238.786L175.775 239.376L173.435 240.756ZM178.115 237.986L177.765 237.396L180.105 236.016L180.455 236.606L178.115 237.986ZM182.795 235.216L182.445 234.626L184.785 233.246L185.135 233.836L182.795 235.216ZM187.475 232.446L187.125 231.856L189.465 230.476L189.815 231.066L187.475 232.446ZM192.155 229.676L191.805 229.086L194.145 227.706L194.495 228.296L192.155 229.676ZM196.835 226.906L196.485 226.316L198.825 224.936L199.175 225.526L196.835 226.906ZM201.515 224.136L201.165 223.546L203.505 222.166L203.855 222.756L201.515 224.136ZM206.195 221.366L205.845 220.776L208.185 219.396L208.535 219.986L206.195 221.366ZM210.875 218.596L210.525 218.006L212.865 216.626L213.215 217.216L210.875 218.596ZM215.555 215.826L215.205 215.236L217.545 213.856L217.895 214.446L215.555 215.826ZM220.235 213.056L219.885 212.466L222.225 211.086L222.575 211.676L220.235 213.056ZM224.915 210.286L224.565 209.696L226.905 208.316L227.255 208.906L224.915 210.286ZM228.435 208.136L228.085 207.546L230.425 206.166L230.775 206.756L228.435 208.136Z" fill="url(#paint12_linear_698_79)"/>
<path d="M232.005 205.846L231.665 205.256L232.325 204.856L231.655 204.476L231.995 203.886L233.695 204.846L232.005 205.846Z" fill="url(#paint13_linear_698_79)"/>
<path d="M228.705 202.946L226.315 201.586L226.655 200.996L229.045 202.356L228.705 202.946ZM223.915 200.226L221.525 198.866L221.865 198.276L224.255 199.636L223.915 200.226ZM219.125 197.506L216.735 196.146L217.075 195.556L219.465 196.916L219.125 197.506ZM214.335 194.786L211.945 193.426L212.285 192.836L214.675 194.196L214.335 194.786ZM209.545 192.066L207.155 190.706L207.495 190.116L209.885 191.476L209.545 192.066ZM204.755 189.346L202.365 187.986L202.705 187.396L205.095 188.756L204.755 189.346ZM199.965 186.626L197.575 185.266L197.915 184.676L200.305 186.036L199.965 186.626Z" fill="url(#paint14_linear_698_79)"/>
<path d="M173.303 173.669L172.967 174.261L174.15 174.932L174.486 174.34L173.303 173.669Z" fill="url(#paint15_linear_698_79)"/>
<path d="M183.655 238.386L139.465 212.706L139.805 212.116L183.655 237.596L215.435 219.246L215.775 219.836L183.655 238.386Z" fill="url(#paint16_linear_698_79)"/>
<path d="M122.002 220.969L121.662 221.557L176.109 252.992L176.449 252.404L122.002 220.969Z" fill="url(#paint17_linear_698_79)"/>
<path d="M125.745 301.426L95.5755 282.746L113.435 272.646L77.4355 251.326L77.7855 250.746L114.795 272.656L96.9355 282.756L126.085 300.846L125.745 301.426Z" fill="url(#paint18_linear_698_79)"/>
<path d="M263.435 214.896L226.875 193.926L209.965 203.776L209.795 203.676C199.805 197.736 184.645 188.796 183.845 188.526L183.975 187.856C184.655 187.956 203.815 199.316 209.975 202.976L226.875 193.126L263.775 214.286L263.435 214.876V214.896Z" fill="url(#paint19_linear_698_79)"/>
<path d="M174.335 251.616C175.395 250.996 177.115 250.976 178.175 251.576C179.245 252.176 179.255 253.176 178.195 253.796C177.135 254.416 175.415 254.436 174.355 253.836C173.285 253.236 173.275 252.236 174.335 251.616Z" fill="url(#paint20_linear_698_79)"/>
<path d="M213.676 218.386C214.736 217.766 216.456 217.746 217.516 218.346C218.586 218.946 218.596 219.946 217.536 220.566C216.476 221.186 214.756 221.206 213.696 220.606C212.626 220.006 212.616 219.006 213.676 218.386Z" fill="url(#paint21_linear_698_79)"/>
<path d="M260.895 213.096C261.955 212.476 263.675 212.456 264.735 213.056C265.805 213.656 265.815 214.656 264.755 215.276C263.695 215.896 261.975 215.916 260.915 215.316C259.845 214.716 259.835 213.716 260.895 213.096Z" fill="url(#paint22_linear_698_79)"/>
<path d="M123.316 299.816C124.376 299.206 126.096 299.206 127.156 299.816C128.216 300.426 128.216 301.426 127.156 302.036C126.096 302.646 124.376 302.646 123.316 302.036C122.256 301.426 122.256 300.426 123.316 299.816Z" fill="url(#paint23_linear_698_79)"/>
<path d="M95.1111 245.428V252.118C95.1011 256.478 92.2311 260.828 86.5111 264.148C75.0011 270.838 56.2811 270.838 44.6911 264.148C38.8611 260.778 35.9511 256.358 35.9611 251.948V245.258C35.9511 249.668 38.8611 254.088 44.6911 257.458C56.2811 264.148 75.0011 264.148 86.5111 257.458C92.2311 254.138 95.0911 249.788 95.1111 245.428Z" fill="#D4E2FC"/>
<mask id="mask0_698_79" style="mask-type:luminance" maskUnits="userSpaceOnUse" x="35" y="245" width="61" height="25">
<path d="M95.1111 245.428V252.118C95.1011 256.478 92.2311 260.828 86.5111 264.148C75.0011 270.838 56.2811 270.838 44.6911 264.148C38.8611 260.778 35.9511 256.358 35.9611 251.948V245.258C35.9511 249.668 38.8611 254.088 44.6911 257.458C56.2811 264.148 75.0011 264.148 86.5111 257.458C92.2311 254.138 95.0911 249.788 95.1111 245.428Z" fill="white"/>
</mask>
<g mask="url(#mask0_698_79)">
<path d="M95.1111 245.428V252.118C95.1011 256.478 92.2311 260.828 86.5111 264.148C84.2411 265.468 81.7011 266.528 78.9811 267.318V260.628C81.7011 259.828 84.2411 258.768 86.5111 257.458C92.2311 254.138 95.0911 249.788 95.1111 245.428Z" fill="#BECEF9"/>
<path d="M78.9911 260.628V267.318C75.0111 268.488 70.6711 269.098 66.3011 269.158V262.468C70.6611 262.408 75.0111 261.798 78.9911 260.628Z" fill="#CDDCFB"/>
<path d="M66.3011 262.468V269.158C58.5111 269.258 50.6611 267.588 44.6911 264.148C44.4011 263.978 44.1111 263.808 43.8411 263.638V256.948C44.1211 257.118 44.4011 257.288 44.6911 257.458C50.6511 260.898 58.5111 262.568 66.3011 262.468Z" fill="#DAE8FD"/>
<path d="M43.8411 256.948V263.638C40.7511 261.698 38.5611 259.448 37.2911 257.078V250.388C38.5611 252.768 40.7511 255.018 43.8411 256.948Z" fill="#CDDCFB"/>
<path d="M37.2911 250.378V257.068C36.4011 255.398 35.9611 253.678 35.9611 251.948V245.258C35.9611 246.988 36.4011 248.718 37.2911 250.378Z" fill="#CDDCFB"/>
</g>
<path d="M86.3811 233.228C97.9711 239.918 98.0311 250.768 86.5111 257.458C75.0011 264.148 56.2811 264.148 44.6911 257.458C33.1011 250.768 33.0411 239.918 44.5511 233.228C56.0611 226.538 74.7911 226.538 86.3811 233.228Z" fill="#E6F1FE"/>
<path d="M94.2911 233.868L94.2611 243.518C94.2511 247.758 91.4611 251.979 85.9011 255.219C74.7111 261.719 56.5011 261.719 45.2411 255.219C39.5711 251.949 36.7411 247.648 36.7511 243.358L36.7811 233.708C36.7711 237.998 39.6011 242.298 45.2711 245.568C56.5411 252.068 74.7411 252.068 85.9311 245.568C91.4911 242.338 94.2811 238.108 94.2911 233.868Z" fill="#1499FC"/>
<mask id="mask1_698_79" style="mask-type:luminance" maskUnits="userSpaceOnUse" x="36" y="233" width="59" height="28">
<path d="M94.2911 233.868L94.2611 243.518C94.2511 247.758 91.4611 251.979 85.9011 255.219C74.7111 261.719 56.5011 261.719 45.2411 255.219C39.5711 251.949 36.7411 247.648 36.7511 243.358L36.7811 233.708C36.7711 237.998 39.6011 242.298 45.2711 245.568C56.5411 252.068 74.7411 252.068 85.9311 245.568C91.4911 242.338 94.2811 238.108 94.2911 233.868Z" fill="white"/>
</mask>
<g mask="url(#mask1_698_79)">
<path d="M94.2911 233.868L94.2611 243.508C94.2511 247.748 91.4711 251.978 85.9111 255.208C83.7011 256.488 81.2311 257.518 78.5911 258.288C74.7211 259.428 70.4911 260.028 66.2511 260.078C58.6811 260.178 51.0411 258.558 45.2411 255.208C44.9611 255.038 44.6811 254.878 44.4211 254.708C41.4111 252.828 39.2811 250.638 38.0511 248.328C37.1811 246.708 36.7511 245.028 36.7511 243.348L36.7811 233.698C36.7811 235.378 37.2111 237.058 38.0711 238.678C39.3111 240.988 41.4311 243.178 44.4411 245.058C44.7111 245.228 44.9911 245.398 45.2711 245.558C51.0711 248.908 58.7111 250.528 66.2811 250.438C70.5211 250.378 74.7411 249.788 78.6111 248.648C81.2511 247.868 83.7311 246.838 85.9311 245.558C91.4911 242.328 94.2811 238.098 94.2911 233.868Z" fill="url(#paint24_linear_698_79)"/>
</g>
<path d="M85.8111 222.009C97.0811 228.509 97.1311 239.059 85.9411 245.559C74.7511 252.059 56.5411 252.059 45.2811 245.559C34.0111 239.059 33.9511 228.509 45.1511 222.009C56.3411 215.509 74.5511 215.509 85.8211 222.009H85.8111Z" fill="#15D9FD"/>
<path d="M95.1111 226.708V233.398C95.1011 237.758 92.2311 242.108 86.5111 245.428C75.0011 252.118 56.2811 252.118 44.6911 245.428C38.8611 242.058 35.9511 237.638 35.9611 233.228V226.538C35.9511 230.948 38.8611 235.368 44.6911 238.738C56.2811 245.428 75.0011 245.428 86.5111 238.738C92.2311 235.418 95.0911 231.068 95.1111 226.708Z" fill="#D4E2FC"/>
<mask id="mask2_698_79" style="mask-type:luminance" maskUnits="userSpaceOnUse" x="35" y="226" width="61" height="25">
<path d="M95.1111 226.708V233.398C95.1011 237.758 92.2311 242.108 86.5111 245.428C75.0011 252.118 56.2811 252.118 44.6911 245.428C38.8611 242.058 35.9511 237.638 35.9611 233.228V226.538C35.9511 230.948 38.8611 235.368 44.6911 238.738C56.2811 245.428 75.0011 245.428 86.5111 238.738C92.2311 235.418 95.0911 231.068 95.1111 226.708Z" fill="white"/>
</mask>
<g mask="url(#mask2_698_79)">
<path d="M95.1111 226.708V233.398C95.1011 237.758 92.2311 242.108 86.5111 245.428C84.2411 246.748 81.7011 247.799 78.9811 248.599V241.908C81.7011 241.108 84.2411 240.048 86.5111 238.738C92.2311 235.418 95.0911 231.068 95.1111 226.708Z" fill="#BECEF9"/>
<path d="M78.9911 241.908V248.598C75.0111 249.768 70.6711 250.378 66.3011 250.438V243.748C70.6611 243.688 75.0111 243.078 78.9911 241.908Z" fill="#CDDCFB"/>
<path d="M66.3011 243.749V250.439C58.5111 250.539 50.6611 248.869 44.6911 245.429C44.4011 245.259 44.1111 245.089 43.8411 244.919V238.229C44.1211 238.399 44.4011 238.569 44.6911 238.739C50.6511 242.179 58.5111 243.849 66.3011 243.749Z" fill="#DAE8FD"/>
<path d="M43.8411 238.228V244.918C40.7511 242.978 38.5611 240.728 37.2911 238.358V231.668C38.5611 234.048 40.7511 236.298 43.8411 238.228Z" fill="#CDDCFB"/>
<path d="M37.2911 231.658V238.348C36.4011 236.678 35.9611 234.958 35.9611 233.228V226.538C35.9611 228.268 36.4011 229.998 37.2911 231.658Z" fill="#CDDCFB"/>
</g>
<path d="M86.3811 214.508C97.9711 221.198 98.0311 232.048 86.5111 238.738C75.0011 245.428 56.2811 245.428 44.6911 238.738C33.1011 232.048 33.0411 221.198 44.5511 214.508C56.0611 207.818 74.7911 207.818 86.3811 214.508Z" fill="#E6F1FE"/>
<path d="M94.2911 215.208L94.2611 224.858C94.2511 229.098 91.4611 233.318 85.9011 236.558C74.7111 243.068 56.5011 243.068 45.2411 236.558C39.5711 233.288 36.7411 228.988 36.7511 224.698L36.7811 215.048C36.7711 219.338 39.6011 223.638 45.2711 226.908C56.5411 233.408 74.7411 233.408 85.9311 226.908C91.4911 223.678 94.2811 219.448 94.2911 215.208Z" fill="#1499FC"/>
<mask id="mask3_698_79" style="mask-type:luminance" maskUnits="userSpaceOnUse" x="36" y="215" width="59" height="27">
<path d="M94.2911 215.208L94.2611 224.858C94.2511 229.098 91.4611 233.318 85.9011 236.558C74.7111 243.068 56.5011 243.068 45.2411 236.558C39.5711 233.288 36.7411 228.988 36.7511 224.698L36.7811 215.048C36.7711 219.338 39.6011 223.638 45.2711 226.908C56.5411 233.408 74.7411 233.408 85.9311 226.908C91.4911 223.678 94.2811 219.448 94.2911 215.208Z" fill="white"/>
</mask>
<g mask="url(#mask3_698_79)">
<path d="M94.2911 215.208L94.2611 224.848C94.2511 229.088 91.4711 233.318 85.9111 236.548C83.7011 237.828 81.2311 238.858 78.5911 239.628C74.7211 240.768 70.4911 241.368 66.2511 241.418C58.6811 241.518 51.0411 239.898 45.2411 236.548C44.9611 236.378 44.6811 236.218 44.4211 236.048C41.4111 234.168 39.2811 231.978 38.0511 229.668C37.1811 228.048 36.7511 226.368 36.7511 224.688L36.7811 215.038C36.7811 216.718 37.2111 218.398 38.0711 220.018C39.3111 222.328 41.4311 224.518 44.4411 226.398C44.7111 226.568 44.9911 226.738 45.2711 226.898C51.0711 230.248 58.7111 231.868 66.2811 231.778C70.5211 231.718 74.7411 231.128 78.6111 229.988C81.2511 229.208 83.7311 228.178 85.9311 226.898C91.4911 223.668 94.2811 219.438 94.2911 215.208Z" fill="url(#paint25_linear_698_79)"/>
</g>
<path d="M85.8111 203.348C97.0811 209.848 97.1311 220.398 85.9411 226.898C74.7511 233.398 56.5411 233.398 45.2811 226.898C34.0111 220.398 33.9511 209.848 45.1511 203.348C56.3411 196.838 74.5511 196.838 85.8211 203.348H85.8111Z" fill="#15D9FD"/>
<path d="M95.1111 208.049V214.739C95.1011 219.099 92.2311 223.449 86.5111 226.769C75.0011 233.459 56.2811 233.459 44.6911 226.769C38.8611 223.399 35.9511 218.979 35.9611 214.569V207.879C35.9511 212.289 38.8611 216.709 44.6911 220.079C56.2811 226.769 75.0011 226.769 86.5111 220.079C92.2311 216.759 95.0911 212.409 95.1111 208.049Z" fill="#D4E2FC"/>
<mask id="mask4_698_79" style="mask-type:luminance" maskUnits="userSpaceOnUse" x="35" y="207" width="61" height="25">
<path d="M95.1111 208.049V214.739C95.1011 219.099 92.2311 223.449 86.5111 226.769C75.0011 233.459 56.2811 233.459 44.6911 226.769C38.8611 223.399 35.9511 218.979 35.9611 214.569V207.879C35.9511 212.289 38.8611 216.709 44.6911 220.079C56.2811 226.769 75.0011 226.769 86.5111 220.079C92.2311 216.759 95.0911 212.409 95.1111 208.049Z" fill="white"/>
</mask>
<g mask="url(#mask4_698_79)">
<path d="M95.1111 208.049V214.739C95.1011 219.099 92.2311 223.449 86.5111 226.769C84.2411 228.089 81.7011 229.149 78.9811 229.939V223.249C81.7011 222.449 84.2411 221.389 86.5111 220.079C92.2311 216.759 95.0911 212.409 95.1111 208.049Z" fill="#BECEF9"/>
<path d="M78.9911 223.249V229.939C75.0111 231.109 70.6711 231.719 66.3011 231.779V225.089C70.6611 225.029 75.0111 224.419 78.9911 223.249Z" fill="#CDDCFB"/>
<path d="M66.3011 225.089V231.779C58.5111 231.879 50.6611 230.209 44.6911 226.769C44.4011 226.599 44.1111 226.429 43.8411 226.259V219.569C44.1211 219.739 44.4011 219.909 44.6911 220.079C50.6511 223.519 58.5111 225.189 66.3011 225.089Z" fill="#DAE8FD"/>
<path d="M43.8411 219.559V226.249C40.7511 224.309 38.5611 222.059 37.2911 219.689V212.999C38.5611 215.379 40.7511 217.629 43.8411 219.559Z" fill="#CDDCFB"/>
<path d="M37.2911 212.999V219.689C36.4011 218.019 35.9611 216.299 35.9611 214.569V207.879C35.9611 209.609 36.4011 211.339 37.2911 212.999Z" fill="#CDDCFB"/>
</g>
<path d="M86.3811 195.849C97.9711 202.539 98.0311 213.389 86.5111 220.079C75.0011 226.769 56.2811 226.769 44.6911 220.079C33.1011 213.389 33.0411 202.539 44.5511 195.849C56.0611 189.159 74.7911 189.159 86.3811 195.849Z" fill="#E6F1FE"/>
<path d="M94.2911 196.139L94.2611 205.789C94.2511 210.029 91.4611 214.249 85.9011 217.489C74.7111 223.989 56.5011 223.989 45.2411 217.489C39.5711 214.219 36.7411 209.919 36.7511 205.629L36.7811 195.979C36.7711 200.269 39.6011 204.569 45.2711 207.839C56.5411 214.339 74.7411 214.339 85.9311 207.839C91.4911 204.609 94.2811 200.379 94.2911 196.139Z" fill="#1499FC"/>
<mask id="mask5_698_79" style="mask-type:luminance" maskUnits="userSpaceOnUse" x="36" y="195" width="59" height="28">
<path d="M94.2911 196.139L94.2611 205.789C94.2511 210.029 91.4611 214.249 85.9011 217.489C74.7111 223.989 56.5011 223.989 45.2411 217.489C39.5711 214.219 36.7411 209.919 36.7511 205.629L36.7811 195.979C36.7711 200.269 39.6011 204.569 45.2711 207.839C56.5411 214.339 74.7411 214.339 85.9311 207.839C91.4911 204.609 94.2811 200.379 94.2911 196.139Z" fill="white"/>
</mask>
<g mask="url(#mask5_698_79)">
<path d="M78.5911 220.569C74.7211 221.699 70.4911 222.299 66.2511 222.359C58.2811 222.429 50.4811 220.739 44.4211 216.979C39.7811 214.329 38.0511 210.599 38.0511 210.599C36.0511 207.609 36.8911 200.409 36.8011 196.619C36.9011 198.089 37.3211 199.549 38.0711 200.959C39.3111 203.269 41.4311 205.449 44.4411 207.339C50.5111 211.099 58.3111 212.789 66.2811 212.709C70.5211 212.659 74.7411 212.059 78.6111 210.919C85.7411 209.209 94.7511 202.779 94.2911 196.139C95.3211 209.159 92.9711 216.279 78.5911 220.569Z" fill="url(#paint26_linear_698_79)"/>
</g>
<path d="M85.8111 184.279C97.0811 190.789 97.1311 201.329 85.9411 207.829C74.7511 214.339 56.5411 214.339 45.2811 207.829C34.0111 201.329 33.9511 190.779 45.1511 184.279C56.3411 177.779 74.5511 177.779 85.8211 184.279H85.8111Z" fill="#15D9FD"/>
<path d="M95.1111 188.978V195.668C95.1011 200.028 92.2311 204.378 86.5111 207.698C75.0011 214.388 56.2811 214.388 44.6911 207.698C38.8611 204.328 35.9511 199.908 35.9611 195.498V188.808C35.9511 193.218 38.8611 197.638 44.6911 201.008C56.2811 207.698 75.0011 207.698 86.5111 201.008C92.2311 197.688 95.0911 193.338 95.1111 188.978Z" fill="#D4E2FC"/>
<mask id="mask6_698_79" style="mask-type:luminance" maskUnits="userSpaceOnUse" x="35" y="188" width="61" height="25">
<path d="M95.1111 188.978V195.668C95.1011 200.028 92.2311 204.378 86.5111 207.698C75.0011 214.388 56.2811 214.388 44.6911 207.698C38.8611 204.328 35.9511 199.908 35.9611 195.498V188.808C35.9511 193.218 38.8611 197.638 44.6911 201.008C56.2811 207.698 75.0011 207.698 86.5111 201.008C92.2311 197.688 95.0911 193.338 95.1111 188.978Z" fill="white"/>
</mask>
<g mask="url(#mask6_698_79)">
<path d="M95.1111 188.979V195.669C95.1011 200.029 92.2311 204.379 86.5111 207.699C84.2411 209.019 81.7011 210.069 78.9811 210.869V204.179C81.7011 203.379 84.2411 202.319 86.5111 201.009C92.2311 197.689 95.0911 193.339 95.1111 188.979Z" fill="#BECEF9"/>
<path d="M78.9911 204.178V210.868C75.0111 212.038 70.6711 212.648 66.3011 212.708V206.018C70.6611 205.958 75.0111 205.348 78.9911 204.178Z" fill="#CDDCFB"/>
<path d="M66.3011 206.018V212.708C58.5111 212.808 50.6611 211.138 44.6911 207.698C44.4011 207.528 44.1111 207.358 43.8411 207.188V200.498C44.1211 200.668 44.4011 200.838 44.6911 201.008C50.6511 204.448 58.5111 206.118 66.3011 206.018Z" fill="#DAE8FD"/>
<path d="M43.8411 200.498V207.188C40.7511 205.248 38.5611 202.998 37.2911 200.628V193.938C38.5611 196.318 40.7511 198.568 43.8411 200.498Z" fill="#CDDCFB"/>
<path d="M37.2911 193.928V200.618C36.4011 198.948 35.9611 197.228 35.9611 195.498V188.808C35.9611 190.538 36.4011 192.268 37.2911 193.928Z" fill="#CDDCFB"/>
</g>
<path d="M86.3811 176.788C97.9711 183.478 98.0311 194.328 86.5111 201.018C75.0011 207.708 56.2811 207.708 44.6911 201.018C33.1011 194.328 33.0411 183.478 44.5511 176.788C56.0611 170.098 74.7911 170.098 86.3811 176.788Z" fill="#E6F1FE"/>
<path d="M83.7611 179.599C93.8911 184.739 93.9411 193.059 83.8811 198.199C73.8211 203.339 57.4511 203.339 47.3211 198.199C37.1911 193.059 37.1311 184.739 47.2011 179.599C57.2711 174.459 73.6411 174.459 83.7711 179.599H83.7611Z" fill="#DAE8FD"/>
<path d="M84.8911 179.369C79.7311 176.389 72.8211 174.749 65.4411 174.749C58.0611 174.749 51.1011 176.429 46.0611 179.359C41.5411 181.989 38.9511 185.439 38.9511 188.839C38.9511 189.009 38.9511 189.169 38.9711 189.339C39.2111 192.609 41.8111 195.899 46.1811 198.419C51.3411 201.399 58.2511 203.029 65.6311 203.029C73.0111 203.029 79.9711 201.349 85.0111 198.419C89.3111 195.929 91.8711 192.669 92.1011 189.429C92.1211 189.259 92.1211 189.089 92.1211 188.929C92.1211 185.499 89.4711 182.009 84.8811 179.359L84.8911 179.369ZM89.8311 189.939C89.8311 192.499 87.6611 195.229 83.8611 197.439C79.1511 200.169 72.5111 201.739 65.6311 201.739C58.7511 201.739 52.1511 200.209 47.3311 197.429C43.4611 195.199 41.2511 192.429 41.2411 189.839C41.2411 189.679 41.2411 189.509 41.2711 189.349C41.2511 189.189 41.2411 189.009 41.2411 188.849C41.2411 186.289 43.4111 183.559 47.2111 181.349C51.9211 178.619 58.5611 177.049 65.4411 177.049C72.3211 177.049 78.9311 178.579 83.7411 181.359C87.6111 183.589 89.8211 186.359 89.8311 188.949C89.8311 189.109 89.8311 189.279 89.8011 189.439C89.8211 189.599 89.8311 189.779 89.8311 189.939Z" fill="#98A4E0"/>
<path d="M84.8911 180.359C79.7311 177.379 72.8211 175.749 65.4411 175.749C58.0611 175.749 51.1011 177.429 46.0611 180.359C41.7611 182.859 39.2011 186.109 38.9711 189.349C39.2111 192.619 41.8111 195.909 46.1811 198.429C51.3411 201.409 58.2511 203.039 65.6311 203.039C73.0111 203.039 79.9711 201.359 85.0111 198.429C89.3111 195.939 91.8711 192.679 92.1011 189.439C91.8611 186.169 89.2611 182.889 84.8911 180.359ZM83.8611 197.439C79.1511 200.169 72.5111 201.739 65.6311 201.739C58.7511 201.739 52.1511 200.209 47.3311 197.429C43.4611 195.199 41.2511 192.429 41.2411 189.839C41.2411 189.679 41.2411 189.509 41.2711 189.349C41.2511 189.189 41.2411 189.009 41.2411 188.849C41.2411 186.289 43.4111 183.559 47.2111 181.349C51.9211 178.619 58.5611 177.049 65.4411 177.049C72.3211 177.049 78.9311 178.579 83.7411 181.359C87.6111 183.589 89.8211 186.359 89.8311 188.949C89.8311 189.109 89.8311 189.279 89.8011 189.439C89.8211 189.599 89.8311 189.779 89.8311 189.939C89.8311 192.499 87.6611 195.229 83.8611 197.439Z" fill="url(#paint27_linear_698_79)"/>
<path d="M156.586 209.376V216.066C156.576 220.426 153.706 224.776 147.986 228.096C136.476 234.786 117.756 234.786 106.166 228.096C100.336 224.726 97.4255 220.306 97.4355 215.896V209.206C97.4255 213.616 100.336 218.036 106.166 221.406C117.756 228.096 136.476 228.096 147.986 221.406C153.706 218.086 156.566 213.736 156.586 209.376Z" fill="#D4E2FC"/>
<mask id="mask7_698_79" style="mask-type:luminance" maskUnits="userSpaceOnUse" x="97" y="209" width="60" height="25">
<path d="M156.586 209.376V216.066C156.576 220.426 153.706 224.776 147.986 228.096C136.476 234.786 117.756 234.786 106.166 228.096C100.336 224.726 97.4255 220.306 97.4355 215.896V209.206C97.4255 213.616 100.336 218.036 106.166 221.406C117.756 228.096 136.476 228.096 147.986 221.406C153.706 218.086 156.566 213.736 156.586 209.376Z" fill="white"/>
</mask>
<g mask="url(#mask7_698_79)">
<path d="M156.585 209.376V216.066C156.575 220.426 153.706 224.776 147.986 228.096C145.716 229.416 143.176 230.476 140.456 231.266V224.576C143.176 223.776 145.716 222.716 147.986 221.406C153.706 218.086 156.565 213.736 156.585 209.376Z" fill="#BECEF9"/>
<path d="M140.456 224.576V231.266C136.476 232.436 132.136 233.046 127.766 233.106V226.416C132.126 226.356 136.476 225.746 140.456 224.576Z" fill="#CDDCFB"/>
<path d="M127.776 226.416V233.106C119.986 233.206 112.136 231.536 106.166 228.096C105.876 227.926 105.586 227.756 105.316 227.586V220.896C105.596 221.066 105.876 221.236 106.166 221.406C112.126 224.846 119.986 226.516 127.776 226.416Z" fill="#DAE8FD"/>
<path d="M105.315 220.886V227.576C102.225 225.636 100.036 223.386 98.7655 221.016V214.326C100.036 216.706 102.225 218.956 105.315 220.886Z" fill="#CDDCFB"/>
<path d="M98.7655 214.326V221.016C97.8755 219.346 97.4355 217.626 97.4355 215.896V209.206C97.4355 210.936 97.8755 212.666 98.7655 214.326Z" fill="#CDDCFB"/>
</g>
<path d="M147.855 197.176C159.445 203.866 159.506 214.716 147.986 221.406C136.476 228.096 117.755 228.096 106.165 221.406C94.5755 214.716 94.5155 203.866 106.025 197.176C117.535 190.486 136.265 190.486 147.855 197.176Z" fill="#E6F1FE"/>
<path d="M155.765 197.806L155.735 207.456C155.725 211.696 152.935 215.916 147.375 219.156C136.185 225.656 117.975 225.656 106.715 219.156C101.045 215.886 98.2155 211.586 98.2255 207.296L98.2555 197.646C98.2455 201.936 101.075 206.236 106.745 209.506C118.015 216.006 136.215 216.006 147.405 209.506C152.965 206.276 155.755 202.046 155.765 197.806Z" fill="#1499FC"/>
<mask id="mask8_698_79" style="mask-type:luminance" maskUnits="userSpaceOnUse" x="98" y="197" width="58" height="28">
<path d="M155.765 197.806L155.735 207.456C155.725 211.696 152.935 215.916 147.375 219.156C136.185 225.656 117.975 225.656 106.715 219.156C101.045 215.886 98.2155 211.586 98.2255 207.296L98.2555 197.646C98.2455 201.936 101.075 206.236 106.745 209.506C118.015 216.006 136.215 216.006 147.405 209.506C152.965 206.276 155.755 202.046 155.765 197.806Z" fill="white"/>
</mask>
<g mask="url(#mask8_698_79)">
<path d="M155.765 197.816L155.735 207.456C155.725 211.696 152.945 215.926 147.385 219.156C145.175 220.436 142.705 221.466 140.065 222.236C136.195 223.376 131.965 223.976 127.725 224.026C120.155 224.126 112.515 222.506 106.715 219.156C106.435 218.986 106.155 218.826 105.895 218.656C102.885 216.776 100.755 214.586 99.5255 212.276C98.6555 210.656 98.2255 208.976 98.2255 207.296L98.2555 197.646C98.2555 199.326 98.6855 201.006 99.5455 202.626C100.785 204.936 102.905 207.126 105.915 209.006C106.185 209.176 106.465 209.346 106.745 209.506C112.545 212.856 120.185 214.476 127.755 214.386C131.995 214.326 136.215 213.736 140.085 212.596C142.725 211.816 145.205 210.786 147.405 209.506C152.965 206.276 155.755 202.046 155.765 197.816Z" fill="url(#paint28_linear_698_79)"/>
</g>
<path d="M147.275 185.946C158.545 192.446 158.595 202.996 147.405 209.496C136.215 215.996 118.005 215.996 106.745 209.496C95.4755 202.996 95.4155 192.446 106.615 185.946C117.805 179.446 136.015 179.446 147.285 185.946H147.275Z" fill="#15D9FD"/>
<path d="M156.586 190.646V197.336C156.576 201.696 153.706 206.046 147.986 209.366C136.476 216.056 117.756 216.056 106.166 209.366C100.336 205.996 97.4255 201.576 97.4355 197.166V190.476C97.4255 194.886 100.336 199.306 106.166 202.676C117.756 209.366 136.476 209.366 147.986 202.676C153.706 199.356 156.566 195.006 156.586 190.646Z" fill="#D4E2FC"/>
<mask id="mask9_698_79" style="mask-type:luminance" maskUnits="userSpaceOnUse" x="97" y="190" width="60" height="25">
<path d="M156.586 190.646V197.336C156.576 201.696 153.706 206.046 147.986 209.366C136.476 216.056 117.756 216.056 106.166 209.366C100.336 205.996 97.4255 201.576 97.4355 197.166V190.476C97.4255 194.886 100.336 199.306 106.166 202.676C117.756 209.366 136.476 209.366 147.986 202.676C153.706 199.356 156.566 195.006 156.586 190.646Z" fill="white"/>
</mask>
<g mask="url(#mask9_698_79)">
<path d="M156.585 190.646V197.336C156.575 201.696 153.706 206.046 147.986 209.366C145.716 210.686 143.176 211.736 140.456 212.536V205.846C143.176 205.046 145.716 203.986 147.986 202.676C153.706 199.356 156.565 195.006 156.585 190.646Z" fill="#BECEF9"/>
<path d="M140.456 205.856V212.546C136.476 213.716 132.136 214.326 127.766 214.386V207.696C132.126 207.636 136.476 207.026 140.456 205.856Z" fill="#CDDCFB"/>
<path d="M127.776 207.696V214.386C119.986 214.486 112.136 212.816 106.166 209.376C105.876 209.206 105.586 209.036 105.316 208.866V202.176C105.596 202.346 105.876 202.516 106.166 202.686C112.126 206.126 119.986 207.796 127.776 207.696Z" fill="#DAE8FD"/>
<path d="M105.315 202.166V208.856C102.225 206.916 100.036 204.666 98.7655 202.296V195.606C100.036 197.986 102.225 200.236 105.315 202.166Z" fill="#CDDCFB"/>
<path d="M98.7655 195.606V202.296C97.8755 200.626 97.4355 198.906 97.4355 197.176V190.486C97.4355 192.216 97.8755 193.946 98.7655 195.606Z" fill="#CDDCFB"/>
</g>
<path d="M147.855 178.456C159.445 185.146 159.506 195.996 147.986 202.686C136.476 209.376 117.755 209.376 106.165 202.686C94.5755 195.996 94.5155 185.146 106.025 178.456C117.535 171.766 136.265 171.766 147.855 178.456Z" fill="#E6F1FE"/>
<path d="M155.765 179.146L155.735 188.796C155.725 193.036 152.935 197.256 147.375 200.496C136.185 207.006 117.975 207.006 106.715 200.496C101.045 197.226 98.2155 192.926 98.2255 188.636L98.2555 178.986C98.2455 183.276 101.075 187.576 106.745 190.846C118.015 197.346 136.215 197.346 147.405 190.846C152.965 187.616 155.755 183.386 155.765 179.146Z" fill="#1499FC"/>
<mask id="mask10_698_79" style="mask-type:luminance" maskUnits="userSpaceOnUse" x="98" y="178" width="58" height="28">
<path d="M155.765 179.146L155.735 188.796C155.725 193.036 152.935 197.256 147.375 200.496C136.185 207.006 117.975 207.006 106.715 200.496C101.045 197.226 98.2155 192.926 98.2255 188.636L98.2555 178.986C98.2455 183.276 101.075 187.576 106.745 190.846C118.015 197.346 136.215 197.346 147.405 190.846C152.965 187.616 155.755 183.386 155.765 179.146Z" fill="white"/>
</mask>
<g mask="url(#mask10_698_79)">
<path d="M155.765 179.156L155.735 188.796C155.725 193.036 152.945 197.266 147.385 200.496C145.175 201.776 142.705 202.806 140.065 203.576C136.195 204.716 131.965 205.316 127.725 205.366C120.155 205.466 112.515 203.846 106.715 200.496C106.435 200.326 106.155 200.166 105.895 199.996C102.885 198.116 100.755 195.926 99.5255 193.616C98.6555 191.996 98.2255 190.316 98.2255 188.636L98.2555 178.986C98.2555 180.666 98.6855 182.346 99.5455 183.966C100.785 186.276 102.905 188.466 105.915 190.346C106.185 190.516 106.465 190.686 106.745 190.846C112.545 194.196 120.185 195.816 127.755 195.726C131.995 195.666 136.215 195.076 140.085 193.936C142.725 193.156 145.205 192.126 147.405 190.846C152.965 187.616 155.755 183.386 155.765 179.156Z" fill="url(#paint29_linear_698_79)"/>
</g>
<path d="M147.275 167.286C158.545 173.786 158.595 184.336 147.405 190.836C136.215 197.336 118.005 197.336 106.745 190.836C95.4755 184.336 95.4155 173.786 106.615 167.286C117.805 160.776 136.015 160.776 147.285 167.286H147.275Z" fill="#15D9FD"/>
<path d="M156.586 171.986V178.676C156.576 183.036 153.706 187.386 147.986 190.706C136.476 197.396 117.756 197.396 106.166 190.706C100.336 187.336 97.4255 182.916 97.4355 178.506V171.816C97.4255 176.226 100.336 180.646 106.166 184.016C117.756 190.706 136.476 190.706 147.986 184.016C153.706 180.696 156.566 176.346 156.586 171.986Z" fill="#D4E2FC"/>
<mask id="mask11_698_79" style="mask-type:luminance" maskUnits="userSpaceOnUse" x="97" y="171" width="60" height="25">
<path d="M156.586 171.986V178.676C156.576 183.036 153.706 187.386 147.986 190.706C136.476 197.396 117.756 197.396 106.166 190.706C100.336 187.336 97.4255 182.916 97.4355 178.506V171.816C97.4255 176.226 100.336 180.646 106.166 184.016C117.756 190.706 136.476 190.706 147.986 184.016C153.706 180.696 156.566 176.346 156.586 171.986Z" fill="white"/>
</mask>
<g mask="url(#mask11_698_79)">
<path d="M156.585 171.986V178.676C156.575 183.036 153.706 187.386 147.986 190.706C145.716 192.026 143.176 193.086 140.456 193.876V187.186C143.176 186.386 145.716 185.326 147.986 184.016C153.706 180.696 156.565 176.346 156.585 171.986Z" fill="#BECEF9"/>
<path d="M140.456 187.196V193.886C136.476 195.056 132.136 195.666 127.766 195.726V189.036C132.126 188.976 136.476 188.366 140.456 187.196Z" fill="#CDDCFB"/>
<path d="M127.776 189.036V195.726C119.986 195.826 112.136 194.156 106.166 190.716C105.876 190.546 105.586 190.376 105.316 190.206V183.516C105.596 183.686 105.876 183.856 106.166 184.026C112.126 187.466 119.986 189.136 127.776 189.036Z" fill="#DAE8FD"/>
<path d="M105.315 183.506V190.196C102.225 188.256 100.036 186.006 98.7655 183.636V176.946C100.036 179.326 102.225 181.576 105.315 183.506Z" fill="#CDDCFB"/>
<path d="M98.7655 176.946V183.636C97.8755 181.966 97.4355 180.246 97.4355 178.516V171.826C97.4355 173.556 97.8755 175.286 98.7655 176.946Z" fill="#CDDCFB"/>
</g>
<path d="M147.855 159.796C159.445 166.486 159.506 177.336 147.986 184.026C136.476 190.716 117.755 190.716 106.165 184.026C94.5755 177.336 94.5155 166.486 106.025 159.796C117.535 153.106 136.265 153.106 147.855 159.796Z" fill="#E6F1FE"/>
<path d="M155.765 160.086L155.735 169.736C155.725 173.976 152.935 178.196 147.375 181.436C136.185 187.936 117.975 187.936 106.715 181.436C101.045 178.166 98.2155 173.866 98.2255 169.576L98.2555 159.926C98.2455 164.216 101.075 168.516 106.745 171.786C118.015 178.286 136.215 178.286 147.405 171.786C152.965 168.556 155.755 164.326 155.765 160.086Z" fill="#1499FC"/>
<mask id="mask12_698_79" style="mask-type:luminance" maskUnits="userSpaceOnUse" x="98" y="159" width="58" height="28">
<path d="M155.765 160.086L155.735 169.736C155.725 173.976 152.935 178.196 147.375 181.436C136.185 187.936 117.975 187.936 106.715 181.436C101.045 178.166 98.2155 173.866 98.2255 169.576L98.2555 159.926C98.2455 164.216 101.075 168.516 106.745 171.786C118.015 178.286 136.215 178.286 147.405 171.786C152.965 168.556 155.755 164.326 155.765 160.086Z" fill="white"/>
</mask>
<g mask="url(#mask12_698_79)">
<path d="M140.066 184.516C136.196 185.646 131.965 186.246 127.726 186.306C119.756 186.376 111.955 184.686 105.895 180.926C101.255 178.276 99.5255 174.546 99.5255 174.546C97.5255 171.556 98.3655 164.356 98.2755 160.566C98.3755 162.036 98.7955 163.496 99.5455 164.906C100.785 167.216 102.905 169.396 105.915 171.286C111.985 175.046 119.785 176.736 127.755 176.656C131.995 176.606 136.215 176.006 140.085 174.866C147.215 173.156 156.225 166.726 155.765 160.086C156.795 173.106 154.446 180.226 140.066 184.516Z" fill="url(#paint30_linear_698_79)"/>
</g>
<path d="M147.275 148.226C158.545 154.736 158.595 165.276 147.405 171.776C136.215 178.286 118.005 178.286 106.745 171.776C95.4755 165.276 95.4155 154.726 106.615 148.226C117.805 141.726 136.015 141.726 147.285 148.226H147.275Z" fill="#15D9FD"/>
<path d="M156.586 152.926V159.616C156.576 163.976 153.706 168.326 147.986 171.646C136.476 178.336 117.756 178.336 106.166 171.646C100.336 168.276 97.4255 163.856 97.4355 159.446V152.756C97.4255 157.166 100.336 161.586 106.166 164.956C117.756 171.646 136.476 171.646 147.986 164.956C153.706 161.636 156.566 157.286 156.586 152.926Z" fill="#D4E2FC"/>
<mask id="mask13_698_79" style="mask-type:luminance" maskUnits="userSpaceOnUse" x="97" y="152" width="60" height="25">
<path d="M156.586 152.926V159.616C156.576 163.976 153.706 168.326 147.986 171.646C136.476 178.336 117.756 178.336 106.166 171.646C100.336 168.276 97.4255 163.856 97.4355 159.446V152.756C97.4255 157.166 100.336 161.586 106.166 164.956C117.756 171.646 136.476 171.646 147.986 164.956C153.706 161.636 156.566 157.286 156.586 152.926Z" fill="white"/>
</mask>
<g mask="url(#mask13_698_79)">
<path d="M156.585 152.926V159.616C156.575 163.976 153.706 168.326 147.986 171.646C145.716 172.966 143.176 174.016 140.456 174.816V168.126C143.176 167.326 145.716 166.266 147.986 164.956C153.706 161.636 156.565 157.286 156.585 152.926Z" fill="#BECEF9"/>
<path d="M140.456 168.126V174.816C136.476 175.986 132.136 176.596 127.766 176.656V169.966C132.126 169.906 136.476 169.296 140.456 168.126Z" fill="#CDDCFB"/>
<path d="M127.776 169.966V176.656C119.986 176.756 112.136 175.086 106.166 171.646C105.876 171.476 105.586 171.306 105.316 171.136V164.446C105.596 164.616 105.876 164.786 106.166 164.956C112.126 168.396 119.986 170.066 127.776 169.966Z" fill="#DAE8FD"/>
<path d="M105.315 164.446V171.136C102.225 169.196 100.036 166.946 98.7655 164.576V157.886C100.036 160.266 102.225 162.516 105.315 164.446Z" fill="#CDDCFB"/>
<path d="M98.7655 157.876V164.566C97.8755 162.896 97.4355 161.176 97.4355 159.446V152.756C97.4355 154.486 97.8755 156.216 98.7655 157.876Z" fill="#CDDCFB"/>
</g>
<path d="M147.855 140.726C159.445 147.416 159.506 158.266 147.986 164.956C136.476 171.646 117.755 171.646 106.165 164.956C94.5755 158.266 94.5155 147.416 106.025 140.726C117.535 134.036 136.265 134.036 147.855 140.726Z" fill="#E6F1FE"/>
<path d="M145.235 143.546C155.365 148.686 155.415 157.006 145.355 162.146C135.295 167.286 118.925 167.286 108.795 162.146C98.6655 157.006 98.6055 148.686 108.675 143.546C118.745 138.406 135.115 138.406 145.245 143.546H145.235Z" fill="#DAE8FD"/>
<path d="M146.365 143.316C141.205 140.336 134.295 138.696 126.915 138.696C119.535 138.696 112.575 140.376 107.535 143.306C103.015 145.936 100.425 149.386 100.425 152.786C100.425 152.956 100.425 153.116 100.445 153.286C100.685 156.556 103.285 159.846 107.655 162.366C112.815 165.346 119.725 166.976 127.105 166.976C134.485 166.976 141.445 165.296 146.485 162.366C150.785 159.876 153.345 156.616 153.575 153.376C153.595 153.206 153.595 153.036 153.595 152.876C153.595 149.446 150.945 145.956 146.355 143.306L146.365 143.316ZM151.305 153.886C151.305 156.446 149.135 159.176 145.335 161.386C140.625 164.116 133.985 165.686 127.105 165.686C120.225 165.686 113.625 164.156 108.805 161.376C104.935 159.146 102.725 156.376 102.715 153.786C102.715 153.626 102.715 153.456 102.745 153.296C102.725 153.136 102.715 152.956 102.715 152.796C102.715 150.236 104.885 147.506 108.685 145.296C113.395 142.566 120.035 140.996 126.915 140.996C133.795 140.996 140.405 142.526 145.215 145.306C149.085 147.536 151.295 150.306 151.305 152.896C151.305 153.056 151.305 153.226 151.275 153.386C151.295 153.546 151.305 153.726 151.305 153.886Z" fill="#98A4E0"/>
<path d="M146.365 144.306C141.205 141.326 134.295 139.696 126.915 139.696C119.535 139.696 112.575 141.376 107.535 144.306C103.235 146.806 100.675 150.056 100.445 153.296C100.685 156.566 103.285 159.856 107.655 162.376C112.815 165.356 119.725 166.986 127.105 166.986C134.485 166.986 141.445 165.306 146.485 162.376C150.785 159.886 153.345 156.626 153.575 153.386C153.335 150.116 150.735 146.836 146.365 144.306ZM145.335 161.386C140.625 164.116 133.985 165.686 127.105 165.686C120.225 165.686 113.625 164.156 108.805 161.376C104.935 159.146 102.725 156.376 102.715 153.786C102.715 153.626 102.715 153.456 102.745 153.296C102.725 153.136 102.715 152.956 102.715 152.796C102.715 150.236 104.885 147.506 108.685 145.296C113.395 142.566 120.035 140.996 126.915 140.996C133.795 140.996 140.405 142.526 145.215 145.306C149.085 147.536 151.295 150.306 151.305 152.896C151.305 153.056 151.305 153.226 151.275 153.386C151.295 153.546 151.305 153.726 151.305 153.886C151.305 156.446 149.135 159.176 145.335 161.386Z" fill="url(#paint31_linear_698_79)"/>
<path d="M215.315 176.286V182.976C215.305 187.336 212.435 191.686 206.715 195.006C195.205 201.696 176.485 201.696 164.895 195.006C159.065 191.636 156.155 187.216 156.165 182.806V176.116C156.155 180.526 159.065 184.946 164.895 188.316C176.485 195.006 195.205 195.006 206.715 188.316C212.435 184.996 215.295 180.646 215.315 176.286Z" fill="#D4E2FC"/>
<mask id="mask14_698_79" style="mask-type:luminance" maskUnits="userSpaceOnUse" x="156" y="176" width="60" height="25">
<path d="M215.315 176.286V182.976C215.305 187.336 212.435 191.686 206.715 195.006C195.205 201.696 176.485 201.696 164.895 195.006C159.065 191.636 156.155 187.216 156.165 182.806V176.116C156.155 180.526 159.065 184.946 164.895 188.316C176.485 195.006 195.205 195.006 206.715 188.316C212.435 184.996 215.295 180.646 215.315 176.286Z" fill="white"/>
</mask>
<g mask="url(#mask14_698_79)">
<path d="M215.315 176.286V182.976C215.305 187.336 212.435 191.686 206.715 195.006C204.445 196.326 201.905 197.386 199.185 198.176V191.486C201.905 190.686 204.445 189.626 206.715 188.316C212.435 184.996 215.295 180.646 215.315 176.286Z" fill="#BECEF9"/>
<path d="M199.185 191.486V198.176C195.205 199.346 190.865 199.956 186.495 200.016V193.326C190.855 193.266 195.205 192.656 199.185 191.486Z" fill="#CDDCFB"/>
<path d="M186.495 193.326V200.016C178.705 200.116 170.855 198.446 164.885 195.006C164.595 194.836 164.305 194.666 164.035 194.496V187.806C164.315 187.976 164.595 188.146 164.885 188.316C170.845 191.756 178.705 193.426 186.495 193.326Z" fill="#DAE8FD"/>
<path d="M164.045 187.796V194.486C160.955 192.546 158.765 190.296 157.495 187.926V181.236C158.765 183.616 160.955 185.866 164.045 187.796Z" fill="#CDDCFB"/>
<path d="M157.495 181.236V187.926C156.605 186.256 156.165 184.536 156.165 182.806V176.116C156.165 177.846 156.605 179.576 157.495 181.236Z" fill="#CDDCFB"/>
</g>
<path d="M206.585 164.086C218.175 170.776 218.235 181.626 206.715 188.316C195.205 195.006 176.485 195.006 164.895 188.316C153.305 181.626 153.245 170.776 164.755 164.086C176.265 157.396 194.995 157.396 206.585 164.086Z" fill="#E6F1FE"/>
<path d="M214.495 164.716L214.465 174.366C214.455 178.606 211.665 182.826 206.105 186.066C194.915 192.566 176.705 192.566 165.445 186.066C159.775 182.796 156.945 178.496 156.955 174.206L156.985 164.556C156.975 168.846 159.805 173.146 165.475 176.416C176.745 182.916 194.945 182.916 206.135 176.416C211.695 173.186 214.485 168.956 214.495 164.716Z" fill="#1499FC"/>
<mask id="mask15_698_79" style="mask-type:luminance" maskUnits="userSpaceOnUse" x="156" y="164" width="59" height="27">
<path d="M214.495 164.716L214.465 174.366C214.455 178.606 211.665 182.826 206.105 186.066C194.915 192.566 176.705 192.566 165.445 186.066C159.775 182.796 156.945 178.496 156.955 174.206L156.985 164.556C156.975 168.846 159.805 173.146 165.475 176.416C176.745 182.916 194.945 182.916 206.135 176.416C211.695 173.186 214.485 168.956 214.495 164.716Z" fill="white"/>
</mask>
<g mask="url(#mask15_698_79)">
<path d="M214.495 164.726L214.465 174.366C214.455 178.606 211.675 182.836 206.115 186.066C203.905 187.346 201.435 188.376 198.795 189.146C194.925 190.286 190.695 190.886 186.455 190.936C178.885 191.036 171.245 189.416 165.445 186.066C165.165 185.896 164.885 185.736 164.625 185.566C161.615 183.686 159.485 181.496 158.255 179.186C157.385 177.566 156.955 175.886 156.955 174.206L156.985 164.556C156.985 166.236 157.415 167.916 158.275 169.536C159.515 171.846 161.635 174.036 164.645 175.916C164.915 176.086 165.195 176.256 165.475 176.416C171.275 179.766 178.915 181.386 186.485 181.296C190.725 181.236 194.945 180.646 198.815 179.506C201.455 178.726 203.935 177.696 206.135 176.416C211.695 173.186 214.485 168.956 214.495 164.726Z" fill="url(#paint32_linear_698_79)"/>
</g>
<path d="M206.005 152.856C217.275 159.356 217.325 169.906 206.135 176.406C194.945 182.906 176.735 182.906 165.475 176.406C154.205 169.906 154.145 159.356 165.345 152.856C176.535 146.356 194.745 146.356 206.015 152.856H206.005Z" fill="#15D9FD"/>
<path d="M215.315 157.556V164.246C215.305 168.606 212.435 172.956 206.715 176.276C195.205 182.966 176.485 182.966 164.895 176.276C159.065 172.906 156.155 168.486 156.165 164.076V157.386C156.155 161.796 159.065 166.216 164.895 169.586C176.485 176.276 195.205 176.276 206.715 169.586C212.435 166.266 215.295 161.916 215.315 157.556Z" fill="#D4E2FC"/>
<mask id="mask16_698_79" style="mask-type:luminance" maskUnits="userSpaceOnUse" x="156" y="157" width="60" height="25">
<path d="M215.315 157.556V164.246C215.305 168.606 212.435 172.956 206.715 176.276C195.205 182.966 176.485 182.966 164.895 176.276C159.065 172.906 156.155 168.486 156.165 164.076V157.386C156.155 161.796 159.065 166.216 164.895 169.586C176.485 176.276 195.205 176.276 206.715 169.586C212.435 166.266 215.295 161.916 215.315 157.556Z" fill="white"/>
</mask>
<g mask="url(#mask16_698_79)">
<path d="M215.315 157.556V164.246C215.305 168.606 212.435 172.956 206.715 176.276C204.445 177.596 201.905 178.646 199.185 179.446V172.756C201.905 171.956 204.445 170.896 206.715 169.586C212.435 166.266 215.295 161.916 215.315 157.556Z" fill="#BECEF9"/>
<path d="M199.185 172.766V179.456C195.205 180.626 190.865 181.236 186.495 181.296V174.606C190.855 174.546 195.205 173.936 199.185 172.766Z" fill="#CDDCFB"/>
<path d="M186.495 174.606V181.296C178.705 181.396 170.855 179.726 164.885 176.286C164.595 176.116 164.305 175.946 164.035 175.776V169.086C164.315 169.256 164.595 169.426 164.885 169.596C170.845 173.036 178.705 174.706 186.495 174.606Z" fill="#DAE8FD"/>
<path d="M164.045 169.076V175.766C160.955 173.826 158.765 171.576 157.495 169.206V162.516C158.765 164.896 160.955 167.146 164.045 169.076Z" fill="#CDDCFB"/>
<path d="M157.495 162.516V169.206C156.605 167.536 156.165 165.816 156.165 164.086V157.396C156.165 159.126 156.605 160.856 157.495 162.516Z" fill="#CDDCFB"/>
</g>
<path d="M206.585 145.366C218.175 152.056 218.235 162.906 206.715 169.596C195.205 176.286 176.485 176.286 164.895 169.596C153.305 162.906 153.245 152.056 164.755 145.366C176.265 138.676 194.995 138.676 206.585 145.366Z" fill="#E6F1FE"/>
<path d="M214.495 146.056L214.465 155.706C214.455 159.946 211.665 164.166 206.105 167.406C194.915 173.916 176.705 173.916 165.445 167.406C159.775 164.136 156.945 159.836 156.955 155.546L156.985 145.896C156.975 150.186 159.805 154.486 165.475 157.756C176.745 164.256 194.945 164.256 206.135 157.756C211.695 154.526 214.485 150.296 214.495 146.056Z" fill="#1499FC"/>
<mask id="mask17_698_79" style="mask-type:luminance" maskUnits="userSpaceOnUse" x="156" y="145" width="59" height="28">
<path d="M214.495 146.056L214.465 155.706C214.455 159.946 211.665 164.166 206.105 167.406C194.915 173.916 176.705 173.916 165.445 167.406C159.775 164.136 156.945 159.836 156.955 155.546L156.985 145.896C156.975 150.186 159.805 154.486 165.475 157.756C176.745 164.256 194.945 164.256 206.135 157.756C211.695 154.526 214.485 150.296 214.495 146.056Z" fill="white"/>
</mask>
<g mask="url(#mask17_698_79)">
<path d="M214.495 146.066L214.465 155.706C214.455 159.946 211.675 164.176 206.115 167.406C203.905 168.686 201.435 169.716 198.795 170.486C194.925 171.626 190.695 172.226 186.455 172.276C178.885 172.376 171.245 170.756 165.445 167.406C165.165 167.236 164.885 167.076 164.625 166.906C161.615 165.026 159.485 162.836 158.255 160.526C157.385 158.906 156.955 157.226 156.955 155.546L156.985 145.896C156.985 147.576 157.415 149.256 158.275 150.876C159.515 153.186 161.635 155.376 164.645 157.256C164.915 157.426 165.195 157.596 165.475 157.756C171.275 161.106 178.915 162.726 186.485 162.636C190.725 162.576 194.945 161.986 198.815 160.846C201.455 160.066 203.935 159.036 206.135 157.756C211.695 154.526 214.485 150.296 214.495 146.066Z" fill="url(#paint33_linear_698_79)"/>
</g>
<path d="M206.005 134.196C217.275 140.696 217.325 151.246 206.135 157.746C194.945 164.246 176.735 164.246 165.475 157.746C154.205 151.246 154.145 140.696 165.345 134.196C176.535 127.686 194.745 127.686 206.015 134.196H206.005Z" fill="#15D9FD"/>
<path d="M215.315 138.896V145.586C215.305 149.946 212.435 154.296 206.715 157.616C195.205 164.306 176.485 164.306 164.895 157.616C159.065 154.246 156.155 149.826 156.165 145.416V138.726C156.155 143.136 159.065 147.556 164.895 150.926C176.485 157.616 195.205 157.616 206.715 150.926C212.435 147.606 215.295 143.256 215.315 138.896Z" fill="#D4E2FC"/>
<mask id="mask18_698_79" style="mask-type:luminance" maskUnits="userSpaceOnUse" x="156" y="138" width="60" height="25">
<path d="M215.315 138.896V145.586C215.305 149.946 212.435 154.296 206.715 157.616C195.205 164.306 176.485 164.306 164.895 157.616C159.065 154.246 156.155 149.826 156.165 145.416V138.726C156.155 143.136 159.065 147.556 164.895 150.926C176.485 157.616 195.205 157.616 206.715 150.926C212.435 147.606 215.295 143.256 215.315 138.896Z" fill="white"/>
</mask>
<g mask="url(#mask18_698_79)">
<path d="M215.315 138.896V145.586C215.305 149.946 212.435 154.296 206.715 157.616C204.445 158.936 201.905 159.996 199.185 160.786V154.096C201.905 153.296 204.445 152.236 206.715 150.926C212.435 147.606 215.295 143.256 215.315 138.896Z" fill="#BECEF9"/>
<path d="M199.185 154.106V160.796C195.205 161.966 190.865 162.576 186.495 162.636V155.946C190.855 155.886 195.205 155.276 199.185 154.106Z" fill="#CDDCFB"/>
<path d="M186.495 155.946V162.636C178.705 162.736 170.855 161.066 164.885 157.626C164.595 157.456 164.305 157.286 164.035 157.116V150.426C164.315 150.596 164.595 150.766 164.885 150.936C170.845 154.376 178.705 156.046 186.495 155.946Z" fill="#DAE8FD"/>
<path d="M164.045 150.416V157.106C160.955 155.166 158.765 152.916 157.495 150.546V143.856C158.765 146.236 160.955 148.486 164.045 150.416Z" fill="#CDDCFB"/>
<path d="M157.495 143.856V150.546C156.605 148.876 156.165 147.156 156.165 145.426V138.736C156.165 140.466 156.605 142.196 157.495 143.856Z" fill="#CDDCFB"/>
</g>
<path d="M206.585 126.706C218.175 133.396 218.235 144.246 206.715 150.936C195.205 157.626 176.485 157.626 164.895 150.936C153.305 144.246 153.245 133.396 164.755 126.706C176.265 120.016 194.995 120.016 206.585 126.706Z" fill="#E6F1FE"/>
<path d="M214.495 126.996L214.465 136.646C214.455 140.886 211.665 145.106 206.105 148.346C194.915 154.846 176.705 154.846 165.445 148.346C159.775 145.076 156.945 140.776 156.955 136.486L156.985 126.836C156.975 131.126 159.805 135.426 165.475 138.696C176.745 145.196 194.945 145.196 206.135 138.696C211.695 135.466 214.485 131.236 214.495 126.996Z" fill="#1499FC"/>
<mask id="mask19_698_79" style="mask-type:luminance" maskUnits="userSpaceOnUse" x="156" y="126" width="59" height="28">
<path d="M214.495 126.996L214.465 136.646C214.455 140.886 211.665 145.106 206.105 148.346C194.915 154.846 176.705 154.846 165.445 148.346C159.775 145.076 156.945 140.776 156.955 136.486L156.985 126.836C156.975 131.126 159.805 135.426 165.475 138.696C176.745 145.196 194.945 145.196 206.135 138.696C211.695 135.466 214.485 131.236 214.495 126.996Z" fill="white"/>
</mask>
<g mask="url(#mask19_698_79)">
<path d="M198.795 151.426C194.925 152.556 190.695 153.156 186.455 153.216C178.485 153.286 170.685 151.596 164.625 147.836C159.985 145.186 158.255 141.456 158.255 141.456C156.255 138.466 157.095 131.266 157.005 127.476C157.105 128.946 157.525 130.406 158.275 131.816C159.515 134.126 161.635 136.306 164.645 138.196C170.715 141.956 178.515 143.646 186.485 143.566C190.725 143.516 194.945 142.916 198.815 141.776C205.945 140.066 214.955 133.636 214.495 126.996C215.525 140.016 213.175 147.136 198.795 151.426Z" fill="url(#paint34_linear_698_79)"/>
</g>
<path d="M206.005 115.136C217.275 121.646 217.325 132.186 206.135 138.686C194.945 145.196 176.735 145.196 165.475 138.686C154.205 132.186 154.145 121.636 165.345 115.136C176.535 108.636 194.745 108.636 206.015 115.136H206.005Z" fill="#15D9FD"/>
<path d="M215.315 119.836V126.526C215.305 130.886 212.435 135.236 206.715 138.556C195.205 145.246 176.485 145.246 164.895 138.556C159.065 135.186 156.155 130.766 156.165 126.356V119.666C156.155 124.076 159.065 128.496 164.895 131.866C176.485 138.556 195.205 138.556 206.715 131.866C212.435 128.546 215.295 124.196 215.315 119.836Z" fill="#D4E2FC"/>
<mask id="mask20_698_79" style="mask-type:luminance" maskUnits="userSpaceOnUse" x="156" y="119" width="60" height="25">
<path d="M215.315 119.836V126.526C215.305 130.886 212.435 135.236 206.715 138.556C195.205 145.246 176.485 145.246 164.895 138.556C159.065 135.186 156.155 130.766 156.165 126.356V119.666C156.155 124.076 159.065 128.496 164.895 131.866C176.485 138.556 195.205 138.556 206.715 131.866C212.435 128.546 215.295 124.196 215.315 119.836Z" fill="white"/>
</mask>
<g mask="url(#mask20_698_79)">
<path d="M215.315 119.836V126.526C215.305 130.886 212.435 135.236 206.715 138.556C204.445 139.876 201.905 140.926 199.185 141.726V135.036C201.905 134.236 204.445 133.176 206.715 131.866C212.435 128.546 215.295 124.196 215.315 119.836Z" fill="#BECEF9"/>
<path d="M199.185 135.036V141.726C195.205 142.896 190.865 143.506 186.495 143.566V136.876C190.855 136.816 195.205 136.206 199.185 135.036Z" fill="#CDDCFB"/>
<path d="M186.495 136.876V143.566C178.705 143.666 170.855 141.996 164.885 138.556C164.595 138.386 164.305 138.216 164.035 138.046V131.356C164.315 131.526 164.595 131.696 164.885 131.866C170.845 135.306 178.705 136.976 186.495 136.876Z" fill="#DAE8FD"/>
<path d="M164.045 131.356V138.046C160.955 136.106 158.765 133.856 157.495 131.486V124.796C158.765 127.176 160.955 129.426 164.045 131.356Z" fill="#CDDCFB"/>
<path d="M157.495 124.786V131.476C156.605 129.806 156.165 128.086 156.165 126.356V119.666C156.165 121.396 156.605 123.126 157.495 124.786Z" fill="#CDDCFB"/>
</g>
<path d="M206.585 107.636C218.175 114.326 218.235 125.176 206.715 131.866C195.205 138.556 176.485 138.556 164.895 131.866C153.305 125.176 153.245 114.326 164.755 107.636C176.265 100.946 194.995 100.946 206.585 107.636Z" fill="#E6F1FE"/>
<path d="M203.965 110.456C214.095 115.596 214.145 123.916 204.085 129.056C194.025 134.196 177.655 134.196 167.525 129.056C157.395 123.916 157.335 115.596 167.405 110.456C177.475 105.316 193.845 105.316 203.975 110.456H203.965Z" fill="#DAE8FD"/>
<path d="M205.095 110.226C199.935 107.246 193.025 105.606 185.645 105.606C178.265 105.606 171.305 107.286 166.265 110.216C161.745 112.846 159.155 116.296 159.155 119.696C159.155 119.866 159.155 120.026 159.175 120.196C159.415 123.466 162.015 126.756 166.385 129.276C171.545 132.256 178.455 133.886 185.835 133.886C193.215 133.886 200.175 132.206 205.215 129.276C209.515 126.786 212.075 123.526 212.305 120.286C212.325 120.116 212.325 119.946 212.325 119.786C212.325 116.356 209.675 112.866 205.085 110.216L205.095 110.226ZM210.035 120.796C210.035 123.356 207.865 126.086 204.065 128.296C199.355 131.026 192.715 132.596 185.835 132.596C178.955 132.596 172.355 131.066 167.535 128.286C163.665 126.056 161.455 123.286 161.445 120.696C161.445 120.536 161.445 120.366 161.475 120.206C161.455 120.046 161.445 119.866 161.445 119.706C161.445 117.146 163.615 114.416 167.415 112.206C172.125 109.476 178.765 107.906 185.645 107.906C192.525 107.906 199.135 109.436 203.945 112.216C207.815 114.446 210.025 117.216 210.035 119.806C210.035 119.966 210.035 120.136 210.005 120.296C210.025 120.456 210.035 120.636 210.035 120.796Z" fill="#98A4E0"/>
<path d="M205.095 111.216C199.935 108.236 193.025 106.606 185.645 106.606C178.265 106.606 171.305 108.286 166.265 111.216C161.965 113.716 159.405 116.966 159.175 120.206C159.415 123.476 162.015 126.766 166.385 129.286C171.545 132.266 178.455 133.896 185.835 133.896C193.215 133.896 200.175 132.216 205.215 129.286C209.515 126.796 212.075 123.536 212.305 120.296C212.065 117.026 209.465 113.746 205.095 111.216ZM204.065 128.296C199.355 131.026 192.715 132.596 185.835 132.596C178.955 132.596 172.355 131.066 167.535 128.286C163.665 126.056 161.455 123.286 161.445 120.696C161.445 120.536 161.445 120.366 161.475 120.206C161.455 120.046 161.445 119.866 161.445 119.706C161.445 117.146 163.615 114.416 167.415 112.206C172.125 109.476 178.765 107.906 185.645 107.906C192.525 107.906 199.135 109.436 203.945 112.216C207.815 114.446 210.025 117.216 210.035 119.806C210.035 119.966 210.035 120.136 210.005 120.296C210.025 120.456 210.035 120.636 210.035 120.796C210.035 123.356 207.865 126.086 204.065 128.296Z" fill="url(#paint35_linear_698_79)"/>
<path d="M127.845 60.3357H126.485V153.376H127.845V60.3357Z" fill="#50CEF5"/>
<path d="M66.8955 188.926H65.5355V132.526L65.8755 132.336L186.576 62.8657V119.916H185.206V65.2257L66.8955 133.316V188.926Z" fill="#50CEF5"/>
<mask id="mask21_698_79" style="mask-type:alpha" maskUnits="userSpaceOnUse" x="65" y="62" width="122" height="127">
<path d="M66.8955 188.926H65.5355V132.526L65.8755 132.336L186.575 62.8657V119.916H185.205V65.2257L66.8955 133.316V188.926Z" fill="#50CEF5"/>
</mask>
<g mask="url(#mask21_698_79)">
<rect x="78.852" y="50.926" width="9.97242" height="67.0926" transform="rotate(-35.6456 78.852 50.926)" fill="#000C83"/>
<rect x="129.391" y="31.1562" width="9.97242" height="67.0926" transform="rotate(1.3197 129.391 31.1562)" fill="#000C83"/>
</g>
<path d="M69.5155 187.586C67.6455 186.506 64.6055 186.506 62.7255 187.586C60.8555 188.666 60.8555 190.426 62.7255 191.506C64.5955 192.586 67.6355 192.586 69.5155 191.506C71.3855 190.426 71.3855 188.666 69.5155 187.586Z" fill="#50CEF5"/>
<circle cx="119.447" cy="98.6423" r="11.6185" fill="url(#paint36_radial_698_79)"/>
<circle cx="131.605" cy="93.2775" r="11.6185" fill="url(#paint37_radial_698_79)"/>
<circle cx="126.055" cy="98.4557" r="11.6185" fill="url(#paint38_radial_698_79)"/>
<path d="M132.135 153.196C131.265 149.506 123.055 149.506 122.195 153.196C123.065 156.886 131.275 156.886 132.135 153.196Z" fill="#50CEF5"/>
<path d="M190.865 119.916C189.995 116.226 181.785 116.226 180.925 119.916C181.795 123.606 190.005 123.606 190.865 119.916Z" fill="#50CEF5"/>
<g style="mix-blend-mode:overlay">
<path opacity="0.17" d="M240.096 29.4257C240.096 30.2357 239.435 30.8957 238.635 30.8957C237.835 30.8957 237.165 30.2357 237.165 29.4257C237.165 28.6157 237.825 27.9557 238.635 27.9557C239.445 27.9557 240.096 28.6157 240.096 29.4257Z" fill="#929394"/>
<path opacity="0.33" d="M240.115 47.9058C240.115 48.7258 239.446 49.3958 238.626 49.3958C237.806 49.3958 237.135 48.7258 237.135 47.9058C237.135 47.0858 237.806 46.4158 238.626 46.4158C239.446 46.4158 240.115 47.0858 240.115 47.9058Z" fill="#A4A7A9"/>
<path opacity="0.5" d="M240.135 66.3857C240.135 67.2157 239.455 67.8957 238.625 67.8957C237.795 67.8957 237.115 67.2157 237.115 66.3857C237.115 65.5557 237.795 64.8757 238.625 64.8757C239.455 64.8757 240.135 65.5557 240.135 66.3857Z" fill="#B7BBBF"/>
<path opacity="0.67" d="M240.165 84.8657C240.165 85.7157 239.475 86.3957 238.635 86.3957C237.795 86.3957 237.105 85.7057 237.105 84.8657C237.105 84.0257 237.795 83.3357 238.635 83.3357C239.475 83.3357 240.165 84.0257 240.165 84.8657Z" fill="#CACED4"/>
<path opacity="0.83" d="M240.186 103.346C240.186 104.206 239.486 104.896 238.636 104.896C237.786 104.896 237.086 104.196 237.086 103.346C237.086 102.496 237.786 101.796 238.636 101.796C239.486 101.796 240.186 102.496 240.186 103.346Z" fill="#DCE2E9"/>
<path d="M240.206 121.826C240.206 122.696 239.496 123.406 238.626 123.406C237.756 123.406 237.046 122.706 237.046 121.826C237.046 120.946 237.756 120.246 238.626 120.246C239.496 120.246 240.206 120.956 240.206 121.826Z" fill="#EFF6FE"/>
</g>
<g style="mix-blend-mode:overlay">
<path opacity="0.17" d="M16.6755 157.806C16.6755 158.616 16.0155 159.276 15.2155 159.276C14.4155 159.276 13.7555 158.616 13.7555 157.806C13.7555 156.996 14.4155 156.346 15.2155 156.346C16.0155 156.346 16.6755 157.006 16.6755 157.806Z" fill="#929394"/>
<path opacity="0.33" d="M16.6955 176.286C16.6955 177.106 16.0255 177.776 15.2055 177.776C14.3855 177.776 13.7155 177.106 13.7155 176.286C13.7155 175.466 14.3855 174.796 15.2055 174.796C16.0255 174.796 16.6955 175.466 16.6955 176.286Z" fill="#A4A7A9"/>
<path opacity="0.5" d="M16.7155 194.766C16.7155 195.596 16.0355 196.276 15.2055 196.276C14.3755 196.276 13.6955 195.596 13.6955 194.766C13.6955 193.936 14.3755 193.256 15.2055 193.256C16.0355 193.256 16.7155 193.936 16.7155 194.766Z" fill="#B7BBBF"/>
<path opacity="0.67" d="M16.7355 213.246C16.7355 214.096 16.0455 214.776 15.2055 214.776C14.3655 214.776 13.6755 214.086 13.6755 213.246C13.6755 212.406 14.3655 211.716 15.2055 211.716C16.0455 211.716 16.7355 212.406 16.7355 213.246Z" fill="#CACED4"/>
<path opacity="0.83" d="M16.7655 231.726C16.7655 232.586 16.0655 233.276 15.2155 233.276C14.3655 233.276 13.6655 232.576 13.6655 231.726C13.6655 230.876 14.3655 230.176 15.2155 230.176C16.0655 230.176 16.7655 230.876 16.7655 231.726Z" fill="#DCE2E9"/>
<path d="M16.7855 250.206C16.7855 251.076 16.0755 251.786 15.2055 251.786C14.3355 251.786 13.6255 251.076 13.6255 250.206C13.6255 249.336 14.3355 248.626 15.2055 248.626C16.0755 248.626 16.7855 249.336 16.7855 250.206Z" fill="#EFF6FE"/>
</g>
<g style="mix-blend-mode:overlay">
<path opacity="0.17" d="M80.8655 260.016C80.8655 260.826 80.2055 261.486 79.4055 261.486C78.6055 261.486 77.9355 260.826 77.9355 260.016C77.9355 259.206 78.5955 258.556 79.4055 258.556C80.2155 258.556 80.8655 259.216 80.8655 260.016Z" fill="#929394"/>
<path opacity="0.33" d="M80.8855 269.456C80.8855 270.276 80.2155 270.946 79.3955 270.946C78.5755 270.946 77.9055 270.276 77.9055 269.456C77.9055 268.636 78.5755 267.966 79.3955 267.966C80.2155 267.966 80.8855 268.636 80.8855 269.456Z" fill="#A4A7A9"/>
<path opacity="0.5" d="M80.9055 278.896C80.9055 279.726 80.2255 280.406 79.3955 280.406C78.5655 280.406 77.8855 279.726 77.8855 278.896C77.8855 278.066 78.5655 277.386 79.3955 277.386C80.2255 277.386 80.9055 278.066 80.9055 278.896Z" fill="#B7BBBF"/>
<path opacity="0.67" d="M80.9255 288.346C80.9255 289.196 80.2355 289.876 79.3955 289.876C78.5555 289.876 77.8655 289.186 77.8655 288.346C77.8655 287.506 78.5555 286.816 79.3955 286.816C80.2355 286.816 80.9255 287.506 80.9255 288.346Z" fill="#CACED4"/>
<path opacity="0.83" d="M80.9455 297.786C80.9455 298.646 80.2455 299.336 79.3955 299.336C78.5455 299.336 77.8455 298.636 77.8455 297.786C77.8455 296.936 78.5455 296.236 79.3955 296.236C80.2455 296.236 80.9455 296.936 80.9455 297.786Z" fill="#DCE2E9"/>
<path d="M80.9755 307.226C80.9755 308.096 80.2655 308.806 79.3955 308.806C78.5255 308.806 77.8155 308.096 77.8155 307.226C77.8155 306.356 78.5255 305.646 79.3955 305.646C80.2655 305.646 80.9755 306.346 80.9755 307.226Z" fill="#EFF6FE"/>
</g>
<g style="mix-blend-mode:overlay">
<path opacity="0.17" d="M56.6955 90.5058C56.6955 91.3158 56.0355 91.9658 55.2255 91.9658C54.4155 91.9658 53.7655 91.3058 53.7655 90.5058C53.7655 89.7058 54.4255 89.0458 55.2255 89.0458C56.0255 89.0458 56.6955 89.7058 56.6955 90.5058Z" fill="#929394"/>
<path opacity="0.33" d="M56.7155 99.9457C56.7155 100.766 56.0455 101.436 55.2255 101.436C54.4055 101.436 53.7355 100.766 53.7355 99.9457C53.7355 99.1257 54.4055 98.4557 55.2255 98.4557C56.0455 98.4557 56.7155 99.1257 56.7155 99.9457Z" fill="#A4A7A9"/>
<path opacity="0.5" d="M56.7355 109.386C56.7355 110.216 56.0555 110.896 55.2255 110.896C54.3955 110.896 53.7155 110.216 53.7155 109.386C53.7155 108.556 54.3955 107.876 55.2255 107.876C56.0555 107.876 56.7355 108.556 56.7355 109.386Z" fill="#B7BBBF"/>
<path opacity="0.67" d="M56.7555 118.826C56.7555 119.676 56.0655 120.356 55.2255 120.356C54.3855 120.356 53.6955 119.666 53.6955 118.826C53.6955 117.986 54.3855 117.296 55.2255 117.296C56.0655 117.296 56.7555 117.986 56.7555 118.826Z" fill="#CACED4"/>
<path opacity="0.83" d="M56.7755 128.266C56.7755 129.126 56.0755 129.816 55.2255 129.816C54.3755 129.816 53.6755 129.116 53.6755 128.266C53.6755 127.416 54.3755 126.716 55.2255 126.716C56.0755 126.716 56.7755 127.416 56.7755 128.266Z" fill="#DCE2E9"/>
<path d="M56.8055 137.706C56.8055 138.576 56.0955 139.286 55.2255 139.286C54.3555 139.286 53.6455 138.576 53.6455 137.706C53.6455 136.836 54.3555 136.126 55.2255 136.126C56.0955 136.126 56.8055 136.836 56.8055 137.706Z" fill="#EFF6FE"/>
</g>
<path d="M150.316 45.8657L158.165 50.4257C155.545 48.9057 151.916 49.1157 147.906 51.4357C147.046 51.9257 146.216 52.4957 145.396 53.1357L137.546 48.5757C138.356 47.9357 139.195 47.3657 140.055 46.8757C144.065 44.5657 147.696 44.3457 150.316 45.8657Z" fill="#BECEF9"/>
<mask id="mask22_698_79" style="mask-type:luminance" maskUnits="userSpaceOnUse" x="137" y="44" width="22" height="10">
<path d="M150.316 45.8657L158.165 50.4257C155.545 48.9057 151.916 49.1157 147.906 51.4357C147.046 51.9257 146.216 52.4957 145.396 53.1357L137.546 48.5757C138.356 47.9357 139.195 47.3657 140.055 46.8757C144.065 44.5657 147.696 44.3457 150.316 45.8657Z" fill="white"/>
</mask>
<g mask="url(#mask22_698_79)">
<path d="M145.396 53.1257L137.546 48.5657C138.356 47.9257 139.195 47.3557 140.055 46.8657C141.585 45.9857 143.055 45.4057 144.445 45.1157L152.296 49.6757C150.916 49.9657 149.436 50.5457 147.906 51.4257C147.046 51.9157 146.216 52.4857 145.396 53.1257Z" fill="#BECEF9"/>
<path d="M152.296 49.6757L144.445 45.1157C146.575 44.6657 148.486 44.8957 150.066 45.7257L157.915 50.2857C156.345 49.4557 154.426 49.2357 152.296 49.6757Z" fill="#BECEF9"/>
<path d="M157.915 50.2857L150.065 45.7257C150.155 45.7757 150.235 45.8157 150.325 45.8657L158.175 50.4257C158.095 50.3757 158.005 50.3257 157.915 50.2857Z" fill="#BECEF9"/>
</g>
<path d="M131.896 40.3857L139.745 44.9457C135.815 42.6557 130.365 42.9857 124.355 46.4557L116.505 41.8957C122.515 38.4257 127.965 38.1057 131.896 40.3857Z" fill="#BECEF9"/>
<mask id="mask23_698_79" style="mask-type:luminance" maskUnits="userSpaceOnUse" x="116" y="38" width="24" height="9">
<path d="M131.896 40.3857L139.745 44.9457C135.815 42.6557 130.365 42.9857 124.355 46.4557L116.505 41.8957C122.515 38.4257 127.965 38.1057 131.896 40.3857Z" fill="white"/>
</mask>
<g mask="url(#mask23_698_79)">
<path d="M124.366 46.4557L116.516 41.8957C118.806 40.5757 121.015 39.7057 123.095 39.2657L130.945 43.8257C128.865 44.2657 126.666 45.1257 124.366 46.4557Z" fill="#BECEF9"/>
<path d="M130.945 43.8257L123.095 39.2657C126.285 38.5957 129.165 38.9357 131.525 40.1757L139.375 44.7357C137.015 43.4957 134.135 43.1557 130.945 43.8257Z" fill="#BECEF9"/>
<path d="M139.376 44.7357L131.526 40.1757C131.656 40.2457 131.786 40.3157 131.906 40.3857L139.756 44.9457C139.626 44.8757 139.506 44.8057 139.376 44.7357Z" fill="#BECEF9"/>
</g>
<path d="M103.436 77.3558L95.5855 72.7957C97.9155 60.6458 106.386 47.7458 116.516 41.8958L124.366 46.4558C114.246 52.2958 105.766 65.2058 103.436 77.3558Z" fill="#BECEF9"/>
<mask id="mask24_698_79" style="mask-type:luminance" maskUnits="userSpaceOnUse" x="95" y="41" width="30" height="37">
<path d="M103.436 77.3558L95.5855 72.7957C97.9155 60.6458 106.386 47.7458 116.516 41.8958L124.366 46.4558C114.246 52.2958 105.766 65.2058 103.436 77.3558Z" fill="white"/>
</mask>
<g mask="url(#mask24_698_79)">
<path d="M103.436 77.3557L95.5855 72.7957C96.2155 69.4857 97.3055 66.1257 98.7655 62.8657L106.616 67.4257C105.166 70.6857 104.076 74.0557 103.436 77.3557Z" fill="#BECEF9"/>
<path d="M106.616 67.4258L98.7655 62.8658C100.646 58.6458 103.135 54.6058 106.035 51.0658L113.885 55.6258C110.985 59.1658 108.496 63.2058 106.616 67.4258Z" fill="#BECEF9"/>
<path d="M113.886 55.6258L106.036 51.0658C109.136 47.2858 112.706 44.0958 116.516 41.8958L124.366 46.4558C120.566 48.6558 116.986 51.8458 113.886 55.6258Z" fill="#BECEF9"/>
</g>
<path d="M90.7655 112.706L82.9155 108.146C80.3255 106.646 78.7255 103.446 78.7055 98.8957C78.6755 89.7457 85.1155 78.5957 93.0855 73.9957C93.9455 73.5057 94.7755 73.1057 95.5955 72.7957L103.445 77.3557C102.625 77.6557 101.795 78.0557 100.935 78.5557C92.9655 83.1557 86.5355 94.3057 86.5555 103.456C86.5655 108.006 88.1755 111.206 90.7655 112.706Z" fill="#BECEF9"/>
<mask id="mask25_698_79" style="mask-type:luminance" maskUnits="userSpaceOnUse" x="78" y="72" width="26" height="41">
<path d="M90.7655 112.706L82.9155 108.146C80.3255 106.646 78.7255 103.446 78.7055 98.8957C78.6755 89.7457 85.1155 78.5957 93.0855 73.9957C93.9455 73.5057 94.7755 73.1057 95.5955 72.7957L103.445 77.3557C102.625 77.6557 101.795 78.0557 100.935 78.5557C92.9655 83.1557 86.5355 94.3057 86.5555 103.456C86.5655 108.006 88.1755 111.206 90.7655 112.706Z" fill="white"/>
</mask>
<g mask="url(#mask25_698_79)">
<path d="M90.7655 112.706L82.9155 108.146C80.3255 106.646 78.7255 103.446 78.7055 98.8957C78.7055 95.3857 79.6355 91.5857 81.2455 87.9757L89.0955 92.5357C87.4855 96.1457 86.5455 99.9457 86.5555 103.456C86.5655 108.006 88.1755 111.206 90.7655 112.706Z" fill="#BECEF9"/>
<path d="M89.0955 92.5357L81.2455 87.9757C82.4955 85.1657 84.1655 82.4657 86.0955 80.1057L93.9455 84.6657C92.0055 87.0257 90.3455 89.7257 89.0955 92.5357Z" fill="#BECEF9"/>
<path d="M93.9455 84.6657L86.0955 80.1057C88.1655 77.5857 90.5455 75.4657 93.0755 73.9957C93.9355 73.5057 94.7655 73.1057 95.5855 72.7957L103.436 77.3557C102.616 77.6557 101.786 78.0557 100.926 78.5557C98.3855 80.0157 96.0055 82.1457 93.9455 84.6657Z" fill="#BECEF9"/>
</g>
<path d="M124.365 46.4557C134.485 40.6157 143.015 43.6957 145.395 53.1257C146.205 52.4857 147.045 51.9157 147.905 51.4257C155.875 46.8257 162.345 50.5157 162.375 59.6757C162.395 68.2557 156.745 78.5757 149.485 83.6357L101.025 111.706C93.0555 116.306 86.5855 112.616 86.5555 103.456C86.5255 94.3057 92.9655 83.1557 100.935 78.5557C101.795 78.0657 102.625 77.6657 103.445 77.3557C105.775 65.2057 114.245 52.3057 124.375 46.4557H124.365Z" fill="#EFF6FE"/>
<g opacity="0.7">
<path d="M116.415 78.3556C116.255 78.4456 116.095 78.5156 115.925 78.5456C115.125 78.6956 114.695 77.9456 114.965 76.8756C116.195 71.9556 119.145 67.0656 122.865 63.7956C128.305 59.0156 133.885 58.9156 136.135 63.5656C136.475 64.2656 136.115 65.4956 135.345 66.3356C134.575 67.1656 133.675 67.2756 133.345 66.5856C131.705 63.1856 127.615 63.2556 123.635 66.7556C120.915 69.1456 118.745 72.7256 117.845 76.3356C117.635 77.1956 117.035 77.9956 116.405 78.3656L116.415 78.3556Z" fill="url(#paint39_linear_698_79)"/>
<path d="M112.945 77.3656L116.835 82.6456L120.535 72.8556L112.945 77.3656Z" fill="#00D4C6"/>
<path d="M126.085 89.0956C121.905 91.5056 117.905 91.1256 115.945 87.8456C115.565 87.2056 115.855 85.9756 116.605 85.0956C117.355 84.2156 118.275 84.0356 118.655 84.6756C120.415 87.6156 124.405 87.3756 128.145 84.0856C130.915 81.6456 133.095 78.0056 133.975 74.3456C134.235 73.2756 135.085 72.2656 135.885 72.1056C136.685 71.9356 137.125 72.6756 136.875 73.7456C135.685 78.7456 132.705 83.7256 128.915 87.0556C127.975 87.8756 127.025 88.5656 126.095 89.1056L126.085 89.0956Z" fill="url(#paint40_linear_698_79)"/>
<path d="M138.875 73.6256L135.565 67.6556L131.305 77.3656L138.875 73.6256Z" fill="#00D4C6"/>
</g>
<g style="mix-blend-mode:overlay">
<path opacity="0.4" d="M211.065 6.24571L214.315 4.36571V0.605713L211.065 2.48571V6.24571Z" fill="#EFF6FE"/>
<path opacity="0.3" d="M150.176 73.4857L153.436 71.6057V67.8457L150.176 69.7257V73.4857Z" fill="#EFF6FE"/>
<path d="M75.4455 114.976L78.6955 113.096V109.346L75.4455 111.226V114.976Z" fill="#EFF6FE"/>
<path opacity="0.7" d="M159.105 76.3058L162.365 74.4258V70.6658L159.105 72.5458V76.3058Z" fill="#EFF6FE"/>
<path d="M0.5755 214.666L3.8255 212.786V209.026L0.5755 210.906V214.666Z" fill="#EFF6FE"/>
<path opacity="0.5" d="M24.3955 167.866L27.6555 165.986V162.226L24.3955 164.106V167.866Z" fill="#EFF6FE"/>
</g>
<defs>
<linearGradient id="paint0_linear_698_79" x1="150.826" y1="281.056" x2="150.826" y2="183.296" gradientUnits="userSpaceOnUse">
<stop stop-color="#000080"/>
<stop offset="0.04" stop-color="#000C83"/>
<stop offset="0.23" stop-color="#004897"/>
<stop offset="0.42" stop-color="#007AA8"/>
<stop offset="0.59" stop-color="#00A1B5"/>
<stop offset="0.75" stop-color="#00BDBE"/>
<stop offset="0.9" stop-color="#00CEC4"/>
<stop offset="1" stop-color="#00D4C6"/>
</linearGradient>
<linearGradient id="paint1_linear_698_79" x1="82.6408" y1="260.439" x2="82.6408" y2="259.169" gradientUnits="userSpaceOnUse">
<stop stop-color="#000080"/>
<stop offset="0.04" stop-color="#000C83"/>
<stop offset="0.23" stop-color="#004897"/>
<stop offset="0.42" stop-color="#007AA8"/>
<stop offset="0.59" stop-color="#00A1B5"/>
<stop offset="0.75" stop-color="#00BDBE"/>
<stop offset="0.9" stop-color="#00CEC4"/>
<stop offset="1" stop-color="#00D4C6"/>
</linearGradient>
<linearGradient id="paint2_linear_698_79" x1="101.045" y1="279.596" x2="101.045" y2="261.236" gradientUnits="userSpaceOnUse">
<stop stop-color="#000080"/>
<stop offset="0.04" stop-color="#000C83"/>
<stop offset="0.23" stop-color="#004897"/>
<stop offset="0.42" stop-color="#007AA8"/>
<stop offset="0.59" stop-color="#00A1B5"/>
<stop offset="0.75" stop-color="#00BDBE"/>
<stop offset="0.9" stop-color="#00CEC4"/>
<stop offset="1" stop-color="#00D4C6"/>
</linearGradient>
<linearGradient id="paint3_linear_698_79" x1="76.7955" y1="258.736" x2="76.7955" y2="254.046" gradientUnits="userSpaceOnUse">
<stop stop-color="#000080"/>
<stop offset="0.04" stop-color="#000C83"/>
<stop offset="0.23" stop-color="#004897"/>
<stop offset="0.42" stop-color="#007AA8"/>
<stop offset="0.59" stop-color="#00A1B5"/>
<stop offset="0.75" stop-color="#00BDBE"/>
<stop offset="0.9" stop-color="#00CEC4"/>
<stop offset="1" stop-color="#00D4C6"/>
</linearGradient>
<linearGradient id="paint4_linear_698_79" x1="119.125" y1="281.396" x2="119.125" y2="280.016" gradientUnits="userSpaceOnUse">
<stop stop-color="#000080"/>
<stop offset="0.04" stop-color="#000C83"/>
<stop offset="0.23" stop-color="#004897"/>
<stop offset="0.42" stop-color="#007AA8"/>
<stop offset="0.59" stop-color="#00A1B5"/>
<stop offset="0.75" stop-color="#00BDBE"/>
<stop offset="0.9" stop-color="#00CEC4"/>
<stop offset="1" stop-color="#00D4C6"/>
</linearGradient>
<linearGradient id="paint5_linear_698_79" x1="150.045" y1="280.016" x2="150.045" y2="246.466" gradientUnits="userSpaceOnUse">
<stop stop-color="#000080"/>
<stop offset="0.04" stop-color="#000C83"/>
<stop offset="0.23" stop-color="#004897"/>
<stop offset="0.42" stop-color="#007AA8"/>
<stop offset="0.59" stop-color="#00A1B5"/>
<stop offset="0.75" stop-color="#00BDBE"/>
<stop offset="0.9" stop-color="#00CEC4"/>
<stop offset="1" stop-color="#00D4C6"/>
</linearGradient>
<linearGradient id="paint6_linear_698_79" x1="181.705" y1="245.726" x2="181.705" y2="243.756" gradientUnits="userSpaceOnUse">
<stop stop-color="#000080"/>
<stop offset="0.04" stop-color="#000C83"/>
<stop offset="0.23" stop-color="#004897"/>
<stop offset="0.42" stop-color="#007AA8"/>
<stop offset="0.59" stop-color="#00A1B5"/>
<stop offset="0.75" stop-color="#00BDBE"/>
<stop offset="0.9" stop-color="#00CEC4"/>
<stop offset="1" stop-color="#00D4C6"/>
</linearGradient>
<linearGradient id="paint7_linear_698_79" x1="157.845" y1="242.916" x2="157.845" y2="217.946" gradientUnits="userSpaceOnUse">
<stop stop-color="#000080"/>
<stop offset="0.04" stop-color="#000C83"/>
<stop offset="0.23" stop-color="#004897"/>
<stop offset="0.42" stop-color="#007AA8"/>
<stop offset="0.59" stop-color="#00A1B5"/>
<stop offset="0.75" stop-color="#00BDBE"/>
<stop offset="0.9" stop-color="#00CEC4"/>
<stop offset="1" stop-color="#00D4C6"/>
</linearGradient>
<linearGradient id="paint8_linear_698_79" x1="134.21" y1="217.089" x2="134.21" y2="215.809" gradientUnits="userSpaceOnUse">
<stop stop-color="#000080"/>
<stop offset="0.04" stop-color="#000C83"/>
<stop offset="0.23" stop-color="#004897"/>
<stop offset="0.42" stop-color="#007AA8"/>
<stop offset="0.59" stop-color="#00A1B5"/>
<stop offset="0.75" stop-color="#00BDBE"/>
<stop offset="0.9" stop-color="#00CEC4"/>
<stop offset="1" stop-color="#00D4C6"/>
</linearGradient>
<linearGradient id="paint9_linear_698_79" x1="129.867" y1="219.641" x2="129.867" y2="218.351" gradientUnits="userSpaceOnUse">
<stop stop-color="#000080"/>
<stop offset="0.04" stop-color="#000C83"/>
<stop offset="0.23" stop-color="#004897"/>
<stop offset="0.42" stop-color="#007AA8"/>
<stop offset="0.59" stop-color="#00A1B5"/>
<stop offset="0.75" stop-color="#00BDBE"/>
<stop offset="0.9" stop-color="#00CEC4"/>
<stop offset="1" stop-color="#00D4C6"/>
</linearGradient>
<linearGradient id="paint10_linear_698_79" x1="149.505" y1="240.816" x2="149.505" y2="220.366" gradientUnits="userSpaceOnUse">
<stop stop-color="#000080"/>
<stop offset="0.04" stop-color="#000C83"/>
<stop offset="0.23" stop-color="#004897"/>
<stop offset="0.42" stop-color="#007AA8"/>
<stop offset="0.59" stop-color="#00A1B5"/>
<stop offset="0.75" stop-color="#00BDBE"/>
<stop offset="0.9" stop-color="#00CEC4"/>
<stop offset="1" stop-color="#00D4C6"/>
</linearGradient>
<linearGradient id="paint11_linear_698_79" x1="169.745" y1="242.936" x2="169.745" y2="241.556" gradientUnits="userSpaceOnUse">
<stop stop-color="#000080"/>
<stop offset="0.04" stop-color="#000C83"/>
<stop offset="0.23" stop-color="#004897"/>
<stop offset="0.42" stop-color="#007AA8"/>
<stop offset="0.59" stop-color="#00A1B5"/>
<stop offset="0.75" stop-color="#00BDBE"/>
<stop offset="0.9" stop-color="#00CEC4"/>
<stop offset="1" stop-color="#00D4C6"/>
</linearGradient>
<linearGradient id="paint12_linear_698_79" x1="201.915" y1="240.756" x2="201.915" y2="206.206" gradientUnits="userSpaceOnUse">
<stop stop-color="#000080"/>
<stop offset="0.04" stop-color="#000C83"/>
<stop offset="0.23" stop-color="#004897"/>
<stop offset="0.42" stop-color="#007AA8"/>
<stop offset="0.59" stop-color="#00A1B5"/>
<stop offset="0.75" stop-color="#00BDBE"/>
<stop offset="0.9" stop-color="#00CEC4"/>
<stop offset="1" stop-color="#00D4C6"/>
</linearGradient>
<linearGradient id="paint13_linear_698_79" x1="232.675" y1="205.846" x2="232.675" y2="203.886" gradientUnits="userSpaceOnUse">
<stop stop-color="#000080"/>
<stop offset="0.04" stop-color="#000C83"/>
<stop offset="0.23" stop-color="#004897"/>
<stop offset="0.42" stop-color="#007AA8"/>
<stop offset="0.59" stop-color="#00A1B5"/>
<stop offset="0.75" stop-color="#00BDBE"/>
<stop offset="0.9" stop-color="#00CEC4"/>
<stop offset="1" stop-color="#00D4C6"/>
</linearGradient>
<linearGradient id="paint14_linear_698_79" x1="213.315" y1="202.946" x2="213.315" y2="184.696" gradientUnits="userSpaceOnUse">
<stop stop-color="#000080"/>
<stop offset="0.04" stop-color="#000C83"/>
<stop offset="0.23" stop-color="#004897"/>
<stop offset="0.42" stop-color="#007AA8"/>
<stop offset="0.59" stop-color="#00A1B5"/>
<stop offset="0.75" stop-color="#00BDBE"/>
<stop offset="0.9" stop-color="#00CEC4"/>
<stop offset="1" stop-color="#00D4C6"/>
</linearGradient>
<linearGradient id="paint15_linear_698_79" x1="173.71" y1="174.947" x2="173.71" y2="173.687" gradientUnits="userSpaceOnUse">
<stop stop-color="#000080"/>
<stop offset="0.04" stop-color="#000C83"/>
<stop offset="0.23" stop-color="#004897"/>
<stop offset="0.42" stop-color="#007AA8"/>
<stop offset="0.59" stop-color="#00A1B5"/>
<stop offset="0.75" stop-color="#00BDBE"/>
<stop offset="0.9" stop-color="#00CEC4"/>
<stop offset="1" stop-color="#00D4C6"/>
</linearGradient>
<linearGradient id="paint16_linear_698_79" x1="177.625" y1="238.386" x2="177.625" y2="212.116" gradientUnits="userSpaceOnUse">
<stop stop-color="#000080"/>
<stop offset="0.04" stop-color="#000C83"/>
<stop offset="0.23" stop-color="#004897"/>
<stop offset="0.42" stop-color="#007AA8"/>
<stop offset="0.59" stop-color="#00A1B5"/>
<stop offset="0.75" stop-color="#00BDBE"/>
<stop offset="0.9" stop-color="#00CEC4"/>
<stop offset="1" stop-color="#00D4C6"/>
</linearGradient>
<linearGradient id="paint17_linear_698_79" x1="149.06" y1="252.988" x2="149.06" y2="220.968" gradientUnits="userSpaceOnUse">
<stop stop-color="#000080"/>
<stop offset="0.04" stop-color="#000C83"/>
<stop offset="0.23" stop-color="#004897"/>
<stop offset="0.42" stop-color="#007AA8"/>
<stop offset="0.59" stop-color="#00A1B5"/>
<stop offset="0.75" stop-color="#00BDBE"/>
<stop offset="0.9" stop-color="#00CEC4"/>
<stop offset="1" stop-color="#00D4C6"/>
</linearGradient>
<linearGradient id="paint18_linear_698_79" x1="101.765" y1="301.426" x2="101.765" y2="250.746" gradientUnits="userSpaceOnUse">
<stop stop-color="#000080"/>
<stop offset="0.04" stop-color="#000C83"/>
<stop offset="0.23" stop-color="#004897"/>
<stop offset="0.42" stop-color="#007AA8"/>
<stop offset="0.59" stop-color="#00A1B5"/>
<stop offset="0.75" stop-color="#00BDBE"/>
<stop offset="0.9" stop-color="#00CEC4"/>
<stop offset="1" stop-color="#00D4C6"/>
</linearGradient>
<linearGradient id="paint19_linear_698_79" x1="223.805" y1="214.896" x2="223.805" y2="187.856" gradientUnits="userSpaceOnUse">
<stop stop-color="#000080"/>
<stop offset="0.04" stop-color="#000C83"/>
<stop offset="0.23" stop-color="#004897"/>
<stop offset="0.42" stop-color="#007AA8"/>
<stop offset="0.59" stop-color="#00A1B5"/>
<stop offset="0.75" stop-color="#00BDBE"/>
<stop offset="0.9" stop-color="#00CEC4"/>
<stop offset="1" stop-color="#00D4C6"/>
</linearGradient>
<linearGradient id="paint20_linear_698_79" x1="176.265" y1="254.276" x2="176.265" y2="251.136" gradientUnits="userSpaceOnUse">
<stop stop-color="#000080"/>
<stop offset="0.04" stop-color="#000C83"/>
<stop offset="0.23" stop-color="#004897"/>
<stop offset="0.42" stop-color="#007AA8"/>
<stop offset="0.59" stop-color="#00A1B5"/>
<stop offset="0.75" stop-color="#00BDBE"/>
<stop offset="0.9" stop-color="#00CEC4"/>
<stop offset="1" stop-color="#00D4C6"/>
</linearGradient>
<linearGradient id="paint21_linear_698_79" x1="215.606" y1="221.046" x2="215.606" y2="217.906" gradientUnits="userSpaceOnUse">
<stop stop-color="#000080"/>
<stop offset="0.04" stop-color="#000C83"/>
<stop offset="0.23" stop-color="#004897"/>
<stop offset="0.42" stop-color="#007AA8"/>
<stop offset="0.59" stop-color="#00A1B5"/>
<stop offset="0.75" stop-color="#00BDBE"/>
<stop offset="0.9" stop-color="#00CEC4"/>
<stop offset="1" stop-color="#00D4C6"/>
</linearGradient>
<linearGradient id="paint22_linear_698_79" x1="262.825" y1="215.756" x2="262.825" y2="212.626" gradientUnits="userSpaceOnUse">
<stop stop-color="#000080"/>
<stop offset="0.04" stop-color="#000C83"/>
<stop offset="0.23" stop-color="#004897"/>
<stop offset="0.42" stop-color="#007AA8"/>
<stop offset="0.59" stop-color="#00A1B5"/>
<stop offset="0.75" stop-color="#00BDBE"/>
<stop offset="0.9" stop-color="#00CEC4"/>
<stop offset="1" stop-color="#00D4C6"/>
</linearGradient>
<linearGradient id="paint23_linear_698_79" x1="125.236" y1="302.496" x2="125.236" y2="299.356" gradientUnits="userSpaceOnUse">
<stop stop-color="#000080"/>
<stop offset="0.04" stop-color="#000C83"/>
<stop offset="0.23" stop-color="#004897"/>
<stop offset="0.42" stop-color="#007AA8"/>
<stop offset="0.59" stop-color="#00A1B5"/>
<stop offset="0.75" stop-color="#00BDBE"/>
<stop offset="0.9" stop-color="#00CEC4"/>
<stop offset="1" stop-color="#00D4C6"/>
</linearGradient>
<linearGradient id="paint24_linear_698_79" x1="36.7511" y1="246.888" x2="94.2911" y2="246.888" gradientUnits="userSpaceOnUse">
<stop stop-color="#000080"/>
<stop offset="1" stop-color="#00D4C6"/>
</linearGradient>
<linearGradient id="paint25_linear_698_79" x1="0.5811" y1="228.228" x2="1.5811" y2="228.228" gradientUnits="userSpaceOnUse">
<stop stop-color="#000080"/>
<stop offset="1" stop-color="#00D4C6"/>
</linearGradient>
<linearGradient id="paint26_linear_698_79" x1="36.7011" y1="209.249" x2="94.5011" y2="209.249" gradientUnits="userSpaceOnUse">
<stop stop-color="#000080"/>
<stop offset="1" stop-color="#00D4C6"/>
</linearGradient>
<linearGradient id="paint27_linear_698_79" x1="65.5411" y1="175.749" x2="65.5411" y2="203.039" gradientUnits="userSpaceOnUse">
<stop stop-color="#000080"/>
<stop offset="0.04" stop-color="#000C83"/>
<stop offset="0.23" stop-color="#004897"/>
<stop offset="0.42" stop-color="#007AA8"/>
<stop offset="0.59" stop-color="#00A1B5"/>
<stop offset="0.75" stop-color="#00BDBE"/>
<stop offset="0.9" stop-color="#00CEC4"/>
<stop offset="1" stop-color="#00D4C6"/>
</linearGradient>
<linearGradient id="paint28_linear_698_79" x1="98.2255" y1="210.836" x2="155.765" y2="210.836" gradientUnits="userSpaceOnUse">
<stop stop-color="#000080"/>
<stop offset="1" stop-color="#00D4C6"/>
</linearGradient>
<linearGradient id="paint29_linear_698_79" x1="98.2255" y1="192.176" x2="155.765" y2="192.176" gradientUnits="userSpaceOnUse">
<stop stop-color="#000080"/>
<stop offset="1" stop-color="#00D4C6"/>
</linearGradient>
<linearGradient id="paint30_linear_698_79" x1="98.1755" y1="173.196" x2="155.976" y2="173.196" gradientUnits="userSpaceOnUse">
<stop stop-color="#000080"/>
<stop offset="1" stop-color="#00D4C6"/>
</linearGradient>
<linearGradient id="paint31_linear_698_79" x1="127.005" y1="139.696" x2="127.005" y2="166.986" gradientUnits="userSpaceOnUse">
<stop stop-color="#000080"/>
<stop offset="0.04" stop-color="#000C83"/>
<stop offset="0.23" stop-color="#004897"/>
<stop offset="0.42" stop-color="#007AA8"/>
<stop offset="0.59" stop-color="#00A1B5"/>
<stop offset="0.75" stop-color="#00BDBE"/>
<stop offset="0.9" stop-color="#00CEC4"/>
<stop offset="1" stop-color="#00D4C6"/>
</linearGradient>
<linearGradient id="paint32_linear_698_79" x1="156.955" y1="177.746" x2="214.495" y2="177.746" gradientUnits="userSpaceOnUse">
<stop stop-color="#000080"/>
<stop offset="1" stop-color="#00D4C6"/>
</linearGradient>
<linearGradient id="paint33_linear_698_79" x1="156.955" y1="159.086" x2="214.495" y2="159.086" gradientUnits="userSpaceOnUse">
<stop stop-color="#000080"/>
<stop offset="1" stop-color="#00D4C6"/>
</linearGradient>
<linearGradient id="paint34_linear_698_79" x1="156.905" y1="140.106" x2="214.705" y2="140.106" gradientUnits="userSpaceOnUse">
<stop stop-color="#000080"/>
<stop offset="1" stop-color="#00D4C6"/>
</linearGradient>
<linearGradient id="paint35_linear_698_79" x1="185.735" y1="106.596" x2="185.735" y2="133.896" gradientUnits="userSpaceOnUse">
<stop stop-color="#000080"/>
<stop offset="0.04" stop-color="#000C83"/>
<stop offset="0.23" stop-color="#004897"/>
<stop offset="0.42" stop-color="#007AA8"/>
<stop offset="0.59" stop-color="#00A1B5"/>
<stop offset="0.75" stop-color="#00BDBE"/>
<stop offset="0.9" stop-color="#00CEC4"/>
<stop offset="1" stop-color="#00D4C6"/>
</linearGradient>
<radialGradient id="paint36_radial_698_79" cx="0" cy="0" r="1" gradientUnits="userSpaceOnUse" gradientTransform="translate(119.447 98.6423) rotate(90) scale(11.6185)">
<stop stop-color="#00CEC4"/>
<stop offset="1" stop-color="#00CEC4" stop-opacity="0"/>
</radialGradient>
<radialGradient id="paint37_radial_698_79" cx="0" cy="0" r="1" gradientUnits="userSpaceOnUse" gradientTransform="translate(131.605 93.2775) rotate(90) scale(11.6185)">
<stop stop-color="#00CEC4"/>
<stop offset="1" stop-color="#00CEC4" stop-opacity="0"/>
</radialGradient>
<radialGradient id="paint38_radial_698_79" cx="0" cy="0" r="1" gradientUnits="userSpaceOnUse" gradientTransform="translate(126.055 98.4557) rotate(90) scale(11.6185)">
<stop stop-color="#00CEC4"/>
<stop offset="1" stop-color="#00CEC4" stop-opacity="0"/>
</radialGradient>
<linearGradient id="paint39_linear_698_79" x1="125.585" y1="60.1356" x2="125.585" y2="78.5656" gradientUnits="userSpaceOnUse">
<stop stop-color="#000080"/>
<stop offset="0.04" stop-color="#000C83"/>
<stop offset="0.23" stop-color="#004897"/>
<stop offset="0.42" stop-color="#007AA8"/>
<stop offset="0.59" stop-color="#00A1B5"/>
<stop offset="0.75" stop-color="#00BDBE"/>
<stop offset="0.9" stop-color="#00CEC4"/>
<stop offset="1" stop-color="#00D4C6"/>
</linearGradient>
<linearGradient id="paint40_linear_698_79" x1="126.365" y1="90.6556" x2="126.365" y2="72.0756" gradientUnits="userSpaceOnUse">
<stop stop-color="#000080"/>
<stop offset="0.04" stop-color="#000C83"/>
<stop offset="0.23" stop-color="#004897"/>
<stop offset="0.42" stop-color="#007AA8"/>
<stop offset="0.59" stop-color="#00A1B5"/>
<stop offset="0.75" stop-color="#00BDBE"/>
<stop offset="0.9" stop-color="#00CEC4"/>
<stop offset="1" stop-color="#00D4C6"/>
</linearGradient>
</defs>
</svg>
