<svg fill="none" height="35" viewBox="0 0 35 35" width="35" xmlns="http://www.w3.org/2000/svg"><g fill="#010485"><path d="m18.1111 2.07099c-3.0467 0-6.0251.90345-8.55842 2.59615-2.53331 1.69271-4.50778 4.09865-5.67374 6.91356-1.16595 2.8148-1.47104 5.9122-.87664 8.9005.5944 2.9882 2.06157 5.733 4.21598 7.8874 2.1544 2.1544 4.89932 3.6217 7.88752 4.2161 2.9883.5944 6.0857.2892 8.9005-.8767 2.8149-1.166 5.2208-3.1404 6.9135-5.6737s2.5962-5.5117 2.5962-8.5585c.0013-2.0234-.3963-4.0271-1.17-5.8967-.7737-1.86959-1.9083-3.56833-3.3391-4.99906-1.4307-1.43073-3.1294-2.56537-4.999-3.33908-1.8696-.7737-3.8734-1.17128-5.8968-1.16997zm0 29.09831c-2.7083 0-5.3558-.8031-7.6077-2.3078-2.25184-1.5047-4.00697-3.6433-5.0434-6.1454-1.03643-2.5022-1.3076-5.2555-.77923-7.9118.52836-2.6563 1.83253-5.09624 3.74761-7.01131 1.91502-1.91507 4.35502-3.21917 7.01132-3.74754s5.4096-.25719 7.9117.77923c2.5022 1.03643 4.6408 2.79154 6.1455 5.04342 1.5046 2.2519 2.3078 4.8993 2.3078 7.6077-.0109 3.6284-1.4571 7.1051-4.0228 9.6708-2.5656 2.5657-6.0423 4.0119-9.6708 4.0227z"/><path d="m24.5303 18.5935h-6.8468v-8.2167c0-.2269-.0901-.4446-.2506-.60507s-.3781-.25058-.6051-.25058c-.2269 0-.4445.09011-.605.25058s-.2506.37817-.2506.60507v9.0284c.0022.2248.0924.4397.2514.5986.1589.159.3738.2493.5986.2515h7.7024c.2247-.0022.4396-.0925.5986-.2515.1589-.1589.2492-.3738.2514-.5986-.0013-.109-.0242-.2167-.0675-.3167-.0433-.1001-.1061-.1904-.1847-.266-.0785-.0755-.1714-.1347-.273-.174-.1017-.0394-.2102-.058-.3191-.055z"/></g></svg>