<svg fill="none" height="93" viewBox="0 0 115 93" width="115" xmlns="http://www.w3.org/2000/svg" xmlns:xlink="http://www.w3.org/1999/xlink"><clipPath id="a"><rect height="93" rx="10" width="115"/></clipPath><clipPath id="b"><rect height="110.595" rx="10" width="190.496" x="-36.8711" y="-.308105"/></clipPath><g clip-path="url(#a)"><g clip-path="url(#b)"><path d="m153.625-.308105h-190.4961v110.581105h190.4961z" fill="#fff"/><path d="m86.5625 132.857h-58.3856c-.0046-.104.0379-.184.1264-.241.3391-.173.7068-.138 1.0677-.138 18.667-.002 37.3328-.002 55.9997 0 .3597 0 .7287-.037 1.0677.136.0885.058.1287.139.1241.243z" fill="#c4c1bb"/><path d="m10.6025 132.857c.0035-.775-.1218-1.558.1287-2.321.3552.383.1828.861.2276 1.299.0345.336.0058.707.5241.657 5.0006-.027 9.9989-.008 14.9984-.01.2884 0 .5815-.009.8493.135.0885.056.1287.136.1207.24z" fill="#c4c1bb"/><path d="m105.721 132.693c.005.055.008.109.013.164h-18.5915c-.0081-.104.0333-.184.1218-.239.2667-.144.5586-.136.8482-.136 5.5729-.004 11.1459-.006 16.7175 0 .121 0 .242.005.361.025.194.013.382.044.53.186z" fill="#c4c1bb"/><path d="m27.4513 132.857c0-.037.0019-.074.0031-.112.0149-.028.0298-.056.0448-.084.1758-.112.362-.105.5539-.049.0598.027.1.074.1219.136.0023.036.0034.072.0034.108h-.7263z" fill="#acabab"/><path d="m87.1401 132.748c.0023.036.0023.073.0035.108h-.5804c0-.035 0-.07.0023-.105.0103-.028.0218-.056.0322-.084.1356-.094.2815-.095.4333-.049.0574.026.0919.071.1091.13z" fill="#abaaaa"/><path d="m105.721 132.693c-.139.002-.278.004-.417.005-.354-.815-.275-1.695-.335-2.546-.071-1.008-.021-2.025-.016-3.037.011-3.085-.201-6.159-.41-9.235-.37-5.434-1.04-10.836-1.589-16.251-.107-1.054-.115-2.1192-.144-3.174-.075-2.6778-.359-5.335-.646-7.991-.329-3.042-.592-6.0931-1.131-9.1099-.612-3.4257-1.4105-6.801-2.731-10.0343-1.1815-2.8919-3.0433-5.2456-5.635-7.006-2.7537-1.8714-5.7339-3.2825-8.8646-4.4278-2.7353-1.001-5.6155-1.4683-8.3577-2.4224-.4815-.1672-.6379.0962-.8125.4559-.7701 1.5943-1.6148 3.1714-2.994 4.3144-3.0927 2.5656-6.4981 4.5035-10.6931 4.3729-2.1411-.0664-4.2064-.6574-6.1993-1.4248-2.6468-1.0182-5.2442-2.1326-7.3118-4.1793-1.108-1.0972-2.0481-2.309-2.8193-3.6559-.1712-.3001-.2609-.6276-.0643-.9621.1011-.1454.2907-.1913.393-.3379-.1069.1077-.2494.1638-.3735.2474-1.7711.717-3.6295 1.2244-5.3396 2.0777-3.8709 1.931-7.8659 3.6032-11.6436 5.7346-4.5179 2.5484-7.3728 6.3578-9.0473 11.1544-1.07 3.0661-1.6423 6.2421-2.1538 9.4375-.739 4.618-1.4217 9.2463-2.2538 13.8505-.3712 2.0571-.3551 4.1751-.6861 6.2471-.7355 4.596-.9895 9.244-1.4952 13.864-.4218 3.847-.2138 7.706-.2816 11.56-.015.831.0046 1.68-.3505 2.47-.608.015-.6011.015-.6034-.519-.0023-.546.0839-1.091.0138-1.638.0793-1.951.1264-3.904.1022-5.858-.039-3.092.2288-6.163.5908-9.231.2942-2.489.4723-4.992.7528-7.483.2333-2.082.547-4.156.8091-6.236.1207-.956.1885-1.9185.3057-2.8749.2885-2.3445.7827-4.6557 1.1263-6.9922.4356-2.9561.9126-5.9042 1.4148-8.8488.5815-3.404 1.37-6.7483 2.7767-9.9232 1.8125-4.0899 4.5317-7.3679 8.4922-9.5738 1.7515-.9747 3.4985-1.9505 5.3304-2.7705 1.2332-.5521 2.4584-1.1259 3.6652-1.7329 2.987-1.5016 6.1051-2.6595 9.3231-3.5448.8516-.2348 1.3872-.6964 1.7688-1.4431.4608-.9003.6436-1.8589.6999-2.8542.0873-1.5256-.1276-3.0271-.3103-4.5355-.1299-1.064-.5425-2.0421-.7999-3.0649-.377-1.4993-.5425-3.034-.7425-4.5619-.0494-.3779-.1494-.5016-.5735-.5119-1.0194-.0241-1.7676-.5807-2.294-1.4283-.3069-.4947-.4735-1.0525-.6149-1.6149-.3551-1.4019-.6643-2.8118-.8137-4.2526-.0344-.3333-.0505-.6769-.0115-1.009.1242-1.0457.5437-1.6275 1.5424-2.2082-.5367-1.2324-1.0769-2.4659-1.6113-3.7017-.8011-1.8474-1.1286-3.7762-.985-5.7851.0586-.8201.2276-1.6218.4494-2.4098.4115-1.4591.8827-2.9034 1.255-4.3717.4494-1.77411 1.539-2.90112 3.2572-3.46577 2.156-.70895 4.2903-1.47862 6.3211-2.50025 1.2562-.63222 2.5676-1.09723 3.9191-1.48091 1.5022-.42721 2.9583-.37911 4.4007.20616.6264.25426 1.2596.4902 1.8745.76966 1.6033.72843 3.3008 1.07088 5.0374 1.26559.7447.08361 1.4883.16607 2.2043.41232 1.0976.37796 1.947 1.04683 2.5113 2.06617.2563.46386.5149.92658.7769 1.38813.3402.5979.7919 1.0938 1.3884 1.4466 2.1193 1.2541 2.9801 3.1771 3.0479 5.5617.0678 2.3834-.4666 4.6351-1.3826 6.8136-.5126 1.2209-1.1022 2.404-1.8665 3.4955 1.2826.6288 1.6929 1.7753 1.7607 3.0008.1276 2.2975-.4321 4.4439-1.8112 6.3337-.315.4317-.7011.7971-1.1379 1.1075-.5263.3734-1.0872.5085-1.7136.26-.1793.0813-.1804.2623-.2195.4215-.046.1866-.0724.3802-.1379.56-.6505 1.7982-.6907 3.6742-.7344 5.5526-.0437 1.9035-.1138 3.8071-.1666 5.7106-.0288 1.0331.2436 2.0066.6597 2.9378.5999 1.34 1.6653 2.183 3.0548 2.5758 2.0883.5922 4.1593 1.2324 6.2717 1.757 4.5926 1.1419 8.9531 2.8896 12.9331 5.4987 3.2066 2.1028 5.4098 4.9719 6.697 8.5659 1.2564 3.5047 2.1224 7.1045 2.6384 10.7856.643 4.5825 1.135 9.1821 1.486 13.7955.145 1.8978.199 3.8014.356 5.6994.189 2.306.462 4.604.668 6.908.194 2.136.466 4.264.645 6.402.442 5.265.659 10.539.623 15.824-.003.434-.014.868-.022 1.302z" fill="#010101"/><path d="m11.3201 132.692c.2552-3.102.146-6.211.1586-9.317.0081-2.046.1793-4.08.408-6.111.1345-1.194.192-2.395.3322-3.588.1402-1.192.1839-2.392.3804-3.58.0977-.591.1126-1.198.1505-1.794.0816-1.277.4034-2.512.5345-3.779.1034-1.002.293-1.999.3505-3.003.1172-2.0194.4126-4.0077.8011-5.9902.3264-1.6711.6183-3.3501.8413-5.0418.2608-1.9734.6401-3.9319.9309-5.9019.2551-1.7352.5459-3.4635.939-5.1723.6102-2.6583 1.3998-5.2571 2.7077-7.6703 1.0034-1.852 2.186-3.5791 3.7479-5.0177 1.1757-1.0834 2.5066-1.9562 3.88-2.7705 2.3503-1.395 4.8179-2.5575 7.3107-3.6708.9482-.4238 1.8665-.9128 2.7963-1.3778 2.1423-1.0721 4.3915-1.8795 6.6521-2.6572.1621-.0561.3207-.1054.4931-.0996.0448.032.0597.0641.0436.095-.0149.0309-.031.047-.0459.047-.2425.3573-.1241.6929.0724 1.0147.539.8854 1.1171 1.7444 1.8009 2.5289 1.8136 2.0822 4.0697 3.5002 6.62 4.5321 1.9308.7823 3.8927 1.4065 5.935 1.8268 2.2296.4593 4.3765.2188 6.466-.5727 1.8365-.6963 3.5249-1.6882 5.1052-2.8541 1.1458-.8453 2.017-1.9333 2.7491-3.1348.4505-.7399.9171-1.4786 1.1688-2.3158.0828-.2761.2057-.2566.4218-.1867.9183.2989 1.8217.6837 2.7641.8544 2.2951.4157 4.4788 1.1888 6.6602 1.9585 3.2743 1.1556 6.3602 2.7087 9.1254 4.8184 2.3159 1.7672 3.9398 4.0739 4.9972 6.7838 1.132 2.9023 1.8983 5.9042 2.4643 8.9599.402 2.1727.687 4.3614.895 6.5628.143 1.5049.38 2.9996.537 4.5034.135 1.3137.204 2.6354.324 3.9502.178 1.9654.21 3.9365.304 5.9053.054 1.124.257 2.239.377 3.359.12 1.123.214 2.249.33 3.371.121 1.169.252 2.339.385 3.507.066.573.126 1.15.162 1.72.093 1.464.27 2.92.352 4.385.1 1.8.187 3.602.302 5.4.092 1.445.105 2.887.103 4.33-.003 1.736.08 3.466.151 5.198-5.09.004-10.1802.007-15.2704.015-.9643.001-1.9286.023-2.8917.035l.0046-.062c-.3229-.607-.0621-1.229-.0218-1.836.1344-2.071.108-4.138.0057-6.211-.0919-1.872-.2804-3.736-.1218-5.628.1586-1.891.1138-3.801-.0287-5.706-.1989-2.634-.0322-5.268.5355-7.839.9183-4.156 1.3102-8.3799 1.8389-12.5878.1287-1.0274.0782-2.0685.1299-3.1027.0862-1.7329.2344-3.4589.3517-5.1895-.5862 5.1837-.7609 10.4064-1.4803 15.578-.2598 1.865-.7436 3.686-1.0942 5.534-.3022 1.591-.4919 3.187-.4792 4.811.023 2.821.0781 5.645-.0138 8.463-.0943 2.872.1873 5.721.2735 8.582.0471 1.583-.0988 3.175-.2907 4.756-.0173.146-.0805.277-.1885.382l.0046.061c-.2897-.014-.5781-.038-.8678-.038-18.8853-.002-37.7706-.002-56.6559 0-.2896 0-.5781.023-.8677.036l.0046-.062c-.2149-.26-.1149-.553-.0759-.834.7172-5.132 1.4723-10.268 1.8159-15.436.2425-3.66.8069-7.281 1.0608-10.932.1655-2.388-.0655-4.767-.3287-7.141-.4344-3.9251-.9987-7.8329-1.571-11.7397.6091 4.3145 1.1113 8.6427 1.6009 12.972.4126 3.6517.1161 7.2657-.4459 10.8737-.331 2.124-.3965 4.268-.5402 6.406-.1333 1.997-.4229 3.979-.7022 5.959-.4206 2.984-.6333 5.994-1.1596 8.965-.0587.332-.0621.68-.3828.899l.0016.065c-.2885-.012-.5762-.032-.8647-.033-4.8247-.003-9.6484 0-14.4731-.003-.2655 0-.5298-.012-.7953-.019z" fill="#040404"/><path d="m27.4505 132.681c.1931-1.233.3966-2.465.5747-3.7.2161-1.497.3172-3.007.5425-4.504.1965-1.306.3218-2.622.485-3.933.1241-1 .2724-1.999.3838-3 .0989-.884.1184-1.779.1529-2.664.0701-1.831.3218-3.635.5758-5.444.3724-2.648.6585-5.311.4459-7.985-.1333-1.6732-.2873-3.3477-.5195-5.0141-.2528-1.8074-.4068-3.6273-.6263-5.4392-.1563-1.2862-.3644-2.5667-.5172-3.8529-.0529-.4478-.0081-.906-.0081-1.4328.369.3516.3161.7868.3759 1.1533.3103 1.9196.5953 3.8426.8619 5.7691.1816 1.3079.2931 2.6262.4839 3.933.2505 1.7134.3999 3.4376.5218 5.1596.1034 1.459.1092 2.932-.0598 4.402-.1241 1.073-.2 2.153-.3333 3.226-.1253 1.001-.2666 2-.3747 3.002-.0873.812-.1792 1.627-.1907 2.443-.0253 1.711-.2207 3.404-.4149 5.1-.1529 1.337-.2793 2.676-.4724 4.008-.3241 2.234-.4747 4.488-.8367 6.718-.1115.686-.2287 1.373-.3241 2.063-.2425.036-.485.04-.7275-.007z" fill="#010101"/><path d="m86.5609 132.691c.0873-1.366.1793-2.733.2586-4.099.0229-.385.0356-.773.0068-1.156-.1264-1.726-.1723-3.459-.3045-5.182-.0667-.873.0241-1.724.0253-2.585.0046-2.99.023-5.979-.0081-8.967-.0207-1.985.2586-3.929.6528-5.863.3069-1.505.6551-3.004.9103-4.517.1793-1.0631.2264-2.1489.3459-3.2232.1115-1.0022.2448-2.0009.3586-3.0031.0816-.7158.2092-1.4328.2057-2.1486-.008-1.3263.1104-2.6457.1885-3.9651.0713-1.1958.2701-2.3846.4459-3.5712.038-.2531.0552-.5807.3896-.7273 0 .5693.0644 1.1133-.0115 1.6367-.2459 1.6928-.2114 3.4039-.3827 5.1013-.0459.4536-.0218.9151-.0241 1.3733-.0069 1.2781-.2126 2.5346-.3839 3.7956-.1298.9518-.2643 1.9047-.3264 2.861-.1126 1.7086-.4516 3.3786-.7872 5.0496-.3874 1.931-.7517 3.859-.8747 5.836-.077 1.229-.1517 2.46-.062 3.677.1321 1.784.0609 3.562.1023 5.343.0126.535-.1161 1.052-.1288 1.581-.039 1.686.1586 3.36.2299 5.04.0839 1.969.1609 3.946-.0644 5.918-.0678.596-.1034 1.196-.1804 1.793-.1942.001-.3896.003-.5838.004z" fill="#010101"/><path d="m70.978 28.7421c-.0253 2.7476-.1161 5.493-.3793 8.2292-.1827 1.9081-.7654 3.7212-1.3906 5.5194-.3241.9322-.6712 1.8588-1.1045 2.7476-1.5642 3.2069-4.057 5.1998-7.6153 5.8366-2.6721.4787-5.1925.1237-7.5693-1.206-.7815-.4375-1.5366-.9094-2.2595-1.4397-1.9871-1.4546-3.1985-3.3696-3.5938-5.808-.5517-3.4016-1.1459-6.7987-1.2562-10.2518-.1081-3.3937.2666-6.7243 1.2366-9.9976.6528-2.2036 2.0205-3.4795 4.2846-3.8678 2.5032-.4295 5.0064-.8292 7.5544-.8945 1.4044-.0355 2.7778-.3596 4.1593-.5967 1.0504-.181 2.1044-.2646 3.1755-.1134 1.7412.2474 2.9491 1.151 3.5605 2.7923.4816 1.2908.7873 2.6297.9517 3.9983.2011 1.678.2838 3.3616.2459 5.0521z" fill="#fff"/><path d="m71.335 31.2871c-.0379-1.0101.2138-2.0077.1219-3.0202-.131-1.4569-.1425-2.9206-.2621-4.3797-.1241-1.5233-.4539-2.9871-.9481-4.4187-.5333-1.5451-1.624-2.5461-3.2089-2.9504-1.1091-.2829-2.248-.2485-3.3743-.0561-1.3976.2382-2.7871.5177-4.1881.7318-.5206.0791-1.0642.0516-1.5941.0218-1.3343-.0744-2.6457.1455-3.9547.3276-1.0447.1454-2.0963.2771-3.1215.5486-.6091.1615-1.1849.4077-1.7538.6711-.9551.4433-1.5412 1.2519-1.9389 2.1601-.6942 1.5898-1.0826 3.2745-1.3757 4.9845-.3046 1.7799-.4299 3.57-.4253 5.3728 0 .0882.0265.1844-.0942.3-.2988-.4512-.4218-.9712-.5873-1.4488-.7045-2.0272-1.6538-3.948-2.4917-5.9168-.8148-1.915-1.1838-3.909-1.0206-5.982.069-.8854.3425-1.7398.5896-2.5919.4218-1.4534.885-2.8954 1.293-4.3523.3505-1.2541 1.2297-1.99056 2.3687-2.4464 1.1861-.47417 2.4055-.86358 3.6031-1.30912.9953-.36994 1.9756-.77768 2.9215-1.26101 1.5757-.80516 3.2272-1.41677 4.9696-1.72601 1.0792-.19127 2.1607-.0985 3.1962.33902 1.1987.50738 2.3859 1.04798 3.6306 1.43739 1.0585.33214 2.1492.50394 3.2514.63451.9746.11568 1.9595.2096 2.8629.67804.7987.41461 1.4136.98269 1.809 1.79129.1689.34589.3655.67919.5367 1.02509.5011 1.0182 1.4159 1.6149 2.2952 2.2506 1.2194.883 1.8733 2.0902 2.1066 3.5608.0874.5486.1356 1.0926.1379 1.647.0104 2.1532-.5643 4.169-1.3883 6.1355-.5793 1.3813-1.3493 2.648-2.1354 3.9216-.6505 1.0537-1.3321 2.12-1.7274 3.318l-.0494.047-.0529-.0435z" fill="#1f120c"/><g fill="#fff"><path d="m48.2035 46.7627c1.9227 2.3205 4.3627 3.8564 7.2578 4.6524 2.5629.7043 5.0914.3894 7.5452-.512 1.6722-.615 2.9962-1.7375 4.0926-3.1302.9654-1.2266 1.6194-2.6194 2.1837-4.0602.3586.0355.1701.2715.1632.441-.0885 2.0948-.1942 4.1896-.2575 6.2867-.039 1.2713.2207 2.4945.8126 3.6307.5815 1.1167 1.4883 1.8818 2.6445 2.3639.1334.0562.2713.1008.408.1489 1.2263.4284 1.216.4227.6103 1.6172-1.1562 2.2827-2.8215 4.0683-5.0914 5.288-1.3194.709-2.6192 1.4512-4.0639 1.8933-2.1285.6528-4.2375.4925-6.3729-.0126-2.3687-.5601-4.6213-1.426-6.7866-2.4934-2.5779-1.2713-4.5593-3.2287-6.0361-5.6866-.3207-.5337-.3172-.5555.2367-.8739 1.724-.9872 2.4975-2.5243 2.7043-4.4416.1759-1.6252-.0207-3.2229-.2022-4.8275-.0391-.1409-.1311-.3104.1494-.2852z"/><path d="m75.1045 31.5207c-.0322 1.3595-.2919 2.6709-.8712 3.909-.4252.9094-1.0148 1.6894-1.871 2.2449-.2874.1866-.5873.339-.9471.2806-.2666-.0436-.462-.1638-.4045-.4788.2873-1.5634.0276-3.1714.4333-4.7302.393-1.5095 1.0619-2.8794 1.9101-4.177.1747-.2669.3758-.2657.6114-.1146.2943.1879.4839.4708.6482.7651.3977.7147.5299 1.4901.4908 2.301z"/><path d="m42.1179 30.7556c-.0161-.4169.0425-.8224.1644-1.2152.1161-.3745.3137-.7032.6367-.9426.4241-.315.531-.2978.7217.1867.5575 1.4087 1.1022 2.8232 1.647 4.2366.0873.2256.1218.4615.1322.7055.0517 1.324.2183 2.6365.4091 3.9468.0609.4192.0184.4742-.3988.4283-.7068-.0767-1.278-.4054-1.717-.962-.1954-.2486-.3471-.5235-.4494-.8201-.6218-1.8062-.9505-3.6719-1.1459-5.564z"/></g><path d="m69.4476 44.1537c-.0931-.1329.039-.3482-.1633-.441-.008-.2016.0656-.3585.2506-.4822.0621.3322.0701.6346-.0873.9232z" fill="#80736a"/><path d="m44.7326 56.2919c0-.047-.0012-.0939.0011-.1409.1127-.1512.2609-.2359.5172-.2508-.1011.2749-.3505.284-.5183.3917z" fill="#282b27"/><path d="m48.2035 46.7627c-.1253.055-.0916.1934-.1491.2851-.039-.0825-.0988-.1615-.1126-.2474-.0161-.0962-.0908-.2554.0644-.2783.1218-.0184.1685.1272.1973.2406z" fill="#8b7f70"/><path d="m71.335 31.2871c.0345-.0068.0676-.0081.1021-.0035-.0127.071.0655.1764-.0759.1993-.0092-.0653-.0184-.1306-.0276-.1959z" fill="#545959"/><path d="m45.3566 31.8895c-.0011.016.0035.0401-.0057.0458-.0149.0103-.0414.0183-.0552.0126-.0597-.0275-.0563-.0596.0069-.0768.015-.0045.0357.0115.054.0184z" fill="#232828"/></g></g></svg>