<svg fill="none" height="93" width="115" xmlns="http://www.w3.org/2000/svg"><clipPath id="a"><rect height="93" rx="10" width="115"/></clipPath><clipPath id="b"><rect height="110.595" rx="10" width="190.496" x="-36.871" y="-.308"/></clipPath><g clip-path="url(#a)"><g clip-path="url(#b)"><path d="M153.625-.308H-36.871v110.581h190.496z" fill="#fff"/><g fill="#c4c1bb"><path d="M86.563 132.857H28.176a.256.256 0 0 1 .126-.241c.34-.173.707-.138 1.068-.138 18.667-.002 37.333-.002 56 0 .36 0 .728-.037 1.067.136a.258.258 0 0 1 .124.243zM10.602 132.857c.004-.775-.121-1.558.13-2.321.354.383.182.861.227 1.299.034.336.006.707.524.657 5-.027 9.999-.008 14.998-.01.289 0 .582-.009.85.135a.243.243 0 0 1 .12.24zM105.721 132.693l.013.164H87.143a.242.242 0 0 1 .121-.239c.267-.144.559-.136.849-.136 5.572-.004 11.145-.006 16.717 0 .121 0 .242.005.361.025.194.013.382.044.53.186z"/></g><path d="m27.451 132.857.003-.112.045-.084c.176-.112.362-.105.554-.049.06.027.1.074.122.136l.003.108h-.726z" fill="#acabab"/><path d="m87.14 132.748.004.108h-.58c0-.035 0-.07.002-.105l.032-.084c.135-.094.281-.095.433-.049a.194.194 0 0 1 .11.13z" fill="#abaaaa"/><path d="m105.721 132.693-.417.005c-.354-.815-.275-1.695-.335-2.546-.071-1.008-.021-2.025-.016-3.037.011-3.085-.201-6.159-.41-9.235-.37-5.434-1.04-10.836-1.589-16.251-.107-1.054-.115-2.12-.144-3.174-.075-2.678-.359-5.335-.646-7.991-.329-3.042-.592-6.093-1.131-9.11-.612-3.426-1.41-6.8-2.731-10.034-1.181-2.892-3.043-5.246-5.635-7.006-2.754-1.872-5.734-3.283-8.865-4.428-2.735-1.001-5.615-1.468-8.357-2.422-.482-.168-.638.096-.813.456-.77 1.594-1.615 3.17-2.994 4.314-3.092 2.565-6.498 4.503-10.693 4.373-2.141-.067-4.206-.658-6.2-1.425-2.646-1.018-5.243-2.133-7.311-4.18a17.027 17.027 0 0 1-2.82-3.655c-.17-.3-.26-.628-.064-.962.102-.146.291-.192.393-.338-.106.107-.249.164-.373.247-1.771.717-3.63 1.225-5.34 2.078-3.87 1.93-7.866 3.603-11.643 5.734-4.518 2.549-7.373 6.358-9.048 11.155-1.07 3.066-1.642 6.242-2.153 9.437-.74 4.618-1.422 9.247-2.254 13.85-.371 2.058-.355 4.176-.686 6.248-.736 4.596-.99 9.244-1.495 13.864-.422 3.847-.214 7.706-.282 11.56-.015.831.005 1.68-.35 2.47-.609.015-.602.015-.604-.519-.002-.546.084-1.091.014-1.638.08-1.951.126-3.904.102-5.858-.039-3.092.229-6.163.59-9.231.295-2.489.473-4.992.754-7.483.233-2.082.547-4.156.809-6.236.12-.956.188-1.919.305-2.875.289-2.344.783-4.656 1.127-6.992.435-2.956.912-5.904 1.415-8.849.581-3.404 1.37-6.748 2.776-9.923 1.813-4.09 4.532-7.368 8.492-9.574 1.752-.975 3.499-1.95 5.33-2.77a89.952 89.952 0 0 0 3.666-1.733c2.987-1.502 6.105-2.66 9.323-3.545.852-.235 1.387-.697 1.769-1.443.46-.9.644-1.86.7-2.854.087-1.526-.128-3.028-.31-4.536-.13-1.064-.543-2.042-.8-3.065-.377-1.5-.543-3.034-.743-4.562-.05-.378-.15-.501-.573-.512-1.02-.024-1.768-.58-2.294-1.428-.307-.495-.474-1.052-.615-1.615-.355-1.402-.665-2.812-.814-4.252a4.639 4.639 0 0 1-.011-1.01c.124-1.045.543-1.627 1.542-2.208-.537-1.232-1.077-2.466-1.611-3.701a12.157 12.157 0 0 1-.985-5.785c.058-.82.227-1.622.449-2.41.412-1.46.883-2.904 1.255-4.372.45-1.774 1.539-2.901 3.257-3.466 2.156-.709 4.29-1.478 6.321-2.5 1.257-.632 2.568-1.097 3.92-1.48 1.502-.428 2.958-.38 4.4.205.627.255 1.26.49 1.875.77 1.603.728 3.3 1.07 5.037 1.266.745.083 1.488.166 2.204.412 1.098.378 1.947 1.047 2.512 2.066.256.464.515.927.777 1.388.34.598.791 1.094 1.388 1.447 2.12 1.254 2.98 3.177 3.048 5.561.068 2.384-.467 4.636-1.383 6.814-.512 1.221-1.102 2.404-1.866 3.496 1.282.628 1.693 1.775 1.76 3 .128 2.298-.432 4.444-1.81 6.334a4.922 4.922 0 0 1-1.139 1.108c-.526.373-1.087.508-1.713.26-.18.08-.18.262-.22.421-.046.187-.072.38-.138.56-.65 1.798-.69 3.674-.734 5.553-.044 1.903-.114 3.807-.167 5.71-.028 1.033.244 2.007.66 2.938.6 1.34 1.665 2.183 3.055 2.576 2.088.592 4.16 1.232 6.272 1.757 4.592 1.142 8.953 2.89 12.933 5.499 3.206 2.102 5.41 4.971 6.697 8.565a54.139 54.139 0 0 1 2.638 10.786 218.611 218.611 0 0 1 1.486 13.796c.145 1.897.199 3.801.356 5.699.189 2.306.462 4.604.668 6.908.194 2.136.466 4.264.645 6.402.442 5.265.659 10.539.623 15.824-.003.434-.014.868-.022 1.302z" fill="#010101"/><path d="M11.32 132.692c.255-3.102.146-6.211.159-9.317.008-2.046.179-4.08.408-6.111.134-1.194.192-2.395.332-3.588.14-1.192.184-2.392.38-3.58.098-.591.113-1.198.15-1.794.082-1.277.404-2.512.535-3.779.104-1.002.293-1.999.35-3.003.118-2.02.413-4.008.802-5.99.326-1.671.618-3.35.841-5.042.261-1.973.64-3.932.931-5.902.255-1.735.546-3.463.94-5.172.61-2.658 1.399-5.257 2.707-7.67 1.003-1.852 2.186-3.58 3.748-5.018 1.175-1.084 2.506-1.956 3.88-2.77 2.35-1.396 4.818-2.558 7.31-3.671.949-.424 1.867-.913 2.797-1.378 2.142-1.072 4.391-1.88 6.652-2.657.162-.057.32-.106.493-.1.045.032.06.064.043.095-.014.03-.03.047-.045.047-.243.357-.125.693.072 1.015.539.885 1.117 1.744 1.8 2.528 1.814 2.083 4.07 3.5 6.62 4.533 1.932.782 3.894 1.406 5.936 1.826 2.23.46 4.376.22 6.466-.572 1.836-.697 3.525-1.688 5.105-2.854 1.146-.846 2.017-1.934 2.75-3.135.45-.74.916-1.479 1.168-2.316.083-.276.206-.257.422-.187.918.3 1.821.684 2.764.855 2.295.415 4.479 1.188 6.66 1.958 3.274 1.156 6.36 2.709 9.126 4.819 2.315 1.767 3.94 4.074 4.997 6.783 1.132 2.903 1.898 5.905 2.464 8.96a74.61 74.61 0 0 1 .895 6.563c.143 1.505.38 3 .537 4.504.135 1.313.204 2.635.324 3.95.178 1.965.21 3.936.304 5.905.054 1.124.257 2.239.377 3.359.12 1.123.214 2.249.33 3.371.121 1.169.252 2.339.385 3.507.066.573.126 1.15.162 1.72.093 1.464.27 2.92.352 4.385.1 1.8.187 3.602.302 5.4.092 1.445.105 2.887.103 4.33-.003 1.736.08 3.466.151 5.198-5.09.004-10.18.007-15.27.015-.965.001-1.929.023-2.892.035l.005-.062c-.323-.607-.063-1.229-.022-1.836.134-2.071.108-4.138.005-6.211-.091-1.872-.28-3.736-.121-5.628.158-1.891.113-3.801-.03-5.706a26.9 26.9 0 0 1 .536-7.839c.919-4.156 1.31-8.38 1.84-12.588.128-1.027.078-2.068.13-3.103.085-1.732.234-3.458.35-5.189-.585 5.184-.76 10.406-1.48 15.578-.26 1.865-.743 3.686-1.094 5.534-.302 1.591-.491 3.187-.479 4.811.023 2.821.078 5.645-.014 8.463-.094 2.872.188 5.721.274 8.582.047 1.583-.099 3.175-.29 4.756a.627.627 0 0 1-.19.382l.005.061c-.29-.014-.578-.038-.868-.038-18.885-.002-37.77-.002-56.655 0-.29 0-.579.023-.868.036l.004-.062c-.214-.26-.114-.553-.075-.834.717-5.132 1.472-10.268 1.815-15.436.243-3.66.807-7.281 1.061-10.932.166-2.388-.065-4.767-.328-7.141-.435-3.925-1-7.833-1.571-11.74.609 4.315 1.11 8.643 1.6 12.972.413 3.652.117 7.266-.445 10.874-.331 2.124-.397 4.268-.54 6.406-.134 1.997-.424 3.979-.703 5.959-.42 2.984-.633 5.994-1.16 8.965-.058.332-.062.68-.382.899l.001.065c-.288-.012-.576-.032-.864-.033-4.825-.003-9.649 0-14.473-.003-.266 0-.53-.012-.796-.019z" fill="#040404"/><path d="M27.45 132.681c.194-1.233.397-2.465.575-3.7.216-1.497.317-3.007.543-4.504.196-1.306.322-2.622.485-3.933.124-1 .272-1.999.384-3 .098-.884.118-1.779.152-2.664.07-1.831.322-3.635.576-5.444.373-2.648.659-5.311.446-7.985-.133-1.673-.287-3.348-.52-5.014-.252-1.807-.406-3.627-.626-5.44-.156-1.285-.364-2.566-.517-3.852-.053-.448-.008-.906-.008-1.433.369.352.316.787.376 1.153.31 1.92.595 3.843.862 5.77.181 1.307.293 2.626.484 3.932.25 1.714.4 3.438.522 5.16.103 1.459.109 2.932-.06 4.402-.124 1.073-.2 2.153-.334 3.226-.125 1.001-.266 2-.374 3.002-.088.812-.18 1.627-.191 2.443-.025 1.711-.22 3.404-.415 5.1-.153 1.337-.28 2.676-.472 4.008-.324 2.234-.475 4.488-.837 6.718-.112.686-.229 1.373-.324 2.063-.243.036-.485.04-.728-.007zM86.56 132.691c.088-1.366.18-2.733.26-4.099.022-.385.035-.773.006-1.156-.126-1.726-.172-3.459-.304-5.182-.067-.873.024-1.724.025-2.585.005-2.99.023-5.979-.008-8.967-.02-1.985.259-3.929.653-5.863.307-1.505.655-3.004.91-4.517.18-1.063.227-2.149.346-3.223.112-1.002.245-2.001.359-3.003.081-.716.209-1.433.205-2.149-.008-1.326.11-2.646.189-3.965.071-1.196.27-2.385.446-3.571.038-.253.055-.58.39-.728 0 .57.064 1.114-.012 1.637-.246 1.693-.212 3.404-.383 5.102-.046.453-.022.915-.024 1.373-.007 1.278-.213 2.534-.384 3.795-.13.952-.264 1.905-.326 2.861-.113 1.709-.452 3.379-.788 5.05-.387 1.931-.751 3.859-.874 5.836-.077 1.229-.152 2.46-.062 3.677.132 1.784.06 3.562.102 5.343.013.535-.116 1.052-.129 1.581-.039 1.686.159 3.36.23 5.04.084 1.969.161 3.946-.064 5.918-.068.596-.104 1.196-.18 1.793l-.584.004z" fill="#010101"/><path d="M70.978 28.742c-.025 2.748-.116 5.493-.38 8.23-.182 1.907-.765 3.72-1.39 5.519-.324.932-.671 1.858-1.104 2.747-1.565 3.207-4.057 5.2-7.616 5.837-2.672.479-5.192.124-7.569-1.206a21.821 21.821 0 0 1-2.26-1.44c-1.987-1.454-3.198-3.37-3.593-5.808-.552-3.401-1.146-6.799-1.257-10.252-.108-3.393.267-6.724 1.237-9.997.653-2.204 2.02-3.48 4.285-3.868 2.503-.43 5.006-.83 7.554-.895 1.404-.035 2.778-.36 4.16-.596 1.05-.181 2.104-.265 3.175-.114 1.741.248 2.949 1.151 3.56 2.793.482 1.29.788 2.63.952 3.998.201 1.678.284 3.362.246 5.052z" fill="#fff"/><path d="M71.335 31.287c-.038-1.01.214-2.008.122-3.02-.131-1.457-.143-2.92-.262-4.38a17.935 17.935 0 0 0-.948-4.419c-.534-1.545-1.624-2.546-3.21-2.95-1.108-.283-2.247-.248-3.374-.056-1.397.238-2.787.518-4.188.732-.52.079-1.064.051-1.594.022-1.334-.075-2.645.145-3.954.327-1.045.146-2.097.277-3.122.549-.609.161-1.185.407-1.754.67-.955.444-1.54 1.253-1.939 2.161-.694 1.59-1.082 3.274-1.375 4.984-.305 1.78-.43 3.57-.426 5.373 0 .088.027.185-.094.3-.299-.45-.422-.97-.587-1.449-.705-2.027-1.654-3.948-2.492-5.916-.815-1.915-1.184-3.91-1.02-5.982.069-.886.342-1.74.59-2.592.421-1.454.884-2.896 1.292-4.352.35-1.255 1.23-1.991 2.369-2.447 1.186-.474 2.405-.863 3.603-1.309.995-.37 1.976-.778 2.921-1.261 1.576-.805 3.228-1.417 4.97-1.726 1.08-.191 2.16-.099 3.196.339 1.199.507 2.386 1.048 3.63 1.437 1.06.333 2.15.504 3.252.635.975.116 1.96.21 2.863.678.799.415 1.414.983 1.81 1.791.168.346.365.68.536 1.025.501 1.019 1.416 1.615 2.295 2.25 1.22.884 1.873 2.091 2.107 3.562.087.548.135 1.092.138 1.647.01 2.153-.565 4.169-1.389 6.135-.579 1.381-1.349 2.648-2.135 3.922-.65 1.054-1.332 2.12-1.728 3.318l-.049.047-.053-.044z" fill="#1f120c"/><g fill="#fff"><path d="M48.203 46.763c1.923 2.32 4.363 3.856 7.258 4.652 2.563.704 5.092.39 7.545-.512 1.673-.615 2.997-1.737 4.093-3.13.965-1.227 1.62-2.62 2.184-4.06.358.035.17.271.163.44-.088 2.096-.194 4.19-.258 6.287a7.273 7.273 0 0 0 .813 3.631c.582 1.117 1.488 1.882 2.645 2.364.133.056.27.1.408.149 1.226.428 1.216.423.61 1.617-1.156 2.283-2.822 4.068-5.092 5.288-1.319.71-2.619 1.451-4.063 1.893-2.129.653-4.238.493-6.373-.012-2.369-.56-4.622-1.426-6.787-2.494-2.578-1.27-4.56-3.228-6.036-5.686-.32-.534-.317-.556.237-.874 1.724-.987 2.497-2.524 2.704-4.442.176-1.625-.02-3.223-.202-4.827-.04-.141-.131-.31.15-.285zM75.105 31.52c-.033 1.36-.292 2.672-.872 3.91-.425.91-1.015 1.69-1.87 2.245-.288.186-.588.339-.948.28-.266-.043-.462-.164-.404-.479.287-1.563.027-3.171.433-4.73.393-1.51 1.062-2.88 1.91-4.177.175-.267.376-.265.612-.114.294.188.483.47.648.765.397.714.53 1.49.49 2.3zM42.118 30.756a3.607 3.607 0 0 1 .164-1.216c.116-.374.314-.703.637-.942.424-.315.531-.298.722.187.557 1.408 1.102 2.823 1.647 4.236.087.226.121.462.132.706.052 1.324.218 2.636.409 3.946.06.42.018.475-.399.429-.707-.077-1.278-.406-1.717-.962a2.804 2.804 0 0 1-.45-.82c-.621-1.807-.95-3.672-1.145-5.564z"/></g><path d="M69.448 44.154c-.093-.133.039-.349-.164-.441a.514.514 0 0 1 .25-.483c.063.333.071.635-.086.924z" fill="#80736a"/><path d="M44.733 56.292c0-.047-.002-.094 0-.141.113-.151.262-.236.518-.25-.101.274-.35.283-.518.39z" fill="#282b27"/><path d="M48.203 46.763c-.125.055-.091.193-.149.285-.039-.083-.098-.162-.112-.248-.016-.096-.091-.255.064-.278.122-.018.169.127.197.24z" fill="#8b7f70"/><path d="M71.335 31.287a.307.307 0 0 1 .102-.003c-.013.07.066.176-.076.199l-.027-.196z" fill="#545959"/><path d="M45.357 31.89c-.001.016.003.04-.006.045-.015.01-.041.019-.055.013-.06-.028-.057-.06.007-.077.015-.004.035.012.054.019z" fill="#232828"/></g></g></svg>