<svg width="115" height="93" viewBox="0 0 115 93" fill="none" xmlns="http://www.w3.org/2000/svg">
<g clip-path="url(#clip0_752_4592)">
<g clip-path="url(#clip1_752_4592)">
<path d="M153.625 -0.308105H-36.8711V110.273H153.625V-0.308105Z" fill="white"/>
<path d="M86.5625 132.857H28.1769C28.1723 132.753 28.2148 132.673 28.3033 132.616C28.6424 132.443 29.0101 132.478 29.371 132.478C48.038 132.476 66.7038 132.476 85.3707 132.478C85.7304 132.478 86.0994 132.441 86.4384 132.614C86.5269 132.672 86.5671 132.753 86.5625 132.857Z" fill="#C4C1BB"/>
<path d="M10.6025 132.857C10.606 132.082 10.4807 131.299 10.7312 130.536C11.0864 130.919 10.914 131.397 10.9588 131.835C10.9933 132.171 10.9646 132.542 11.4829 132.492C16.4835 132.465 21.4818 132.484 26.4813 132.482C26.7697 132.482 27.0628 132.473 27.3306 132.617C27.4191 132.673 27.4593 132.753 27.4513 132.857H10.6025Z" fill="#C4C1BB"/>
<path d="M105.721 132.693C105.726 132.748 105.729 132.802 105.734 132.857H87.1425C87.1344 132.753 87.1758 132.673 87.2643 132.618C87.531 132.474 87.8229 132.482 88.1125 132.482C93.6854 132.478 99.2584 132.476 104.83 132.482C104.951 132.482 105.072 132.487 105.191 132.507C105.385 132.52 105.573 132.551 105.721 132.693Z" fill="#C4C1BB"/>
<path d="M27.4513 132.857C27.4513 132.82 27.4532 132.783 27.4544 132.745C27.4693 132.717 27.4842 132.689 27.4992 132.661C27.675 132.549 27.8612 132.556 28.0531 132.612C28.1129 132.639 28.1531 132.686 28.175 132.748C28.1773 132.784 28.1784 132.82 28.1784 132.856H27.4521L27.4513 132.857Z" fill="#ACABAB"/>
<path d="M87.1401 132.748C87.1424 132.784 87.1424 132.821 87.1436 132.856H86.5632C86.5632 132.821 86.5632 132.786 86.5655 132.751C86.5758 132.723 86.5873 132.695 86.5977 132.667C86.7333 132.573 86.8792 132.572 87.031 132.618C87.0884 132.644 87.1229 132.689 87.1401 132.748Z" fill="#ABAAAA"/>
<path d="M105.721 132.693C105.582 132.695 105.443 132.697 105.304 132.698C104.95 131.883 105.029 131.003 104.969 130.152C104.898 129.144 104.948 128.127 104.953 127.115C104.964 124.03 104.752 120.956 104.543 117.88C104.173 112.446 103.503 107.044 102.954 101.629C102.847 100.575 102.839 99.5098 102.81 98.455C102.735 95.7772 102.451 93.12 102.164 90.464C101.835 87.422 101.572 84.3709 101.033 81.3541C100.421 77.9284 99.6225 74.5531 98.302 71.3198C97.1205 68.4279 95.2587 66.0742 92.667 64.3138C89.9133 62.4424 86.9331 61.0313 83.8024 59.886C81.0671 58.885 78.1869 58.4177 75.4447 57.4636C74.9632 57.2964 74.8068 57.5598 74.6322 57.9195C73.8621 59.5138 73.0174 61.0909 71.6382 62.2339C68.5455 64.7995 65.1401 66.7374 60.9451 66.6068C58.804 66.5404 56.7387 65.9494 54.7458 65.182C52.099 64.1638 49.5016 63.0494 47.434 61.0027C46.326 59.9055 45.3859 58.6937 44.6147 57.3468C44.4435 57.0467 44.3538 56.7192 44.5504 56.3847C44.6515 56.2393 44.8411 56.1934 44.9434 56.0468C44.8365 56.1545 44.694 56.2106 44.5699 56.2942C42.7988 57.0112 40.9404 57.5186 39.2303 58.3719C35.3594 60.3029 31.3644 61.9751 27.5867 64.1065C23.0688 66.6549 20.2139 70.4643 18.5394 75.2609C17.4694 78.327 16.8971 81.503 16.3856 84.6984C15.6466 89.3164 14.9639 93.9447 14.1318 98.5489C13.7606 100.606 13.7767 102.724 13.4457 104.796C12.7102 109.392 12.4562 114.04 11.9505 118.66C11.5287 122.507 11.7367 126.366 11.6689 130.22C11.6539 131.051 11.6735 131.9 11.3184 132.69C10.7104 132.705 10.7173 132.705 10.715 132.171C10.7127 131.625 10.7989 131.08 10.7288 130.533C10.8081 128.582 10.8552 126.629 10.831 124.675C10.792 121.583 11.0598 118.512 11.4218 115.444C11.716 112.955 11.8941 110.452 12.1746 107.961C12.4079 105.879 12.7216 103.805 12.9837 101.725C13.1044 100.769 13.1722 99.8065 13.2894 98.8501C13.5779 96.5056 14.0721 94.1944 14.4157 91.8579C14.8513 88.9018 15.3283 85.9537 15.8305 83.0091C16.412 79.6051 17.2005 76.2608 18.6072 73.0859C20.4197 68.996 23.1389 65.718 27.0994 63.5121C28.8509 62.5374 30.5979 61.5616 32.4298 60.7416C33.663 60.1895 34.8882 59.6157 36.095 59.0087C39.082 57.5071 42.2001 56.3492 45.4181 55.4639C46.2697 55.2291 46.8053 54.7675 47.1869 54.0208C47.6477 53.1205 47.8305 52.1619 47.8868 51.1666C47.9741 49.641 47.7592 48.1395 47.5765 46.6311C47.4466 45.5671 47.034 44.589 46.7766 43.5662C46.3996 42.0669 46.2341 40.5322 46.0341 39.0043C45.9847 38.6264 45.8847 38.5027 45.4606 38.4924C44.4412 38.4683 43.693 37.9117 43.1666 37.0641C42.8597 36.5694 42.6931 36.0116 42.5517 35.4492C42.1966 34.0473 41.8874 32.6374 41.738 31.1966C41.7036 30.8633 41.6875 30.5197 41.7265 30.1876C41.8507 29.1419 42.2702 28.5601 43.2689 27.9794C42.7322 26.747 42.192 25.5135 41.6576 24.2777C40.8565 22.4303 40.529 20.5015 40.6726 18.4926C40.7312 17.6725 40.9002 16.8708 41.122 16.0828C41.5335 14.6237 42.0047 13.1794 42.377 11.7111C42.8264 9.93699 43.916 8.80998 45.6342 8.24533C47.7902 7.53638 49.9245 6.76671 51.9553 5.74508C53.2115 5.11286 54.5229 4.64785 55.8744 4.26417C57.3766 3.83696 58.8327 3.88506 60.2751 4.47033C60.9015 4.72459 61.5347 4.96053 62.1496 5.23999C63.7529 5.96842 65.4504 6.31087 67.187 6.50558C67.9317 6.58919 68.6753 6.67165 69.3913 6.9179C70.4889 7.29586 71.3383 7.96473 71.9026 8.98407C72.1589 9.44793 72.4175 9.91065 72.6795 10.3722C73.0197 10.9701 73.4714 11.466 74.0679 11.8188C76.1872 13.0729 77.048 14.9959 77.1158 17.3805C77.1836 19.7639 76.6492 22.0156 75.7332 24.1941C75.2206 25.415 74.631 26.5981 73.8667 27.6896C75.1493 28.3184 75.5596 29.4649 75.6274 30.6904C75.755 32.9879 75.1953 35.1343 73.8162 37.0241C73.5012 37.4558 73.1151 37.8212 72.6783 38.1316C72.152 38.505 71.5911 38.6401 70.9647 38.3916C70.7854 38.4729 70.7843 38.6539 70.7452 38.8131C70.6992 38.9997 70.6728 39.1933 70.6073 39.3731C69.9568 41.1713 69.9166 43.0473 69.8729 44.9257C69.8292 46.8292 69.7591 48.7328 69.7063 50.6363C69.6775 51.6694 69.9499 52.6429 70.366 53.5741C70.9659 54.9141 72.0313 55.7571 73.4208 56.1499C75.5091 56.7421 77.5801 57.3823 79.6925 57.9069C84.2851 59.0488 88.6456 60.7965 92.6256 63.4056C95.8322 65.5084 98.0354 68.3775 99.3226 71.9715C100.579 75.4762 101.445 79.076 101.961 82.7571C102.604 87.3396 103.096 91.9392 103.447 96.5526C103.592 98.4504 103.646 100.354 103.803 102.252C103.992 104.558 104.265 106.856 104.471 109.16C104.665 111.296 104.937 113.424 105.116 115.562C105.558 120.827 105.775 126.101 105.739 131.386C105.736 131.82 105.725 132.254 105.717 132.688L105.721 132.693Z" fill="#010101"/>
<path d="M11.3201 132.692C11.5753 129.59 11.4661 126.481 11.4787 123.375C11.4868 121.329 11.658 119.295 11.8867 117.264C12.0212 116.07 12.0787 114.869 12.2189 113.676C12.3591 112.484 12.4028 111.284 12.5993 110.096C12.697 109.505 12.7119 108.898 12.7498 108.302C12.8314 107.025 13.1532 105.79 13.2843 104.523C13.3877 103.521 13.5773 102.524 13.6348 101.52C13.752 99.5006 14.0474 97.5123 14.4359 95.5298C14.7623 93.8587 15.0542 92.1797 15.2772 90.488C15.538 88.5146 15.9173 86.5561 16.2081 84.5861C16.4632 82.8509 16.754 81.1226 17.1471 79.4138C17.7573 76.7555 18.5469 74.1567 19.8548 71.7435C20.8582 69.8915 22.0408 68.1644 23.6027 66.7258C24.7784 65.6424 26.1093 64.7696 27.4827 63.9553C29.833 62.5603 32.3006 61.3978 34.7934 60.2845C35.7416 59.8607 36.6599 59.3717 37.5897 58.9067C39.732 57.8346 41.9812 57.0272 44.2418 56.2495C44.4039 56.1934 44.5625 56.1441 44.7349 56.1499C44.7797 56.1819 44.7946 56.214 44.7785 56.2449C44.7636 56.2758 44.7475 56.2919 44.7326 56.2919C44.4901 56.6492 44.6085 56.9848 44.805 57.3066C45.344 58.192 45.9221 59.051 46.6059 59.8355C48.4195 61.9177 50.6756 63.3357 53.2259 64.3676C55.1567 65.1499 57.1186 65.7741 59.1609 66.1944C61.3905 66.6537 63.5374 66.4132 65.6269 65.6217C67.4634 64.9254 69.1518 63.9335 70.7321 62.7676C71.8779 61.9223 72.7491 60.8343 73.4812 59.6328C73.9317 58.8929 74.3983 58.1542 74.65 57.317C74.7328 57.0409 74.8557 57.0604 75.0718 57.1303C75.9901 57.4292 76.8935 57.814 77.8359 57.9847C80.131 58.4004 82.3147 59.1735 84.4961 59.9432C87.7704 61.0988 90.8563 62.6519 93.6215 64.7616C95.9374 66.5288 97.5613 68.8355 98.6187 71.5454C99.7507 74.4477 100.517 77.4496 101.083 80.5053C101.485 82.678 101.77 84.8667 101.978 87.0681C102.121 88.573 102.358 90.0677 102.515 91.5715C102.65 92.8852 102.719 94.2069 102.839 95.5217C103.017 97.4871 103.049 99.4582 103.143 101.427C103.197 102.551 103.4 103.666 103.52 104.786C103.64 105.909 103.734 107.035 103.85 108.157C103.971 109.326 104.102 110.496 104.235 111.664C104.301 112.237 104.361 112.814 104.397 113.384C104.49 114.848 104.667 116.304 104.749 117.769C104.849 119.569 104.936 121.371 105.051 123.169C105.143 124.614 105.156 126.056 105.154 127.499C105.151 129.235 105.234 130.965 105.305 132.697C100.215 132.701 95.1248 132.704 90.0346 132.712C89.0703 132.713 88.106 132.735 87.1429 132.747L87.1475 132.685C86.8246 132.078 87.0854 131.456 87.1257 130.849C87.2601 128.778 87.2337 126.711 87.1314 124.638C87.0395 122.766 86.851 120.902 87.0096 119.01C87.1682 117.119 87.1234 115.209 86.9809 113.304C86.782 110.67 86.9487 108.036 87.5164 105.465C88.4347 101.309 88.8266 97.0851 89.3553 92.8772C89.484 91.8498 89.4335 90.8087 89.4852 89.7745C89.5714 88.0416 89.7196 86.3156 89.8369 84.585C89.2507 89.7687 89.076 94.9914 88.3566 100.163C88.0968 102.028 87.613 103.849 87.2624 105.697C86.9602 107.288 86.7705 108.884 86.7832 110.508C86.8062 113.329 86.8613 116.153 86.7694 118.971C86.6751 121.843 86.9567 124.692 87.0429 127.553C87.09 129.136 86.9441 130.728 86.7522 132.309C86.7349 132.455 86.6717 132.586 86.5637 132.691L86.5683 132.752C86.2786 132.738 85.9902 132.714 85.7005 132.714C66.8152 132.712 47.9299 132.712 29.0446 132.714C28.755 132.714 28.4665 132.737 28.1769 132.75L28.1815 132.688C27.9666 132.428 28.0666 132.135 28.1056 131.854C28.8228 126.722 29.5779 121.586 29.9215 116.418C30.164 112.758 30.7284 109.137 30.9823 105.486C31.1478 103.098 30.9168 100.719 30.6536 98.345C30.2192 94.4199 29.6549 90.5121 29.0826 86.6053C29.6917 90.9198 30.1939 95.248 30.6835 99.5773C31.0961 103.229 30.7996 106.843 30.2376 110.451C29.9066 112.575 29.8411 114.719 29.6974 116.857C29.5641 118.854 29.2745 120.836 28.9952 122.816C28.5746 125.8 28.3619 128.81 27.8356 131.781C27.7769 132.113 27.7735 132.461 27.4528 132.68L27.4544 132.745C27.1659 132.733 26.8782 132.713 26.5897 132.712C21.765 132.709 16.9413 132.712 12.1166 132.709C11.8511 132.709 11.5868 132.697 11.3213 132.69L11.3201 132.692Z" fill="#040404"/>
<path d="M27.4505 132.681C27.6436 131.448 27.8471 130.216 28.0252 128.981C28.2413 127.484 28.3424 125.974 28.5677 124.477C28.7642 123.171 28.8895 121.855 29.0527 120.544C29.1768 119.544 29.3251 118.545 29.4365 117.544C29.5354 116.66 29.5549 115.765 29.5894 114.88C29.6595 113.049 29.9112 111.245 30.1652 109.436C30.5376 106.788 30.8237 104.125 30.6111 101.451C30.4778 99.7778 30.3238 98.1033 30.0916 96.4369C29.8388 94.6295 29.6848 92.8096 29.4653 90.9977C29.309 89.7115 29.1009 88.431 28.9481 87.1448C28.8952 86.697 28.94 86.2388 28.94 85.712C29.309 86.0636 29.2561 86.4988 29.3159 86.8653C29.6262 88.7849 29.9112 90.7079 30.1778 92.6344C30.3594 93.9423 30.4709 95.2606 30.6617 96.5674C30.9122 98.2808 31.0616 100.005 31.1835 101.727C31.2869 103.186 31.2927 104.659 31.1237 106.129C30.9996 107.202 30.9237 108.282 30.7904 109.355C30.6651 110.356 30.5238 111.355 30.4157 112.357C30.3284 113.169 30.2365 113.984 30.225 114.8C30.1997 116.511 30.0043 118.204 29.8101 119.9C29.6572 121.237 29.5308 122.576 29.3377 123.908C29.0136 126.142 28.863 128.396 28.501 130.626C28.3895 131.312 28.2723 131.999 28.1769 132.689C27.9344 132.725 27.6919 132.729 27.4494 132.682L27.4505 132.681Z" fill="#010101"/>
<path d="M86.5609 132.691C86.6482 131.325 86.7402 129.958 86.8195 128.592C86.8424 128.207 86.8551 127.819 86.8263 127.436C86.6999 125.71 86.654 123.977 86.5218 122.254C86.4551 121.381 86.5459 120.53 86.5471 119.669C86.5517 116.679 86.5701 113.69 86.539 110.702C86.5183 108.717 86.7976 106.773 87.1918 104.839C87.4987 103.334 87.8469 101.835 88.1021 100.322C88.2814 99.2589 88.3285 98.1731 88.448 97.0988C88.5595 96.0966 88.6928 95.0979 88.8066 94.0957C88.8882 93.3799 89.0158 92.6629 89.0123 91.9471C89.0043 90.6208 89.1227 89.3014 89.2008 87.982C89.2721 86.7862 89.4709 85.5974 89.6467 84.4108C89.6847 84.1577 89.7019 83.8301 90.0363 83.6835C90.0363 84.2528 90.1007 84.7968 90.0248 85.3202C89.7789 87.013 89.8134 88.7241 89.6421 90.4215C89.5962 90.8751 89.6203 91.3366 89.618 91.7948C89.6111 93.0729 89.4054 94.3294 89.2341 95.5904C89.1043 96.5422 88.9698 97.4951 88.9077 98.4514C88.7951 100.16 88.4561 101.83 88.1205 103.501C87.7331 105.432 87.3688 107.36 87.2458 109.337C87.1688 110.566 87.0941 111.797 87.1838 113.014C87.3159 114.798 87.2447 116.576 87.2861 118.357C87.2987 118.892 87.17 119.409 87.1573 119.938C87.1183 121.624 87.3159 123.298 87.3872 124.978C87.4711 126.947 87.5481 128.924 87.3228 130.896C87.255 131.492 87.2194 132.092 87.1424 132.689C86.9482 132.69 86.7528 132.692 86.5586 132.693L86.5609 132.691Z" fill="#010101"/>
<path d="M70.978 28.7421C70.9527 31.4897 70.8619 34.2351 70.5987 36.9713C70.416 38.8794 69.8333 40.6925 69.2081 42.4907C68.884 43.4229 68.5369 44.3495 68.1036 45.2383C66.5394 48.4452 64.0466 50.4381 60.4883 51.0749C57.8162 51.5536 55.2958 51.1986 52.919 49.8689C52.1375 49.4314 51.3824 48.9595 50.6595 48.4292C48.6724 46.9746 47.461 45.0596 47.0657 42.6212C46.514 39.2196 45.9198 35.8225 45.8095 32.3694C45.7014 28.9757 46.0761 25.6451 47.0461 22.3718C47.6989 20.1682 49.0666 18.8923 51.3307 18.504C53.8339 18.0745 56.3371 17.6748 58.8851 17.6095C60.2895 17.574 61.6629 17.2499 63.0444 17.0128C64.0948 16.8318 65.1488 16.7482 66.2199 16.8994C67.9611 17.1468 69.169 18.0504 69.7804 19.6917C70.262 20.9825 70.5677 22.3214 70.7321 23.69C70.9332 25.368 71.0159 27.0516 70.978 28.7421Z" fill="white"/>
<path d="M71.335 31.2871C71.2971 30.277 71.5488 29.2794 71.4569 28.2669C71.3259 26.81 71.3144 25.3463 71.1948 23.8872C71.0707 22.3639 70.7409 20.9001 70.2467 19.4685C69.7134 17.9234 68.6227 16.9224 67.0378 16.5181C65.9287 16.2352 64.7898 16.2696 63.6635 16.462C62.2659 16.7002 60.8764 16.9797 59.4754 17.1938C58.9548 17.2729 58.4112 17.2454 57.8813 17.2156C56.547 17.1412 55.2356 17.3611 53.9266 17.5432C52.8819 17.6886 51.8303 17.8203 50.8051 18.0918C50.196 18.2533 49.6202 18.4995 49.0513 18.7629C48.0962 19.2062 47.5101 20.0148 47.1124 20.923C46.4182 22.5128 46.0298 24.1975 45.7367 25.9075C45.4321 27.6874 45.3068 29.4775 45.3114 31.2803C45.3114 31.3685 45.3379 31.4647 45.2172 31.5803C44.9184 31.1291 44.7954 30.6091 44.6299 30.1315C43.9254 28.1043 42.9761 26.1835 42.1382 24.2147C41.3234 22.2997 40.9544 20.3057 41.1176 18.2327C41.1866 17.3473 41.4601 16.4929 41.7072 15.6408C42.129 14.1874 42.5922 12.7454 43.0002 11.2885C43.3507 10.0344 44.2299 9.29794 45.3689 8.8421C46.555 8.36793 47.7744 7.97852 48.972 7.53298C49.9673 7.16304 50.9476 6.7553 51.8935 6.27197C53.4692 5.46681 55.1207 4.8552 56.8631 4.54596C57.9423 4.35469 59.0238 4.44746 60.0593 4.88498C61.258 5.39236 62.4452 5.93296 63.6899 6.32237C64.7484 6.65451 65.8391 6.82631 66.9413 6.95688C67.9159 7.07256 68.9008 7.16648 69.8042 7.63492C70.6029 8.04953 71.2178 8.61761 71.6132 9.42621C71.7821 9.7721 71.9787 10.1054 72.1499 10.4513C72.651 11.4695 73.5658 12.0662 74.4451 12.7019C75.6645 13.5849 76.3184 14.7921 76.5517 16.2627C76.6391 16.8113 76.6873 17.3553 76.6896 17.9097C76.7 20.0629 76.1253 22.0787 75.3013 24.0452C74.722 25.4265 73.952 26.6932 73.1659 27.9668C72.5154 29.0205 71.8338 30.0868 71.4385 31.2848L71.3891 31.3318L71.3362 31.2883L71.335 31.2871Z" fill="#1F120C"/>
<path d="M48.2035 46.7627C50.1262 49.0832 52.5662 50.6191 55.4613 51.4151C58.0242 52.1194 60.5527 51.8045 63.0065 50.9031C64.6787 50.2881 66.0027 49.1656 67.0991 47.7729C68.0645 46.5463 68.7185 45.1535 69.2828 43.7127C69.6414 43.7482 69.4529 43.9842 69.446 44.1537C69.3575 46.2485 69.2518 48.3433 69.1885 50.4404C69.1495 51.7117 69.4092 52.9349 70.0011 54.0711C70.5826 55.1878 71.4894 55.9529 72.6456 56.435C72.779 56.4912 72.9169 56.5358 73.0536 56.5839C74.2799 57.0123 74.2696 57.0066 73.6639 58.2011C72.5077 60.4838 70.8424 62.2694 68.5725 63.4891C67.2531 64.1981 65.9533 64.9403 64.5086 65.3824C62.3801 66.0352 60.2711 65.8749 58.1357 65.3698C55.767 64.8097 53.5144 63.9438 51.3491 62.8764C48.7712 61.6051 46.7898 59.6477 45.313 57.1898C44.9923 56.6561 44.9958 56.6343 45.5497 56.3159C47.2737 55.3287 48.0472 53.7916 48.254 51.8743C48.4299 50.2491 48.2333 48.6514 48.0518 47.0468C48.0127 46.9059 47.9207 46.7364 48.2012 46.7616L48.2035 46.7627Z" fill="white"/>
<path d="M75.1045 31.5207C75.0723 32.8802 74.8126 34.1916 74.2333 35.4297C73.8081 36.3391 73.2185 37.1191 72.3623 37.6746C72.0749 37.8612 71.775 38.0136 71.4152 37.9552C71.1486 37.9116 70.9532 37.7914 71.0107 37.4764C71.298 35.913 71.0383 34.305 71.444 32.7462C71.837 31.2367 72.5059 29.8668 73.3541 28.5692C73.5288 28.3023 73.7299 28.3035 73.9655 28.4546C74.2598 28.6425 74.4494 28.9254 74.6137 29.2197C75.0114 29.9344 75.1436 30.7098 75.1045 31.5207Z" fill="white"/>
<path d="M42.1179 30.7556C42.1018 30.3387 42.1604 29.9332 42.2823 29.5404C42.3984 29.1659 42.596 28.8372 42.919 28.5978C43.3431 28.2828 43.45 28.3 43.6407 28.7845C44.1982 30.1932 44.7429 31.6077 45.2877 33.0211C45.375 33.2467 45.4095 33.4826 45.4199 33.7266C45.4716 35.0506 45.6382 36.3631 45.829 37.6734C45.8899 38.0926 45.8474 38.1476 45.4302 38.1017C44.7234 38.025 44.1522 37.6963 43.7132 37.1397C43.5178 36.8911 43.3661 36.6162 43.2638 36.3196C42.642 34.5134 42.3133 32.6477 42.1179 30.7556Z" fill="white"/>
<path d="M69.4476 44.1537C69.3545 44.0208 69.4866 43.8055 69.2843 43.7127C69.2763 43.5111 69.3499 43.3542 69.5349 43.2305C69.597 43.5627 69.605 43.8651 69.4476 44.1537Z" fill="#80736A"/>
<path d="M44.7326 56.2919C44.7326 56.2449 44.7314 56.198 44.7337 56.151C44.8464 55.9998 44.9946 55.9151 45.2509 55.9002C45.1498 56.1751 44.9004 56.1842 44.7326 56.2919Z" fill="#282B27"/>
<path d="M48.2035 46.7627C48.0782 46.8177 48.1119 46.9561 48.0544 47.0478C48.0154 46.9653 47.9556 46.8863 47.9418 46.8004C47.9257 46.7042 47.851 46.545 48.0062 46.5221C48.128 46.5037 48.1747 46.6493 48.2035 46.7627Z" fill="#8B7F70"/>
<path d="M71.335 31.2871C71.3695 31.2803 71.4026 31.279 71.4371 31.2836C71.4244 31.3546 71.5026 31.46 71.3612 31.4829C71.352 31.4176 71.3428 31.3523 71.3336 31.287L71.335 31.2871Z" fill="#545959"/>
<path d="M45.3566 31.8895C45.3555 31.9055 45.3601 31.9296 45.3509 31.9353C45.336 31.9456 45.3095 31.9536 45.2957 31.9479C45.236 31.9204 45.2394 31.8883 45.3026 31.8711C45.3176 31.8666 45.3383 31.8826 45.3566 31.8895Z" fill="#232828"/>
</g>
</g>
<defs>
<clipPath id="clip0_752_4592">
<rect width="115" height="93" rx="10" fill="white"/>
</clipPath>
<clipPath id="clip1_752_4592">
<rect x="-36.8711" y="-0.308105" width="190.496" height="110.595" rx="10" fill="white"/>
</clipPath>
</defs>
</svg>
