<svg fill="none" height="96" width="103" xmlns="http://www.w3.org/2000/svg"><clipPath id="a"><path d="M1.984 6.599h100v83h-100z"/></clipPath><g clip-path="url(#a)"><path d="M43.986 8.908c14.248-.223 26.898 6.822 34.24 17.604l2.027-1.193C72.488 13.86 59.066 6.369 43.95 6.603 20.434 6.968 1.614 25.882 1.989 48.764 2.366 71.642 21.8 89.96 45.313 89.594c23.513-.366 42.338-19.279 41.961-42.158-.113-6.854-1.946-13.293-5.074-18.947l-2.03 1.193c2.919 5.315 4.631 11.36 4.735 17.791.356 21.608-17.423 39.472-39.63 39.815-22.203.348-40.561-16.953-40.917-38.56-.355-21.611 17.424-39.475 39.628-39.82z" fill="navy"/><path d="M44.175 20.336c9.939-.156 18.766 4.66 23.997 12.082l8.155-4.792c-6.936-10.141-18.855-16.754-32.302-16.544-21.013.326-37.772 17.166-37.433 37.61.337 20.442 17.64 36.753 38.65 36.423 21.007-.327 37.766-17.165 37.431-37.61A36.056 36.056 0 0 0 78.265 30.8l-8.181 4.808c1.884 3.63 3.006 7.708 3.077 12.047.252 15.332-12.314 27.963-28.074 28.208-15.757.245-28.733-11.987-28.989-27.319-.248-15.332 12.32-27.96 28.075-28.207z" fill="navy"/><path d="M44.326 29.59c6.432-.1 12.158 2.926 15.678 7.628l8.166-4.8c-5.23-7.422-14.058-12.238-23.997-12.082-15.755.245-28.323 12.873-28.075 28.207.256 15.332 13.234 27.564 28.989 27.319 15.758-.245 28.326-12.877 28.074-28.208-.07-4.34-1.193-8.415-3.077-12.047l-8.159 4.796a17.988 17.988 0 0 1 1.726 7.4c.167 10.22-8.21 18.643-18.719 18.805-10.502.164-19.155-7.992-19.324-18.212-.168-10.224 8.213-18.643 18.714-18.807z" fill="#fff"/><path d="M44.48 38.845a9.597 9.597 0 0 1 7.33 3.187l8.195-4.814c-3.52-4.702-9.247-7.728-15.678-7.629-10.502.164-18.883 8.582-18.714 18.807.167 10.22 8.822 18.376 19.324 18.212 10.506-.162 18.886-8.583 18.719-18.805a18.015 18.015 0 0 0-1.726-7.4l-8.244 4.845c.283.853.443 1.759.458 2.702.085 5.11-4.103 9.32-9.358 9.402-5.25.081-9.576-3.996-9.662-9.106-.081-5.112 4.106-9.322 9.36-9.403z" fill="navy"/><path d="m45.892 45.51 5.918-3.478a9.588 9.588 0 0 0-7.33-3.187c-5.253.081-9.44 4.29-9.359 9.402.085 5.11 4.411 9.188 9.661 9.107 5.255-.083 9.444-4.292 9.36-9.402a8.982 8.982 0 0 0-.46-2.702l-6.062 3.562a1.702 1.702 0 0 1-2.263-.504l-.09-.135a1.87 1.87 0 0 1 .625-2.662z" fill="#fff"/><path d="M99.237 24.731c.379.194.837.18 1.2-.034l1.253-.735a.588.588 0 0 0 .293-.529.587.587 0 0 0-.326-.512L95.86 19.95l.65-.382a.584.584 0 0 0 .201-.826l-.815-1.275a.628.628 0 0 0-.84-.196l-.673.396-.14-6.312a.596.596 0 0 0-.316-.509.628.628 0 0 0-.613.012l-1.246.732c-.373.22-.597.615-.59 1.04l.151 6.656-.33.197-.146-6.311a.6.6 0 0 0-.318-.512.64.64 0 0 0-.614.013l-1.245.732a1.18 1.18 0 0 0-.59 1.04l.154 6.657-.334.196-.146-6.312a.587.587 0 0 0-.316-.51.624.624 0 0 0-.613.012l-1.243.732c-.374.22-.598.617-.589 1.04l.13 5.67a.596.596 0 0 1-.291.517l-4.884 2.87-2.027 1.193-1.9 1.115-8.155 4.793-8.166 4.799-8.195 4.814-5.918 3.478a1.871 1.871 0 0 0-.626 2.662l.09.135a1.704 1.704 0 0 0 2.264.503l6.062-3.562 8.244-4.845 8.159-4.796 8.181-4.807 1.905-1.117 2.03-1.193 4.88-2.868a.61.61 0 0 1 .594-.017l5.382 2.76c.377.194.834.182 1.2-.036l1.253-.735c.187-.11.3-.313.297-.527a.6.6 0 0 0-.327-.51l-5.799-2.973.32-.188 6.148 3.152c.378.196.831.182 1.2-.034l1.252-.735a.606.606 0 0 0 .298-.53.595.595 0 0 0-.328-.51l-5.797-2.97.316-.188 6.148 3.152z" fill="#00d4c6"/></g></svg>