<svg fill="none" height="96" viewBox="0 0 103 96" width="103" xmlns="http://www.w3.org/2000/svg" xmlns:xlink="http://www.w3.org/1999/xlink"><clipPath id="a"><path d="m1.98438 6.59866h100v83h-100z"/></clipPath><g clip-path="url(#a)"><path d="m43.9864 8.90834c14.2475-.22307 26.8973 6.82206 34.2399 17.60346l2.0267-1.1931c-7.7646-11.4573-21.1872-18.95025-36.3031-18.71536-23.516.36502-42.33611 19.27816-41.96099 42.16076.37685 22.8775 19.81179 41.1958 43.32429 40.8308 23.5126-.3667 42.3379-19.2798 41.961-42.1591-.1128-6.8541-1.9467-13.2925-5.0745-18.9469l-2.0301 1.1931c2.9193 5.3147 4.6317 11.3593 4.7358 17.791.3561 21.6085-17.4238 39.4722-39.6304 39.8152-22.2031.3481-40.56128-16.9528-40.91729-38.5596-.35428-21.6118 17.42389-39.47553 39.62869-39.82026z" fill="#000080"/><path d="m44.1749 20.3357c9.9389-.1555 18.7663 4.6607 23.9971 12.0826l8.1553-4.7925c-6.9362-10.1409-18.8549-16.7534-32.3018-16.5439-21.0135.3262-37.77219 17.1658-37.43354 37.6099.33691 20.4425 17.64094 36.7532 38.64924 36.4236 21.0083-.3278 37.767-17.1657 37.4318-37.6099-.0972-6.0379-1.6897-11.7108-4.4076-16.7061l-8.1814 4.8077c1.8843 3.6299 3.0062 7.7075 3.0774 12.0471.2518 15.3323-12.3146 27.9624-28.0748 28.2075-15.7566.245-28.7329-11.9863-28.9882-27.3186-.2483-15.3322 12.3198-27.9607 28.0747-28.2074z" fill="#000080"/><path d="m44.3259 29.5894c6.4326-.0997 12.1583 2.9269 15.6785 7.6281l8.1658-4.7992c-5.2308-7.4219-14.0582-12.2381-23.9971-12.0826-15.7549.245-28.3231 12.8735-28.0748 28.2074.2553 15.3323 13.2333 27.5636 28.9883 27.3186 15.7584-.2451 28.3265-12.8769 28.0747-28.2075-.0712-4.3396-1.1931-8.4156-3.0773-12.0471l-8.1588 4.7959c1.0628 2.2576 1.6845 4.757 1.7262 7.3999.1667 10.2204-8.2109 18.6428-18.7194 18.805-10.5015.1639-19.1553-7.9914-19.3237-18.2118-.1685-10.2238 8.2126-18.6427 18.7141-18.8067z" fill="#fff"/><path d="m44.4799 38.8449c2.9227-.0456 5.5555 1.1981 7.3304 3.1871l8.1952-4.8145c-3.5202-4.7012-9.2476-7.7278-15.6785-7.6281-10.5015.164-18.8826 8.5812-18.7142 18.8067.1668 10.2204 8.8222 18.3757 19.3238 18.2118 10.5068-.1622 18.8861-8.5829 18.7194-18.805-.0434-2.6429-.6634-5.1423-1.7262-7.3999l-8.2439 4.8448c.283.8534.4428 1.7592.4584 2.7022.0851 5.1101-4.1037 9.3196-9.3588 9.4024-5.2499.0811-9.5759-3.9965-9.661-9.1067-.0816-5.1119 4.1054-9.3214 9.3588-9.4025z" fill="#000080"/><path d="m45.892 45.5098 5.9185-3.4778c-1.7766-1.9907-4.4076-3.2344-7.3304-3.1871-5.2534.0811-9.4404 4.2906-9.3588 9.4025.0851 5.1102 4.4111 9.1878 9.661 9.1067 5.2551-.0828 9.4439-4.2923 9.3588-9.4025-.0139-.9429-.1754-1.8487-.4585-2.7021l-6.0626 3.5623c-.7676.4512-1.7662.2298-2.2629-.5036l-.0903-.1352c-.6009-.8973-.3195-2.1056.6252-2.6615z" fill="#fff"/><path d="m99.2373 24.731c.3786.1944.8367.1809 1.1997-.0337l1.253-.7351c.189-.1116.302-.3144.293-.529-.002-.2163-.13-.4106-.326-.512l-5.7974-2.9725.6512-.3819c.1372-.0811.2414-.2163.2779-.3718.0382-.1538.0104-.3194-.0764-.4546l-.8163-1.2741c-.1788-.2772-.5522-.3634-.8405-.1961l-.6721.3955-.1407-6.3117c-.0052-.2113-.125-.4056-.316-.5087-.1911-.1014-.4255-.0997-.6131.0119l-1.2452.7317c-.3733.2197-.5974.6151-.5904 1.0392l.1511 6.6565-.33.1977-.1459-6.3117c-.0034-.2129-.1268-.4073-.3178-.512-.1893-.0997-.4255-.0964-.6148.0135l-1.2451.7317c-.3752.2214-.5974.6168-.5888 1.041l.1529 6.6564-.3335.196-.1459-6.3117c-.0017-.2129-.1233-.4072-.316-.5103-.1876-.1031-.4238-.0997-.6131.0118l-1.2434.7317c-.3734.2197-.5974.6168-.5887 1.041l.1302 5.6695c.0018.2113-.1094.409-.2917.5171l-4.8835 2.8694-2.0267 1.1931-1.8999 1.1153-8.1553 4.7925-8.1658 4.7993-8.1952 4.8144-5.9185 3.4778c-.9448.5576-1.2261 1.7642-.6252 2.6615l.0903.1352c.4966.7318 1.4952.9548 2.2628.5036l6.0627-3.5622 8.2439-4.8449 8.1588-4.7959 8.1814-4.8077 1.9051-1.117 2.0301-1.1931 4.88-2.8677c.1789-.1081.4064-.1149.5939-.0169l5.3819 2.7596c.3769.1943.8336.1825 1.2001-.0355l1.2521-.7351c.1875-.1098.3004-.3126.297-.5272-.007-.2163-.1338-.4107-.3265-.5104l-5.7987-2.9725.3195-.1875 6.1478 3.1516c.3786.196.8318.1825 1.2-.0338l1.2521-.7351c.1893-.1132.3022-.3143.2987-.5306-.0069-.213-.132-.409-.3282-.5087l-5.7969-2.9708.316-.1876 6.1478 3.1516z" fill="#00d4c6"/></g></svg>