<svg fill="none" height="71" viewBox="0 0 89 71" width="89" xmlns="http://www.w3.org/2000/svg" xmlns:xlink="http://www.w3.org/1999/xlink"><linearGradient id="a" gradientUnits="userSpaceOnUse" x1="44.9844" x2="44.9844" y1=".598663" y2="70.5969"><stop offset="0" stop-color="#000080"/><stop offset="1" stop-color="#30d5c8"/></linearGradient><path d="m88.9595 22.5935c-.0034-.0192-.0077-.0392-.012-.0575-.012-.0557-.0266-.1106-.0446-.1654-.0052-.0148-.0103-.0296-.0155-.0444-.0068-.0183-.0137-.0366-.0214-.0549-.0026-.0078-.006-.0156-.0094-.0235-.0043-.0104-.0086-.0209-.0138-.0313-.0017-.0044-.0034-.0087-.006-.0131-.0094-.0217-.0197-.0426-.03-.0635s-.0223-.0418-.0334-.0618c0-.0009-.0009-.0027-.0018-.0035-.0111-.0201-.0231-.0401-.036-.0592-.0128-.0201-.0249-.0392-.0386-.0584-.0137-.02-.0274-.04-.0429-.0592-.0146-.0191-.0291-.0383-.0454-.0566l-.0326-.0383s-.0052-.0069-.0086-.0104l-17.2387-20.6279s-.0034-.00436-.0052-.0061c-.0137-.01654-.0274-.03221-.0428-.04788-.0069-.00784-.0138-.01568-.0215-.02351-.0103-.01132-.0214-.02264-.0317-.03222-.0129-.01393-.0266-.02612-.0403-.03918-.0043-.00435-.0095-.0087-.0146-.01306-.0172-.015669-.0352-.031341-.0532-.046142-.0026-.002612-.006-.005224-.0094-.007836-.0549-.044404-.1124-.085325-.1725-.121023-.0214-.013931-.0437-.02612-.066-.038309-.0275-.015672-.0558-.029603-.0841-.042663-.072-.033956-.1466-.062688-.2238-.084455-.0112-.004353-.0223-.006965-.0335-.009577-.0214-.006095-.0429-.011319-.0652-.016543-.0549-.01306-.1115-.021767-.1681-.027861-.0258-.002612-.0515-.005224-.0772-.006095-.0043 0-.0086-.000871-.0129-.000871-.0266-.001741-.0523-.002612-.0789-.002612h-50.2871c-.0257 0-.0523.000871-.078.002612-.0052 0-.0103.000871-.0155.000871-.0248 0-.0497.003483-.0746.006095-.0566.005224-.1132.014801-.169.027861-.024.005224-.048.011319-.0712.018284-.0085.001741-.0171.004353-.0257.006965-.0772.022638-.1527.05137-.2256.085326-.0283.01306-.0566.026991-.084.042663-.0223.012189-.0447.024378-.0661.038309-.06.035698-.1175.076619-.1724.121023-.0034.002612-.0069.005224-.0094.007836-.0181.014801-.0361.030473-.0532.046142-.0052.00436-.0103.00871-.0146.01306-.0137.01306-.0275.02525-.0403.03918-.0103.00958-.0215.0209-.0318.03222-.0077.00783-.0145.01567-.0214.02351-.0154.01567-.0292.03134-.0429.04788-.0017.00174-.0034.00436-.0051.0061l-17.24732 20.6383-.0326.0383c-.00515.0061-.00944.0114-.01372.0174-.00344.0061-.00858.0114-.01287.0175-.00944.013-.01973.0252-.03002.0383-.03946.0513-.07463.1053-.10637.1602 0 .0017-.00085.0026-.00171.0035-.02316.0409-.04461.0827-.06348.1253-.01029.0218-.01973.0436-.0283.0653-.00944.0218-.01716.0436-.02488.0662-.00858.0218-.01544.0435-.0223.0662-.00686.0217-.01373.0444-.01887.067-.00601.0227-.01201.0453-.0163.0679-.00429.0192-.00858.0392-.01201.0592-.00257.0148-.00515.0296-.00686.0453-.002575.0157-.005148.0305-.006864.0462-.001715.0217-.004289.0435-.006004.0653-.003431.0426-.005147.0844-.005147.1271 0 .0243 0 .0496.001716.074.001715.0374.005146.0757.009435.1132.001716.0182.004289.0357.006864.0539.01286.0836.03174.1672.05747.2482.006.02.01287.0392.01973.0583.01372.0383.0283.0758.0446.1123.01716.0383.03517.0749.05576.1115.00858.0165.01715.0322.02659.0479.00772.0148.0163.0287.02487.0418.00944.0148.01888.0287.02831.0435.01716.0244.03431.0496.05233.0731.01543.0201.03087.0392.04631.0584.0163.0191.03346.0391.05147.0583l.03345.0357 42.33982 46.0279c.0145.0174.03.0348.0463.0514.0188.02.0377.04.0574.0592.0078.0087.0155.0165.0232.0226.0017.0026.0034.0044.0052.0052h.0017c.0094.0087.0197.0183.03.027.0009.0009.0017.0018.0017.0026.0017.0018.0034.0035.006.0044.0009.0017.0017.0026.0026.0026.0086.0078.0163.0148.0249.0209.0017.0026.0025.0035.0043.0035.0034.0034.0077.0069.012.0104.0034.0026.0077.0061.0111.0087s.0069.0052.0103.0079c.0034.0034.0069.0069.0112.0087.012.0104.0257.02.0386.0296.0025.0017.0051.0043.0085.0052.0112.0078.0215.0157.0326.0226.0103.0079.0215.0148.0326.0209.006.0053.0112.0087.0172.0113h.0008c.0086.007.018.0122.0266.0175.0069.0034.0146.0078.0223.0121.0026.0027.006.0044.0086.0053.0206.0113.0412.0226.0626.0331.0163.0087.0326.0165.0498.0243.0197.0096.0394.0183.06.0262.006.0026.012.0043.018.0069.0035.0018.0069.0026.0103.0035.0017.0009.0035.0017.0052.0017.0137.0061.0283.0114.042.0157.0043.0018.0077.0035.012.0052.0094.0035.0189.007.0292.0096.0154.0044.0317.0096.0472.0139.0137.0044.0274.0088.0411.0114.0103.0026.0215.0061.0318.0078.0111.0026.0214.0052.0326.007.0248.0052.0497.0095.0746.0139.0026.0009.0051.0009.0077.0009.0257.0043.0523.0078.0781.0104.0257.0026.0506.0052.0763.007h.0232c.0206 0 .042.0017.0634.0017.0215 0 .0446-.0008.0661-.0017h.0034.012.0035s.0034 0 .006-.0009h.0034c.0111 0 .0223-.0017.0326-.0026.012-.0009.024-.0017.036-.0035.0275-.0026.0541-.0061.0807-.0104.0068-.0009.0137-.0018.0205-.0026.0069-.0009.0129-.0027.0198-.0044.0128-.0017.0257-.0052.0394-.0078.024-.0044.0472-.0096.0704-.0157.0377-.0105.0754-.0218.1123-.034.0086-.0034.0172-.0061.0266-.0104.0017 0 .0026 0 .0043-.0009.0094-.0035.0197-.0069.0292-.0113.0343-.0131.0677-.027.1012-.0427.0094-.0043.0189-.0095.0283-.0139.0026-.0017.0051-.0026.0077-.0043.0069-.0027.0129-.0061.0189-.0096.006-.0026.012-.0052.0171-.0087.0069-.0035.0138-.007.0198-.0113.0051-.0027.0103-.0053.0154-.0088.0069-.0043.0137-.0078.0215-.0121.0042-.0018.0077-.0044.0111-.007.0069-.0044.0146-.0087.0215-.0139.0051-.0026.0102-.0053.0145-.0087.0043-.0027.0086-.0053.012-.0079.0086-.0052.0163-.0104.0241-.0157.006-.0034.012-.0069.0171-.0113.0069-.0043.0137-.0095.0206-.0148.0146-.0104.0283-.0209.042-.0322.0026-.0017.0043-.0035.0069-.0043.0017-.0009.0043-.0027.006-.0044.012-.0096.024-.0191.036-.0305.0103-.0078.0206-.0165.0301-.0261.0017 0 .0025-.0017.0042-.0035.0129-.0104.0249-.0217.0369-.0339.0052-.0035.0095-.0079.0137-.0131.0078-.007.0155-.0139.0224-.0218.024-.0235.0471-.0487.0694-.074l42.3664-46.0575c.024-.0252.0472-.0513.0686-.0774.0112-.0131.0223-.027.0326-.0401.0832-.1045.1527-.2194.2067-.3413.0086-.0183.0163-.0374.0241-.0566.0394-.0966.0694-.1976.0883-.3012.0043-.0209.0077-.0418.0112-.0627.0025-.0183.0051-.0357.0068-.054.0026-.0209.0043-.0409.006-.0618.0017-.0174.0026-.034.0035-.0514.0008-.0244.0017-.0496.0017-.074 0-.0949-.0077-.1898-.0249-.2856zm-20.0771 7.957c-.0137.0174-.0274.0349-.0412.0523-.0008.0017-.0025.0026-.0042.0043.0154-.0183.03-.0374.0454-.0566zm-2.5553-4.147-18.1265-15.2567 20.1268-6.66234zm1.6289 1.3713-.1724.0584.0172-.189zm-47.1107 1.2965c-.0686.2072-.0935.4266-.0755.6443l-.0635-.6914zm.7952-24.58684 20.1276 6.66234-18.1265 15.2567zm23.3434 8.12334 18.2578 15.3664h-36.5146zm15.1955-8.80159-15.1955 5.02985-15.1954-5.02985zm-41.5609 2.34296 1.9291 21.12943-15.26577-5.1709zm-10.65269 20.25003 13.31349 4.51 15.2393 26.5311zm36.08919 41.0285.0146-.0253.0626.108zm.9289-1.6186-19.8892-34.6265h39.7785zm8.4671-8.3706 15.2384-26.5293 13.3135-4.51zm15.9701-30.1599 1.9291-21.12855 13.3367 15.95765z" fill="url(#a)"/></svg>