<svg fill="none" height="71" width="89" xmlns="http://www.w3.org/2000/svg"><linearGradient id="a" gradientUnits="userSpaceOnUse" x1="44.984" x2="44.984" y1=".599" y2="70.597"><stop offset="0" stop-color="navy"/><stop offset="1" stop-color="#30d5c8"/></linearGradient><path d="M88.96 22.593a1.624 1.624 0 0 0-.057-.223l-.016-.044a1.38 1.38 0 0 0-.021-.055l-.01-.023-.013-.032a.085.085 0 0 0-.006-.013l-.03-.063c-.01-.021-.023-.042-.034-.062l-.001-.003a.778.778 0 0 0-.036-.06c-.013-.02-.025-.039-.039-.058-.014-.02-.027-.04-.043-.06-.015-.018-.029-.038-.045-.056l-.033-.038-.009-.01L71.33 1.164l-.005-.007a.745.745 0 0 0-.043-.047l-.022-.024a.558.558 0 0 0-.031-.032l-.04-.04-.015-.012a1.401 1.401 0 0 0-.235-.175l-.066-.039a1.443 1.443 0 0 0-.407-.153 1.355 1.355 0 0 0-.168-.028L70.22.602h-.013a1.194 1.194 0 0 0-.08-.003H19.842c-.026 0-.053 0-.078.002l-.016.001c-.025 0-.05.004-.074.006a1.245 1.245 0 0 0-.24.046l-.026.007a1.604 1.604 0 0 0-.31.128c-.022.013-.045.025-.066.039-.06.035-.117.076-.172.12l-.01.009a1.261 1.261 0 0 0-.068.059l-.04.039a.559.559 0 0 0-.032.032l-.021.024a.746.746 0 0 0-.043.047l-.005.007L1.393 21.803l-.033.038a.263.263 0 0 0-.014.018c-.003.006-.008.011-.013.017l-.03.038a1.465 1.465 0 0 0-.224.42.849.849 0 0 0-.041.134l-.017.068-.012.06-.007.044c-.002.016-.005.031-.006.047-.002.021-.005.043-.006.065a1.572 1.572 0 0 0 .006.314l.006.054a1.65 1.65 0 0 0 .23.62l.028.044c.017.024.034.05.052.073l.046.058c.017.02.034.04.052.058l.033.036 42.34 46.028c.015.017.03.035.046.051a1.884 1.884 0 0 0 .086.087h.002l.03.027.002.003a.015.015 0 0 0 .006.004c0 .002.001.003.002.003.009.008.016.015.025.021.002.003.003.003.004.003a.163.163 0 0 0 .012.01l.011.01.01.008.012.008.039.03.008.005.033.023c.01.008.021.014.032.02a.063.063 0 0 0 .017.012h.001c.009.007.018.012.027.017l.022.012a1.546 1.546 0 0 0 .181.089l.018.007.01.004.006.001a.398.398 0 0 0 .042.016l.012.005.029.01.047.014a.35.35 0 0 0 .041.011l.032.008.033.007.074.014h.008c.026.005.052.009.078.011l.076.007h.023l.064.002c.021 0 .044 0 .066-.002h.028l.033-.003.036-.004a1.226 1.226 0 0 0 .101-.013c.007 0 .013-.002.02-.004l.04-.008a.946.946 0 0 0 .07-.016 2.47 2.47 0 0 0 .112-.034l.027-.01.004-.001.03-.011c.033-.013.067-.027.1-.043l.029-.014.007-.004a.134.134 0 0 0 .02-.01.102.102 0 0 0 .016-.008c.007-.004.014-.007.02-.012l.015-.009.022-.012a.052.052 0 0 0 .011-.007c.007-.004.015-.008.022-.014a.087.087 0 0 0 .014-.008l.012-.008a.53.53 0 0 0 .062-.042.74.74 0 0 0 .042-.032l.007-.005a.029.029 0 0 0 .006-.004l.036-.03a.281.281 0 0 0 .03-.027c.002 0 .002-.001.004-.003a.433.433 0 0 0 .05-.047l.023-.022c.024-.023.047-.049.07-.074L88.534 24a1.403 1.403 0 0 0 .101-.118c.083-.104.153-.22.207-.341l.024-.057c.04-.096.07-.197.088-.3.005-.022.008-.043.011-.064.003-.018.006-.035.007-.054a1.435 1.435 0 0 0 .01-.113l.001-.074c0-.095-.007-.19-.024-.285zM68.882 30.55l-.04.053-.005.004.045-.057zm-2.555-4.147L48.201 11.148l20.126-6.663zm1.629 1.372-.172.058.017-.189zm-47.11 1.296a1.624 1.624 0 0 0-.076.645l-.064-.692zm.795-24.587 20.127 6.663-18.126 15.257zm23.343 8.124 18.258 15.366H26.727zm15.195-8.802-15.195 5.03-15.195-5.03zM18.62 6.15l1.929 21.13-15.266-5.171zM7.966 26.4l13.313 4.51L36.52 57.44zm36.089 41.029.015-.026.062.108zm.929-1.619-19.89-34.626h39.78zm8.467-8.37 15.238-26.53 13.314-4.51zm15.97-30.16 1.93-21.129 13.336 15.958z" fill="url(#a)"/></svg>