<svg fill="none" height="96" viewBox="0 0 103 96" width="103" xmlns="http://www.w3.org/2000/svg" xmlns:xlink="http://www.w3.org/1999/xlink"><clipPath id="a"><path d="m.984375.598663h102v95h-102z"/></clipPath><g clip-path="url(#a)"><path d="m51.759 23.6528c-29.0541 0-41.87716 24.5366-41.87716 24.5366s12.82306 24.5366 41.87716 24.5366c29.0542 0 41.8773-24.5366 41.8773-24.5366s-12.8231-24.5366-41.8773-24.5366z" fill="#fff" stroke="#000080" stroke-linecap="round" stroke-linejoin="round" stroke-width="2"/><path d="m51.7591 68.4904c11.2767 0 20.4182-9.0891 20.4182-20.301s-9.1415-20.3009-20.4182-20.3009-20.4183 9.089-20.4183 20.3009 9.1416 20.301 20.4183 20.301z" fill="#000"/><path d="m59.1783 36.9528c1.2537 0 2.27-1.0105 2.27-2.257s-1.0163-2.257-2.27-2.257c-1.2538 0-2.2701 1.0105-2.2701 2.257s1.0163 2.257 2.2701 2.257z" fill="#fff"/><g stroke-linecap="round" stroke-linejoin="round" stroke-width="2"><path d="m51.7588 19.2901v-18.08633" stroke="#000080"/><path d="m36.2278 21.4503-7.8508-13.51787" stroke="#000080"/><path d="m20.5627 30.2363-13.85762-7.957" stroke="#000080"/><path d="m67.0225 21.7528 8.0212-13.82037" stroke="#000080"/><path d="m82.9795 30.0124 13.8576-7.957" stroke="#000080"/><path d="m44.1333 19.9194-2.5317-9.3972" stroke="#00d4c6"/><path d="m28.389 24.9356-7.4857-7.4427" stroke="#00d4c6"/><path d="m12.8517 37.6971-11.25893-3.0013" stroke="#00d4c6"/><path d="m59.5303 19.9194 2.5317-9.3972" stroke="#00d4c6"/><path d="m75.208 24.8811 7.4857-7.4487" stroke="#00d4c6"/><path d="m90.7334 37.7334 11.6426-3.0981" stroke="#00d4c6"/><path d="m51.7588 76.9073v18.0863" stroke="#000080"/><path d="m36.2278 74.7471-7.8508 13.5178" stroke="#000080"/><path d="m20.5627 65.9611-13.85762 7.957" stroke="#000080"/><path d="m67.0225 74.4445 8.0212 13.8204" stroke="#000080"/><path d="m82.9795 66.185 13.8576 7.957" stroke="#000080"/><path d="m44.1333 76.278-2.5317 9.3971" stroke="#00d4c6"/><path d="m28.389 71.2617-7.4857 7.4427" stroke="#00d4c6"/><path d="m12.8517 58.5003-11.25893 3.0012" stroke="#00d4c6"/><path d="m59.5303 76.278 2.5317 9.3971" stroke="#00d4c6"/><path d="m75.208 71.3162 7.4857 7.4487" stroke="#00d4c6"/><path d="m90.7334 58.464 11.6426 3.098" stroke="#00d4c6"/></g></g></svg>