<svg fill="none" height="96" width="103" xmlns="http://www.w3.org/2000/svg"><clipPath id="a"><path d="M.984.599h102v95h-102z"/></clipPath><g clip-path="url(#a)"><path d="M51.759 23.653c-29.054 0-41.877 24.536-41.877 24.536s12.823 24.537 41.877 24.537c29.054 0 41.877-24.537 41.877-24.537S80.813 23.653 51.76 23.653z" fill="#fff" stroke="navy" stroke-linecap="round" stroke-linejoin="round" stroke-width="2"/><path d="M51.76 68.49c11.276 0 20.417-9.089 20.417-20.3S63.036 27.887 51.76 27.887s-20.418 9.09-20.418 20.301S40.482 68.49 51.759 68.49z" fill="#000"/><path d="M59.178 36.953c1.254 0 2.27-1.01 2.27-2.257s-1.016-2.257-2.27-2.257c-1.253 0-2.27 1.01-2.27 2.257s1.016 2.257 2.27 2.257z" fill="#fff"/><g stroke-linecap="round" stroke-linejoin="round" stroke-width="2"><path d="M51.759 19.29V1.204M36.228 21.45 28.377 7.932M20.563 30.236 6.705 22.28M67.022 21.753l8.022-13.82M82.98 30.012l13.857-7.957" stroke="navy"/><g stroke="#00d4c6"><path d="m44.133 19.92-2.531-9.398M28.389 24.936l-7.486-7.443M12.852 37.697l-11.26-3.001M59.53 19.92l2.532-9.398M75.208 24.881l7.486-7.449M90.733 37.733l11.643-3.098"/></g><path d="M51.759 76.907v18.087M36.228 74.747l-7.851 13.518M20.563 65.961 6.705 73.918M67.022 74.445l8.022 13.82M82.98 66.185l13.857 7.957" stroke="navy"/><path d="m44.133 76.278-2.531 9.397M28.389 71.262l-7.486 7.442M12.852 58.5l-11.26 3.002M59.53 76.278l2.532 9.397M75.208 71.316l7.486 7.449M90.733 58.464l11.643 3.098" stroke="#00d4c6"/></g></g></svg>