<svg width="103" height="96" viewBox="0 0 103 96" fill="none" xmlns="http://www.w3.org/2000/svg">
<g clip-path="url(#clip0_565_4268)">
<path d="M51.759 23.6528C22.7049 23.6528 9.88184 48.1894 9.88184 48.1894C9.88184 48.1894 22.7049 72.726 51.759 72.726C80.8132 72.726 93.6363 48.1894 93.6363 48.1894C93.6363 48.1894 80.8132 23.6528 51.759 23.6528Z" fill="white" stroke="#000080" stroke-width="2" stroke-linecap="round" stroke-linejoin="round"/>
<path d="M51.7591 68.4904C63.0358 68.4904 72.1773 59.4013 72.1773 48.1894C72.1773 36.9775 63.0358 27.8885 51.7591 27.8885C40.4824 27.8885 31.3408 36.9775 31.3408 48.1894C31.3408 59.4013 40.4824 68.4904 51.7591 68.4904Z" fill="black"/>
<path d="M59.1783 36.9528C60.432 36.9528 61.4483 35.9423 61.4483 34.6958C61.4483 33.4493 60.432 32.4388 59.1783 32.4388C57.9245 32.4388 56.9082 33.4493 56.9082 34.6958C56.9082 35.9423 57.9245 36.9528 59.1783 36.9528Z" fill="white"/>
<path d="M51.7588 19.2901V1.20377" stroke="#000080" stroke-width="2" stroke-linecap="round" stroke-linejoin="round"/>
<path d="M36.2278 21.4503L28.377 7.93243" stroke="#000080" stroke-width="2" stroke-linecap="round" stroke-linejoin="round"/>
<path d="M20.5627 30.2363L6.70508 22.2793" stroke="#000080" stroke-width="2" stroke-linecap="round" stroke-linejoin="round"/>
<path d="M67.0225 21.7528L75.0437 7.93243" stroke="#000080" stroke-width="2" stroke-linecap="round" stroke-linejoin="round"/>
<path d="M82.9795 30.0124L96.8371 22.0554" stroke="#000080" stroke-width="2" stroke-linecap="round" stroke-linejoin="round"/>
<path d="M44.1333 19.9194L41.6016 10.5222" stroke="#00D4C6" stroke-width="2" stroke-linecap="round" stroke-linejoin="round"/>
<path d="M28.389 24.9356L20.9033 17.4929" stroke="#00D4C6" stroke-width="2" stroke-linecap="round" stroke-linejoin="round"/>
<path d="M12.8517 37.6971L1.59277 34.6958" stroke="#00D4C6" stroke-width="2" stroke-linecap="round" stroke-linejoin="round"/>
<path d="M59.5303 19.9194L62.062 10.5222" stroke="#00D4C6" stroke-width="2" stroke-linecap="round" stroke-linejoin="round"/>
<path d="M75.208 24.8811L82.6937 17.4324" stroke="#00D4C6" stroke-width="2" stroke-linecap="round" stroke-linejoin="round"/>
<path d="M90.7334 37.7334L102.376 34.6353" stroke="#00D4C6" stroke-width="2" stroke-linecap="round" stroke-linejoin="round"/>
<path d="M51.7588 76.9073V94.9936" stroke="#000080" stroke-width="2" stroke-linecap="round" stroke-linejoin="round"/>
<path d="M36.2278 74.7471L28.377 88.2649" stroke="#000080" stroke-width="2" stroke-linecap="round" stroke-linejoin="round"/>
<path d="M20.5627 65.9611L6.70508 73.9181" stroke="#000080" stroke-width="2" stroke-linecap="round" stroke-linejoin="round"/>
<path d="M67.0225 74.4445L75.0437 88.2649" stroke="#000080" stroke-width="2" stroke-linecap="round" stroke-linejoin="round"/>
<path d="M82.9795 66.185L96.8371 74.142" stroke="#000080" stroke-width="2" stroke-linecap="round" stroke-linejoin="round"/>
<path d="M44.1333 76.278L41.6016 85.6751" stroke="#00D4C6" stroke-width="2" stroke-linecap="round" stroke-linejoin="round"/>
<path d="M28.389 71.2617L20.9033 78.7044" stroke="#00D4C6" stroke-width="2" stroke-linecap="round" stroke-linejoin="round"/>
<path d="M12.8517 58.5003L1.59277 61.5015" stroke="#00D4C6" stroke-width="2" stroke-linecap="round" stroke-linejoin="round"/>
<path d="M59.5303 76.278L62.062 85.6751" stroke="#00D4C6" stroke-width="2" stroke-linecap="round" stroke-linejoin="round"/>
<path d="M75.208 71.3162L82.6937 78.7649" stroke="#00D4C6" stroke-width="2" stroke-linecap="round" stroke-linejoin="round"/>
<path d="M90.7334 58.464L102.376 61.562" stroke="#00D4C6" stroke-width="2" stroke-linecap="round" stroke-linejoin="round"/>
</g>
<defs>
<clipPath id="clip0_565_4268">
<rect width="102" height="95" fill="white" transform="translate(0.984375 0.598663)"/>
</clipPath>
</defs>
</svg>
