<svg width="238" height="142" viewBox="0 0 238 142" fill="none" xmlns="http://www.w3.org/2000/svg">
<path d="M21.106 77.6917H34.8488C41.8594 77.6917 45.8987 74.3811 45.8987 68.7123C45.8987 64.8575 44.088 62.2271 40.513 61.0934C43.7166 59.7782 45.388 57.1479 45.388 53.4745C45.388 47.9417 41.3023 44.5404 34.6166 44.5404H21.106V77.6917ZM34.1059 49.665C37.4487 49.665 39.3059 51.2069 39.3059 54.064C39.3059 57.0118 37.4952 58.6898 34.2452 58.6898H27.0488V49.665H34.1059ZM34.6166 63.5876C37.913 63.5876 39.8166 65.1749 39.8166 67.9866C39.8166 70.9798 37.9595 72.5671 34.6166 72.5671H27.0488V63.5876H34.6166Z" fill="#00037C"/>
<path d="M66.0657 55.2885V67.0343C66.0657 71.2972 64.3478 73.338 60.7728 73.338C57.6157 73.338 55.8979 71.6147 55.8979 67.3517V55.2885H50.2336V69.3018C50.2336 74.7892 53.3443 78.2812 58.6371 78.2812C61.7014 78.2812 64.6728 76.83 66.0657 74.6985L66.4835 77.6917H71.7299V55.2885H66.0657Z" fill="#00037C"/>
<path d="M75.5839 88.0769C76.8374 88.3944 78.2303 88.5758 79.8088 88.5758C83.5695 88.5758 85.9838 86.8525 87.7017 82.6802L98.9373 55.2885H93.0874L86.866 71.6147L80.9696 55.2885H74.9803L84.2195 78.644L83.5695 80.322C82.5945 82.9523 81.2017 83.4512 78.9731 83.4512H75.5839V88.0769Z" fill="#00037C"/>
<path d="M111.373 78.2812C117.362 78.2812 121.54 75.3334 122.515 70.4356H117.269C116.619 72.5671 114.576 73.7462 111.465 73.7462C107.705 73.7462 105.569 71.7507 105.151 67.8052L122.422 67.7599V66.0819C122.422 59.0979 118.058 54.6082 111.187 54.6082C104.455 54.6082 99.7654 59.4607 99.7654 66.4901C99.7654 73.4287 104.548 78.2812 111.373 78.2812ZM111.233 59.1433C114.623 59.1433 116.805 61.1841 116.805 64.2679H105.29C105.848 60.912 107.89 59.1433 111.233 59.1433Z" fill="#00037C"/>
<path d="M141.349 55.1978C140.42 54.971 139.631 54.8803 138.841 54.8803C135.777 54.8803 133.595 56.3769 132.62 58.5991L132.295 55.3338H126.956V77.6917H132.62V66.8075C132.62 62.4539 135.174 60.3224 139.259 60.3224H141.349V55.1978Z" fill="#00037C"/>
<path d="M163.044 77.6917V73.0659H151.437L163.044 59.8689V55.2885H144.519V59.9142H155.941L144.519 73.1566V77.6917H163.044Z" fill="#00037C"/>
<path d="M174.496 78.2812C178.071 78.2812 181.182 76.694 182.157 74.3811L182.575 77.6917H187.543V64.0865C187.543 57.8735 183.736 54.6082 177.561 54.6082C171.339 54.6082 167.253 57.7828 167.253 62.6353H172.082C172.082 60.2771 173.939 58.9165 177.282 58.9165C180.161 58.9165 182.018 60.141 182.018 63.1795V63.6783L175.146 64.1772C169.714 64.5854 166.65 67.1703 166.65 71.2972C166.65 75.5148 169.621 78.2812 174.496 78.2812ZM176.353 74.109C173.8 74.109 172.407 73.1113 172.407 71.0705C172.407 69.2565 173.753 68.1227 177.282 67.8052L182.064 67.4424V68.6216C182.064 72.0682 179.836 74.109 176.353 74.109Z" fill="#00037C"/>
<path d="M193.107 88.0769H198.771V74.6985C200.211 76.9661 203.182 78.2812 206.618 78.2812C213.443 78.2812 217.343 73.202 217.343 66.218C217.343 59.1886 213.071 54.6082 206.618 54.6082C203.136 54.6082 200.118 56.1048 198.725 58.6898L198.354 55.2885H193.107V88.0769ZM198.818 66.4901C198.818 62.4539 201.371 59.6421 205.271 59.6421C209.264 59.6421 211.632 62.4992 211.632 66.4901C211.632 70.4809 209.264 73.2927 205.271 73.2927C201.371 73.2927 198.818 70.5263 198.818 66.4901Z" fill="#00037C"/>
<path d="M119.726 12.5245C119.726 9.2597 122.417 6.6284 125.756 6.6284L146.388 6.6284C146.687 6.6284 146.886 6.82331 146.886 7.11568C146.886 7.40804 146.687 7.60295 146.388 7.60295L125.756 7.60295C122.965 7.60295 120.723 9.7957 120.723 12.5245L120.723 32.6003C120.723 35.329 122.965 37.5218 125.756 37.5218H130.092C130.391 37.5218 130.59 37.7167 130.59 38.009V46.4389L139.959 37.668C140.059 37.5705 140.158 37.5218 140.308 37.5218H159.345C161.388 37.5218 163.282 36.2549 164.029 34.4032C164.129 34.1596 164.428 34.0134 164.677 34.1108C164.926 34.2083 165.076 34.5007 164.976 34.7443C164.079 36.9858 161.836 38.4963 159.345 38.4963H140.507L130.44 47.9008C130.341 47.9982 130.241 48.047 130.092 48.047C130.042 48.047 129.942 48.047 129.892 47.9982C129.693 47.9008 129.593 47.7546 129.593 47.5597V38.4963H125.756C122.417 38.4963 119.726 35.865 119.726 32.6003L119.726 12.5245ZM167.966 16.3739L166.222 27.1915C165.923 29.6766 164.129 31.1384 161.288 31.1384L147.883 31.1384C146.388 31.1384 145.142 30.3588 144.394 29.2381C143.946 29.9202 143.198 30.3588 142.351 30.3588L139.56 30.3588C138.215 30.3588 137.118 29.2868 137.118 27.9711V15.6918C137.118 14.3761 138.215 13.3041 139.56 13.3041H142.351C143.696 13.3041 144.793 14.3761 144.793 15.6918V27.094C144.793 28.7508 146.188 30.1152 147.883 30.1152L161.338 30.1152C162.933 30.1152 164.976 29.5792 165.275 27.0453L167.019 16.2278C167.119 15.6918 167.069 15.1557 166.82 14.7172C166.322 13.5965 165.225 12.8655 163.979 12.8655L156.404 12.8655C156.105 12.8655 155.906 12.6706 155.906 12.3783V6.77458C155.906 5.16657 155.458 4.04583 154.61 3.4611C153.564 2.73018 152.168 2.87636 151.521 3.02255V7.99278C151.521 13.1579 145.441 14.9121 145.341 14.9121C145.092 15.0096 144.793 14.8147 144.743 14.571C144.693 14.3274 144.843 14.035 145.092 13.9863C145.291 13.9376 150.524 12.427 150.524 7.99278V2.63273C150.524 2.43782 150.673 2.2429 150.873 2.14545C150.972 2.09672 153.414 1.36581 155.208 2.63273C156.305 3.41237 156.903 4.82547 156.903 6.72585V11.8423L163.979 11.8423C165.624 11.8423 167.119 12.8168 167.767 14.2787C168.016 14.9608 168.116 15.643 167.966 16.3739ZM143.796 15.6918C143.796 14.9121 143.148 14.2787 142.351 14.2787H139.56C138.763 14.2787 138.115 14.9121 138.115 15.6918V27.9224C138.115 28.7021 138.763 29.3355 139.56 29.3355L142.351 29.3355C143.148 29.3355 143.796 28.7021 143.796 27.9224V15.6918Z" fill="#30D5C8"/>
<path fill-rule="evenodd" clip-rule="evenodd" d="M128.403 39.659V47.5595C128.403 47.8602 128.483 48.1752 128.677 48.4599C128.838 48.696 129.045 48.8635 129.251 48.9808C129.301 49.0134 129.351 49.0409 129.399 49.0641V49.1639L129.472 49.0964C129.613 49.155 129.734 49.1775 129.796 49.1877C129.935 49.2104 130.059 49.2098 130.088 49.2096L130.092 49.2096C130.305 49.2096 130.537 49.1734 130.769 49.0727C130.988 48.9774 131.152 48.8485 131.271 48.7339L140.985 39.659H159.345C162.327 39.659 165.007 37.855 166.083 35.1716C166.454 34.2591 165.899 33.336 165.12 33.0312C164.182 32.6646 163.235 33.2099 162.924 33.9715L162.922 33.9765C162.353 35.3861 160.897 36.3588 159.345 36.3588H140.308C140.094 36.3588 139.862 36.395 139.631 36.4957C139.411 36.5912 139.247 36.7204 139.128 36.8351L131.78 43.7136V38.0089C131.78 37.5988 131.635 37.1666 131.295 36.8338C130.955 36.5009 130.512 36.3588 130.092 36.3588H125.756C123.624 36.3588 121.913 34.6878 121.913 32.6001L121.913 12.5243C121.913 10.4366 123.624 8.76563 125.756 8.76563L146.388 8.76563C146.808 8.76563 147.251 8.62351 147.591 8.29063C147.931 7.95785 148.076 7.5256 148.076 7.11552C148.076 6.70544 147.931 6.27319 147.591 5.94042C147.251 5.60754 146.808 5.46541 146.388 5.46541L125.756 5.46541C121.758 5.46541 118.535 8.61844 118.535 12.5243L118.535 32.6001C118.535 36.506 121.758 39.659 125.756 39.659H128.403ZM129.593 47.5595C129.593 47.7544 129.693 47.9006 129.892 47.9981C129.942 48.0468 130.042 48.0468 130.092 48.0468C130.241 48.0468 130.341 47.9981 130.44 47.9006L140.507 38.4962H159.345C161.666 38.4962 163.771 37.1854 164.773 35.1942C164.843 35.0556 164.907 34.9137 164.966 34.7687C164.967 34.7674 164.967 34.766 164.968 34.7646C164.971 34.7578 164.973 34.751 164.976 34.7441C165.076 34.5005 164.926 34.2081 164.677 34.1107C164.436 34.0165 164.149 34.1498 164.04 34.3787C164.039 34.381 164.038 34.3832 164.037 34.3855C164.034 34.3913 164.032 34.3971 164.029 34.403C163.975 34.5363 163.916 34.6665 163.85 34.7934C163.008 36.4304 161.241 37.5216 159.345 37.5216H140.308C140.158 37.5216 140.059 37.5703 139.959 37.6678L130.59 46.4388V38.0089C130.59 37.7165 130.391 37.5216 130.092 37.5216H125.756C122.965 37.5216 120.723 35.3289 120.723 32.6001L120.723 12.5243C120.723 9.79554 122.965 7.6028 125.756 7.6028L146.388 7.6028C146.687 7.6028 146.886 7.40789 146.886 7.11552C146.886 6.82316 146.687 6.62824 146.388 6.62824L125.756 6.62824C122.417 6.62824 119.726 9.25954 119.726 12.5243L119.726 32.6001C119.726 35.8649 122.417 38.4962 125.756 38.4962H129.593V47.5595ZM163.871 34.3126L163.867 34.3208C163.868 34.3181 163.869 34.3154 163.871 34.3126ZM166.805 14.685C166.81 14.6956 166.815 14.7063 166.82 14.717C167.063 15.1454 167.117 15.6668 167.026 16.1903C167.024 16.2027 167.022 16.2152 167.019 16.2276L165.275 27.0452C165.275 27.0453 165.275 27.045 165.275 27.0452C165.274 27.0574 165.272 27.07 165.271 27.0821C164.956 29.5842 162.925 30.115 161.338 30.115L147.883 30.115C146.784 30.115 145.81 29.541 145.262 28.6855C145.149 28.5084 145.053 28.3192 144.979 28.1205C144.955 28.0554 144.932 27.9893 144.913 27.9223C144.906 27.9007 144.9 27.8791 144.894 27.8573C144.828 27.6131 144.793 27.3572 144.793 27.0939V15.6916C144.793 15.3037 144.698 14.937 144.529 14.6127C144.341 14.2525 144.063 13.9446 143.723 13.7181C143.332 13.4569 142.859 13.3039 142.351 13.3039H139.56C138.215 13.3039 137.118 14.3759 137.118 15.6916V27.971C137.118 29.2866 138.215 30.3586 139.56 30.3586L142.351 30.3586C142.775 30.3586 143.174 30.2489 143.523 30.0537C143.824 29.8852 144.088 29.6531 144.299 29.373C144.332 29.3291 144.364 29.2841 144.394 29.2379C144.431 29.2932 144.469 29.3478 144.509 29.4014C144.708 29.6737 144.938 29.9232 145.195 30.143C145.912 30.7564 146.836 31.1383 147.883 31.1383L161.288 31.1383C161.305 31.1383 161.322 31.1382 161.338 31.1381C164.15 31.1211 165.925 29.6619 166.222 27.1913L167.966 16.3738C167.966 16.374 167.966 16.3736 167.966 16.3738C168.113 15.6545 168.019 14.9818 167.778 14.3104C167.775 14.2998 167.771 14.2891 167.767 14.2785C167.758 14.2584 167.749 14.2384 167.74 14.2185C167.078 12.7901 165.601 11.8421 163.979 11.8421L156.903 11.8421V6.7257C156.903 4.82849 156.307 3.41694 155.214 2.63649C155.212 2.63537 155.211 2.63426 155.209 2.63315C155.209 2.63295 155.209 2.63334 155.209 2.63315C153.834 1.66173 152.076 1.86429 151.287 2.03387C151.047 2.08545 150.896 2.13393 150.873 2.1453C150.673 2.24275 150.524 2.43766 150.524 2.63257V7.99262C150.524 11.7208 146.825 13.3822 145.529 13.8458C145.507 13.8534 145.486 13.8607 145.466 13.8677C145.421 13.8835 145.379 13.8977 145.341 13.9103C145.203 13.956 145.115 13.9806 145.092 13.9861C145.051 13.9941 145.014 14.0084 144.979 14.028C144.799 14.1286 144.701 14.3668 144.743 14.5709C144.789 14.7965 145.049 14.9803 145.285 14.9289C145.3 14.9256 145.315 14.9213 145.33 14.916C145.334 14.9147 145.337 14.9134 145.341 14.912C145.358 14.912 145.549 14.8609 145.854 14.7507C145.855 14.7503 145.856 14.7499 145.857 14.7495C147.344 14.2117 151.521 12.2739 151.521 7.99262V3.02239C151.549 3.01602 151.578 3.00965 151.609 3.00335C151.643 2.99655 151.678 2.98984 151.714 2.9833C152.415 2.85748 153.648 2.79682 154.598 3.45208C154.599 3.45272 154.599 3.45337 154.6 3.45402C154.604 3.45632 154.607 3.45863 154.61 3.46094C155.449 4.03975 155.897 5.14376 155.906 6.7257C155.906 6.74189 155.906 6.75813 155.906 6.77443V12.3781C155.906 12.6705 156.105 12.8654 156.404 12.8654L163.979 12.8654C165.19 12.8654 166.26 13.5558 166.777 14.6236C166.786 14.6439 166.796 14.6644 166.805 14.685ZM152.711 4.06721C152.753 4.06836 152.795 4.07026 152.837 4.07301C153.256 4.10031 153.63 4.20558 153.918 4.40687L153.923 4.41062C154.31 4.6778 154.716 5.3299 154.716 6.77443V12.3781C154.716 12.7882 154.861 13.2204 155.201 13.5532C155.541 13.8861 155.984 14.0282 156.404 14.0282L163.979 14.0282C164.731 14.0282 165.41 14.4657 165.728 15.1803L165.751 15.232L165.779 15.2813C165.86 15.4241 165.913 15.6704 165.848 16.0198L165.845 16.0332L164.095 26.8881L164.092 26.912C163.983 27.8433 163.589 28.2865 163.167 28.5408C162.684 28.832 162.026 28.9522 161.338 28.9522L147.883 28.9522C146.847 28.9522 145.983 28.1095 145.983 27.0939V15.9389C145.994 15.9354 146.005 15.9318 146.017 15.9281C146.221 15.8606 146.496 15.7609 146.819 15.6255C147.461 15.356 148.312 14.9357 149.167 14.331C150.871 13.1254 152.711 11.0876 152.711 7.99262V4.06721ZM144.806 12.857C144.807 12.8567 144.808 12.8564 144.809 12.8561C144.858 12.8418 145.142 12.7576 145.555 12.5843C146.017 12.3901 146.609 12.0971 147.187 11.6904C148.348 10.873 149.333 9.69503 149.333 7.99262V2.63257C149.333 1.88297 149.854 1.34292 150.34 1.10544C150.43 1.06159 150.52 1.03252 150.54 1.02611L150.543 1.02526C150.586 1.01122 150.635 0.996553 150.688 0.981809C150.795 0.952114 150.933 0.918015 151.095 0.884699C151.419 0.818305 151.858 0.75162 152.361 0.733518C153.349 0.698008 154.711 0.846275 155.906 1.69022L155.909 1.69247C157.425 2.77022 158.093 4.61255 158.093 6.7257V10.6793L163.979 10.6793C166.104 10.6793 168.025 11.9343 168.859 13.8165L168.875 13.8517L168.888 13.8877C169.188 14.7099 169.333 15.6015 169.139 16.5767L167.401 27.3507C167.218 28.835 166.572 30.1047 165.465 30.9946C164.362 31.8811 162.914 32.3011 161.288 32.3011L147.883 32.3011C146.474 32.3011 145.247 31.7665 144.321 30.9382C143.756 31.3054 143.082 31.5215 142.351 31.5215L139.56 31.5215C137.556 31.5215 135.928 29.9277 135.928 27.971V15.6916C135.928 13.7349 137.556 12.1411 139.56 12.1411H142.351C143.205 12.1411 143.991 12.4307 144.612 12.9146C144.674 12.8919 144.739 12.8725 144.806 12.857ZM143.763 28.2252C143.723 28.4009 143.651 28.5644 143.551 28.7091C143.292 29.0866 142.851 29.3354 142.351 29.3354L139.56 29.3354C138.78 29.3354 138.142 28.7281 138.116 27.971C138.115 27.9548 138.115 27.9386 138.115 27.9223V15.6916C138.115 14.912 138.763 14.2785 139.56 14.2785H142.351C143.148 14.2785 143.796 14.912 143.796 15.6916V27.9223C143.796 27.9479 143.795 27.9734 143.794 27.9987C143.79 28.076 143.779 28.1517 143.763 28.2252ZM142.606 15.6916C142.606 15.5531 142.49 15.4413 142.351 15.4413H139.56C139.421 15.4413 139.305 15.5531 139.305 15.6916V27.9223C139.305 28.0608 139.421 28.1725 139.56 28.1725L142.351 28.1725C142.49 28.1725 142.606 28.0608 142.606 27.9223V15.6916Z" fill="#30D5C8"/>
<path fill-rule="evenodd" clip-rule="evenodd" d="M128.403 39.659V47.5595C128.403 47.8602 128.483 48.1752 128.677 48.4599C128.838 48.696 129.045 48.8635 129.251 48.9808C129.301 49.0134 129.351 49.0409 129.399 49.0641V49.1639L129.472 49.0964C129.613 49.155 129.734 49.1775 129.796 49.1877C129.935 49.2104 130.059 49.2098 130.088 49.2096L130.092 49.2096C130.305 49.2096 130.537 49.1734 130.769 49.0727C130.988 48.9774 131.152 48.8485 131.271 48.7339L140.985 39.659H159.345C162.327 39.659 165.007 37.855 166.083 35.1716C166.454 34.2591 165.899 33.336 165.12 33.0312C164.182 32.6646 163.235 33.2099 162.924 33.9715L162.922 33.9765C162.353 35.3861 160.897 36.3588 159.345 36.3588H140.308C140.094 36.3588 139.862 36.395 139.631 36.4957C139.411 36.5912 139.247 36.7204 139.128 36.8351L131.78 43.7136V38.0089C131.78 37.5988 131.635 37.1666 131.295 36.8338C130.955 36.5009 130.512 36.3588 130.092 36.3588H125.756C123.624 36.3588 121.913 34.6878 121.913 32.6001L121.913 12.5243C121.913 10.4366 123.624 8.76563 125.756 8.76563L146.388 8.76563C146.808 8.76563 147.251 8.62351 147.591 8.29063C147.931 7.95785 148.076 7.5256 148.076 7.11552C148.076 6.70544 147.931 6.27319 147.591 5.94042C147.251 5.60754 146.808 5.46541 146.388 5.46541L125.756 5.46541C121.758 5.46541 118.535 8.61844 118.535 12.5243L118.535 32.6001C118.535 36.506 121.758 39.659 125.756 39.659H128.403ZM129.593 47.5595C129.593 47.7544 129.693 47.9006 129.892 47.9981C129.942 48.0468 130.042 48.0468 130.092 48.0468C130.241 48.0468 130.341 47.9981 130.44 47.9006L140.507 38.4962H159.345C161.666 38.4962 163.771 37.1854 164.773 35.1942C164.843 35.0556 164.907 34.9137 164.966 34.7687C164.967 34.7674 164.967 34.766 164.968 34.7646C164.971 34.7578 164.973 34.751 164.976 34.7441C165.076 34.5005 164.926 34.2081 164.677 34.1107C164.436 34.0165 164.149 34.1498 164.04 34.3787C164.039 34.381 164.038 34.3832 164.037 34.3855C164.034 34.3913 164.032 34.3971 164.029 34.403C163.975 34.5363 163.916 34.6665 163.85 34.7934C163.008 36.4304 161.241 37.5216 159.345 37.5216H140.308C140.158 37.5216 140.059 37.5703 139.959 37.6678L130.59 46.4388V38.0089C130.59 37.7165 130.391 37.5216 130.092 37.5216H125.756C122.965 37.5216 120.723 35.3289 120.723 32.6001L120.723 12.5243C120.723 9.79554 122.965 7.6028 125.756 7.6028L146.388 7.6028C146.687 7.6028 146.886 7.40789 146.886 7.11552C146.886 6.82316 146.687 6.62824 146.388 6.62824L125.756 6.62824C122.417 6.62824 119.726 9.25954 119.726 12.5243L119.726 32.6001C119.726 35.8649 122.417 38.4962 125.756 38.4962H129.593V47.5595ZM163.871 34.3126L163.867 34.3208C163.868 34.3181 163.869 34.3154 163.871 34.3126ZM166.805 14.685C166.81 14.6956 166.815 14.7063 166.82 14.717C167.063 15.1454 167.117 15.6668 167.026 16.1903C167.024 16.2027 167.022 16.2152 167.019 16.2276L165.275 27.0452C165.275 27.0453 165.275 27.045 165.275 27.0452C165.274 27.0574 165.272 27.07 165.271 27.0821C164.956 29.5842 162.925 30.115 161.338 30.115L147.883 30.115C146.784 30.115 145.81 29.541 145.262 28.6855C145.149 28.5084 145.053 28.3192 144.979 28.1205C144.955 28.0554 144.932 27.9893 144.913 27.9223C144.906 27.9007 144.9 27.8791 144.894 27.8573C144.828 27.6131 144.793 27.3572 144.793 27.0939V15.6916C144.793 15.3037 144.698 14.937 144.529 14.6127C144.341 14.2525 144.063 13.9446 143.723 13.7181C143.332 13.4569 142.859 13.3039 142.351 13.3039H139.56C138.215 13.3039 137.118 14.3759 137.118 15.6916V27.971C137.118 29.2866 138.215 30.3586 139.56 30.3586L142.351 30.3586C142.775 30.3586 143.174 30.2489 143.523 30.0537C143.824 29.8852 144.088 29.6531 144.299 29.373C144.332 29.3291 144.364 29.2841 144.394 29.2379C144.431 29.2932 144.469 29.3478 144.509 29.4014C144.708 29.6737 144.938 29.9232 145.195 30.143C145.912 30.7564 146.836 31.1383 147.883 31.1383L161.288 31.1383C161.305 31.1383 161.322 31.1382 161.338 31.1381C164.15 31.1211 165.925 29.6619 166.222 27.1913L167.966 16.3738C167.966 16.374 167.966 16.3736 167.966 16.3738C168.113 15.6545 168.019 14.9818 167.778 14.3104C167.775 14.2998 167.771 14.2891 167.767 14.2785C167.758 14.2584 167.749 14.2384 167.74 14.2185C167.078 12.7901 165.601 11.8421 163.979 11.8421L156.903 11.8421V6.7257C156.903 4.82849 156.307 3.41694 155.214 2.63649C155.212 2.63537 155.211 2.63426 155.209 2.63315C155.209 2.63295 155.209 2.63334 155.209 2.63315C153.834 1.66173 152.076 1.86429 151.287 2.03387C151.047 2.08545 150.896 2.13393 150.873 2.1453C150.673 2.24275 150.524 2.43766 150.524 2.63257V7.99262C150.524 11.7208 146.825 13.3822 145.529 13.8458C145.507 13.8534 145.486 13.8607 145.466 13.8677C145.421 13.8835 145.379 13.8977 145.341 13.9103C145.203 13.956 145.115 13.9806 145.092 13.9861C145.051 13.9941 145.014 14.0084 144.979 14.028C144.799 14.1286 144.701 14.3668 144.743 14.5709C144.789 14.7965 145.049 14.9803 145.285 14.9289C145.3 14.9256 145.315 14.9213 145.33 14.916C145.334 14.9147 145.337 14.9134 145.341 14.912C145.358 14.912 145.549 14.8609 145.854 14.7507C145.855 14.7503 145.856 14.7499 145.857 14.7495C147.344 14.2117 151.521 12.2739 151.521 7.99262V3.02239C151.549 3.01602 151.578 3.00965 151.609 3.00335C151.643 2.99655 151.678 2.98984 151.714 2.9833C152.415 2.85748 153.648 2.79682 154.598 3.45208C154.599 3.45272 154.599 3.45337 154.6 3.45402C154.604 3.45632 154.607 3.45863 154.61 3.46094C155.449 4.03975 155.897 5.14376 155.906 6.7257C155.906 6.74189 155.906 6.75813 155.906 6.77443V12.3781C155.906 12.6705 156.105 12.8654 156.404 12.8654L163.979 12.8654C165.19 12.8654 166.26 13.5558 166.777 14.6236C166.786 14.6439 166.796 14.6644 166.805 14.685ZM152.711 4.06721C152.753 4.06836 152.795 4.07026 152.837 4.07301C153.256 4.10031 153.63 4.20558 153.918 4.40687L153.923 4.41062C154.31 4.6778 154.716 5.3299 154.716 6.77443V12.3781C154.716 12.7882 154.861 13.2204 155.201 13.5532C155.541 13.8861 155.984 14.0282 156.404 14.0282L163.979 14.0282C164.731 14.0282 165.41 14.4657 165.728 15.1803L165.751 15.232L165.779 15.2813C165.86 15.4241 165.913 15.6704 165.848 16.0198L165.845 16.0332L164.095 26.8881L164.092 26.912C163.983 27.8433 163.589 28.2865 163.167 28.5408C162.684 28.832 162.026 28.9522 161.338 28.9522L147.883 28.9522C146.847 28.9522 145.983 28.1095 145.983 27.0939V15.9389C145.994 15.9354 146.005 15.9318 146.017 15.9281C146.221 15.8606 146.496 15.7609 146.819 15.6255C147.461 15.356 148.312 14.9357 149.167 14.331C150.871 13.1254 152.711 11.0876 152.711 7.99262V4.06721ZM144.806 12.857C144.807 12.8567 144.808 12.8564 144.809 12.8561C144.858 12.8418 145.142 12.7576 145.555 12.5843C146.017 12.3901 146.609 12.0971 147.187 11.6904C148.348 10.873 149.333 9.69503 149.333 7.99262V2.63257C149.333 1.88297 149.854 1.34292 150.34 1.10544C150.43 1.06159 150.52 1.03252 150.54 1.02611L150.543 1.02526C150.586 1.01122 150.635 0.996553 150.688 0.981809C150.795 0.952114 150.933 0.918015 151.095 0.884699C151.419 0.818305 151.858 0.75162 152.361 0.733518C153.349 0.698008 154.711 0.846275 155.906 1.69022L155.909 1.69247C157.425 2.77022 158.093 4.61255 158.093 6.7257V10.6793L163.979 10.6793C166.104 10.6793 168.025 11.9343 168.859 13.8165L168.875 13.8517L168.888 13.8877C169.188 14.7099 169.333 15.6015 169.139 16.5767L167.401 27.3507C167.218 28.835 166.572 30.1047 165.465 30.9946C164.362 31.8811 162.914 32.3011 161.288 32.3011L147.883 32.3011C146.474 32.3011 145.247 31.7665 144.321 30.9382C143.756 31.3054 143.082 31.5215 142.351 31.5215L139.56 31.5215C137.556 31.5215 135.928 29.9277 135.928 27.971V15.6916C135.928 13.7349 137.556 12.1411 139.56 12.1411H142.351C143.205 12.1411 143.991 12.4307 144.612 12.9146C144.674 12.8919 144.739 12.8725 144.806 12.857ZM143.763 28.2252C143.723 28.4009 143.651 28.5644 143.551 28.7091C143.292 29.0866 142.851 29.3354 142.351 29.3354L139.56 29.3354C138.78 29.3354 138.142 28.7281 138.116 27.971C138.115 27.9548 138.115 27.9386 138.115 27.9223V15.6916C138.115 14.912 138.763 14.2785 139.56 14.2785H142.351C143.148 14.2785 143.796 14.912 143.796 15.6916V27.9223C143.796 27.9479 143.795 27.9734 143.794 27.9987C143.79 28.076 143.779 28.1517 143.763 28.2252ZM142.606 15.6916C142.606 15.5531 142.49 15.4413 142.351 15.4413H139.56C139.421 15.4413 139.305 15.5531 139.305 15.6916V27.9223C139.305 28.0608 139.421 28.1725 139.56 28.1725L142.351 28.1725C142.49 28.1725 142.606 28.0608 142.606 27.9223V15.6916Z" fill="#30D5C8" fill-opacity="0.2"/>
<path d="M11.1909 111.057H14.9349C15.6923 111.057 16.3056 110.865 16.7749 110.481C17.2443 110.097 17.4789 109.51 17.4789 108.721C17.4789 107.931 17.2443 107.345 16.7749 106.961C16.3056 106.577 15.6923 106.385 14.9349 106.385H11.1909V111.057ZM10.1029 105.457H15.1749C15.6869 105.457 16.1509 105.531 16.5669 105.681C16.9829 105.819 17.3403 106.033 17.6389 106.321C17.9376 106.598 18.1669 106.939 18.3269 107.345C18.4869 107.75 18.5669 108.209 18.5669 108.721C18.5669 109.233 18.4869 109.691 18.3269 110.097C18.1669 110.502 17.9376 110.849 17.6389 111.137C17.3403 111.414 16.9829 111.627 16.5669 111.777C16.1509 111.915 15.6869 111.985 15.1749 111.985H11.1909V116.881H10.1029V105.457ZM23.4771 109.233C22.9971 109.233 22.5757 109.334 22.2131 109.537C21.8504 109.739 21.5464 110.006 21.3011 110.337C21.0664 110.667 20.8851 111.046 20.7571 111.473C20.6397 111.889 20.5811 112.315 20.5811 112.753C20.5811 113.19 20.6397 113.622 20.7571 114.049C20.8851 114.465 21.0664 114.838 21.3011 115.169C21.5464 115.499 21.8504 115.766 22.2131 115.969C22.5757 116.171 22.9971 116.273 23.4771 116.273C23.9571 116.273 24.3784 116.171 24.7411 115.969C25.1037 115.766 25.4024 115.499 25.6371 115.169C25.8824 114.838 26.0637 114.465 26.1811 114.049C26.3091 113.622 26.3731 113.19 26.3731 112.753C26.3731 112.315 26.3091 111.889 26.1811 111.473C26.0637 111.046 25.8824 110.667 25.6371 110.337C25.4024 110.006 25.1037 109.739 24.7411 109.537C24.3784 109.334 23.9571 109.233 23.4771 109.233ZM23.4771 108.385C24.1064 108.385 24.6611 108.502 25.1411 108.737C25.6317 108.971 26.0424 109.286 26.3731 109.681C26.7037 110.075 26.9544 110.539 27.1251 111.073C27.2957 111.595 27.3811 112.155 27.3811 112.753C27.3811 113.35 27.2957 113.915 27.1251 114.449C26.9544 114.971 26.7037 115.43 26.3731 115.825C26.0424 116.219 25.6317 116.534 25.1411 116.769C24.6611 116.993 24.1064 117.105 23.4771 117.105C22.8477 117.105 22.2877 116.993 21.7971 116.769C21.3171 116.534 20.9117 116.219 20.5811 115.825C20.2504 115.43 19.9997 114.971 19.8291 114.449C19.6584 113.915 19.5731 113.35 19.5731 112.753C19.5731 112.155 19.6584 111.595 19.8291 111.073C19.9997 110.539 20.2504 110.075 20.5811 109.681C20.9117 109.286 21.3171 108.971 21.7971 108.737C22.2877 108.502 22.8477 108.385 23.4771 108.385ZM28.0477 108.625H29.1197L31.2317 115.697H31.2637L33.2797 108.625H34.4157L36.4317 115.697H36.4637L38.5757 108.625H39.6477L36.9917 116.881H35.8877L33.8557 109.937H33.8237L31.8077 116.881H30.7037L28.0477 108.625ZM46.6751 112.177C46.6644 111.793 46.5951 111.425 46.4671 111.073C46.3497 110.721 46.1791 110.411 45.9551 110.145C45.7311 109.867 45.4591 109.649 45.1391 109.489C44.8191 109.318 44.4564 109.233 44.0511 109.233C43.6351 109.233 43.2671 109.318 42.9471 109.489C42.6271 109.649 42.3551 109.867 42.1311 110.145C41.9071 110.411 41.7257 110.726 41.5871 111.089C41.4591 111.441 41.3737 111.803 41.3311 112.177H46.6751ZM41.3311 113.025C41.3311 113.387 41.3791 113.766 41.4751 114.161C41.5817 114.545 41.7471 114.891 41.9711 115.201C42.1951 115.51 42.4777 115.766 42.8191 115.969C43.1604 116.171 43.5711 116.273 44.0511 116.273C44.7871 116.273 45.3631 116.081 45.7791 115.697C46.1951 115.313 46.4831 114.801 46.6431 114.161H47.6511C47.4377 115.099 47.0431 115.825 46.4671 116.337C45.9017 116.849 45.0964 117.105 44.0511 117.105C43.4004 117.105 42.8351 116.993 42.3551 116.769C41.8857 116.534 41.5017 116.219 41.2031 115.825C40.9044 115.419 40.6804 114.955 40.5311 114.433C40.3924 113.899 40.3231 113.339 40.3231 112.753C40.3231 112.209 40.3924 111.675 40.5311 111.153C40.6804 110.63 40.9044 110.166 41.2031 109.761C41.5017 109.345 41.8857 109.014 42.3551 108.769C42.8351 108.513 43.4004 108.385 44.0511 108.385C44.7124 108.385 45.2777 108.518 45.7471 108.785C46.2164 109.051 46.5951 109.403 46.8831 109.841C47.1817 110.267 47.3951 110.763 47.5231 111.329C47.6511 111.883 47.7044 112.449 47.6831 113.025H41.3311ZM49.0359 108.625H49.9639V110.561H49.9959C50.2519 109.889 50.6466 109.371 51.1799 109.009C51.7239 108.646 52.3693 108.481 53.1159 108.513V109.521C52.6573 109.499 52.2413 109.563 51.8679 109.713C51.4946 109.851 51.1693 110.054 50.8919 110.321C50.6253 110.587 50.4173 110.907 50.2679 111.281C50.1186 111.643 50.0439 112.043 50.0439 112.481V116.881H49.0359V108.625ZM59.7376 112.177C59.7269 111.793 59.6576 111.425 59.5296 111.073C59.4122 110.721 59.2416 110.411 59.0176 110.145C58.7936 109.867 58.5216 109.649 58.2016 109.489C57.8816 109.318 57.5189 109.233 57.1136 109.233C56.6976 109.233 56.3296 109.318 56.0096 109.489C55.6896 109.649 55.4176 109.867 55.1936 110.145C54.9696 110.411 54.7882 110.726 54.6496 111.089C54.5216 111.441 54.4362 111.803 54.3936 112.177H59.7376ZM54.3936 113.025C54.3936 113.387 54.4416 113.766 54.5376 114.161C54.6442 114.545 54.8096 114.891 55.0336 115.201C55.2576 115.51 55.5402 115.766 55.8816 115.969C56.2229 116.171 56.6336 116.273 57.1136 116.273C57.8496 116.273 58.4256 116.081 58.8416 115.697C59.2576 115.313 59.5456 114.801 59.7056 114.161H60.7136C60.5002 115.099 60.1056 115.825 59.5296 116.337C58.9642 116.849 58.1589 117.105 57.1136 117.105C56.4629 117.105 55.8976 116.993 55.4176 116.769C54.9482 116.534 54.5642 116.219 54.2656 115.825C53.9669 115.419 53.7429 114.955 53.5936 114.433C53.4549 113.899 53.3856 113.339 53.3856 112.753C53.3856 112.209 53.4549 111.675 53.5936 111.153C53.7429 110.63 53.9669 110.166 54.2656 109.761C54.5642 109.345 54.9482 109.014 55.4176 108.769C55.8976 108.513 56.4629 108.385 57.1136 108.385C57.7749 108.385 58.3402 108.518 58.8096 108.785C59.2789 109.051 59.6576 109.403 59.9456 109.841C60.2442 110.267 60.4576 110.763 60.5856 111.329C60.7136 111.883 60.7669 112.449 60.7456 113.025H54.3936ZM69.3624 116.881H68.4344V115.313H68.4024C68.2958 115.579 68.1358 115.825 67.9224 116.049C67.7198 116.273 67.4851 116.465 67.2184 116.625C66.9518 116.774 66.6638 116.891 66.3544 116.977C66.0558 117.062 65.7571 117.105 65.4584 117.105C64.8291 117.105 64.2798 116.993 63.8104 116.769C63.3518 116.534 62.9678 116.219 62.6584 115.825C62.3491 115.419 62.1198 114.955 61.9704 114.433C61.8211 113.899 61.7464 113.339 61.7464 112.753C61.7464 112.166 61.8211 111.611 61.9704 111.089C62.1198 110.555 62.3491 110.091 62.6584 109.697C62.9678 109.291 63.3518 108.971 63.8104 108.737C64.2798 108.502 64.8291 108.385 65.4584 108.385C65.7678 108.385 66.0664 108.422 66.3544 108.497C66.6531 108.571 66.9304 108.689 67.1864 108.849C67.4424 108.998 67.6664 109.185 67.8584 109.409C68.0611 109.633 68.2158 109.894 68.3224 110.193H68.3544V105.457H69.3624V116.881ZM62.7544 112.753C62.7544 113.179 62.8024 113.606 62.8984 114.033C63.0051 114.449 63.1651 114.822 63.3784 115.153C63.6024 115.483 63.8851 115.755 64.2264 115.969C64.5678 116.171 64.9784 116.273 65.4584 116.273C65.9918 116.273 66.4398 116.171 66.8024 115.969C67.1758 115.755 67.4744 115.483 67.6984 115.153C67.9331 114.822 68.0984 114.449 68.1944 114.033C68.3011 113.606 68.3544 113.179 68.3544 112.753C68.3544 112.326 68.3011 111.905 68.1944 111.489C68.0984 111.062 67.9331 110.683 67.6984 110.353C67.4744 110.022 67.1758 109.755 66.8024 109.553C66.4398 109.339 65.9918 109.233 65.4584 109.233C64.9784 109.233 64.5678 109.339 64.2264 109.553C63.8851 109.755 63.6024 110.022 63.3784 110.353C63.1651 110.683 63.0051 111.062 62.8984 111.489C62.8024 111.905 62.7544 112.326 62.7544 112.753ZM75.7391 105.457H76.7471V110.193H76.7791C76.8857 109.894 77.0351 109.633 77.2271 109.409C77.4297 109.185 77.6591 108.998 77.9151 108.849C78.1711 108.689 78.4484 108.571 78.7471 108.497C79.0457 108.422 79.3444 108.385 79.6431 108.385C80.2724 108.385 80.8164 108.502 81.2751 108.737C81.7444 108.971 82.1337 109.291 82.4431 109.697C82.7524 110.091 82.9817 110.555 83.1311 111.089C83.2804 111.611 83.3551 112.166 83.3551 112.753C83.3551 113.339 83.2804 113.899 83.1311 114.433C82.9817 114.955 82.7524 115.419 82.4431 115.825C82.1337 116.219 81.7444 116.534 81.2751 116.769C80.8164 116.993 80.2724 117.105 79.6431 117.105C78.9711 117.105 78.3684 116.95 77.8351 116.641C77.3124 116.331 76.9337 115.889 76.6991 115.313H76.6671V116.881H75.7391V105.457ZM82.3471 112.753C82.3471 112.326 82.2937 111.905 82.1871 111.489C82.0911 111.062 81.9311 110.683 81.7071 110.353C81.4937 110.022 81.2164 109.755 80.8751 109.553C80.5337 109.339 80.1231 109.233 79.6431 109.233C79.1097 109.233 78.6564 109.339 78.2831 109.553C77.9204 109.755 77.6217 110.022 77.3871 110.353C77.1631 110.683 76.9977 111.062 76.8911 111.489C76.7951 111.905 76.7471 112.326 76.7471 112.753C76.7471 113.179 76.7951 113.606 76.8911 114.033C76.9977 114.449 77.1631 114.822 77.3871 115.153C77.6217 115.483 77.9204 115.755 78.2831 115.969C78.6564 116.171 79.1097 116.273 79.6431 116.273C80.1231 116.273 80.5337 116.171 80.8751 115.969C81.2164 115.755 81.4937 115.483 81.7071 115.153C81.9311 114.822 82.0911 114.449 82.1871 114.033C82.2937 113.606 82.3471 113.179 82.3471 112.753ZM83.9986 108.625H85.0706L87.7906 115.665L90.3346 108.625H91.3426L87.7586 118.129C87.6092 118.481 87.4706 118.769 87.3426 118.993C87.2146 119.227 87.0706 119.409 86.9106 119.537C86.7612 119.675 86.5799 119.771 86.3666 119.825C86.1639 119.889 85.9026 119.921 85.5826 119.921C85.3799 119.91 85.2199 119.899 85.1026 119.889C84.9959 119.889 84.8999 119.873 84.8146 119.841V118.993C84.9319 119.014 85.0439 119.03 85.1506 119.041C85.2679 119.062 85.3852 119.073 85.5026 119.073C85.7266 119.073 85.9079 119.041 86.0466 118.977C86.1959 118.913 86.3239 118.822 86.4306 118.705C86.5372 118.598 86.6279 118.465 86.7026 118.305C86.7772 118.145 86.8572 117.969 86.9426 117.777L87.2946 116.849L83.9986 108.625ZM98.0659 110.465H101.81C102.247 110.465 102.626 110.417 102.946 110.321C103.266 110.214 103.533 110.075 103.746 109.905C103.959 109.723 104.119 109.515 104.226 109.281C104.333 109.046 104.386 108.795 104.386 108.529C104.386 107.099 103.527 106.385 101.81 106.385H98.0659V110.465ZM96.9779 105.457H101.81C102.29 105.457 102.749 105.505 103.186 105.601C103.634 105.686 104.023 105.841 104.354 106.065C104.695 106.278 104.967 106.566 105.17 106.929C105.373 107.281 105.474 107.723 105.474 108.257C105.474 108.555 105.426 108.849 105.33 109.137C105.234 109.414 105.095 109.67 104.914 109.905C104.743 110.129 104.535 110.321 104.29 110.481C104.055 110.641 103.789 110.753 103.49 110.817V110.849C104.226 110.945 104.813 111.249 105.25 111.761C105.687 112.262 105.906 112.886 105.906 113.633C105.906 113.814 105.89 114.022 105.858 114.257C105.826 114.481 105.762 114.715 105.666 114.961C105.57 115.195 105.431 115.43 105.25 115.665C105.069 115.899 104.823 116.107 104.514 116.289C104.215 116.459 103.842 116.603 103.394 116.721C102.957 116.827 102.429 116.881 101.81 116.881H96.9779V105.457ZM98.0659 115.953H101.81C102.215 115.953 102.599 115.921 102.962 115.857C103.325 115.782 103.645 115.654 103.922 115.473C104.199 115.291 104.418 115.051 104.578 114.753C104.738 114.443 104.818 114.059 104.818 113.601C104.818 112.865 104.557 112.315 104.034 111.953C103.522 111.579 102.781 111.393 101.81 111.393H98.0659V115.953ZM114.146 116.881H113.218V115.393H113.186C112.919 115.947 112.53 116.374 112.018 116.673C111.516 116.961 110.956 117.105 110.338 117.105C109.815 117.105 109.367 117.03 108.994 116.881C108.631 116.742 108.332 116.539 108.098 116.273C107.874 116.006 107.708 115.681 107.602 115.297C107.495 114.913 107.442 114.475 107.442 113.985V108.625H108.45V114.001C108.471 114.747 108.642 115.313 108.962 115.697C109.292 116.081 109.858 116.273 110.658 116.273C111.095 116.273 111.468 116.182 111.778 116.001C112.087 115.809 112.343 115.558 112.546 115.249C112.748 114.939 112.898 114.587 112.994 114.193C113.09 113.787 113.138 113.377 113.138 112.961V108.625H114.146V116.881ZM115.124 108.625H116.196L118.916 115.665L121.46 108.625H122.468L118.884 118.129C118.734 118.481 118.596 118.769 118.468 118.993C118.34 119.227 118.196 119.409 118.036 119.537C117.886 119.675 117.705 119.771 117.492 119.825C117.289 119.889 117.028 119.921 116.708 119.921C116.505 119.91 116.345 119.899 116.228 119.889C116.121 119.889 116.025 119.873 115.94 119.841V118.993C116.057 119.014 116.169 119.03 116.276 119.041C116.393 119.062 116.51 119.073 116.628 119.073C116.852 119.073 117.033 119.041 117.172 118.977C117.321 118.913 117.449 118.822 117.556 118.705C117.662 118.598 117.753 118.465 117.828 118.305C117.902 118.145 117.982 117.969 118.068 117.777L118.42 116.849L115.124 108.625ZM129.394 112.177C129.383 111.793 129.314 111.425 129.186 111.073C129.068 110.721 128.898 110.411 128.674 110.145C128.45 109.867 128.178 109.649 127.858 109.489C127.538 109.318 127.175 109.233 126.77 109.233C126.354 109.233 125.986 109.318 125.666 109.489C125.346 109.649 125.074 109.867 124.85 110.145C124.626 110.411 124.444 110.726 124.306 111.089C124.178 111.441 124.092 111.803 124.05 112.177H129.394ZM124.05 113.025C124.05 113.387 124.098 113.766 124.194 114.161C124.3 114.545 124.466 114.891 124.69 115.201C124.914 115.51 125.196 115.766 125.538 115.969C125.879 116.171 126.29 116.273 126.77 116.273C127.506 116.273 128.082 116.081 128.498 115.697C128.914 115.313 129.202 114.801 129.362 114.161H130.37C130.156 115.099 129.762 115.825 129.186 116.337C128.62 116.849 127.815 117.105 126.77 117.105C126.119 117.105 125.554 116.993 125.074 116.769C124.604 116.534 124.22 116.219 123.922 115.825C123.623 115.419 123.399 114.955 123.25 114.433C123.111 113.899 123.042 113.339 123.042 112.753C123.042 112.209 123.111 111.675 123.25 111.153C123.399 110.63 123.623 110.166 123.922 109.761C124.22 109.345 124.604 109.014 125.074 108.769C125.554 108.513 126.119 108.385 126.77 108.385C127.431 108.385 127.996 108.518 128.466 108.785C128.935 109.051 129.314 109.403 129.602 109.841C129.9 110.267 130.114 110.763 130.242 111.329C130.37 111.883 130.423 112.449 130.402 113.025H124.05ZM131.755 108.625H132.683V110.561H132.715C132.971 109.889 133.365 109.371 133.899 109.009C134.443 108.646 135.088 108.481 135.835 108.513V109.521C135.376 109.499 134.96 109.563 134.587 109.713C134.213 109.851 133.888 110.054 133.611 110.321C133.344 110.587 133.136 110.907 132.987 111.281C132.837 111.643 132.763 112.043 132.763 112.481V116.881H131.755V108.625ZM147.191 112.177C147.18 111.793 147.111 111.425 146.983 111.073C146.865 110.721 146.695 110.411 146.471 110.145C146.247 109.867 145.975 109.649 145.655 109.489C145.335 109.318 144.972 109.233 144.567 109.233C144.151 109.233 143.783 109.318 143.463 109.489C143.143 109.649 142.871 109.867 142.647 110.145C142.423 110.411 142.241 110.726 142.103 111.089C141.975 111.441 141.889 111.803 141.847 112.177H147.191ZM141.847 113.025C141.847 113.387 141.895 113.766 141.991 114.161C142.097 114.545 142.263 114.891 142.487 115.201C142.711 115.51 142.993 115.766 143.335 115.969C143.676 116.171 144.087 116.273 144.567 116.273C145.303 116.273 145.879 116.081 146.295 115.697C146.711 115.313 146.999 114.801 147.159 114.161H148.167C147.953 115.099 147.559 115.825 146.983 116.337C146.417 116.849 145.612 117.105 144.567 117.105C143.916 117.105 143.351 116.993 142.871 116.769C142.401 116.534 142.017 116.219 141.719 115.825C141.42 115.419 141.196 114.955 141.047 114.433C140.908 113.899 140.839 113.339 140.839 112.753C140.839 112.209 140.908 111.675 141.047 111.153C141.196 110.63 141.42 110.166 141.719 109.761C142.017 109.345 142.401 109.014 142.871 108.769C143.351 108.513 143.916 108.385 144.567 108.385C145.228 108.385 145.793 108.518 146.263 108.785C146.732 109.051 147.111 109.403 147.399 109.841C147.697 110.267 147.911 110.763 148.039 111.329C148.167 111.883 148.22 112.449 148.199 113.025H141.847ZM151.808 112.593L148.848 108.625H150.112L152.464 111.761L154.768 108.625H156.032L153.056 112.577L156.272 116.881H154.992L152.4 113.409L149.856 116.881H148.608L151.808 112.593ZM157.255 108.625H158.183V110.193H158.215C158.449 109.617 158.828 109.174 159.351 108.865C159.884 108.545 160.487 108.385 161.159 108.385C161.788 108.385 162.332 108.502 162.791 108.737C163.26 108.971 163.649 109.291 163.959 109.697C164.268 110.091 164.497 110.555 164.647 111.089C164.796 111.611 164.871 112.166 164.871 112.753C164.871 113.339 164.796 113.899 164.647 114.433C164.497 114.955 164.268 115.419 163.959 115.825C163.649 116.219 163.26 116.534 162.791 116.769C162.332 116.993 161.788 117.105 161.159 117.105C160.86 117.105 160.561 117.067 160.263 116.993C159.964 116.918 159.687 116.806 159.431 116.657C159.175 116.507 158.945 116.321 158.743 116.097C158.551 115.873 158.401 115.611 158.295 115.313H158.263V119.921H157.255V108.625ZM163.863 112.753C163.863 112.326 163.809 111.905 163.703 111.489C163.607 111.062 163.447 110.683 163.223 110.353C163.009 110.022 162.732 109.755 162.391 109.553C162.049 109.339 161.639 109.233 161.159 109.233C160.604 109.233 160.14 109.329 159.767 109.521C159.393 109.713 159.095 109.969 158.871 110.289C158.647 110.609 158.487 110.982 158.391 111.409C158.305 111.835 158.263 112.283 158.263 112.753C158.263 113.179 158.311 113.606 158.407 114.033C158.513 114.449 158.679 114.822 158.903 115.153C159.137 115.483 159.436 115.755 159.799 115.969C160.172 116.171 160.625 116.273 161.159 116.273C161.639 116.273 162.049 116.171 162.391 115.969C162.732 115.755 163.009 115.483 163.223 115.153C163.447 114.822 163.607 114.449 163.703 114.033C163.809 113.606 163.863 113.179 163.863 112.753ZM172.378 112.177C172.368 111.793 172.298 111.425 172.17 111.073C172.053 110.721 171.882 110.411 171.658 110.145C171.434 109.867 171.162 109.649 170.842 109.489C170.522 109.318 170.16 109.233 169.754 109.233C169.338 109.233 168.97 109.318 168.65 109.489C168.33 109.649 168.058 109.867 167.834 110.145C167.61 110.411 167.429 110.726 167.29 111.089C167.162 111.441 167.077 111.803 167.034 112.177H172.378ZM167.034 113.025C167.034 113.387 167.082 113.766 167.178 114.161C167.285 114.545 167.45 114.891 167.674 115.201C167.898 115.51 168.181 115.766 168.522 115.969C168.864 116.171 169.274 116.273 169.754 116.273C170.49 116.273 171.066 116.081 171.482 115.697C171.898 115.313 172.186 114.801 172.346 114.161H173.354C173.141 115.099 172.746 115.825 172.17 116.337C171.605 116.849 170.8 117.105 169.754 117.105C169.104 117.105 168.538 116.993 168.058 116.769C167.589 116.534 167.205 116.219 166.906 115.825C166.608 115.419 166.384 114.955 166.234 114.433C166.096 113.899 166.026 113.339 166.026 112.753C166.026 112.209 166.096 111.675 166.234 111.153C166.384 110.63 166.608 110.166 166.906 109.761C167.205 109.345 167.589 109.014 168.058 108.769C168.538 108.513 169.104 108.385 169.754 108.385C170.416 108.385 170.981 108.518 171.45 108.785C171.92 109.051 172.298 109.403 172.586 109.841C172.885 110.267 173.098 110.763 173.226 111.329C173.354 111.883 173.408 112.449 173.386 113.025H167.034ZM174.739 108.625H175.667V110.561H175.699C175.955 109.889 176.35 109.371 176.883 109.009C177.427 108.646 178.072 108.481 178.819 108.513V109.521C178.36 109.499 177.944 109.563 177.571 109.713C177.198 109.851 176.872 110.054 176.595 110.321C176.328 110.587 176.12 110.907 175.971 111.281C175.822 111.643 175.747 112.043 175.747 112.481V116.881H174.739V108.625ZM179.802 105.457H180.81V107.073H179.802V105.457ZM179.802 108.625H180.81V116.881H179.802V108.625ZM188.675 112.177C188.664 111.793 188.595 111.425 188.467 111.073C188.35 110.721 188.179 110.411 187.955 110.145C187.731 109.867 187.459 109.649 187.139 109.489C186.819 109.318 186.456 109.233 186.051 109.233C185.635 109.233 185.267 109.318 184.947 109.489C184.627 109.649 184.355 109.867 184.131 110.145C183.907 110.411 183.726 110.726 183.587 111.089C183.459 111.441 183.374 111.803 183.331 112.177H188.675ZM183.331 113.025C183.331 113.387 183.379 113.766 183.475 114.161C183.582 114.545 183.747 114.891 183.971 115.201C184.195 115.51 184.478 115.766 184.819 115.969C185.16 116.171 185.571 116.273 186.051 116.273C186.787 116.273 187.363 116.081 187.779 115.697C188.195 115.313 188.483 114.801 188.643 114.161H189.651C189.438 115.099 189.043 115.825 188.467 116.337C187.902 116.849 187.096 117.105 186.051 117.105C185.4 117.105 184.835 116.993 184.355 116.769C183.886 116.534 183.502 116.219 183.203 115.825C182.904 115.419 182.68 114.955 182.531 114.433C182.392 113.899 182.323 113.339 182.323 112.753C182.323 112.209 182.392 111.675 182.531 111.153C182.68 110.63 182.904 110.166 183.203 109.761C183.502 109.345 183.886 109.014 184.355 108.769C184.835 108.513 185.4 108.385 186.051 108.385C186.712 108.385 187.278 108.518 187.747 108.785C188.216 109.051 188.595 109.403 188.883 109.841C189.182 110.267 189.395 110.763 189.523 111.329C189.651 111.883 189.704 112.449 189.683 113.025H183.331ZM191.02 108.625H192.028V110.049H192.06C192.252 109.547 192.593 109.147 193.084 108.849C193.575 108.539 194.113 108.385 194.7 108.385C195.276 108.385 195.756 108.459 196.14 108.609C196.535 108.758 196.849 108.971 197.084 109.249C197.319 109.515 197.484 109.846 197.58 110.241C197.676 110.635 197.724 111.078 197.724 111.569V116.881H196.716V111.729C196.716 111.377 196.684 111.051 196.62 110.753C196.556 110.443 196.444 110.177 196.284 109.953C196.124 109.729 195.905 109.553 195.628 109.425C195.361 109.297 195.025 109.233 194.62 109.233C194.215 109.233 193.852 109.307 193.532 109.457C193.223 109.595 192.956 109.793 192.732 110.049C192.519 110.294 192.348 110.593 192.22 110.945C192.103 111.286 192.039 111.659 192.028 112.065V116.881H191.02V108.625ZM205.454 111.217C205.315 110.598 205.059 110.113 204.686 109.761C204.312 109.409 203.79 109.233 203.118 109.233C202.638 109.233 202.216 109.334 201.854 109.537C201.491 109.739 201.187 110.006 200.942 110.337C200.707 110.667 200.526 111.046 200.398 111.473C200.28 111.889 200.222 112.315 200.222 112.753C200.222 113.19 200.28 113.622 200.398 114.049C200.526 114.465 200.707 114.838 200.942 115.169C201.187 115.499 201.491 115.766 201.854 115.969C202.216 116.171 202.638 116.273 203.118 116.273C203.427 116.273 203.72 116.214 203.998 116.097C204.275 115.979 204.52 115.819 204.734 115.617C204.947 115.403 205.123 115.153 205.262 114.865C205.4 114.577 205.486 114.262 205.518 113.921H206.526C206.387 114.923 206.019 115.707 205.422 116.273C204.824 116.827 204.056 117.105 203.118 117.105C202.488 117.105 201.928 116.993 201.438 116.769C200.958 116.534 200.552 116.219 200.222 115.825C199.891 115.43 199.64 114.971 199.47 114.449C199.299 113.915 199.214 113.35 199.214 112.753C199.214 112.155 199.299 111.595 199.47 111.073C199.64 110.539 199.891 110.075 200.222 109.681C200.552 109.286 200.958 108.971 201.438 108.737C201.928 108.502 202.488 108.385 203.118 108.385C204.003 108.385 204.75 108.619 205.358 109.089C205.976 109.558 206.344 110.267 206.462 111.217H205.454ZM213.863 112.177C213.852 111.793 213.783 111.425 213.655 111.073C213.537 110.721 213.367 110.411 213.143 110.145C212.919 109.867 212.647 109.649 212.327 109.489C212.007 109.318 211.644 109.233 211.239 109.233C210.823 109.233 210.455 109.318 210.135 109.489C209.815 109.649 209.543 109.867 209.319 110.145C209.095 110.411 208.913 110.726 208.775 111.089C208.647 111.441 208.561 111.803 208.519 112.177H213.863ZM208.519 113.025C208.519 113.387 208.567 113.766 208.663 114.161C208.769 114.545 208.935 114.891 209.159 115.201C209.383 115.51 209.665 115.766 210.007 115.969C210.348 116.171 210.759 116.273 211.239 116.273C211.975 116.273 212.551 116.081 212.967 115.697C213.383 115.313 213.671 114.801 213.831 114.161H214.839C214.625 115.099 214.231 115.825 213.655 116.337C213.089 116.849 212.284 117.105 211.239 117.105C210.588 117.105 210.023 116.993 209.543 116.769C209.073 116.534 208.689 116.219 208.391 115.825C208.092 115.419 207.868 114.955 207.719 114.433C207.58 113.899 207.511 113.339 207.511 112.753C207.511 112.209 207.58 111.675 207.719 111.153C207.868 110.63 208.092 110.166 208.391 109.761C208.689 109.345 209.073 109.014 209.543 108.769C210.023 108.513 210.588 108.385 211.239 108.385C211.9 108.385 212.465 108.518 212.935 108.785C213.404 109.051 213.783 109.403 214.071 109.841C214.369 110.267 214.583 110.763 214.711 111.329C214.839 111.883 214.892 112.449 214.871 113.025H208.519ZM224.261 106.305C223.845 106.305 223.487 106.433 223.189 106.689C222.89 106.934 222.741 107.297 222.741 107.777C222.741 107.979 222.783 108.187 222.869 108.401C222.954 108.603 223.061 108.806 223.189 109.009C223.317 109.201 223.455 109.393 223.605 109.585C223.754 109.766 223.893 109.931 224.021 110.081C224.223 109.953 224.426 109.814 224.629 109.665C224.842 109.515 225.034 109.35 225.205 109.169C225.375 108.977 225.514 108.769 225.621 108.545C225.727 108.31 225.781 108.054 225.781 107.777C225.781 107.297 225.631 106.934 225.333 106.689C225.034 106.433 224.677 106.305 224.261 106.305ZM227.157 115.393C226.741 115.915 226.245 116.331 225.669 116.641C225.093 116.95 224.469 117.105 223.797 117.105C223.306 117.105 222.847 117.035 222.421 116.897C222.005 116.758 221.642 116.555 221.333 116.289C221.023 116.022 220.778 115.691 220.597 115.297C220.426 114.902 220.341 114.443 220.341 113.921C220.341 113.515 220.426 113.142 220.597 112.801C220.767 112.459 220.986 112.15 221.253 111.873C221.53 111.595 221.834 111.345 222.165 111.121C222.495 110.897 222.821 110.699 223.141 110.529C222.981 110.326 222.815 110.123 222.645 109.921C222.485 109.707 222.335 109.489 222.197 109.265C222.069 109.041 221.957 108.806 221.861 108.561C221.775 108.315 221.733 108.054 221.733 107.777C221.733 107.425 221.797 107.11 221.925 106.833C222.063 106.545 222.245 106.299 222.469 106.097C222.703 105.894 222.97 105.739 223.269 105.633C223.578 105.515 223.909 105.457 224.261 105.457C224.613 105.457 224.938 105.515 225.237 105.633C225.546 105.739 225.813 105.894 226.037 106.097C226.271 106.299 226.453 106.545 226.581 106.833C226.719 107.11 226.789 107.425 226.789 107.777C226.789 108.129 226.725 108.449 226.597 108.737C226.469 109.025 226.298 109.286 226.085 109.521C225.882 109.755 225.647 109.974 225.381 110.177C225.114 110.369 224.837 110.555 224.549 110.737L227.045 113.745C227.183 113.467 227.274 113.19 227.317 112.913C227.359 112.625 227.381 112.262 227.381 111.825H228.389C228.389 112.145 228.341 112.561 228.245 113.073C228.159 113.574 227.983 114.07 227.717 114.561L229.637 116.881H228.373L227.157 115.393ZM223.685 111.185C223.407 111.334 223.13 111.499 222.853 111.681C222.575 111.862 222.325 112.07 222.101 112.305C221.877 112.539 221.695 112.801 221.557 113.089C221.418 113.366 221.349 113.675 221.349 114.017C221.349 114.347 221.418 114.651 221.557 114.929C221.695 115.206 221.877 115.446 222.101 115.649C222.335 115.851 222.602 116.006 222.901 116.113C223.199 116.219 223.509 116.273 223.829 116.273C224.405 116.273 224.917 116.118 225.365 115.809C225.823 115.489 226.213 115.099 226.533 114.641L223.685 111.185ZM66.7223 137.881H65.9383L65.7943 135.801H65.7623C65.5703 136.206 65.3303 136.558 65.0423 136.857C64.765 137.145 64.4556 137.385 64.1143 137.577C63.773 137.758 63.405 137.891 63.0103 137.977C62.6263 138.062 62.2263 138.105 61.8103 138.105C60.9143 138.105 60.125 137.945 59.4423 137.625C58.7703 137.294 58.2103 136.857 57.7623 136.313C57.3143 135.769 56.9783 135.139 56.7543 134.425C56.5303 133.71 56.4183 132.958 56.4183 132.169C56.4183 131.379 56.5303 130.627 56.7543 129.913C56.9783 129.198 57.3143 128.569 57.7623 128.025C58.2103 127.47 58.7703 127.033 59.4423 126.713C60.125 126.382 60.9143 126.217 61.8103 126.217C62.4076 126.217 62.973 126.297 63.5063 126.457C64.0396 126.617 64.5143 126.857 64.9303 127.177C65.3463 127.497 65.6983 127.891 65.9863 128.361C66.2743 128.83 66.4716 129.379 66.5783 130.009H65.4903C65.4583 129.678 65.3463 129.347 65.1543 129.017C64.973 128.675 64.7223 128.366 64.4023 128.089C64.093 127.811 63.7196 127.587 63.2823 127.417C62.845 127.235 62.3543 127.145 61.8103 127.145C61.053 127.145 60.4023 127.289 59.8583 127.577C59.3143 127.865 58.8663 128.249 58.5143 128.729C58.173 129.198 57.917 129.731 57.7463 130.329C57.5863 130.926 57.5063 131.539 57.5063 132.169C57.5063 132.787 57.5863 133.401 57.7463 134.009C57.917 134.606 58.173 135.145 58.5143 135.625C58.8663 136.094 59.3143 136.473 59.8583 136.761C60.4023 137.049 61.053 137.193 61.8103 137.193C62.4396 137.193 62.9996 137.091 63.4903 136.889C63.9916 136.675 64.413 136.382 64.7543 136.009C65.0956 135.635 65.3516 135.193 65.5223 134.681C65.693 134.169 65.773 133.609 65.7623 133.001H61.8743V132.073H66.7223V137.881ZM74.5657 133.177C74.555 132.793 74.4857 132.425 74.3577 132.073C74.2403 131.721 74.0697 131.411 73.8457 131.145C73.6217 130.867 73.3497 130.649 73.0297 130.489C72.7097 130.318 72.347 130.233 71.9417 130.233C71.5257 130.233 71.1577 130.318 70.8377 130.489C70.5177 130.649 70.2457 130.867 70.0217 131.145C69.7977 131.411 69.6163 131.726 69.4777 132.089C69.3497 132.441 69.2643 132.803 69.2217 133.177H74.5657ZM69.2217 134.025C69.2217 134.387 69.2697 134.766 69.3657 135.161C69.4723 135.545 69.6377 135.891 69.8617 136.201C70.0857 136.51 70.3683 136.766 70.7097 136.969C71.051 137.171 71.4617 137.273 71.9417 137.273C72.6777 137.273 73.2537 137.081 73.6697 136.697C74.0857 136.313 74.3737 135.801 74.5337 135.161H75.5417C75.3283 136.099 74.9337 136.825 74.3577 137.337C73.7923 137.849 72.987 138.105 71.9417 138.105C71.291 138.105 70.7257 137.993 70.2457 137.769C69.7763 137.534 69.3923 137.219 69.0937 136.825C68.795 136.419 68.571 135.955 68.4217 135.433C68.283 134.899 68.2137 134.339 68.2137 133.753C68.2137 133.209 68.283 132.675 68.4217 132.153C68.571 131.63 68.795 131.166 69.0937 130.761C69.3923 130.345 69.7763 130.014 70.2457 129.769C70.7257 129.513 71.291 129.385 71.9417 129.385C72.603 129.385 73.1683 129.518 73.6377 129.785C74.107 130.051 74.4857 130.403 74.7737 130.841C75.0723 131.267 75.2857 131.763 75.4137 132.329C75.5417 132.883 75.595 133.449 75.5737 134.025H69.2217ZM76.9106 129.625H77.9186V131.049H77.9506C78.1426 130.547 78.4839 130.147 78.9746 129.849C79.4652 129.539 80.0039 129.385 80.5906 129.385C81.1666 129.385 81.6466 129.459 82.0306 129.609C82.4252 129.758 82.7399 129.971 82.9746 130.249C83.2092 130.515 83.3746 130.846 83.4706 131.241C83.5666 131.635 83.6146 132.078 83.6146 132.569V137.881H82.6066V132.729C82.6066 132.377 82.5746 132.051 82.5106 131.753C82.4466 131.443 82.3346 131.177 82.1746 130.953C82.0146 130.729 81.7959 130.553 81.5186 130.425C81.2519 130.297 80.9159 130.233 80.5106 130.233C80.1052 130.233 79.7426 130.307 79.4226 130.457C79.1132 130.595 78.8466 130.793 78.6226 131.049C78.4092 131.294 78.2386 131.593 78.1106 131.945C77.9932 132.286 77.9292 132.659 77.9186 133.065V137.881H76.9106V129.625ZM91.7814 133.401H96.2774L94.0694 127.545L91.7814 133.401ZM93.5094 126.457H94.7254L99.2054 137.881H98.0374L96.6454 134.329H91.4454L90.0694 137.881H88.9174L93.5094 126.457ZM100.324 126.457H101.412V137.881H100.324V126.457ZM109.652 129.625H111.332V130.473H109.652V136.041C109.652 136.371 109.694 136.633 109.78 136.825C109.876 137.006 110.105 137.107 110.468 137.129C110.756 137.129 111.044 137.113 111.332 137.081V137.929C111.182 137.929 111.033 137.934 110.884 137.945C110.734 137.955 110.585 137.961 110.436 137.961C109.764 137.961 109.294 137.833 109.028 137.577C108.761 137.31 108.633 136.825 108.644 136.121V130.473H107.204V129.625H108.644V127.145H109.652V129.625ZM118.722 133.177C118.711 132.793 118.642 132.425 118.514 132.073C118.397 131.721 118.226 131.411 118.002 131.145C117.778 130.867 117.506 130.649 117.186 130.489C116.866 130.318 116.503 130.233 116.098 130.233C115.682 130.233 115.314 130.318 114.994 130.489C114.674 130.649 114.402 130.867 114.178 131.145C113.954 131.411 113.773 131.726 113.634 132.089C113.506 132.441 113.421 132.803 113.378 133.177H118.722ZM113.378 134.025C113.378 134.387 113.426 134.766 113.522 135.161C113.629 135.545 113.794 135.891 114.018 136.201C114.242 136.51 114.525 136.766 114.866 136.969C115.207 137.171 115.618 137.273 116.098 137.273C116.834 137.273 117.41 137.081 117.826 136.697C118.242 136.313 118.53 135.801 118.69 135.161H119.698C119.485 136.099 119.09 136.825 118.514 137.337C117.949 137.849 117.143 138.105 116.098 138.105C115.447 138.105 114.882 137.993 114.402 137.769C113.933 137.534 113.549 137.219 113.25 136.825C112.951 136.419 112.727 135.955 112.578 135.433C112.439 134.899 112.37 134.339 112.37 133.753C112.37 133.209 112.439 132.675 112.578 132.153C112.727 131.63 112.951 131.166 113.25 130.761C113.549 130.345 113.933 130.014 114.402 129.769C114.882 129.513 115.447 129.385 116.098 129.385C116.759 129.385 117.325 129.518 117.794 129.785C118.263 130.051 118.642 130.403 118.93 130.841C119.229 131.267 119.442 131.763 119.57 132.329C119.698 132.883 119.751 133.449 119.73 134.025H113.378ZM126.907 132.217C126.768 131.598 126.512 131.113 126.139 130.761C125.765 130.409 125.243 130.233 124.571 130.233C124.091 130.233 123.669 130.334 123.307 130.537C122.944 130.739 122.64 131.006 122.395 131.337C122.16 131.667 121.979 132.046 121.851 132.473C121.733 132.889 121.675 133.315 121.675 133.753C121.675 134.19 121.733 134.622 121.851 135.049C121.979 135.465 122.16 135.838 122.395 136.169C122.64 136.499 122.944 136.766 123.307 136.969C123.669 137.171 124.091 137.273 124.571 137.273C124.88 137.273 125.173 137.214 125.451 137.097C125.728 136.979 125.973 136.819 126.187 136.617C126.4 136.403 126.576 136.153 126.715 135.865C126.853 135.577 126.939 135.262 126.971 134.921H127.979C127.84 135.923 127.472 136.707 126.875 137.273C126.277 137.827 125.509 138.105 124.571 138.105C123.941 138.105 123.381 137.993 122.891 137.769C122.411 137.534 122.005 137.219 121.675 136.825C121.344 136.43 121.093 135.971 120.923 135.449C120.752 134.915 120.667 134.35 120.667 133.753C120.667 133.155 120.752 132.595 120.923 132.073C121.093 131.539 121.344 131.075 121.675 130.681C122.005 130.286 122.411 129.971 122.891 129.737C123.381 129.502 123.941 129.385 124.571 129.385C125.456 129.385 126.203 129.619 126.811 130.089C127.429 130.558 127.797 131.267 127.915 132.217H126.907ZM129.364 126.457H130.372V131.049H130.404C130.596 130.547 130.937 130.147 131.428 129.849C131.918 129.539 132.457 129.385 133.044 129.385C133.62 129.385 134.1 129.459 134.484 129.609C134.878 129.758 135.193 129.971 135.428 130.249C135.662 130.515 135.828 130.846 135.924 131.241C136.02 131.635 136.068 132.078 136.068 132.569V137.881H135.06V132.729C135.06 132.377 135.028 132.051 134.964 131.753C134.9 131.443 134.788 131.177 134.628 130.953C134.468 130.729 134.249 130.553 133.972 130.425C133.705 130.297 133.369 130.233 132.964 130.233C132.558 130.233 132.196 130.307 131.876 130.457C131.566 130.595 131.3 130.793 131.076 131.049C130.862 131.294 130.692 131.593 130.564 131.945C130.446 132.286 130.382 132.659 130.372 133.065V137.881H129.364V126.457ZM137.957 129.625H138.965V131.049H138.997C139.189 130.547 139.531 130.147 140.021 129.849C140.512 129.539 141.051 129.385 141.637 129.385C142.213 129.385 142.693 129.459 143.077 129.609C143.472 129.758 143.787 129.971 144.021 130.249C144.256 130.515 144.421 130.846 144.517 131.241C144.613 131.635 144.661 132.078 144.661 132.569V137.881H143.653V132.729C143.653 132.377 143.621 132.051 143.557 131.753C143.493 131.443 143.381 131.177 143.221 130.953C143.061 130.729 142.843 130.553 142.565 130.425C142.299 130.297 141.963 130.233 141.557 130.233C141.152 130.233 140.789 130.307 140.469 130.457C140.16 130.595 139.893 130.793 139.669 131.049C139.456 131.294 139.285 131.593 139.157 131.945C139.04 132.286 138.976 132.659 138.965 133.065V137.881H137.957V129.625ZM150.055 130.233C149.575 130.233 149.154 130.334 148.791 130.537C148.429 130.739 148.125 131.006 147.879 131.337C147.645 131.667 147.463 132.046 147.335 132.473C147.218 132.889 147.159 133.315 147.159 133.753C147.159 134.19 147.218 134.622 147.335 135.049C147.463 135.465 147.645 135.838 147.879 136.169C148.125 136.499 148.429 136.766 148.791 136.969C149.154 137.171 149.575 137.273 150.055 137.273C150.535 137.273 150.957 137.171 151.319 136.969C151.682 136.766 151.981 136.499 152.215 136.169C152.461 135.838 152.642 135.465 152.759 135.049C152.887 134.622 152.951 134.19 152.951 133.753C152.951 133.315 152.887 132.889 152.759 132.473C152.642 132.046 152.461 131.667 152.215 131.337C151.981 131.006 151.682 130.739 151.319 130.537C150.957 130.334 150.535 130.233 150.055 130.233ZM150.055 129.385C150.685 129.385 151.239 129.502 151.719 129.737C152.21 129.971 152.621 130.286 152.951 130.681C153.282 131.075 153.533 131.539 153.703 132.073C153.874 132.595 153.959 133.155 153.959 133.753C153.959 134.35 153.874 134.915 153.703 135.449C153.533 135.971 153.282 136.43 152.951 136.825C152.621 137.219 152.21 137.534 151.719 137.769C151.239 137.993 150.685 138.105 150.055 138.105C149.426 138.105 148.866 137.993 148.375 137.769C147.895 137.534 147.49 137.219 147.159 136.825C146.829 136.43 146.578 135.971 146.407 135.449C146.237 134.915 146.151 134.35 146.151 133.753C146.151 133.155 146.237 132.595 146.407 132.073C146.578 131.539 146.829 131.075 147.159 130.681C147.49 130.286 147.895 129.971 148.375 129.737C148.866 129.502 149.426 129.385 150.055 129.385ZM155.474 126.457H156.482V137.881H155.474V126.457ZM161.899 130.233C161.419 130.233 160.998 130.334 160.635 130.537C160.272 130.739 159.968 131.006 159.723 131.337C159.488 131.667 159.307 132.046 159.179 132.473C159.062 132.889 159.003 133.315 159.003 133.753C159.003 134.19 159.062 134.622 159.179 135.049C159.307 135.465 159.488 135.838 159.723 136.169C159.968 136.499 160.272 136.766 160.635 136.969C160.998 137.171 161.419 137.273 161.899 137.273C162.379 137.273 162.8 137.171 163.163 136.969C163.526 136.766 163.824 136.499 164.059 136.169C164.304 135.838 164.486 135.465 164.603 135.049C164.731 134.622 164.795 134.19 164.795 133.753C164.795 133.315 164.731 132.889 164.603 132.473C164.486 132.046 164.304 131.667 164.059 131.337C163.824 131.006 163.526 130.739 163.163 130.537C162.8 130.334 162.379 130.233 161.899 130.233ZM161.899 129.385C162.528 129.385 163.083 129.502 163.563 129.737C164.054 129.971 164.464 130.286 164.795 130.681C165.126 131.075 165.376 131.539 165.547 132.073C165.718 132.595 165.803 133.155 165.803 133.753C165.803 134.35 165.718 134.915 165.547 135.449C165.376 135.971 165.126 136.43 164.795 136.825C164.464 137.219 164.054 137.534 163.563 137.769C163.083 137.993 162.528 138.105 161.899 138.105C161.27 138.105 160.71 137.993 160.219 137.769C159.739 137.534 159.334 137.219 159.003 136.825C158.672 136.43 158.422 135.971 158.251 135.449C158.08 134.915 157.995 134.35 157.995 133.753C157.995 133.155 158.08 132.595 158.251 132.073C158.422 131.539 158.672 131.075 159.003 130.681C159.334 130.286 159.739 129.971 160.219 129.737C160.71 129.502 161.27 129.385 161.899 129.385ZM174.278 137.209C174.278 137.817 174.208 138.366 174.07 138.857C173.942 139.347 173.734 139.763 173.446 140.105C173.158 140.446 172.779 140.707 172.31 140.889C171.851 141.07 171.286 141.161 170.614 141.161C170.198 141.161 169.792 141.113 169.398 141.017C169.003 140.921 168.646 140.771 168.326 140.569C168.016 140.366 167.755 140.105 167.542 139.785C167.339 139.475 167.222 139.102 167.19 138.665H168.198C168.251 138.974 168.352 139.23 168.502 139.433C168.662 139.646 168.848 139.817 169.062 139.945C169.286 140.073 169.531 140.163 169.798 140.217C170.064 140.281 170.336 140.313 170.614 140.313C171.552 140.313 172.23 140.046 172.646 139.513C173.062 138.979 173.27 138.211 173.27 137.209V136.089H173.238C173.003 136.601 172.656 137.011 172.198 137.321C171.75 137.63 171.222 137.785 170.614 137.785C169.952 137.785 169.387 137.678 168.918 137.465C168.448 137.241 168.059 136.937 167.75 136.553C167.451 136.169 167.232 135.721 167.094 135.209C166.955 134.686 166.886 134.131 166.886 133.545C166.886 132.979 166.966 132.446 167.126 131.945C167.296 131.433 167.536 130.99 167.846 130.617C168.166 130.233 168.555 129.934 169.014 129.721C169.483 129.497 170.016 129.385 170.614 129.385C170.923 129.385 171.211 129.427 171.478 129.513C171.755 129.598 172.006 129.721 172.23 129.881C172.454 130.03 172.651 130.206 172.822 130.409C173.003 130.611 173.142 130.825 173.238 131.049H173.27V129.625H174.278V137.209ZM170.614 136.937C171.051 136.937 171.435 136.846 171.766 136.665C172.096 136.473 172.374 136.227 172.598 135.929C172.822 135.619 172.987 135.267 173.094 134.873C173.211 134.478 173.27 134.073 173.27 133.657C173.27 133.251 173.222 132.846 173.126 132.441C173.03 132.035 172.875 131.667 172.662 131.337C172.448 131.006 172.171 130.739 171.83 130.537C171.499 130.334 171.094 130.233 170.614 130.233C170.134 130.233 169.723 130.334 169.382 130.537C169.04 130.729 168.758 130.985 168.534 131.305C168.31 131.625 168.144 131.993 168.038 132.409C167.942 132.814 167.894 133.23 167.894 133.657C167.894 134.073 167.947 134.478 168.054 134.873C168.16 135.267 168.326 135.619 168.55 135.929C168.774 136.227 169.056 136.473 169.398 136.665C169.739 136.846 170.144 136.937 170.614 136.937ZM175.264 129.625H176.336L179.056 136.665L181.6 129.625H182.608L179.024 139.129C178.875 139.481 178.736 139.769 178.608 139.993C178.48 140.227 178.336 140.409 178.176 140.537C178.027 140.675 177.846 140.771 177.632 140.825C177.43 140.889 177.168 140.921 176.848 140.921C176.646 140.91 176.486 140.899 176.368 140.889C176.262 140.889 176.166 140.873 176.08 140.841V139.993C176.198 140.014 176.31 140.03 176.416 140.041C176.534 140.062 176.651 140.073 176.768 140.073C176.992 140.073 177.174 140.041 177.312 139.977C177.462 139.913 177.59 139.822 177.696 139.705C177.803 139.598 177.894 139.465 177.968 139.305C178.043 139.145 178.123 138.969 178.208 138.777L178.56 137.849L175.264 129.625Z" fill="black" fill-opacity="0.7"/>
</svg>
