<svg fill="none" height="42" viewBox="0 0 232 42" width="232" xmlns="http://www.w3.org/2000/svg"><path d="m61.159 31.1855h11.544c5.889 0 9.282-2.847 9.282-7.722 0-3.315-1.521-5.577-4.524-6.552 2.691-1.131 4.095-3.393 4.095-6.552 0-4.75795-3.432-7.68295-9.048-7.68295h-11.349zm10.92-24.10195c2.808 0 4.368 1.32599 4.368 3.78295 0 2.535-1.521 3.978-4.251 3.978h-6.045v-7.76095zm.429 11.97295c2.769 0 4.368 1.365 4.368 3.783 0 2.574-1.56 3.939-4.368 3.939h-6.357v-7.722zm26.4173-7.137v10.101c0 3.666-1.443 5.421-4.446 5.421-2.652 0-4.095-1.482-4.095-5.148v-10.374h-4.758v12.051c0 4.719 2.613 7.722 7.059 7.722 2.574 0 5.07-1.248 6.24-3.081l.351 2.574h4.4067v-19.266zm7.9957 28.197c1.053.273 2.223.429 3.549.429 3.159 0 5.187-1.482 6.63-5.07l9.438-23.556h-4.914l-5.226 14.04-4.953-14.04h-5.031l7.761 20.085-.546 1.443c-.819 2.262-1.989 2.691-3.861 2.691h-2.847zm30.062-8.424c5.031 0 8.541-2.535 9.36-6.747h-4.407c-.546 1.833-2.262 2.847-4.875 2.847-3.159 0-4.953-1.716-5.304-5.109l14.508-.039v-1.443c0-6.006-3.666-9.867-9.438-9.867-5.655 0-9.594 4.173-9.594 10.218 0 5.967 4.017 10.14 9.75 10.14zm-.117-16.458c2.847 0 4.68 1.755 4.68 4.407h-9.672c.468-2.886 2.184-4.407 4.992-4.407zm25.297-3.393c-.78-.195-1.443-.273-2.106-.273-2.574 0-4.407 1.287-5.226 3.198l-.273-2.808h-4.485v19.227h4.758v-9.36c0-3.744 2.145-5.577 5.577-5.577h1.755zm18.225 19.344v-3.978h-9.75l9.75-11.349v-3.939h-15.561v3.978h9.594l-9.594 11.388v3.9zm9.619.507c3.003 0 5.616-1.365 6.435-3.354l.351 2.847h4.173v-11.7c0-5.343-3.198-8.151-8.385-8.151-5.226 0-8.658 2.73-8.658 6.903h4.056c0-2.028 1.56-3.198 4.368-3.198 2.418 0 3.978 1.053 3.978 3.666v.429l-5.772.429c-4.563.351-7.137 2.574-7.137 6.123 0 3.627 2.496 6.006 6.591 6.006zm1.56-3.588c-2.145 0-3.315-.858-3.315-2.613 0-1.56 1.131-2.535 4.095-2.808l4.017-.312v1.014c0 2.964-1.872 4.719-4.797 4.719zm14.074 12.012h4.758v-11.505c1.209 1.95 3.705 3.081 6.591 3.081 5.733 0 9.009-4.368 9.009-10.374 0-6.045-3.588-9.984-9.009-9.984-2.925 0-5.46 1.287-6.63 3.51l-.312-2.925h-4.407zm4.797-18.564c0-3.471 2.145-5.889 5.421-5.889 3.354 0 5.343 2.457 5.343 5.889s-1.989 5.85-5.343 5.85c-3.276 0-5.421-2.379-5.421-5.85z" fill="#d9d9d9"/><path d="m10.6258 38.1374v-6.0777c0-.2392-.0818-.4774-.2614-.6572s-.41783-.2618-.65719-.2618h-3.64196c-2.06763 0-3.72802-1.6614-3.72802-3.7324v-17.2645c0-2.07098 1.66039-3.73233 3.72802-3.73233h17.33065c.2394 0 .4777-.08206.6573-.26186.1795-.17976.2614-.418.2614-.65718 0-.23919-.0819-.47743-.2614-.65718-.1796-.1798-.4179-.26186-.6573-.26186h-17.33065c-3.08135 0-5.56525 2.48716-5.56525 5.57041v17.2645c0 3.0833 2.4839 5.5705 5.56525 5.5705h2.72334v7.2942c0 .1711.04419.3433.14664.4971.08882.1334.20654.2308.3316.301.10995.0767.22138.1.27436.1088.07351.0123.1405.0121.16272.0121h.0033c.1212 0 .24456-.0208.36549-.0746.1162-.0517.206-.1232.2767-.1932l8.3075-7.9454h15.623c2.2992 0 4.3668-1.4252 5.1954-3.5429.1975-.4971-.0983-1.0197-.5303-1.1927-.4983-.1995-1.0216.0978-1.1944.5301l-.0008.0021c-.553 1.4023-1.9599 2.3653-3.4699 2.3653h-15.9911c-.1212 0-.2445.0208-.3654.0746-.1163.0517-.2063.1233-.277.1934zm22.1029-29.08026v-3.89995c0-1.72575-.532-3.12553-1.629-3.92418l-.0013-.00097c-.8787-.635259-1.8954-.756629-2.6661-.728266-.3894.014332-.7294.067231-.9791.119678-.1251.026274-.2294.052804-.3078.075107-.039.011107-.0732.021596-.1014.030956l-.0013.000449c-.0166.005492-.0618.020502-.103.041109-.2878.144019-.5693.460037-.5693.866167v4.60947c0 1.68532-.9631 2.83089-2.0109 3.58568-.5227.37651-1.0538.64531-1.4658.82241-.2054.0883-.3792.153-.505.1964-.0629.0216-.1134.0379-.1495.049-.0256.0079-.0417.0125-.0489.0145-.1404.0316-.2581.0966-.3533.1777-.4641-.4795-1.1138-.7781-1.8318-.7781h-2.3443c-1.4069 0-2.5512 1.1462-2.5512 2.5533v10.5598c0 1.4071 1.1443 2.5534 2.5512 2.5534h2.3443c.6538 0 1.2457-.2535 1.6969-.6689.7196.8044 1.748 1.3393 2.9497 1.3393h11.2607c1.2795 0 2.3742-.3377 3.1905-1.0096.8183-.6735 1.3093-1.6439 1.4492-2.8163l1.4622-9.2835c.1444-.7338.0418-1.4107-.1889-2.0575l-.0056-.0155-.0065-.0151c-.6224-1.4379-2.0572-2.39656-3.6403-2.39656zm-10.1723 3.81046c0-.0545-.0017-.1085-.0051-.1621.0331-.0062.0664-.0147.0999-.0255.0027-.0007.0053-.0013.0077-.0019.0206-.0051.044-.0115.0688-.0187.0503-.0145.1167-.0352.1964-.0621.1596-.054.3785-.135.6366-.2459.5149-.2213 1.1954-.5657 1.8763-1.0589 1.3593-.9845 2.7707-2.60454 2.7707-5.04579v-3.85288c.5332-.06103 1.258-.02832 1.8046.36251l.0023.00162c.5184.3663.8769 1.1286.8769 2.44114v4.819c0 .2392.0818.4774.2614.6572s.4179.2618.6572.2618h6.363c.8388 0 1.5847.5024 1.9275 1.2916l.0096.0222.0118.0212c.1387.25.1818.5864.1127.9671l-.0002-.0001-.0018.0116-1.4651 9.3028-.0016.0102-.0012.0103c-.109.9452-.5202 1.4658-1.0113 1.7689-.5169.319-1.1751.4283-1.7991.4283h-11.3026c-1.1467 0-2.0954-.9489-2.0954-2.098zm-2.5512-.7152c.3931 0 .7139.3204.7139.7152v10.5179c0 .3948-.3208.7153-.7139.7153h-2.3443c-.3932 0-.714-.3205-.714-.7153v-10.5179c0-.3948.3208-.7152.714-.7152z" fill="#30d5c8"/><g stroke="#30d5c8"><path d="m10.6258 38.1374v-6.0777c0-.2392-.0818-.4774-.2614-.6572s-.41783-.2618-.65719-.2618h-3.64196c-2.06763 0-3.72802-1.6614-3.72802-3.7324v-17.2645c0-2.07098 1.66039-3.73233 3.72802-3.73233h17.33065c.2394 0 .4777-.08206.6573-.26186.1795-.17976.2614-.418.2614-.65718 0-.23919-.0819-.47743-.2614-.65718-.1796-.1798-.4179-.26186-.6573-.26186h-17.33065c-3.08135 0-5.56525 2.48716-5.56525 5.57041v17.2645c0 3.0833 2.4839 5.5705 5.56525 5.5705h2.72334v7.2942c0 .1711.04419.3433.14664.4971.08882.1334.20654.2308.3316.301.10995.0767.22138.1.27436.1088.07351.0123.1405.0121.16272.0121h.0033c.1212 0 .24456-.0208.36549-.0746.1162-.0517.206-.1232.2767-.1932l8.3075-7.9454h15.623c2.2992 0 4.3668-1.4252 5.1954-3.5429.1975-.4971-.0983-1.0197-.5303-1.1927-.4983-.1995-1.0216.0978-1.1944.5301l-.0008.0021c-.553 1.4023-1.9599 2.3653-3.4699 2.3653h-15.9911c-.1212 0-.2445.0208-.3654.0746-.1163.0517-.2063.1233-.277.1934zm22.1029-29.08026v-3.89995c0-1.72575-.532-3.12553-1.629-3.92418l-.0013-.00097c-.8787-.635259-1.8954-.756629-2.6661-.728266-.3894.014332-.7294.067231-.9791.119678-.1251.026274-.2294.052804-.3078.075107-.039.011107-.0732.021596-.1014.030956l-.0013.000449c-.0166.005492-.0618.020502-.103.041109-.2878.144019-.5693.460037-.5693.866167v4.60947c0 1.68532-.9631 2.83089-2.0109 3.58568-.5227.37651-1.0538.64531-1.4658.82241-.2054.0883-.3792.153-.505.1964-.0629.0216-.1134.0379-.1495.049-.0256.0079-.0417.0125-.0489.0145-.1404.0316-.2581.0966-.3533.1777-.4641-.4795-1.1138-.7781-1.8318-.7781h-2.3443c-1.4069 0-2.5512 1.1462-2.5512 2.5533v10.5598c0 1.4071 1.1443 2.5534 2.5512 2.5534h2.3443c.6538 0 1.2457-.2535 1.6969-.6689.7196.8044 1.748 1.3393 2.9497 1.3393h11.2607c1.2795 0 2.3742-.3377 3.1905-1.0096.8183-.6735 1.3093-1.6439 1.4492-2.8163l1.4622-9.2835c.1444-.7338.0418-1.4107-.1889-2.0575l-.0056-.0155-.0065-.0151c-.6224-1.4379-2.0572-2.39656-3.6403-2.39656zm-10.1723 3.81046c0-.0545-.0017-.1085-.0051-.1621.0331-.0062.0664-.0147.0999-.0255.0027-.0007.0053-.0013.0077-.0019.0206-.0051.044-.0115.0688-.0187.0503-.0145.1167-.0352.1964-.0621.1596-.054.3785-.135.6366-.2459.5149-.2213 1.1954-.5657 1.8763-1.0589 1.3593-.9845 2.7707-2.60454 2.7707-5.04579v-3.85288c.5332-.06103 1.258-.02832 1.8046.36251l.0023.00162c.5184.3663.8769 1.1286.8769 2.44114v4.819c0 .2392.0818.4774.2614.6572s.4179.2618.6572.2618h6.363c.8388 0 1.5847.5024 1.9275 1.2916l.0096.0222.0118.0212c.1387.25.1818.5864.1127.9671l-.0002-.0001-.0018.0116-1.4651 9.3028-.0016.0102-.0012.0103c-.109.9452-.5202 1.4658-1.0113 1.7689-.5169.319-1.1751.4283-1.7991.4283h-11.3026c-1.1467 0-2.0954-.9489-2.0954-2.098zm-2.5512-.7152c.3931 0 .7139.3204.7139.7152v10.5179c0 .3948-.3208.7153-.7139.7153h-2.3443c-.3932 0-.714-.3205-.714-.7153v-10.5179c0-.3948.3208-.7152.714-.7152z"/><path d="m10.6258 38.1374v-6.0777c0-.2392-.0818-.4774-.2614-.6572s-.41783-.2618-.65719-.2618h-3.64196c-2.06763 0-3.72802-1.6614-3.72802-3.7324v-17.2645c0-2.07098 1.66039-3.73233 3.72802-3.73233h17.33065c.2394 0 .4777-.08206.6573-.26186.1795-.17976.2614-.418.2614-.65718 0-.23919-.0819-.47743-.2614-.65718-.1796-.1798-.4179-.26186-.6573-.26186h-17.33065c-3.08135 0-5.56525 2.48716-5.56525 5.57041v17.2645c0 3.0833 2.4839 5.5705 5.56525 5.5705h2.72334v7.2942c0 .1711.04419.3433.14664.4971.08882.1334.20654.2308.3316.301.10995.0767.22138.1.27436.1088.07351.0123.1405.0121.16272.0121h.0033c.1212 0 .24456-.0208.36549-.0746.1162-.0517.206-.1232.2767-.1932l8.3075-7.9454h15.623c2.2992 0 4.3668-1.4252 5.1954-3.5429.1975-.4971-.0983-1.0197-.5303-1.1927-.4983-.1995-1.0216.0978-1.1944.5301l-.0008.0021c-.553 1.4023-1.9599 2.3653-3.4699 2.3653h-15.9911c-.1212 0-.2445.0208-.3654.0746-.1163.0517-.2063.1233-.277.1934zm22.1029-29.08026v-3.89995c0-1.72575-.532-3.12553-1.629-3.92418l-.0013-.00097c-.8787-.635259-1.8954-.756629-2.6661-.728266-.3894.014332-.7294.067231-.9791.119678-.1251.026274-.2294.052804-.3078.075107-.039.011107-.0732.021596-.1014.030956l-.0013.000449c-.0166.005492-.0618.020502-.103.041109-.2878.144019-.5693.460037-.5693.866167v4.60947c0 1.68532-.9631 2.83089-2.0109 3.58568-.5227.37651-1.0538.64531-1.4658.82241-.2054.0883-.3792.153-.505.1964-.0629.0216-.1134.0379-.1495.049-.0256.0079-.0417.0125-.0489.0145-.1404.0316-.2581.0966-.3533.1777-.4641-.4795-1.1138-.7781-1.8318-.7781h-2.3443c-1.4069 0-2.5512 1.1462-2.5512 2.5533v10.5598c0 1.4071 1.1443 2.5534 2.5512 2.5534h2.3443c.6538 0 1.2457-.2535 1.6969-.6689.7196.8044 1.748 1.3393 2.9497 1.3393h11.2607c1.2795 0 2.3742-.3377 3.1905-1.0096.8183-.6735 1.3093-1.6439 1.4492-2.8163l1.4622-9.2835c.1444-.7338.0418-1.4107-.1889-2.0575l-.0056-.0155-.0065-.0151c-.6224-1.4379-2.0572-2.39656-3.6403-2.39656zm-10.1723 3.81046c0-.0545-.0017-.1085-.0051-.1621.0331-.0062.0664-.0147.0999-.0255.0027-.0007.0053-.0013.0077-.0019.0206-.0051.044-.0115.0688-.0187.0503-.0145.1167-.0352.1964-.0621.1596-.054.3785-.135.6366-.2459.5149-.2213 1.1954-.5657 1.8763-1.0589 1.3593-.9845 2.7707-2.60454 2.7707-5.04579v-3.85288c.5332-.06103 1.258-.02832 1.8046.36251l.0023.00162c.5184.3663.8769 1.1286.8769 2.44114v4.819c0 .2392.0818.4774.2614.6572s.4179.2618.6572.2618h6.363c.8388 0 1.5847.5024 1.9275 1.2916l.0096.0222.0118.0212c.1387.25.1818.5864.1127.9671l-.0002-.0001-.0018.0116-1.4651 9.3028-.0016.0102-.0012.0103c-.109.9452-.5202 1.4658-1.0113 1.7689-.5169.319-1.1751.4283-1.7991.4283h-11.3026c-1.1467 0-2.0954-.9489-2.0954-2.098zm-2.5512-.7152c.3931 0 .7139.3204.7139.7152v10.5179c0 .3948-.3208.7153-.7139.7153h-2.3443c-.3932 0-.714-.3205-.714-.7153v-10.5179c0-.3948.3208-.7152.714-.7152z" stroke-opacity=".2"/></g></svg>