<svg width="232" height="42" viewBox="0 0 232 42" fill="none" xmlns="http://www.w3.org/2000/svg">
<path d="M61.159 31.1855H72.703C78.592 31.1855 81.985 28.3385 81.985 23.4635C81.985 20.1485 80.464 17.8865 77.461 16.9115C80.152 15.7805 81.556 13.5185 81.556 10.3595C81.556 5.60155 78.124 2.67655 72.508 2.67655H61.159V31.1855ZM72.079 7.08355C74.887 7.08355 76.447 8.40954 76.447 10.8665C76.447 13.4015 74.926 14.8445 72.196 14.8445H66.151V7.08355H72.079ZM72.508 19.0565C75.277 19.0565 76.876 20.4215 76.876 22.8395C76.876 25.4135 75.316 26.7785 72.508 26.7785H66.151V19.0565H72.508ZM98.9253 11.9195V22.0205C98.9253 25.6865 97.4823 27.4415 94.4793 27.4415C91.8273 27.4415 90.3843 25.9595 90.3843 22.2935V11.9195H85.6263V23.9705C85.6263 28.6895 88.2393 31.6925 92.6853 31.6925C95.2593 31.6925 97.7553 30.4445 98.9253 28.6115L99.2763 31.1855H103.683V11.9195H98.9253ZM106.921 40.1165C107.974 40.3895 109.144 40.5455 110.47 40.5455C113.629 40.5455 115.657 39.0635 117.1 35.4755L126.538 11.9195H121.624L116.398 25.9595L111.445 11.9195H106.414L114.175 32.0045L113.629 33.4475C112.81 35.7095 111.64 36.1385 109.768 36.1385H106.921V40.1165ZM136.983 31.6925C142.014 31.6925 145.524 29.1575 146.343 24.9455H141.936C141.39 26.7785 139.674 27.7925 137.061 27.7925C133.902 27.7925 132.108 26.0765 131.757 22.6835L146.265 22.6445V21.2015C146.265 15.1955 142.599 11.3345 136.827 11.3345C131.172 11.3345 127.233 15.5075 127.233 21.5525C127.233 27.5195 131.25 31.6925 136.983 31.6925ZM136.866 15.2345C139.713 15.2345 141.546 16.9895 141.546 19.6415H131.874C132.342 16.7555 134.058 15.2345 136.866 15.2345ZM162.163 11.8415C161.383 11.6465 160.72 11.5685 160.057 11.5685C157.483 11.5685 155.65 12.8555 154.831 14.7665L154.558 11.9585H150.073V31.1855H154.831V21.8255C154.831 18.0815 156.976 16.2485 160.408 16.2485H162.163V11.8415ZM180.388 31.1855V27.2075H170.638L180.388 15.8585V11.9195H164.827V15.8975H174.421L164.827 27.2855V31.1855H180.388ZM190.007 31.6925C193.01 31.6925 195.623 30.3275 196.442 28.3385L196.793 31.1855H200.966V19.4855C200.966 14.1425 197.768 11.3345 192.581 11.3345C187.355 11.3345 183.923 14.0645 183.923 18.2375H187.979C187.979 16.2095 189.539 15.0395 192.347 15.0395C194.765 15.0395 196.325 16.0925 196.325 18.7055V19.1345L190.553 19.5635C185.99 19.9145 183.416 22.1375 183.416 25.6865C183.416 29.3135 185.912 31.6925 190.007 31.6925ZM191.567 28.1045C189.422 28.1045 188.252 27.2465 188.252 25.4915C188.252 23.9315 189.383 22.9565 192.347 22.6835L196.364 22.3715V23.3855C196.364 26.3495 194.492 28.1045 191.567 28.1045ZM205.641 40.1165H210.399V28.6115C211.608 30.5615 214.104 31.6925 216.99 31.6925C222.723 31.6925 225.999 27.3245 225.999 21.3185C225.999 15.2735 222.411 11.3345 216.99 11.3345C214.065 11.3345 211.53 12.6215 210.36 14.8445L210.048 11.9195H205.641V40.1165ZM210.438 21.5525C210.438 18.0815 212.583 15.6635 215.859 15.6635C219.213 15.6635 221.202 18.1205 221.202 21.5525C221.202 24.9845 219.213 27.4025 215.859 27.4025C212.583 27.4025 210.438 25.0235 210.438 21.5525Z" fill="#D9D9D9"/>
<path d="M10.6258 38.1374L10.6258 32.0597C10.6258 31.8205 10.544 31.5823 10.3644 31.4025C10.1848 31.2227 9.94657 31.1407 9.70721 31.1407L6.06525 31.1407C3.99762 31.1407 2.33723 29.4793 2.33723 27.4083L2.33723 10.1438C2.33723 8.07282 3.99762 6.41147 6.06525 6.41147L23.3959 6.41147C23.6353 6.41147 23.8736 6.32941 24.0532 6.14961C24.2327 5.96985 24.3146 5.73161 24.3146 5.49243C24.3146 5.25324 24.2327 5.015 24.0532 4.83525C23.8736 4.65545 23.6353 4.57339 23.3959 4.57339L6.06525 4.57339C2.9839 4.57339 0.5 7.06055 0.5 10.1438L0.5 27.4083C0.5 30.4916 2.9839 32.9788 6.06525 32.9788H8.78859L8.78859 40.273C8.78859 40.4441 8.83278 40.6163 8.93523 40.7701C9.02405 40.9035 9.14177 41.0009 9.26683 41.0711C9.37678 41.1478 9.48821 41.1711 9.54119 41.1799C9.6147 41.1922 9.68169 41.192 9.70391 41.192L9.70721 41.192C9.82841 41.192 9.95177 41.1712 10.0727 41.1174C10.1889 41.0657 10.2787 40.9942 10.3494 40.9242L18.6569 32.9788L34.2799 32.9788C36.5791 32.9788 38.6467 31.5536 39.4753 29.4359C39.6728 28.9388 39.377 28.4162 38.945 28.2432C38.4467 28.0437 37.9234 28.341 37.7506 28.7733L37.7498 28.7754C37.1968 30.1777 35.7899 31.1407 34.2799 31.1407L18.2888 31.1407C18.1676 31.1407 18.0443 31.1615 17.9234 31.2153C17.8071 31.267 17.7171 31.3386 17.6464 31.4087L10.6258 38.1374ZM32.7287 9.05714V5.15719C32.7287 3.43144 32.1967 2.03166 31.0997 1.23301L31.0984 1.23204C30.2197 0.596781 29.203 0.475411 28.4323 0.503774C28.0429 0.518106 27.7029 0.571005 27.4532 0.623452C27.3281 0.649726 27.2238 0.676256 27.1454 0.698559C27.1064 0.709666 27.0722 0.720155 27.044 0.729515L27.0427 0.729964C27.0261 0.735456 26.9809 0.750466 26.9397 0.771073C26.6519 0.915092 26.3704 1.23111 26.3704 1.63724V6.24671C26.3704 7.93203 25.4073 9.0776 24.3595 9.83239C23.8368 10.2089 23.3057 10.4777 22.8937 10.6548C22.6883 10.7431 22.5145 10.8078 22.3887 10.8512C22.3258 10.8728 22.2753 10.8891 22.2392 10.9002C22.2136 10.9081 22.1975 10.9127 22.1903 10.9147C22.0499 10.9463 21.9322 11.0113 21.837 11.0924C21.3729 10.6129 20.7232 10.3143 20.0052 10.3143L17.6609 10.3143C16.254 10.3143 15.1097 11.4605 15.1097 12.8676L15.1097 23.4274C15.1097 24.8345 16.254 25.9808 17.6609 25.9808H20.0052C20.659 25.9808 21.2509 25.7273 21.7021 25.3119C22.4217 26.1163 23.4501 26.6512 24.6518 26.6512H35.9125C37.192 26.6512 38.2867 26.3135 39.103 25.6416C39.9213 24.9681 40.4123 23.9977 40.5522 22.8253L42.0144 13.5418C42.1588 12.808 42.0562 12.1311 41.8255 11.4843L41.8199 11.4688L41.8134 11.4537C41.191 10.0158 39.7562 9.05714 38.1731 9.05714L32.7287 9.05714ZM22.5564 12.8676C22.5564 12.8131 22.5547 12.7591 22.5513 12.7055C22.5844 12.6993 22.6177 12.6908 22.6512 12.68C22.6539 12.6793 22.6565 12.6787 22.6589 12.6781C22.6795 12.673 22.7029 12.6666 22.7277 12.6594C22.778 12.6449 22.8444 12.6242 22.9241 12.5973C23.0837 12.5433 23.3026 12.4623 23.5607 12.3514C24.0756 12.1301 24.7561 11.7857 25.437 11.2925C26.7963 10.308 28.2077 8.68796 28.2077 6.24671V2.39383C28.7409 2.3328 29.4657 2.36551 30.0123 2.75634L30.0146 2.75796C30.533 3.12426 30.8915 3.88656 30.8915 5.1991L30.8915 10.0181C30.8915 10.2573 30.9733 10.4955 31.1529 10.6753C31.3325 10.8551 31.5708 10.9371 31.8101 10.9371L38.1731 10.9371C39.0119 10.9371 39.7578 11.4395 40.1006 12.2287L40.1102 12.2509L40.122 12.2721C40.2607 12.5221 40.3038 12.8585 40.2347 13.2392L40.2345 13.2391L40.2327 13.2507L38.7676 22.5535L38.766 22.5637L38.7648 22.574C38.6558 23.5192 38.2446 24.0398 37.7535 24.3429C37.2366 24.6619 36.5784 24.7712 35.9544 24.7712H24.6518C23.5051 24.7712 22.5564 23.8223 22.5564 22.6732V12.8676ZM20.0052 12.1524C20.3983 12.1524 20.7191 12.4728 20.7191 12.8676L20.7191 23.3855C20.7191 23.7803 20.3983 24.1008 20.0052 24.1008H17.6609C17.2677 24.1008 16.9469 23.7803 16.9469 23.3855L16.9469 12.8676C16.9469 12.4728 17.2677 12.1524 17.6609 12.1524L20.0052 12.1524Z" fill="#30D5C8"/>
<path d="M10.6258 38.1374L10.6258 32.0597C10.6258 31.8205 10.544 31.5823 10.3644 31.4025C10.1848 31.2227 9.94657 31.1407 9.70721 31.1407L6.06525 31.1407C3.99762 31.1407 2.33723 29.4793 2.33723 27.4083L2.33723 10.1438C2.33723 8.07282 3.99762 6.41147 6.06525 6.41147L23.3959 6.41147C23.6353 6.41147 23.8736 6.32941 24.0532 6.14961C24.2327 5.96985 24.3146 5.73161 24.3146 5.49243C24.3146 5.25324 24.2327 5.015 24.0532 4.83525C23.8736 4.65545 23.6353 4.57339 23.3959 4.57339L6.06525 4.57339C2.9839 4.57339 0.5 7.06055 0.5 10.1438L0.5 27.4083C0.5 30.4916 2.9839 32.9788 6.06525 32.9788H8.78859L8.78859 40.273C8.78859 40.4441 8.83278 40.6163 8.93523 40.7701C9.02405 40.9035 9.14177 41.0009 9.26683 41.0711C9.37678 41.1478 9.48821 41.1711 9.54119 41.1799C9.6147 41.1922 9.68169 41.192 9.70391 41.192L9.70721 41.192C9.82841 41.192 9.95177 41.1712 10.0727 41.1174C10.1889 41.0657 10.2787 40.9942 10.3494 40.9242L18.6569 32.9788L34.2799 32.9788C36.5791 32.9788 38.6467 31.5536 39.4753 29.4359C39.6728 28.9388 39.377 28.4162 38.945 28.2432C38.4467 28.0437 37.9234 28.341 37.7506 28.7733L37.7498 28.7754C37.1968 30.1777 35.7899 31.1407 34.2799 31.1407L18.2888 31.1407C18.1676 31.1407 18.0443 31.1615 17.9234 31.2153C17.8071 31.267 17.7171 31.3386 17.6464 31.4087L10.6258 38.1374ZM32.7287 9.05714V5.15719C32.7287 3.43144 32.1967 2.03166 31.0997 1.23301L31.0984 1.23204C30.2197 0.596781 29.203 0.475411 28.4323 0.503774C28.0429 0.518106 27.7029 0.571005 27.4532 0.623452C27.3281 0.649726 27.2238 0.676256 27.1454 0.698559C27.1064 0.709666 27.0722 0.720155 27.044 0.729515L27.0427 0.729964C27.0261 0.735456 26.9809 0.750466 26.9397 0.771073C26.6519 0.915092 26.3704 1.23111 26.3704 1.63724V6.24671C26.3704 7.93203 25.4073 9.0776 24.3595 9.83239C23.8368 10.2089 23.3057 10.4777 22.8937 10.6548C22.6883 10.7431 22.5145 10.8078 22.3887 10.8512C22.3258 10.8728 22.2753 10.8891 22.2392 10.9002C22.2136 10.9081 22.1975 10.9127 22.1903 10.9147C22.0499 10.9463 21.9322 11.0113 21.837 11.0924C21.3729 10.6129 20.7232 10.3143 20.0052 10.3143L17.6609 10.3143C16.254 10.3143 15.1097 11.4605 15.1097 12.8676L15.1097 23.4274C15.1097 24.8345 16.254 25.9808 17.6609 25.9808H20.0052C20.659 25.9808 21.2509 25.7273 21.7021 25.3119C22.4217 26.1163 23.4501 26.6512 24.6518 26.6512H35.9125C37.192 26.6512 38.2867 26.3135 39.103 25.6416C39.9213 24.9681 40.4123 23.9977 40.5522 22.8253L42.0144 13.5418C42.1588 12.808 42.0562 12.1311 41.8255 11.4843L41.8199 11.4688L41.8134 11.4537C41.191 10.0158 39.7562 9.05714 38.1731 9.05714L32.7287 9.05714ZM22.5564 12.8676C22.5564 12.8131 22.5547 12.7591 22.5513 12.7055C22.5844 12.6993 22.6177 12.6908 22.6512 12.68C22.6539 12.6793 22.6565 12.6787 22.6589 12.6781C22.6795 12.673 22.7029 12.6666 22.7277 12.6594C22.778 12.6449 22.8444 12.6242 22.9241 12.5973C23.0837 12.5433 23.3026 12.4623 23.5607 12.3514C24.0756 12.1301 24.7561 11.7857 25.437 11.2925C26.7963 10.308 28.2077 8.68796 28.2077 6.24671V2.39383C28.7409 2.3328 29.4657 2.36551 30.0123 2.75634L30.0146 2.75796C30.533 3.12426 30.8915 3.88656 30.8915 5.1991L30.8915 10.0181C30.8915 10.2573 30.9733 10.4955 31.1529 10.6753C31.3325 10.8551 31.5708 10.9371 31.8101 10.9371L38.1731 10.9371C39.0119 10.9371 39.7578 11.4395 40.1006 12.2287L40.1102 12.2509L40.122 12.2721C40.2607 12.5221 40.3038 12.8585 40.2347 13.2392L40.2345 13.2391L40.2327 13.2507L38.7676 22.5535L38.766 22.5637L38.7648 22.574C38.6558 23.5192 38.2446 24.0398 37.7535 24.3429C37.2366 24.6619 36.5784 24.7712 35.9544 24.7712H24.6518C23.5051 24.7712 22.5564 23.8223 22.5564 22.6732V12.8676ZM20.0052 12.1524C20.3983 12.1524 20.7191 12.4728 20.7191 12.8676L20.7191 23.3855C20.7191 23.7803 20.3983 24.1008 20.0052 24.1008H17.6609C17.2677 24.1008 16.9469 23.7803 16.9469 23.3855L16.9469 12.8676C16.9469 12.4728 17.2677 12.1524 17.6609 12.1524L20.0052 12.1524Z" stroke="#30D5C8"/>
<path d="M10.6258 38.1374L10.6258 32.0597C10.6258 31.8205 10.544 31.5823 10.3644 31.4025C10.1848 31.2227 9.94657 31.1407 9.70721 31.1407L6.06525 31.1407C3.99762 31.1407 2.33723 29.4793 2.33723 27.4083L2.33723 10.1438C2.33723 8.07282 3.99762 6.41147 6.06525 6.41147L23.3959 6.41147C23.6353 6.41147 23.8736 6.32941 24.0532 6.14961C24.2327 5.96985 24.3146 5.73161 24.3146 5.49243C24.3146 5.25324 24.2327 5.015 24.0532 4.83525C23.8736 4.65545 23.6353 4.57339 23.3959 4.57339L6.06525 4.57339C2.9839 4.57339 0.5 7.06055 0.5 10.1438L0.5 27.4083C0.5 30.4916 2.9839 32.9788 6.06525 32.9788H8.78859L8.78859 40.273C8.78859 40.4441 8.83278 40.6163 8.93523 40.7701C9.02405 40.9035 9.14177 41.0009 9.26683 41.0711C9.37678 41.1478 9.48821 41.1711 9.54119 41.1799C9.6147 41.1922 9.68169 41.192 9.70391 41.192L9.70721 41.192C9.82841 41.192 9.95177 41.1712 10.0727 41.1174C10.1889 41.0657 10.2787 40.9942 10.3494 40.9242L18.6569 32.9788L34.2799 32.9788C36.5791 32.9788 38.6467 31.5536 39.4753 29.4359C39.6728 28.9388 39.377 28.4162 38.945 28.2432C38.4467 28.0437 37.9234 28.341 37.7506 28.7733L37.7498 28.7754C37.1968 30.1777 35.7899 31.1407 34.2799 31.1407L18.2888 31.1407C18.1676 31.1407 18.0443 31.1615 17.9234 31.2153C17.8071 31.267 17.7171 31.3386 17.6464 31.4087L10.6258 38.1374ZM32.7287 9.05714V5.15719C32.7287 3.43144 32.1967 2.03166 31.0997 1.23301L31.0984 1.23204C30.2197 0.596781 29.203 0.475411 28.4323 0.503774C28.0429 0.518106 27.7029 0.571005 27.4532 0.623452C27.3281 0.649726 27.2238 0.676256 27.1454 0.698559C27.1064 0.709666 27.0722 0.720155 27.044 0.729515L27.0427 0.729964C27.0261 0.735456 26.9809 0.750466 26.9397 0.771073C26.6519 0.915092 26.3704 1.23111 26.3704 1.63724V6.24671C26.3704 7.93203 25.4073 9.0776 24.3595 9.83239C23.8368 10.2089 23.3057 10.4777 22.8937 10.6548C22.6883 10.7431 22.5145 10.8078 22.3887 10.8512C22.3258 10.8728 22.2753 10.8891 22.2392 10.9002C22.2136 10.9081 22.1975 10.9127 22.1903 10.9147C22.0499 10.9463 21.9322 11.0113 21.837 11.0924C21.3729 10.6129 20.7232 10.3143 20.0052 10.3143L17.6609 10.3143C16.254 10.3143 15.1097 11.4605 15.1097 12.8676L15.1097 23.4274C15.1097 24.8345 16.254 25.9808 17.6609 25.9808H20.0052C20.659 25.9808 21.2509 25.7273 21.7021 25.3119C22.4217 26.1163 23.4501 26.6512 24.6518 26.6512H35.9125C37.192 26.6512 38.2867 26.3135 39.103 25.6416C39.9213 24.9681 40.4123 23.9977 40.5522 22.8253L42.0144 13.5418C42.1588 12.808 42.0562 12.1311 41.8255 11.4843L41.8199 11.4688L41.8134 11.4537C41.191 10.0158 39.7562 9.05714 38.1731 9.05714L32.7287 9.05714ZM22.5564 12.8676C22.5564 12.8131 22.5547 12.7591 22.5513 12.7055C22.5844 12.6993 22.6177 12.6908 22.6512 12.68C22.6539 12.6793 22.6565 12.6787 22.6589 12.6781C22.6795 12.673 22.7029 12.6666 22.7277 12.6594C22.778 12.6449 22.8444 12.6242 22.9241 12.5973C23.0837 12.5433 23.3026 12.4623 23.5607 12.3514C24.0756 12.1301 24.7561 11.7857 25.437 11.2925C26.7963 10.308 28.2077 8.68796 28.2077 6.24671V2.39383C28.7409 2.3328 29.4657 2.36551 30.0123 2.75634L30.0146 2.75796C30.533 3.12426 30.8915 3.88656 30.8915 5.1991L30.8915 10.0181C30.8915 10.2573 30.9733 10.4955 31.1529 10.6753C31.3325 10.8551 31.5708 10.9371 31.8101 10.9371L38.1731 10.9371C39.0119 10.9371 39.7578 11.4395 40.1006 12.2287L40.1102 12.2509L40.122 12.2721C40.2607 12.5221 40.3038 12.8585 40.2347 13.2392L40.2345 13.2391L40.2327 13.2507L38.7676 22.5535L38.766 22.5637L38.7648 22.574C38.6558 23.5192 38.2446 24.0398 37.7535 24.3429C37.2366 24.6619 36.5784 24.7712 35.9544 24.7712H24.6518C23.5051 24.7712 22.5564 23.8223 22.5564 22.6732V12.8676ZM20.0052 12.1524C20.3983 12.1524 20.7191 12.4728 20.7191 12.8676L20.7191 23.3855C20.7191 23.7803 20.3983 24.1008 20.0052 24.1008H17.6609C17.2677 24.1008 16.9469 23.7803 16.9469 23.3855L16.9469 12.8676C16.9469 12.4728 17.2677 12.1524 17.6609 12.1524L20.0052 12.1524Z" stroke="#30D5C8" stroke-opacity="0.2"/>
</svg>
