<svg fill="none" height="19" viewBox="0 0 18 19" width="18" xmlns="http://www.w3.org/2000/svg"><path d="m9.61438 18.5556h-8.620918c-.548835 0-.993462-.4355-.993462-.9725v-15.67415c0-.53714.444697-.972427.993462-.972427h16.013138c.5486 0 .9934.435287.9934.972427v15.67415c0 .5371-.4448.9725-.9934.9725h-4.5869v-6.8231h2.3397l.3504-2.65907h-2.6901v-1.69764c0-.76987.2184-1.2945 1.3463-1.2945l1.4385-.00062v-2.37829c-.2488-.0324-1.1027-.1048-2.0962-.1048-2.074 0-3.49392 1.23919-3.49392 3.51486v1.96099h-2.34571v2.65907h2.34571z" fill="#fff"/></svg>