<svg fill="none" height="24" viewBox="0 0 24 24" width="24" xmlns="http://www.w3.org/2000/svg"><path clip-rule="evenodd" d="m5.11877 7.60674h-.0254c-1.26999 0-2.09337-.8133-2.09337-1.84422 0-1.05098.84772-1.84724 2.14311-1.84724 1.29433 0 2.09019.79425 2.11559 1.84423 0 1.03092-.82126 1.84723-2.13993 1.84723zm15.88123 11.96996h-3.9782v-5.5056c0-1.4411-.6223-2.4249-1.9908-2.4249-1.0466 0-1.6287.6639-1.8997 1.3037-.0894.2022-.0878.4744-.0861.7549.0002.0381.0004.0763.0004.1145v5.7574h-3.94118s.0508-9.75267 0-10.63919h3.94118v1.66969c.2329-.73002 1.4923-1.77198 3.502-1.77198 2.4934 0 4.4524 1.53038 4.4524 4.82568zm-14.03763-10.63919h-3.50835v10.63919h3.50835z" fill="#fff" fill-rule="evenodd"/></svg>