<svg fill="none" height="24" viewBox="0 0 24 24" width="24" xmlns="http://www.w3.org/2000/svg"><path d="m21 6.63231c-.6614.29482-1.3735.4942-2.1204.58328.7628-.45814 1.3481-1.18458 1.6238-2.04994-.7142.4242-1.5034.7328-2.3465.89824-.672-.72008-1.6323-1.16972-2.6952-1.16972-2.038 0-3.6915 1.65967-3.6915 3.70642 0 .29058.0317.57267.0951.84416-3.06921-.15484-5.78976-1.62892-7.61226-3.87399-.31802.54934-.49974 1.18669-.49974 1.86541 0 1.28532.65188 2.42005 1.6429 3.08493-.60434-.018-1.17486-.1866-1.67354-.4623v.0456c0 1.7964 1.27311 3.2949 2.96355 3.6343-.30956.0869-.63603.1304-.97306.1304-.23771 0-.47015-.0222-.69519-.0657.47015 1.4719 1.83307 2.5441 3.44955 2.5727-1.2636.9948-2.85684 1.5876-4.58637 1.5876-.29794 0-.59271-.017-.88114-.0509 1.63444 1.0499 3.57633 1.6639 5.66086 1.6639 6.79344 0 10.50714-5.6471 10.50714-10.54555 0-.16119-.0032-.32239-.0095-.4804.7216-.52282 1.3481-1.17503 1.8415-1.91844z" fill="#fff"/></svg>